<?xml version="1.0" encoding="utf-8"?>
<!-- Generator: Adobe Illustrator 18.1.1, SVG Export Plug-In . SVG Version: 6.00 Build 0)  -->
<svg version="1.1"
	 id="svg2" sodipodi:docname="2mm.svg" inkscape:version="0.48.5 r10040" xmlns:rdf="http://www.w3.org/1999/02/22-rdf-syntax-ns#" xmlns:svg="http://www.w3.org/2000/svg" xmlns:sodipodi="http://sodipodi.sourceforge.net/DTD/sodipodi-0.dtd" xmlns:inkscape="http://www.inkscape.org/namespaces/inkscape" xmlns:dc="http://purl.org/dc/elements/1.1/" xmlns:cc="http://creativecommons.org/ns#"
	 xmlns="http://www.w3.org/2000/svg" xmlns:xlink="http://www.w3.org/1999/xlink" x="0px" y="0px" viewBox="403 -667 1417.3 2126"
	 enable-background="new 403 -667 1417.3 2126" xml:space="preserve">
<sodipodi:namedview  inkscape:document-units="mm" inkscape:pageopacity="0.0" inkscape:current-layer="layer1" inkscape:pageshadow="2" inkscape:window-maximized="0" inkscape:window-y="0" inkscape:window-x="0" inkscape:window-height="856" inkscape:window-width="1436" inkscape:cy="1806.6511" inkscape:cx="605.52938" inkscape:zoom="0.7" borderopacity="1.0" showgrid="true" pagecolor="#ffffff" bordercolor="#666666" guidetolerance="10000" units="mm" id="base" objecttolerance="10000">
	
		<inkscape:grid  snapvisiblegridlinesonly="true" empspacing="5" enabled="true" visible="true" empopacity="0.25098039" empcolor="#0000ff" type="xygrid" units="mm" id="grid2985" dotted="false" spacingy="1mm" spacingx="1mm">
		</inkscape:grid>
</sodipodi:namedview>
<g id="layer1" transform="translate(0,1073.6223)" inkscape:groupmode="layer" inkscape:label="Layer 1">
	<path id="rect3507" inkscape:connector-curvature="0" fill="#FFFFFF" stroke="#000000" stroke-miterlimit="10" d="M403-1740.6v52.7
		v17.7v389.7v17.7v71.3h779.8v-71.3v-17.7v-389.8v-17.7v-52.7L403-1740.6L403-1740.6z M513.9-1703.2c2.5,0,4.6,2.1,4.6,4.6h34.7
		c0-2.5,2.1-4.6,4.6-4.6c2.5,0,4.6,2.1,4.6,4.6v10.6c0,2.5-2,4.6-4.6,4.6c-2.5,0-4.6-2-4.6-4.6h-34.7c0,2.5-2.1,4.6-4.6,4.6
		c-2.5,0-4.6-2-4.6-4.6v-10.6C509.3-1701.1,511.4-1703.2,513.9-1703.2z M620.2-1703.2c2.5,0,4.6,2.1,4.6,4.6h34.7
		c0-2.5,2-4.6,4.6-4.6s4.6,2.1,4.6,4.6v10.6c0,2.5-2.1,4.6-4.6,4.6c-2.5,0-4.6-2-4.6-4.6h-34.7c0,2.5-2,4.6-4.6,4.6
		c-2.5,0-4.6-2-4.6-4.6v-10.6C615.6-1701.1,617.7-1703.2,620.2-1703.2z M726.5-1703.2c2.5,0,4.6,2.1,4.6,4.6h34.7
		c0-2.5,2.1-4.6,4.6-4.6s4.6,2.1,4.6,4.6v10.6c0,2.5-2,4.6-4.6,4.6c-2.5,0-4.6-2-4.6-4.6h-34.7c0,2.5-2.1,4.6-4.6,4.6
		c-2.5,0-4.6-2-4.6-4.6v-10.6C721.9-1701.1,724-1703.2,726.5-1703.2z M815.1-1703.2c2.5,0,4.6,2.1,4.6,4.6h34.7c0-2.5,2-4.6,4.6-4.6
		s4.6,2.1,4.6,4.6v10.6c0,2.5-2.1,4.6-4.6,4.6c-2.5,0-4.6-2-4.6-4.6h-34.7c0,2.5-2,4.6-4.6,4.6c-2.5,0-4.6-2-4.6-4.6v-10.6
		C810.5-1701.1,812.5-1703.2,815.1-1703.2z M921.4-1703.2c2.5,0,4.6,2.1,4.6,4.6h34.7c0-2.5,2.1-4.6,4.6-4.6s4.6,2.1,4.6,4.6v10.6
		c0,2.5-2.1,4.6-4.6,4.6c-2.5,0-4.6-2-4.6-4.6H926c0,2.5-2.1,4.6-4.6,4.6c-2.5,0-4.6-2-4.6-4.6v-10.6
		C916.8-1701.1,918.8-1703.2,921.4-1703.2z M1027.7-1703.2c2.5,0,4.6,2.1,4.6,4.6h34.7c0-2.5,2.1-4.6,4.6-4.6s4.6,2.1,4.6,4.6v10.6
		c0,2.5-2,4.6-4.6,4.6c-2.5,0-4.6-2-4.6-4.6h-34.7c0,2.5-2.1,4.6-4.6,4.6c-2.5,0-4.6-2-4.6-4.6v-10.6
		C1023.1-1701.1,1025.1-1703.2,1027.7-1703.2z M499.7-1665.6c2.6,0,4.7,2.1,4.7,4.7s-2.1,4.7-4.7,4.7s-4.7-2.1-4.7-4.7
		S497.1-1665.6,499.7-1665.6z M1080-1665.6c2.6,0,4.7,2.1,4.7,4.7s-2.1,4.7-4.7,4.7c-2.6,0-4.7-2.1-4.7-4.7
		S1077.4-1665.6,1080-1665.6z M463.2-1652.5h10.7c2.5,0,4.6,2,4.6,4.6c0,2.5-2,4.6-4.6,4.6v34.7c2.5,0,4.6,2.1,4.6,4.6
		c0,2.5-2,4.6-4.6,4.6h-10.7c-2.5,0-4.6-2.1-4.6-4.6c0-2.5,2-4.6,4.6-4.6v-34.7c-2.5,0-4.6-2.1-4.6-4.6
		C458.6-1650.4,460.7-1652.5,463.2-1652.5z M1111.7-1652.5h10.6c2.5,0,4.6,2,4.6,4.6c0,2.5-2.1,4.6-4.6,4.6v34.7
		c2.5,0,4.6,2.1,4.6,4.6c0,2.5-2.1,4.6-4.6,4.6h-10.6c-2.5,0-4.6-2.1-4.6-4.6c0-2.5,2.1-4.6,4.6-4.6v-34.7c-2.5,0-4.6-2.1-4.6-4.6
		C1107-1650.4,1109.1-1652.5,1111.7-1652.5z M551.9-1632.8h477.2v314.2H551.9V-1632.8z M463.2-1546.2h10.7c2.5,0,4.6,2.1,4.6,4.6
		c0,2.5-2,4.6-4.6,4.6v34.7c2.5,0,4.6,2.1,4.6,4.6c0,2.5-2,4.6-4.6,4.6h-10.7c-2.5,0-4.6-2-4.6-4.6c0-2.5,2-4.6,4.6-4.6v-34.7
		c-2.5,0-4.6-2-4.6-4.6C458.6-1544.1,460.7-1546.2,463.2-1546.2z M1111.7-1546.2h10.6c2.5,0,4.6,2.1,4.6,4.6c0,2.5-2.1,4.6-4.6,4.6
		v34.7c2.5,0,4.6,2.1,4.6,4.6c0,2.5-2.1,4.6-4.6,4.6h-10.6c-2.5,0-4.6-2-4.6-4.6c0-2.5,2.1-4.6,4.6-4.6v-34.7c-2.5,0-4.6-2-4.6-4.6
		C1107-1544.1,1109.1-1546.2,1111.7-1546.2z M463.2-1457.6h10.7c2.5,0,4.6,2.1,4.6,4.6s-2,4.6-4.6,4.6v34.7c2.5,0,4.6,2,4.6,4.6
		c0,2.5-2,4.6-4.6,4.6h-10.7c-2.5,0-4.6-2.1-4.6-4.6c0-2.5,2-4.6,4.6-4.6v-34.7c-2.5,0-4.6-2-4.6-4.6S460.7-1457.6,463.2-1457.6z
		 M1111.7-1457.6h10.6c2.5,0,4.6,2.1,4.6,4.6s-2.1,4.6-4.6,4.6v34.7c2.5,0,4.6,2,4.6,4.6c0,2.5-2.1,4.6-4.6,4.6h-10.6
		c-2.5,0-4.6-2.1-4.6-4.6c0-2.5,2.1-4.6,4.6-4.6v-34.7c-2.5,0-4.6-2-4.6-4.6S1109.1-1457.6,1111.7-1457.6z M463.2-1351.3h10.7
		c2.5,0,4.6,2,4.6,4.6c0,2.5-2,4.6-4.6,4.6v34.7c2.5,0,4.6,2.1,4.6,4.6c0,2.5-2,4.6-4.6,4.6h-10.7c-2.5,0-4.6-2-4.6-4.6
		c0-2.5,2-4.6,4.6-4.6v-34.7c-2.5,0-4.6-2.1-4.6-4.6C458.6-1349.2,460.7-1351.3,463.2-1351.3z M1111.7-1351.3h10.6
		c2.5,0,4.6,2,4.6,4.6c0,2.5-2.1,4.6-4.6,4.6v34.7c2.5,0,4.6,2.1,4.6,4.6c0,2.5-2.1,4.6-4.6,4.6h-10.6c-2.5,0-4.6-2-4.6-4.6
		c0-2.5,2.1-4.6,4.6-4.6v-34.7c-2.5,0-4.6-2.1-4.6-4.6C1107-1349.2,1109.1-1351.3,1111.7-1351.3z M499.7-1294.9
		c2.6,0,4.7,2.1,4.7,4.7s-2.1,4.7-4.7,4.7s-4.7-2.1-4.7-4.7S497.1-1294.9,499.7-1294.9z M1080-1294.9c2.6,0,4.7,2.1,4.7,4.7
		s-2.1,4.7-4.7,4.7c-2.6,0-4.7-2.1-4.7-4.7S1077.4-1294.9,1080-1294.9z M514-1267.4c2.6,0,4.7,2.1,4.7,4.7h34.4
		c0-2.6,2.1-4.7,4.7-4.7c2.6,0,4.7,2.1,4.7,4.7v10.6c0,2.6-2.1,4.7-4.7,4.7c-2.6,0-4.7-2.1-4.7-4.7h-34.4c0,2.6-2.1,4.7-4.7,4.7
		c-2.6,0-4.7-2.1-4.7-4.7v-10.6C509.3-1265.3,511.4-1267.4,514-1267.4z M620.3-1267.4c2.6,0,4.7,2.1,4.7,4.7h34.4
		c0-2.6,2.1-4.7,4.7-4.7s4.7,2.1,4.7,4.7v10.6c0,2.6-2.1,4.7-4.7,4.7s-4.7-2.1-4.7-4.7H625c0,2.6-2.1,4.7-4.7,4.7
		c-2.6,0-4.7-2.1-4.7-4.7v-10.6C615.6-1265.3,617.7-1267.4,620.3-1267.4L620.3-1267.4z M726.6-1267.4c2.6,0,4.7,2.1,4.7,4.7h34.4
		c0-2.6,2.1-4.7,4.7-4.7c2.6,0,4.7,2.1,4.7,4.7v10.6c0,2.6-2.1,4.7-4.7,4.7c-2.6,0-4.7-2.1-4.7-4.7h-34.4c0,2.6-2.1,4.7-4.7,4.7
		c-2.6,0-4.7-2.1-4.7-4.7v-10.6C721.9-1265.3,724-1267.4,726.6-1267.4z M815.2-1267.4c2.6,0,4.7,2.1,4.7,4.7h34.4
		c0-2.6,2.1-4.7,4.7-4.7s4.7,2.1,4.7,4.7v10.6c0,2.6-2.1,4.7-4.7,4.7s-4.7-2.1-4.7-4.7h-34.4c0,2.6-2.1,4.7-4.7,4.7
		c-2.6,0-4.7-2.1-4.7-4.7v-10.6C810.5-1265.3,812.6-1267.4,815.2-1267.4z M921.5-1267.4c2.6,0,4.7,2.1,4.7,4.7h34.4
		c0-2.6,2.1-4.7,4.7-4.7s4.7,2.1,4.7,4.7v10.6c0,2.6-2.1,4.7-4.7,4.7s-4.7-2.1-4.7-4.7h-34.4c0,2.6-2.1,4.7-4.7,4.7
		c-2.6,0-4.7-2.1-4.7-4.7v-10.6C916.8-1265.3,918.9-1267.4,921.5-1267.4z M1027.8-1267.4c2.6,0,4.7,2.1,4.7,4.7h34.4
		c0-2.6,2.1-4.7,4.7-4.7c2.6,0,4.7,2.1,4.7,4.7v10.6c0,2.6-2.1,4.7-4.7,4.7c-2.6,0-4.7-2.1-4.7-4.7h-34.4c0,2.6-2.1,4.7-4.7,4.7
		s-4.7-2.1-4.7-4.7v-10.6C1023.1-1265.3,1025.2-1267.4,1027.8-1267.4z"/>
	<path id="rect3619" inkscape:connector-curvature="0" fill="#FFFFFF" stroke="#000000" stroke-miterlimit="10" d="M403-1173.7v52.7
		v17.7v407.5v71.3h779.8v-89.1v-389.8v-17.7v-52.7H403L403-1173.7z M499.7-1098.7c2.6,0,4.7,2.1,4.7,4.7c0,2.6-2.1,4.7-4.7,4.7
		s-4.7-2.1-4.7-4.7C495-1096.6,497.1-1098.7,499.7-1098.7z M1080-1098.7c2.6,0,4.7,2.1,4.7,4.7c0,2.6-2.1,4.7-4.7,4.7
		c-2.6,0-4.7-2.1-4.7-4.7C1075.3-1096.6,1077.4-1098.7,1080-1098.7z M551.9-1065.9h477.2v314.2H551.9V-1065.9z M499.7-727.9
		c2.6,0,4.7,2.1,4.7,4.7c0,2.6-2.1,4.7-4.7,4.7s-4.7-2.1-4.7-4.7C495-725.8,497.1-727.9,499.7-727.9z M1080-727.9
		c2.6,0,4.7,2.1,4.7,4.7c0,2.6-2.1,4.7-4.7,4.7c-2.6,0-4.7-2.1-4.7-4.7C1075.3-725.8,1077.4-727.9,1080-727.9z"/>
</g>
</svg>
