<?xml version="1.0" encoding="utf-8"?>
<!-- Generator: Adobe Illustrator 18.1.1, SVG Export Plug-In . SVG Version: 6.00 Build 0)  -->
<svg version="1.1"
	 id="svg2" sodipodi:docname="2mm.svg" inkscape:version="0.48.5 r10040" xmlns:rdf="http://www.w3.org/1999/02/22-rdf-syntax-ns#" xmlns:svg="http://www.w3.org/2000/svg" xmlns:sodipodi="http://sodipodi.sourceforge.net/DTD/sodipodi-0.dtd" xmlns:inkscape="http://www.inkscape.org/namespaces/inkscape" xmlns:dc="http://purl.org/dc/elements/1.1/" xmlns:cc="http://creativecommons.org/ns#"
	 xmlns="http://www.w3.org/2000/svg" xmlns:xlink="http://www.w3.org/1999/xlink" x="0px" y="0px" viewBox="0 0 612 792"
	 enable-background="new 0 0 612 792" xml:space="preserve">
<sodipodi:namedview  inkscape:document-units="mm" inkscape:pageopacity="0.0" inkscape:current-layer="layer1" inkscape:pageshadow="2" inkscape:window-maximized="0" inkscape:window-y="0" inkscape:window-x="0" inkscape:window-height="856" inkscape:window-width="1436" inkscape:cy="1806.6511" inkscape:cx="605.52938" inkscape:zoom="0.7" borderopacity="1.0" showgrid="true" pagecolor="#ffffff" bordercolor="#666666" guidetolerance="10000" units="mm" id="base" objecttolerance="10000">
	
		<inkscape:grid  snapvisiblegridlinesonly="true" empspacing="5" enabled="true" visible="true" empopacity="0.25098039" empcolor="#0000ff" type="xygrid" units="mm" id="grid2985" dotted="false" spacingy="1mm" spacingx="1mm">
		</inkscape:grid>
</sodipodi:namedview>
<g id="layer1" transform="translate(0,1073.6223)" inkscape:groupmode="layer" inkscape:label="Layer 1">
	<path id="rect3507" inkscape:connector-curvature="0" fill="#FFFFFF" stroke="#000000" stroke-miterlimit="10" d="M0-1073.6v19.6
		v6.6v145.2v6.6v26.6h290.5v-26.6v-6.6v-145.2v-6.6v-19.6L0-1073.6L0-1073.6z M41.3-1059.7c0.9,0,1.7,0.8,1.7,1.7H56
		c0-0.9,0.8-1.7,1.7-1.7c0.9,0,1.7,0.8,1.7,1.7v3.9c0,0.9-0.7,1.7-1.7,1.7c-0.9,0-1.7-0.7-1.7-1.7H43c0,0.9-0.8,1.7-1.7,1.7
		s-1.7-0.7-1.7-1.7v-3.9C39.6-1058.9,40.4-1059.7,41.3-1059.7z M80.9-1059.7c0.9,0,1.7,0.8,1.7,1.7h12.9c0-0.9,0.7-1.7,1.7-1.7
		c1,0,1.7,0.8,1.7,1.7v3.9c0,0.9-0.8,1.7-1.7,1.7c-0.9,0-1.7-0.7-1.7-1.7H82.6c0,0.9-0.7,1.7-1.7,1.7c-0.9,0-1.7-0.7-1.7-1.7v-3.9
		C79.2-1058.9,80-1059.7,80.9-1059.7z M120.5-1059.7c0.9,0,1.7,0.8,1.7,1.7h12.9c0-0.9,0.8-1.7,1.7-1.7c0.9,0,1.7,0.8,1.7,1.7v3.9
		c0,0.9-0.7,1.7-1.7,1.7c-0.9,0-1.7-0.7-1.7-1.7h-12.9c0,0.9-0.8,1.7-1.7,1.7c-0.9,0-1.7-0.7-1.7-1.7v-3.9
		C118.8-1058.9,119.6-1059.7,120.5-1059.7z M153.5-1059.7c0.9,0,1.7,0.8,1.7,1.7h12.9c0-0.9,0.7-1.7,1.7-1.7c1,0,1.7,0.8,1.7,1.7
		v3.9c0,0.9-0.8,1.7-1.7,1.7c-0.9,0-1.7-0.7-1.7-1.7h-12.9c0,0.9-0.7,1.7-1.7,1.7c-0.9,0-1.7-0.7-1.7-1.7v-3.9
		C151.8-1058.9,152.6-1059.7,153.5-1059.7z M193.1-1059.7c0.9,0,1.7,0.8,1.7,1.7h12.9c0-0.9,0.8-1.7,1.7-1.7c0.9,0,1.7,0.8,1.7,1.7
		v3.9c0,0.9-0.8,1.7-1.7,1.7c-0.9,0-1.7-0.7-1.7-1.7h-12.9c0,0.9-0.8,1.7-1.7,1.7c-0.9,0-1.7-0.7-1.7-1.7v-3.9
		C191.4-1058.9,192.2-1059.7,193.1-1059.7z M232.7-1059.7c0.9,0,1.7,0.8,1.7,1.7h12.9c0-0.9,0.8-1.7,1.7-1.7c0.9,0,1.7,0.8,1.7,1.7
		v3.9c0,0.9-0.7,1.7-1.7,1.7c-0.9,0-1.7-0.7-1.7-1.7h-12.9c0,0.9-0.8,1.7-1.7,1.7c-0.9,0-1.7-0.7-1.7-1.7v-3.9
		C231-1058.9,231.8-1059.7,232.7-1059.7z M36-1045.6c1,0,1.8,0.8,1.8,1.8c0,1-0.8,1.8-1.8,1.8s-1.8-0.8-1.8-1.8
		C34.3-1044.9,35.1-1045.6,36-1045.6z M252.2-1045.6c1,0,1.8,0.8,1.8,1.8c0,1-0.8,1.8-1.8,1.8s-1.8-0.8-1.8-1.8
		C250.5-1044.9,251.2-1045.6,252.2-1045.6z M22.4-1040.8h4c0.9,0,1.7,0.7,1.7,1.7c0,0.9-0.7,1.7-1.7,1.7v12.9c0.9,0,1.7,0.8,1.7,1.7
		s-0.7,1.7-1.7,1.7h-4c-0.9,0-1.7-0.8-1.7-1.7s0.7-1.7,1.7-1.7v-12.9c-0.9,0-1.7-0.8-1.7-1.7C20.7-1040,21.5-1040.8,22.4-1040.8z
		 M264-1040.8h3.9c0.9,0,1.7,0.7,1.7,1.7c0,0.9-0.8,1.7-1.7,1.7v12.9c0.9,0,1.7,0.8,1.7,1.7s-0.8,1.7-1.7,1.7H264
		c-0.9,0-1.7-0.8-1.7-1.7s0.8-1.7,1.7-1.7v-12.9c-0.9,0-1.7-0.8-1.7-1.7C262.3-1040,263-1040.8,264-1040.8z M55.5-1033.4h177.8v117
		H55.5V-1033.4z M22.4-1001.2h4c0.9,0,1.7,0.8,1.7,1.7s-0.7,1.7-1.7,1.7v12.9c0.9,0,1.7,0.8,1.7,1.7s-0.7,1.7-1.7,1.7h-4
		c-0.9,0-1.7-0.7-1.7-1.7c0-0.9,0.7-1.7,1.7-1.7v-12.9c-0.9,0-1.7-0.7-1.7-1.7C20.7-1000.4,21.5-1001.2,22.4-1001.2z M264-1001.2
		h3.9c0.9,0,1.7,0.8,1.7,1.7s-0.8,1.7-1.7,1.7v12.9c0.9,0,1.7,0.8,1.7,1.7s-0.8,1.7-1.7,1.7H264c-0.9,0-1.7-0.7-1.7-1.7
		c0-0.9,0.8-1.7,1.7-1.7v-12.9c-0.9,0-1.7-0.7-1.7-1.7C262.3-1000.4,263-1001.2,264-1001.2z M22.4-968.2h4c0.9,0,1.7,0.8,1.7,1.7
		c0,0.9-0.7,1.7-1.7,1.7v12.9c0.9,0,1.7,0.7,1.7,1.7c0,0.9-0.7,1.7-1.7,1.7h-4c-0.9,0-1.7-0.8-1.7-1.7s0.7-1.7,1.7-1.7v-12.9
		c-0.9,0-1.7-0.7-1.7-1.7C20.7-967.4,21.5-968.2,22.4-968.2z M264-968.2h3.9c0.9,0,1.7,0.8,1.7,1.7c0,0.9-0.8,1.7-1.7,1.7v12.9
		c0.9,0,1.7,0.7,1.7,1.7c0,0.9-0.8,1.7-1.7,1.7H264c-0.9,0-1.7-0.8-1.7-1.7s0.8-1.7,1.7-1.7v-12.9c-0.9,0-1.7-0.7-1.7-1.7
		C262.3-967.4,263-968.2,264-968.2z M22.4-928.6h4c0.9,0,1.7,0.7,1.7,1.7c0,0.9-0.7,1.7-1.7,1.7v12.9c0.9,0,1.7,0.8,1.7,1.7
		s-0.7,1.7-1.7,1.7h-4c-0.9,0-1.7-0.7-1.7-1.7c0-0.9,0.7-1.7,1.7-1.7v-12.9c-0.9,0-1.7-0.8-1.7-1.7
		C20.7-927.8,21.5-928.6,22.4-928.6z M264-928.6h3.9c0.9,0,1.7,0.7,1.7,1.7c0,0.9-0.8,1.7-1.7,1.7v12.9c0.9,0,1.7,0.8,1.7,1.7
		s-0.8,1.7-1.7,1.7H264c-0.9,0-1.7-0.7-1.7-1.7c0-0.9,0.8-1.7,1.7-1.7v-12.9c-0.9,0-1.7-0.8-1.7-1.7
		C262.3-927.8,263-928.6,264-928.6z M36-907.5c1,0,1.8,0.8,1.8,1.8c0,1-0.8,1.8-1.8,1.8s-1.8-0.8-1.8-1.8
		C34.3-906.8,35.1-907.5,36-907.5z M252.2-907.5c1,0,1.8,0.8,1.8,1.8c0,1-0.8,1.8-1.8,1.8s-1.8-0.8-1.8-1.8
		C250.5-906.8,251.2-907.5,252.2-907.5z M41.4-897.3c1,0,1.8,0.8,1.8,1.8h12.8c0-1,0.8-1.8,1.8-1.8c1,0,1.8,0.8,1.8,1.8v3.9
		c0,1-0.8,1.8-1.8,1.8c-1,0-1.8-0.8-1.8-1.8H43.1c0,1-0.8,1.8-1.8,1.8c-1,0-1.8-0.8-1.8-1.8v-3.9C39.6-896.5,40.4-897.3,41.4-897.3z
		 M81-897.3c1,0,1.8,0.8,1.8,1.8h12.8c0-1,0.8-1.8,1.8-1.8c1,0,1.8,0.8,1.8,1.8v3.9c0,1-0.8,1.8-1.8,1.8c-1,0-1.8-0.8-1.8-1.8H82.7
		c0,1-0.8,1.8-1.8,1.8c-1,0-1.8-0.8-1.8-1.8v-3.9C79.2-896.5,80-897.3,81-897.3L81-897.3z M120.6-897.3c1,0,1.8,0.8,1.8,1.8h12.8
		c0-1,0.8-1.8,1.8-1.8c1,0,1.8,0.8,1.8,1.8v3.9c0,1-0.8,1.8-1.8,1.8s-1.8-0.8-1.8-1.8h-12.8c0,1-0.8,1.8-1.8,1.8
		c-1,0-1.8-0.8-1.8-1.8v-3.9C118.8-896.5,119.6-897.3,120.6-897.3z M153.6-897.3c1,0,1.8,0.8,1.8,1.8h12.8c0-1,0.8-1.8,1.8-1.8
		c1,0,1.8,0.8,1.8,1.8v3.9c0,1-0.8,1.8-1.8,1.8c-1,0-1.8-0.8-1.8-1.8h-12.8c0,1-0.8,1.8-1.8,1.8c-1,0-1.8-0.8-1.8-1.8v-3.9
		C151.8-896.5,152.6-897.3,153.6-897.3z M193.2-897.3c1,0,1.8,0.8,1.8,1.8h12.8c0-1,0.8-1.8,1.8-1.8c1,0,1.8,0.8,1.8,1.8v3.9
		c0,1-0.8,1.8-1.8,1.8c-1,0-1.8-0.8-1.8-1.8h-12.8c0,1-0.8,1.8-1.8,1.8c-1,0-1.8-0.8-1.8-1.8v-3.9
		C191.4-896.5,192.2-897.3,193.2-897.3z M232.8-897.3c1,0,1.8,0.8,1.8,1.8h12.8c0-1,0.8-1.8,1.8-1.8c1,0,1.8,0.8,1.8,1.8v3.9
		c0,1-0.8,1.8-1.8,1.8c-1,0-1.8-0.8-1.8-1.8h-12.8c0,1-0.8,1.8-1.8,1.8s-1.8-0.8-1.8-1.8v-3.9C231-896.5,231.8-897.3,232.8-897.3z"
		/>
</g>
</svg>
