<?xml version="1.0" encoding="utf-8"?>
<!-- Generator: Adobe Illustrator 18.1.1, SVG Export Plug-In . SVG Version: 6.00 Build 0)  -->
<svg version="1.1"
	 id="svg2" sodipodi:docname="2mm.svg" inkscape:version="0.48.5 r10040" xmlns:rdf="http://www.w3.org/1999/02/22-rdf-syntax-ns#" xmlns:svg="http://www.w3.org/2000/svg" xmlns:sodipodi="http://sodipodi.sourceforge.net/DTD/sodipodi-0.dtd" xmlns:inkscape="http://www.inkscape.org/namespaces/inkscape" xmlns:dc="http://purl.org/dc/elements/1.1/" xmlns:cc="http://creativecommons.org/ns#"
	 xmlns="http://www.w3.org/2000/svg" xmlns:xlink="http://www.w3.org/1999/xlink" x="0px" y="0px" viewBox="403 -667 1417.3 2126"
	 enable-background="new 403 -667 1417.3 2126" xml:space="preserve">
<sodipodi:namedview  inkscape:document-units="mm" inkscape:pageopacity="0.0" inkscape:current-layer="layer1" inkscape:pageshadow="2" inkscape:window-maximized="0" inkscape:window-y="0" inkscape:window-x="0" inkscape:window-height="856" inkscape:window-width="1436" inkscape:cy="1806.6511" inkscape:cx="605.52938" inkscape:zoom="0.7" borderopacity="1.0" showgrid="true" pagecolor="#ffffff" bordercolor="#666666" guidetolerance="10000" units="mm" id="base" objecttolerance="10000">
	
		<inkscape:grid  snapvisiblegridlinesonly="true" empspacing="5" enabled="true" visible="true" empopacity="0.25098039" empcolor="#0000ff" type="xygrid" units="mm" id="grid2985" dotted="false" spacingy="1mm" spacingx="1mm">
		</inkscape:grid>
</sodipodi:namedview>
<g id="layer1" transform="translate(0,1073.6223)" inkscape:groupmode="layer" inkscape:label="Layer 1">
	<path id="rect3619" inkscape:connector-curvature="0" fill="#FFFFFF" stroke="#000000" stroke-miterlimit="10" d="M403-1740.6v52.7
		v17.7v407.5v71.3h779.8v-89.1v-389.8v-17.7v-52.7H403L403-1740.6z M499.7-1665.6c2.6,0,4.7,2.1,4.7,4.7s-2.1,4.7-4.7,4.7
		s-4.7-2.1-4.7-4.7S497.1-1665.6,499.7-1665.6z M1080-1665.6c2.6,0,4.7,2.1,4.7,4.7c0,2.6-2.1,4.7-4.7,4.7c-2.6,0-4.7-2.1-4.7-4.7
		C1075.3-1663.5,1077.4-1665.6,1080-1665.6z M551.9-1632.8h477.2v314.2H551.9V-1632.8z M499.7-1294.9c2.6,0,4.7,2.1,4.7,4.7
		s-2.1,4.7-4.7,4.7s-4.7-2.1-4.7-4.7S497.1-1294.9,499.7-1294.9z M1080-1294.9c2.6,0,4.7,2.1,4.7,4.7c0,2.6-2.1,4.7-4.7,4.7
		c-2.6,0-4.7-2.1-4.7-4.7C1075.3-1292.8,1077.4-1294.9,1080-1294.9z"/>
</g>
</svg>
