  0
SECTION
  2
HEADER
  9
$ACADVER
  1
AC1014
  9
$HANDSEED
  5
FFFF
  9
$MEASUREMENT
 70
     1
  0
ENDSEC
  0
SECTION
  2
TABLES
  0
TABLE
  2
VPORT
  5
8
330
0
100
AcDbSymbolTable
 70
     4
  0
VPORT
  5
2E
330
8
100
AcDbSymbolTableRecord
100
AcDbViewportTableRecord
  2
*ACTIVE
 70
     0
 10
0.0
 20
0.0
 11
1.0
 21
1.0
 12
210.0
 22
148.5
 13
0.0
 23
0.0
 14
10.0
 24
10.0
 15
10.0
 25
10.0
 16
0.0
 26
0.0
 36
1.0
 17
0.0
 27
0.0
 37
0.0
 40
341.0
 41
1.24
 42
50.0
 43
0.0
 44
0.0
 50
0.0
 51
0.0
 71
     0
 72
   100
 73
     1
 74
     3
 75
     0
 76
     0
 77
     0
 78
     0
  0
ENDTAB
  0
TABLE
  2
LTYPE
  5
5
330
0
100
AcDbSymbolTable
 70
     1
  0
LTYPE
  5
14
330
5
100
AcDbSymbolTableRecord
100
AcDbLinetypeTableRecord
  2
BYBLOCK
 70
     0
  3

 72
    65
 73
     0
 40
0.0
  0
LTYPE
  5
15
330
5
100
AcDbSymbolTableRecord
100
AcDbLinetypeTableRecord
  2
BYLAYER
 70
     0
  3

 72
    65
 73
     0
 40
0.0
  0
LTYPE
  5
16
330
5
100
AcDbSymbolTableRecord
100
AcDbLinetypeTableRecord
  2
CONTINUOUS
 70
     0
  3
Solid line
 72
    65
 73
     0
 40
0.0
  0
ENDTAB
  0
TABLE
  2
LAYER
  5
2
100
AcDbSymbolTable
 70
2
  0
LAYER
  5
50
100
AcDbSymbolTableRecord
100
AcDbLayerTableRecord
  2
0
 70
0
  6
CONTINUOUS
  0
LAYER
  5
51
100
AcDbSymbolTableRecord
100
AcDbLayerTableRecord
  2
Layer_1
 70
0
  6
CONTINUOUS
  0
ENDTAB
  0
TABLE
  2
STYLE
  5
3
330
0
100
AcDbSymbolTable
 70
     1
  0
STYLE
  5
11
330
3
100
AcDbSymbolTableRecord
100
AcDbTextStyleTableRecord
  2
STANDARD
 70
     0
 40
0.0
 41
1.0
 50
0.0
 71
     0
 42
2.5
  3
txt
  4

  0
ENDTAB
  0
TABLE
  2
VIEW
  5
6
330
0
100
AcDbSymbolTable
 70
     0
  0
ENDTAB
  0
TABLE
  2
UCS
  5
7
330
0
100
AcDbSymbolTable
 70
     0
  0
ENDTAB
  0
TABLE
  2
APPID
  5
9
330
0
100
AcDbSymbolTable
 70
     2
  0
APPID
  5
12
330
9
100
AcDbSymbolTableRecord
100
AcDbRegAppTableRecord
  2
ACAD
 70
     0
  0
ENDTAB
  0
TABLE
  2
DIMSTYLE
  5
A
330
0
100
AcDbSymbolTable
 70
     1
  0
DIMSTYLE
105
27
330
A
100
AcDbSymbolTableRecord
100
AcDbDimStyleTableRecord
  2
ISO-25
 70
     0
  3

  4

  5

  6

  7

 40
1.0
 41
2.5
 42
0.625
 43
3.75
 44
1.25
 45
0.0
 46
0.0
 47
0.0
 48
0.0
140
2.5
141
2.5
142
0.0
143
0.03937007874016
144
1.0
145
0.0
146
1.0
147
0.625
 71
     0
 72
     0
 73
     0
 74
     0
 75
     0
 76
     0
 77
     1
 78
     8
170
     0
171
     3
172
     1
173
     0
174
     0
175
     0
176
     0
177
     0
178
     0
270
     2
271
     2
272
     2
273
     2
274
     3
340
11
275
     0
280
     0
281
     0
282
     0
283
     0
284
     8
285
     0
286
     0
287
     3
288
     0
  0
ENDTAB
  0
TABLE
  2
BLOCK_RECORD
  5
1
330
0
100
AcDbSymbolTable
 70
     1
  0
BLOCK_RECORD
  5
1F
330
1
100
AcDbSymbolTableRecord
100
AcDbBlockTableRecord
  2
*MODEL_SPACE
  0
BLOCK_RECORD
  5
1B
330
1
100
AcDbSymbolTableRecord
100
AcDbBlockTableRecord
  2
*PAPER_SPACE
  0
ENDTAB
  0
ENDSEC
  0
SECTION
  2
BLOCKS
  0
BLOCK
  5
20
330
1F
100
AcDbEntity
  8
0
100
AcDbBlockBegin
  2
*MODEL_SPACE
 70
     0
 10
0.0
 20
0.0
 30
0.0
  3
*MODEL_SPACE
  1

  0
ENDBLK
  5
21
330
1F
100
AcDbEntity
  8
0
100
AcDbBlockEnd
  0
BLOCK
  5
1C
330
1B
100
AcDbEntity
 67
     1
  8
0
100
AcDbBlockBegin
  2
*PAPER_SPACE
  1

  0
ENDBLK
  5
1D
330
1B
100
AcDbEntity
 67
     1
  8
0
100
AcDbBlockEnd
  0
ENDSEC
  0
SECTION
  2
ENTITIES
  0
LWPOLYLINE
  5
100
100
AcDbEntity
  8
Layer_1
 62
7
100
AcDbPolyline
 90
14
 70
1
 10
4.999512
 20
594.869580
 30
0.0
 10
4.999512
 20
579.999997
 30
0.0
 10
4.999512
 20
574.999381
 30
0.0
 10
4.999512
 20
465.003269
 30
0.0
 10
4.999512
 20
460.002630
 30
0.0
 10
4.999512
 20
439.867825
 30
0.0
 10
225.079944
 20
439.867825
 30
0.0
 10
225.079944
 20
460.002630
 30
0.0
 10
225.079944
 20
465.003269
 30
0.0
 10
225.079944
 20
574.999381
 30
0.0
 10
225.079944
 20
579.999997
 30
0.0
 10
225.079944
 20
594.869580
 30
0.0
 10
4.999512
 20
594.869580
 30
0.0
 10
4.999512
 20
594.869580
 30
0.0
  0
LWPOLYLINE
  5
101
100
AcDbEntity
  8
Layer_1
 62
7
100
AcDbPolyline
 90
6
 70
1
 10
34.994444
 20
582.998608
 30
0.0
 10
49.996319
 20
582.998608
 30
0.0
 10
49.996319
 20
579.999997
 30
0.0
 10
34.994444
 20
579.999997
 30
0.0
 10
34.994444
 20
582.998608
 30
0.0
 10
34.994444
 20
582.998608
 30
0.0
  0
LWPOLYLINE
  5
102
100
AcDbEntity
  8
Layer_1
 62
7
100
AcDbPolyline
 90
6
 70
1
 10
64.998194
 20
582.998608
 30
0.0
 10
80.000069
 20
582.998608
 30
0.0
 10
80.000069
 20
579.999997
 30
0.0
 10
64.998194
 20
579.999997
 30
0.0
 10
64.998194
 20
582.998608
 30
0.0
 10
64.998194
 20
582.998608
 30
0.0
  0
LWPOLYLINE
  5
103
100
AcDbEntity
  8
Layer_1
 62
7
100
AcDbPolyline
 90
6
 70
1
 10
95.001944
 20
582.998608
 30
0.0
 10
109.994999
 20
582.998608
 30
0.0
 10
109.994999
 20
579.999997
 30
0.0
 10
95.001944
 20
579.999997
 30
0.0
 10
95.001944
 20
582.998608
 30
0.0
 10
95.001944
 20
582.998608
 30
0.0
  0
LWPOLYLINE
  5
104
100
AcDbEntity
  8
Layer_1
 62
7
100
AcDbPolyline
 90
6
 70
1
 10
119.996249
 20
582.998608
 30
0.0
 10
134.998124
 20
582.998608
 30
0.0
 10
134.998124
 20
579.999997
 30
0.0
 10
119.996249
 20
579.999997
 30
0.0
 10
119.996249
 20
582.998608
 30
0.0
 10
119.996249
 20
582.998608
 30
0.0
  0
LWPOLYLINE
  5
105
100
AcDbEntity
  8
Layer_1
 62
7
100
AcDbPolyline
 90
6
 70
1
 10
149.999999
 20
582.998608
 30
0.0
 10
165.001874
 20
582.998608
 30
0.0
 10
165.001874
 20
579.999997
 30
0.0
 10
149.999999
 20
579.999997
 30
0.0
 10
149.999999
 20
582.998608
 30
0.0
 10
149.999999
 20
582.998608
 30
0.0
  0
SPLINE
  5
106
100
AcDbEntity
  8
Layer_1
 62
7
100
AcDbSpline
 70
8
 71
3
 72
8
 73
4
 74
0
 40
0
 40
0
 40
0
 40
0
 40
1
 40
1
 40
1
 40
1
 10
32.286874
 20
573.694103
 30
0.0
 10
33.017121
 20
573.694103
 30
0.0
 10
33.609791
 20
573.110241
 30
0.0
 10
33.609791
 20
572.379991
 30
0.0
  0
SPLINE
  5
107
100
AcDbEntity
  8
Layer_1
 62
7
100
AcDbSpline
 70
8
 71
3
 72
8
 73
4
 74
0
 40
0
 40
0
 40
0
 40
0
 40
1
 40
1
 40
1
 40
1
 10
33.609791
 20
572.379991
 30
0.0
 10
33.609791
 20
571.649741
 30
0.0
 10
33.017121
 20
571.057075
 30
0.0
 10
32.286874
 20
571.057075
 30
0.0
  0
SPLINE
  5
108
100
AcDbEntity
  8
Layer_1
 62
7
100
AcDbSpline
 70
8
 71
3
 72
8
 73
4
 74
0
 40
0
 40
0
 40
0
 40
0
 40
1
 40
1
 40
1
 40
1
 10
32.286874
 20
571.057075
 30
0.0
 10
31.556627
 20
571.057075
 30
0.0
 10
30.963957
 20
571.649741
 30
0.0
 10
30.963957
 20
572.379991
 30
0.0
  0
SPLINE
  5
109
100
AcDbEntity
  8
Layer_1
 62
7
100
AcDbSpline
 70
8
 71
3
 72
8
 73
4
 74
0
 40
0
 40
0
 40
0
 40
0
 40
1
 40
1
 40
1
 40
1
 10
30.963957
 20
572.379991
 30
0.0
 10
30.963957
 20
573.110241
 30
0.0
 10
31.556627
 20
573.694103
 30
0.0
 10
32.286874
 20
573.694103
 30
0.0
  0
LWPOLYLINE
  5
10a
100
AcDbEntity
  8
Layer_1
 62
7
100
AcDbPolyline
 90
6
 70
1
 10
179.994930
 20
582.998608
 30
0.0
 10
194.996805
 20
582.998608
 30
0.0
 10
194.996805
 20
579.999997
 30
0.0
 10
179.994930
 20
579.999997
 30
0.0
 10
179.994930
 20
582.998608
 30
0.0
 10
179.994930
 20
582.998608
 30
0.0
  0
SPLINE
  5
10b
100
AcDbEntity
  8
Layer_1
 62
7
100
AcDbSpline
 70
8
 71
3
 72
8
 73
4
 74
0
 40
0
 40
0
 40
0
 40
0
 40
1
 40
1
 40
1
 40
1
 10
196.072777
 20
573.694103
 30
0.0
 10
196.803027
 20
573.694103
 30
0.0
 10
197.395694
 20
573.110241
 30
0.0
 10
197.395694
 20
572.379991
 30
0.0
  0
SPLINE
  5
10c
100
AcDbEntity
  8
Layer_1
 62
7
100
AcDbSpline
 70
8
 71
3
 72
8
 73
4
 74
0
 40
0
 40
0
 40
0
 40
0
 40
1
 40
1
 40
1
 40
1
 10
197.395694
 20
572.379991
 30
0.0
 10
197.395694
 20
571.649741
 30
0.0
 10
196.803027
 20
571.057075
 30
0.0
 10
196.072777
 20
571.057075
 30
0.0
  0
SPLINE
  5
10d
100
AcDbEntity
  8
Layer_1
 62
7
100
AcDbSpline
 70
8
 71
3
 72
8
 73
4
 74
0
 40
0
 40
0
 40
0
 40
0
 40
1
 40
1
 40
1
 40
1
 10
196.072777
 20
571.057075
 30
0.0
 10
195.342527
 20
571.057075
 30
0.0
 10
194.749860
 20
571.649741
 30
0.0
 10
194.749860
 20
572.379991
 30
0.0
  0
SPLINE
  5
10e
100
AcDbEntity
  8
Layer_1
 62
7
100
AcDbSpline
 70
8
 71
3
 72
8
 73
4
 74
0
 40
0
 40
0
 40
0
 40
0
 40
1
 40
1
 40
1
 40
1
 10
194.749860
 20
572.379991
 30
0.0
 10
194.749860
 20
573.110241
 30
0.0
 10
195.342527
 20
573.694103
 30
0.0
 10
196.072777
 20
573.694103
 30
0.0
  0
LWPOLYLINE
  5
10f
100
AcDbEntity
  8
Layer_1
 62
7
100
AcDbPolyline
 90
2
 70
1
 10
32.286874
 20
573.694103
 30
0.0
 10
32.286874
 20
573.694103
 30
0.0
  0
LWPOLYLINE
  5
110
100
AcDbEntity
  8
Layer_1
 62
7
100
AcDbPolyline
 90
2
 70
1
 10
196.072777
 20
573.694103
 30
0.0
 10
196.072777
 20
573.694103
 30
0.0
  0
LWPOLYLINE
  5
111
100
AcDbEntity
  8
Layer_1
 62
7
100
AcDbPolyline
 90
6
 70
1
 10
21.994581
 20
569.998741
 30
0.0
 10
25.002012
 20
569.998741
 30
0.0
 10
25.002012
 20
554.996881
 30
0.0
 10
21.994581
 20
554.996881
 30
0.0
 10
21.994581
 20
569.998741
 30
0.0
 10
21.994581
 20
569.998741
 30
0.0
  0
LWPOLYLINE
  5
112
100
AcDbEntity
  8
Layer_1
 62
7
100
AcDbPolyline
 90
6
 70
1
 10
204.998055
 20
569.998741
 30
0.0
 10
207.996666
 20
569.998741
 30
0.0
 10
207.996666
 20
554.996881
 30
0.0
 10
204.998055
 20
554.996881
 30
0.0
 10
204.998055
 20
569.998741
 30
0.0
 10
204.998055
 20
569.998741
 30
0.0
  0
LWPOLYLINE
  5
113
100
AcDbEntity
  8
Layer_1
 62
7
100
AcDbPolyline
 90
6
 70
1
 10
46.459721
 20
564.433658
 30
0.0
 10
181.123819
 20
564.433658
 30
0.0
 10
181.123819
 20
475.762992
 30
0.0
 10
46.459721
 20
475.762992
 30
0.0
 10
46.459721
 20
564.433658
 30
0.0
 10
46.459721
 20
564.433658
 30
0.0
  0
LWPOLYLINE
  5
114
100
AcDbEntity
  8
Layer_1
 62
7
100
AcDbPolyline
 90
6
 70
1
 10
21.994581
 20
540.003825
 30
0.0
 10
25.002012
 20
540.003825
 30
0.0
 10
25.002012
 20
525.001936
 30
0.0
 10
21.994581
 20
525.001936
 30
0.0
 10
21.994581
 20
540.003825
 30
0.0
 10
21.994581
 20
540.003825
 30
0.0
  0
LWPOLYLINE
  5
115
100
AcDbEntity
  8
Layer_1
 62
7
100
AcDbPolyline
 90
6
 70
1
 10
204.998055
 20
540.003825
 30
0.0
 10
207.996666
 20
540.003825
 30
0.0
 10
207.996666
 20
525.001936
 30
0.0
 10
204.998055
 20
525.001936
 30
0.0
 10
204.998055
 20
540.003825
 30
0.0
 10
204.998055
 20
540.003825
 30
0.0
  0
LWPOLYLINE
  5
116
100
AcDbEntity
  8
Layer_1
 62
7
100
AcDbPolyline
 90
6
 70
1
 10
21.994581
 20
515.000686
 30
0.0
 10
25.002012
 20
515.000686
 30
0.0
 10
25.002012
 20
499.998825
 30
0.0
 10
21.994581
 20
499.998825
 30
0.0
 10
21.994581
 20
515.000686
 30
0.0
 10
21.994581
 20
515.000686
 30
0.0
  0
LWPOLYLINE
  5
117
100
AcDbEntity
  8
Layer_1
 62
7
100
AcDbPolyline
 90
6
 70
1
 10
204.998055
 20
515.000686
 30
0.0
 10
207.996666
 20
515.000686
 30
0.0
 10
207.996666
 20
499.998825
 30
0.0
 10
204.998055
 20
499.998825
 30
0.0
 10
204.998055
 20
515.000686
 30
0.0
 10
204.998055
 20
515.000686
 30
0.0
  0
LWPOLYLINE
  5
118
100
AcDbEntity
  8
Layer_1
 62
7
100
AcDbPolyline
 90
6
 70
1
 10
21.994581
 20
484.996936
 30
0.0
 10
25.002012
 20
484.996936
 30
0.0
 10
25.002012
 20
470.003880
 30
0.0
 10
21.994581
 20
470.003880
 30
0.0
 10
21.994581
 20
484.996936
 30
0.0
 10
21.994581
 20
484.996936
 30
0.0
  0
SPLINE
  5
119
100
AcDbEntity
  8
Layer_1
 62
7
100
AcDbSpline
 70
8
 71
3
 72
8
 73
4
 74
0
 40
0
 40
0
 40
0
 40
0
 40
1
 40
1
 40
1
 40
1
 10
32.286874
 20
469.069019
 30
0.0
 10
33.017121
 20
469.069019
 30
0.0
 10
33.609791
 20
468.476353
 30
0.0
 10
33.609791
 20
467.746103
 30
0.0
  0
SPLINE
  5
11a
100
AcDbEntity
  8
Layer_1
 62
7
100
AcDbSpline
 70
8
 71
3
 72
8
 73
4
 74
0
 40
0
 40
0
 40
0
 40
0
 40
1
 40
1
 40
1
 40
1
 10
33.609791
 20
467.746103
 30
0.0
 10
33.609791
 20
467.015853
 30
0.0
 10
33.017121
 20
466.423186
 30
0.0
 10
32.286874
 20
466.423186
 30
0.0
  0
SPLINE
  5
11b
100
AcDbEntity
  8
Layer_1
 62
7
100
AcDbSpline
 70
8
 71
3
 72
8
 73
4
 74
0
 40
0
 40
0
 40
0
 40
0
 40
1
 40
1
 40
1
 40
1
 10
32.286874
 20
466.423186
 30
0.0
 10
31.556627
 20
466.423186
 30
0.0
 10
30.963957
 20
467.015853
 30
0.0
 10
30.963957
 20
467.746103
 30
0.0
  0
SPLINE
  5
11c
100
AcDbEntity
  8
Layer_1
 62
7
100
AcDbSpline
 70
8
 71
3
 72
8
 73
4
 74
0
 40
0
 40
0
 40
0
 40
0
 40
1
 40
1
 40
1
 40
1
 10
30.963957
 20
467.746103
 30
0.0
 10
30.963957
 20
468.476353
 30
0.0
 10
31.556627
 20
469.069019
 30
0.0
 10
32.286874
 20
469.069019
 30
0.0
  0
LWPOLYLINE
  5
11d
100
AcDbEntity
  8
Layer_1
 62
7
100
AcDbPolyline
 90
6
 70
1
 10
204.998055
 20
484.996936
 30
0.0
 10
207.996666
 20
484.996936
 30
0.0
 10
207.996666
 20
470.003880
 30
0.0
 10
204.998055
 20
470.003880
 30
0.0
 10
204.998055
 20
484.996936
 30
0.0
 10
204.998055
 20
484.996936
 30
0.0
  0
SPLINE
  5
11e
100
AcDbEntity
  8
Layer_1
 62
7
100
AcDbSpline
 70
8
 71
3
 72
8
 73
4
 74
0
 40
0
 40
0
 40
0
 40
0
 40
1
 40
1
 40
1
 40
1
 10
196.072777
 20
469.069019
 30
0.0
 10
196.803027
 20
469.069019
 30
0.0
 10
197.395694
 20
468.476353
 30
0.0
 10
197.395694
 20
467.746103
 30
0.0
  0
SPLINE
  5
11f
100
AcDbEntity
  8
Layer_1
 62
7
100
AcDbSpline
 70
8
 71
3
 72
8
 73
4
 74
0
 40
0
 40
0
 40
0
 40
0
 40
1
 40
1
 40
1
 40
1
 10
197.395694
 20
467.746103
 30
0.0
 10
197.395694
 20
467.015853
 30
0.0
 10
196.803027
 20
466.423186
 30
0.0
 10
196.072777
 20
466.423186
 30
0.0
  0
SPLINE
  5
120
100
AcDbEntity
  8
Layer_1
 62
7
100
AcDbSpline
 70
8
 71
3
 72
8
 73
4
 74
0
 40
0
 40
0
 40
0
 40
0
 40
1
 40
1
 40
1
 40
1
 10
196.072777
 20
466.423186
 30
0.0
 10
195.342527
 20
466.423186
 30
0.0
 10
194.749860
 20
467.015853
 30
0.0
 10
194.749860
 20
467.746103
 30
0.0
  0
SPLINE
  5
121
100
AcDbEntity
  8
Layer_1
 62
7
100
AcDbSpline
 70
8
 71
3
 72
8
 73
4
 74
0
 40
0
 40
0
 40
0
 40
0
 40
1
 40
1
 40
1
 40
1
 10
194.749860
 20
467.746103
 30
0.0
 10
194.749860
 20
468.476353
 30
0.0
 10
195.342527
 20
469.069019
 30
0.0
 10
196.072777
 20
469.069019
 30
0.0
  0
LWPOLYLINE
  5
122
100
AcDbEntity
  8
Layer_1
 62
7
100
AcDbPolyline
 90
2
 70
1
 10
32.286874
 20
469.069019
 30
0.0
 10
32.286874
 20
469.069019
 30
0.0
  0
LWPOLYLINE
  5
123
100
AcDbEntity
  8
Layer_1
 62
7
100
AcDbPolyline
 90
2
 70
1
 10
196.072777
 20
469.069019
 30
0.0
 10
196.072777
 20
469.069019
 30
0.0
  0
LWPOLYLINE
  5
124
100
AcDbEntity
  8
Layer_1
 62
7
100
AcDbPolyline
 90
6
 70
1
 10
34.994444
 20
460.002630
 30
0.0
 10
49.996319
 20
460.002630
 30
0.0
 10
49.996319
 20
457.004019
 30
0.0
 10
34.994444
 20
457.004019
 30
0.0
 10
34.994444
 20
460.002630
 30
0.0
 10
34.994444
 20
460.002630
 30
0.0
  0
LWPOLYLINE
  5
125
100
AcDbEntity
  8
Layer_1
 62
7
100
AcDbPolyline
 90
6
 70
1
 10
64.998194
 20
460.002630
 30
0.0
 10
80.000069
 20
460.002630
 30
0.0
 10
80.000069
 20
457.004019
 30
0.0
 10
64.998194
 20
457.004019
 30
0.0
 10
64.998194
 20
460.002630
 30
0.0
 10
64.998194
 20
460.002630
 30
0.0
  0
LWPOLYLINE
  5
126
100
AcDbEntity
  8
Layer_1
 62
7
100
AcDbPolyline
 90
6
 70
1
 10
95.001944
 20
460.002630
 30
0.0
 10
109.994999
 20
460.002630
 30
0.0
 10
109.994999
 20
457.004019
 30
0.0
 10
95.001944
 20
457.004019
 30
0.0
 10
95.001944
 20
460.002630
 30
0.0
 10
95.001944
 20
460.002630
 30
0.0
  0
LWPOLYLINE
  5
127
100
AcDbEntity
  8
Layer_1
 62
7
100
AcDbPolyline
 90
6
 70
1
 10
119.996249
 20
460.002630
 30
0.0
 10
134.998124
 20
460.002630
 30
0.0
 10
134.998124
 20
457.004019
 30
0.0
 10
119.996249
 20
457.004019
 30
0.0
 10
119.996249
 20
460.002630
 30
0.0
 10
119.996249
 20
460.002630
 30
0.0
  0
LWPOLYLINE
  5
128
100
AcDbEntity
  8
Layer_1
 62
7
100
AcDbPolyline
 90
6
 70
1
 10
149.999999
 20
460.002630
 30
0.0
 10
165.001874
 20
460.002630
 30
0.0
 10
165.001874
 20
457.004019
 30
0.0
 10
149.999999
 20
457.004019
 30
0.0
 10
149.999999
 20
460.002630
 30
0.0
 10
149.999999
 20
460.002630
 30
0.0
  0
LWPOLYLINE
  5
129
100
AcDbEntity
  8
Layer_1
 62
7
100
AcDbPolyline
 90
6
 70
1
 10
179.994930
 20
460.002630
 30
0.0
 10
194.996805
 20
460.002630
 30
0.0
 10
194.996805
 20
457.004019
 30
0.0
 10
179.994930
 20
457.004019
 30
0.0
 10
179.994930
 20
460.002630
 30
0.0
 10
179.994930
 20
460.002630
 30
0.0
  0
SPLINE
  5
12a
100
AcDbEntity
  8
Layer_1
 62
7
100
AcDbSpline
 70
8
 71
3
 72
8
 73
4
 74
0
 40
0
 40
0
 40
0
 40
0
 40
1
 40
1
 40
1
 40
1
 10
32.287360
 20
413.833324
 30
0.0
 10
33.017610
 20
413.833324
 30
0.0
 10
33.610276
 20
413.240657
 30
0.0
 10
33.610276
 20
412.510407
 30
0.0
  0
SPLINE
  5
12b
100
AcDbEntity
  8
Layer_1
 62
7
100
AcDbSpline
 70
8
 71
3
 72
8
 73
4
 74
0
 40
0
 40
0
 40
0
 40
0
 40
1
 40
1
 40
1
 40
1
 10
33.610276
 20
412.510407
 30
0.0
 10
33.610276
 20
411.780157
 30
0.0
 10
33.017610
 20
411.187491
 30
0.0
 10
32.287360
 20
411.187491
 30
0.0
  0
SPLINE
  5
12c
100
AcDbEntity
  8
Layer_1
 62
7
100
AcDbSpline
 70
8
 71
3
 72
8
 73
4
 74
0
 40
0
 40
0
 40
0
 40
0
 40
1
 40
1
 40
1
 40
1
 10
32.287360
 20
411.187491
 30
0.0
 10
31.557110
 20
411.187491
 30
0.0
 10
30.964443
 20
411.780157
 30
0.0
 10
30.964443
 20
412.510407
 30
0.0
  0
SPLINE
  5
12d
100
AcDbEntity
  8
Layer_1
 62
7
100
AcDbSpline
 70
8
 71
3
 72
8
 73
4
 74
0
 40
0
 40
0
 40
0
 40
0
 40
1
 40
1
 40
1
 40
1
 10
30.964443
 20
412.510407
 30
0.0
 10
30.964443
 20
413.240657
 30
0.0
 10
31.557110
 20
413.833324
 30
0.0
 10
32.287360
 20
413.833324
 30
0.0
  0
LWPOLYLINE
  5
12e
100
AcDbEntity
  8
Layer_1
 62
7
100
AcDbPolyline
 90
14
 70
1
 10
5.000000
 20
434.999991
 30
0.0
 10
5.000000
 20
420.130407
 30
0.0
 10
5.000000
 20
415.129768
 30
0.0
 10
5.000000
 20
305.133661
 30
0.0
 10
5.000000
 20
300.133050
 30
0.0
 10
5.000000
 20
279.998273
 30
0.0
 10
225.071582
 20
279.998273
 30
0.0
 10
225.071582
 20
300.133050
 30
0.0
 10
225.071582
 20
305.133661
 30
0.0
 10
225.071582
 20
415.129768
 30
0.0
 10
225.071582
 20
420.130407
 30
0.0
 10
225.071582
 20
434.999991
 30
0.0
 10
5.000000
 20
434.999991
 30
0.0
 10
5.000000
 20
434.999991
 30
0.0
  0
SPLINE
  5
12f
100
AcDbEntity
  8
Layer_1
 62
7
100
AcDbSpline
 70
8
 71
3
 72
8
 73
4
 74
0
 40
0
 40
0
 40
0
 40
0
 40
1
 40
1
 40
1
 40
1
 10
196.073248
 20
413.833324
 30
0.0
 10
196.803498
 20
413.833324
 30
0.0
 10
197.396137
 20
413.240657
 30
0.0
 10
197.396193
 20
412.510407
 30
0.0
  0
SPLINE
  5
130
100
AcDbEntity
  8
Layer_1
 62
7
100
AcDbSpline
 70
8
 71
3
 72
8
 73
4
 74
0
 40
0
 40
0
 40
0
 40
0
 40
1
 40
1
 40
1
 40
1
 10
197.396193
 20
412.510407
 30
0.0
 10
197.396193
 20
411.780157
 30
0.0
 10
196.803498
 20
411.187491
 30
0.0
 10
196.073248
 20
411.187491
 30
0.0
  0
SPLINE
  5
131
100
AcDbEntity
  8
Layer_1
 62
7
100
AcDbSpline
 70
8
 71
3
 72
8
 73
4
 74
0
 40
0
 40
0
 40
0
 40
0
 40
1
 40
1
 40
1
 40
1
 10
196.073248
 20
411.187491
 30
0.0
 10
195.343026
 20
411.187491
 30
0.0
 10
194.750303
 20
411.780157
 30
0.0
 10
194.750360
 20
412.510407
 30
0.0
  0
SPLINE
  5
132
100
AcDbEntity
  8
Layer_1
 62
7
100
AcDbSpline
 70
8
 71
3
 72
8
 73
4
 74
0
 40
0
 40
0
 40
0
 40
0
 40
1
 40
1
 40
1
 40
1
 10
194.750360
 20
412.510407
 30
0.0
 10
194.750360
 20
413.240657
 30
0.0
 10
195.343026
 20
413.833324
 30
0.0
 10
196.073248
 20
413.833324
 30
0.0
  0
LWPOLYLINE
  5
133
100
AcDbEntity
  8
Layer_1
 62
7
100
AcDbPolyline
 90
2
 70
1
 10
32.287360
 20
413.833324
 30
0.0
 10
32.287360
 20
413.833324
 30
0.0
  0
LWPOLYLINE
  5
134
100
AcDbEntity
  8
Layer_1
 62
7
100
AcDbPolyline
 90
2
 70
1
 10
196.073248
 20
413.833324
 30
0.0
 10
196.073248
 20
413.833324
 30
0.0
  0
SPLINE
  5
135
100
AcDbEntity
  8
Layer_1
 62
7
100
AcDbSpline
 70
8
 71
3
 72
8
 73
4
 74
0
 40
0
 40
0
 40
0
 40
0
 40
1
 40
1
 40
1
 40
1
 10
32.287360
 20
309.199439
 30
0.0
 10
33.017610
 20
309.199439
 30
0.0
 10
33.610276
 20
308.606773
 30
0.0
 10
33.610276
 20
307.876523
 30
0.0
  0
SPLINE
  5
136
100
AcDbEntity
  8
Layer_1
 62
7
100
AcDbSpline
 70
8
 71
3
 72
8
 73
4
 74
0
 40
0
 40
0
 40
0
 40
0
 40
1
 40
1
 40
1
 40
1
 10
33.610276
 20
307.876523
 30
0.0
 10
33.610276
 20
307.146273
 30
0.0
 10
33.017610
 20
306.553606
 30
0.0
 10
32.287360
 20
306.553606
 30
0.0
  0
SPLINE
  5
137
100
AcDbEntity
  8
Layer_1
 62
7
100
AcDbSpline
 70
8
 71
3
 72
8
 73
4
 74
0
 40
0
 40
0
 40
0
 40
0
 40
1
 40
1
 40
1
 40
1
 10
32.287360
 20
306.553606
 30
0.0
 10
31.557110
 20
306.553606
 30
0.0
 10
30.964443
 20
307.146273
 30
0.0
 10
30.964443
 20
307.876523
 30
0.0
  0
SPLINE
  5
138
100
AcDbEntity
  8
Layer_1
 62
7
100
AcDbSpline
 70
8
 71
3
 72
8
 73
4
 74
0
 40
0
 40
0
 40
0
 40
0
 40
1
 40
1
 40
1
 40
1
 10
30.964443
 20
307.876523
 30
0.0
 10
30.964443
 20
308.606773
 30
0.0
 10
31.557110
 20
309.199439
 30
0.0
 10
32.287360
 20
309.199439
 30
0.0
  0
LWPOLYLINE
  5
139
100
AcDbEntity
  8
Layer_1
 62
7
100
AcDbPolyline
 90
6
 70
1
 10
47.015832
 20
404.572907
 30
0.0
 10
181.688748
 20
404.572907
 30
0.0
 10
181.688748
 20
315.902217
 30
0.0
 10
47.015832
 20
315.902217
 30
0.0
 10
47.015832
 20
404.572907
 30
0.0
 10
47.015832
 20
404.572907
 30
0.0
  0
SPLINE
  5
13a
100
AcDbEntity
  8
Layer_1
 62
7
100
AcDbSpline
 70
8
 71
3
 72
8
 73
4
 74
0
 40
0
 40
0
 40
0
 40
0
 40
1
 40
1
 40
1
 40
1
 10
196.073248
 20
309.199439
 30
0.0
 10
196.803498
 20
309.199439
 30
0.0
 10
197.396137
 20
308.606773
 30
0.0
 10
197.396193
 20
307.876523
 30
0.0
  0
SPLINE
  5
13b
100
AcDbEntity
  8
Layer_1
 62
7
100
AcDbSpline
 70
8
 71
3
 72
8
 73
4
 74
0
 40
0
 40
0
 40
0
 40
0
 40
1
 40
1
 40
1
 40
1
 10
197.396193
 20
307.876523
 30
0.0
 10
197.396193
 20
307.146273
 30
0.0
 10
196.803498
 20
306.553606
 30
0.0
 10
196.073248
 20
306.553606
 30
0.0
  0
SPLINE
  5
13c
100
AcDbEntity
  8
Layer_1
 62
7
100
AcDbSpline
 70
8
 71
3
 72
8
 73
4
 74
0
 40
0
 40
0
 40
0
 40
0
 40
1
 40
1
 40
1
 40
1
 10
196.073248
 20
306.553606
 30
0.0
 10
195.343026
 20
306.553606
 30
0.0
 10
194.750303
 20
307.146273
 30
0.0
 10
194.750360
 20
307.876523
 30
0.0
  0
SPLINE
  5
13d
100
AcDbEntity
  8
Layer_1
 62
7
100
AcDbSpline
 70
8
 71
3
 72
8
 73
4
 74
0
 40
0
 40
0
 40
0
 40
0
 40
1
 40
1
 40
1
 40
1
 10
194.750360
 20
307.876523
 30
0.0
 10
194.750360
 20
308.606773
 30
0.0
 10
195.343026
 20
309.199439
 30
0.0
 10
196.073248
 20
309.199439
 30
0.0
  0
LWPOLYLINE
  5
13e
100
AcDbEntity
  8
Layer_1
 62
7
100
AcDbPolyline
 90
2
 70
1
 10
32.287360
 20
309.199439
 30
0.0
 10
32.287360
 20
309.199439
 30
0.0
  0
LWPOLYLINE
  5
13f
100
AcDbEntity
  8
Layer_1
 62
7
100
AcDbPolyline
 90
2
 70
1
 10
196.073248
 20
309.199439
 30
0.0
 10
196.073248
 20
309.199439
 30
0.0
  0
ENDSEC
  0
SECTION
  2
OBJECTS
  0
DICTIONARY
  5
C
330
0
100
AcDbDictionary
  3
ACAD_GROUP
350
D
  3
ACAD_MLINESTYLE
350
17
  0
DICTIONARY
  5
D
330
C
100
AcDbDictionary
  0
DICTIONARY
  5
1A
330
C
100
AcDbDictionary
  0
DICTIONARY
  5
17
330
C
100
AcDbDictionary
  3
STANDARD
350
18
  0
DICTIONARY
  5
19
330
C
100
AcDbDictionary
  0
ENDSEC
  0
EOF
