<?xml version="1.0" encoding="UTF-8" standalone="no"?>
<!-- Created with Inkscape (http://www.inkscape.org/) -->

<svg
   xmlns:dc="http://purl.org/dc/elements/1.1/"
   xmlns:cc="http://creativecommons.org/ns#"
   xmlns:rdf="http://www.w3.org/1999/02/22-rdf-syntax-ns#"
   xmlns:svg="http://www.w3.org/2000/svg"
   xmlns="http://www.w3.org/2000/svg"
   xmlns:sodipodi="http://sodipodi.sourceforge.net/DTD/sodipodi-0.dtd"
   xmlns:inkscape="http://www.inkscape.org/namespaces/inkscape"
   width="1417.3228"
   height="2125.9841"
   id="svg2"
   version="1.1"
   inkscape:version="0.48.5 r10040"
   sodipodi:docname="greenpi-laser-cut-ouline.svg">
  <defs
     id="defs4" />
  <sodipodi:namedview
     id="base"
     pagecolor="#ffffff"
     bordercolor="#666666"
     borderopacity="1.0"
     inkscape:pageopacity="0.0"
     inkscape:pageshadow="2"
     inkscape:zoom="0.49497475"
     inkscape:cx="745.08422"
     inkscape:cy="1698.3537"
     inkscape:document-units="mm"
     inkscape:current-layer="layer1"
     showgrid="true"
     units="mm"
     objecttolerance="10000"
     guidetolerance="10000"
     inkscape:window-width="1436"
     inkscape:window-height="856"
     inkscape:window-x="0"
     inkscape:window-y="0"
     inkscape:window-maximized="0">
    <inkscape:grid
       type="xygrid"
       id="grid2985"
       empspacing="5"
       visible="true"
       enabled="true"
       snapvisiblegridlinesonly="true"
       units="mm"
       spacingx="1mm"
       spacingy="1mm"
       dotted="false"
       empcolor="#0000ff"
       empopacity="0.25098039" />
  </sodipodi:namedview>
  <metadata
     id="metadata7">
    <rdf:RDF>
      <cc:Work
         rdf:about="">
        <dc:format>image/svg+xml</dc:format>
        <dc:type
           rdf:resource="http://purl.org/dc/dcmitype/StillImage" />
        <dc:title></dc:title>
      </cc:Work>
    </rdf:RDF>
  </metadata>
  <g
     inkscape:label="Layer 1"
     inkscape:groupmode="layer"
     id="layer1"
     transform="translate(0,1073.6223)">
    <path
       style="fill:#0000ff;fill-rule:evenodd;stroke:#000000;stroke-width:1.46002316px;stroke-linecap:butt;stroke-linejoin:miter;stroke-opacity:1"
       d="m 17.714806,-1055.4438 0,52.6875 0,17.71872 0,389.75 0,17.7188 0,71.3438 779.812554,0 0,-71.3438 0,-17.7188 0,-389.75 0,-17.71872 0,-52.6875 -779.812554,0 z m 106.281254,42.0625 53.15625,0 0,10.625 -53.15625,0 0,-10.625 z m 106.3125,0 53.15625,0 0,10.625 -53.15625,0 0,-10.625 z m 106.3125,0 53.125,0 0,10.625 -53.125,0 0,-10.625 z m 88.5625,0 53.15625,0 0,10.625 -53.15625,0 0,-10.625 z m 106.3125,0 53.15625,0 0,10.625 -53.15625,0 0,-10.625 z m 106.28125,0 53.15625,0 0,10.625 -53.15625,0 0,-10.625 z m -523.375,32.96872 c 2.58749,0 4.6875,2.0688 4.6875,4.6563 0,2.5875 -2.10001,4.6875 -4.6875,4.6875 -2.58749,0 -4.6875,-2.1 -4.6875,-4.6875 0,-2.5875 2.10001,-4.6563 4.6875,-4.6563 z m 580.34375,0 c 2.5875,0 4.6875,2.0688 4.6875,4.6563 0,2.5875 -2.1,4.6875 -4.6875,4.6875 -2.5875,0 -4.6875,-2.1 -4.6875,-4.6875 0,-2.5875 2.1,-4.6563 4.6875,-4.6563 z m -616.812504,13.0938 10.65625,0 0,53.1562 -10.65625,0 0,-53.1562 z m 648.437504,0 10.625,0 0,53.1562 -10.625,0 0,-53.1562 z m -561.75,19.7188 477.15625,0 0,314.1874 -477.15625,0 0,-314.1874 z m -86.687504,86.5624 10.65625,0 0,53.1563 -10.65625,0 0,-53.1563 z m 648.437504,0 10.625,0 0,53.1563 -10.625,0 0,-53.1563 z m -648.437504,88.5938 10.65625,0 0,53.1562 -10.65625,0 0,-53.1562 z m 648.437504,0 10.625,0 0,53.1562 -10.625,0 0,-53.1562 z m -648.437504,106.3125 10.65625,0 0,53.125 -10.65625,0 0,-53.125 z m 648.437504,0 10.625,0 0,53.125 -10.625,0 0,-53.125 z m -611.96875,56.4375 c 2.58749,0 4.6875,2.1 4.6875,4.6875 0,2.5875 -2.10001,4.6875 -4.6875,4.6875 -2.58749,0 -4.6875,-2.1 -4.6875,-4.6875 0,-2.5875 2.10001,-4.6875 4.6875,-4.6875 z m 580.34375,0 c 2.5875,0 4.6875,2.1 4.6875,4.6875 0,2.5875 -2.1,4.6875 -4.6875,4.6875 -2.5875,0 -4.6875,-2.1 -4.6875,-4.6875 0,-2.5875 2.1,-4.6875 4.6875,-4.6875 z m -570.75,32.125 53.15625,0 0,10.625 -53.15625,0 0,-10.625 z m 106.3125,0 53.15625,0 0,10.625 -53.15625,0 0,-10.625 z m 106.3125,0 53.125,0 0,10.625 -53.125,0 0,-10.625 z m 88.5625,0 53.15625,0 0,10.625 -53.15625,0 0,-10.625 z m 106.3125,0 53.15625,0 0,10.625 -53.15625,0 0,-10.625 z m 106.28125,0 53.15625,0 0,10.625 -53.15625,0 0,-10.625 z"
       id="rect3427"
       inkscape:connector-curvature="0" />
    <path
       style="fill:#0000ff;fill-rule:evenodd;stroke:#000000;stroke-width:1.46002316px;stroke-linecap:butt;stroke-linejoin:miter;stroke-opacity:1"
       d="m 17.716535,-488.97675 0,52.6875 0,17.7188 0,389.749986 0,17.7187 0,71.3437 779.781195,0 0,-71.3437 0,-17.7187 0,-389.749986 0,-17.7188 0,-52.6875 -779.781195,0 z m 96.687495,75 c 2.5875,0 4.6875,2.1 4.6875,4.6875 0,2.5875 -2.1,4.6875 -4.6875,4.6875 -2.5875,0 -4.6875,-2.1 -4.6875,-4.6875 0,-2.5875 2.1,-4.6875 4.6875,-4.6875 z m 580.3437,0 c 2.5875,0 4.6874,2.1 4.6876,4.6875 0,2.5875 -2.1001,4.6875 -4.6876,4.6875 -2.5874,0 -4.6876,-2.1 -4.6874,-4.6875 0,-2.5875 2.1,-4.6875 4.6874,-4.6875 z m -528.1562,32.8125 477.1875,0 0,314.187486 -477.1875,0 0,-314.187486 z m -52.1875,337.937486 c 2.5875,0 4.6875,2.1 4.6875,4.6875 0,2.5875 -2.1,4.6875 -4.6875,4.6875 -2.5875,0 -4.6875,-2.1 -4.6875,-4.6875 0,-2.5875 2.1,-4.6875 4.6875,-4.6875 z m 580.3437,0 c 2.5875,0 4.6874,2.1 4.6876,4.6875 0,2.5875 -2.1001,4.6875 -4.6876,4.6875 -2.5874,0 -4.6876,-2.1 -4.6874,-4.6875 0,-2.5875 2.1,-4.6875 4.6874,-4.6875 z"
       id="rect3619"
       inkscape:connector-curvature="0" />
  </g>
</svg>
