<?xml version="1.0" encoding="UTF-8" standalone="no"?>
<!-- Created with Inkscape (http://www.inkscape.org/) -->

<svg
   xmlns:dc="http://purl.org/dc/elements/1.1/"
   xmlns:cc="http://creativecommons.org/ns#"
   xmlns:rdf="http://www.w3.org/1999/02/22-rdf-syntax-ns#"
   xmlns:svg="http://www.w3.org/2000/svg"
   xmlns="http://www.w3.org/2000/svg"
   xmlns:sodipodi="http://sodipodi.sourceforge.net/DTD/sodipodi-0.dtd"
   xmlns:inkscape="http://www.inkscape.org/namespaces/inkscape"
   width="1417.3228"
   height="2125.9841"
   id="svg2"
   version="1.1"
   inkscape:version="0.48.5 r10040"
   sodipodi:docname="2mm.svg">
  <defs
     id="defs4" />
  <sodipodi:namedview
     id="base"
     pagecolor="#ffffff"
     bordercolor="#666666"
     borderopacity="1.0"
     inkscape:pageopacity="0.0"
     inkscape:pageshadow="2"
     inkscape:zoom="0.7"
     inkscape:cx="605.52938"
     inkscape:cy="1806.6511"
     inkscape:document-units="mm"
     inkscape:current-layer="layer1"
     showgrid="true"
     units="mm"
     objecttolerance="10000"
     guidetolerance="10000"
     inkscape:window-width="1436"
     inkscape:window-height="856"
     inkscape:window-x="0"
     inkscape:window-y="0"
     inkscape:window-maximized="0">
    <inkscape:grid
       type="xygrid"
       id="grid2985"
       empspacing="5"
       visible="true"
       enabled="true"
       snapvisiblegridlinesonly="true"
       units="mm"
       spacingx="1mm"
       spacingy="1mm"
       dotted="false"
       empcolor="#0000ff"
       empopacity="0.25098039" />
  </sodipodi:namedview>
  <metadata
     id="metadata7">
    <rdf:RDF>
      <cc:Work
         rdf:about="">
        <dc:format>image/svg+xml</dc:format>
        <dc:type
           rdf:resource="http://purl.org/dc/dcmitype/StillImage" />
        <dc:title></dc:title>
      </cc:Work>
    </rdf:RDF>
  </metadata>
  <g
     inkscape:label="Layer 1"
     inkscape:groupmode="layer"
     id="layer1"
     transform="translate(0,1073.6223)">
    <path
       style="fill:#0000ff;fill-rule:evenodd;stroke:#000000;stroke-width:1.46002316px;stroke-linecap:butt;stroke-linejoin:miter;stroke-opacity:1"
       d="m 0,-1073.6224 0,52.6875 0,17.7187 0,389.74998 0,17.7188 0,71.3438 779.81251,0 0,-71.3438 0,-17.7188 0,-389.74998 0,-17.7187 0,-52.6875 -779.81251,0 z m 110.9063,37.4375 c 2.5469,0 4.625,2.078 4.625,4.625 l 34.6875,0 c 0,-2.547 2.078,-4.625 4.625,-4.625 2.5469,0 4.5937,2.078 4.5937,4.625 l 0,10.625 c 0,2.547 -2.0468,4.5939 -4.5937,4.5937 -2.547,0 -4.625,-2.0467 -4.625,-4.5937 l -34.6875,0 c 0,2.547 -2.0781,4.5939 -4.625,4.5937 -2.547,0 -4.625,-2.0467 -4.625,-4.5937 l 0,-10.625 c 0,-2.547 2.078,-4.625 4.625,-4.625 z m 106.3125,0 c 2.5469,0 4.5937,2.078 4.5937,4.625 l 34.7188,0 c 0,-2.547 2.0467,-4.625 4.5937,-4.625 2.547,0 4.625,2.078 4.625,4.625 l 0,10.625 c 0,2.547 -2.078,4.5939 -4.625,4.5937 -2.547,0 -4.5937,-2.0467 -4.5937,-4.5937 l -34.7188,0 c 0,2.547 -2.0468,4.5939 -4.5937,4.5937 -2.547,0 -4.625,-2.0467 -4.625,-4.5937 l 0,-10.625 c 0,-2.547 2.078,-4.625 4.625,-4.625 z m 106.2812,0 c 2.547,0 4.625,2.078 4.625,4.625 l 34.6875,0 c 0,-2.547 2.078,-4.625 4.625,-4.625 2.547,0 4.5938,2.078 4.5938,4.625 l 0,10.625 c 0,2.547 -2.0468,4.5939 -4.5938,4.5937 -2.547,0 -4.625,-2.0467 -4.625,-4.5937 l -34.6875,0 c 0,2.547 -2.078,4.5939 -4.625,4.5937 -2.547,0 -4.5937,-2.0467 -4.5937,-4.5937 l 0,-10.625 c 0,-2.547 2.0467,-4.625 4.5937,-4.625 z m 88.5938,0 c 2.5469,0 4.5937,2.078 4.5937,4.625 l 34.7188,0 c 0,-2.547 2.0467,-4.625 4.5937,-4.625 2.547,0 4.625,2.078 4.625,4.625 l 0,10.625 c 0,2.547 -2.078,4.5939 -4.625,4.5937 -2.547,0 -4.5937,-2.0467 -4.5937,-4.5937 l -34.7188,0 c 0,2.547 -2.0468,4.5939 -4.5937,4.5937 -2.547,0 -4.625,-2.0467 -4.625,-4.5937 l 0,-10.625 c 0,-2.547 2.078,-4.625 4.625,-4.625 z m 106.2812,0 c 2.547,0 4.625,2.078 4.625,4.625 l 34.68748,0 c 0,-2.547 2.078,-4.625 4.625,-4.625 2.547,0 4.625,2.078 4.625,4.625 l 0,10.625 c 0,2.547 -2.078,4.5939 -4.625,4.5937 -2.547,0 -4.625,-2.0467 -4.625,-4.5937 l -34.68748,0 c 0,2.547 -2.078,4.5939 -4.625,4.5937 -2.547,0 -4.5937,-2.0467 -4.5937,-4.5937 l 0,-10.625 c 0,-2.547 2.0467,-4.625 4.5937,-4.625 z m 106.31248,0 c 2.547,0 4.625,2.078 4.625,4.625 l 34.6875,0 c 0,-2.547 2.078,-4.625 4.625,-4.625 2.547,0 4.5938,2.078 4.5938,4.625 l 0,10.625 c 0,2.547 -2.0468,4.5939 -4.5938,4.5937 -2.547,0 -4.625,-2.0467 -4.625,-4.5937 l -34.6875,0 c 0,2.547 -2.078,4.5939 -4.625,4.5937 -2.547,0 -4.625,-2.0467 -4.625,-4.5937 l 0,-10.625 c 0,-2.547 2.078,-4.625 4.625,-4.625 z m -527.999981,37.59369 c 2.5875,0 4.687501,2.0688 4.687501,4.6563 0,2.5875 -2.100001,4.6875 -4.687501,4.6875 -2.5875,0 -4.6875,-2.1 -4.6875,-4.6875 0,-2.5875 2.1,-4.6563 4.6875,-4.6563 z m 580.343781,0 c 2.58753,0 4.68753,2.0688 4.68753,4.6563 0,2.5875 -2.1,4.6875 -4.68753,4.6875 -2.5875,0 -4.6875,-2.1 -4.6875,-4.6875 0,-2.5875 2.1,-4.6563 4.6875,-4.6563 z m -616.81248,13.0938 10.656199,0 c 2.547,0 4.5938,2.0464 4.5938,4.5938 0,2.5462 -2.0468,4.625 -4.5938,4.625 l 0,34.6874 c 2.547,0 4.5938,2.0784 4.5938,4.625 0,2.5477 -2.0468,4.6252 -4.5938,4.625 l -10.656199,0 c -2.547,0 -4.5938,-2.0776 -4.5938,-4.625 0,-2.5462 2.0468,-4.6248 4.5938,-4.625 l 0,-34.6874 c -2.547,0 -4.5938,-2.0784 -4.5938,-4.625 0,-2.5477 2.0468,-4.5938 4.5938,-4.5938 z m 648.43751,0 10.625,0 c 2.547,0 4.625,2.0464 4.625,4.5938 0,2.5446 -2.078,4.625 -4.625,4.625 l 0,34.6874 c 2.547,0 4.625,2.0784 4.625,4.625 0,2.5493 -2.078,4.6252 -4.625,4.625 l -10.625,0 c -2.547,0 -4.625,-2.0776 -4.625,-4.625 0,-2.5446 2.078,-4.6248 4.625,-4.625 l 0,-34.6874 c -2.547,0 -4.625,-2.0784 -4.625,-4.625 0,-2.5493 2.078,-4.5938 4.625,-4.5938 z m -559.75001,19.7188 477.15618,0 0,314.18739 -477.15618,0 0,-314.18739 z m -88.6875,86.56239 10.656199,0 c 2.547,0 4.5938,2.0784 4.5938,4.625 0,2.5476 -2.0468,4.59381 -4.5938,4.59381 l 0,34.71879 c 2.547,0 4.5938,2.0776 4.5938,4.625 0,2.5463 -2.0468,4.5937 -4.5938,4.5937 l -10.656199,0 c -2.547,0 -4.5938,-2.0471 -4.5938,-4.5937 0,-2.5476 2.0468,-4.6252 4.5938,-4.625 l 0,-34.71879 c -2.547,0 -4.5938,-2.04641 -4.5938,-4.59381 0,-2.5463 2.0468,-4.6248 4.5938,-4.625 z m 648.43751,0 10.625,0 c 2.547,0 4.625,2.0784 4.625,4.625 0,2.5492 -2.078,4.59381 -4.625,4.59381 l 0,34.71879 c 2.547,0 4.625,2.0776 4.625,4.625 0,2.5447 -2.078,4.5937 -4.625,4.5937 l -10.625,0 c -2.547,0 -4.625,-2.0471 -4.625,-4.5937 0,-2.5492 2.078,-4.6252 4.625,-4.625 l 0,-34.71879 c -2.547,0 -4.625,-2.04641 -4.625,-4.59381 0,-2.5447 2.078,-4.6248 4.625,-4.625 z m -648.43751,88.5938 10.656199,0 c 2.547,0 4.5938,2.078 4.5938,4.625 0,2.547 -2.0468,4.5936 -4.5938,4.5938 l 0,34.7187 c 2.547,0 4.5938,2.0471 4.5938,4.5937 0,2.5478 -2.0468,4.625 -4.5938,4.625 l -10.656199,0 c -2.547,0 -4.5938,-2.0776 -4.5938,-4.625 0,-2.5461 2.0468,-4.5937 4.5938,-4.5937 l 0,-34.7187 c -2.547,0 -4.5938,-2.0468 -4.5938,-4.5938 0,-2.547 2.0468,-4.625 4.5938,-4.625 z m 648.43751,0 10.625,0 c 2.547,0 4.625,2.078 4.625,4.625 0,2.547 -2.078,4.5936 -4.625,4.5938 l 0,34.7187 c 2.547,0 4.625,2.0471 4.625,4.5937 0,2.5494 -2.078,4.625 -4.625,4.625 l -10.625,0 c -2.547,0 -4.625,-2.0776 -4.625,-4.625 0,-2.5445 2.078,-4.5937 4.625,-4.5937 l 0,-34.7187 c -2.547,0 -4.625,-2.0468 -4.625,-4.5938 0,-2.547 2.078,-4.625 4.625,-4.625 z m -648.43751,106.3125 10.656199,0 c 2.547,0 4.5938,2.0469 4.5938,4.5937 0,2.5479 -2.0468,4.6255 -4.5938,4.625 l 0,34.6876 c 2.547,0 4.5938,2.0771 4.5938,4.625 0,2.546 -2.0468,4.5937 -4.5938,4.5937 l -10.656199,0 c -2.547,0 -4.5938,-2.0469 -4.5938,-4.5937 0,-2.5479 2.0468,-4.6255 4.5938,-4.625 l 0,-34.6876 c -2.547,0 -4.5938,-2.0771 -4.5938,-4.625 0,-2.546 2.0468,-4.5937 4.5938,-4.5937 z m 648.43751,0 10.625,0 c 2.547,0 4.625,2.0469 4.625,4.5937 0,2.5495 -2.078,4.6267 -4.625,4.625 l 0,34.6876 c 2.547,0 4.625,2.0771 4.625,4.625 0,2.5444 -2.078,4.5937 -4.625,4.5937 l -10.625,0 c -2.547,0 -4.625,-2.0469 -4.625,-4.5937 0,-2.5495 2.078,-4.6267 4.625,-4.625 l 0,-34.6876 c -2.547,0 -4.625,-2.0771 -4.625,-4.625 0,-2.5444 2.078,-4.5937 4.625,-4.5937 z m -611.968811,56.4375 c 2.5875,0 4.687501,2.1 4.687501,4.6875 0,2.5875 -2.100001,4.6875 -4.687501,4.6875 -2.5875,0 -4.6875,-2.1 -4.6875,-4.6875 0,-2.5875 2.1,-4.6875 4.6875,-4.6875 z m 580.343781,0 c 2.58753,0 4.68753,2.1 4.68753,4.6875 0,2.5875 -2.1,4.6875 -4.68753,4.6875 -2.5875,0 -4.6875,-2.1 -4.6875,-4.6875 0,-2.5875 2.1,-4.6875 4.6875,-4.6875 z m -566.06248,27.4375 c 2.5874,0 4.6875,2.1 4.6875,4.6875 l 34.4062,0 c 0,-2.5875 2.1,-4.6875 4.6875,-4.6875 2.5875,0 4.6875,2.1 4.6875,4.6875 l 0,10.625 c 0,2.5875 -2.1,4.6875 -4.6875,4.6875 -2.5875,0 -4.6875,-2.1 -4.6875,-4.6875 l -34.4062,0 c 0,2.5875 -2.1001,4.6875 -4.6875,4.6875 -2.5875,0 -4.6875,-2.1 -4.6875,-4.6875 l 0,-10.625 c 0,-2.5875 2.1,-4.6875 4.6875,-4.6875 z m 106.3125,0 c 2.5874,0 4.6875,2.1 4.6875,4.6875 l 34.4062,0 c 0,-2.5875 2.1,-4.6875 4.6875,-4.6875 2.5875,0 4.6875,2.1 4.6875,4.6875 l 0,10.625 c 0,2.5875 -2.1,4.6875 -4.6875,4.6875 -2.5875,0 -4.6875,-2.1 -4.6875,-4.6875 l -34.4062,0 c 0,2.5875 -2.1001,4.6875 -4.6875,4.6875 -2.5875,0 -4.6875,-2.1 -4.6875,-4.6875 l 0,-10.625 c 0,-2.5875 2.1,-4.6875 4.6875,-4.6875 z m 106.3125,0 c 2.5874,0 4.6562,2.1 4.6562,4.6875 l 34.4375,0 c 0,-2.5875 2.0688,-4.6875 4.6563,-4.6875 2.5874,0 4.6875,2.1 4.6875,4.6875 l 0,10.625 c 0,2.5875 -2.1001,4.6875 -4.6875,4.6875 -2.5875,0 -4.6563,-2.1 -4.6563,-4.6875 l -34.4375,0 c 0,2.5875 -2.0688,4.6875 -4.6562,4.6875 -2.5875,0 -4.6875,-2.1 -4.6875,-4.6875 l 0,-10.625 c 0,-2.5875 2.1,-4.6875 4.6875,-4.6875 z m 88.5625,0 c 2.5874,0 4.6875,2.1 4.6875,4.6875 l 34.4062,0 c 0,-2.5875 2.1,-4.6875 4.6875,-4.6875 2.5875,0 4.6875,2.1 4.6875,4.6875 l 0,10.625 c 0,2.5875 -2.1,4.6875 -4.6875,4.6875 -2.5875,0 -4.6875,-2.1 -4.6875,-4.6875 l -34.4062,0 c 0,2.5875 -2.1001,4.6875 -4.6875,4.6875 -2.5875,0 -4.6875,-2.1 -4.6875,-4.6875 l 0,-10.625 c 0,-2.5875 2.1,-4.6875 4.6875,-4.6875 z m 106.3125,0 c 2.5874,0 4.6875,2.1 4.6875,4.6875 l 34.40618,0 c 0,-2.5875 2.1,-4.6875 4.6875,-4.6875 2.5875,0 4.6875,2.1 4.6875,4.6875 l 0,10.625 c 0,2.5875 -2.1,4.6875 -4.6875,4.6875 -2.5875,0 -4.6875,-2.1 -4.6875,-4.6875 l -34.40618,0 c 0,2.5875 -2.1001,4.6875 -4.6875,4.6875 -2.5875,0 -4.6875,-2.1 -4.6875,-4.6875 l 0,-10.625 c 0,-2.5875 2.1,-4.6875 4.6875,-4.6875 z m 106.28118,0 c 2.5875,0 4.6875,2.1 4.6875,4.6875 l 34.4063,0 c 0,-2.5875 2.1,-4.6875 4.6875,-4.6875 2.5875,0 4.6875,2.1 4.6875,4.6875 l 0,10.625 c 0,2.5875 -2.1,4.6875 -4.6875,4.6875 -2.5875,0 -4.6875,-2.1 -4.6875,-4.6875 l -34.4063,0 c 0,2.5875 -2.1,4.6875 -4.6875,4.6875 -2.5875,0 -4.6875,-2.1 -4.6875,-4.6875 l 0,-10.625 c 0,-2.5875 2.1,-4.6875 4.6875,-4.6875 z"
       id="rect3507"
       inkscape:connector-curvature="0" />
    <path
       style="fill:#0000ff;fill-rule:evenodd;stroke:#000000;stroke-width:1.46002316px;stroke-linecap:butt;stroke-linejoin:miter;stroke-opacity:1"
       d="m 0,-506.69329 0,52.6875 0,17.7188 0,407.468708 0,71.34375 779.78125,0 0,-89.06245 0,-389.750008 0,-17.7188 0,-52.6875 -779.78125,0 z m 96.687503,75 c 2.5875,0 4.687497,2.1 4.687497,4.6875 0,2.5875 -2.099997,4.6875 -4.687497,4.6875 -2.5875,0 -4.6875,-2.1 -4.6875,-4.6875 0,-2.5875 2.1,-4.6875 4.6875,-4.6875 z m 580.343747,0 c 2.5875,0 4.6874,2.1 4.6876,4.6875 0,2.5875 -2.1001,4.6875 -4.6876,4.6875 -2.5874,0 -4.6876,-2.1 -4.6874,-4.6875 0,-2.5875 2.1,-4.6875 4.6874,-4.6875 z m -528.15625,32.8125 477.18755,0 0,314.187508 -477.18755,0 0,-314.187508 z M 96.687503,-60.943282 c 2.5875,0 4.687497,2.1 4.687497,4.6875 0,2.5875 -2.099997,4.6875 -4.687497,4.6875 -2.5875,0 -4.6875,-2.1 -4.6875,-4.6875 0,-2.5875 2.1,-4.6875 4.6875,-4.6875 z m 580.343747,0 c 2.5875,0 4.6874,2.1 4.6876,4.6875 0,2.5875 -2.1001,4.6875 -4.6876,4.6875 -2.5874,0 -4.6876,-2.1 -4.6874,-4.6875 0,-2.5875 2.1,-4.6875 4.6874,-4.6875 z"
       id="rect3619"
       inkscape:connector-curvature="0" />
  </g>
</svg>
