  0
SECTION
  2
HEADER
  9
$ACADVER
  1
AC1014
  9
$HANDSEED
  5
FFFF
  9
$MEASUREMENT
 70
     1
  0
ENDSEC
  0
SECTION
  2
TABLES
  0
TABLE
  2
VPORT
  5
8
330
0
100
AcDbSymbolTable
 70
     4
  0
VPORT
  5
2E
330
8
100
AcDbSymbolTableRecord
100
AcDbViewportTableRecord
  2
*ACTIVE
 70
     0
 10
0.0
 20
0.0
 11
1.0
 21
1.0
 12
210.0
 22
148.5
 13
0.0
 23
0.0
 14
10.0
 24
10.0
 15
10.0
 25
10.0
 16
0.0
 26
0.0
 36
1.0
 17
0.0
 27
0.0
 37
0.0
 40
341.0
 41
1.24
 42
50.0
 43
0.0
 44
0.0
 50
0.0
 51
0.0
 71
     0
 72
   100
 73
     1
 74
     3
 75
     0
 76
     0
 77
     0
 78
     0
  0
ENDTAB
  0
TABLE
  2
LTYPE
  5
5
330
0
100
AcDbSymbolTable
 70
     1
  0
LTYPE
  5
14
330
5
100
AcDbSymbolTableRecord
100
AcDbLinetypeTableRecord
  2
BYBLOCK
 70
     0
  3

 72
    65
 73
     0
 40
0.0
  0
LTYPE
  5
15
330
5
100
AcDbSymbolTableRecord
100
AcDbLinetypeTableRecord
  2
BYLAYER
 70
     0
  3

 72
    65
 73
     0
 40
0.0
  0
LTYPE
  5
16
330
5
100
AcDbSymbolTableRecord
100
AcDbLinetypeTableRecord
  2
CONTINUOUS
 70
     0
  3
Solid line
 72
    65
 73
     0
 40
0.0
  0
ENDTAB
  0
TABLE
  2
LAYER
  5
2
100
AcDbSymbolTable
 70
2
  0
LAYER
  5
50
100
AcDbSymbolTableRecord
100
AcDbLayerTableRecord
  2
0
 70
0
  6
CONTINUOUS
  0
LAYER
  5
51
100
AcDbSymbolTableRecord
100
AcDbLayerTableRecord
  2
Layer_1
 70
0
  6
CONTINUOUS
  0
ENDTAB
  0
TABLE
  2
STYLE
  5
3
330
0
100
AcDbSymbolTable
 70
     1
  0
STYLE
  5
11
330
3
100
AcDbSymbolTableRecord
100
AcDbTextStyleTableRecord
  2
STANDARD
 70
     0
 40
0.0
 41
1.0
 50
0.0
 71
     0
 42
2.5
  3
txt
  4

  0
ENDTAB
  0
TABLE
  2
VIEW
  5
6
330
0
100
AcDbSymbolTable
 70
     0
  0
ENDTAB
  0
TABLE
  2
UCS
  5
7
330
0
100
AcDbSymbolTable
 70
     0
  0
ENDTAB
  0
TABLE
  2
APPID
  5
9
330
0
100
AcDbSymbolTable
 70
     2
  0
APPID
  5
12
330
9
100
AcDbSymbolTableRecord
100
AcDbRegAppTableRecord
  2
ACAD
 70
     0
  0
ENDTAB
  0
TABLE
  2
DIMSTYLE
  5
A
330
0
100
AcDbSymbolTable
 70
     1
  0
DIMSTYLE
105
27
330
A
100
AcDbSymbolTableRecord
100
AcDbDimStyleTableRecord
  2
ISO-25
 70
     0
  3

  4

  5

  6

  7

 40
1.0
 41
2.5
 42
0.625
 43
3.75
 44
1.25
 45
0.0
 46
0.0
 47
0.0
 48
0.0
140
2.5
141
2.5
142
0.0
143
0.03937007874016
144
1.0
145
0.0
146
1.0
147
0.625
 71
     0
 72
     0
 73
     0
 74
     0
 75
     0
 76
     0
 77
     1
 78
     8
170
     0
171
     3
172
     1
173
     0
174
     0
175
     0
176
     0
177
     0
178
     0
270
     2
271
     2
272
     2
273
     2
274
     3
340
11
275
     0
280
     0
281
     0
282
     0
283
     0
284
     8
285
     0
286
     0
287
     3
288
     0
  0
ENDTAB
  0
TABLE
  2
BLOCK_RECORD
  5
1
330
0
100
AcDbSymbolTable
 70
     1
  0
BLOCK_RECORD
  5
1F
330
1
100
AcDbSymbolTableRecord
100
AcDbBlockTableRecord
  2
*MODEL_SPACE
  0
BLOCK_RECORD
  5
1B
330
1
100
AcDbSymbolTableRecord
100
AcDbBlockTableRecord
  2
*PAPER_SPACE
  0
ENDTAB
  0
ENDSEC
  0
SECTION
  2
BLOCKS
  0
BLOCK
  5
20
330
1F
100
AcDbEntity
  8
0
100
AcDbBlockBegin
  2
*MODEL_SPACE
 70
     0
 10
0.0
 20
0.0
 30
0.0
  3
*MODEL_SPACE
  1

  0
ENDBLK
  5
21
330
1F
100
AcDbEntity
  8
0
100
AcDbBlockEnd
  0
BLOCK
  5
1C
330
1B
100
AcDbEntity
 67
     1
  8
0
100
AcDbBlockBegin
  2
*PAPER_SPACE
  1

  0
ENDBLK
  5
1D
330
1B
100
AcDbEntity
 67
     1
  8
0
100
AcDbBlockEnd
  0
ENDSEC
  0
SECTION
  2
ENTITIES
  0
SPLINE
  5
100
100
AcDbEntity
  8
Layer_1
 62
7
100
AcDbSpline
 70
8
 71
3
 72
8
 73
4
 74
0
 40
0
 40
0
 40
0
 40
0
 40
1
 40
1
 40
1
 40
1
 10
31.300222
 20
589.434291
 30
0.0
 10
32.019014
 20
589.434291
 30
0.0
 10
32.605500
 20
588.847833
 30
0.0
 10
32.605500
 20
588.129013
 30
0.0
  0
LWPOLYLINE
  5
101
100
AcDbEntity
  8
Layer_1
 62
7
100
AcDbPolyline
 90
14
 70
1
 10
0.000000
 20
599.999985
 30
0.0
 10
0.000000
 20
585.130402
 30
0.0
 10
0.000000
 20
580.129791
 30
0.0
 10
0.000000
 20
470.133686
 30
0.0
 10
0.000000
 20
465.133047
 30
0.0
 10
0.000000
 20
444.998241
 30
0.0
 10
220.080419
 20
444.998241
 30
0.0
 10
220.080419
 20
465.133047
 30
0.0
 10
220.080419
 20
470.133686
 30
0.0
 10
220.080419
 20
580.129791
 30
0.0
 10
220.080419
 20
585.130402
 30
0.0
 10
220.080419
 20
599.999985
 30
0.0
 10
0.000000
 20
599.999985
 30
0.0
 10
0.000000
 20
599.999985
 30
0.0
  0
SPLINE
  5
102
100
AcDbEntity
  8
Layer_1
 62
7
100
AcDbSpline
 70
8
 71
3
 72
8
 73
4
 74
0
 40
0
 40
0
 40
0
 40
0
 40
1
 40
1
 40
1
 40
1
 10
42.395084
 20
588.129013
 30
0.0
 10
42.395084
 20
588.847833
 30
0.0
 10
42.981541
 20
589.434291
 30
0.0
 10
43.700361
 20
589.434291
 30
0.0
  0
SPLINE
  5
103
100
AcDbEntity
  8
Layer_1
 62
7
100
AcDbSpline
 70
8
 71
3
 72
8
 73
4
 74
0
 40
0
 40
0
 40
0
 40
0
 40
1
 40
1
 40
1
 40
1
 10
43.700361
 20
589.434291
 30
0.0
 10
44.419153
 20
589.434291
 30
0.0
 10
44.996806
 20
588.847833
 30
0.0
 10
44.996806
 20
588.129013
 30
0.0
  0
LWPOLYLINE
  5
104
100
AcDbEntity
  8
Layer_1
 62
7
100
AcDbPolyline
 90
2
 70
1
 10
32.605500
 20
588.129013
 30
0.0
 10
42.395084
 20
588.129013
 30
0.0
  0
SPLINE
  5
105
100
AcDbEntity
  8
Layer_1
 62
7
100
AcDbSpline
 70
8
 71
3
 72
8
 73
4
 74
0
 40
0
 40
0
 40
0
 40
0
 40
1
 40
1
 40
1
 40
1
 10
44.996806
 20
585.130402
 30
0.0
 10
44.996806
 20
584.411582
 30
0.0
 10
44.419153
 20
583.833901
 30
0.0
 10
43.700361
 20
583.833958
 30
0.0
  0
SPLINE
  5
106
100
AcDbEntity
  8
Layer_1
 62
7
100
AcDbSpline
 70
8
 71
3
 72
8
 73
4
 74
0
 40
0
 40
0
 40
0
 40
0
 40
1
 40
1
 40
1
 40
1
 10
43.700361
 20
583.833958
 30
0.0
 10
42.981541
 20
583.833958
 30
0.0
 10
42.395084
 20
584.411582
 30
0.0
 10
42.395084
 20
585.130402
 30
0.0
  0
LWPOLYLINE
  5
107
100
AcDbEntity
  8
Layer_1
 62
7
100
AcDbPolyline
 90
2
 70
1
 10
44.996806
 20
588.129013
 30
0.0
 10
44.996806
 20
585.130402
 30
0.0
  0
SPLINE
  5
108
100
AcDbEntity
  8
Layer_1
 62
7
100
AcDbSpline
 70
8
 71
3
 72
8
 73
4
 74
0
 40
0
 40
0
 40
0
 40
0
 40
1
 40
1
 40
1
 40
1
 10
32.605500
 20
585.130402
 30
0.0
 10
32.605500
 20
584.411582
 30
0.0
 10
32.019014
 20
583.833901
 30
0.0
 10
31.300222
 20
583.833958
 30
0.0
  0
SPLINE
  5
109
100
AcDbEntity
  8
Layer_1
 62
7
100
AcDbSpline
 70
8
 71
3
 72
8
 73
4
 74
0
 40
0
 40
0
 40
0
 40
0
 40
1
 40
1
 40
1
 40
1
 10
31.300222
 20
583.833958
 30
0.0
 10
30.581402
 20
583.833958
 30
0.0
 10
29.994945
 20
584.411582
 30
0.0
 10
29.994945
 20
585.130402
 30
0.0
  0
LWPOLYLINE
  5
10a
100
AcDbEntity
  8
Layer_1
 62
7
100
AcDbPolyline
 90
2
 70
1
 10
42.395084
 20
585.130402
 30
0.0
 10
32.605500
 20
585.130402
 30
0.0
  0
SPLINE
  5
10b
100
AcDbEntity
  8
Layer_1
 62
7
100
AcDbSpline
 70
8
 71
3
 72
8
 73
4
 74
0
 40
0
 40
0
 40
0
 40
0
 40
1
 40
1
 40
1
 40
1
 10
29.994945
 20
588.129013
 30
0.0
 10
29.994945
 20
588.847833
 30
0.0
 10
30.581402
 20
589.434291
 30
0.0
 10
31.300222
 20
589.434291
 30
0.0
  0
LWPOLYLINE
  5
10c
100
AcDbEntity
  8
Layer_1
 62
7
100
AcDbPolyline
 90
2
 70
1
 10
29.994945
 20
585.130402
 30
0.0
 10
29.994945
 20
588.129013
 30
0.0
  0
SPLINE
  5
10d
100
AcDbEntity
  8
Layer_1
 62
7
100
AcDbSpline
 70
8
 71
3
 72
8
 73
4
 74
0
 40
0
 40
0
 40
0
 40
0
 40
1
 40
1
 40
1
 40
1
 10
61.303972
 20
589.434291
 30
0.0
 10
62.022764
 20
589.434291
 30
0.0
 10
62.600417
 20
588.847833
 30
0.0
 10
62.600417
 20
588.129013
 30
0.0
  0
LWPOLYLINE
  5
10e
100
AcDbEntity
  8
Layer_1
 62
7
100
AcDbPolyline
 90
2
 70
1
 10
31.300222
 20
589.434291
 30
0.0
 10
31.300222
 20
589.434291
 30
0.0
  0
SPLINE
  5
10f
100
AcDbEntity
  8
Layer_1
 62
7
100
AcDbSpline
 70
8
 71
3
 72
8
 73
4
 74
0
 40
0
 40
0
 40
0
 40
0
 40
1
 40
1
 40
1
 40
1
 10
72.398834
 20
588.129013
 30
0.0
 10
72.398834
 20
588.847833
 30
0.0
 10
72.976458
 20
589.434291
 30
0.0
 10
73.695278
 20
589.434291
 30
0.0
  0
SPLINE
  5
110
100
AcDbEntity
  8
Layer_1
 62
7
100
AcDbSpline
 70
8
 71
3
 72
8
 73
4
 74
0
 40
0
 40
0
 40
0
 40
0
 40
1
 40
1
 40
1
 40
1
 10
73.695278
 20
589.434291
 30
0.0
 10
74.414098
 20
589.434291
 30
0.0
 10
75.000556
 20
588.847833
 30
0.0
 10
75.000556
 20
588.129013
 30
0.0
  0
LWPOLYLINE
  5
111
100
AcDbEntity
  8
Layer_1
 62
7
100
AcDbPolyline
 90
2
 70
1
 10
62.600417
 20
588.129013
 30
0.0
 10
72.398834
 20
588.129013
 30
0.0
  0
SPLINE
  5
112
100
AcDbEntity
  8
Layer_1
 62
7
100
AcDbSpline
 70
8
 71
3
 72
8
 73
4
 74
0
 40
0
 40
0
 40
0
 40
0
 40
1
 40
1
 40
1
 40
1
 10
75.000556
 20
585.130402
 30
0.0
 10
75.000556
 20
584.411582
 30
0.0
 10
74.414098
 20
583.833901
 30
0.0
 10
73.695278
 20
583.833958
 30
0.0
  0
SPLINE
  5
113
100
AcDbEntity
  8
Layer_1
 62
7
100
AcDbSpline
 70
8
 71
3
 72
8
 73
4
 74
0
 40
0
 40
0
 40
0
 40
0
 40
1
 40
1
 40
1
 40
1
 10
73.695278
 20
583.833958
 30
0.0
 10
72.976458
 20
583.833958
 30
0.0
 10
72.398834
 20
584.411582
 30
0.0
 10
72.398834
 20
585.130402
 30
0.0
  0
LWPOLYLINE
  5
114
100
AcDbEntity
  8
Layer_1
 62
7
100
AcDbPolyline
 90
2
 70
1
 10
75.000556
 20
588.129013
 30
0.0
 10
75.000556
 20
585.130402
 30
0.0
  0
SPLINE
  5
115
100
AcDbEntity
  8
Layer_1
 62
7
100
AcDbSpline
 70
8
 71
3
 72
8
 73
4
 74
0
 40
0
 40
0
 40
0
 40
0
 40
1
 40
1
 40
1
 40
1
 10
62.600417
 20
585.130402
 30
0.0
 10
62.600417
 20
584.411582
 30
0.0
 10
62.022764
 20
583.833901
 30
0.0
 10
61.303972
 20
583.833958
 30
0.0
  0
SPLINE
  5
116
100
AcDbEntity
  8
Layer_1
 62
7
100
AcDbSpline
 70
8
 71
3
 72
8
 73
4
 74
0
 40
0
 40
0
 40
0
 40
0
 40
1
 40
1
 40
1
 40
1
 10
61.303972
 20
583.833958
 30
0.0
 10
60.585152
 20
583.833958
 30
0.0
 10
59.998695
 20
584.411582
 30
0.0
 10
59.998695
 20
585.130402
 30
0.0
  0
LWPOLYLINE
  5
117
100
AcDbEntity
  8
Layer_1
 62
7
100
AcDbPolyline
 90
2
 70
1
 10
72.398834
 20
585.130402
 30
0.0
 10
62.600417
 20
585.130402
 30
0.0
  0
SPLINE
  5
118
100
AcDbEntity
  8
Layer_1
 62
7
100
AcDbSpline
 70
8
 71
3
 72
8
 73
4
 74
0
 40
0
 40
0
 40
0
 40
0
 40
1
 40
1
 40
1
 40
1
 10
59.998695
 20
588.129013
 30
0.0
 10
59.998695
 20
588.847833
 30
0.0
 10
60.585152
 20
589.434291
 30
0.0
 10
61.303972
 20
589.434291
 30
0.0
  0
LWPOLYLINE
  5
119
100
AcDbEntity
  8
Layer_1
 62
7
100
AcDbPolyline
 90
2
 70
1
 10
59.998695
 20
585.130402
 30
0.0
 10
59.998695
 20
588.129013
 30
0.0
  0
SPLINE
  5
11a
100
AcDbEntity
  8
Layer_1
 62
7
100
AcDbSpline
 70
8
 71
3
 72
8
 73
4
 74
0
 40
0
 40
0
 40
0
 40
0
 40
1
 40
1
 40
1
 40
1
 10
91.298889
 20
589.434291
 30
0.0
 10
92.017709
 20
589.434291
 30
0.0
 10
92.604167
 20
588.847833
 30
0.0
 10
92.604167
 20
588.129013
 30
0.0
  0
LWPOLYLINE
  5
11b
100
AcDbEntity
  8
Layer_1
 62
7
100
AcDbPolyline
 90
2
 70
1
 10
61.303972
 20
589.434291
 30
0.0
 10
61.303972
 20
589.434291
 30
0.0
  0
SPLINE
  5
11c
100
AcDbEntity
  8
Layer_1
 62
7
100
AcDbSpline
 70
8
 71
3
 72
8
 73
4
 74
0
 40
0
 40
0
 40
0
 40
0
 40
1
 40
1
 40
1
 40
1
 10
102.393750
 20
588.129013
 30
0.0
 10
102.393750
 20
588.847833
 30
0.0
 10
102.980208
 20
589.434291
 30
0.0
 10
103.699028
 20
589.434291
 30
0.0
  0
SPLINE
  5
11d
100
AcDbEntity
  8
Layer_1
 62
7
100
AcDbSpline
 70
8
 71
3
 72
8
 73
4
 74
0
 40
0
 40
0
 40
0
 40
0
 40
1
 40
1
 40
1
 40
1
 10
103.699028
 20
589.434291
 30
0.0
 10
104.417848
 20
589.434291
 30
0.0
 10
104.995500
 20
588.847833
 30
0.0
 10
104.995500
 20
588.129013
 30
0.0
  0
LWPOLYLINE
  5
11e
100
AcDbEntity
  8
Layer_1
 62
7
100
AcDbPolyline
 90
2
 70
1
 10
92.604167
 20
588.129013
 30
0.0
 10
102.393750
 20
588.129013
 30
0.0
  0
SPLINE
  5
11f
100
AcDbEntity
  8
Layer_1
 62
7
100
AcDbSpline
 70
8
 71
3
 72
8
 73
4
 74
0
 40
0
 40
0
 40
0
 40
0
 40
1
 40
1
 40
1
 40
1
 10
104.995500
 20
585.130402
 30
0.0
 10
104.995500
 20
584.411582
 30
0.0
 10
104.417848
 20
583.833901
 30
0.0
 10
103.699028
 20
583.833958
 30
0.0
  0
SPLINE
  5
120
100
AcDbEntity
  8
Layer_1
 62
7
100
AcDbSpline
 70
8
 71
3
 72
8
 73
4
 74
0
 40
0
 40
0
 40
0
 40
0
 40
1
 40
1
 40
1
 40
1
 10
103.699028
 20
583.833958
 30
0.0
 10
102.980208
 20
583.833958
 30
0.0
 10
102.393750
 20
584.411582
 30
0.0
 10
102.393750
 20
585.130402
 30
0.0
  0
LWPOLYLINE
  5
121
100
AcDbEntity
  8
Layer_1
 62
7
100
AcDbPolyline
 90
2
 70
1
 10
104.995500
 20
588.129013
 30
0.0
 10
104.995500
 20
585.130402
 30
0.0
  0
SPLINE
  5
122
100
AcDbEntity
  8
Layer_1
 62
7
100
AcDbSpline
 70
8
 71
3
 72
8
 73
4
 74
0
 40
0
 40
0
 40
0
 40
0
 40
1
 40
1
 40
1
 40
1
 10
92.604167
 20
585.130402
 30
0.0
 10
92.604167
 20
584.411582
 30
0.0
 10
92.017709
 20
583.833901
 30
0.0
 10
91.298889
 20
583.833958
 30
0.0
  0
SPLINE
  5
123
100
AcDbEntity
  8
Layer_1
 62
7
100
AcDbSpline
 70
8
 71
3
 72
8
 73
4
 74
0
 40
0
 40
0
 40
0
 40
0
 40
1
 40
1
 40
1
 40
1
 10
91.298889
 20
583.833958
 30
0.0
 10
90.580069
 20
583.833958
 30
0.0
 10
90.002445
 20
584.411582
 30
0.0
 10
90.002445
 20
585.130402
 30
0.0
  0
LWPOLYLINE
  5
124
100
AcDbEntity
  8
Layer_1
 62
7
100
AcDbPolyline
 90
2
 70
1
 10
102.393750
 20
585.130402
 30
0.0
 10
92.604167
 20
585.130402
 30
0.0
  0
SPLINE
  5
125
100
AcDbEntity
  8
Layer_1
 62
7
100
AcDbSpline
 70
8
 71
3
 72
8
 73
4
 74
0
 40
0
 40
0
 40
0
 40
0
 40
1
 40
1
 40
1
 40
1
 10
90.002445
 20
588.129013
 30
0.0
 10
90.002445
 20
588.847833
 30
0.0
 10
90.580069
 20
589.434291
 30
0.0
 10
91.298889
 20
589.434291
 30
0.0
  0
LWPOLYLINE
  5
126
100
AcDbEntity
  8
Layer_1
 62
7
100
AcDbPolyline
 90
2
 70
1
 10
90.002445
 20
585.130402
 30
0.0
 10
90.002445
 20
588.129013
 30
0.0
  0
SPLINE
  5
127
100
AcDbEntity
  8
Layer_1
 62
7
100
AcDbSpline
 70
8
 71
3
 72
8
 73
4
 74
0
 40
0
 40
0
 40
0
 40
0
 40
1
 40
1
 40
1
 40
1
 10
116.302028
 20
589.434291
 30
0.0
 10
117.020820
 20
589.434291
 30
0.0
 10
117.598472
 20
588.847833
 30
0.0
 10
117.598472
 20
588.129013
 30
0.0
  0
LWPOLYLINE
  5
128
100
AcDbEntity
  8
Layer_1
 62
7
100
AcDbPolyline
 90
2
 70
1
 10
91.298889
 20
589.434291
 30
0.0
 10
91.298889
 20
589.434291
 30
0.0
  0
SPLINE
  5
129
100
AcDbEntity
  8
Layer_1
 62
7
100
AcDbSpline
 70
8
 71
3
 72
8
 73
4
 74
0
 40
0
 40
0
 40
0
 40
0
 40
1
 40
1
 40
1
 40
1
 10
127.396889
 20
588.129013
 30
0.0
 10
127.396889
 20
588.847833
 30
0.0
 10
127.974513
 20
589.434291
 30
0.0
 10
128.693333
 20
589.434291
 30
0.0
  0
SPLINE
  5
12a
100
AcDbEntity
  8
Layer_1
 62
7
100
AcDbSpline
 70
8
 71
3
 72
8
 73
4
 74
0
 40
0
 40
0
 40
0
 40
0
 40
1
 40
1
 40
1
 40
1
 10
128.693333
 20
589.434291
 30
0.0
 10
129.412153
 20
589.434291
 30
0.0
 10
129.998611
 20
588.847833
 30
0.0
 10
129.998611
 20
588.129013
 30
0.0
  0
LWPOLYLINE
  5
12b
100
AcDbEntity
  8
Layer_1
 62
7
100
AcDbPolyline
 90
2
 70
1
 10
117.598472
 20
588.129013
 30
0.0
 10
127.396889
 20
588.129013
 30
0.0
  0
SPLINE
  5
12c
100
AcDbEntity
  8
Layer_1
 62
7
100
AcDbSpline
 70
8
 71
3
 72
8
 73
4
 74
0
 40
0
 40
0
 40
0
 40
0
 40
1
 40
1
 40
1
 40
1
 10
129.998611
 20
585.130402
 30
0.0
 10
129.998611
 20
584.411582
 30
0.0
 10
129.412153
 20
583.833901
 30
0.0
 10
128.693333
 20
583.833958
 30
0.0
  0
SPLINE
  5
12d
100
AcDbEntity
  8
Layer_1
 62
7
100
AcDbSpline
 70
8
 71
3
 72
8
 73
4
 74
0
 40
0
 40
0
 40
0
 40
0
 40
1
 40
1
 40
1
 40
1
 10
128.693333
 20
583.833958
 30
0.0
 10
127.974513
 20
583.833958
 30
0.0
 10
127.396889
 20
584.411582
 30
0.0
 10
127.396889
 20
585.130402
 30
0.0
  0
LWPOLYLINE
  5
12e
100
AcDbEntity
  8
Layer_1
 62
7
100
AcDbPolyline
 90
2
 70
1
 10
129.998611
 20
588.129013
 30
0.0
 10
129.998611
 20
585.130402
 30
0.0
  0
SPLINE
  5
12f
100
AcDbEntity
  8
Layer_1
 62
7
100
AcDbSpline
 70
8
 71
3
 72
8
 73
4
 74
0
 40
0
 40
0
 40
0
 40
0
 40
1
 40
1
 40
1
 40
1
 10
117.598472
 20
585.130402
 30
0.0
 10
117.598472
 20
584.411582
 30
0.0
 10
117.020820
 20
583.833901
 30
0.0
 10
116.302028
 20
583.833958
 30
0.0
  0
SPLINE
  5
130
100
AcDbEntity
  8
Layer_1
 62
7
100
AcDbSpline
 70
8
 71
3
 72
8
 73
4
 74
0
 40
0
 40
0
 40
0
 40
0
 40
1
 40
1
 40
1
 40
1
 10
116.302028
 20
583.833958
 30
0.0
 10
115.583208
 20
583.833958
 30
0.0
 10
114.996750
 20
584.411582
 30
0.0
 10
114.996750
 20
585.130402
 30
0.0
  0
LWPOLYLINE
  5
131
100
AcDbEntity
  8
Layer_1
 62
7
100
AcDbPolyline
 90
2
 70
1
 10
127.396889
 20
585.130402
 30
0.0
 10
117.598472
 20
585.130402
 30
0.0
  0
SPLINE
  5
132
100
AcDbEntity
  8
Layer_1
 62
7
100
AcDbSpline
 70
8
 71
3
 72
8
 73
4
 74
0
 40
0
 40
0
 40
0
 40
0
 40
1
 40
1
 40
1
 40
1
 10
114.996750
 20
588.129013
 30
0.0
 10
114.996750
 20
588.847833
 30
0.0
 10
115.583208
 20
589.434291
 30
0.0
 10
116.302028
 20
589.434291
 30
0.0
  0
LWPOLYLINE
  5
133
100
AcDbEntity
  8
Layer_1
 62
7
100
AcDbPolyline
 90
2
 70
1
 10
114.996750
 20
585.130402
 30
0.0
 10
114.996750
 20
588.129013
 30
0.0
  0
SPLINE
  5
134
100
AcDbEntity
  8
Layer_1
 62
7
100
AcDbSpline
 70
8
 71
3
 72
8
 73
4
 74
0
 40
0
 40
0
 40
0
 40
0
 40
1
 40
1
 40
1
 40
1
 10
146.296944
 20
589.434291
 30
0.0
 10
147.015764
 20
589.434291
 30
0.0
 10
147.602222
 20
588.847833
 30
0.0
 10
147.602222
 20
588.129013
 30
0.0
  0
LWPOLYLINE
  5
135
100
AcDbEntity
  8
Layer_1
 62
7
100
AcDbPolyline
 90
2
 70
1
 10
116.302028
 20
589.434291
 30
0.0
 10
116.302028
 20
589.434291
 30
0.0
  0
SPLINE
  5
136
100
AcDbEntity
  8
Layer_1
 62
7
100
AcDbSpline
 70
8
 71
3
 72
8
 73
4
 74
0
 40
0
 40
0
 40
0
 40
0
 40
1
 40
1
 40
1
 40
1
 10
157.391800
 20
588.129013
 30
0.0
 10
157.391800
 20
588.847833
 30
0.0
 10
157.978258
 20
589.434291
 30
0.0
 10
158.697078
 20
589.434291
 30
0.0
  0
SPLINE
  5
137
100
AcDbEntity
  8
Layer_1
 62
7
100
AcDbSpline
 70
8
 71
3
 72
8
 73
4
 74
0
 40
0
 40
0
 40
0
 40
0
 40
1
 40
1
 40
1
 40
1
 10
158.697078
 20
589.434291
 30
0.0
 10
159.415898
 20
589.434291
 30
0.0
 10
160.002355
 20
588.847833
 30
0.0
 10
160.002355
 20
588.129013
 30
0.0
  0
LWPOLYLINE
  5
138
100
AcDbEntity
  8
Layer_1
 62
7
100
AcDbPolyline
 90
2
 70
1
 10
147.602222
 20
588.129013
 30
0.0
 10
157.391800
 20
588.129013
 30
0.0
  0
SPLINE
  5
139
100
AcDbEntity
  8
Layer_1
 62
7
100
AcDbSpline
 70
8
 71
3
 72
8
 73
4
 74
0
 40
0
 40
0
 40
0
 40
0
 40
1
 40
1
 40
1
 40
1
 10
160.002355
 20
585.130402
 30
0.0
 10
160.002355
 20
584.411582
 30
0.0
 10
159.415898
 20
583.833901
 30
0.0
 10
158.697078
 20
583.833958
 30
0.0
  0
SPLINE
  5
13a
100
AcDbEntity
  8
Layer_1
 62
7
100
AcDbSpline
 70
8
 71
3
 72
8
 73
4
 74
0
 40
0
 40
0
 40
0
 40
0
 40
1
 40
1
 40
1
 40
1
 10
158.697078
 20
583.833958
 30
0.0
 10
157.978258
 20
583.833958
 30
0.0
 10
157.391800
 20
584.411582
 30
0.0
 10
157.391800
 20
585.130402
 30
0.0
  0
LWPOLYLINE
  5
13b
100
AcDbEntity
  8
Layer_1
 62
7
100
AcDbPolyline
 90
2
 70
1
 10
160.002355
 20
588.129013
 30
0.0
 10
160.002355
 20
585.130402
 30
0.0
  0
SPLINE
  5
13c
100
AcDbEntity
  8
Layer_1
 62
7
100
AcDbSpline
 70
8
 71
3
 72
8
 73
4
 74
0
 40
0
 40
0
 40
0
 40
0
 40
1
 40
1
 40
1
 40
1
 10
147.602222
 20
585.130402
 30
0.0
 10
147.602222
 20
584.411582
 30
0.0
 10
147.015764
 20
583.833901
 30
0.0
 10
146.296944
 20
583.833958
 30
0.0
  0
SPLINE
  5
13d
100
AcDbEntity
  8
Layer_1
 62
7
100
AcDbSpline
 70
8
 71
3
 72
8
 73
4
 74
0
 40
0
 40
0
 40
0
 40
0
 40
1
 40
1
 40
1
 40
1
 10
146.296944
 20
583.833958
 30
0.0
 10
145.578124
 20
583.833958
 30
0.0
 10
145.000500
 20
584.411582
 30
0.0
 10
145.000500
 20
585.130402
 30
0.0
  0
LWPOLYLINE
  5
13e
100
AcDbEntity
  8
Layer_1
 62
7
100
AcDbPolyline
 90
2
 70
1
 10
157.391800
 20
585.130402
 30
0.0
 10
147.602222
 20
585.130402
 30
0.0
  0
SPLINE
  5
13f
100
AcDbEntity
  8
Layer_1
 62
7
100
AcDbSpline
 70
8
 71
3
 72
8
 73
4
 74
0
 40
0
 40
0
 40
0
 40
0
 40
1
 40
1
 40
1
 40
1
 10
145.000500
 20
588.129013
 30
0.0
 10
145.000500
 20
588.847833
 30
0.0
 10
145.578124
 20
589.434291
 30
0.0
 10
146.296944
 20
589.434291
 30
0.0
  0
LWPOLYLINE
  5
140
100
AcDbEntity
  8
Layer_1
 62
7
100
AcDbPolyline
 90
2
 70
1
 10
145.000500
 20
585.130402
 30
0.0
 10
145.000500
 20
588.129013
 30
0.0
  0
SPLINE
  5
141
100
AcDbEntity
  8
Layer_1
 62
7
100
AcDbSpline
 70
8
 71
3
 72
8
 73
4
 74
0
 40
0
 40
0
 40
0
 40
0
 40
1
 40
1
 40
1
 40
1
 10
176.300689
 20
589.434291
 30
0.0
 10
177.019509
 20
589.434291
 30
0.0
 10
177.605967
 20
588.847833
 30
0.0
 10
177.605967
 20
588.129013
 30
0.0
  0
LWPOLYLINE
  5
142
100
AcDbEntity
  8
Layer_1
 62
7
100
AcDbPolyline
 90
2
 70
1
 10
146.296944
 20
589.434291
 30
0.0
 10
146.296944
 20
589.434291
 30
0.0
  0
SPLINE
  5
143
100
AcDbEntity
  8
Layer_1
 62
7
100
AcDbSpline
 70
8
 71
3
 72
8
 73
4
 74
0
 40
0
 40
0
 40
0
 40
0
 40
1
 40
1
 40
1
 40
1
 10
187.395550
 20
588.129013
 30
0.0
 10
187.395550
 20
588.847833
 30
0.0
 10
187.982008
 20
589.434291
 30
0.0
 10
188.700828
 20
589.434291
 30
0.0
  0
SPLINE
  5
144
100
AcDbEntity
  8
Layer_1
 62
7
100
AcDbSpline
 70
8
 71
3
 72
8
 73
4
 74
0
 40
0
 40
0
 40
0
 40
0
 40
1
 40
1
 40
1
 40
1
 10
188.700828
 20
589.434291
 30
0.0
 10
189.419648
 20
589.434291
 30
0.0
 10
189.997300
 20
588.847833
 30
0.0
 10
189.997300
 20
588.129013
 30
0.0
  0
LWPOLYLINE
  5
145
100
AcDbEntity
  8
Layer_1
 62
7
100
AcDbPolyline
 90
2
 70
1
 10
177.605967
 20
588.129013
 30
0.0
 10
187.395550
 20
588.129013
 30
0.0
  0
SPLINE
  5
146
100
AcDbEntity
  8
Layer_1
 62
7
100
AcDbSpline
 70
8
 71
3
 72
8
 73
4
 74
0
 40
0
 40
0
 40
0
 40
0
 40
1
 40
1
 40
1
 40
1
 10
189.997300
 20
585.130402
 30
0.0
 10
189.997300
 20
584.411582
 30
0.0
 10
189.419648
 20
583.833901
 30
0.0
 10
188.700828
 20
583.833958
 30
0.0
  0
SPLINE
  5
147
100
AcDbEntity
  8
Layer_1
 62
7
100
AcDbSpline
 70
8
 71
3
 72
8
 73
4
 74
0
 40
0
 40
0
 40
0
 40
0
 40
1
 40
1
 40
1
 40
1
 10
188.700828
 20
583.833958
 30
0.0
 10
187.982008
 20
583.833958
 30
0.0
 10
187.395550
 20
584.411582
 30
0.0
 10
187.395550
 20
585.130402
 30
0.0
  0
LWPOLYLINE
  5
148
100
AcDbEntity
  8
Layer_1
 62
7
100
AcDbPolyline
 90
2
 70
1
 10
189.997300
 20
588.129013
 30
0.0
 10
189.997300
 20
585.130402
 30
0.0
  0
SPLINE
  5
149
100
AcDbEntity
  8
Layer_1
 62
7
100
AcDbSpline
 70
8
 71
3
 72
8
 73
4
 74
0
 40
0
 40
0
 40
0
 40
0
 40
1
 40
1
 40
1
 40
1
 10
177.605967
 20
585.130402
 30
0.0
 10
177.605967
 20
584.411582
 30
0.0
 10
177.019509
 20
583.833901
 30
0.0
 10
176.300689
 20
583.833958
 30
0.0
  0
SPLINE
  5
14a
100
AcDbEntity
  8
Layer_1
 62
7
100
AcDbSpline
 70
8
 71
3
 72
8
 73
4
 74
0
 40
0
 40
0
 40
0
 40
0
 40
1
 40
1
 40
1
 40
1
 10
176.300689
 20
583.833958
 30
0.0
 10
175.581869
 20
583.833958
 30
0.0
 10
174.995411
 20
584.411582
 30
0.0
 10
174.995411
 20
585.130402
 30
0.0
  0
LWPOLYLINE
  5
14b
100
AcDbEntity
  8
Layer_1
 62
7
100
AcDbPolyline
 90
2
 70
1
 10
187.395550
 20
585.130402
 30
0.0
 10
177.605967
 20
585.130402
 30
0.0
  0
SPLINE
  5
14c
100
AcDbEntity
  8
Layer_1
 62
7
100
AcDbSpline
 70
8
 71
3
 72
8
 73
4
 74
0
 40
0
 40
0
 40
0
 40
0
 40
1
 40
1
 40
1
 40
1
 10
174.995411
 20
588.129013
 30
0.0
 10
174.995411
 20
588.847833
 30
0.0
 10
175.581869
 20
589.434291
 30
0.0
 10
176.300689
 20
589.434291
 30
0.0
  0
LWPOLYLINE
  5
14d
100
AcDbEntity
  8
Layer_1
 62
7
100
AcDbPolyline
 90
2
 70
1
 10
174.995411
 20
585.130402
 30
0.0
 10
174.995411
 20
588.129013
 30
0.0
  0
SPLINE
  5
14e
100
AcDbEntity
  8
Layer_1
 62
7
100
AcDbSpline
 70
8
 71
3
 72
8
 73
4
 74
0
 40
0
 40
0
 40
0
 40
0
 40
1
 40
1
 40
1
 40
1
 10
27.287361
 20
578.824516
 30
0.0
 10
28.017611
 20
578.824516
 30
0.0
 10
28.610278
 20
578.240655
 30
0.0
 10
28.610278
 20
577.510405
 30
0.0
  0
SPLINE
  5
14f
100
AcDbEntity
  8
Layer_1
 62
7
100
AcDbSpline
 70
8
 71
3
 72
8
 73
4
 74
0
 40
0
 40
0
 40
0
 40
0
 40
1
 40
1
 40
1
 40
1
 10
28.610278
 20
577.510405
 30
0.0
 10
28.610278
 20
576.780155
 30
0.0
 10
28.017611
 20
576.187488
 30
0.0
 10
27.287361
 20
576.187488
 30
0.0
  0
SPLINE
  5
150
100
AcDbEntity
  8
Layer_1
 62
7
100
AcDbSpline
 70
8
 71
3
 72
8
 73
4
 74
0
 40
0
 40
0
 40
0
 40
0
 40
1
 40
1
 40
1
 40
1
 10
27.287361
 20
576.187488
 30
0.0
 10
26.557111
 20
576.187488
 30
0.0
 10
25.964444
 20
576.780155
 30
0.0
 10
25.964444
 20
577.510405
 30
0.0
  0
SPLINE
  5
151
100
AcDbEntity
  8
Layer_1
 62
7
100
AcDbSpline
 70
8
 71
3
 72
8
 73
4
 74
0
 40
0
 40
0
 40
0
 40
0
 40
1
 40
1
 40
1
 40
1
 10
25.964444
 20
577.510405
 30
0.0
 10
25.964444
 20
578.240655
 30
0.0
 10
26.557111
 20
578.824516
 30
0.0
 10
27.287361
 20
578.824516
 30
0.0
  0
LWPOLYLINE
  5
152
100
AcDbEntity
  8
Layer_1
 62
7
100
AcDbPolyline
 90
2
 70
1
 10
176.300689
 20
589.434291
 30
0.0
 10
176.300689
 20
589.434291
 30
0.0
  0
SPLINE
  5
153
100
AcDbEntity
  8
Layer_1
 62
7
100
AcDbSpline
 70
8
 71
3
 72
8
 73
4
 74
0
 40
0
 40
0
 40
0
 40
0
 40
1
 40
1
 40
1
 40
1
 10
191.073272
 20
578.824516
 30
0.0
 10
191.803531
 20
578.824516
 30
0.0
 10
192.396197
 20
578.240655
 30
0.0
 10
192.396197
 20
577.510405
 30
0.0
  0
SPLINE
  5
154
100
AcDbEntity
  8
Layer_1
 62
7
100
AcDbSpline
 70
8
 71
3
 72
8
 73
4
 74
0
 40
0
 40
0
 40
0
 40
0
 40
1
 40
1
 40
1
 40
1
 10
192.396197
 20
577.510405
 30
0.0
 10
192.396197
 20
576.780155
 30
0.0
 10
191.803531
 20
576.187488
 30
0.0
 10
191.073272
 20
576.187488
 30
0.0
  0
SPLINE
  5
155
100
AcDbEntity
  8
Layer_1
 62
7
100
AcDbSpline
 70
8
 71
3
 72
8
 73
4
 74
0
 40
0
 40
0
 40
0
 40
0
 40
1
 40
1
 40
1
 40
1
 10
191.073272
 20
576.187488
 30
0.0
 10
190.343022
 20
576.187488
 30
0.0
 10
189.750356
 20
576.780155
 30
0.0
 10
189.750356
 20
577.510405
 30
0.0
  0
SPLINE
  5
156
100
AcDbEntity
  8
Layer_1
 62
7
100
AcDbSpline
 70
8
 71
3
 72
8
 73
4
 74
0
 40
0
 40
0
 40
0
 40
0
 40
1
 40
1
 40
1
 40
1
 10
189.750356
 20
577.510405
 30
0.0
 10
189.750356
 20
578.240655
 30
0.0
 10
190.343022
 20
578.824516
 30
0.0
 10
191.073272
 20
578.824516
 30
0.0
  0
LWPOLYLINE
  5
157
100
AcDbEntity
  8
Layer_1
 62
7
100
AcDbPolyline
 90
2
 70
1
 10
27.287361
 20
578.824516
 30
0.0
 10
27.287361
 20
578.824516
 30
0.0
  0
LWPOLYLINE
  5
158
100
AcDbEntity
  8
Layer_1
 62
7
100
AcDbPolyline
 90
2
 70
1
 10
191.073272
 20
578.824516
 30
0.0
 10
191.073272
 20
578.824516
 30
0.0
  0
SPLINE
  5
159
100
AcDbEntity
  8
Layer_1
 62
7
100
AcDbSpline
 70
8
 71
3
 72
8
 73
4
 74
0
 40
0
 40
0
 40
0
 40
0
 40
1
 40
1
 40
1
 40
1
 10
20.002500
 20
575.129155
 30
0.0
 10
20.721320
 20
575.129155
 30
0.0
 10
21.298972
 20
574.551615
 30
0.0
 10
21.298972
 20
573.832682
 30
0.0
  0
SPLINE
  5
15a
100
AcDbEntity
  8
Layer_1
 62
7
100
AcDbSpline
 70
8
 71
3
 72
8
 73
4
 74
0
 40
0
 40
0
 40
0
 40
0
 40
1
 40
1
 40
1
 40
1
 10
21.298972
 20
573.832682
 30
0.0
 10
21.298972
 20
573.114088
 30
0.0
 10
20.721320
 20
572.527405
 30
0.0
 10
20.002500
 20
572.527405
 30
0.0
  0
LWPOLYLINE
  5
15b
100
AcDbEntity
  8
Layer_1
 62
7
100
AcDbPolyline
 90
2
 70
1
 10
16.995084
 20
575.129155
 30
0.0
 10
20.002500
 20
575.129155
 30
0.0
  0
SPLINE
  5
15c
100
AcDbEntity
  8
Layer_1
 62
7
100
AcDbSpline
 70
8
 71
3
 72
8
 73
4
 74
0
 40
0
 40
0
 40
0
 40
0
 40
1
 40
1
 40
1
 40
1
 10
20.002500
 20
562.737849
 30
0.0
 10
20.721320
 20
562.737849
 30
0.0
 10
21.298972
 20
562.151279
 30
0.0
 10
21.298972
 20
561.432572
 30
0.0
  0
SPLINE
  5
15d
100
AcDbEntity
  8
Layer_1
 62
7
100
AcDbSpline
 70
8
 71
3
 72
8
 73
4
 74
0
 40
0
 40
0
 40
0
 40
0
 40
1
 40
1
 40
1
 40
1
 10
21.298972
 20
561.432572
 30
0.0
 10
21.298972
 20
560.713554
 30
0.0
 10
20.721320
 20
560.127237
 30
0.0
 10
20.002500
 20
560.127294
 30
0.0
  0
LWPOLYLINE
  5
15e
100
AcDbEntity
  8
Layer_1
 62
7
100
AcDbPolyline
 90
2
 70
1
 10
20.002500
 20
572.527405
 30
0.0
 10
20.002500
 20
562.737849
 30
0.0
  0
SPLINE
  5
15f
100
AcDbEntity
  8
Layer_1
 62
7
100
AcDbSpline
 70
8
 71
3
 72
8
 73
4
 74
0
 40
0
 40
0
 40
0
 40
0
 40
1
 40
1
 40
1
 40
1
 10
16.995084
 20
560.127294
 30
0.0
 10
16.276264
 20
560.127294
 30
0.0
 10
15.698611
 20
560.713639
 30
0.0
 10
15.698611
 20
561.432572
 30
0.0
  0
SPLINE
  5
160
100
AcDbEntity
  8
Layer_1
 62
7
100
AcDbSpline
 70
8
 71
3
 72
8
 73
4
 74
0
 40
0
 40
0
 40
0
 40
0
 40
1
 40
1
 40
1
 40
1
 10
15.698611
 20
561.432572
 30
0.0
 10
15.698611
 20
562.151166
 30
0.0
 10
16.276264
 20
562.737793
 30
0.0
 10
16.995084
 20
562.737849
 30
0.0
  0
LWPOLYLINE
  5
161
100
AcDbEntity
  8
Layer_1
 62
7
100
AcDbPolyline
 90
2
 70
1
 10
20.002500
 20
560.127294
 30
0.0
 10
16.995084
 20
560.127294
 30
0.0
  0
SPLINE
  5
162
100
AcDbEntity
  8
Layer_1
 62
7
100
AcDbSpline
 70
8
 71
3
 72
8
 73
4
 74
0
 40
0
 40
0
 40
0
 40
0
 40
1
 40
1
 40
1
 40
1
 10
16.995084
 20
572.527405
 30
0.0
 10
16.276264
 20
572.527405
 30
0.0
 10
15.698611
 20
573.113975
 30
0.0
 10
15.698611
 20
573.832682
 30
0.0
  0
SPLINE
  5
163
100
AcDbEntity
  8
Layer_1
 62
7
100
AcDbSpline
 70
8
 71
3
 72
8
 73
4
 74
0
 40
0
 40
0
 40
0
 40
0
 40
1
 40
1
 40
1
 40
1
 10
15.698611
 20
573.832682
 30
0.0
 10
15.698611
 20
574.551700
 30
0.0
 10
16.276264
 20
575.129155
 30
0.0
 10
16.995084
 20
575.129155
 30
0.0
  0
LWPOLYLINE
  5
164
100
AcDbEntity
  8
Layer_1
 62
7
100
AcDbPolyline
 90
2
 70
1
 10
16.995084
 20
562.737849
 30
0.0
 10
16.995084
 20
572.527405
 30
0.0
  0
LWPOLYLINE
  5
165
100
AcDbEntity
  8
Layer_1
 62
7
100
AcDbPolyline
 90
2
 70
1
 10
16.995084
 20
575.129155
 30
0.0
 10
16.995084
 20
575.129155
 30
0.0
  0
SPLINE
  5
166
100
AcDbEntity
  8
Layer_1
 62
7
100
AcDbSpline
 70
8
 71
3
 72
8
 73
4
 74
0
 40
0
 40
0
 40
0
 40
0
 40
1
 40
1
 40
1
 40
1
 10
202.997170
 20
575.129155
 30
0.0
 10
203.715990
 20
575.129155
 30
0.0
 10
204.302447
 20
574.551615
 30
0.0
 10
204.302447
 20
573.832682
 30
0.0
  0
SPLINE
  5
167
100
AcDbEntity
  8
Layer_1
 62
7
100
AcDbSpline
 70
8
 71
3
 72
8
 73
4
 74
0
 40
0
 40
0
 40
0
 40
0
 40
1
 40
1
 40
1
 40
1
 10
204.302447
 20
573.832682
 30
0.0
 10
204.302447
 20
573.114540
 30
0.0
 10
203.715990
 20
572.527405
 30
0.0
 10
202.997170
 20
572.527405
 30
0.0
  0
LWPOLYLINE
  5
168
100
AcDbEntity
  8
Layer_1
 62
7
100
AcDbPolyline
 90
2
 70
1
 10
199.998559
 20
575.129155
 30
0.0
 10
202.997170
 20
575.129155
 30
0.0
  0
SPLINE
  5
169
100
AcDbEntity
  8
Layer_1
 62
7
100
AcDbSpline
 70
8
 71
3
 72
8
 73
4
 74
0
 40
0
 40
0
 40
0
 40
0
 40
1
 40
1
 40
1
 40
1
 10
202.997170
 20
562.737849
 30
0.0
 10
203.715990
 20
562.737849
 30
0.0
 10
204.302447
 20
562.151279
 30
0.0
 10
204.302447
 20
561.432572
 30
0.0
  0
SPLINE
  5
16a
100
AcDbEntity
  8
Layer_1
 62
7
100
AcDbSpline
 70
8
 71
3
 72
8
 73
4
 74
0
 40
0
 40
0
 40
0
 40
0
 40
1
 40
1
 40
1
 40
1
 10
204.302447
 20
561.432572
 30
0.0
 10
204.302447
 20
560.713103
 30
0.0
 10
203.715990
 20
560.127237
 30
0.0
 10
202.997170
 20
560.127294
 30
0.0
  0
LWPOLYLINE
  5
16b
100
AcDbEntity
  8
Layer_1
 62
7
100
AcDbPolyline
 90
2
 70
1
 10
202.997170
 20
572.527405
 30
0.0
 10
202.997170
 20
562.737849
 30
0.0
  0
SPLINE
  5
16c
100
AcDbEntity
  8
Layer_1
 62
7
100
AcDbSpline
 70
8
 71
3
 72
8
 73
4
 74
0
 40
0
 40
0
 40
0
 40
0
 40
1
 40
1
 40
1
 40
1
 10
199.998559
 20
560.127294
 30
0.0
 10
199.279739
 20
560.127294
 30
0.0
 10
198.693281
 20
560.713639
 30
0.0
 10
198.693281
 20
561.432572
 30
0.0
  0
SPLINE
  5
16d
100
AcDbEntity
  8
Layer_1
 62
7
100
AcDbSpline
 70
8
 71
3
 72
8
 73
4
 74
0
 40
0
 40
0
 40
0
 40
0
 40
1
 40
1
 40
1
 40
1
 10
198.693281
 20
561.432572
 30
0.0
 10
198.693281
 20
562.150714
 30
0.0
 10
199.279739
 20
562.737793
 30
0.0
 10
199.998559
 20
562.737849
 30
0.0
  0
LWPOLYLINE
  5
16e
100
AcDbEntity
  8
Layer_1
 62
7
100
AcDbPolyline
 90
2
 70
1
 10
202.997170
 20
560.127294
 30
0.0
 10
199.998559
 20
560.127294
 30
0.0
  0
SPLINE
  5
16f
100
AcDbEntity
  8
Layer_1
 62
7
100
AcDbSpline
 70
8
 71
3
 72
8
 73
4
 74
0
 40
0
 40
0
 40
0
 40
0
 40
1
 40
1
 40
1
 40
1
 10
199.998559
 20
572.527405
 30
0.0
 10
199.279739
 20
572.527405
 30
0.0
 10
198.693281
 20
573.113975
 30
0.0
 10
198.693281
 20
573.832682
 30
0.0
  0
SPLINE
  5
170
100
AcDbEntity
  8
Layer_1
 62
7
100
AcDbSpline
 70
8
 71
3
 72
8
 73
4
 74
0
 40
0
 40
0
 40
0
 40
0
 40
1
 40
1
 40
1
 40
1
 10
198.693281
 20
573.832682
 30
0.0
 10
198.693281
 20
574.552151
 30
0.0
 10
199.279739
 20
575.129155
 30
0.0
 10
199.998559
 20
575.129155
 30
0.0
  0
LWPOLYLINE
  5
171
100
AcDbEntity
  8
Layer_1
 62
7
100
AcDbPolyline
 90
2
 70
1
 10
199.998559
 20
562.737849
 30
0.0
 10
199.998559
 20
572.527405
 30
0.0
  0
LWPOLYLINE
  5
172
100
AcDbEntity
  8
Layer_1
 62
7
100
AcDbPolyline
 90
2
 70
1
 10
199.998559
 20
575.129155
 30
0.0
 10
199.998559
 20
575.129155
 30
0.0
  0
LWPOLYLINE
  5
173
100
AcDbEntity
  8
Layer_1
 62
7
100
AcDbPolyline
 90
6
 70
1
 10
42.024667
 20
569.564071
 30
0.0
 10
176.688744
 20
569.564071
 30
0.0
 10
176.688744
 20
480.893408
 30
0.0
 10
42.024667
 20
480.893408
 30
0.0
 10
42.024667
 20
569.564071
 30
0.0
 10
42.024667
 20
569.564071
 30
0.0
  0
SPLINE
  5
174
100
AcDbEntity
  8
Layer_1
 62
7
100
AcDbSpline
 70
8
 71
3
 72
8
 73
4
 74
0
 40
0
 40
0
 40
0
 40
0
 40
1
 40
1
 40
1
 40
1
 10
20.002500
 20
545.134241
 30
0.0
 10
20.721320
 20
545.134241
 30
0.0
 10
21.298972
 20
544.547671
 30
0.0
 10
21.298972
 20
543.828963
 30
0.0
  0
SPLINE
  5
175
100
AcDbEntity
  8
Layer_1
 62
7
100
AcDbSpline
 70
8
 71
3
 72
8
 73
4
 74
0
 40
0
 40
0
 40
0
 40
0
 40
1
 40
1
 40
1
 40
1
 10
21.298972
 20
543.828963
 30
0.0
 10
21.298972
 20
543.109974
 30
0.0
 10
20.721320
 20
542.532488
 30
0.0
 10
20.002500
 20
542.532488
 30
0.0
  0
LWPOLYLINE
  5
176
100
AcDbEntity
  8
Layer_1
 62
7
100
AcDbPolyline
 90
2
 70
1
 10
16.995084
 20
545.134241
 30
0.0
 10
20.002500
 20
545.134241
 30
0.0
  0
SPLINE
  5
177
100
AcDbEntity
  8
Layer_1
 62
7
100
AcDbSpline
 70
8
 71
3
 72
8
 73
4
 74
0
 40
0
 40
0
 40
0
 40
0
 40
1
 40
1
 40
1
 40
1
 10
20.002500
 20
532.734074
 30
0.0
 10
20.721320
 20
532.734074
 30
0.0
 10
21.298972
 20
532.147729
 30
0.0
 10
21.298972
 20
531.428796
 30
0.0
  0
SPLINE
  5
178
100
AcDbEntity
  8
Layer_1
 62
7
100
AcDbSpline
 70
8
 71
3
 72
8
 73
4
 74
0
 40
0
 40
0
 40
0
 40
0
 40
1
 40
1
 40
1
 40
1
 10
21.298972
 20
531.428796
 30
0.0
 10
21.298972
 20
530.710174
 30
0.0
 10
20.721320
 20
530.132352
 30
0.0
 10
20.002500
 20
530.132352
 30
0.0
  0
LWPOLYLINE
  5
179
100
AcDbEntity
  8
Layer_1
 62
7
100
AcDbPolyline
 90
2
 70
1
 10
20.002500
 20
542.532488
 30
0.0
 10
20.002500
 20
532.734074
 30
0.0
  0
SPLINE
  5
17a
100
AcDbEntity
  8
Layer_1
 62
7
100
AcDbSpline
 70
8
 71
3
 72
8
 73
4
 74
0
 40
0
 40
0
 40
0
 40
0
 40
1
 40
1
 40
1
 40
1
 10
16.995084
 20
530.132352
 30
0.0
 10
16.276264
 20
530.132352
 30
0.0
 10
15.698611
 20
530.710089
 30
0.0
 10
15.698611
 20
531.428796
 30
0.0
  0
SPLINE
  5
17b
100
AcDbEntity
  8
Layer_1
 62
7
100
AcDbSpline
 70
8
 71
3
 72
8
 73
4
 74
0
 40
0
 40
0
 40
0
 40
0
 40
1
 40
1
 40
1
 40
1
 10
15.698611
 20
531.428796
 30
0.0
 10
15.698611
 20
532.147786
 30
0.0
 10
16.276264
 20
532.734131
 30
0.0
 10
16.995084
 20
532.734074
 30
0.0
  0
LWPOLYLINE
  5
17c
100
AcDbEntity
  8
Layer_1
 62
7
100
AcDbPolyline
 90
2
 70
1
 10
20.002500
 20
530.132352
 30
0.0
 10
16.995084
 20
530.132352
 30
0.0
  0
SPLINE
  5
17d
100
AcDbEntity
  8
Layer_1
 62
7
100
AcDbSpline
 70
8
 71
3
 72
8
 73
4
 74
0
 40
0
 40
0
 40
0
 40
0
 40
1
 40
1
 40
1
 40
1
 10
16.995084
 20
542.532488
 30
0.0
 10
16.276264
 20
542.532488
 30
0.0
 10
15.698611
 20
543.110031
 30
0.0
 10
15.698611
 20
543.828963
 30
0.0
  0
SPLINE
  5
17e
100
AcDbEntity
  8
Layer_1
 62
7
100
AcDbSpline
 70
8
 71
3
 72
8
 73
4
 74
0
 40
0
 40
0
 40
0
 40
0
 40
1
 40
1
 40
1
 40
1
 10
15.698611
 20
543.828963
 30
0.0
 10
15.698611
 20
544.547586
 30
0.0
 10
16.276264
 20
545.134185
 30
0.0
 10
16.995084
 20
545.134241
 30
0.0
  0
LWPOLYLINE
  5
17f
100
AcDbEntity
  8
Layer_1
 62
7
100
AcDbPolyline
 90
2
 70
1
 10
16.995084
 20
532.734074
 30
0.0
 10
16.995084
 20
542.532488
 30
0.0
  0
LWPOLYLINE
  5
180
100
AcDbEntity
  8
Layer_1
 62
7
100
AcDbPolyline
 90
2
 70
1
 10
16.995084
 20
545.134241
 30
0.0
 10
16.995084
 20
545.134241
 30
0.0
  0
SPLINE
  5
181
100
AcDbEntity
  8
Layer_1
 62
7
100
AcDbSpline
 70
8
 71
3
 72
8
 73
4
 74
0
 40
0
 40
0
 40
0
 40
0
 40
1
 40
1
 40
1
 40
1
 10
202.997170
 20
545.134241
 30
0.0
 10
203.715990
 20
545.134241
 30
0.0
 10
204.302447
 20
544.547671
 30
0.0
 10
204.302447
 20
543.828963
 30
0.0
  0
SPLINE
  5
182
100
AcDbEntity
  8
Layer_1
 62
7
100
AcDbSpline
 70
8
 71
3
 72
8
 73
4
 74
0
 40
0
 40
0
 40
0
 40
0
 40
1
 40
1
 40
1
 40
1
 10
204.302447
 20
543.828963
 30
0.0
 10
204.302447
 20
543.109523
 30
0.0
 10
203.715990
 20
542.532488
 30
0.0
 10
202.997170
 20
542.532488
 30
0.0
  0
LWPOLYLINE
  5
183
100
AcDbEntity
  8
Layer_1
 62
7
100
AcDbPolyline
 90
2
 70
1
 10
199.998559
 20
545.134241
 30
0.0
 10
202.997170
 20
545.134241
 30
0.0
  0
SPLINE
  5
184
100
AcDbEntity
  8
Layer_1
 62
7
100
AcDbSpline
 70
8
 71
3
 72
8
 73
4
 74
0
 40
0
 40
0
 40
0
 40
0
 40
1
 40
1
 40
1
 40
1
 10
202.997170
 20
532.734074
 30
0.0
 10
203.715990
 20
532.734074
 30
0.0
 10
204.302447
 20
532.147729
 30
0.0
 10
204.302447
 20
531.428796
 30
0.0
  0
SPLINE
  5
185
100
AcDbEntity
  8
Layer_1
 62
7
100
AcDbSpline
 70
8
 71
3
 72
8
 73
4
 74
0
 40
0
 40
0
 40
0
 40
0
 40
1
 40
1
 40
1
 40
1
 10
204.302447
 20
531.428796
 30
0.0
 10
204.302447
 20
530.710625
 30
0.0
 10
203.715990
 20
530.132352
 30
0.0
 10
202.997170
 20
530.132352
 30
0.0
  0
LWPOLYLINE
  5
186
100
AcDbEntity
  8
Layer_1
 62
7
100
AcDbPolyline
 90
2
 70
1
 10
202.997170
 20
542.532488
 30
0.0
 10
202.997170
 20
532.734074
 30
0.0
  0
SPLINE
  5
187
100
AcDbEntity
  8
Layer_1
 62
7
100
AcDbSpline
 70
8
 71
3
 72
8
 73
4
 74
0
 40
0
 40
0
 40
0
 40
0
 40
1
 40
1
 40
1
 40
1
 10
199.998559
 20
530.132352
 30
0.0
 10
199.279739
 20
530.132352
 30
0.0
 10
198.693281
 20
530.710089
 30
0.0
 10
198.693281
 20
531.428796
 30
0.0
  0
SPLINE
  5
188
100
AcDbEntity
  8
Layer_1
 62
7
100
AcDbSpline
 70
8
 71
3
 72
8
 73
4
 74
0
 40
0
 40
0
 40
0
 40
0
 40
1
 40
1
 40
1
 40
1
 10
198.693281
 20
531.428796
 30
0.0
 10
198.693281
 20
532.148237
 30
0.0
 10
199.279739
 20
532.734131
 30
0.0
 10
199.998559
 20
532.734074
 30
0.0
  0
LWPOLYLINE
  5
189
100
AcDbEntity
  8
Layer_1
 62
7
100
AcDbPolyline
 90
2
 70
1
 10
202.997170
 20
530.132352
 30
0.0
 10
199.998559
 20
530.132352
 30
0.0
  0
SPLINE
  5
18a
100
AcDbEntity
  8
Layer_1
 62
7
100
AcDbSpline
 70
8
 71
3
 72
8
 73
4
 74
0
 40
0
 40
0
 40
0
 40
0
 40
1
 40
1
 40
1
 40
1
 10
199.998559
 20
542.532488
 30
0.0
 10
199.279739
 20
542.532488
 30
0.0
 10
198.693281
 20
543.110031
 30
0.0
 10
198.693281
 20
543.828963
 30
0.0
  0
SPLINE
  5
18b
100
AcDbEntity
  8
Layer_1
 62
7
100
AcDbSpline
 70
8
 71
3
 72
8
 73
4
 74
0
 40
0
 40
0
 40
0
 40
0
 40
1
 40
1
 40
1
 40
1
 10
198.693281
 20
543.828963
 30
0.0
 10
198.693281
 20
544.547134
 30
0.0
 10
199.279739
 20
545.134185
 30
0.0
 10
199.998559
 20
545.134241
 30
0.0
  0
LWPOLYLINE
  5
18c
100
AcDbEntity
  8
Layer_1
 62
7
100
AcDbPolyline
 90
2
 70
1
 10
199.998559
 20
532.734074
 30
0.0
 10
199.998559
 20
542.532488
 30
0.0
  0
LWPOLYLINE
  5
18d
100
AcDbEntity
  8
Layer_1
 62
7
100
AcDbPolyline
 90
2
 70
1
 10
199.998559
 20
545.134241
 30
0.0
 10
199.998559
 20
545.134241
 30
0.0
  0
SPLINE
  5
18e
100
AcDbEntity
  8
Layer_1
 62
7
100
AcDbSpline
 70
8
 71
3
 72
8
 73
4
 74
0
 40
0
 40
0
 40
0
 40
0
 40
1
 40
1
 40
1
 40
1
 10
20.002500
 20
520.131102
 30
0.0
 10
20.721320
 20
520.131102
 30
0.0
 10
21.298972
 20
519.544644
 30
0.0
 10
21.298972
 20
518.825824
 30
0.0
  0
SPLINE
  5
18f
100
AcDbEntity
  8
Layer_1
 62
7
100
AcDbSpline
 70
8
 71
3
 72
8
 73
4
 74
0
 40
0
 40
0
 40
0
 40
0
 40
1
 40
1
 40
1
 40
1
 10
21.298972
 20
518.825824
 30
0.0
 10
21.298972
 20
518.107004
 30
0.0
 10
20.721320
 20
517.529408
 30
0.0
 10
20.002500
 20
517.529352
 30
0.0
  0
LWPOLYLINE
  5
190
100
AcDbEntity
  8
Layer_1
 62
7
100
AcDbPolyline
 90
2
 70
1
 10
16.995084
 20
520.131102
 30
0.0
 10
20.002500
 20
520.131102
 30
0.0
  0
SPLINE
  5
191
100
AcDbEntity
  8
Layer_1
 62
7
100
AcDbSpline
 70
8
 71
3
 72
8
 73
4
 74
0
 40
0
 40
0
 40
0
 40
0
 40
1
 40
1
 40
1
 40
1
 10
20.002500
 20
507.730963
 30
0.0
 10
20.721320
 20
507.730963
 30
0.0
 10
21.298972
 20
507.153226
 30
0.0
 10
21.298972
 20
506.434519
 30
0.0
  0
SPLINE
  5
192
100
AcDbEntity
  8
Layer_1
 62
7
100
AcDbSpline
 70
8
 71
3
 72
8
 73
4
 74
0
 40
0
 40
0
 40
0
 40
0
 40
1
 40
1
 40
1
 40
1
 10
21.298972
 20
506.434519
 30
0.0
 10
21.298972
 20
505.715473
 30
0.0
 10
20.721320
 20
505.129241
 30
0.0
 10
20.002500
 20
505.129241
 30
0.0
  0
LWPOLYLINE
  5
193
100
AcDbEntity
  8
Layer_1
 62
7
100
AcDbPolyline
 90
2
 70
1
 10
20.002500
 20
517.529352
 30
0.0
 10
20.002500
 20
507.730963
 30
0.0
  0
SPLINE
  5
194
100
AcDbEntity
  8
Layer_1
 62
7
100
AcDbSpline
 70
8
 71
3
 72
8
 73
4
 74
0
 40
0
 40
0
 40
0
 40
0
 40
1
 40
1
 40
1
 40
1
 10
16.995084
 20
505.129241
 30
0.0
 10
16.276264
 20
505.129241
 30
0.0
 10
15.698611
 20
505.715586
 30
0.0
 10
15.698611
 20
506.434519
 30
0.0
  0
SPLINE
  5
195
100
AcDbEntity
  8
Layer_1
 62
7
100
AcDbSpline
 70
8
 71
3
 72
8
 73
4
 74
0
 40
0
 40
0
 40
0
 40
0
 40
1
 40
1
 40
1
 40
1
 10
15.698611
 20
506.434519
 30
0.0
 10
15.698611
 20
507.153085
 30
0.0
 10
16.276264
 20
507.730963
 30
0.0
 10
16.995084
 20
507.730963
 30
0.0
  0
LWPOLYLINE
  5
196
100
AcDbEntity
  8
Layer_1
 62
7
100
AcDbPolyline
 90
2
 70
1
 10
20.002500
 20
505.129241
 30
0.0
 10
16.995084
 20
505.129241
 30
0.0
  0
SPLINE
  5
197
100
AcDbEntity
  8
Layer_1
 62
7
100
AcDbSpline
 70
8
 71
3
 72
8
 73
4
 74
0
 40
0
 40
0
 40
0
 40
0
 40
1
 40
1
 40
1
 40
1
 10
16.995084
 20
517.529352
 30
0.0
 10
16.276264
 20
517.529352
 30
0.0
 10
15.698611
 20
518.107004
 30
0.0
 10
15.698611
 20
518.825824
 30
0.0
  0
SPLINE
  5
198
100
AcDbEntity
  8
Layer_1
 62
7
100
AcDbSpline
 70
8
 71
3
 72
8
 73
4
 74
0
 40
0
 40
0
 40
0
 40
0
 40
1
 40
1
 40
1
 40
1
 10
15.698611
 20
518.825824
 30
0.0
 10
15.698611
 20
519.544644
 30
0.0
 10
16.276264
 20
520.131102
 30
0.0
 10
16.995084
 20
520.131102
 30
0.0
  0
LWPOLYLINE
  5
199
100
AcDbEntity
  8
Layer_1
 62
7
100
AcDbPolyline
 90
2
 70
1
 10
16.995084
 20
507.730963
 30
0.0
 10
16.995084
 20
517.529352
 30
0.0
  0
LWPOLYLINE
  5
19a
100
AcDbEntity
  8
Layer_1
 62
7
100
AcDbPolyline
 90
2
 70
1
 10
16.995084
 20
520.131102
 30
0.0
 10
16.995084
 20
520.131102
 30
0.0
  0
SPLINE
  5
19b
100
AcDbEntity
  8
Layer_1
 62
7
100
AcDbSpline
 70
8
 71
3
 72
8
 73
4
 74
0
 40
0
 40
0
 40
0
 40
0
 40
1
 40
1
 40
1
 40
1
 10
202.997170
 20
520.131102
 30
0.0
 10
203.715990
 20
520.131102
 30
0.0
 10
204.302447
 20
519.544644
 30
0.0
 10
204.302447
 20
518.825824
 30
0.0
  0
SPLINE
  5
19c
100
AcDbEntity
  8
Layer_1
 62
7
100
AcDbSpline
 70
8
 71
3
 72
8
 73
4
 74
0
 40
0
 40
0
 40
0
 40
0
 40
1
 40
1
 40
1
 40
1
 10
204.302447
 20
518.825824
 30
0.0
 10
204.302447
 20
518.107004
 30
0.0
 10
203.715990
 20
517.529408
 30
0.0
 10
202.997170
 20
517.529352
 30
0.0
  0
LWPOLYLINE
  5
19d
100
AcDbEntity
  8
Layer_1
 62
7
100
AcDbPolyline
 90
2
 70
1
 10
199.998559
 20
520.131102
 30
0.0
 10
202.997170
 20
520.131102
 30
0.0
  0
SPLINE
  5
19e
100
AcDbEntity
  8
Layer_1
 62
7
100
AcDbSpline
 70
8
 71
3
 72
8
 73
4
 74
0
 40
0
 40
0
 40
0
 40
0
 40
1
 40
1
 40
1
 40
1
 10
202.997170
 20
507.730963
 30
0.0
 10
203.715990
 20
507.730963
 30
0.0
 10
204.302447
 20
507.153226
 30
0.0
 10
204.302447
 20
506.434519
 30
0.0
  0
SPLINE
  5
19f
100
AcDbEntity
  8
Layer_1
 62
7
100
AcDbSpline
 70
8
 71
3
 72
8
 73
4
 74
0
 40
0
 40
0
 40
0
 40
0
 40
1
 40
1
 40
1
 40
1
 10
204.302447
 20
506.434519
 30
0.0
 10
204.302447
 20
505.715022
 30
0.0
 10
203.715990
 20
505.129241
 30
0.0
 10
202.997170
 20
505.129241
 30
0.0
  0
LWPOLYLINE
  5
1a0
100
AcDbEntity
  8
Layer_1
 62
7
100
AcDbPolyline
 90
2
 70
1
 10
202.997170
 20
517.529352
 30
0.0
 10
202.997170
 20
507.730963
 30
0.0
  0
SPLINE
  5
1a1
100
AcDbEntity
  8
Layer_1
 62
7
100
AcDbSpline
 70
8
 71
3
 72
8
 73
4
 74
0
 40
0
 40
0
 40
0
 40
0
 40
1
 40
1
 40
1
 40
1
 10
199.998559
 20
505.129241
 30
0.0
 10
199.279739
 20
505.129241
 30
0.0
 10
198.693281
 20
505.715586
 30
0.0
 10
198.693281
 20
506.434519
 30
0.0
  0
SPLINE
  5
1a2
100
AcDbEntity
  8
Layer_1
 62
7
100
AcDbSpline
 70
8
 71
3
 72
8
 73
4
 74
0
 40
0
 40
0
 40
0
 40
0
 40
1
 40
1
 40
1
 40
1
 10
198.693281
 20
506.434519
 30
0.0
 10
198.693281
 20
507.152633
 30
0.0
 10
199.279739
 20
507.730963
 30
0.0
 10
199.998559
 20
507.730963
 30
0.0
  0
LWPOLYLINE
  5
1a3
100
AcDbEntity
  8
Layer_1
 62
7
100
AcDbPolyline
 90
2
 70
1
 10
202.997170
 20
505.129241
 30
0.0
 10
199.998559
 20
505.129241
 30
0.0
  0
SPLINE
  5
1a4
100
AcDbEntity
  8
Layer_1
 62
7
100
AcDbSpline
 70
8
 71
3
 72
8
 73
4
 74
0
 40
0
 40
0
 40
0
 40
0
 40
1
 40
1
 40
1
 40
1
 10
199.998559
 20
517.529352
 30
0.0
 10
199.279739
 20
517.529352
 30
0.0
 10
198.693281
 20
518.107004
 30
0.0
 10
198.693281
 20
518.825824
 30
0.0
  0
SPLINE
  5
1a5
100
AcDbEntity
  8
Layer_1
 62
7
100
AcDbSpline
 70
8
 71
3
 72
8
 73
4
 74
0
 40
0
 40
0
 40
0
 40
0
 40
1
 40
1
 40
1
 40
1
 10
198.693281
 20
518.825824
 30
0.0
 10
198.693281
 20
519.544644
 30
0.0
 10
199.279739
 20
520.131102
 30
0.0
 10
199.998559
 20
520.131102
 30
0.0
  0
LWPOLYLINE
  5
1a6
100
AcDbEntity
  8
Layer_1
 62
7
100
AcDbPolyline
 90
2
 70
1
 10
199.998559
 20
507.730963
 30
0.0
 10
199.998559
 20
517.529352
 30
0.0
  0
LWPOLYLINE
  5
1a7
100
AcDbEntity
  8
Layer_1
 62
7
100
AcDbPolyline
 90
2
 70
1
 10
199.998559
 20
520.131102
 30
0.0
 10
199.998559
 20
520.131102
 30
0.0
  0
SPLINE
  5
1a8
100
AcDbEntity
  8
Layer_1
 62
7
100
AcDbSpline
 70
8
 71
3
 72
8
 73
4
 74
0
 40
0
 40
0
 40
0
 40
0
 40
1
 40
1
 40
1
 40
1
 10
20.002500
 20
490.127352
 30
0.0
 10
20.721320
 20
490.127352
 30
0.0
 10
21.298972
 20
489.549671
 30
0.0
 10
21.298972
 20
488.830908
 30
0.0
  0
SPLINE
  5
1a9
100
AcDbEntity
  8
Layer_1
 62
7
100
AcDbSpline
 70
8
 71
3
 72
8
 73
4
 74
0
 40
0
 40
0
 40
0
 40
0
 40
1
 40
1
 40
1
 40
1
 10
21.298972
 20
488.830908
 30
0.0
 10
21.298972
 20
488.111834
 30
0.0
 10
20.721320
 20
487.525489
 30
0.0
 10
20.002500
 20
487.525630
 30
0.0
  0
LWPOLYLINE
  5
1aa
100
AcDbEntity
  8
Layer_1
 62
7
100
AcDbPolyline
 90
2
 70
1
 10
16.995084
 20
490.127352
 30
0.0
 10
20.002500
 20
490.127352
 30
0.0
  0
SPLINE
  5
1ab
100
AcDbEntity
  8
Layer_1
 62
7
100
AcDbSpline
 70
8
 71
3
 72
8
 73
4
 74
0
 40
0
 40
0
 40
0
 40
0
 40
1
 40
1
 40
1
 40
1
 10
20.002500
 20
477.736019
 30
0.0
 10
20.721320
 20
477.736019
 30
0.0
 10
21.298972
 20
477.149815
 30
0.0
 10
21.298972
 20
476.430741
 30
0.0
  0
SPLINE
  5
1ac
100
AcDbEntity
  8
Layer_1
 62
7
100
AcDbSpline
 70
8
 71
3
 72
8
 73
4
 74
0
 40
0
 40
0
 40
0
 40
0
 40
1
 40
1
 40
1
 40
1
 10
21.298972
 20
476.430741
 30
0.0
 10
21.298972
 20
475.712203
 30
0.0
 10
20.721320
 20
475.134297
 30
0.0
 10
20.002500
 20
475.134297
 30
0.0
  0
LWPOLYLINE
  5
1ad
100
AcDbEntity
  8
Layer_1
 62
7
100
AcDbPolyline
 90
2
 70
1
 10
20.002500
 20
487.525630
 30
0.0
 10
20.002500
 20
477.736019
 30
0.0
  0
SPLINE
  5
1ae
100
AcDbEntity
  8
Layer_1
 62
7
100
AcDbSpline
 70
8
 71
3
 72
8
 73
4
 74
0
 40
0
 40
0
 40
0
 40
0
 40
1
 40
1
 40
1
 40
1
 10
16.995084
 20
475.134297
 30
0.0
 10
16.276264
 20
475.134297
 30
0.0
 10
15.698611
 20
475.711977
 30
0.0
 10
15.698611
 20
476.430741
 30
0.0
  0
SPLINE
  5
1af
100
AcDbEntity
  8
Layer_1
 62
7
100
AcDbSpline
 70
8
 71
3
 72
8
 73
4
 74
0
 40
0
 40
0
 40
0
 40
0
 40
1
 40
1
 40
1
 40
1
 10
15.698611
 20
476.430741
 30
0.0
 10
15.698611
 20
477.149815
 30
0.0
 10
16.276264
 20
477.736160
 30
0.0
 10
16.995084
 20
477.736019
 30
0.0
  0
LWPOLYLINE
  5
1b0
100
AcDbEntity
  8
Layer_1
 62
7
100
AcDbPolyline
 90
2
 70
1
 10
20.002500
 20
475.134297
 30
0.0
 10
16.995084
 20
475.134297
 30
0.0
  0
SPLINE
  5
1b1
100
AcDbEntity
  8
Layer_1
 62
7
100
AcDbSpline
 70
8
 71
3
 72
8
 73
4
 74
0
 40
0
 40
0
 40
0
 40
0
 40
1
 40
1
 40
1
 40
1
 10
16.995084
 20
487.525630
 30
0.0
 10
16.276264
 20
487.525630
 30
0.0
 10
15.698611
 20
488.111834
 30
0.0
 10
15.698611
 20
488.830908
 30
0.0
  0
SPLINE
  5
1b2
100
AcDbEntity
  8
Layer_1
 62
7
100
AcDbSpline
 70
8
 71
3
 72
8
 73
4
 74
0
 40
0
 40
0
 40
0
 40
0
 40
1
 40
1
 40
1
 40
1
 10
15.698611
 20
488.830908
 30
0.0
 10
15.698611
 20
489.549446
 30
0.0
 10
16.276264
 20
490.127352
 30
0.0
 10
16.995084
 20
490.127352
 30
0.0
  0
LWPOLYLINE
  5
1b3
100
AcDbEntity
  8
Layer_1
 62
7
100
AcDbPolyline
 90
2
 70
1
 10
16.995084
 20
477.736019
 30
0.0
 10
16.995084
 20
487.525630
 30
0.0
  0
LWPOLYLINE
  5
1b4
100
AcDbEntity
  8
Layer_1
 62
7
100
AcDbPolyline
 90
2
 70
1
 10
16.995084
 20
490.127352
 30
0.0
 10
16.995084
 20
490.127352
 30
0.0
  0
SPLINE
  5
1b5
100
AcDbEntity
  8
Layer_1
 62
7
100
AcDbSpline
 70
8
 71
3
 72
8
 73
4
 74
0
 40
0
 40
0
 40
0
 40
0
 40
1
 40
1
 40
1
 40
1
 10
202.997170
 20
490.127352
 30
0.0
 10
203.715990
 20
490.127352
 30
0.0
 10
204.302447
 20
489.549671
 30
0.0
 10
204.302447
 20
488.830908
 30
0.0
  0
SPLINE
  5
1b6
100
AcDbEntity
  8
Layer_1
 62
7
100
AcDbSpline
 70
8
 71
3
 72
8
 73
4
 74
0
 40
0
 40
0
 40
0
 40
0
 40
1
 40
1
 40
1
 40
1
 10
204.302447
 20
488.830908
 30
0.0
 10
204.302447
 20
488.111382
 30
0.0
 10
203.715990
 20
487.525150
 30
0.0
 10
202.997170
 20
487.525630
 30
0.0
  0
LWPOLYLINE
  5
1b7
100
AcDbEntity
  8
Layer_1
 62
7
100
AcDbPolyline
 90
2
 70
1
 10
199.998559
 20
490.127352
 30
0.0
 10
202.997170
 20
490.127352
 30
0.0
  0
SPLINE
  5
1b8
100
AcDbEntity
  8
Layer_1
 62
7
100
AcDbSpline
 70
8
 71
3
 72
8
 73
4
 74
0
 40
0
 40
0
 40
0
 40
0
 40
1
 40
1
 40
1
 40
1
 10
202.997170
 20
477.736019
 30
0.0
 10
203.715990
 20
477.736019
 30
0.0
 10
204.302447
 20
477.149815
 30
0.0
 10
204.302447
 20
476.430741
 30
0.0
  0
SPLINE
  5
1b9
100
AcDbEntity
  8
Layer_1
 62
7
100
AcDbSpline
 70
8
 71
3
 72
8
 73
4
 74
0
 40
0
 40
0
 40
0
 40
0
 40
1
 40
1
 40
1
 40
1
 10
204.302447
 20
476.430741
 30
0.0
 10
204.302447
 20
475.712655
 30
0.0
 10
203.715990
 20
475.134297
 30
0.0
 10
202.997170
 20
475.134297
 30
0.0
  0
LWPOLYLINE
  5
1ba
100
AcDbEntity
  8
Layer_1
 62
7
100
AcDbPolyline
 90
2
 70
1
 10
202.997170
 20
487.525630
 30
0.0
 10
202.997170
 20
477.736019
 30
0.0
  0
SPLINE
  5
1bb
100
AcDbEntity
  8
Layer_1
 62
7
100
AcDbSpline
 70
8
 71
3
 72
8
 73
4
 74
0
 40
0
 40
0
 40
0
 40
0
 40
1
 40
1
 40
1
 40
1
 10
199.998559
 20
475.134297
 30
0.0
 10
199.279739
 20
475.134297
 30
0.0
 10
198.693281
 20
475.711977
 30
0.0
 10
198.693281
 20
476.430741
 30
0.0
  0
SPLINE
  5
1bc
100
AcDbEntity
  8
Layer_1
 62
7
100
AcDbSpline
 70
8
 71
3
 72
8
 73
4
 74
0
 40
0
 40
0
 40
0
 40
0
 40
1
 40
1
 40
1
 40
1
 10
198.693281
 20
476.430741
 30
0.0
 10
198.693281
 20
477.150266
 30
0.0
 10
199.279739
 20
477.736498
 30
0.0
 10
199.998559
 20
477.736019
 30
0.0
  0
LWPOLYLINE
  5
1bd
100
AcDbEntity
  8
Layer_1
 62
7
100
AcDbPolyline
 90
2
 70
1
 10
202.997170
 20
475.134297
 30
0.0
 10
199.998559
 20
475.134297
 30
0.0
  0
SPLINE
  5
1be
100
AcDbEntity
  8
Layer_1
 62
7
100
AcDbSpline
 70
8
 71
3
 72
8
 73
4
 74
0
 40
0
 40
0
 40
0
 40
0
 40
1
 40
1
 40
1
 40
1
 10
199.998559
 20
487.525630
 30
0.0
 10
199.279739
 20
487.525630
 30
0.0
 10
198.693281
 20
488.111834
 30
0.0
 10
198.693281
 20
488.830908
 30
0.0
  0
SPLINE
  5
1bf
100
AcDbEntity
  8
Layer_1
 62
7
100
AcDbSpline
 70
8
 71
3
 72
8
 73
4
 74
0
 40
0
 40
0
 40
0
 40
0
 40
1
 40
1
 40
1
 40
1
 10
198.693281
 20
488.830908
 30
0.0
 10
198.693281
 20
489.548994
 30
0.0
 10
199.279739
 20
490.127352
 30
0.0
 10
199.998559
 20
490.127352
 30
0.0
  0
LWPOLYLINE
  5
1c0
100
AcDbEntity
  8
Layer_1
 62
7
100
AcDbPolyline
 90
2
 70
1
 10
199.998559
 20
477.736019
 30
0.0
 10
199.998559
 20
487.525630
 30
0.0
  0
SPLINE
  5
1c1
100
AcDbEntity
  8
Layer_1
 62
7
100
AcDbSpline
 70
8
 71
3
 72
8
 73
4
 74
0
 40
0
 40
0
 40
0
 40
0
 40
1
 40
1
 40
1
 40
1
 10
27.287361
 20
474.199435
 30
0.0
 10
28.017611
 20
474.199435
 30
0.0
 10
28.610278
 20
473.606769
 30
0.0
 10
28.610278
 20
472.876519
 30
0.0
  0
SPLINE
  5
1c2
100
AcDbEntity
  8
Layer_1
 62
7
100
AcDbSpline
 70
8
 71
3
 72
8
 73
4
 74
0
 40
0
 40
0
 40
0
 40
0
 40
1
 40
1
 40
1
 40
1
 10
28.610278
 20
472.876519
 30
0.0
 10
28.610278
 20
472.146269
 30
0.0
 10
28.017611
 20
471.553602
 30
0.0
 10
27.287361
 20
471.553602
 30
0.0
  0
SPLINE
  5
1c3
100
AcDbEntity
  8
Layer_1
 62
7
100
AcDbSpline
 70
8
 71
3
 72
8
 73
4
 74
0
 40
0
 40
0
 40
0
 40
0
 40
1
 40
1
 40
1
 40
1
 10
27.287361
 20
471.553602
 30
0.0
 10
26.557111
 20
471.553602
 30
0.0
 10
25.964444
 20
472.146269
 30
0.0
 10
25.964444
 20
472.876519
 30
0.0
  0
SPLINE
  5
1c4
100
AcDbEntity
  8
Layer_1
 62
7
100
AcDbSpline
 70
8
 71
3
 72
8
 73
4
 74
0
 40
0
 40
0
 40
0
 40
0
 40
1
 40
1
 40
1
 40
1
 10
25.964444
 20
472.876519
 30
0.0
 10
25.964444
 20
473.606769
 30
0.0
 10
26.557111
 20
474.199435
 30
0.0
 10
27.287361
 20
474.199435
 30
0.0
  0
LWPOLYLINE
  5
1c5
100
AcDbEntity
  8
Layer_1
 62
7
100
AcDbPolyline
 90
2
 70
1
 10
199.998559
 20
490.127352
 30
0.0
 10
199.998559
 20
490.127352
 30
0.0
  0
SPLINE
  5
1c6
100
AcDbEntity
  8
Layer_1
 62
7
100
AcDbSpline
 70
8
 71
3
 72
8
 73
4
 74
0
 40
0
 40
0
 40
0
 40
0
 40
1
 40
1
 40
1
 40
1
 10
191.073272
 20
474.199435
 30
0.0
 10
191.803531
 20
474.199435
 30
0.0
 10
192.396197
 20
473.606769
 30
0.0
 10
192.396197
 20
472.876519
 30
0.0
  0
SPLINE
  5
1c7
100
AcDbEntity
  8
Layer_1
 62
7
100
AcDbSpline
 70
8
 71
3
 72
8
 73
4
 74
0
 40
0
 40
0
 40
0
 40
0
 40
1
 40
1
 40
1
 40
1
 10
192.396197
 20
472.876519
 30
0.0
 10
192.396197
 20
472.146269
 30
0.0
 10
191.803531
 20
471.553602
 30
0.0
 10
191.073272
 20
471.553602
 30
0.0
  0
SPLINE
  5
1c8
100
AcDbEntity
  8
Layer_1
 62
7
100
AcDbSpline
 70
8
 71
3
 72
8
 73
4
 74
0
 40
0
 40
0
 40
0
 40
0
 40
1
 40
1
 40
1
 40
1
 10
191.073272
 20
471.553602
 30
0.0
 10
190.343022
 20
471.553602
 30
0.0
 10
189.750356
 20
472.146269
 30
0.0
 10
189.750356
 20
472.876519
 30
0.0
  0
SPLINE
  5
1c9
100
AcDbEntity
  8
Layer_1
 62
7
100
AcDbSpline
 70
8
 71
3
 72
8
 73
4
 74
0
 40
0
 40
0
 40
0
 40
0
 40
1
 40
1
 40
1
 40
1
 10
189.750356
 20
472.876519
 30
0.0
 10
189.750356
 20
473.606769
 30
0.0
 10
190.343022
 20
474.199435
 30
0.0
 10
191.073272
 20
474.199435
 30
0.0
  0
LWPOLYLINE
  5
1ca
100
AcDbEntity
  8
Layer_1
 62
7
100
AcDbPolyline
 90
2
 70
1
 10
27.287361
 20
474.199435
 30
0.0
 10
27.287361
 20
474.199435
 30
0.0
  0
SPLINE
  5
1cb
100
AcDbEntity
  8
Layer_1
 62
7
100
AcDbSpline
 70
8
 71
3
 72
8
 73
4
 74
0
 40
0
 40
0
 40
0
 40
0
 40
1
 40
1
 40
1
 40
1
 10
31.317861
 20
466.455963
 30
0.0
 10
32.048083
 20
466.455963
 30
0.0
 10
32.640778
 20
465.863297
 30
0.0
 10
32.640778
 20
465.133047
 30
0.0
  0
LWPOLYLINE
  5
1cc
100
AcDbEntity
  8
Layer_1
 62
7
100
AcDbPolyline
 90
2
 70
1
 10
191.073272
 20
474.199435
 30
0.0
 10
191.073272
 20
474.199435
 30
0.0
  0
SPLINE
  5
1cd
100
AcDbEntity
  8
Layer_1
 62
7
100
AcDbSpline
 70
8
 71
3
 72
8
 73
4
 74
0
 40
0
 40
0
 40
0
 40
0
 40
1
 40
1
 40
1
 40
1
 10
42.350972
 20
465.133047
 30
0.0
 10
42.350972
 20
465.863297
 30
0.0
 10
42.943639
 20
466.455963
 30
0.0
 10
43.673889
 20
466.455963
 30
0.0
  0
SPLINE
  5
1ce
100
AcDbEntity
  8
Layer_1
 62
7
100
AcDbSpline
 70
8
 71
3
 72
8
 73
4
 74
0
 40
0
 40
0
 40
0
 40
0
 40
1
 40
1
 40
1
 40
1
 10
43.673889
 20
466.455963
 30
0.0
 10
44.404139
 20
466.455963
 30
0.0
 10
44.996806
 20
465.863297
 30
0.0
 10
44.996806
 20
465.133047
 30
0.0
  0
LWPOLYLINE
  5
1cf
100
AcDbEntity
  8
Layer_1
 62
7
100
AcDbPolyline
 90
2
 70
1
 10
32.640778
 20
465.133047
 30
0.0
 10
42.350972
 20
465.133047
 30
0.0
  0
SPLINE
  5
1d0
100
AcDbEntity
  8
Layer_1
 62
7
100
AcDbSpline
 70
8
 71
3
 72
8
 73
4
 74
0
 40
0
 40
0
 40
0
 40
0
 40
1
 40
1
 40
1
 40
1
 10
44.996806
 20
462.134435
 30
0.0
 10
44.996806
 20
461.404185
 30
0.0
 10
44.404139
 20
460.811519
 30
0.0
 10
43.673889
 20
460.811519
 30
0.0
  0
SPLINE
  5
1d1
100
AcDbEntity
  8
Layer_1
 62
7
100
AcDbSpline
 70
8
 71
3
 72
8
 73
4
 74
0
 40
0
 40
0
 40
0
 40
0
 40
1
 40
1
 40
1
 40
1
 10
43.673889
 20
460.811519
 30
0.0
 10
42.943639
 20
460.811519
 30
0.0
 10
42.350972
 20
461.404185
 30
0.0
 10
42.350972
 20
462.134435
 30
0.0
  0
LWPOLYLINE
  5
1d2
100
AcDbEntity
  8
Layer_1
 62
7
100
AcDbPolyline
 90
2
 70
1
 10
44.996806
 20
465.133047
 30
0.0
 10
44.996806
 20
462.134435
 30
0.0
  0
SPLINE
  5
1d3
100
AcDbEntity
  8
Layer_1
 62
7
100
AcDbSpline
 70
8
 71
3
 72
8
 73
4
 74
0
 40
0
 40
0
 40
0
 40
0
 40
1
 40
1
 40
1
 40
1
 10
32.640778
 20
462.134435
 30
0.0
 10
32.640778
 20
461.404185
 30
0.0
 10
32.048083
 20
460.811519
 30
0.0
 10
31.317861
 20
460.811519
 30
0.0
  0
SPLINE
  5
1d4
100
AcDbEntity
  8
Layer_1
 62
7
100
AcDbSpline
 70
8
 71
3
 72
8
 73
4
 74
0
 40
0
 40
0
 40
0
 40
0
 40
1
 40
1
 40
1
 40
1
 10
31.317861
 20
460.811519
 30
0.0
 10
30.587611
 20
460.811519
 30
0.0
 10
29.994945
 20
461.404185
 30
0.0
 10
29.994945
 20
462.134435
 30
0.0
  0
LWPOLYLINE
  5
1d5
100
AcDbEntity
  8
Layer_1
 62
7
100
AcDbPolyline
 90
2
 70
1
 10
42.350972
 20
462.134435
 30
0.0
 10
32.640778
 20
462.134435
 30
0.0
  0
SPLINE
  5
1d6
100
AcDbEntity
  8
Layer_1
 62
7
100
AcDbSpline
 70
8
 71
3
 72
8
 73
4
 74
0
 40
0
 40
0
 40
0
 40
0
 40
1
 40
1
 40
1
 40
1
 10
29.994945
 20
465.133047
 30
0.0
 10
29.994945
 20
465.863297
 30
0.0
 10
30.587611
 20
466.455963
 30
0.0
 10
31.317861
 20
466.455963
 30
0.0
  0
LWPOLYLINE
  5
1d7
100
AcDbEntity
  8
Layer_1
 62
7
100
AcDbPolyline
 90
2
 70
1
 10
29.994945
 20
462.134435
 30
0.0
 10
29.994945
 20
465.133047
 30
0.0
  0
SPLINE
  5
1d8
100
AcDbEntity
  8
Layer_1
 62
7
100
AcDbSpline
 70
8
 71
3
 72
8
 73
4
 74
0
 40
0
 40
0
 40
0
 40
0
 40
1
 40
1
 40
1
 40
1
 10
61.321611
 20
466.455963
 30
0.0
 10
62.051833
 20
466.455963
 30
0.0
 10
62.644528
 20
465.863297
 30
0.0
 10
62.644528
 20
465.133047
 30
0.0
  0
LWPOLYLINE
  5
1d9
100
AcDbEntity
  8
Layer_1
 62
7
100
AcDbPolyline
 90
2
 70
1
 10
31.317861
 20
466.455963
 30
0.0
 10
31.317861
 20
466.455963
 30
0.0
  0
SPLINE
  5
1da
100
AcDbEntity
  8
Layer_1
 62
7
100
AcDbSpline
 70
8
 71
3
 72
8
 73
4
 74
0
 40
0
 40
0
 40
0
 40
0
 40
1
 40
1
 40
1
 40
1
 10
72.354722
 20
465.133047
 30
0.0
 10
72.354722
 20
465.863297
 30
0.0
 10
72.947389
 20
466.455963
 30
0.0
 10
73.677639
 20
466.455963
 30
0.0
  0
SPLINE
  5
1db
100
AcDbEntity
  8
Layer_1
 62
7
100
AcDbSpline
 70
8
 71
3
 72
8
 73
4
 74
0
 40
0
 40
0
 40
0
 40
0
 40
1
 40
1
 40
1
 40
1
 10
73.677639
 20
466.455963
 30
0.0
 10
74.407889
 20
466.455963
 30
0.0
 10
75.000556
 20
465.863297
 30
0.0
 10
75.000556
 20
465.133047
 30
0.0
  0
LWPOLYLINE
  5
1dc
100
AcDbEntity
  8
Layer_1
 62
7
100
AcDbPolyline
 90
2
 70
1
 10
62.644528
 20
465.133047
 30
0.0
 10
72.354722
 20
465.133047
 30
0.0
  0
SPLINE
  5
1dd
100
AcDbEntity
  8
Layer_1
 62
7
100
AcDbSpline
 70
8
 71
3
 72
8
 73
4
 74
0
 40
0
 40
0
 40
0
 40
0
 40
1
 40
1
 40
1
 40
1
 10
75.000556
 20
462.134435
 30
0.0
 10
75.000556
 20
461.404185
 30
0.0
 10
74.407889
 20
460.811519
 30
0.0
 10
73.677639
 20
460.811519
 30
0.0
  0
SPLINE
  5
1de
100
AcDbEntity
  8
Layer_1
 62
7
100
AcDbSpline
 70
8
 71
3
 72
8
 73
4
 74
0
 40
0
 40
0
 40
0
 40
0
 40
1
 40
1
 40
1
 40
1
 10
73.677639
 20
460.811519
 30
0.0
 10
72.947389
 20
460.811519
 30
0.0
 10
72.354722
 20
461.404185
 30
0.0
 10
72.354722
 20
462.134435
 30
0.0
  0
LWPOLYLINE
  5
1df
100
AcDbEntity
  8
Layer_1
 62
7
100
AcDbPolyline
 90
2
 70
1
 10
75.000556
 20
465.133047
 30
0.0
 10
75.000556
 20
462.134435
 30
0.0
  0
SPLINE
  5
1e0
100
AcDbEntity
  8
Layer_1
 62
7
100
AcDbSpline
 70
8
 71
3
 72
8
 73
4
 74
0
 40
0
 40
0
 40
0
 40
0
 40
1
 40
1
 40
1
 40
1
 10
62.644528
 20
462.134435
 30
0.0
 10
62.644528
 20
461.404185
 30
0.0
 10
62.051833
 20
460.811519
 30
0.0
 10
61.321611
 20
460.811519
 30
0.0
  0
SPLINE
  5
1e1
100
AcDbEntity
  8
Layer_1
 62
7
100
AcDbSpline
 70
8
 71
3
 72
8
 73
4
 74
0
 40
0
 40
0
 40
0
 40
0
 40
1
 40
1
 40
1
 40
1
 10
61.321611
 20
460.811519
 30
0.0
 10
60.591361
 20
460.811519
 30
0.0
 10
59.998695
 20
461.404185
 30
0.0
 10
59.998695
 20
462.134435
 30
0.0
  0
LWPOLYLINE
  5
1e2
100
AcDbEntity
  8
Layer_1
 62
7
100
AcDbPolyline
 90
2
 70
1
 10
72.354722
 20
462.134435
 30
0.0
 10
62.644528
 20
462.134435
 30
0.0
  0
SPLINE
  5
1e3
100
AcDbEntity
  8
Layer_1
 62
7
100
AcDbSpline
 70
8
 71
3
 72
8
 73
4
 74
0
 40
0
 40
0
 40
0
 40
0
 40
1
 40
1
 40
1
 40
1
 10
59.998695
 20
465.133047
 30
0.0
 10
59.998695
 20
465.863297
 30
0.0
 10
60.591361
 20
466.455963
 30
0.0
 10
61.321611
 20
466.455963
 30
0.0
  0
LWPOLYLINE
  5
1e4
100
AcDbEntity
  8
Layer_1
 62
7
100
AcDbPolyline
 90
2
 70
1
 10
59.998695
 20
462.134435
 30
0.0
 10
59.998695
 20
465.133047
 30
0.0
  0
SPLINE
  5
1e5
100
AcDbEntity
  8
Layer_1
 62
7
100
AcDbSpline
 70
8
 71
3
 72
8
 73
4
 74
0
 40
0
 40
0
 40
0
 40
0
 40
1
 40
1
 40
1
 40
1
 10
91.325361
 20
466.455963
 30
0.0
 10
92.055583
 20
466.455963
 30
0.0
 10
92.639444
 20
465.863297
 30
0.0
 10
92.639444
 20
465.133047
 30
0.0
  0
LWPOLYLINE
  5
1e6
100
AcDbEntity
  8
Layer_1
 62
7
100
AcDbPolyline
 90
2
 70
1
 10
61.321611
 20
466.455963
 30
0.0
 10
61.321611
 20
466.455963
 30
0.0
  0
SPLINE
  5
1e7
100
AcDbEntity
  8
Layer_1
 62
7
100
AcDbSpline
 70
8
 71
3
 72
8
 73
4
 74
0
 40
0
 40
0
 40
0
 40
0
 40
1
 40
1
 40
1
 40
1
 10
102.358472
 20
465.133047
 30
0.0
 10
102.358472
 20
465.863297
 30
0.0
 10
102.942334
 20
466.455963
 30
0.0
 10
103.672584
 20
466.455963
 30
0.0
  0
SPLINE
  5
1e8
100
AcDbEntity
  8
Layer_1
 62
7
100
AcDbSpline
 70
8
 71
3
 72
8
 73
4
 74
0
 40
0
 40
0
 40
0
 40
0
 40
1
 40
1
 40
1
 40
1
 10
103.672584
 20
466.455963
 30
0.0
 10
104.402805
 20
466.455963
 30
0.0
 10
104.995500
 20
465.863297
 30
0.0
 10
104.995500
 20
465.133047
 30
0.0
  0
LWPOLYLINE
  5
1e9
100
AcDbEntity
  8
Layer_1
 62
7
100
AcDbPolyline
 90
2
 70
1
 10
92.639444
 20
465.133047
 30
0.0
 10
102.358472
 20
465.133047
 30
0.0
  0
SPLINE
  5
1ea
100
AcDbEntity
  8
Layer_1
 62
7
100
AcDbSpline
 70
8
 71
3
 72
8
 73
4
 74
0
 40
0
 40
0
 40
0
 40
0
 40
1
 40
1
 40
1
 40
1
 10
104.995500
 20
462.134435
 30
0.0
 10
104.995500
 20
461.404185
 30
0.0
 10
104.402805
 20
460.811519
 30
0.0
 10
103.672584
 20
460.811519
 30
0.0
  0
SPLINE
  5
1eb
100
AcDbEntity
  8
Layer_1
 62
7
100
AcDbSpline
 70
8
 71
3
 72
8
 73
4
 74
0
 40
0
 40
0
 40
0
 40
0
 40
1
 40
1
 40
1
 40
1
 10
103.672584
 20
460.811519
 30
0.0
 10
102.942334
 20
460.811519
 30
0.0
 10
102.358472
 20
461.404185
 30
0.0
 10
102.358472
 20
462.134435
 30
0.0
  0
LWPOLYLINE
  5
1ec
100
AcDbEntity
  8
Layer_1
 62
7
100
AcDbPolyline
 90
2
 70
1
 10
104.995500
 20
465.133047
 30
0.0
 10
104.995500
 20
462.134435
 30
0.0
  0
SPLINE
  5
1ed
100
AcDbEntity
  8
Layer_1
 62
7
100
AcDbSpline
 70
8
 71
3
 72
8
 73
4
 74
0
 40
0
 40
0
 40
0
 40
0
 40
1
 40
1
 40
1
 40
1
 10
92.639444
 20
462.134435
 30
0.0
 10
92.639444
 20
461.404185
 30
0.0
 10
92.055583
 20
460.811519
 30
0.0
 10
91.325361
 20
460.811519
 30
0.0
  0
SPLINE
  5
1ee
100
AcDbEntity
  8
Layer_1
 62
7
100
AcDbSpline
 70
8
 71
3
 72
8
 73
4
 74
0
 40
0
 40
0
 40
0
 40
0
 40
1
 40
1
 40
1
 40
1
 10
91.325361
 20
460.811519
 30
0.0
 10
90.595111
 20
460.811519
 30
0.0
 10
90.002445
 20
461.404185
 30
0.0
 10
90.002445
 20
462.134435
 30
0.0
  0
LWPOLYLINE
  5
1ef
100
AcDbEntity
  8
Layer_1
 62
7
100
AcDbPolyline
 90
2
 70
1
 10
102.358472
 20
462.134435
 30
0.0
 10
92.639444
 20
462.134435
 30
0.0
  0
SPLINE
  5
1f0
100
AcDbEntity
  8
Layer_1
 62
7
100
AcDbSpline
 70
8
 71
3
 72
8
 73
4
 74
0
 40
0
 40
0
 40
0
 40
0
 40
1
 40
1
 40
1
 40
1
 10
90.002445
 20
465.133047
 30
0.0
 10
90.002445
 20
465.863297
 30
0.0
 10
90.595111
 20
466.455963
 30
0.0
 10
91.325361
 20
466.455963
 30
0.0
  0
LWPOLYLINE
  5
1f1
100
AcDbEntity
  8
Layer_1
 62
7
100
AcDbPolyline
 90
2
 70
1
 10
90.002445
 20
462.134435
 30
0.0
 10
90.002445
 20
465.133047
 30
0.0
  0
SPLINE
  5
1f2
100
AcDbEntity
  8
Layer_1
 62
7
100
AcDbSpline
 70
8
 71
3
 72
8
 73
4
 74
0
 40
0
 40
0
 40
0
 40
0
 40
1
 40
1
 40
1
 40
1
 10
116.319667
 20
466.455963
 30
0.0
 10
117.049889
 20
466.455963
 30
0.0
 10
117.642584
 20
465.863297
 30
0.0
 10
117.642584
 20
465.133047
 30
0.0
  0
LWPOLYLINE
  5
1f3
100
AcDbEntity
  8
Layer_1
 62
7
100
AcDbPolyline
 90
2
 70
1
 10
91.325361
 20
466.455963
 30
0.0
 10
91.325361
 20
466.455963
 30
0.0
  0
SPLINE
  5
1f4
100
AcDbEntity
  8
Layer_1
 62
7
100
AcDbSpline
 70
8
 71
3
 72
8
 73
4
 74
0
 40
0
 40
0
 40
0
 40
0
 40
1
 40
1
 40
1
 40
1
 10
127.352778
 20
465.133047
 30
0.0
 10
127.352778
 20
465.863297
 30
0.0
 10
127.945444
 20
466.455963
 30
0.0
 10
128.675694
 20
466.455963
 30
0.0
  0
SPLINE
  5
1f5
100
AcDbEntity
  8
Layer_1
 62
7
100
AcDbSpline
 70
8
 71
3
 72
8
 73
4
 74
0
 40
0
 40
0
 40
0
 40
0
 40
1
 40
1
 40
1
 40
1
 10
128.675694
 20
466.455963
 30
0.0
 10
129.405944
 20
466.455963
 30
0.0
 10
129.998611
 20
465.863297
 30
0.0
 10
129.998611
 20
465.133047
 30
0.0
  0
LWPOLYLINE
  5
1f6
100
AcDbEntity
  8
Layer_1
 62
7
100
AcDbPolyline
 90
2
 70
1
 10
117.642584
 20
465.133047
 30
0.0
 10
127.352778
 20
465.133047
 30
0.0
  0
SPLINE
  5
1f7
100
AcDbEntity
  8
Layer_1
 62
7
100
AcDbSpline
 70
8
 71
3
 72
8
 73
4
 74
0
 40
0
 40
0
 40
0
 40
0
 40
1
 40
1
 40
1
 40
1
 10
129.998611
 20
462.134435
 30
0.0
 10
129.998611
 20
461.404185
 30
0.0
 10
129.405944
 20
460.811519
 30
0.0
 10
128.675694
 20
460.811519
 30
0.0
  0
SPLINE
  5
1f8
100
AcDbEntity
  8
Layer_1
 62
7
100
AcDbSpline
 70
8
 71
3
 72
8
 73
4
 74
0
 40
0
 40
0
 40
0
 40
0
 40
1
 40
1
 40
1
 40
1
 10
128.675694
 20
460.811519
 30
0.0
 10
127.945444
 20
460.811519
 30
0.0
 10
127.352778
 20
461.404185
 30
0.0
 10
127.352778
 20
462.134435
 30
0.0
  0
LWPOLYLINE
  5
1f9
100
AcDbEntity
  8
Layer_1
 62
7
100
AcDbPolyline
 90
2
 70
1
 10
129.998611
 20
465.133047
 30
0.0
 10
129.998611
 20
462.134435
 30
0.0
  0
SPLINE
  5
1fa
100
AcDbEntity
  8
Layer_1
 62
7
100
AcDbSpline
 70
8
 71
3
 72
8
 73
4
 74
0
 40
0
 40
0
 40
0
 40
0
 40
1
 40
1
 40
1
 40
1
 10
117.642584
 20
462.134435
 30
0.0
 10
117.642584
 20
461.404185
 30
0.0
 10
117.049889
 20
460.811519
 30
0.0
 10
116.319667
 20
460.811519
 30
0.0
  0
SPLINE
  5
1fb
100
AcDbEntity
  8
Layer_1
 62
7
100
AcDbSpline
 70
8
 71
3
 72
8
 73
4
 74
0
 40
0
 40
0
 40
0
 40
0
 40
1
 40
1
 40
1
 40
1
 10
116.319667
 20
460.811519
 30
0.0
 10
115.589417
 20
460.811519
 30
0.0
 10
114.996750
 20
461.404185
 30
0.0
 10
114.996750
 20
462.134435
 30
0.0
  0
LWPOLYLINE
  5
1fc
100
AcDbEntity
  8
Layer_1
 62
7
100
AcDbPolyline
 90
2
 70
1
 10
127.352778
 20
462.134435
 30
0.0
 10
117.642584
 20
462.134435
 30
0.0
  0
SPLINE
  5
1fd
100
AcDbEntity
  8
Layer_1
 62
7
100
AcDbSpline
 70
8
 71
3
 72
8
 73
4
 74
0
 40
0
 40
0
 40
0
 40
0
 40
1
 40
1
 40
1
 40
1
 10
114.996750
 20
465.133047
 30
0.0
 10
114.996750
 20
465.863297
 30
0.0
 10
115.589417
 20
466.455963
 30
0.0
 10
116.319667
 20
466.455963
 30
0.0
  0
LWPOLYLINE
  5
1fe
100
AcDbEntity
  8
Layer_1
 62
7
100
AcDbPolyline
 90
2
 70
1
 10
114.996750
 20
462.134435
 30
0.0
 10
114.996750
 20
465.133047
 30
0.0
  0
SPLINE
  5
1ff
100
AcDbEntity
  8
Layer_1
 62
7
100
AcDbSpline
 70
8
 71
3
 72
8
 73
4
 74
0
 40
0
 40
0
 40
0
 40
0
 40
1
 40
1
 40
1
 40
1
 10
146.323417
 20
466.455963
 30
0.0
 10
147.053639
 20
466.455963
 30
0.0
 10
147.646334
 20
465.863297
 30
0.0
 10
147.646334
 20
465.133047
 30
0.0
  0
LWPOLYLINE
  5
200
100
AcDbEntity
  8
Layer_1
 62
7
100
AcDbPolyline
 90
2
 70
1
 10
116.319667
 20
466.455963
 30
0.0
 10
116.319667
 20
466.455963
 30
0.0
  0
SPLINE
  5
201
100
AcDbEntity
  8
Layer_1
 62
7
100
AcDbSpline
 70
8
 71
3
 72
8
 73
4
 74
0
 40
0
 40
0
 40
0
 40
0
 40
1
 40
1
 40
1
 40
1
 10
157.356522
 20
465.133047
 30
0.0
 10
157.356522
 20
465.863297
 30
0.0
 10
157.949189
 20
466.455963
 30
0.0
 10
158.679439
 20
466.455963
 30
0.0
  0
SPLINE
  5
202
100
AcDbEntity
  8
Layer_1
 62
7
100
AcDbSpline
 70
8
 71
3
 72
8
 73
4
 74
0
 40
0
 40
0
 40
0
 40
0
 40
1
 40
1
 40
1
 40
1
 10
158.679439
 20
466.455963
 30
0.0
 10
159.409689
 20
466.455963
 30
0.0
 10
160.002355
 20
465.863297
 30
0.0
 10
160.002355
 20
465.133047
 30
0.0
  0
LWPOLYLINE
  5
203
100
AcDbEntity
  8
Layer_1
 62
7
100
AcDbPolyline
 90
2
 70
1
 10
147.646334
 20
465.133047
 30
0.0
 10
157.356522
 20
465.133047
 30
0.0
  0
SPLINE
  5
204
100
AcDbEntity
  8
Layer_1
 62
7
100
AcDbSpline
 70
8
 71
3
 72
8
 73
4
 74
0
 40
0
 40
0
 40
0
 40
0
 40
1
 40
1
 40
1
 40
1
 10
160.002355
 20
462.134435
 30
0.0
 10
160.002355
 20
461.404185
 30
0.0
 10
159.409689
 20
460.811519
 30
0.0
 10
158.679439
 20
460.811519
 30
0.0
  0
SPLINE
  5
205
100
AcDbEntity
  8
Layer_1
 62
7
100
AcDbSpline
 70
8
 71
3
 72
8
 73
4
 74
0
 40
0
 40
0
 40
0
 40
0
 40
1
 40
1
 40
1
 40
1
 10
158.679439
 20
460.811519
 30
0.0
 10
157.949189
 20
460.811519
 30
0.0
 10
157.356522
 20
461.404185
 30
0.0
 10
157.356522
 20
462.134435
 30
0.0
  0
LWPOLYLINE
  5
206
100
AcDbEntity
  8
Layer_1
 62
7
100
AcDbPolyline
 90
2
 70
1
 10
160.002355
 20
465.133047
 30
0.0
 10
160.002355
 20
462.134435
 30
0.0
  0
SPLINE
  5
207
100
AcDbEntity
  8
Layer_1
 62
7
100
AcDbSpline
 70
8
 71
3
 72
8
 73
4
 74
0
 40
0
 40
0
 40
0
 40
0
 40
1
 40
1
 40
1
 40
1
 10
147.646334
 20
462.134435
 30
0.0
 10
147.646334
 20
461.404185
 30
0.0
 10
147.053639
 20
460.811519
 30
0.0
 10
146.323417
 20
460.811519
 30
0.0
  0
SPLINE
  5
208
100
AcDbEntity
  8
Layer_1
 62
7
100
AcDbSpline
 70
8
 71
3
 72
8
 73
4
 74
0
 40
0
 40
0
 40
0
 40
0
 40
1
 40
1
 40
1
 40
1
 10
146.323417
 20
460.811519
 30
0.0
 10
145.593167
 20
460.811519
 30
0.0
 10
145.000500
 20
461.404185
 30
0.0
 10
145.000500
 20
462.134435
 30
0.0
  0
LWPOLYLINE
  5
209
100
AcDbEntity
  8
Layer_1
 62
7
100
AcDbPolyline
 90
2
 70
1
 10
157.356522
 20
462.134435
 30
0.0
 10
147.646334
 20
462.134435
 30
0.0
  0
SPLINE
  5
20a
100
AcDbEntity
  8
Layer_1
 62
7
100
AcDbSpline
 70
8
 71
3
 72
8
 73
4
 74
0
 40
0
 40
0
 40
0
 40
0
 40
1
 40
1
 40
1
 40
1
 10
145.000500
 20
465.133047
 30
0.0
 10
145.000500
 20
465.863297
 30
0.0
 10
145.593167
 20
466.455963
 30
0.0
 10
146.323417
 20
466.455963
 30
0.0
  0
LWPOLYLINE
  5
20b
100
AcDbEntity
  8
Layer_1
 62
7
100
AcDbPolyline
 90
2
 70
1
 10
145.000500
 20
462.134435
 30
0.0
 10
145.000500
 20
465.133047
 30
0.0
  0
SPLINE
  5
20c
100
AcDbEntity
  8
Layer_1
 62
7
100
AcDbSpline
 70
8
 71
3
 72
8
 73
4
 74
0
 40
0
 40
0
 40
0
 40
0
 40
1
 40
1
 40
1
 40
1
 10
176.318328
 20
466.455963
 30
0.0
 10
177.048578
 20
466.455963
 30
0.0
 10
177.641244
 20
465.863297
 30
0.0
 10
177.641244
 20
465.133047
 30
0.0
  0
LWPOLYLINE
  5
20d
100
AcDbEntity
  8
Layer_1
 62
7
100
AcDbPolyline
 90
2
 70
1
 10
146.323417
 20
466.455963
 30
0.0
 10
146.323417
 20
466.455963
 30
0.0
  0
SPLINE
  5
20e
100
AcDbEntity
  8
Layer_1
 62
7
100
AcDbSpline
 70
8
 71
3
 72
8
 73
4
 74
0
 40
0
 40
0
 40
0
 40
0
 40
1
 40
1
 40
1
 40
1
 10
187.351467
 20
465.133047
 30
0.0
 10
187.351467
 20
465.863297
 30
0.0
 10
187.944133
 20
466.455963
 30
0.0
 10
188.674383
 20
466.455963
 30
0.0
  0
SPLINE
  5
20f
100
AcDbEntity
  8
Layer_1
 62
7
100
AcDbSpline
 70
8
 71
3
 72
8
 73
4
 74
0
 40
0
 40
0
 40
0
 40
0
 40
1
 40
1
 40
1
 40
1
 10
188.674383
 20
466.455963
 30
0.0
 10
189.404633
 20
466.455963
 30
0.0
 10
189.997300
 20
465.863297
 30
0.0
 10
189.997300
 20
465.133047
 30
0.0
  0
LWPOLYLINE
  5
210
100
AcDbEntity
  8
Layer_1
 62
7
100
AcDbPolyline
 90
2
 70
1
 10
177.641244
 20
465.133047
 30
0.0
 10
187.351467
 20
465.133047
 30
0.0
  0
SPLINE
  5
211
100
AcDbEntity
  8
Layer_1
 62
7
100
AcDbSpline
 70
8
 71
3
 72
8
 73
4
 74
0
 40
0
 40
0
 40
0
 40
0
 40
1
 40
1
 40
1
 40
1
 10
189.997300
 20
462.134435
 30
0.0
 10
189.997300
 20
461.404185
 30
0.0
 10
189.404633
 20
460.811519
 30
0.0
 10
188.674383
 20
460.811519
 30
0.0
  0
SPLINE
  5
212
100
AcDbEntity
  8
Layer_1
 62
7
100
AcDbSpline
 70
8
 71
3
 72
8
 73
4
 74
0
 40
0
 40
0
 40
0
 40
0
 40
1
 40
1
 40
1
 40
1
 10
188.674383
 20
460.811519
 30
0.0
 10
187.944133
 20
460.811519
 30
0.0
 10
187.351467
 20
461.404185
 30
0.0
 10
187.351467
 20
462.134435
 30
0.0
  0
LWPOLYLINE
  5
213
100
AcDbEntity
  8
Layer_1
 62
7
100
AcDbPolyline
 90
2
 70
1
 10
189.997300
 20
465.133047
 30
0.0
 10
189.997300
 20
462.134435
 30
0.0
  0
SPLINE
  5
214
100
AcDbEntity
  8
Layer_1
 62
7
100
AcDbSpline
 70
8
 71
3
 72
8
 73
4
 74
0
 40
0
 40
0
 40
0
 40
0
 40
1
 40
1
 40
1
 40
1
 10
177.641244
 20
462.134435
 30
0.0
 10
177.641244
 20
461.404185
 30
0.0
 10
177.048578
 20
460.811519
 30
0.0
 10
176.318328
 20
460.811519
 30
0.0
  0
SPLINE
  5
215
100
AcDbEntity
  8
Layer_1
 62
7
100
AcDbSpline
 70
8
 71
3
 72
8
 73
4
 74
0
 40
0
 40
0
 40
0
 40
0
 40
1
 40
1
 40
1
 40
1
 10
176.318328
 20
460.811519
 30
0.0
 10
175.588078
 20
460.811519
 30
0.0
 10
174.995411
 20
461.404185
 30
0.0
 10
174.995411
 20
462.134435
 30
0.0
  0
LWPOLYLINE
  5
216
100
AcDbEntity
  8
Layer_1
 62
7
100
AcDbPolyline
 90
2
 70
1
 10
187.351467
 20
462.134435
 30
0.0
 10
177.641244
 20
462.134435
 30
0.0
  0
SPLINE
  5
217
100
AcDbEntity
  8
Layer_1
 62
7
100
AcDbSpline
 70
8
 71
3
 72
8
 73
4
 74
0
 40
0
 40
0
 40
0
 40
0
 40
1
 40
1
 40
1
 40
1
 10
174.995411
 20
465.133047
 30
0.0
 10
174.995411
 20
465.863297
 30
0.0
 10
175.588078
 20
466.455963
 30
0.0
 10
176.318328
 20
466.455963
 30
0.0
  0
LWPOLYLINE
  5
218
100
AcDbEntity
  8
Layer_1
 62
7
100
AcDbPolyline
 90
2
 70
1
 10
174.995411
 20
462.134435
 30
0.0
 10
174.995411
 20
465.133047
 30
0.0
  0
LWPOLYLINE
  5
219
100
AcDbEntity
  8
Layer_1
 62
7
100
AcDbPolyline
 90
2
 70
1
 10
176.318328
 20
466.455963
 30
0.0
 10
176.318328
 20
466.455963
 30
0.0
  0
SPLINE
  5
21a
100
AcDbEntity
  8
Layer_1
 62
7
100
AcDbSpline
 70
8
 71
3
 72
8
 73
4
 74
0
 40
0
 40
0
 40
0
 40
0
 40
1
 40
1
 40
1
 40
1
 10
27.287362
 20
418.833325
 30
0.0
 10
28.017612
 20
418.833325
 30
0.0
 10
28.610278
 20
418.240659
 30
0.0
 10
28.610278
 20
417.510409
 30
0.0
  0
SPLINE
  5
21b
100
AcDbEntity
  8
Layer_1
 62
7
100
AcDbSpline
 70
8
 71
3
 72
8
 73
4
 74
0
 40
0
 40
0
 40
0
 40
0
 40
1
 40
1
 40
1
 40
1
 10
28.610278
 20
417.510409
 30
0.0
 10
28.610278
 20
416.780159
 30
0.0
 10
28.017612
 20
416.187492
 30
0.0
 10
27.287362
 20
416.187492
 30
0.0
  0
SPLINE
  5
21c
100
AcDbEntity
  8
Layer_1
 62
7
100
AcDbSpline
 70
8
 71
3
 72
8
 73
4
 74
0
 40
0
 40
0
 40
0
 40
0
 40
1
 40
1
 40
1
 40
1
 10
27.287362
 20
416.187492
 30
0.0
 10
26.557112
 20
416.187492
 30
0.0
 10
25.964445
 20
416.780159
 30
0.0
 10
25.964445
 20
417.510409
 30
0.0
  0
SPLINE
  5
21d
100
AcDbEntity
  8
Layer_1
 62
7
100
AcDbSpline
 70
8
 71
3
 72
8
 73
4
 74
0
 40
0
 40
0
 40
0
 40
0
 40
1
 40
1
 40
1
 40
1
 10
25.964445
 20
417.510409
 30
0.0
 10
25.964445
 20
418.240659
 30
0.0
 10
26.557112
 20
418.833325
 30
0.0
 10
27.287362
 20
418.833325
 30
0.0
  0
LWPOLYLINE
  5
21e
100
AcDbEntity
  8
Layer_1
 62
7
100
AcDbPolyline
 90
12
 70
1
 10
0.000000
 20
439.999992
 30
0.0
 10
0.000000
 20
425.130409
 30
0.0
 10
0.000000
 20
420.129770
 30
0.0
 10
0.000000
 20
305.133045
 30
0.0
 10
0.000000
 20
284.998254
 30
0.0
 10
220.071597
 20
284.998254
 30
0.0
 10
220.071597
 20
310.133656
 30
0.0
 10
220.071597
 20
420.129770
 30
0.0
 10
220.071597
 20
425.130409
 30
0.0
 10
220.071597
 20
439.999992
 30
0.0
 10
0.000000
 20
439.999992
 30
0.0
 10
0.000000
 20
439.999992
 30
0.0
  0
SPLINE
  5
21f
100
AcDbEntity
  8
Layer_1
 62
7
100
AcDbSpline
 70
8
 71
3
 72
8
 73
4
 74
0
 40
0
 40
0
 40
0
 40
0
 40
1
 40
1
 40
1
 40
1
 10
191.073264
 20
418.833325
 30
0.0
 10
191.803514
 20
418.833325
 30
0.0
 10
192.396152
 20
418.240659
 30
0.0
 10
192.396209
 20
417.510409
 30
0.0
  0
SPLINE
  5
220
100
AcDbEntity
  8
Layer_1
 62
7
100
AcDbSpline
 70
8
 71
3
 72
8
 73
4
 74
0
 40
0
 40
0
 40
0
 40
0
 40
1
 40
1
 40
1
 40
1
 10
192.396209
 20
417.510409
 30
0.0
 10
192.396209
 20
416.780159
 30
0.0
 10
191.803514
 20
416.187492
 30
0.0
 10
191.073264
 20
416.187492
 30
0.0
  0
SPLINE
  5
221
100
AcDbEntity
  8
Layer_1
 62
7
100
AcDbSpline
 70
8
 71
3
 72
8
 73
4
 74
0
 40
0
 40
0
 40
0
 40
0
 40
1
 40
1
 40
1
 40
1
 10
191.073264
 20
416.187492
 30
0.0
 10
190.343042
 20
416.187492
 30
0.0
 10
189.750319
 20
416.780159
 30
0.0
 10
189.750375
 20
417.510409
 30
0.0
  0
SPLINE
  5
222
100
AcDbEntity
  8
Layer_1
 62
7
100
AcDbSpline
 70
8
 71
3
 72
8
 73
4
 74
0
 40
0
 40
0
 40
0
 40
0
 40
1
 40
1
 40
1
 40
1
 10
189.750375
 20
417.510409
 30
0.0
 10
189.750375
 20
418.240659
 30
0.0
 10
190.343042
 20
418.833325
 30
0.0
 10
191.073264
 20
418.833325
 30
0.0
  0
LWPOLYLINE
  5
223
100
AcDbEntity
  8
Layer_1
 62
7
100
AcDbPolyline
 90
2
 70
1
 10
27.287362
 20
418.833325
 30
0.0
 10
27.287362
 20
418.833325
 30
0.0
  0
LWPOLYLINE
  5
224
100
AcDbEntity
  8
Layer_1
 62
7
100
AcDbPolyline
 90
2
 70
1
 10
191.073264
 20
418.833325
 30
0.0
 10
191.073264
 20
418.833325
 30
0.0
  0
SPLINE
  5
225
100
AcDbEntity
  8
Layer_1
 62
7
100
AcDbSpline
 70
8
 71
3
 72
8
 73
4
 74
0
 40
0
 40
0
 40
0
 40
0
 40
1
 40
1
 40
1
 40
1
 10
27.287362
 20
314.199434
 30
0.0
 10
28.017612
 20
314.199434
 30
0.0
 10
28.610278
 20
313.606768
 30
0.0
 10
28.610278
 20
312.876518
 30
0.0
  0
SPLINE
  5
226
100
AcDbEntity
  8
Layer_1
 62
7
100
AcDbSpline
 70
8
 71
3
 72
8
 73
4
 74
0
 40
0
 40
0
 40
0
 40
0
 40
1
 40
1
 40
1
 40
1
 10
28.610278
 20
312.876518
 30
0.0
 10
28.610278
 20
312.146268
 30
0.0
 10
28.017612
 20
311.553601
 30
0.0
 10
27.287362
 20
311.553601
 30
0.0
  0
SPLINE
  5
227
100
AcDbEntity
  8
Layer_1
 62
7
100
AcDbSpline
 70
8
 71
3
 72
8
 73
4
 74
0
 40
0
 40
0
 40
0
 40
0
 40
1
 40
1
 40
1
 40
1
 10
27.287362
 20
311.553601
 30
0.0
 10
26.557112
 20
311.553601
 30
0.0
 10
25.964445
 20
312.146268
 30
0.0
 10
25.964445
 20
312.876518
 30
0.0
  0
SPLINE
  5
228
100
AcDbEntity
  8
Layer_1
 62
7
100
AcDbSpline
 70
8
 71
3
 72
8
 73
4
 74
0
 40
0
 40
0
 40
0
 40
0
 40
1
 40
1
 40
1
 40
1
 10
25.964445
 20
312.876518
 30
0.0
 10
25.964445
 20
313.606768
 30
0.0
 10
26.557112
 20
314.199434
 30
0.0
 10
27.287362
 20
314.199434
 30
0.0
  0
LWPOLYLINE
  5
229
100
AcDbEntity
  8
Layer_1
 62
7
100
AcDbPolyline
 90
6
 70
1
 10
42.015833
 20
409.572909
 30
0.0
 10
176.688764
 20
409.572909
 30
0.0
 10
176.688764
 20
320.902212
 30
0.0
 10
42.015833
 20
320.902212
 30
0.0
 10
42.015833
 20
409.572909
 30
0.0
 10
42.015833
 20
409.572909
 30
0.0
  0
SPLINE
  5
22a
100
AcDbEntity
  8
Layer_1
 62
7
100
AcDbSpline
 70
8
 71
3
 72
8
 73
4
 74
0
 40
0
 40
0
 40
0
 40
0
 40
1
 40
1
 40
1
 40
1
 10
191.073264
 20
314.199434
 30
0.0
 10
191.803514
 20
314.199434
 30
0.0
 10
192.396152
 20
313.606768
 30
0.0
 10
192.396209
 20
312.876518
 30
0.0
  0
SPLINE
  5
22b
100
AcDbEntity
  8
Layer_1
 62
7
100
AcDbSpline
 70
8
 71
3
 72
8
 73
4
 74
0
 40
0
 40
0
 40
0
 40
0
 40
1
 40
1
 40
1
 40
1
 10
192.396209
 20
312.876518
 30
0.0
 10
192.396209
 20
312.146268
 30
0.0
 10
191.803514
 20
311.553601
 30
0.0
 10
191.073264
 20
311.553601
 30
0.0
  0
SPLINE
  5
22c
100
AcDbEntity
  8
Layer_1
 62
7
100
AcDbSpline
 70
8
 71
3
 72
8
 73
4
 74
0
 40
0
 40
0
 40
0
 40
0
 40
1
 40
1
 40
1
 40
1
 10
191.073264
 20
311.553601
 30
0.0
 10
190.343042
 20
311.553601
 30
0.0
 10
189.750319
 20
312.146268
 30
0.0
 10
189.750375
 20
312.876518
 30
0.0
  0
SPLINE
  5
22d
100
AcDbEntity
  8
Layer_1
 62
7
100
AcDbSpline
 70
8
 71
3
 72
8
 73
4
 74
0
 40
0
 40
0
 40
0
 40
0
 40
1
 40
1
 40
1
 40
1
 10
189.750375
 20
312.876518
 30
0.0
 10
189.750375
 20
313.606768
 30
0.0
 10
190.343042
 20
314.199434
 30
0.0
 10
191.073264
 20
314.199434
 30
0.0
  0
LWPOLYLINE
  5
22e
100
AcDbEntity
  8
Layer_1
 62
7
100
AcDbPolyline
 90
2
 70
1
 10
27.287362
 20
314.199434
 30
0.0
 10
27.287362
 20
314.199434
 30
0.0
  0
LWPOLYLINE
  5
22f
100
AcDbEntity
  8
Layer_1
 62
7
100
AcDbPolyline
 90
2
 70
1
 10
191.073264
 20
314.199434
 30
0.0
 10
191.073264
 20
314.199434
 30
0.0
  0
ENDSEC
  0
SECTION
  2
OBJECTS
  0
DICTIONARY
  5
C
330
0
100
AcDbDictionary
  3
ACAD_GROUP
350
D
  3
ACAD_MLINESTYLE
350
17
  0
DICTIONARY
  5
D
330
C
100
AcDbDictionary
  0
DICTIONARY
  5
1A
330
C
100
AcDbDictionary
  0
DICTIONARY
  5
17
330
C
100
AcDbDictionary
  3
STANDARD
350
18
  0
DICTIONARY
  5
19
330
C
100
AcDbDictionary
  0
ENDSEC
  0
EOF
