<?xml version="1.0" encoding="utf-8"?>
<!-- Generator: Adobe Illustrator 18.1.1, SVG Export Plug-In . SVG Version: 6.00 Build 0)  -->
<svg version="1.1"
	 id="svg2" xmlns:cc="http://creativecommons.org/ns#" xmlns:dc="http://purl.org/dc/elements/1.1/" xmlns:inkscape="http://www.inkscape.org/namespaces/inkscape" xmlns:sodipodi="http://sodipodi.sourceforge.net/DTD/sodipodi-0.dtd" xmlns:svg="http://www.w3.org/2000/svg" xmlns:rdf="http://www.w3.org/1999/02/22-rdf-syntax-ns#" sodipodi:docname="2mm.svg" inkscape:version="0.48.5 r10040"
	 xmlns="http://www.w3.org/2000/svg" xmlns:xlink="http://www.w3.org/1999/xlink" x="0px" y="0px" viewBox="403 -667 1417.3 2126"
	 enable-background="new 403 -667 1417.3 2126" xml:space="preserve">
<sodipodi:namedview  inkscape:zoom="0.7" borderopacity="1.0" inkscape:cx="605.52938" inkscape:cy="1806.6511" showgrid="true" objecttolerance="10000" units="mm" guidetolerance="10000" bordercolor="#666666" pagecolor="#ffffff" id="base" inkscape:window-maximized="0" inkscape:window-y="0" inkscape:window-x="0" inkscape:window-height="856" inkscape:current-layer="layer1" inkscape:document-units="mm" inkscape:pageopacity="0.0" inkscape:window-width="1436" inkscape:pageshadow="2">
	
		<inkscape:grid  type="xygrid" spacingx="1mm" enabled="true" dotted="false" spacingy="1mm" visible="true" units="mm" empspacing="5" id="grid2985" empcolor="#0000ff" empopacity="0.25098039" snapvisiblegridlinesonly="true">
		</inkscape:grid>
</sodipodi:namedview>
<g id="layer1" transform="translate(0,1073.6223)" inkscape:label="Layer 1" inkscape:groupmode="layer">
	<path id="rect3507" inkscape:connector-curvature="0" fill="none" stroke="#000000" stroke-width="1.46" d="M403-1740.6v38.3v12.9
		v283.4v12.9v51.9h567v-51.9v-12.9v-283.4v-12.9v-38.3L403-1740.6L403-1740.6z M483.6-1713.4c1.9,0,3.4,1.5,3.4,3.4h25.2
		c0-1.9,1.5-3.4,3.4-3.4c1.9,0,3.3,1.5,3.3,3.4v7.7c0,1.9-1.5,3.3-3.3,3.3c-1.9,0-3.4-1.5-3.4-3.3H487c0,1.9-1.5,3.3-3.4,3.3
		c-1.9,0-3.4-1.5-3.4-3.3v-7.7C480.3-1711.9,481.8-1713.4,483.6-1713.4z M560.9-1713.4c1.9,0,3.3,1.5,3.3,3.4h25.2
		c0-1.9,1.5-3.4,3.3-3.4c1.9,0,3.4,1.5,3.4,3.4v7.7c0,1.9-1.5,3.3-3.4,3.3c-1.9,0-3.3-1.5-3.3-3.3h-25.2c0,1.9-1.5,3.3-3.3,3.3
		c-1.9,0-3.4-1.5-3.4-3.3v-7.7C557.6-1711.9,559.1-1713.4,560.9-1713.4z M638.2-1713.4c1.9,0,3.4,1.5,3.4,3.4h25.2
		c0-1.9,1.5-3.4,3.4-3.4c1.9,0,3.3,1.5,3.3,3.4v7.7c0,1.9-1.5,3.3-3.3,3.3c-1.9,0-3.4-1.5-3.4-3.3h-25.2c0,1.9-1.5,3.3-3.4,3.3
		c-1.9,0-3.3-1.5-3.3-3.3v-7.7C634.9-1711.9,636.4-1713.4,638.2-1713.4z M702.6-1713.4c1.9,0,3.3,1.5,3.3,3.4h25.2
		c0-1.9,1.5-3.4,3.3-3.4c1.9,0,3.4,1.5,3.4,3.4v7.7c0,1.9-1.5,3.3-3.4,3.3c-1.9,0-3.3-1.5-3.3-3.3H706c0,1.9-1.5,3.3-3.3,3.3
		c-1.9,0-3.4-1.5-3.4-3.3v-7.7C699.3-1711.9,700.8-1713.4,702.6-1713.4z M779.9-1713.4c1.9,0,3.4,1.5,3.4,3.4h25.2
		c0-1.9,1.5-3.4,3.4-3.4c1.9,0,3.4,1.5,3.4,3.4v7.7c0,1.9-1.5,3.3-3.4,3.3c-1.9,0-3.4-1.5-3.4-3.3h-25.2c0,1.9-1.5,3.3-3.4,3.3
		c-1.9,0-3.3-1.5-3.3-3.3v-7.7C776.6-1711.9,778.1-1713.4,779.9-1713.4z M857.2-1713.4c1.9,0,3.4,1.5,3.4,3.4h25.2
		c0-1.9,1.5-3.4,3.4-3.4c1.9,0,3.3,1.5,3.3,3.4v7.7c0,1.9-1.5,3.3-3.3,3.3c-1.9,0-3.4-1.5-3.4-3.3h-25.2c0,1.9-1.5,3.3-3.4,3.3
		c-1.9,0-3.4-1.5-3.4-3.3v-7.7C853.9-1711.9,855.4-1713.4,857.2-1713.4z M473.3-1686c1.9,0,3.4,1.5,3.4,3.4c0,1.9-1.5,3.4-3.4,3.4
		s-3.4-1.5-3.4-3.4C469.9-1684.5,471.4-1686,473.3-1686z M895.3-1686c1.9,0,3.4,1.5,3.4,3.4c0,1.9-1.5,3.4-3.4,3.4
		c-1.9,0-3.4-1.5-3.4-3.4C891.9-1684.5,893.4-1686,895.3-1686z M446.8-1676.5h7.7c1.9,0,3.3,1.5,3.3,3.3c0,1.9-1.5,3.4-3.3,3.4v25.2
		c1.9,0,3.3,1.5,3.3,3.4c0,1.9-1.5,3.4-3.3,3.4h-7.7c-1.9,0-3.3-1.5-3.3-3.4c0-1.9,1.5-3.4,3.3-3.4v-25.2c-1.9,0-3.3-1.5-3.3-3.4
		C443.4-1675,444.9-1676.5,446.8-1676.5z M918.3-1676.5h7.7c1.9,0,3.4,1.5,3.4,3.3c0,1.9-1.5,3.4-3.4,3.4v25.2
		c1.9,0,3.4,1.5,3.4,3.4c0,1.9-1.5,3.4-3.4,3.4h-7.7c-1.9,0-3.4-1.5-3.4-3.4c0-1.9,1.5-3.4,3.4-3.4v-25.2c-1.9,0-3.4-1.5-3.4-3.4
		C914.9-1675,916.4-1676.5,918.3-1676.5z M511.3-1662.2h347v228.5h-347V-1662.2z M446.8-1599.2h7.7c1.9,0,3.3,1.5,3.3,3.4
		c0,1.9-1.5,3.3-3.3,3.3v25.2c1.9,0,3.3,1.5,3.3,3.4c0,1.9-1.5,3.3-3.3,3.3h-7.7c-1.9,0-3.3-1.5-3.3-3.3c0-1.9,1.5-3.4,3.3-3.4
		v-25.2c-1.9,0-3.3-1.5-3.3-3.3C443.4-1597.7,444.9-1599.2,446.8-1599.2z M918.3-1599.2h7.7c1.9,0,3.4,1.5,3.4,3.4
		c0,1.9-1.5,3.3-3.4,3.3v25.2c1.9,0,3.4,1.5,3.4,3.4c0,1.9-1.5,3.3-3.4,3.3h-7.7c-1.9,0-3.4-1.5-3.4-3.3c0-1.9,1.5-3.4,3.4-3.4
		v-25.2c-1.9,0-3.4-1.5-3.4-3.3C914.9-1597.7,916.4-1599.2,918.3-1599.2z M446.8-1534.8h7.7c1.9,0,3.3,1.5,3.3,3.4
		c0,1.9-1.5,3.3-3.3,3.3v25.2c1.9,0,3.3,1.5,3.3,3.3c0,1.9-1.5,3.4-3.3,3.4h-7.7c-1.9,0-3.3-1.5-3.3-3.4c0-1.9,1.5-3.3,3.3-3.3
		v-25.2c-1.9,0-3.3-1.5-3.3-3.3C443.4-1533.3,444.9-1534.8,446.8-1534.8z M918.3-1534.8h7.7c1.9,0,3.4,1.5,3.4,3.4
		c0,1.9-1.5,3.3-3.4,3.3v25.2c1.9,0,3.4,1.5,3.4,3.3c0,1.9-1.5,3.4-3.4,3.4h-7.7c-1.9,0-3.4-1.5-3.4-3.4c0-1.9,1.5-3.3,3.4-3.3
		v-25.2c-1.9,0-3.4-1.5-3.4-3.3C914.9-1533.3,916.4-1534.8,918.3-1534.8z M446.8-1457.5h7.7c1.9,0,3.3,1.5,3.3,3.3
		c0,1.9-1.5,3.4-3.3,3.4v25.2c1.9,0,3.3,1.5,3.3,3.4c0,1.9-1.5,3.3-3.3,3.3h-7.7c-1.9,0-3.3-1.5-3.3-3.3c0-1.9,1.5-3.4,3.3-3.4
		v-25.2c-1.9,0-3.3-1.5-3.3-3.4C443.4-1456,444.9-1457.5,446.8-1457.5z M918.3-1457.5h7.7c1.9,0,3.4,1.5,3.4,3.3
		c0,1.9-1.5,3.4-3.4,3.4v25.2c1.9,0,3.4,1.5,3.4,3.4c0,1.9-1.5,3.3-3.4,3.3h-7.7c-1.9,0-3.4-1.5-3.4-3.3c0-1.9,1.5-3.4,3.4-3.4
		v-25.2c-1.9,0-3.4-1.5-3.4-3.4C914.9-1456,916.4-1457.5,918.3-1457.5z M473.3-1416.5c1.9,0,3.4,1.5,3.4,3.4s-1.5,3.4-3.4,3.4
		s-3.4-1.5-3.4-3.4S471.4-1416.5,473.3-1416.5z M895.3-1416.5c1.9,0,3.4,1.5,3.4,3.4s-1.5,3.4-3.4,3.4c-1.9,0-3.4-1.5-3.4-3.4
		S893.4-1416.5,895.3-1416.5z M483.7-1396.5c1.9,0,3.4,1.5,3.4,3.4h25c0-1.9,1.5-3.4,3.4-3.4s3.4,1.5,3.4,3.4v7.7
		c0,1.9-1.5,3.4-3.4,3.4s-3.4-1.5-3.4-3.4h-25c0,1.9-1.5,3.4-3.4,3.4c-1.9,0-3.4-1.5-3.4-3.4v-7.7
		C480.3-1395,481.8-1396.5,483.7-1396.5z M561-1396.5c1.9,0,3.4,1.5,3.4,3.4h25c0-1.9,1.5-3.4,3.4-3.4s3.4,1.5,3.4,3.4v7.7
		c0,1.9-1.5,3.4-3.4,3.4s-3.4-1.5-3.4-3.4h-25c0,1.9-1.5,3.4-3.4,3.4c-1.9,0-3.4-1.5-3.4-3.4v-7.7
		C557.6-1395,559.1-1396.5,561-1396.5L561-1396.5z M638.3-1396.5c1.9,0,3.4,1.5,3.4,3.4h25c0-1.9,1.5-3.4,3.4-3.4
		c1.9,0,3.4,1.5,3.4,3.4v7.7c0,1.9-1.5,3.4-3.4,3.4c-1.9,0-3.4-1.5-3.4-3.4h-25c0,1.9-1.5,3.4-3.4,3.4c-1.9,0-3.4-1.5-3.4-3.4v-7.7
		C634.9-1395,636.4-1396.5,638.3-1396.5z M702.7-1396.5c1.9,0,3.4,1.5,3.4,3.4h25c0-1.9,1.5-3.4,3.4-3.4c1.9,0,3.4,1.5,3.4,3.4v7.7
		c0,1.9-1.5,3.4-3.4,3.4c-1.9,0-3.4-1.5-3.4-3.4h-25c0,1.9-1.5,3.4-3.4,3.4s-3.4-1.5-3.4-3.4v-7.7
		C699.3-1395,700.8-1396.5,702.7-1396.5z M780-1396.5c1.9,0,3.4,1.5,3.4,3.4h25c0-1.9,1.5-3.4,3.4-3.4s3.4,1.5,3.4,3.4v7.7
		c0,1.9-1.5,3.4-3.4,3.4s-3.4-1.5-3.4-3.4h-25c0,1.9-1.5,3.4-3.4,3.4c-1.9,0-3.4-1.5-3.4-3.4v-7.7
		C776.6-1395,778.1-1396.5,780-1396.5z M857.3-1396.5c1.9,0,3.4,1.5,3.4,3.4h25c0-1.9,1.5-3.4,3.4-3.4c1.9,0,3.4,1.5,3.4,3.4v7.7
		c0,1.9-1.5,3.4-3.4,3.4c-1.9,0-3.4-1.5-3.4-3.4h-25c0,1.9-1.5,3.4-3.4,3.4s-3.4-1.5-3.4-3.4v-7.7
		C853.9-1395,855.4-1396.5,857.3-1396.5z"/>
	<path id="rect3619" inkscape:connector-curvature="0" fill="none" stroke="#000000" stroke-width="1.46" d="M403-1328.4v38.3v12.9
		v296.3v51.9h567v-64.8v-283.4v-12.9v-38.3L403-1328.4L403-1328.4z M473.3-1273.8c1.9,0,3.4,1.5,3.4,3.4s-1.5,3.4-3.4,3.4
		s-3.4-1.5-3.4-3.4S471.4-1273.8,473.3-1273.8z M895.3-1273.8c1.9,0,3.4,1.5,3.4,3.4c0,1.9-1.5,3.4-3.4,3.4c-1.9,0-3.4-1.5-3.4-3.4
		C891.9-1272.3,893.4-1273.8,895.3-1273.8z M511.3-1250h347v228.5h-347V-1250z M473.3-1004.2c1.9,0,3.4,1.5,3.4,3.4
		s-1.5,3.4-3.4,3.4s-3.4-1.5-3.4-3.4S471.4-1004.2,473.3-1004.2z M895.3-1004.2c1.9,0,3.4,1.5,3.4,3.4c0,1.9-1.5,3.4-3.4,3.4
		c-1.9,0-3.4-1.5-3.4-3.4C891.9-1002.7,893.4-1004.2,895.3-1004.2z"/>
</g>
</svg>
