<?xml version="1.0" encoding="utf-8"?>
<!-- Generator: Adobe Illustrator 18.1.1, SVG Export Plug-In . SVG Version: 6.00 Build 0)  -->
<svg version="1.1"
	 id="svg2" sodipodi:docname="3mm.dxf" inkscape:version="0.48.5 r10040" xmlns:rdf="http://www.w3.org/1999/02/22-rdf-syntax-ns#" xmlns:svg="http://www.w3.org/2000/svg" xmlns:sodipodi="http://sodipodi.sourceforge.net/DTD/sodipodi-0.dtd" xmlns:inkscape="http://www.inkscape.org/namespaces/inkscape" xmlns:dc="http://purl.org/dc/elements/1.1/" xmlns:cc="http://creativecommons.org/ns#"
	 xmlns="http://www.w3.org/2000/svg" xmlns:xlink="http://www.w3.org/1999/xlink" x="0px" y="0px" viewBox="0 0 612 792"
	 enable-background="new 0 0 612 792" xml:space="preserve">
<sodipodi:namedview  inkscape:document-units="mm" inkscape:pageopacity="0.0" inkscape:current-layer="layer1" inkscape:pageshadow="2" inkscape:window-maximized="0" inkscape:window-y="0" inkscape:window-x="0" inkscape:window-height="856" inkscape:window-width="1436" inkscape:cy="1860.5151" inkscape:cx="662.67224" inkscape:zoom="0.7" borderopacity="1.0" showgrid="true" pagecolor="#ffffff" bordercolor="#666666" guidetolerance="10000" units="mm" id="base" objecttolerance="10000">
	
		<inkscape:grid  snapvisiblegridlinesonly="true" empspacing="5" enabled="true" visible="true" empopacity="0.25098039" empcolor="#0000ff" type="xygrid" units="mm" id="grid2985" dotted="false" spacingy="1mm" spacingx="1mm">
		</inkscape:grid>
</sodipodi:namedview>
<g id="layer1" transform="translate(0,1073.6223)" inkscape:groupmode="layer" inkscape:label="Layer 1">
	<path id="rect3002" inkscape:connector-curvature="0" fill="none" stroke="#000000" stroke-width="1.46" d="M0-1073.6v13.2v0.3
		v151.8v6.3v13.2h264v-19.5v-152.1v-13.2H0z M28.1-1065.8c0.9,0,1.5,0.6,1.7,1.4h13c0.1-0.8,0.9-1.4,1.7-1.4c0.8,0,1.5,0.6,1.7,1.4
		h0v3.9h0c0,0.1,0,0.2,0,0.3c0,0.9-0.7,1.7-1.7,1.7s-1.7-0.8-1.7-1.7c0-0.1,0-0.2,0-0.3h-13c0,0.1,0,0.2,0,0.3
		c0,0.9-0.8,1.7-1.7,1.7s-1.7-0.8-1.7-1.7c0-0.1,0-0.2,0-0.3h0v-3.7v-0.3h0C26.6-1065.2,27.3-1065.8,28.1-1065.8L28.1-1065.8z
		 M67.7-1065.8c0.9,0,1.5,0.6,1.7,1.4h13c0.1-0.8,0.8-1.4,1.7-1.4c0.9,0,1.5,0.6,1.7,1.4h0v3.9h0c0,0.1,0,0.2,0,0.3
		c0,0.9-0.8,1.7-1.7,1.7c-0.9,0-1.7-0.8-1.7-1.7c0-0.1,0-0.2,0-0.3h-13c0,0.1,0,0.2,0,0.3c0,0.9-0.7,1.7-1.7,1.7
		c-1,0-1.7-0.8-1.7-1.7c0-0.1,0-0.2,0-0.3h0v-3.7v-0.3h0C66.2-1065.2,66.9-1065.8,67.7-1065.8L67.7-1065.8z M107.3-1065.8
		c0.9,0,1.5,0.6,1.7,1.4h13c0.1-0.8,0.9-1.4,1.7-1.4s1.5,0.6,1.7,1.4h0v3.9h0c0,0.1,0,0.2,0,0.3c0,0.9-0.7,1.7-1.7,1.7
		c-1,0-1.7-0.8-1.7-1.7c0-0.1,0-0.2,0-0.3h-13c0,0.1,0,0.2,0,0.3c0,0.9-0.8,1.7-1.7,1.7c-0.9,0-1.7-0.8-1.7-1.7c0-0.1,0-0.2,0-0.3h0
		v-3.7v-0.3h0C105.8-1065.2,106.5-1065.8,107.3-1065.8L107.3-1065.8z M140.3-1065.8c0.9,0,1.5,0.6,1.7,1.4h13
		c0.1-0.8,0.8-1.4,1.7-1.4c0.9,0,1.5,0.6,1.7,1.4h0v3.9h0c0,0.1,0,0.2,0,0.3c0,0.9-0.8,1.7-1.7,1.7c-0.9,0-1.7-0.8-1.7-1.7
		c0-0.1,0-0.2,0-0.3h-13c0,0.1,0,0.2,0,0.3c0,0.9-0.7,1.7-1.7,1.7s-1.7-0.8-1.7-1.7c0-0.1,0-0.2,0-0.3h-0.1v-3.7v-0.3h0
		C138.8-1065.2,139.5-1065.8,140.3-1065.8L140.3-1065.8z M179.9-1065.8c0.9,0,1.5,0.6,1.7,1.4h13c0.1-0.8,0.9-1.4,1.7-1.4
		c0.8,0,1.5,0.6,1.7,1.4h0v3.9h0c0,0.1,0,0.2,0,0.3c0,0.9-0.8,1.7-1.7,1.7s-1.7-0.8-1.7-1.7c0-0.1,0-0.2,0-0.3h-13
		c0,0.1,0,0.2,0,0.3c0,0.9-0.8,1.7-1.7,1.7c-0.9,0-1.7-0.8-1.7-1.7c0-0.1,0-0.2,0-0.3h0v-3.7v-0.3h0
		C178.4-1065.2,179.1-1065.8,179.9-1065.8L179.9-1065.8z M219.5-1065.8c0.9,0,1.5,0.6,1.7,1.4h13c0.1-0.8,0.9-1.4,1.7-1.4
		s1.5,0.6,1.7,1.4h0v0.3v3.7h0c0,0.1,0,0.2,0,0.3c0,0.9-0.7,1.7-1.7,1.7c-0.9,0-1.7-0.8-1.7-1.7c0-0.1,0-0.2,0-0.3h-13
		c0,0.1,0,0.2,0,0.3c0,0.9-0.8,1.7-1.7,1.7c-0.9,0-1.7-0.8-1.7-1.7c0-0.1,0-0.2,0-0.3h0v-3.9h0
		C218-1065.2,218.7-1065.8,219.5-1065.8L219.5-1065.8z M94.5-1057.3c0.9,0,1.6,0.7,1.6,1.6c0,0.9-0.7,1.6-1.6,1.6s-1.6-0.7-1.6-1.6
		C92.8-1056.6,93.6-1057.3,94.5-1057.3z M173.3-1056.8c0.9,0,1.6,0.7,1.6,1.6s-0.7,1.6-1.6,1.6c-0.9,0-1.6-0.7-1.6-1.6
		S172.4-1056.8,173.3-1056.8z M9.2-1047.2h4v0.3c0.9,0,1.7,0.7,1.7,1.7c0,0.9-0.7,1.7-1.7,1.7v12.9c0.9,0,1.7,0.8,1.7,1.7
		c0,0.9-0.7,1.7-1.7,1.7c-0.4,0-0.7-0.1-1-0.3h-2c-0.3,0.2-0.6,0.3-1,0.3c-0.9,0-1.7-0.8-1.7-1.7c0-0.9,0.7-1.7,1.7-1.7v-12.9
		c-0.9,0-1.7-0.8-1.7-1.7c0-0.9,0.7-1.7,1.7-1.7V-1047.2z M250.8-1047.2h3.9v0.3c0.9,0,1.7,0.7,1.7,1.7c0,0.9-0.8,1.7-1.7,1.7v12.9
		c0.9,0,1.7,0.8,1.7,1.7c0,0.9-0.8,1.7-1.7,1.7c-0.4,0-0.7-0.1-1-0.3h-2c-0.3,0.2-0.6,0.3-1,0.3c-0.9,0-1.7-0.8-1.7-1.7
		c0-0.9,0.8-1.7,1.7-1.7v-12.9c-0.9,0-1.7-0.8-1.7-1.7c0-0.9,0.8-1.7,1.7-1.7V-1047.2z M74-1039.2c0.1,0,0.1,0,0.2,0
		c1,0,1.9,0.8,1.9,1.9c0,0.2,0,0.3-0.1,0.5v2.9c1.2,0.6,1.9,1.9,1.9,3.3c0,2.1-1.7,3.8-3.8,3.8c-2.1,0-3.8-1.7-3.8-3.8
		c0-1.5,0.8-2.7,2-3.4v-2.9c0-0.1-0.1-0.3-0.1-0.5C72.3-1038.3,73.1-1039.1,74-1039.2z M189.5-1039.2c0.1,0,0.1,0,0.2,0
		c1,0,1.9,0.8,1.9,1.9c0,0.2,0,0.3-0.1,0.5v2.9c1.2,0.6,1.9,1.9,1.9,3.3c0,2.1-1.7,3.8-3.8,3.8c-2.1,0-3.8-1.7-3.8-3.8
		c0-1.5,0.8-2.7,2-3.4v-2.9c0-0.1-0.1-0.3-0.1-0.5C187.8-1038.3,188.5-1039.1,189.5-1039.2z M21.4-1030.8c0.9,0,1.7,0.7,1.7,1.7
		c0,1-0.8,1.7-1.7,1.7c-0.9,0-1.7-0.8-1.7-1.7C19.7-1030,20.5-1030.8,21.4-1030.8z M83-1013.5c0.9,0,1.6,0.7,1.6,1.6
		c0,0.9-0.7,1.6-1.6,1.6s-1.6-0.7-1.6-1.6C81.4-1012.7,82.1-1013.5,83-1013.5z M9.2-1007.6h4v0.3c0.9,0,1.7,0.8,1.7,1.7
		c0,0.9-0.7,1.7-1.7,1.7v12.9c0.9,0,1.7,0.8,1.7,1.7s-0.7,1.7-1.7,1.7c-0.4,0-0.7-0.1-1-0.3h-2c-0.3,0.2-0.6,0.3-1,0.3
		c-0.9,0-1.7-0.7-1.7-1.7s0.7-1.7,1.7-1.7v-12.9c-0.9,0-1.7-0.8-1.7-1.7c0-0.9,0.7-1.7,1.7-1.7V-1007.6z M250.8-1007.6h3.9v0.3
		c0.9,0,1.7,0.8,1.7,1.7c0,0.9-0.8,1.7-1.7,1.7v12.9c0.9,0,1.7,0.8,1.7,1.7s-0.8,1.7-1.7,1.7c-0.4,0-0.7-0.1-1-0.3h-2
		c-0.3,0.2-0.6,0.3-1,0.3c-0.9,0-1.7-0.7-1.7-1.7s0.8-1.7,1.7-1.7v-12.9c-0.9,0-1.7-0.8-1.7-1.7c0-0.9,0.8-1.7,1.7-1.7V-1007.6z
		 M9.2-974.6h4v0.3c0.9,0,1.7,0.8,1.7,1.7s-0.7,1.7-1.7,1.7v12.9c0.9,0,1.7,0.7,1.7,1.7s-0.7,1.7-1.7,1.7c-0.4,0-0.7-0.1-1-0.3h-2
		c-0.3,0.2-0.6,0.3-1,0.3c-0.9,0-1.7-0.8-1.7-1.7s0.7-1.7,1.7-1.7v-12.9c-0.9,0-1.7-0.7-1.7-1.7s0.7-1.7,1.7-1.7V-974.6z
		 M250.8-974.6h3.9v0.3c0.9,0,1.7,0.8,1.7,1.7s-0.8,1.7-1.7,1.7v12.9c0.9,0,1.7,0.7,1.7,1.7s-0.8,1.7-1.7,1.7c-0.4,0-0.7-0.1-1-0.3
		h-2c-0.3,0.2-0.6,0.3-1,0.3c-0.9,0-1.7-0.8-1.7-1.7s0.8-1.7,1.7-1.7v-12.9c-0.9,0-1.7-0.7-1.7-1.7s0.8-1.7,1.7-1.7V-974.6z
		 M21.4-970.6c0.9,0,1.7,0.7,1.7,1.7c0,1-0.8,1.7-1.7,1.7c-0.9,0-1.7-0.8-1.7-1.7C19.7-969.8,20.5-970.6,21.4-970.6z M93.7-956.2
		c0.9,0,1.7,0.7,1.7,1.7s-0.7,1.7-1.7,1.7s-1.7-0.7-1.7-1.7S92.8-956.2,93.7-956.2z M173.2-943.9c0.9,0,1.7,0.7,1.7,1.7
		s-0.7,1.6-1.7,1.6c-0.9,0-1.6-0.7-1.6-1.6C171.5-943.2,172.2-943.9,173.2-943.9z M83-936.9c0.9,0,1.6,0.7,1.6,1.6
		c0,0.9-0.7,1.6-1.6,1.6s-1.6-0.7-1.6-1.6C81.4-936.2,82.1-936.9,83-936.9z M147.7-936.9c0.9,0,1.6,0.7,1.6,1.6
		c0,0.9-0.7,1.6-1.6,1.6c-0.9,0-1.6-0.7-1.6-1.6C146-936.2,146.8-936.9,147.7-936.9z M9.2-935h4v0.3c0.9,0,1.7,0.7,1.7,1.7
		s-0.7,1.7-1.7,1.7v12.9c0.9,0,1.7,0.8,1.7,1.7s-0.7,1.7-1.7,1.7c-0.4,0-0.7-0.1-1-0.3h-2c-0.3,0.2-0.6,0.3-1,0.3
		c-0.9,0-1.7-0.7-1.7-1.7s0.7-1.7,1.7-1.7v-12.9c-0.9,0-1.7-0.8-1.7-1.7s0.7-1.7,1.7-1.7V-935z M250.8-935h3.9v0.3
		c0.9,0,1.7,0.7,1.7,1.7s-0.8,1.7-1.7,1.7v12.9c0.9,0,1.7,0.8,1.7,1.7s-0.8,1.7-1.7,1.7c-0.4,0-0.7-0.1-1-0.3h-2
		c-0.3,0.2-0.6,0.3-1,0.3c-0.9,0-1.7-0.7-1.7-1.7s0.8-1.7,1.7-1.7v-12.9c-0.9,0-1.7-0.8-1.7-1.7s0.8-1.7,1.7-1.7V-935z M28.1-903.4
		c0.9,0,1.5,0.6,1.7,1.4h13c0.1-0.8,0.9-1.4,1.7-1.4c0.8,0,1.5,0.6,1.7,1.4h0v3.9h0c0,0.1,0,0.2,0,0.3c0,0.9-0.7,1.7-1.7,1.7
		s-1.7-0.8-1.7-1.7c0-0.1,0-0.2,0-0.3h-13c0,0.1,0,0.2,0,0.3c0,0.9-0.8,1.7-1.7,1.7s-1.7-0.8-1.7-1.7c0-0.1,0-0.2,0-0.3h0v-3.7v-0.3
		h0C26.6-902.8,27.3-903.4,28.1-903.4L28.1-903.4z M67.7-903.4c0.9,0,1.5,0.6,1.7,1.4h13c0.1-0.8,0.8-1.4,1.7-1.4
		c0.9,0,1.5,0.6,1.7,1.4h0v3.9h0c0,0.1,0,0.2,0,0.3c0,0.9-0.8,1.7-1.7,1.7c-0.9,0-1.7-0.8-1.7-1.7c0-0.1,0-0.2,0-0.3h-13
		c0,0.1,0,0.2,0,0.3c0,0.9-0.7,1.7-1.7,1.7c-1,0-1.7-0.8-1.7-1.7c0-0.1,0-0.2,0-0.3h0v-3.7v-0.3h0C66.2-902.8,66.9-903.4,67.7-903.4
		L67.7-903.4z M107.3-903.4c0.9,0,1.5,0.6,1.7,1.4h13c0.1-0.8,0.9-1.4,1.7-1.4s1.5,0.6,1.7,1.4h0v3.9h0c0,0.1,0,0.2,0,0.3
		c0,0.9-0.7,1.7-1.7,1.7c-1,0-1.7-0.8-1.7-1.7c0-0.1,0-0.2,0-0.3h-13c0,0.1,0,0.2,0,0.3c0,0.9-0.8,1.7-1.7,1.7
		c-0.9,0-1.7-0.8-1.7-1.7c0-0.1,0-0.2,0-0.3h0v-3.7v-0.3h0C105.8-902.8,106.5-903.4,107.3-903.4L107.3-903.4z M140.3-903.4
		c0.9,0,1.5,0.6,1.7,1.4h13c0.1-0.8,0.8-1.4,1.7-1.4c0.9,0,1.5,0.6,1.7,1.4h0v3.9h0c0,0.1,0,0.2,0,0.3c0,0.9-0.8,1.7-1.7,1.7
		c-0.9,0-1.7-0.8-1.7-1.7c0-0.1,0-0.2,0-0.3h-13c0,0.1,0,0.2,0,0.3c0,0.9-0.7,1.7-1.7,1.7s-1.7-0.8-1.7-1.7c0-0.1,0-0.2,0-0.3h-0.1
		v-3.7v-0.3h0C138.8-902.8,139.5-903.4,140.3-903.4L140.3-903.4z M179.9-903.4c0.9,0,1.5,0.6,1.7,1.4h13c0.1-0.8,0.9-1.4,1.7-1.4
		c0.8,0,1.5,0.6,1.7,1.4h0v3.9h0c0,0.1,0,0.2,0,0.3c0,0.9-0.8,1.7-1.7,1.7s-1.7-0.8-1.7-1.7c0-0.1,0-0.2,0-0.3h-13
		c0,0.1,0,0.2,0,0.3c0,0.9-0.8,1.7-1.7,1.7c-0.9,0-1.7-0.8-1.7-1.7c0-0.1,0-0.2,0-0.3h0v-3.7v-0.3h0
		C178.4-902.8,179.1-903.4,179.9-903.4L179.9-903.4z M219.5-903.4c0.9,0,1.5,0.6,1.7,1.4h13c0.1-0.8,0.9-1.4,1.7-1.4
		s1.5,0.6,1.7,1.4h0v3.9h0c0,0.1,0,0.2,0,0.3c0,0.9-0.7,1.7-1.7,1.7c-0.9,0-1.7-0.8-1.7-1.7c0-0.1,0-0.2,0-0.3h-13
		c0,0.1,0,0.2,0,0.3c0,0.9-0.8,1.7-1.7,1.7c-0.9,0-1.7-0.8-1.7-1.7c0-0.1,0-0.2,0-0.3h0v-3.7v-0.3h0
		C218-902.8,218.7-903.4,219.5-903.4L219.5-903.4z"/>
	<path id="rect3266" inkscape:connector-curvature="0" fill="none" stroke="#000000" stroke-width="0.851" d="M26.2-802.4v3.9v0.3h0
		c-0.1,0.8-0.8,1.4-1.7,1.4c-0.9,0-1.5-0.6-1.7-1.4H13v16.1c0.9,0,1.7,0.7,1.7,1.7s-0.7,1.7-1.7,1.7H9v26.4h4c0.9,0,1.7,0.8,1.7,1.7
		s-0.7,1.7-1.7,1.7v16.4h9.8c0-0.9,0.8-1.7,1.7-1.7c0.9,0,1.7,0.7,1.7,1.7v3.9H46v-3.9c0-0.9,0.8-1.7,1.7-1.7c0.9,0,1.7,0.7,1.7,1.7
		h12.9c0-0.9,0.7-1.7,1.7-1.7c1,0,1.7,0.7,1.7,1.7v3.9h19.8v-3.9h0.1c0-0.9,0.7-1.7,1.7-1.7c1,0,1.7,0.7,1.7,1.7h12.6
		c0-1,0.9-1.9,1.9-1.9s1.9,0.9,1.9,1.9v3.9h19.8v-3.6c0-0.1,0-0.3,0-0.4c0-0.9,0.7-1.7,1.7-1.7c1,0,1.7,0.7,1.7,1.7h6.4
		c0-0.9,0.8-1.7,1.7-1.7c0.9,0,1.7,0.7,1.7,1.7v3.9h19.8v-3.9c0-0.9,0.8-1.7,1.7-1.7c0.9,0,1.7,0.7,1.7,1.7h12.9
		c0-0.9,0.7-1.7,1.7-1.7c1,0,1.7,0.7,1.7,1.7v3.9h19.8v-3.9c0-0.9,0.7-1.7,1.7-1.7c1,0,1.7,0.7,1.7,1.7h12.9c0-0.9,0.8-1.7,1.7-1.7
		c0.9,0,1.7,0.7,1.7,1.7v3.9h19.8v-3.9c0-0.9,0.8-1.7,1.7-1.7c0.9,0,1.7,0.7,1.7,1.7h9.5v-16.4c-0.8-0.1-1.4-0.9-1.4-1.7
		s0.6-1.5,1.4-1.7v0h0.3h3.9v-26.4h-3.9h-0.3v0c-0.8-0.1-1.4-0.9-1.4-1.7c0-0.9,0.6-1.5,1.4-1.7v-16.1h-9.5
		c-0.1,0.8-0.8,1.4-1.7,1.4s-1.5-0.6-1.7-1.4h0v-0.3v-3.9h-19.8v3.9v0.3h0c-0.1,0.8-0.8,1.4-1.7,1.4c-0.9,0-1.5-0.6-1.7-1.4h-13
		c-0.1,0.8-0.9,1.4-1.7,1.4c-0.9,0-1.5-0.6-1.7-1.4h0v-0.3v-3.9H178v3.9v0.3h0c-0.1,0.8-0.9,1.4-1.7,1.4c-0.9,0-1.5-0.6-1.7-1.4h-13
		c-0.1,0.8-0.8,1.4-1.7,1.4c-0.9,0-1.5-0.6-1.7-1.4h0v-0.3v-3.9h-19.8v3.9v0.3h0c-0.1,0.8-0.8,1.4-1.7,1.4c-0.9,0-1.5-0.6-1.7-1.4
		h-6.4c-0.1,0.8-0.9,1.4-1.7,1.4c-0.9,0-1.5-0.6-1.7-1.4h0v-0.3v-3.9h-19.8v3.9v0.3h0c-0.1,0.8-0.9,1.4-1.7,1.4s-1.5-0.6-1.7-1.4H89
		c-0.1,0.8-0.9,1.4-1.7,1.4c-0.8,0-1.5-0.6-1.7-1.4h0v-0.3v-3.9H65.8v3.9v0.3h0c-0.1,0.8-0.9,1.4-1.7,1.4c-0.9,0-1.5-0.6-1.7-1.4
		h-13c-0.1,0.8-0.8,1.4-1.7,1.4s-1.5-0.6-1.7-1.4h0v-0.3v-3.9L26.2-802.4L26.2-802.4z"/>
	<path id="rect3353" inkscape:connector-curvature="0" fill="none" stroke="#000000" d="M354.7-1061v3.9v6.6v3.2
		c0.8,0.1,1.5,0.8,1.5,1.7s-0.6,1.6-1.5,1.7v0h-0.2h-3.7v19.8h3.7h0.2v0c0.8,0.1,1.5,0.8,1.5,1.7s-0.6,1.6-1.5,1.7v13
		c0.8,0.1,1.5,0.8,1.5,1.7c0,0.9-0.6,1.6-1.5,1.7v0h-0.2H351v19.9h2.9c0.1,0,0.3-0.1,0.5-0.1c0.9,0,1.7,0.8,1.7,1.7
		c0,0.9-0.6,1.6-1.5,1.7v6.4c0.8,0.1,1.5,0.8,1.5,1.7c0,0.9-0.6,1.6-1.5,1.7v0h-0.2H351v19.9h2.9c0.2-0.1,0.4-0.1,0.6-0.1
		c0.9,0,1.7,0.7,1.7,1.7c0,0.9-0.6,1.6-1.5,1.7v13c0.8,0.1,1.5,0.8,1.5,1.7c0,0.9-0.6,1.6-1.5,1.7v0h-0.2H351v19.9h2.9
		c0.2,0,0.3-0.1,0.5-0.1c0.9,0,1.7,0.8,1.7,1.7c0,0.9-0.6,1.6-1.5,1.7v3.2v6.6v3.9h19.8v-3.1c-0.1-0.3-0.2-0.5-0.2-0.8
		c0-0.9,0.8-1.7,1.7-1.7c0.9,0,1.7,0.7,1.7,1.7h19.5c0-0.9,0.7-1.7,1.7-1.7c0.9,0,1.7,0.7,1.7,1.7h0.2v3.9h19.8v-3.9v-6.6v-3.2
		c-0.1,0-0.1,0-0.2,0c-0.9,0-1.7-0.8-1.7-1.7s0.8-1.7,1.7-1.7c0.2,0,0.4,0,0.5,0.1h3.2v-19.9h-3.4v0c-0.1,0-0.1,0-0.2,0
		c-0.9,0-1.7-0.8-1.7-1.7s0.8-1.7,1.7-1.7c0.1,0,0.1,0,0.2,0v-13c-0.1,0-0.1,0-0.2,0c-0.9,0-1.7-0.8-1.7-1.7s0.8-1.7,1.7-1.7
		c0.2,0,0.4,0,0.6,0.1h3.1V-971h-3.4v0c-0.1,0-0.1,0-0.2,0c-0.9,0-1.7-0.8-1.7-1.7s0.8-1.7,1.7-1.7c0.1,0,0.1,0,0.2,0v-6.4
		c-0.1,0-0.1,0-0.2,0c-0.9,0-1.7-0.7-1.7-1.7s0.8-1.7,1.7-1.7c0.2,0,0.4,0,0.5,0.1h3.2v-19.9h-3.4v0c-0.1,0-0.1,0-0.2,0
		c-0.9,0-1.7-0.7-1.7-1.7s0.8-1.7,1.7-1.7c0.1,0,0.1,0,0.2,0v-13c-0.1,0-0.1,0-0.2,0c-0.9,0-1.7-0.8-1.7-1.7c0-0.9,0.8-1.7,1.7-1.7
		c0.1,0,0.1,0,0.2,0v0h3.7v-19.8h-3.7v0c-0.1,0-0.1,0-0.2,0c-0.9,0-1.7-0.8-1.7-1.7s0.8-1.7,1.7-1.7c0.1,0,0.1,0,0.2,0v-3.2v-6.6
		v-3.9h-19.8v3.9h-0.2c0,0.9-0.8,1.7-1.7,1.7s-1.7-0.8-1.7-1.7h-19.3c0,0.9-0.7,1.7-1.7,1.7c-0.9,0-1.7-0.8-1.7-1.7
		c0-0.1,0-0.3,0-0.4v-3.6L354.7-1061L354.7-1061z"/>
	<path id="rect3369" inkscape:connector-curvature="0" fill="none" stroke="#000000" d="M277.2-1061.2v10.5v3.2
		c0.8,0.1,1.4,0.9,1.4,1.7c0,0.8-0.6,1.5-1.4,1.7v0h-0.3h-3.9v19.8h3.9h0.3v0c0.8,0.1,1.4,0.9,1.4,1.7c0,0.8-0.6,1.5-1.4,1.7v13
		c0.8,0.1,1.4,0.9,1.4,1.7c0,0.8-0.6,1.5-1.4,1.7v0h-0.3h-3.7v19.9h3.2c0.2,0,0.3-0.1,0.5-0.1c0.9,0,1.7,0.8,1.7,1.7
		c0,0.8-0.6,1.5-1.4,1.7v6.4c0.8,0.1,1.4,0.9,1.4,1.7c0,0.8-0.6,1.5-1.4,1.7v0h-0.3h-3.7v19.9h3.1c0.2-0.1,0.3-0.1,0.6-0.1
		c0.9,0,1.7,0.7,1.7,1.7c0,0.8-0.6,1.5-1.4,1.7v13c0.8,0.1,1.4,0.9,1.4,1.7c0,0.8-0.6,1.5-1.4,1.7v0h-0.3h-3.7v19.9h3.2
		c0.2,0,0.3-0.1,0.5-0.1c0.9,0,1.7,0.8,1.7,1.7c0,0.8-0.6,1.5-1.4,1.7v9.8v3.9H297v-3.6c0-0.1,0-0.2,0-0.3c0-0.9,0.7-1.7,1.7-1.7
		c0.9,0,1.7,0.7,1.7,1.7H320c0-0.9,0.8-1.7,1.7-1.7s1.7,0.7,1.7,1.7c0,0.1,0,0.1,0,0.2v3.7h19.8v-10.5v-3.2c-0.1,0-0.2,0-0.3,0
		c-0.9,0-1.7-0.8-1.7-1.7s0.8-1.7,1.7-1.7c0.2,0,0.4,0,0.5,0.1h3.5v-19.9h-3.7v0c-0.1,0-0.2,0-0.3,0c-0.9,0-1.7-0.8-1.7-1.7
		s0.8-1.7,1.7-1.7c0.1,0,0.2,0,0.3,0v-13c-0.1,0-0.2,0-0.3,0c-0.9,0-1.7-0.8-1.7-1.7s0.8-1.7,1.7-1.7c0.2,0,0.4,0,0.6,0.1h3.5v-19.9
		h-3.7v0c-0.1,0-0.2,0-0.3,0c-0.9,0-1.7-0.8-1.7-1.7s0.8-1.7,1.7-1.7c0.1,0,0.2,0,0.3,0v-6.4c-0.1,0-0.2,0-0.3,0
		c-0.9,0-1.7-0.7-1.7-1.7c0-1,0.8-1.7,1.7-1.7c0.2,0,0.4,0,0.5,0.1h3.5v-19.9h-3.7v0c-0.1,0-0.2,0-0.3,0c-0.9,0-1.7-0.7-1.7-1.7
		s0.8-1.7,1.7-1.7c0.1,0,0.2,0,0.3,0v-13c-0.1,0-0.2,0-0.3,0c-0.9,0-1.7-0.8-1.7-1.7s0.8-1.7,1.7-1.7c0.1,0,0.2,0,0.3,0v0h3.9v-19.8
		h-3.9v0c-0.1,0-0.2,0-0.3,0c-0.9,0-1.7-0.8-1.7-1.7c0-0.9,0.8-1.7,1.7-1.7c0.1,0,0.2,0,0.3,0v-3.2v-6.6v-3.9h-19.8v3.7
		c0,0.1,0,0.1,0,0.2c0,0.9-0.7,1.7-1.7,1.7c-0.9,0-1.7-0.8-1.7-1.7h-19.6c0,0.9-0.7,1.7-1.7,1.7c-0.9,0-1.7-0.8-1.7-1.7
		c0-0.1,0-0.3,0.1-0.4v-3.5L277.2-1061.2L277.2-1061.2z"/>
	<path id="rect3385" inkscape:connector-curvature="0" fill="none" stroke="#000000" stroke-width="0.851" d="M26.9-881.3v3.9v0.3h0
		c-0.1,0.8-0.8,1.4-1.7,1.4s-1.5-0.6-1.7-1.4h-9.8v16.1c0.9,0,1.7,0.7,1.7,1.7s-0.7,1.7-1.7,1.7h-4v26.4h4c0.9,0,1.7,0.8,1.7,1.7
		s-0.7,1.7-1.7,1.7v16.4h9.8c0-0.9,0.8-1.7,1.7-1.7s1.7,0.7,1.7,1.7v3.9h19.8v-3.9c0-0.9,0.8-1.7,1.7-1.7c0.9,0,1.7,0.7,1.7,1.7
		h26.7v-33h82.1v33h16.4c0-0.9,0.7-1.7,1.7-1.7s1.7,0.7,1.7,1.7v3.9h19.8v-3.9c0-0.9,0.7-1.7,1.7-1.7s1.7,0.7,1.7,1.7h12.9
		c0-0.9,0.8-1.7,1.7-1.7c0.9,0,1.7,0.7,1.7,1.7v3.9h19.8v-3.9c0-0.9,0.8-1.7,1.7-1.7c0.9,0,1.7,0.7,1.7,1.7h9.5v-16.4
		c-0.8-0.1-1.4-0.9-1.4-1.7c0-0.8,0.6-1.5,1.4-1.7v0h0.3h3.9v-26.4h-3.9H251v0c-0.8-0.1-1.4-0.9-1.4-1.7c0-0.8,0.6-1.5,1.4-1.7
		v-16.1h-9.5c-0.1,0.8-0.8,1.4-1.7,1.4s-1.5-0.6-1.7-1.4h0v-0.3v-3.9h-19.8v3.9v0.3h0c-0.1,0.8-0.8,1.4-1.7,1.4
		c-0.9,0-1.5-0.6-1.7-1.4h-13c-0.1,0.8-0.9,1.4-1.7,1.4c-0.9,0-1.5-0.6-1.7-1.4h0v-0.3v-3.9h-19.8v3.9v0.3h0
		c-0.1,0.8-0.9,1.4-1.7,1.4c-0.9,0-1.5-0.6-1.7-1.4h-13c-0.1,0.8-0.8,1.4-1.7,1.4s-1.5-0.6-1.7-1.4h0v-0.3v-3.9h-19.8v3.9v0.3h0
		c-0.1,0.8-0.8,1.4-1.7,1.4s-1.5-0.6-1.7-1.4h-6.4c-0.1,0.8-0.9,1.4-1.7,1.4c-0.9,0-1.5-0.6-1.7-1.4h0v-0.3v-3.9h-19.8v3.9v0.3h0
		c-0.1,0.8-0.9,1.4-1.7,1.4s-1.5-0.6-1.7-1.4h-13c-0.1,0.8-0.9,1.4-1.7,1.4c-0.9,0-1.5-0.6-1.7-1.4h0v-0.3v-3.9H66.5v3.9v0.3h0
		c-0.1,0.8-0.9,1.4-1.7,1.4s-1.5-0.6-1.7-1.4h-13c-0.1,0.8-0.8,1.4-1.7,1.4s-1.5-0.6-1.7-1.4h0v-0.3v-3.9H26.9L26.9-881.3z
		 M178.7-864.1h39.6v13.2h-39.6V-864.1z"/>
</g>
</svg>
