<?xml version="1.0" encoding="utf-8"?>
<!-- Generator: Adobe Illustrator 18.1.1, SVG Export Plug-In . SVG Version: 6.00 Build 0)  -->
<svg version="1.1"
	 id="svg2" sodipodi:docname="3mm.dxf" inkscape:version="0.48.5 r10040" xmlns:rdf="http://www.w3.org/1999/02/22-rdf-syntax-ns#" xmlns:svg="http://www.w3.org/2000/svg" xmlns:sodipodi="http://sodipodi.sourceforge.net/DTD/sodipodi-0.dtd" xmlns:inkscape="http://www.inkscape.org/namespaces/inkscape" xmlns:dc="http://purl.org/dc/elements/1.1/" xmlns:cc="http://creativecommons.org/ns#"
	 xmlns="http://www.w3.org/2000/svg" xmlns:xlink="http://www.w3.org/1999/xlink" x="0px" y="0px" viewBox="403 -667 1417.3 2126"
	 enable-background="new 403 -667 1417.3 2126" xml:space="preserve">
<sodipodi:namedview  inkscape:document-units="mm" inkscape:pageopacity="0.0" inkscape:current-layer="layer1" inkscape:pageshadow="2" inkscape:window-maximized="0" inkscape:window-y="0" inkscape:window-x="0" inkscape:window-height="856" inkscape:window-width="1436" inkscape:cy="1860.5151" inkscape:cx="662.67224" inkscape:zoom="0.7" borderopacity="1.0" showgrid="true" pagecolor="#ffffff" bordercolor="#666666" guidetolerance="10000" units="mm" id="base" objecttolerance="10000">
	
		<inkscape:grid  snapvisiblegridlinesonly="true" empspacing="5" enabled="true" visible="true" empopacity="0.25098039" empcolor="#0000ff" type="xygrid" units="mm" id="grid2985" dotted="false" spacingy="1mm" spacingx="1mm">
		</inkscape:grid>
</sodipodi:namedview>
<g id="layer1" transform="translate(0,1073.6223)" inkscape:groupmode="layer" inkscape:label="Layer 1">
	<path id="rect3353" inkscape:connector-curvature="0" fill="none" stroke="#000000" d="M633.7-1727.7v10.6v17.7v8.6
		c2.2,0.3,4,2.2,4,4.5s-1.7,4.2-4,4.6v0.1h-0.6h-10v53.2h10h0.6v0.1c2.2,0.3,4,2.2,4,4.5s-1.7,4.2-4,4.6v34.8c2.2,0.3,4,2.2,4,4.6
		s-1.7,4.2-4,4.5v0.1h-0.6h-9.3v53.4h7.8c0.4-0.1,0.9-0.2,1.4-0.2c2.5,0,4.6,2.1,4.6,4.6c0,2.3-1.7,4.2-4,4.5v17.1
		c2.2,0.3,4,2.2,4,4.5s-1.7,4.2-4,4.6v0.1h-0.6h-9.3v53.4h7.8c0.5-0.2,1-0.2,1.5-0.2c2.5,0,4.6,2,4.6,4.6c0,2.3-1.7,4.2-4,4.6v34.8
		c2.2,0.3,4,2.2,4,4.6s-1.7,4.2-4,4.6v0.1h-0.6h-9.3v53.4h7.8c0.5-0.1,0.9-0.2,1.4-0.2c2.5,0,4.6,2.1,4.6,4.6c0,2.3-1.7,4.2-4,4.6
		v8.5v17.7v10.6h53.1v-8.4c-0.4-0.7-0.6-1.4-0.6-2.2c0-2.5,2.1-4.6,4.6-4.6c2.5,0,4.6,2,4.6,4.6h52.4c0-2.5,2-4.6,4.6-4.6
		c2.5,0,4.6,2,4.6,4.6h0.6v10.6h53.2v-10.6v-17.7v-8.5c-0.2,0-0.4,0.1-0.6,0.1c-2.5,0-4.6-2.1-4.6-4.6s2.1-4.6,4.6-4.6
		c0.5,0,1,0.1,1.4,0.2h8.5v-53.4h-9.2v-0.1c-0.2,0-0.4,0.1-0.6,0.1c-2.5,0-4.6-2.1-4.6-4.6s2.1-4.6,4.6-4.6c0.2,0,0.4,0,0.6,0.1
		v-34.8c-0.2,0-0.4,0.1-0.6,0.1c-2.5,0-4.6-2.1-4.6-4.6s2.1-4.6,4.6-4.6c0.5,0,1,0.1,1.5,0.2h8.4v-53.4h-9.2v-0.1
		c-0.2,0-0.4,0.1-0.6,0.1c-2.5,0-4.6-2.1-4.6-4.6s2.1-4.6,4.6-4.6c0.2,0,0.4,0,0.6,0.1v-17.1c-0.2,0-0.4,0.1-0.6,0.1
		c-2.5,0-4.6-2-4.6-4.6s2.1-4.6,4.6-4.6c0.5,0,1,0.1,1.4,0.2h8.5v-53.4h-9.2v-0.1c-0.2,0-0.4,0.1-0.6,0.1c-2.5,0-4.6-2-4.6-4.6
		s2.1-4.6,4.6-4.6c0.2,0,0.4,0,0.6,0.1v-34.8c-0.2,0-0.4,0.1-0.6,0.1c-2.5,0-4.6-2.1-4.6-4.6s2.1-4.6,4.6-4.6c0.2,0,0.4,0,0.6,0.1
		v-0.1h10v-53.2h-10v-0.1c-0.2,0-0.4,0.1-0.6,0.1c-2.5,0-4.6-2.1-4.6-4.6s2.1-4.6,4.6-4.6c0.2,0,0.4,0,0.6,0.1v-8.6v-17.7v-10.6
		h-53.2v10.6h-0.6c0,2.5-2.1,4.6-4.6,4.6c-2.5,0-4.6-2.1-4.6-4.6h-51.9c0,2.5-2,4.6-4.6,4.6c-2.5,0-4.6-2.1-4.6-4.6
		c0-0.4,0-0.7,0.1-1v-9.6L633.7-1727.7L633.7-1727.7z"/>
	<path id="rect3369" inkscape:connector-curvature="0" fill="none" stroke="#000000" d="M425.6-1728.2v28.3v8.6
		c2.1,0.4,3.7,2.3,3.7,4.5c0,2.2-1.6,4.1-3.7,4.5v0.1h-0.9H414v53.2h10.6h0.9v0.1c2.1,0.4,3.7,2.3,3.7,4.5s-1.6,4.1-3.7,4.5v34.9
		c2.1,0.4,3.7,2.3,3.7,4.5s-1.6,4.1-3.7,4.5v0.1h-0.9h-9.9v53.4h8.5c0.5-0.1,0.9-0.2,1.4-0.2c2.5,0,4.6,2.1,4.6,4.6
		c0,2.2-1.6,4.1-3.7,4.5v17.2c2.1,0.4,3.7,2.3,3.7,4.5s-1.6,4.1-3.7,4.5v0.1h-0.9h-9.9v53.4h8.4c0.5-0.2,0.9-0.2,1.5-0.2
		c2.5,0,4.6,2,4.6,4.6c0,2.2-1.6,4.1-3.7,4.5v34.9c2.1,0.4,3.7,2.3,3.7,4.5s-1.6,4.1-3.7,4.5v0.1h-0.9h-9.9v53.4h8.5
		c0.5-0.1,0.9-0.2,1.4-0.2c2.5,0,4.6,2.1,4.6,4.6c0,2.2-1.6,4.1-3.7,4.5v26.3v10.6h53.1v-9.7c-0.1-0.3-0.1-0.6-0.1-0.9
		c0-2.5,2-4.6,4.6-4.6s4.6,2,4.6,4.6h52.6c0-2.5,2.1-4.6,4.6-4.6s4.6,2,4.6,4.6c0,0.2,0,0.4-0.1,0.6v10h53.2v-28.3v-8.6
		c-0.3,0.1-0.6,0.1-0.9,0.1c-2.5,0-4.6-2.1-4.6-4.6s2.1-4.6,4.6-4.6c0.5,0,1,0.1,1.4,0.2h9.4v-53.4h-9.9v-0.1
		c-0.3,0.1-0.6,0.1-0.9,0.1c-2.5,0-4.6-2.1-4.6-4.6s2.1-4.6,4.6-4.6c0.3,0,0.6,0,0.9,0.1v-34.9c-0.3,0.1-0.6,0.1-0.9,0.1
		c-2.5,0-4.6-2.1-4.6-4.6s2.1-4.6,4.6-4.6c0.5,0,1,0.1,1.5,0.2h9.3v-53.4h-9.9v-0.1c-0.3,0.1-0.6,0.1-0.9,0.1
		c-2.5,0-4.6-2.1-4.6-4.6s2.1-4.6,4.6-4.6c0.3,0,0.6,0,0.9,0.1v-17.2c-0.3,0.1-0.6,0.1-0.9,0.1c-2.5,0-4.6-2-4.6-4.6
		s2.1-4.6,4.6-4.6c0.5,0,1,0.1,1.4,0.2h9.4v-53.4h-9.9v-0.1c-0.3,0.1-0.6,0.1-0.9,0.1c-2.5,0-4.6-2-4.6-4.6s2.1-4.6,4.6-4.6
		c0.3,0,0.6,0,0.9,0.1v-34.9c-0.3,0.1-0.6,0.1-0.9,0.1c-2.5,0-4.6-2.1-4.6-4.6s2.1-4.6,4.6-4.6c0.3,0,0.6,0,0.9,0.1v-0.1h10.6v-53.2
		h-10.6v-0.1c-0.3,0.1-0.6,0.1-0.9,0.1c-2.5,0-4.6-2.1-4.6-4.6s2.1-4.6,4.6-4.6c0.3,0,0.6,0,0.9,0.1v-8.6v-17.7v-10.6h-53.2v10
		c0,0.2,0.1,0.4,0.1,0.6c0,2.5-2,4.6-4.6,4.6s-4.6-2.1-4.6-4.6h-52.7c0,2.5-2,4.6-4.6,4.6s-4.6-2.1-4.6-4.6c0-0.4,0.1-0.8,0.2-1.2
		v-9.4L425.6-1728.2L425.6-1728.2z"/>
</g>
</svg>
