<?xml version="1.0" encoding="utf-8"?>
<!-- Generator: Adobe Illustrator 18.1.1, SVG Export Plug-In . SVG Version: 6.00 Build 0)  -->
<svg version="1.1"
	 id="svg2" sodipodi:docname="3mm.dxf" inkscape:version="0.48.5 r10040" xmlns:rdf="http://www.w3.org/1999/02/22-rdf-syntax-ns#" xmlns:svg="http://www.w3.org/2000/svg" xmlns:sodipodi="http://sodipodi.sourceforge.net/DTD/sodipodi-0.dtd" xmlns:inkscape="http://www.inkscape.org/namespaces/inkscape" xmlns:dc="http://purl.org/dc/elements/1.1/" xmlns:cc="http://creativecommons.org/ns#"
	 xmlns="http://www.w3.org/2000/svg" xmlns:xlink="http://www.w3.org/1999/xlink" x="0px" y="0px" viewBox="0 0 612 792"
	 enable-background="new 0 0 612 792" xml:space="preserve">
<sodipodi:namedview  inkscape:document-units="mm" inkscape:pageopacity="0.0" inkscape:current-layer="layer1" inkscape:pageshadow="2" inkscape:window-maximized="0" inkscape:window-y="0" inkscape:window-x="0" inkscape:window-height="856" inkscape:window-width="1436" inkscape:cy="1860.5151" inkscape:cx="662.67224" inkscape:zoom="0.7" borderopacity="1.0" showgrid="true" pagecolor="#ffffff" bordercolor="#666666" guidetolerance="10000" units="mm" id="base" objecttolerance="10000">
	
		<inkscape:grid  snapvisiblegridlinesonly="true" empspacing="5" enabled="true" visible="true" empopacity="0.25098039" empcolor="#0000ff" type="xygrid" units="mm" id="grid2985" dotted="false" spacingy="1mm" spacingx="1mm">
		</inkscape:grid>
</sodipodi:namedview>
<g id="layer1" transform="translate(0,1073.6223)" inkscape:groupmode="layer" inkscape:label="Layer 1">
	<path id="rect3266" inkscape:connector-curvature="0" fill="none" stroke="#000000" stroke-width="0.851" d="M17.2-994.7v3.9v0.3h0
		c-0.1,0.8-0.8,1.4-1.7,1.4s-1.5-0.6-1.7-1.4H4v16.1c0.9,0,1.7,0.7,1.7,1.7S5-971,4-971H0v26.4h4c0.9,0,1.7,0.8,1.7,1.7
		S5-941.2,4-941.2v16.4h9.8c0-0.9,0.8-1.7,1.7-1.7s1.7,0.7,1.7,1.7v3.9H37v-3.9c0-0.9,0.8-1.7,1.7-1.7s1.7,0.7,1.7,1.7h12.9
		c0-0.9,0.7-1.7,1.7-1.7s1.7,0.7,1.7,1.7v3.9h19.8v-3.9h0.1c0-0.9,0.7-1.7,1.7-1.7c1,0,1.7,0.7,1.7,1.7h12.6c0-1,0.9-1.9,1.9-1.9
		s1.9,0.9,1.9,1.9v3.9h19.8v-3.6c0-0.1,0-0.3,0-0.4c0-0.9,0.7-1.7,1.7-1.7c1,0,1.7,0.7,1.7,1.7h6.4c0-0.9,0.8-1.7,1.7-1.7
		c0.9,0,1.7,0.7,1.7,1.7v3.9h19.8v-3.9c0-0.9,0.8-1.7,1.7-1.7s1.7,0.7,1.7,1.7h12.9c0-0.9,0.7-1.7,1.7-1.7s1.7,0.7,1.7,1.7v3.9h19.8
		v-3.9c0-0.9,0.7-1.7,1.7-1.7s1.7,0.7,1.7,1.7h12.9c0-0.9,0.8-1.7,1.7-1.7c0.9,0,1.7,0.7,1.7,1.7v3.9h19.8v-3.9
		c0-0.9,0.8-1.7,1.7-1.7c0.9,0,1.7,0.7,1.7,1.7h9.5v-16.4c-0.8-0.1-1.4-0.9-1.4-1.7s0.6-1.5,1.4-1.7v0h0.3h3.9V-971h-3.9h-0.3v0
		c-0.8-0.1-1.4-0.9-1.4-1.7c0-0.9,0.6-1.5,1.4-1.7v-16.1h-9.5c-0.1,0.8-0.8,1.4-1.7,1.4s-1.5-0.6-1.7-1.4h0v-0.3v-3.9h-19.8v3.9v0.3
		h0c-0.1,0.8-0.8,1.4-1.7,1.4c-0.9,0-1.5-0.6-1.7-1.4h-13c-0.1,0.8-0.9,1.4-1.7,1.4c-0.9,0-1.5-0.6-1.7-1.4h0v-0.3v-3.9H169v3.9v0.3
		h0c-0.1,0.8-0.9,1.4-1.7,1.4c-0.9,0-1.5-0.6-1.7-1.4h-13c-0.1,0.8-0.8,1.4-1.7,1.4s-1.5-0.6-1.7-1.4h0v-0.3v-3.9h-19.8v3.9v0.3h0
		c-0.1,0.8-0.8,1.4-1.7,1.4s-1.5-0.6-1.7-1.4h-6.4c-0.1,0.8-0.9,1.4-1.7,1.4c-0.9,0-1.5-0.6-1.7-1.4h0v-0.3v-3.9H96.4v3.9v0.3h0
		c-0.1,0.8-0.9,1.4-1.7,1.4s-1.5-0.6-1.7-1.4H80c-0.1,0.8-0.9,1.4-1.7,1.4s-1.5-0.6-1.7-1.4h0v-0.3v-3.9H56.8v3.9v0.3h0
		c-0.1,0.8-0.9,1.4-1.7,1.4c-0.9,0-1.5-0.6-1.7-1.4h-13c-0.1,0.8-0.8,1.4-1.7,1.4s-1.5-0.6-1.7-1.4h0v-0.3v-3.9L17.2-994.7
		L17.2-994.7z"/>
	<path id="rect3385" inkscape:connector-curvature="0" fill="none" stroke="#000000" stroke-width="0.851" d="M17.9-1073.6v3.9v0.3
		h0c-0.1,0.8-0.8,1.4-1.7,1.4s-1.5-0.6-1.7-1.4H4.7v16.1c0.9,0,1.7,0.7,1.7,1.7c0,1-0.7,1.7-1.7,1.7h-4v26.4h4
		c0.9,0,1.7,0.8,1.7,1.7c0,0.9-0.7,1.7-1.7,1.7v16.4h9.8c0-0.9,0.8-1.7,1.7-1.7s1.7,0.7,1.7,1.7v3.9h19.8v-3.9
		c0-0.9,0.8-1.7,1.7-1.7c0.9,0,1.7,0.7,1.7,1.7h26.7v-33h82.1v33h16.4c0-0.9,0.7-1.7,1.7-1.7s1.7,0.7,1.7,1.7v3.9h19.8v-3.9
		c0-0.9,0.7-1.7,1.7-1.7s1.7,0.7,1.7,1.7h12.9c0-0.9,0.8-1.7,1.7-1.7c0.9,0,1.7,0.7,1.7,1.7v3.9h19.8v-3.9c0-0.9,0.8-1.7,1.7-1.7
		c0.9,0,1.7,0.7,1.7,1.7h9.5v-16.4c-0.8-0.1-1.4-0.9-1.4-1.7c0-0.8,0.6-1.5,1.4-1.7v0h0.3h3.9v-26.4h-3.9H242v0
		c-0.8-0.1-1.4-0.9-1.4-1.7c0-0.8,0.6-1.5,1.4-1.7v-16.1h-9.5c-0.1,0.8-0.8,1.4-1.7,1.4c-0.9,0-1.5-0.6-1.7-1.4h0v-0.3v-3.9h-19.8
		v3.9v0.3h0c-0.1,0.8-0.8,1.4-1.7,1.4s-1.5-0.6-1.7-1.4h-13c-0.1,0.8-0.9,1.4-1.7,1.4c-0.9,0-1.5-0.6-1.7-1.4h0v-0.3v-3.9h-19.8v3.9
		v0.3h0c-0.1,0.8-0.9,1.4-1.7,1.4c-0.9,0-1.5-0.6-1.7-1.4h-13c-0.1,0.8-0.8,1.4-1.7,1.4c-0.9,0-1.5-0.6-1.7-1.4h0v-0.3v-3.9h-19.8
		v3.9v0.3h0c-0.1,0.8-0.8,1.4-1.7,1.4c-0.9,0-1.5-0.6-1.7-1.4h-6.4c-0.1,0.8-0.9,1.4-1.7,1.4c-0.9,0-1.5-0.6-1.7-1.4h0v-0.3v-3.9
		H97.2v3.9v0.3h0c-0.1,0.8-0.9,1.4-1.7,1.4s-1.5-0.6-1.7-1.4h-13c-0.1,0.8-0.9,1.4-1.7,1.4c-0.9,0-1.5-0.6-1.7-1.4h0v-0.3v-3.9H57.6
		v3.9v0.3h0c-0.1,0.8-0.9,1.4-1.7,1.4s-1.5-0.6-1.7-1.4h-13c-0.1,0.8-0.8,1.4-1.7,1.4c-0.9,0-1.5-0.6-1.7-1.4h0v-0.3v-3.9H17.9
		L17.9-1073.6z M169.7-1056.4h39.6v13.2h-39.6V-1056.4z"/>
</g>
</svg>
