<?xml version="1.0" encoding="utf-8"?>
<!-- Generator: Adobe Illustrator 18.1.1, SVG Export Plug-In . SVG Version: 6.00 Build 0)  -->
<svg version="1.1"
	 id="svg2" sodipodi:docname="3mm.dxf" inkscape:version="0.48.5 r10040" xmlns:rdf="http://www.w3.org/1999/02/22-rdf-syntax-ns#" xmlns:svg="http://www.w3.org/2000/svg" xmlns:sodipodi="http://sodipodi.sourceforge.net/DTD/sodipodi-0.dtd" xmlns:inkscape="http://www.inkscape.org/namespaces/inkscape" xmlns:dc="http://purl.org/dc/elements/1.1/" xmlns:cc="http://creativecommons.org/ns#"
	 xmlns="http://www.w3.org/2000/svg" xmlns:xlink="http://www.w3.org/1999/xlink" x="0px" y="0px" viewBox="403 -667 1417.3 2126"
	 enable-background="new 403 -667 1417.3 2126" xml:space="preserve">
<sodipodi:namedview  inkscape:document-units="mm" inkscape:pageopacity="0.0" inkscape:current-layer="layer1" inkscape:pageshadow="2" inkscape:window-maximized="0" inkscape:window-y="0" inkscape:window-x="0" inkscape:window-height="856" inkscape:window-width="1436" inkscape:cy="1860.5151" inkscape:cx="662.67224" inkscape:zoom="0.7" borderopacity="1.0" showgrid="true" pagecolor="#ffffff" bordercolor="#666666" guidetolerance="10000" units="mm" id="base" objecttolerance="10000">
	
		<inkscape:grid  snapvisiblegridlinesonly="true" empspacing="5" enabled="true" visible="true" empopacity="0.25098039" empcolor="#0000ff" type="xygrid" units="mm" id="grid2985" dotted="false" spacingy="1mm" spacingx="1mm">
		</inkscape:grid>
</sodipodi:namedview>
<g id="layer1" transform="translate(0,1073.6223)" inkscape:groupmode="layer" inkscape:label="Layer 1">
	<path id="rect3002" inkscape:connector-curvature="0" fill="none" stroke="#000000" stroke-width="1.46" d="M403-1740.6v35.4v0.8
		v407.5v16.9v35.4h708.7v-52.3v-408.3v-35.4H403z M478.5-1719.6c2.3,0,4.1,1.6,4.5,3.8h34.9c0.4-2.1,2.3-3.8,4.5-3.8
		s4.1,1.6,4.5,3.8h0.1v10.6h-0.1c0.1,0.3,0.1,0.6,0.1,0.8c0,2.5-2,4.6-4.6,4.6s-4.6-2.1-4.6-4.6c0-0.3,0-0.6,0.1-0.8H483
		c0.1,0.3,0.1,0.6,0.1,0.8c0,2.5-2.1,4.6-4.6,4.6c-2.5,0-4.6-2.1-4.6-4.6c0-0.3,0-0.6,0.1-0.8h-0.1v-9.8v-0.8h0.1
		C474.3-1717.9,476.2-1719.6,478.5-1719.6L478.5-1719.6z M584.8-1719.6c2.3,0,4.1,1.6,4.5,3.8h34.9c0.4-2.1,2.2-3.8,4.5-3.8
		s4.1,1.6,4.5,3.8h0.1v10.6h-0.1c0.1,0.3,0.1,0.6,0.1,0.8c0,2.5-2.1,4.6-4.6,4.6s-4.6-2.1-4.6-4.6c0-0.3,0-0.6,0.1-0.8h-34.9
		c0.1,0.3,0.1,0.6,0.1,0.8c0,2.5-2,4.6-4.6,4.6s-4.6-2.1-4.6-4.6c0-0.3,0-0.6,0.1-0.8h-0.1v-9.8v-0.8h0.1
		C580.6-1717.9,582.5-1719.6,584.8-1719.6L584.8-1719.6z M691.1-1719.6c2.3,0,4.1,1.6,4.5,3.8h34.9c0.4-2.1,2.3-3.8,4.5-3.8
		s4.1,1.6,4.5,3.8h0.1v10.6h-0.1c0.1,0.3,0.1,0.6,0.1,0.8c0,2.5-2,4.6-4.6,4.6s-4.6-2.1-4.6-4.6c0-0.3,0-0.6,0.1-0.8h-34.9
		c0.1,0.3,0.1,0.6,0.1,0.8c0,2.5-2.1,4.6-4.6,4.6s-4.6-2.1-4.6-4.6c0-0.3,0-0.6,0.1-0.8h-0.1v-9.8v-0.8h0.1
		C687-1717.9,688.8-1719.6,691.1-1719.6L691.1-1719.6z M779.7-1719.6c2.3,0,4.1,1.6,4.5,3.8h34.9c0.4-2.1,2.2-3.8,4.5-3.8
		s4.1,1.6,4.5,3.8h0.1v10.6h-0.1c0.1,0.3,0.1,0.6,0.1,0.8c0,2.5-2.1,4.6-4.6,4.6s-4.6-2.1-4.6-4.6c0-0.3,0-0.6,0.1-0.8h-34.9
		c0.1,0.3,0.1,0.6,0.1,0.8c0,2.5-2,4.6-4.6,4.6s-4.6-2.1-4.6-4.6c0-0.3,0-0.6,0.1-0.8H775v-9.8v-0.8h0.1
		C775.5-1717.9,777.4-1719.6,779.7-1719.6L779.7-1719.6z M885.9-1719.6c2.3,0,4.1,1.6,4.5,3.8h34.9c0.4-2.1,2.3-3.8,4.5-3.8
		s4.1,1.6,4.5,3.8h0.1v10.6h-0.1c0.1,0.3,0.1,0.6,0.1,0.8c0,2.5-2.1,4.6-4.6,4.6s-4.6-2.1-4.6-4.6c0-0.3,0-0.6,0.1-0.8h-34.9
		c0.1,0.3,0.1,0.6,0.1,0.8c0,2.5-2.1,4.6-4.6,4.6s-4.6-2.1-4.6-4.6c0-0.3,0-0.6,0.1-0.8h-0.1v-9.8v-0.8h0.1
		C881.8-1717.9,883.7-1719.6,885.9-1719.6L885.9-1719.6z M992.2-1719.6c2.3,0,4.1,1.6,4.5,3.8h34.9c0.4-2.1,2.3-3.8,4.5-3.8
		s4.1,1.6,4.5,3.8h0.1v0.8v9.8h-0.1c0.1,0.3,0.1,0.6,0.1,0.8c0,2.5-2,4.6-4.6,4.6c-2.5,0-4.6-2.1-4.6-4.6c0-0.3,0-0.6,0.1-0.8h-34.9
		c0.1,0.3,0.1,0.6,0.1,0.8c0,2.5-2.1,4.6-4.6,4.6s-4.6-2.1-4.6-4.6c0-0.3,0-0.6,0.1-0.8h-0.1v-10.6h0.1
		C988.1-1717.9,990-1719.6,992.2-1719.6L992.2-1719.6z M656.6-1696.9c2.4,0,4.4,2,4.4,4.4c0,2.4-2,4.4-4.4,4.4s-4.3-2-4.3-4.4
		C652.2-1695,654.2-1696.9,656.6-1696.9z M868.1-1695.4c2.4,0,4.4,2,4.4,4.4c0,2.4-2,4.4-4.4,4.4s-4.3-2-4.3-4.4
		C863.8-1693.4,865.7-1695.4,868.1-1695.4z M427.8-1669.7h10.7v0.8c2.5,0,4.6,2,4.6,4.6c0,2.5-2,4.6-4.6,4.6v34.7
		c2.5,0,4.6,2.1,4.6,4.6s-2,4.6-4.6,4.6c-1,0-1.9-0.3-2.7-0.9h-5.3c-0.7,0.5-1.7,0.9-2.7,0.9c-2.5,0-4.6-2.1-4.6-4.6s2-4.6,4.6-4.6
		v-34.7c-2.5,0-4.6-2.1-4.6-4.6s2-4.6,4.6-4.6V-1669.7z M1076.2-1669.7h10.6v0.8c2.5,0,4.6,2,4.6,4.6c0,2.5-2.1,4.6-4.6,4.6v34.7
		c2.5,0,4.6,2.1,4.6,4.6s-2.1,4.6-4.6,4.6c-1,0-1.9-0.3-2.6-0.9h-5.3c-0.8,0.5-1.7,0.9-2.7,0.9c-2.5,0-4.6-2.1-4.6-4.6
		s2.1-4.6,4.6-4.6v-34.7c-2.5,0-4.6-2.1-4.6-4.6s2.1-4.6,4.6-4.6V-1669.7z M601.6-1648.1c0.2,0,0.4,0,0.5,0c2.8,0,5,2.2,5,5
		c0,0.5-0.1,0.9-0.2,1.3v7.9c3.1,1.7,5.2,5.1,5.2,8.9c0,5.6-4.6,10.2-10.2,10.2s-10.2-4.6-10.2-10.2c0-3.9,2.2-7.3,5.5-9v-7.8
		c-0.1-0.4-0.2-0.9-0.2-1.3C597.1-1645.7,599.1-1647.9,601.6-1648.1z M911.6-1648.1c0.2,0,0.4,0,0.5,0c2.8,0,5,2.2,5,5
		c0,0.5-0.1,0.9-0.2,1.3v7.9c3.1,1.7,5.2,5.1,5.2,8.9c0,5.6-4.6,10.2-10.2,10.2c-5.6,0-10.2-4.6-10.2-10.2c0-3.9,2.2-7.3,5.5-9v-7.8
		c-0.1-0.4-0.2-0.9-0.2-1.3C907.1-1645.7,909.1-1647.9,911.6-1648.1z M460.5-1625.6c2.5,0,4.6,2,4.6,4.6s-2.1,4.6-4.6,4.6
		s-4.6-2.1-4.6-4.6S458-1625.6,460.5-1625.6z M625.8-1579.1c2.4,0,4.4,2,4.4,4.4c0,2.4-2,4.4-4.4,4.4s-4.4-2-4.4-4.4
		C621.4-1577.1,623.4-1579.1,625.8-1579.1z M427.8-1563.5h10.7v0.8c2.5,0,4.6,2.1,4.6,4.6s-2,4.6-4.6,4.6v34.7
		c2.5,0,4.6,2.1,4.6,4.6s-2,4.6-4.6,4.6c-1,0-1.9-0.3-2.7-0.8h-5.3c-0.7,0.5-1.7,0.8-2.7,0.8c-2.5,0-4.6-2-4.6-4.6s2-4.6,4.6-4.6
		v-34.7c-2.5,0-4.6-2.1-4.6-4.6s2-4.6,4.6-4.6V-1563.5z M1076.2-1563.5h10.6v0.8c2.5,0,4.6,2.1,4.6,4.6s-2.1,4.6-4.6,4.6v34.7
		c2.5,0,4.6,2.1,4.6,4.6s-2.1,4.6-4.6,4.6c-1,0-1.9-0.3-2.6-0.8h-5.3c-0.8,0.5-1.7,0.8-2.7,0.8c-2.5,0-4.6-2-4.6-4.6
		s2.1-4.6,4.6-4.6v-34.7c-2.5,0-4.6-2.1-4.6-4.6s2.1-4.6,4.6-4.6V-1563.5z M427.8-1474.9h10.7v0.8c2.5,0,4.6,2.1,4.6,4.6
		s-2,4.6-4.6,4.6v34.7c2.5,0,4.6,2,4.6,4.6s-2,4.6-4.6,4.6c-1,0-1.9-0.3-2.7-0.8h-5.3c-0.7,0.5-1.7,0.8-2.7,0.8
		c-2.5,0-4.6-2.1-4.6-4.6s2-4.6,4.6-4.6v-34.7c-2.5,0-4.6-2-4.6-4.6s2-4.6,4.6-4.6V-1474.9z M1076.2-1474.9h10.6v0.8
		c2.5,0,4.6,2.1,4.6,4.6s-2.1,4.6-4.6,4.6v34.7c2.5,0,4.6,2,4.6,4.6s-2.1,4.6-4.6,4.6c-1,0-1.9-0.3-2.6-0.8h-5.3
		c-0.8,0.5-1.7,0.8-2.7,0.8c-2.5,0-4.6-2.1-4.6-4.6s2.1-4.6,4.6-4.6v-34.7c-2.5,0-4.6-2-4.6-4.6s2.1-4.6,4.6-4.6V-1474.9z
		 M460.5-1464.1c2.5,0,4.6,2,4.6,4.6s-2.1,4.6-4.6,4.6s-4.6-2.1-4.6-4.6S458-1464.1,460.5-1464.1z M654.5-1425.3
		c2.5,0,4.5,2,4.5,4.5s-2,4.5-4.5,4.5s-4.5-2-4.5-4.5S652-1425.3,654.5-1425.3z M867.8-1392.4c2.5,0,4.5,2,4.5,4.5
		c0,2.5-2,4.4-4.5,4.4s-4.4-2-4.4-4.4C863.3-1390.4,865.3-1392.4,867.8-1392.4z M625.8-1373.5c2.4,0,4.4,2,4.4,4.4
		c0,2.4-2,4.3-4.4,4.3s-4.4-1.9-4.4-4.3C621.4-1371.6,623.4-1373.5,625.8-1373.5z M799.4-1373.5c2.4,0,4.4,2,4.4,4.4
		c0,2.4-2,4.3-4.4,4.3s-4.4-1.9-4.4-4.3C795-1371.6,797-1373.5,799.4-1373.5z M427.8-1368.6h10.7v0.9c2.5,0,4.6,2,4.6,4.6
		s-2,4.6-4.6,4.6v34.7c2.5,0,4.6,2.1,4.6,4.6s-2,4.6-4.6,4.6c-1,0-1.9-0.3-2.7-0.8h-5.3c-0.7,0.5-1.7,0.8-2.7,0.8
		c-2.5,0-4.6-2-4.6-4.6s2-4.6,4.6-4.6v-34.7c-2.5,0-4.6-2.1-4.6-4.6s2-4.6,4.6-4.6V-1368.6z M1076.2-1368.6h10.6v0.9
		c2.5,0,4.6,2,4.6,4.6s-2.1,4.6-4.6,4.6v34.7c2.5,0,4.6,2.1,4.6,4.6s-2.1,4.6-4.6,4.6c-1,0-1.9-0.3-2.6-0.8h-5.3
		c-0.8,0.5-1.7,0.8-2.7,0.8c-2.5,0-4.6-2-4.6-4.6s2.1-4.6,4.6-4.6v-34.7c-2.5,0-4.6-2.1-4.6-4.6s2.1-4.6,4.6-4.6V-1368.6z
		 M478.5-1283.7c2.3,0,4.1,1.6,4.5,3.8h34.9c0.4-2.1,2.3-3.8,4.5-3.8s4.1,1.6,4.5,3.8h0.1v10.6h-0.1c0.1,0.3,0.1,0.5,0.1,0.8
		c0,2.5-2,4.6-4.6,4.6s-4.6-2.1-4.6-4.6c0-0.3,0-0.6,0.1-0.8H483c0.1,0.3,0.1,0.5,0.1,0.8c0,2.5-2.1,4.6-4.6,4.6
		c-2.5,0-4.6-2.1-4.6-4.6c0-0.3,0-0.6,0.1-0.8h-0.1v-9.8v-0.8h0.1C474.3-1282.1,476.2-1283.7,478.5-1283.7L478.5-1283.7z
		 M584.8-1283.7c2.3,0,4.1,1.6,4.5,3.8h34.9c0.4-2.1,2.2-3.8,4.5-3.8s4.1,1.6,4.5,3.8h0.1v10.6h-0.1c0.1,0.3,0.1,0.5,0.1,0.8
		c0,2.5-2.1,4.6-4.6,4.6s-4.6-2.1-4.6-4.6c0-0.3,0-0.6,0.1-0.8h-34.9c0.1,0.3,0.1,0.5,0.1,0.8c0,2.5-2,4.6-4.6,4.6s-4.6-2.1-4.6-4.6
		c0-0.3,0-0.6,0.1-0.8h-0.1v-9.8v-0.8h0.1C580.6-1282.1,582.5-1283.7,584.8-1283.7L584.8-1283.7z M691.1-1283.7
		c2.3,0,4.1,1.6,4.5,3.8h34.9c0.4-2.1,2.3-3.8,4.5-3.8s4.1,1.6,4.5,3.8h0.1v10.6h-0.1c0.1,0.3,0.1,0.5,0.1,0.8c0,2.5-2,4.6-4.6,4.6
		s-4.6-2.1-4.6-4.6c0-0.3,0-0.6,0.1-0.8h-34.9c0.1,0.3,0.1,0.5,0.1,0.8c0,2.5-2.1,4.6-4.6,4.6s-4.6-2.1-4.6-4.6c0-0.3,0-0.6,0.1-0.8
		h-0.1v-9.8v-0.8h0.1C687-1282.1,688.8-1283.7,691.1-1283.7L691.1-1283.7z M779.7-1283.7c2.3,0,4.1,1.6,4.5,3.8h34.9
		c0.4-2.1,2.2-3.8,4.5-3.8s4.1,1.6,4.5,3.8h0.1v10.6h-0.1c0.1,0.3,0.1,0.5,0.1,0.8c0,2.5-2.1,4.6-4.6,4.6s-4.6-2.1-4.6-4.6
		c0-0.3,0-0.6,0.1-0.8h-34.9c0.1,0.3,0.1,0.5,0.1,0.8c0,2.5-2,4.6-4.6,4.6s-4.6-2.1-4.6-4.6c0-0.3,0-0.6,0.1-0.8H775v-9.8v-0.8h0.1
		C775.5-1282.1,777.4-1283.7,779.7-1283.7L779.7-1283.7z M885.9-1283.7c2.3,0,4.1,1.6,4.5,3.8h34.9c0.4-2.1,2.3-3.8,4.5-3.8
		s4.1,1.6,4.5,3.8h0.1v10.6h-0.1c0.1,0.3,0.1,0.5,0.1,0.8c0,2.5-2.1,4.6-4.6,4.6s-4.6-2.1-4.6-4.6c0-0.3,0-0.6,0.1-0.8h-34.9
		c0.1,0.3,0.1,0.5,0.1,0.8c0,2.5-2.1,4.6-4.6,4.6s-4.6-2.1-4.6-4.6c0-0.3,0-0.6,0.1-0.8h-0.1v-9.8v-0.8h0.1
		C881.8-1282.1,883.7-1283.7,885.9-1283.7L885.9-1283.7z M992.2-1283.7c2.3,0,4.1,1.6,4.5,3.8h34.9c0.4-2.1,2.3-3.8,4.5-3.8
		s4.1,1.6,4.5,3.8h0.1v10.6h-0.1c0.1,0.3,0.1,0.5,0.1,0.8c0,2.5-2,4.6-4.6,4.6c-2.5,0-4.6-2.1-4.6-4.6c0-0.3,0-0.6,0.1-0.8h-34.9
		c0.1,0.3,0.1,0.5,0.1,0.8c0,2.5-2.1,4.6-4.6,4.6s-4.6-2.1-4.6-4.6c0-0.3,0-0.6,0.1-0.8h-0.1v-9.8v-0.8h0.1
		C988.1-1282.1,990-1283.7,992.2-1283.7L992.2-1283.7z"/>
</g>
</svg>
