<?xml version="1.0" encoding="UTF-8" standalone="no"?>
<!-- Created with Inkscape (http://www.inkscape.org/) -->

<svg
   xmlns:dc="http://purl.org/dc/elements/1.1/"
   xmlns:cc="http://creativecommons.org/ns#"
   xmlns:rdf="http://www.w3.org/1999/02/22-rdf-syntax-ns#"
   xmlns:svg="http://www.w3.org/2000/svg"
   xmlns="http://www.w3.org/2000/svg"
   xmlns:sodipodi="http://sodipodi.sourceforge.net/DTD/sodipodi-0.dtd"
   xmlns:inkscape="http://www.inkscape.org/namespaces/inkscape"
   width="1417.3228"
   height="2125.9841"
   id="svg2"
   version="1.1"
   inkscape:version="0.48.5 r10040"
   sodipodi:docname="greenpi-laser-cut-3mm.svg">
  <defs
     id="defs4" />
  <sodipodi:namedview
     id="base"
     pagecolor="#ffffff"
     bordercolor="#666666"
     borderopacity="1.0"
     inkscape:pageopacity="0.0"
     inkscape:pageshadow="2"
     inkscape:zoom="0.49497475"
     inkscape:cx="825.89642"
     inkscape:cy="1617.5415"
     inkscape:document-units="mm"
     inkscape:current-layer="layer1"
     showgrid="true"
     units="mm"
     objecttolerance="10000"
     guidetolerance="10000"
     inkscape:window-width="1436"
     inkscape:window-height="856"
     inkscape:window-x="0"
     inkscape:window-y="0"
     inkscape:window-maximized="0">
    <inkscape:grid
       type="xygrid"
       id="grid2985"
       empspacing="5"
       visible="true"
       enabled="true"
       snapvisiblegridlinesonly="true"
       units="mm"
       spacingx="1mm"
       spacingy="1mm"
       dotted="false"
       empcolor="#0000ff"
       empopacity="0.25098039" />
  </sodipodi:namedview>
  <metadata
     id="metadata7">
    <rdf:RDF>
      <cc:Work
         rdf:about="">
        <dc:format>image/svg+xml</dc:format>
        <dc:type
           rdf:resource="http://purl.org/dc/dcmitype/StillImage" />
        <dc:title />
      </cc:Work>
    </rdf:RDF>
  </metadata>
  <g
     inkscape:label="Layer 1"
     inkscape:groupmode="layer"
     id="layer1"
     transform="translate(0,1073.6223)">
    <path
       style="fill:#0000ff;fill-rule:evenodd;stroke:#000000;stroke-width:1.46002316px;stroke-linecap:butt;stroke-linejoin:miter;stroke-opacity:1"
       d="m 11.908711,-1062.3633 0,35.4375 0,408.31248 0,16.875 0,35.4375 708.656249,0 0,-35.4375 0,-16.875 0,-408.31248 0,-35.4375 -708.656249,0 z m 70.84375,24.8125 53.156249,0 0,10.625 -53.156249,0 0,-10.625 z m 106.312499,0 53.15625,0 0,10.625 -53.15625,0 0,-10.625 z m 106.3125,0 53.125,0 0,10.625 -53.125,0 0,-10.625 z m 88.5625,0 53.15625,0 0,10.625 -53.15625,0 0,-10.625 z m 106.3125,0 53.15625,0 0,10.625 -53.15625,0 0,-10.625 z m 106.28125,0 53.15625,0 0,10.625 -53.15625,0 0,-10.625 z m -331.03125,18.875 c 2.41277,0 4.375,1.9622 4.375,4.375 0,2.4128 -1.96223,4.375 -4.375,4.375 -2.41277,0 -4.34375,-1.9622 -4.34375,-4.375 0,-2.4128 1.93098,-4.375 4.34375,-4.375 z m 211.53125,1.5312 c 2.41277,0 4.375,1.9623 4.375,4.375 0,2.4128 -1.96223,4.375 -4.375,4.375 -2.41277,0 -4.34375,-1.9622 -4.34375,-4.375 0,-2.4127 1.93098,-4.375 4.34375,-4.375 z m -440.343749,25.65628 10.65625,0 0,53.125 -10.65625,0 0,-53.125 z m 648.437499,0 10.625,0 0,53.125 -10.625,0 0,-53.125 z m -474.625,21.59375 c 0.16913,-0.0172 0.35759,0 0.53125,0 2.77854,0 5.03125,2.22146 5.03125,5 0,0.45151 -0.0759,0.89618 -0.1875,1.3125 l 0,7.90625 c 3.13196,1.74676 5.25,5.0655 5.25,8.90625 0,5.64542 -4.57333,10.21875 -10.21875,10.21875 -5.64542,0 -10.21875,-4.57333 -10.21875,-10.21875 0,-3.94009 2.23399,-7.32494 5.5,-9.03125 l 0,-7.78125 c -0.1115,-0.41632 -0.1875,-0.86099 -0.1875,-1.3125 0,-2.60488 1.96309,-4.74236 4.5,-5 z m 310.03125,0 c 0.16913,-0.0172 0.35759,0 0.53125,0 2.77854,0 5.03125,2.22146 5.03125,5 0,0.45151 -0.0759,0.89618 -0.1875,1.3125 l 0,7.90625 c 3.13196,1.74676 5.25,5.0655 5.25,8.90625 0,5.64542 -4.57333,10.21875 -10.21875,10.21875 -5.64542,0 -10.21875,-4.57333 -10.21875,-10.21875 0,-3.94009 2.23399,-7.32494 5.5,-9.03125 l 0,-7.78125 c -0.1115,-0.41632 -0.1875,-0.86099 -0.1875,-1.3125 0,-2.60488 1.96309,-4.74236 4.5,-5 z m -451.124999,22.5625 c 2.54699,0 4.625,2.04676 4.625,4.59375 0,2.54699 -2.07801,4.625 -4.625,4.625 -2.54699,0 -4.59375,-2.07801 -4.59375,-4.625 0,-2.54699 2.04676,-4.59375 4.59375,-4.59375 z m 165.281249,46.5 c 2.41277,0 4.375,1.96223 4.375,4.375 0,2.41277 -1.96223,4.375 -4.375,4.375 -2.41277,0 -4.375,-1.96223 -4.375,-4.375 0,-2.41277 1.96223,-4.375 4.375,-4.375 z m -197.999999,15.625 10.65625,0 0,53.15625 -10.65625,0 0,-53.15625 z m 648.437499,0 10.625,0 0,53.15625 -10.625,0 0,-53.15625 z m -648.437499,88.59375 10.65625,0 0,53.15625 -10.65625,0 0,-53.15625 z m 648.437499,0 10.625,0 0,53.15625 -10.625,0 0,-53.15625 z m -615.718749,10.71875 c 2.54699,0 4.625,2.04676 4.625,4.59375 0,2.54699 -2.07801,4.625 -4.625,4.625 -2.54699,0 -4.59375,-2.07801 -4.59375,-4.625 0,-2.54699 2.04676,-4.59375 4.59375,-4.59375 z m 193.999999,38.875 c 2.48805,0 4.53125,2.01195 4.53125,4.5 0,2.48805 -2.0432,4.5 -4.53125,4.5 -2.48805,0 -4.5,-2.01195 -4.5,-4.5 0,-2.48805 2.01195,-4.5 4.5,-4.5 z m 213.28125,32.84375 c 2.45939,0 4.46875,2.00936 4.46875,4.46875 0,2.45939 -2.00936,4.4375 -4.46875,4.4375 -2.45939,0 -4.4375,-1.97811 -4.4375,-4.4375 0,-2.45939 1.97811,-4.46875 4.4375,-4.46875 z m -242,18.875 c 2.41277,0 4.375,1.96223 4.375,4.375 0,2.41277 -1.96223,4.34375 -4.375,4.34375 -2.41277,0 -4.375,-1.93098 -4.375,-4.34375 0,-2.41277 1.96223,-4.375 4.375,-4.375 z m 173.625,0 c 2.41277,0 4.375,1.96223 4.375,4.375 0,2.41277 -1.96223,4.34375 -4.375,4.34375 -2.41277,0 -4.375,-1.93098 -4.375,-4.34375 0,-2.41277 1.96223,-4.375 4.375,-4.375 z m -371.624999,4.96875 10.65625,0 0,53.15625 -10.65625,0 0,-53.15625 z m 648.437499,0 10.625,0 0,53.15625 -10.625,0 0,-53.15625 z m -602.374999,88.59375 53.156249,0 0,10.625 -53.156249,0 0,-10.625 z m 106.312499,0 53.15625,0 0,10.625 -53.15625,0 0,-10.625 z m 106.3125,0 53.125,0 0,10.625 -53.125,0 0,-10.625 z m 88.5625,0 53.15625,0 0,10.625 -53.15625,0 0,-10.625 z m 106.3125,0 53.15625,0 0,10.625 -53.15625,0 0,-10.625 z m 106.28125,0 53.15625,0 0,10.625 -53.15625,0 0,-10.625 z"
       id="rect3002"
       inkscape:connector-curvature="0" />
    <path
       style="fill:#0000ff;fill-rule:evenodd;stroke:#000000;stroke-width:0.85104442px;stroke-linecap:butt;stroke-linejoin:miter;stroke-opacity:1"
       d="m 1145.327,-1020.4928 -11.4687,0 0,-35.4061 -52.3125,0 0,-10.6563 -70.8438,0 0,10.6563 -53.15624,0 0,35.4061 -10.625,0 0,53.15634 10.625,0 0,53.1562 -10.625,0 0,53.15626 10.625,0 0,53.1562 -10.625,0 0,53.125 10.625,0 0,35.4375 -10.625,0 0,53.15629 10.625,0 0,53.15621 -10.625,0 0,53.1563 10.625,0 0,53.125 -10.625,0 0,53.15621 10.625,0 0,34.5938 53.15624,0 0,11.46869 70.8438,0 0,-11.46869 52.3125,0 0,-34.5938 11.4687,0 0,-53.15621 -11.4687,0 0,-53.125 11.4687,0 0,-53.1563 -11.4687,0 0,-53.15621 11.4687,0 0,-53.15629 -11.4687,0 0,-35.4375 11.4687,0 0,-53.125 -11.4687,0 0,-53.1562 11.4687,0 0,-53.15626 -11.4687,0 0,-53.1562 11.4687,0 0,-53.15634 z"
       id="rect3266"
       inkscape:connector-curvature="0" />
    <path
       style="fill:#0000ff;fill-rule:evenodd;stroke:#000000;stroke-width:1px;stroke-linecap:butt;stroke-linejoin:miter;stroke-opacity:1"
       d="m 471.49808,-542.12636 -10.625,0 -17.7188,0 -17.7187,0 0,-10.625 -53.1563,0 0,10.625 -53.125,0 0,-9.9062 -53.40625,0 0,9.9062 -35.1875,0 0,-9.9062 -53.40625,0 0,9.9062 -52.90625,0 0,-9.9062 -53.374998,0 0,9.9062 -17.468748,0 -17.71875,0 -10.625,0 0,53.125 10.625,0 0,70.87497 -10.625,0 0,53.1563 10.625,0 17.71875,0 17.468748,0 0,9.25 53.374998,0 0,-9.25 52.90625,0 0,9.25 53.40625,0 0,-9.25 35.1875,0 0,9.25 53.40625,0 0,-9.25 53.125,0 0,10 53.1563,0 0,-10 17.7187,0 17.7188,0 10.625,0 0,-53.1563 -10.625,0 0,-70.87497 10.625,0 0,-53.125 z"
       id="rect3353"
       inkscape:connector-curvature="0" />
    <path
       style="fill:#0000ff;fill-rule:evenodd;stroke:#000000;stroke-width:1px;stroke-linecap:butt;stroke-linejoin:miter;stroke-opacity:1"
       d="m 1364.1642,-619.82984 0,-10.625 0,-17.7188 0,-17.7187 11.5625,0 0,-53.1563 -11.5625,0 0,-53.12496 10.8125,0 0,-53.40625 -10.8125,0 0,-35.1875 10.8125,0 0,-53.40625 -10.8125,0 0,-52.90625 10.8125,0 0,-53.37505 -10.8125,0 0,-17.4687 0,-17.7188 0,-10.625 -53.125,0 0,10.625 -70.875,0 0,-10.625 -53.1563,0 0,10.625 0,17.7188 0,17.4687 -9.875,0 0,53.37505 9.875,0 0,52.90625 -9.875,0 0,53.40625 9.875,0 0,35.1875 -9.875,0 0,53.40625 9.875,0 0,53.12496 -10.625,0 0,53.1563 10.625,0 0,17.7187 0,17.7188 0,10.625 53.1563,0 0,-10.625 70.875,0 0,10.625 53.125,0 z"
       id="rect3369"
       inkscape:connector-curvature="0" />
    <path
       style="fill:#0000ff;fill-rule:evenodd;stroke:#000000;stroke-width:0.85104442px;stroke-linecap:butt;stroke-linejoin:miter;stroke-opacity:1"
       d="m 932.72856,-1020.4927 -11.46872,0 0,-35.4063 -52.3125,0 0,-10.6562 -70.8438,0 0,10.6562 -53.1562,0 0,35.4063 -10.625,0 0,53.1562 10.625,0 0,80.875 88.5625,0 0,220.3125 -88.5625,0 0,53.15625 -10.625,0 0,53.15626 10.625,0 0,53.125 -10.625,0 0,53.15625 10.625,0 0,34.5938 53.1562,0 0,11.4687 70.8438,0 0,-11.4687 52.3125,0 0,-34.5938 11.46872,0 0,-53.15625 -11.46872,0 0,-53.125 11.46872,0 0,-53.15626 -11.46872,0 0,-53.15625 11.46872,0 0,-53.15625 -11.46872,0 0,-35.4375 11.46872,0 0,-53.125 -11.46872,0 0,-53.15625 11.46872,0 0,-53.15625 -11.46872,0 0,-53.15625 11.46872,0 0,-53.1562 z m -46.06252,407.49995 0,106.28126 -35.4375,0 0,-106.28126 35.4375,0 z"
       id="rect3385"
       inkscape:connector-curvature="0" />
  </g>
</svg>
