  0
SECTION
  2
HEADER
  9
$ACADVER
  1
AC1014
  9
$HANDSEED
  5
FFFF
  9
$MEASUREMENT
 70
     1
  0
ENDSEC
  0
SECTION
  2
TABLES
  0
TABLE
  2
VPORT
  5
8
330
0
100
AcDbSymbolTable
 70
     4
  0
VPORT
  5
2E
330
8
100
AcDbSymbolTableRecord
100
AcDbViewportTableRecord
  2
*ACTIVE
 70
     0
 10
0.0
 20
0.0
 11
1.0
 21
1.0
 12
210.0
 22
148.5
 13
0.0
 23
0.0
 14
10.0
 24
10.0
 15
10.0
 25
10.0
 16
0.0
 26
0.0
 36
1.0
 17
0.0
 27
0.0
 37
0.0
 40
341.0
 41
1.24
 42
50.0
 43
0.0
 44
0.0
 50
0.0
 51
0.0
 71
     0
 72
   100
 73
     1
 74
     3
 75
     0
 76
     0
 77
     0
 78
     0
  0
ENDTAB
  0
TABLE
  2
LTYPE
  5
5
330
0
100
AcDbSymbolTable
 70
     1
  0
LTYPE
  5
14
330
5
100
AcDbSymbolTableRecord
100
AcDbLinetypeTableRecord
  2
BYBLOCK
 70
     0
  3

 72
    65
 73
     0
 40
0.0
  0
LTYPE
  5
15
330
5
100
AcDbSymbolTableRecord
100
AcDbLinetypeTableRecord
  2
BYLAYER
 70
     0
  3

 72
    65
 73
     0
 40
0.0
  0
LTYPE
  5
16
330
5
100
AcDbSymbolTableRecord
100
AcDbLinetypeTableRecord
  2
CONTINUOUS
 70
     0
  3
Solid line
 72
    65
 73
     0
 40
0.0
  0
ENDTAB
  0
TABLE
  2
LAYER
  5
2
100
AcDbSymbolTable
 70
2
  0
LAYER
  5
50
100
AcDbSymbolTableRecord
100
AcDbLayerTableRecord
  2
0
 70
0
  6
CONTINUOUS
  0
LAYER
  5
51
100
AcDbSymbolTableRecord
100
AcDbLayerTableRecord
  2
Layer_1
 70
0
  6
CONTINUOUS
  0
ENDTAB
  0
TABLE
  2
STYLE
  5
3
330
0
100
AcDbSymbolTable
 70
     1
  0
STYLE
  5
11
330
3
100
AcDbSymbolTableRecord
100
AcDbTextStyleTableRecord
  2
STANDARD
 70
     0
 40
0.0
 41
1.0
 50
0.0
 71
     0
 42
2.5
  3
txt
  4

  0
ENDTAB
  0
TABLE
  2
VIEW
  5
6
330
0
100
AcDbSymbolTable
 70
     0
  0
ENDTAB
  0
TABLE
  2
UCS
  5
7
330
0
100
AcDbSymbolTable
 70
     0
  0
ENDTAB
  0
TABLE
  2
APPID
  5
9
330
0
100
AcDbSymbolTable
 70
     2
  0
APPID
  5
12
330
9
100
AcDbSymbolTableRecord
100
AcDbRegAppTableRecord
  2
ACAD
 70
     0
  0
ENDTAB
  0
TABLE
  2
DIMSTYLE
  5
A
330
0
100
AcDbSymbolTable
 70
     1
  0
DIMSTYLE
105
27
330
A
100
AcDbSymbolTableRecord
100
AcDbDimStyleTableRecord
  2
ISO-25
 70
     0
  3

  4

  5

  6

  7

 40
1.0
 41
2.5
 42
0.625
 43
3.75
 44
1.25
 45
0.0
 46
0.0
 47
0.0
 48
0.0
140
2.5
141
2.5
142
0.0
143
0.03937007874016
144
1.0
145
0.0
146
1.0
147
0.625
 71
     0
 72
     0
 73
     0
 74
     0
 75
     0
 76
     0
 77
     1
 78
     8
170
     0
171
     3
172
     1
173
     0
174
     0
175
     0
176
     0
177
     0
178
     0
270
     2
271
     2
272
     2
273
     2
274
     3
340
11
275
     0
280
     0
281
     0
282
     0
283
     0
284
     8
285
     0
286
     0
287
     3
288
     0
  0
ENDTAB
  0
TABLE
  2
BLOCK_RECORD
  5
1
330
0
100
AcDbSymbolTable
 70
     1
  0
BLOCK_RECORD
  5
1F
330
1
100
AcDbSymbolTableRecord
100
AcDbBlockTableRecord
  2
*MODEL_SPACE
  0
BLOCK_RECORD
  5
1B
330
1
100
AcDbSymbolTableRecord
100
AcDbBlockTableRecord
  2
*PAPER_SPACE
  0
ENDTAB
  0
ENDSEC
  0
SECTION
  2
BLOCKS
  0
BLOCK
  5
20
330
1F
100
AcDbEntity
  8
0
100
AcDbBlockBegin
  2
*MODEL_SPACE
 70
     0
 10
0.0
 20
0.0
 30
0.0
  3
*MODEL_SPACE
  1

  0
ENDBLK
  5
21
330
1F
100
AcDbEntity
  8
0
100
AcDbBlockEnd
  0
BLOCK
  5
1C
330
1B
100
AcDbEntity
 67
     1
  8
0
100
AcDbBlockBegin
  2
*PAPER_SPACE
  1

  0
ENDBLK
  5
1D
330
1B
100
AcDbEntity
 67
     1
  8
0
100
AcDbBlockEnd
  0
ENDSEC
  0
SECTION
  2
ENTITIES
  0
LWPOLYLINE
  5
100
100
AcDbEntity
  8
Layer_1
 62
7
100
AcDbPolyline
 90
12
 70
1
 10
3.360903
 20
596.822417
 30
0.0
 10
3.360903
 20
586.821167
 30
0.0
 10
3.360903
 20
471.586312
 30
0.0
 10
3.360903
 20
466.823812
 30
0.0
 10
3.360903
 20
456.822562
 30
0.0
 10
203.359444
 20
456.822562
 30
0.0
 10
203.359444
 20
466.823812
 30
0.0
 10
203.359444
 20
471.586312
 30
0.0
 10
203.359444
 20
586.821167
 30
0.0
 10
203.359444
 20
596.822417
 30
0.0
 10
3.360903
 20
596.822417
 30
0.0
 10
3.360903
 20
596.822417
 30
0.0
  0
LWPOLYLINE
  5
101
100
AcDbEntity
  8
Layer_1
 62
7
100
AcDbPolyline
 90
6
 70
1
 10
23.354583
 20
589.819778
 30
0.0
 10
38.356458
 20
589.819778
 30
0.0
 10
38.356458
 20
586.821167
 30
0.0
 10
23.354583
 20
586.821167
 30
0.0
 10
23.354583
 20
589.819778
 30
0.0
 10
23.354583
 20
589.819778
 30
0.0
  0
LWPOLYLINE
  5
102
100
AcDbEntity
  8
Layer_1
 62
7
100
AcDbPolyline
 90
6
 70
1
 10
53.358333
 20
589.819778
 30
0.0
 10
68.360208
 20
589.819778
 30
0.0
 10
68.360208
 20
586.821167
 30
0.0
 10
53.358333
 20
586.821167
 30
0.0
 10
53.358333
 20
589.819778
 30
0.0
 10
53.358333
 20
589.819778
 30
0.0
  0
LWPOLYLINE
  5
103
100
AcDbEntity
  8
Layer_1
 62
7
100
AcDbPolyline
 90
6
 70
1
 10
83.362083
 20
589.819778
 30
0.0
 10
98.355139
 20
589.819778
 30
0.0
 10
98.355139
 20
586.821167
 30
0.0
 10
83.362083
 20
586.821167
 30
0.0
 10
83.362083
 20
589.819778
 30
0.0
 10
83.362083
 20
589.819778
 30
0.0
  0
LWPOLYLINE
  5
104
100
AcDbEntity
  8
Layer_1
 62
7
100
AcDbPolyline
 90
6
 70
1
 10
108.356389
 20
589.819778
 30
0.0
 10
123.358264
 20
589.819778
 30
0.0
 10
123.358264
 20
586.821167
 30
0.0
 10
108.356389
 20
586.821167
 30
0.0
 10
108.356389
 20
589.819778
 30
0.0
 10
108.356389
 20
589.819778
 30
0.0
  0
LWPOLYLINE
  5
105
100
AcDbEntity
  8
Layer_1
 62
7
100
AcDbPolyline
 90
6
 70
1
 10
138.360139
 20
589.819778
 30
0.0
 10
153.362014
 20
589.819778
 30
0.0
 10
153.362014
 20
586.821167
 30
0.0
 10
138.360139
 20
586.821167
 30
0.0
 10
138.360139
 20
589.819778
 30
0.0
 10
138.360139
 20
589.819778
 30
0.0
  0
SPLINE
  5
106
100
AcDbEntity
  8
Layer_1
 62
7
100
AcDbSpline
 70
8
 71
3
 72
8
 73
4
 74
0
 40
0
 40
0
 40
0
 40
0
 40
1
 40
1
 40
1
 40
1
 10
74.930694
 20
584.492834
 30
0.0
 10
75.611632
 20
584.492834
 30
0.0
 10
76.165416
 20
583.939057
 30
0.0
 10
76.165416
 20
583.258112
 30
0.0
  0
SPLINE
  5
107
100
AcDbEntity
  8
Layer_1
 62
7
100
AcDbSpline
 70
8
 71
3
 72
8
 73
4
 74
0
 40
0
 40
0
 40
0
 40
0
 40
1
 40
1
 40
1
 40
1
 10
76.165416
 20
583.258112
 30
0.0
 10
76.165416
 20
582.577166
 30
0.0
 10
75.611632
 20
582.023389
 30
0.0
 10
74.930694
 20
582.023389
 30
0.0
  0
SPLINE
  5
108
100
AcDbEntity
  8
Layer_1
 62
7
100
AcDbSpline
 70
8
 71
3
 72
8
 73
4
 74
0
 40
0
 40
0
 40
0
 40
0
 40
1
 40
1
 40
1
 40
1
 10
74.930694
 20
582.023389
 30
0.0
 10
74.249757
 20
582.023389
 30
0.0
 10
73.704791
 20
582.577166
 30
0.0
 10
73.704791
 20
583.258112
 30
0.0
  0
SPLINE
  5
109
100
AcDbEntity
  8
Layer_1
 62
7
100
AcDbSpline
 70
8
 71
3
 72
8
 73
4
 74
0
 40
0
 40
0
 40
0
 40
0
 40
1
 40
1
 40
1
 40
1
 10
73.704791
 20
583.258112
 30
0.0
 10
73.704791
 20
583.939057
 30
0.0
 10
74.249757
 20
584.492834
 30
0.0
 10
74.930694
 20
584.492834
 30
0.0
  0
LWPOLYLINE
  5
10a
100
AcDbEntity
  8
Layer_1
 62
7
100
AcDbPolyline
 90
6
 70
1
 10
168.355069
 20
589.819778
 30
0.0
 10
183.356944
 20
589.819778
 30
0.0
 10
183.356944
 20
586.821167
 30
0.0
 10
168.355069
 20
586.821167
 30
0.0
 10
168.355069
 20
589.819778
 30
0.0
 10
168.355069
 20
589.819778
 30
0.0
  0
SPLINE
  5
10b
100
AcDbEntity
  8
Layer_1
 62
7
100
AcDbSpline
 70
8
 71
3
 72
8
 73
4
 74
0
 40
0
 40
0
 40
0
 40
0
 40
1
 40
1
 40
1
 40
1
 10
134.629514
 20
584.060695
 30
0.0
 10
135.310451
 20
584.060695
 30
0.0
 10
135.864236
 20
583.506890
 30
0.0
 10
135.864236
 20
582.825973
 30
0.0
  0
SPLINE
  5
10c
100
AcDbEntity
  8
Layer_1
 62
7
100
AcDbSpline
 70
8
 71
3
 72
8
 73
4
 74
0
 40
0
 40
0
 40
0
 40
0
 40
1
 40
1
 40
1
 40
1
 10
135.864236
 20
582.825973
 30
0.0
 10
135.864236
 20
582.145027
 30
0.0
 10
135.310451
 20
581.591251
 30
0.0
 10
134.629514
 20
581.591251
 30
0.0
  0
SPLINE
  5
10d
100
AcDbEntity
  8
Layer_1
 62
7
100
AcDbSpline
 70
8
 71
3
 72
8
 73
4
 74
0
 40
0
 40
0
 40
0
 40
0
 40
1
 40
1
 40
1
 40
1
 10
134.629514
 20
581.591251
 30
0.0
 10
133.948576
 20
581.591251
 30
0.0
 10
133.403611
 20
582.145027
 30
0.0
 10
133.403611
 20
582.825973
 30
0.0
  0
SPLINE
  5
10e
100
AcDbEntity
  8
Layer_1
 62
7
100
AcDbSpline
 70
8
 71
3
 72
8
 73
4
 74
0
 40
0
 40
0
 40
0
 40
0
 40
1
 40
1
 40
1
 40
1
 10
133.403611
 20
582.825973
 30
0.0
 10
133.403611
 20
583.506890
 30
0.0
 10
133.948576
 20
584.060695
 30
0.0
 10
134.629514
 20
584.060695
 30
0.0
  0
LWPOLYLINE
  5
10f
100
AcDbEntity
  8
Layer_1
 62
7
100
AcDbPolyline
 90
2
 70
1
 10
74.930694
 20
584.492834
 30
0.0
 10
74.930694
 20
584.492834
 30
0.0
  0
LWPOLYLINE
  5
110
100
AcDbEntity
  8
Layer_1
 62
7
100
AcDbPolyline
 90
2
 70
1
 10
134.629514
 20
584.060695
 30
0.0
 10
134.629514
 20
584.060695
 30
0.0
  0
LWPOLYLINE
  5
111
100
AcDbEntity
  8
Layer_1
 62
7
100
AcDbPolyline
 90
6
 70
1
 10
10.354722
 20
576.819923
 30
0.0
 10
13.362153
 20
576.819923
 30
0.0
 10
13.362153
 20
561.826867
 30
0.0
 10
10.354722
 20
561.826867
 30
0.0
 10
10.354722
 20
576.819923
 30
0.0
 10
10.354722
 20
576.819923
 30
0.0
  0
SPLINE
  5
112
100
AcDbEntity
  8
Layer_1
 62
7
100
AcDbSpline
 70
8
 71
3
 72
8
 73
4
 74
0
 40
0
 40
0
 40
0
 40
0
 40
1
 40
1
 40
1
 40
1
 10
59.408472
 20
570.725687
 30
0.0
 10
59.456204
 20
570.730541
 30
0.0
 10
59.509392
 20
570.725687
 30
0.0
 10
59.558403
 20
570.725687
 30
0.0
  0
SPLINE
  5
113
100
AcDbEntity
  8
Layer_1
 62
7
100
AcDbSpline
 70
8
 71
3
 72
8
 73
4
 74
0
 40
0
 40
0
 40
0
 40
0
 40
1
 40
1
 40
1
 40
1
 10
59.558403
 20
570.725687
 30
0.0
 10
60.342568
 20
570.725687
 30
0.0
 10
60.978333
 20
570.098741
 30
0.0
 10
60.978333
 20
569.314576
 30
0.0
  0
SPLINE
  5
114
100
AcDbEntity
  8
Layer_1
 62
7
100
AcDbSpline
 70
8
 71
3
 72
8
 73
4
 74
0
 40
0
 40
0
 40
0
 40
0
 40
1
 40
1
 40
1
 40
1
 10
60.978333
 20
569.314576
 30
0.0
 10
60.978333
 20
569.187149
 30
0.0
 10
60.956912
 20
569.061654
 30
0.0
 10
60.925416
 20
568.944159
 30
0.0
  0
LWPOLYLINE
  5
115
100
AcDbEntity
  8
Layer_1
 62
7
100
AcDbPolyline
 90
6
 70
1
 10
193.358194
 20
576.819923
 30
0.0
 10
196.356805
 20
576.819923
 30
0.0
 10
196.356805
 20
561.826867
 30
0.0
 10
193.358194
 20
561.826867
 30
0.0
 10
193.358194
 20
576.819923
 30
0.0
 10
193.358194
 20
576.819923
 30
0.0
  0
SPLINE
  5
116
100
AcDbEntity
  8
Layer_1
 62
7
100
AcDbSpline
 70
8
 71
3
 72
8
 73
4
 74
0
 40
0
 40
0
 40
0
 40
0
 40
1
 40
1
 40
1
 40
1
 10
60.925416
 20
566.712839
 30
0.0
 10
61.809325
 20
566.219865
 30
0.0
 10
62.407083
 20
565.283243
 30
0.0
 10
62.407083
 20
564.199298
 30
0.0
  0
SPLINE
  5
117
100
AcDbEntity
  8
Layer_1
 62
7
100
AcDbSpline
 70
8
 71
3
 72
8
 73
4
 74
0
 40
0
 40
0
 40
0
 40
0
 40
1
 40
1
 40
1
 40
1
 10
62.407083
 20
564.199298
 30
0.0
 10
62.407083
 20
562.606035
 30
0.0
 10
61.116388
 20
561.315339
 30
0.0
 10
59.523125
 20
561.315339
 30
0.0
  0
SPLINE
  5
118
100
AcDbEntity
  8
Layer_1
 62
7
100
AcDbSpline
 70
8
 71
3
 72
8
 73
4
 74
0
 40
0
 40
0
 40
0
 40
0
 40
1
 40
1
 40
1
 40
1
 10
59.523125
 20
561.315339
 30
0.0
 10
57.929862
 20
561.315339
 30
0.0
 10
56.639166
 20
562.606035
 30
0.0
 10
56.639166
 20
564.199298
 30
0.0
  0
SPLINE
  5
119
100
AcDbEntity
  8
Layer_1
 62
7
100
AcDbSpline
 70
8
 71
3
 72
8
 73
4
 74
0
 40
0
 40
0
 40
0
 40
0
 40
1
 40
1
 40
1
 40
1
 10
56.639166
 20
564.199298
 30
0.0
 10
56.639166
 20
565.311279
 30
0.0
 10
57.269648
 20
566.266559
 30
0.0
 10
58.191389
 20
566.748117
 30
0.0
  0
LWPOLYLINE
  5
11a
100
AcDbEntity
  8
Layer_1
 62
7
100
AcDbPolyline
 90
2
 70
1
 10
60.925416
 20
568.944159
 30
0.0
 10
60.925416
 20
566.712839
 30
0.0
  0
SPLINE
  5
11b
100
AcDbEntity
  8
Layer_1
 62
7
100
AcDbSpline
 70
8
 71
3
 72
8
 73
4
 74
0
 40
0
 40
0
 40
0
 40
0
 40
1
 40
1
 40
1
 40
1
 10
58.191389
 20
568.944159
 30
0.0
 10
58.159921
 20
569.061654
 30
0.0
 10
58.138472
 20
569.187149
 30
0.0
 10
58.138472
 20
569.314576
 30
0.0
  0
SPLINE
  5
11c
100
AcDbEntity
  8
Layer_1
 62
7
100
AcDbSpline
 70
8
 71
3
 72
8
 73
4
 74
0
 40
0
 40
0
 40
0
 40
0
 40
1
 40
1
 40
1
 40
1
 10
58.138472
 20
569.314576
 30
0.0
 10
58.138472
 20
570.049731
 30
0.0
 10
58.692500
 20
570.652975
 30
0.0
 10
59.408472
 20
570.725687
 30
0.0
  0
LWPOLYLINE
  5
11d
100
AcDbEntity
  8
Layer_1
 62
7
100
AcDbPolyline
 90
2
 70
1
 10
58.191389
 20
566.748117
 30
0.0
 10
58.191389
 20
568.944159
 30
0.0
  0
SPLINE
  5
11e
100
AcDbEntity
  8
Layer_1
 62
7
100
AcDbSpline
 70
8
 71
3
 72
8
 73
4
 74
0
 40
0
 40
0
 40
0
 40
0
 40
1
 40
1
 40
1
 40
1
 10
146.906180
 20
570.725687
 30
0.0
 10
146.953913
 20
570.730541
 30
0.0
 10
147.007100
 20
570.725687
 30
0.0
 10
147.056111
 20
570.725687
 30
0.0
  0
SPLINE
  5
11f
100
AcDbEntity
  8
Layer_1
 62
7
100
AcDbSpline
 70
8
 71
3
 72
8
 73
4
 74
0
 40
0
 40
0
 40
0
 40
0
 40
1
 40
1
 40
1
 40
1
 10
147.056111
 20
570.725687
 30
0.0
 10
147.840277
 20
570.725687
 30
0.0
 10
148.476041
 20
570.098741
 30
0.0
 10
148.476041
 20
569.314576
 30
0.0
  0
SPLINE
  5
120
100
AcDbEntity
  8
Layer_1
 62
7
100
AcDbSpline
 70
8
 71
3
 72
8
 73
4
 74
0
 40
0
 40
0
 40
0
 40
0
 40
1
 40
1
 40
1
 40
1
 10
148.476041
 20
569.314576
 30
0.0
 10
148.476041
 20
569.187149
 30
0.0
 10
148.454621
 20
569.061654
 30
0.0
 10
148.423125
 20
568.944159
 30
0.0
  0
LWPOLYLINE
  5
121
100
AcDbEntity
  8
Layer_1
 62
7
100
AcDbPolyline
 90
2
 70
1
 10
59.408472
 20
570.725687
 30
0.0
 10
59.408472
 20
570.725687
 30
0.0
  0
SPLINE
  5
122
100
AcDbEntity
  8
Layer_1
 62
7
100
AcDbSpline
 70
8
 71
3
 72
8
 73
4
 74
0
 40
0
 40
0
 40
0
 40
0
 40
1
 40
1
 40
1
 40
1
 10
148.423125
 20
566.712839
 30
0.0
 10
149.307034
 20
566.219865
 30
0.0
 10
149.904791
 20
565.283243
 30
0.0
 10
149.904791
 20
564.199298
 30
0.0
  0
SPLINE
  5
123
100
AcDbEntity
  8
Layer_1
 62
7
100
AcDbSpline
 70
8
 71
3
 72
8
 73
4
 74
0
 40
0
 40
0
 40
0
 40
0
 40
1
 40
1
 40
1
 40
1
 10
149.904791
 20
564.199298
 30
0.0
 10
149.904791
 20
562.606035
 30
0.0
 10
148.614096
 20
561.315339
 30
0.0
 10
147.020833
 20
561.315339
 30
0.0
  0
SPLINE
  5
124
100
AcDbEntity
  8
Layer_1
 62
7
100
AcDbSpline
 70
8
 71
3
 72
8
 73
4
 74
0
 40
0
 40
0
 40
0
 40
0
 40
1
 40
1
 40
1
 40
1
 10
147.020833
 20
561.315339
 30
0.0
 10
145.427570
 20
561.315339
 30
0.0
 10
144.136875
 20
562.606035
 30
0.0
 10
144.136875
 20
564.199298
 30
0.0
  0
SPLINE
  5
125
100
AcDbEntity
  8
Layer_1
 62
7
100
AcDbSpline
 70
8
 71
3
 72
8
 73
4
 74
0
 40
0
 40
0
 40
0
 40
0
 40
1
 40
1
 40
1
 40
1
 10
144.136875
 20
564.199298
 30
0.0
 10
144.136875
 20
565.311279
 30
0.0
 10
144.767356
 20
566.266559
 30
0.0
 10
145.689097
 20
566.748117
 30
0.0
  0
LWPOLYLINE
  5
126
100
AcDbEntity
  8
Layer_1
 62
7
100
AcDbPolyline
 90
2
 70
1
 10
148.423125
 20
568.944159
 30
0.0
 10
148.423125
 20
566.712839
 30
0.0
  0
SPLINE
  5
127
100
AcDbEntity
  8
Layer_1
 62
7
100
AcDbSpline
 70
8
 71
3
 72
8
 73
4
 74
0
 40
0
 40
0
 40
0
 40
0
 40
1
 40
1
 40
1
 40
1
 10
145.689097
 20
568.944159
 30
0.0
 10
145.657629
 20
569.061654
 30
0.0
 10
145.636180
 20
569.187149
 30
0.0
 10
145.636180
 20
569.314576
 30
0.0
  0
SPLINE
  5
128
100
AcDbEntity
  8
Layer_1
 62
7
100
AcDbSpline
 70
8
 71
3
 72
8
 73
4
 74
0
 40
0
 40
0
 40
0
 40
0
 40
1
 40
1
 40
1
 40
1
 10
145.636180
 20
569.314576
 30
0.0
 10
145.636180
 20
570.049731
 30
0.0
 10
146.190208
 20
570.652975
 30
0.0
 10
146.906180
 20
570.725687
 30
0.0
  0
LWPOLYLINE
  5
129
100
AcDbEntity
  8
Layer_1
 62
7
100
AcDbPolyline
 90
2
 70
1
 10
145.689097
 20
566.748117
 30
0.0
 10
145.689097
 20
568.944159
 30
0.0
  0
SPLINE
  5
12a
100
AcDbEntity
  8
Layer_1
 62
7
100
AcDbSpline
 70
8
 71
3
 72
8
 73
4
 74
0
 40
0
 40
0
 40
0
 40
0
 40
1
 40
1
 40
1
 40
1
 10
19.588681
 20
564.358048
 30
0.0
 10
20.307498
 20
564.358048
 30
0.0
 10
20.893958
 20
563.780407
 30
0.0
 10
20.893958
 20
563.061589
 30
0.0
  0
SPLINE
  5
12b
100
AcDbEntity
  8
Layer_1
 62
7
100
AcDbSpline
 70
8
 71
3
 72
8
 73
4
 74
0
 40
0
 40
0
 40
0
 40
0
 40
1
 40
1
 40
1
 40
1
 10
20.893958
 20
563.061589
 30
0.0
 10
20.893958
 20
562.342772
 30
0.0
 10
20.307498
 20
561.756312
 30
0.0
 10
19.588681
 20
561.756312
 30
0.0
  0
SPLINE
  5
12c
100
AcDbEntity
  8
Layer_1
 62
7
100
AcDbSpline
 70
8
 71
3
 72
8
 73
4
 74
0
 40
0
 40
0
 40
0
 40
0
 40
1
 40
1
 40
1
 40
1
 10
19.588681
 20
561.756312
 30
0.0
 10
18.869863
 20
561.756312
 30
0.0
 10
18.292222
 20
562.342772
 30
0.0
 10
18.292222
 20
563.061589
 30
0.0
  0
SPLINE
  5
12d
100
AcDbEntity
  8
Layer_1
 62
7
100
AcDbSpline
 70
8
 71
3
 72
8
 73
4
 74
0
 40
0
 40
0
 40
0
 40
0
 40
1
 40
1
 40
1
 40
1
 10
18.292222
 20
563.061589
 30
0.0
 10
18.292222
 20
563.780407
 30
0.0
 10
18.869863
 20
564.358048
 30
0.0
 10
19.588681
 20
564.358048
 30
0.0
  0
LWPOLYLINE
  5
12e
100
AcDbEntity
  8
Layer_1
 62
7
100
AcDbPolyline
 90
2
 70
1
 10
146.906180
 20
570.725687
 30
0.0
 10
146.906180
 20
570.725687
 30
0.0
  0
SPLINE
  5
12f
100
AcDbEntity
  8
Layer_1
 62
7
100
AcDbSpline
 70
8
 71
3
 72
8
 73
4
 74
0
 40
0
 40
0
 40
0
 40
0
 40
1
 40
1
 40
1
 40
1
 10
66.234722
 20
551.234714
 30
0.0
 10
66.915659
 20
551.234714
 30
0.0
 10
67.469444
 20
550.680930
 30
0.0
 10
67.469444
 20
549.999992
 30
0.0
  0
SPLINE
  5
130
100
AcDbEntity
  8
Layer_1
 62
7
100
AcDbSpline
 70
8
 71
3
 72
8
 73
4
 74
0
 40
0
 40
0
 40
0
 40
0
 40
1
 40
1
 40
1
 40
1
 10
67.469444
 20
549.999992
 30
0.0
 10
67.469444
 20
549.319055
 30
0.0
 10
66.915659
 20
548.765270
 30
0.0
 10
66.234722
 20
548.765270
 30
0.0
  0
SPLINE
  5
131
100
AcDbEntity
  8
Layer_1
 62
7
100
AcDbSpline
 70
8
 71
3
 72
8
 73
4
 74
0
 40
0
 40
0
 40
0
 40
0
 40
1
 40
1
 40
1
 40
1
 10
66.234722
 20
548.765270
 30
0.0
 10
65.553785
 20
548.765270
 30
0.0
 10
65.000000
 20
549.319055
 30
0.0
 10
65.000000
 20
549.999992
 30
0.0
  0
SPLINE
  5
132
100
AcDbEntity
  8
Layer_1
 62
7
100
AcDbSpline
 70
8
 71
3
 72
8
 73
4
 74
0
 40
0
 40
0
 40
0
 40
0
 40
1
 40
1
 40
1
 40
1
 10
65.000000
 20
549.999992
 30
0.0
 10
65.000000
 20
550.680930
 30
0.0
 10
65.553785
 20
551.234714
 30
0.0
 10
66.234722
 20
551.234714
 30
0.0
  0
LWPOLYLINE
  5
133
100
AcDbEntity
  8
Layer_1
 62
7
100
AcDbPolyline
 90
2
 70
1
 10
19.588681
 20
564.358048
 30
0.0
 10
19.588681
 20
564.358048
 30
0.0
  0
LWPOLYLINE
  5
134
100
AcDbEntity
  8
Layer_1
 62
7
100
AcDbPolyline
 90
2
 70
1
 10
66.234722
 20
551.234714
 30
0.0
 10
66.234722
 20
551.234714
 30
0.0
  0
LWPOLYLINE
  5
135
100
AcDbEntity
  8
Layer_1
 62
7
100
AcDbPolyline
 90
6
 70
1
 10
10.354722
 20
546.824992
 30
0.0
 10
13.362153
 20
546.824992
 30
0.0
 10
13.362153
 20
531.823117
 30
0.0
 10
10.354722
 20
531.823117
 30
0.0
 10
10.354722
 20
546.824992
 30
0.0
 10
10.354722
 20
546.824992
 30
0.0
  0
LWPOLYLINE
  5
136
100
AcDbEntity
  8
Layer_1
 62
7
100
AcDbPolyline
 90
6
 70
1
 10
193.358194
 20
546.824992
 30
0.0
 10
196.356805
 20
546.824992
 30
0.0
 10
196.356805
 20
531.823117
 30
0.0
 10
193.358194
 20
531.823117
 30
0.0
 10
193.358194
 20
546.824992
 30
0.0
 10
193.358194
 20
546.824992
 30
0.0
  0
LWPOLYLINE
  5
137
100
AcDbEntity
  8
Layer_1
 62
7
100
AcDbPolyline
 90
6
 70
1
 10
10.354722
 20
521.821867
 30
0.0
 10
13.362153
 20
521.821867
 30
0.0
 10
13.362153
 20
506.819992
 30
0.0
 10
10.354722
 20
506.819992
 30
0.0
 10
10.354722
 20
521.821867
 30
0.0
 10
10.354722
 20
521.821867
 30
0.0
  0
SPLINE
  5
138
100
AcDbEntity
  8
Layer_1
 62
7
100
AcDbSpline
 70
8
 71
3
 72
8
 73
4
 74
0
 40
0
 40
0
 40
0
 40
0
 40
1
 40
1
 40
1
 40
1
 10
19.588681
 20
518.796798
 30
0.0
 10
20.307498
 20
518.796798
 30
0.0
 10
20.893958
 20
518.219157
 30
0.0
 10
20.893958
 20
517.500339
 30
0.0
  0
SPLINE
  5
139
100
AcDbEntity
  8
Layer_1
 62
7
100
AcDbSpline
 70
8
 71
3
 72
8
 73
4
 74
0
 40
0
 40
0
 40
0
 40
0
 40
1
 40
1
 40
1
 40
1
 10
20.893958
 20
517.500339
 30
0.0
 10
20.893958
 20
516.781522
 30
0.0
 10
20.307498
 20
516.195062
 30
0.0
 10
19.588681
 20
516.195062
 30
0.0
  0
SPLINE
  5
13a
100
AcDbEntity
  8
Layer_1
 62
7
100
AcDbSpline
 70
8
 71
3
 72
8
 73
4
 74
0
 40
0
 40
0
 40
0
 40
0
 40
1
 40
1
 40
1
 40
1
 10
19.588681
 20
516.195062
 30
0.0
 10
18.869863
 20
516.195062
 30
0.0
 10
18.292222
 20
516.781522
 30
0.0
 10
18.292222
 20
517.500339
 30
0.0
  0
SPLINE
  5
13b
100
AcDbEntity
  8
Layer_1
 62
7
100
AcDbSpline
 70
8
 71
3
 72
8
 73
4
 74
0
 40
0
 40
0
 40
0
 40
0
 40
1
 40
1
 40
1
 40
1
 10
18.292222
 20
517.500339
 30
0.0
 10
18.292222
 20
518.219157
 30
0.0
 10
18.869863
 20
518.796798
 30
0.0
 10
19.588681
 20
518.796798
 30
0.0
  0
LWPOLYLINE
  5
13c
100
AcDbEntity
  8
Layer_1
 62
7
100
AcDbPolyline
 90
6
 70
1
 10
193.358194
 20
521.821867
 30
0.0
 10
196.356805
 20
521.821867
 30
0.0
 10
196.356805
 20
506.819992
 30
0.0
 10
193.358194
 20
506.819992
 30
0.0
 10
193.358194
 20
521.821867
 30
0.0
 10
193.358194
 20
521.821867
 30
0.0
  0
SPLINE
  5
13d
100
AcDbEntity
  8
Layer_1
 62
7
100
AcDbSpline
 70
8
 71
3
 72
8
 73
4
 74
0
 40
0
 40
0
 40
0
 40
0
 40
1
 40
1
 40
1
 40
1
 10
74.339791
 20
507.825409
 30
0.0
 10
75.041974
 20
507.825409
 30
0.0
 10
75.618611
 20
507.257592
 30
0.0
 10
75.618611
 20
506.555409
 30
0.0
  0
SPLINE
  5
13e
100
AcDbEntity
  8
Layer_1
 62
7
100
AcDbSpline
 70
8
 71
3
 72
8
 73
4
 74
0
 40
0
 40
0
 40
0
 40
0
 40
1
 40
1
 40
1
 40
1
 10
75.618611
 20
506.555409
 30
0.0
 10
75.618611
 20
505.853226
 30
0.0
 10
75.041974
 20
505.285409
 30
0.0
 10
74.339791
 20
505.285409
 30
0.0
  0
SPLINE
  5
13f
100
AcDbEntity
  8
Layer_1
 62
7
100
AcDbSpline
 70
8
 71
3
 72
8
 73
4
 74
0
 40
0
 40
0
 40
0
 40
0
 40
1
 40
1
 40
1
 40
1
 10
74.339791
 20
505.285409
 30
0.0
 10
73.637608
 20
505.285409
 30
0.0
 10
73.069791
 20
505.853226
 30
0.0
 10
73.069791
 20
506.555409
 30
0.0
  0
SPLINE
  5
140
100
AcDbEntity
  8
Layer_1
 62
7
100
AcDbSpline
 70
8
 71
3
 72
8
 73
4
 74
0
 40
0
 40
0
 40
0
 40
0
 40
1
 40
1
 40
1
 40
1
 10
73.069791
 20
506.555409
 30
0.0
 10
73.069791
 20
507.257592
 30
0.0
 10
73.637608
 20
507.825409
 30
0.0
 10
74.339791
 20
507.825409
 30
0.0
  0
LWPOLYLINE
  5
141
100
AcDbEntity
  8
Layer_1
 62
7
100
AcDbPolyline
 90
2
 70
1
 10
19.588681
 20
518.796798
 30
0.0
 10
19.588681
 20
518.796798
 30
0.0
  0
SPLINE
  5
142
100
AcDbEntity
  8
Layer_1
 62
7
100
AcDbSpline
 70
8
 71
3
 72
8
 73
4
 74
0
 40
0
 40
0
 40
0
 40
0
 40
1
 40
1
 40
1
 40
1
 10
134.532500
 20
498.556173
 30
0.0
 10
135.226594
 20
498.556173
 30
0.0
 10
135.793680
 20
497.989087
 30
0.0
 10
135.793680
 20
497.294992
 30
0.0
  0
SPLINE
  5
143
100
AcDbEntity
  8
Layer_1
 62
7
100
AcDbSpline
 70
8
 71
3
 72
8
 73
4
 74
0
 40
0
 40
0
 40
0
 40
0
 40
1
 40
1
 40
1
 40
1
 10
135.793680
 20
497.294992
 30
0.0
 10
135.793680
 20
496.600898
 30
0.0
 10
135.226594
 20
496.042631
 30
0.0
 10
134.532500
 20
496.042631
 30
0.0
  0
SPLINE
  5
144
100
AcDbEntity
  8
Layer_1
 62
7
100
AcDbSpline
 70
8
 71
3
 72
8
 73
4
 74
0
 40
0
 40
0
 40
0
 40
0
 40
1
 40
1
 40
1
 40
1
 10
134.532500
 20
496.042631
 30
0.0
 10
133.838405
 20
496.042631
 30
0.0
 10
133.280139
 20
496.600898
 30
0.0
 10
133.280139
 20
497.294992
 30
0.0
  0
SPLINE
  5
145
100
AcDbEntity
  8
Layer_1
 62
7
100
AcDbSpline
 70
8
 71
3
 72
8
 73
4
 74
0
 40
0
 40
0
 40
0
 40
0
 40
1
 40
1
 40
1
 40
1
 10
133.280139
 20
497.294992
 30
0.0
 10
133.280139
 20
497.989087
 30
0.0
 10
133.838405
 20
498.556173
 30
0.0
 10
134.532500
 20
498.556173
 30
0.0
  0
LWPOLYLINE
  5
146
100
AcDbEntity
  8
Layer_1
 62
7
100
AcDbPolyline
 90
2
 70
1
 10
74.339791
 20
507.825409
 30
0.0
 10
74.339791
 20
507.825409
 30
0.0
  0
SPLINE
  5
147
100
AcDbEntity
  8
Layer_1
 62
7
100
AcDbSpline
 70
8
 71
3
 72
8
 73
4
 74
0
 40
0
 40
0
 40
0
 40
0
 40
1
 40
1
 40
1
 40
1
 10
66.234722
 20
493.229228
 30
0.0
 10
66.915659
 20
493.229228
 30
0.0
 10
67.469444
 20
492.675443
 30
0.0
 10
67.469444
 20
491.994506
 30
0.0
  0
SPLINE
  5
148
100
AcDbEntity
  8
Layer_1
 62
7
100
AcDbSpline
 70
8
 71
3
 72
8
 73
4
 74
0
 40
0
 40
0
 40
0
 40
0
 40
1
 40
1
 40
1
 40
1
 10
67.469444
 20
491.994506
 30
0.0
 10
67.469444
 20
491.313569
 30
0.0
 10
66.915659
 20
490.768603
 30
0.0
 10
66.234722
 20
490.768603
 30
0.0
  0
SPLINE
  5
149
100
AcDbEntity
  8
Layer_1
 62
7
100
AcDbSpline
 70
8
 71
3
 72
8
 73
4
 74
0
 40
0
 40
0
 40
0
 40
0
 40
1
 40
1
 40
1
 40
1
 10
66.234722
 20
490.768603
 30
0.0
 10
65.553785
 20
490.768603
 30
0.0
 10
65.000000
 20
491.313569
 30
0.0
 10
65.000000
 20
491.994506
 30
0.0
  0
SPLINE
  5
14a
100
AcDbEntity
  8
Layer_1
 62
7
100
AcDbSpline
 70
8
 71
3
 72
8
 73
4
 74
0
 40
0
 40
0
 40
0
 40
0
 40
1
 40
1
 40
1
 40
1
 10
65.000000
 20
491.994506
 30
0.0
 10
65.000000
 20
492.675443
 30
0.0
 10
65.553785
 20
493.229228
 30
0.0
 10
66.234722
 20
493.229228
 30
0.0
  0
LWPOLYLINE
  5
14b
100
AcDbEntity
  8
Layer_1
 62
7
100
AcDbPolyline
 90
2
 70
1
 10
134.532500
 20
498.556173
 30
0.0
 10
134.532500
 20
498.556173
 30
0.0
  0
SPLINE
  5
14c
100
AcDbEntity
  8
Layer_1
 62
7
100
AcDbSpline
 70
8
 71
3
 72
8
 73
4
 74
0
 40
0
 40
0
 40
0
 40
0
 40
1
 40
1
 40
1
 40
1
 10
115.235555
 20
493.229228
 30
0.0
 10
115.916493
 20
493.229228
 30
0.0
 10
116.470278
 20
492.675443
 30
0.0
 10
116.470278
 20
491.994506
 30
0.0
  0
SPLINE
  5
14d
100
AcDbEntity
  8
Layer_1
 62
7
100
AcDbSpline
 70
8
 71
3
 72
8
 73
4
 74
0
 40
0
 40
0
 40
0
 40
0
 40
1
 40
1
 40
1
 40
1
 10
116.470278
 20
491.994506
 30
0.0
 10
116.470278
 20
491.313569
 30
0.0
 10
115.916493
 20
490.768603
 30
0.0
 10
115.235555
 20
490.768603
 30
0.0
  0
SPLINE
  5
14e
100
AcDbEntity
  8
Layer_1
 62
7
100
AcDbSpline
 70
8
 71
3
 72
8
 73
4
 74
0
 40
0
 40
0
 40
0
 40
0
 40
1
 40
1
 40
1
 40
1
 10
115.235555
 20
490.768603
 30
0.0
 10
114.554618
 20
490.768603
 30
0.0
 10
114.000833
 20
491.313569
 30
0.0
 10
114.000833
 20
491.994506
 30
0.0
  0
SPLINE
  5
14f
100
AcDbEntity
  8
Layer_1
 62
7
100
AcDbSpline
 70
8
 71
3
 72
8
 73
4
 74
0
 40
0
 40
0
 40
0
 40
0
 40
1
 40
1
 40
1
 40
1
 10
114.000833
 20
491.994506
 30
0.0
 10
114.000833
 20
492.675443
 30
0.0
 10
114.554618
 20
493.229228
 30
0.0
 10
115.235555
 20
493.229228
 30
0.0
  0
LWPOLYLINE
  5
150
100
AcDbEntity
  8
Layer_1
 62
7
100
AcDbPolyline
 90
2
 70
1
 10
66.234722
 20
493.229228
 30
0.0
 10
66.234722
 20
493.229228
 30
0.0
  0
LWPOLYLINE
  5
151
100
AcDbEntity
  8
Layer_1
 62
7
100
AcDbPolyline
 90
2
 70
1
 10
115.235555
 20
493.229228
 30
0.0
 10
115.235555
 20
493.229228
 30
0.0
  0
LWPOLYLINE
  5
152
100
AcDbEntity
  8
Layer_1
 62
7
100
AcDbPolyline
 90
6
 70
1
 10
10.354722
 20
491.826937
 30
0.0
 10
13.362153
 20
491.826937
 30
0.0
 10
13.362153
 20
476.825062
 30
0.0
 10
10.354722
 20
476.825062
 30
0.0
 10
10.354722
 20
491.826937
 30
0.0
 10
10.354722
 20
491.826937
 30
0.0
  0
LWPOLYLINE
  5
153
100
AcDbEntity
  8
Layer_1
 62
7
100
AcDbPolyline
 90
6
 70
1
 10
193.358194
 20
491.826937
 30
0.0
 10
196.356805
 20
491.826937
 30
0.0
 10
196.356805
 20
476.825062
 30
0.0
 10
193.358194
 20
476.825062
 30
0.0
 10
193.358194
 20
491.826937
 30
0.0
 10
193.358194
 20
491.826937
 30
0.0
  0
LWPOLYLINE
  5
154
100
AcDbEntity
  8
Layer_1
 62
7
100
AcDbPolyline
 90
6
 70
1
 10
23.354583
 20
466.823812
 30
0.0
 10
38.356458
 20
466.823812
 30
0.0
 10
38.356458
 20
463.825201
 30
0.0
 10
23.354583
 20
463.825201
 30
0.0
 10
23.354583
 20
466.823812
 30
0.0
 10
23.354583
 20
466.823812
 30
0.0
  0
LWPOLYLINE
  5
155
100
AcDbEntity
  8
Layer_1
 62
7
100
AcDbPolyline
 90
6
 70
1
 10
53.358333
 20
466.823812
 30
0.0
 10
68.360208
 20
466.823812
 30
0.0
 10
68.360208
 20
463.825201
 30
0.0
 10
53.358333
 20
463.825201
 30
0.0
 10
53.358333
 20
466.823812
 30
0.0
 10
53.358333
 20
466.823812
 30
0.0
  0
LWPOLYLINE
  5
156
100
AcDbEntity
  8
Layer_1
 62
7
100
AcDbPolyline
 90
6
 70
1
 10
83.362083
 20
466.823812
 30
0.0
 10
98.355139
 20
466.823812
 30
0.0
 10
98.355139
 20
463.825201
 30
0.0
 10
83.362083
 20
463.825201
 30
0.0
 10
83.362083
 20
466.823812
 30
0.0
 10
83.362083
 20
466.823812
 30
0.0
  0
LWPOLYLINE
  5
157
100
AcDbEntity
  8
Layer_1
 62
7
100
AcDbPolyline
 90
6
 70
1
 10
108.356389
 20
466.823812
 30
0.0
 10
123.358264
 20
466.823812
 30
0.0
 10
123.358264
 20
463.825201
 30
0.0
 10
108.356389
 20
463.825201
 30
0.0
 10
108.356389
 20
466.823812
 30
0.0
 10
108.356389
 20
466.823812
 30
0.0
  0
LWPOLYLINE
  5
158
100
AcDbEntity
  8
Layer_1
 62
7
100
AcDbPolyline
 90
6
 70
1
 10
138.360139
 20
466.823812
 30
0.0
 10
153.362014
 20
466.823812
 30
0.0
 10
153.362014
 20
463.825201
 30
0.0
 10
138.360139
 20
463.825201
 30
0.0
 10
138.360139
 20
466.823812
 30
0.0
 10
138.360139
 20
466.823812
 30
0.0
  0
LWPOLYLINE
  5
159
100
AcDbEntity
  8
Layer_1
 62
7
100
AcDbPolyline
 90
6
 70
1
 10
168.355069
 20
466.823812
 30
0.0
 10
183.356944
 20
466.823812
 30
0.0
 10
183.356944
 20
463.825201
 30
0.0
 10
168.355069
 20
463.825201
 30
0.0
 10
168.355069
 20
466.823812
 30
0.0
 10
168.355069
 20
466.823812
 30
0.0
  0
LWPOLYLINE
  5
15a
100
AcDbEntity
  8
Layer_1
 62
7
100
AcDbPolyline
 90
62
 70
1
 10
323.236731
 20
585.005632
 30
0.0
 10
320.000009
 20
585.005632
 30
0.0
 10
320.000009
 20
594.998020
 30
0.0
 10
305.236259
 20
594.998020
 30
0.0
 10
305.236259
 20
598.005464
 30
0.0
 10
285.242564
 20
598.005464
 30
0.0
 10
285.242564
 20
594.998020
 30
0.0
 10
270.240692
 20
594.998020
 30
0.0
 10
270.240692
 20
585.005632
 30
0.0
 10
267.242081
 20
585.005632
 30
0.0
 10
267.242081
 20
570.003731
 30
0.0
 10
270.240692
 20
570.003731
 30
0.0
 10
270.240692
 20
555.001870
 30
0.0
 10
267.242081
 20
555.001870
 30
0.0
 10
267.242081
 20
539.999992
 30
0.0
 10
270.240692
 20
539.999992
 30
0.0
 10
270.240692
 20
524.998132
 30
0.0
 10
267.242081
 20
524.998132
 30
0.0
 10
267.242081
 20
510.005076
 30
0.0
 10
270.240692
 20
510.005076
 30
0.0
 10
270.240692
 20
500.003826
 30
0.0
 10
267.242081
 20
500.003826
 30
0.0
 10
267.242081
 20
485.001940
 30
0.0
 10
270.240692
 20
485.001940
 30
0.0
 10
270.240692
 20
470.000076
 30
0.0
 10
267.242081
 20
470.000076
 30
0.0
 10
267.242081
 20
454.998187
 30
0.0
 10
270.240692
 20
454.998187
 30
0.0
 10
270.240692
 20
440.005131
 30
0.0
 10
267.242081
 20
440.005131
 30
0.0
 10
267.242081
 20
425.003268
 30
0.0
 10
270.240692
 20
425.003268
 30
0.0
 10
270.240692
 20
415.240129
 30
0.0
 10
285.242564
 20
415.240129
 30
0.0
 10
285.242564
 20
412.003409
 30
0.0
 10
305.236259
 20
412.003409
 30
0.0
 10
305.236259
 20
415.240129
 30
0.0
 10
320.000009
 20
415.240129
 30
0.0
 10
320.000009
 20
425.003268
 30
0.0
 10
323.236731
 20
425.003268
 30
0.0
 10
323.236731
 20
440.005131
 30
0.0
 10
320.000009
 20
440.005131
 30
0.0
 10
320.000009
 20
454.998187
 30
0.0
 10
323.236731
 20
454.998187
 30
0.0
 10
323.236731
 20
470.000076
 30
0.0
 10
320.000009
 20
470.000076
 30
0.0
 10
320.000009
 20
485.001940
 30
0.0
 10
323.236731
 20
485.001940
 30
0.0
 10
323.236731
 20
500.003826
 30
0.0
 10
320.000009
 20
500.003826
 30
0.0
 10
320.000009
 20
510.005076
 30
0.0
 10
323.236731
 20
510.005076
 30
0.0
 10
323.236731
 20
524.998132
 30
0.0
 10
320.000009
 20
524.998132
 30
0.0
 10
320.000009
 20
539.999992
 30
0.0
 10
323.236731
 20
539.999992
 30
0.0
 10
323.236731
 20
555.001870
 30
0.0
 10
320.000009
 20
555.001870
 30
0.0
 10
320.000009
 20
570.003731
 30
0.0
 10
323.236731
 20
570.003731
 30
0.0
 10
323.236731
 20
585.005632
 30
0.0
 10
323.236731
 20
585.005632
 30
0.0
  0
LWPOLYLINE
  5
15b
100
AcDbEntity
  8
Layer_1
 62
7
100
AcDbPolyline
 90
54
 70
1
 10
133.067236
 20
449.999992
 30
0.0
 10
130.068625
 20
449.999992
 30
0.0
 10
125.067986
 20
449.999992
 30
0.0
 10
120.067375
 20
449.999992
 30
0.0
 10
120.067375
 20
452.998603
 30
0.0
 10
105.065486
 20
452.998603
 30
0.0
 10
105.065486
 20
449.999992
 30
0.0
 10
90.072430
 20
449.999992
 30
0.0
 10
90.072430
 20
452.795742
 30
0.0
 10
75.000000
 20
452.795742
 30
0.0
 10
75.000000
 20
449.999992
 30
0.0
 10
65.069305
 20
449.999992
 30
0.0
 10
65.069305
 20
452.795742
 30
0.0
 10
49.996875
 20
452.795742
 30
0.0
 10
49.996875
 20
449.999992
 30
0.0
 10
35.065555
 20
449.999992
 30
0.0
 10
35.065555
 20
452.795742
 30
0.0
 10
20.001945
 20
452.795742
 30
0.0
 10
20.001945
 20
449.999992
 30
0.0
 10
15.071876
 20
449.999992
 30
0.0
 10
10.071251
 20
449.999992
 30
0.0
 10
7.072640
 20
449.999992
 30
0.0
 10
7.072640
 20
435.006936
 30
0.0
 10
10.071251
 20
435.006936
 30
0.0
 10
10.071251
 20
415.004445
 30
0.0
 10
7.072640
 20
415.004445
 30
0.0
 10
7.072640
 20
400.002556
 30
0.0
 10
10.071251
 20
400.002556
 30
0.0
 10
15.071876
 20
400.002556
 30
0.0
 10
20.001945
 20
400.002556
 30
0.0
 10
20.001945
 20
397.392000
 30
0.0
 10
35.065555
 20
397.392000
 30
0.0
 10
35.065555
 20
400.002556
 30
0.0
 10
49.996875
 20
400.002556
 30
0.0
 10
49.996875
 20
397.392000
 30
0.0
 10
65.069305
 20
397.392000
 30
0.0
 10
65.069305
 20
400.002556
 30
0.0
 10
75.000000
 20
400.002556
 30
0.0
 10
75.000000
 20
397.392000
 30
0.0
 10
90.072430
 20
397.392000
 30
0.0
 10
90.072430
 20
400.002556
 30
0.0
 10
105.065486
 20
400.002556
 30
0.0
 10
105.065486
 20
397.180333
 30
0.0
 10
120.067375
 20
397.180333
 30
0.0
 10
120.067375
 20
400.002556
 30
0.0
 10
125.067986
 20
400.002556
 30
0.0
 10
130.068625
 20
400.002556
 30
0.0
 10
133.067236
 20
400.002556
 30
0.0
 10
133.067236
 20
415.004445
 30
0.0
 10
130.068625
 20
415.004445
 30
0.0
 10
130.068625
 20
435.006936
 30
0.0
 10
133.067236
 20
435.006936
 30
0.0
 10
133.067236
 20
449.999992
 30
0.0
 10
133.067236
 20
449.999992
 30
0.0
  0
LWPOLYLINE
  5
15c
100
AcDbEntity
  8
Layer_1
 62
7
100
AcDbPolyline
 90
54
 70
1
 10
384.997452
 20
471.929641
 30
0.0
 10
384.997452
 20
474.928252
 30
0.0
 10
384.997452
 20
479.928891
 30
0.0
 10
384.997452
 20
484.929502
 30
0.0
 10
388.260646
 20
484.929502
 30
0.0
 10
388.260646
 20
499.931391
 30
0.0
 10
384.997452
 20
499.931391
 30
0.0
 10
384.997452
 20
514.924435
 30
0.0
 10
388.048980
 20
514.924435
 30
0.0
 10
388.048980
 20
529.996866
 30
0.0
 10
384.997452
 20
529.996866
 30
0.0
 10
384.997452
 20
539.927560
 30
0.0
 10
388.048980
 20
539.927560
 30
0.0
 10
388.048980
 20
554.999991
 30
0.0
 10
384.997452
 20
554.999991
 30
0.0
 10
384.997452
 20
569.931310
 30
0.0
 10
388.048980
 20
569.931310
 30
0.0
 10
388.048980
 20
584.994935
 30
0.0
 10
384.997452
 20
584.994935
 30
0.0
 10
384.997452
 20
589.924991
 30
0.0
 10
384.997452
 20
594.925630
 30
0.0
 10
384.997452
 20
597.924241
 30
0.0
 10
370.004396
 20
597.924241
 30
0.0
 10
370.004396
 20
594.925630
 30
0.0
 10
350.001896
 20
594.925630
 30
0.0
 10
350.001896
 20
597.924241
 30
0.0
 10
335.000007
 20
597.924241
 30
0.0
 10
335.000007
 20
594.925630
 30
0.0
 10
335.000007
 20
589.924991
 30
0.0
 10
335.000007
 20
584.994935
 30
0.0
 10
332.213063
 20
584.994935
 30
0.0
 10
332.213063
 20
569.931310
 30
0.0
 10
335.000007
 20
569.931310
 30
0.0
 10
335.000007
 20
554.999991
 30
0.0
 10
332.213063
 20
554.999991
 30
0.0
 10
332.213063
 20
539.927560
 30
0.0
 10
335.000007
 20
539.927560
 30
0.0
 10
335.000007
 20
529.996866
 30
0.0
 10
332.213063
 20
529.996866
 30
0.0
 10
332.213063
 20
514.924435
 30
0.0
 10
335.000007
 20
514.924435
 30
0.0
 10
335.000007
 20
499.931391
 30
0.0
 10
332.001396
 20
499.931391
 30
0.0
 10
332.001396
 20
484.929502
 30
0.0
 10
335.000007
 20
484.929502
 30
0.0
 10
335.000007
 20
479.928891
 30
0.0
 10
335.000007
 20
474.928252
 30
0.0
 10
335.000007
 20
471.929641
 30
0.0
 10
350.001896
 20
471.929641
 30
0.0
 10
350.001896
 20
474.928252
 30
0.0
 10
370.004396
 20
474.928252
 30
0.0
 10
370.004396
 20
471.929641
 30
0.0
 10
384.997452
 20
471.929641
 30
0.0
 10
384.997452
 20
471.929641
 30
0.0
  0
LWPOLYLINE
  5
15d
100
AcDbEntity
  8
Layer_1
 62
7
100
AcDbPolyline
 90
54
 70
1
 10
263.236727
 20
585.005603
 30
0.0
 10
259.999999
 20
585.005603
 30
0.0
 10
259.999999
 20
594.998048
 30
0.0
 10
245.236249
 20
594.998048
 30
0.0
 10
245.236249
 20
598.005464
 30
0.0
 10
225.242555
 20
598.005464
 30
0.0
 10
225.242555
 20
594.998048
 30
0.0
 10
210.240694
 20
594.998048
 30
0.0
 10
210.240694
 20
585.005603
 30
0.0
 10
207.242083
 20
585.005603
 30
0.0
 10
207.242083
 20
570.003742
 30
0.0
 10
210.240694
 20
570.003742
 30
0.0
 10
210.240694
 20
547.179020
 30
0.0
 10
235.234999
 20
547.179020
 30
0.0
 10
235.234999
 20
485.001937
 30
0.0
 10
210.240694
 20
485.001937
 30
0.0
 10
210.240694
 20
470.000062
 30
0.0
 10
207.242083
 20
470.000062
 30
0.0
 10
207.242083
 20
454.998184
 30
0.0
 10
210.240694
 20
454.998184
 30
0.0
 10
210.240694
 20
440.005129
 30
0.0
 10
207.242083
 20
440.005129
 30
0.0
 10
207.242083
 20
425.003254
 30
0.0
 10
210.240694
 20
425.003254
 30
0.0
 10
210.240694
 20
415.240114
 30
0.0
 10
225.242555
 20
415.240114
 30
0.0
 10
225.242555
 20
412.003392
 30
0.0
 10
245.236249
 20
412.003392
 30
0.0
 10
245.236249
 20
415.240114
 30
0.0
 10
259.999999
 20
415.240114
 30
0.0
 10
259.999999
 20
425.003254
 30
0.0
 10
263.236727
 20
425.003254
 30
0.0
 10
263.236727
 20
440.005129
 30
0.0
 10
259.999999
 20
440.005129
 30
0.0
 10
259.999999
 20
454.998184
 30
0.0
 10
263.236727
 20
454.998184
 30
0.0
 10
263.236727
 20
470.000062
 30
0.0
 10
259.999999
 20
470.000062
 30
0.0
 10
259.999999
 20
485.001937
 30
0.0
 10
263.236727
 20
485.001937
 30
0.0
 10
263.236727
 20
500.003812
 30
0.0
 10
259.999999
 20
500.003812
 30
0.0
 10
259.999999
 20
510.005062
 30
0.0
 10
263.236727
 20
510.005062
 30
0.0
 10
263.236727
 20
524.998117
 30
0.0
 10
259.999999
 20
524.998117
 30
0.0
 10
259.999999
 20
539.999992
 30
0.0
 10
263.236727
 20
539.999992
 30
0.0
 10
263.236727
 20
555.001867
 30
0.0
 10
259.999999
 20
555.001867
 30
0.0
 10
259.999999
 20
570.003742
 30
0.0
 10
263.236727
 20
570.003742
 30
0.0
 10
263.236727
 20
585.005603
 30
0.0
 10
263.236727
 20
585.005603
 30
0.0
  0
LWPOLYLINE
  5
15e
100
AcDbEntity
  8
Layer_1
 62
7
100
AcDbPolyline
 90
6
 70
1
 10
250.236860
 20
470.000062
 30
0.0
 10
250.236860
 20
440.005129
 30
0.0
 10
240.235610
 20
440.005129
 30
0.0
 10
240.235610
 20
470.000062
 30
0.0
 10
250.236860
 20
470.000062
 30
0.0
 10
250.236860
 20
470.000062
 30
0.0
  0
ENDSEC
  0
SECTION
  2
OBJECTS
  0
DICTIONARY
  5
C
330
0
100
AcDbDictionary
  3
ACAD_GROUP
350
D
  3
ACAD_MLINESTYLE
350
17
  0
DICTIONARY
  5
D
330
C
100
AcDbDictionary
  0
DICTIONARY
  5
1A
330
C
100
AcDbDictionary
  0
DICTIONARY
  5
17
330
C
100
AcDbDictionary
  3
STANDARD
350
18
  0
DICTIONARY
  5
19
330
C
100
AcDbDictionary
  0
ENDSEC
  0
EOF
