<?xml version="1.0" encoding="UTF-8" standalone="no"?>
<!-- Created with Inkscape (http://www.inkscape.org/) -->

<svg
   xmlns:dc="http://purl.org/dc/elements/1.1/"
   xmlns:cc="http://creativecommons.org/ns#"
   xmlns:rdf="http://www.w3.org/1999/02/22-rdf-syntax-ns#"
   xmlns:svg="http://www.w3.org/2000/svg"
   xmlns="http://www.w3.org/2000/svg"
   xmlns:sodipodi="http://sodipodi.sourceforge.net/DTD/sodipodi-0.dtd"
   xmlns:inkscape="http://www.inkscape.org/namespaces/inkscape"
   width="1417.3228"
   height="2125.9841"
   id="svg2"
   version="1.1"
   inkscape:version="0.48.5 r10040"
   sodipodi:docname="3mm.dxf">
  <defs
     id="defs4" />
  <sodipodi:namedview
     id="base"
     pagecolor="#ffffff"
     bordercolor="#666666"
     borderopacity="1.0"
     inkscape:pageopacity="0.0"
     inkscape:pageshadow="2"
     inkscape:zoom="0.7"
     inkscape:cx="662.67224"
     inkscape:cy="1860.5151"
     inkscape:document-units="mm"
     inkscape:current-layer="layer1"
     showgrid="true"
     units="mm"
     objecttolerance="10000"
     guidetolerance="10000"
     inkscape:window-width="1436"
     inkscape:window-height="856"
     inkscape:window-x="0"
     inkscape:window-y="0"
     inkscape:window-maximized="0">
    <inkscape:grid
       type="xygrid"
       id="grid2985"
       empspacing="5"
       visible="true"
       enabled="true"
       snapvisiblegridlinesonly="true"
       units="mm"
       spacingx="1mm"
       spacingy="1mm"
       dotted="false"
       empcolor="#0000ff"
       empopacity="0.25098039" />
  </sodipodi:namedview>
  <metadata
     id="metadata7">
    <rdf:RDF>
      <cc:Work
         rdf:about="">
        <dc:format>image/svg+xml</dc:format>
        <dc:type
           rdf:resource="http://purl.org/dc/dcmitype/StillImage" />
        <dc:title></dc:title>
      </cc:Work>
    </rdf:RDF>
  </metadata>
  <g
     inkscape:label="Layer 1"
     inkscape:groupmode="layer"
     id="layer1"
     transform="translate(0,1073.6223)">
    <path
       style="fill:#0000ff;fill-rule:evenodd;stroke:#000000;stroke-width:1.46002316px;stroke-linecap:butt;stroke-linejoin:miter;stroke-opacity:1"
       d="m 0,-1073.6224 0,35.4375 0,0.8437 0,407.46878 0,16.875 0,35.4375 708.65625,0 0,-52.3125 0,-408.31248 0,-35.4375 -708.65625,0 z m 75.46875,21.0312 c 2.26014,0 4.13636,1.6353 4.53125,3.7813 l 34.875,0 c 0.39489,-2.146 2.27111,-3.7813 4.53125,-3.7813 2.26014,0 4.10511,1.6353 4.5,3.7813 l 0.0937,0 0,10.625 -0.0937,0 c 0.0501,0.2723 0.0937,0.5569 0.0937,0.8437 0,2.547 -2.04676,4.625 -4.59375,4.625 -2.54699,0 -4.625,-2.078 -4.625,-4.625 0,-0.2868 0.0436,-0.5714 0.0937,-0.8437 l -34.875,0 c 0.05012,0.2723 0.09375,0.5569 0.09375,0.8437 0,2.547 -2.07801,4.625 -4.625,4.625 -2.54699,0 -4.625,-2.078 -4.625,-4.625 0,-0.2868 0.04363,-0.5714 0.09375,-0.8437 l -0.09375,0 0,-9.7813 0,-0.8437 0.09375,0 c 0.39489,-2.146 2.27111,-3.7813 4.53125,-3.7813 z m 106.3125,0 c 2.26014,0 4.10511,1.6353 4.5,3.7813 l 34.90625,0 c 0.39489,-2.146 2.23986,-3.7813 4.5,-3.7813 2.26014,0 4.13636,1.6353 4.53125,3.7813 l 0.0937,0 0,10.625 -0.0937,0 c 0.0501,0.2723 0.0937,0.5569 0.0937,0.8437 0,2.547 -2.07801,4.625 -4.625,4.625 -2.54699,0 -4.59375,-2.078 -4.59375,-4.625 0,-0.2868 0.0436,-0.5714 0.0937,-0.8437 l -34.90625,0 c 0.0501,0.2723 0.0937,0.5569 0.0937,0.8437 0,2.547 -2.04676,4.625 -4.59375,4.625 -2.54699,0 -4.625,-2.078 -4.625,-4.625 0,-0.2868 0.0436,-0.5714 0.0937,-0.8437 l -0.0937,0 0,-9.7813 0,-0.8437 0.0937,0 c 0.39489,-2.146 2.27111,-3.7813 4.53125,-3.7813 z m 106.28125,0 c 2.26014,0 4.13636,1.6353 4.53125,3.7813 l 34.875,0 c 0.39489,-2.146 2.27111,-3.7813 4.53125,-3.7813 2.26014,0 4.10511,1.6353 4.5,3.7813 l 0.0937,0 0,10.625 -0.0937,0 c 0.0501,0.2723 0.0937,0.5569 0.0937,0.8437 0,2.547 -2.04676,4.625 -4.59375,4.625 -2.54699,0 -4.625,-2.078 -4.625,-4.625 0,-0.2868 0.0436,-0.5714 0.0937,-0.8437 l -34.875,0 c 0.0501,0.2723 0.0937,0.5569 0.0937,0.8437 0,2.547 -2.07801,4.625 -4.625,4.625 -2.54699,0 -4.59375,-2.078 -4.59375,-4.625 0,-0.2868 0.0436,-0.5714 0.0937,-0.8437 l -0.0937,0 0,-9.7813 0,-0.8437 0.0937,0 c 0.39489,-2.146 2.23986,-3.7813 4.5,-3.7813 z m 88.59375,0 c 2.26014,0 4.10511,1.6353 4.5,3.7813 l 34.90625,0 c 0.39489,-2.146 2.23986,-3.7813 4.5,-3.7813 2.26014,0 4.13636,1.6353 4.53125,3.7813 l 0.0937,0 0,10.625 -0.0937,0 c 0.0501,0.2723 0.0937,0.5569 0.0937,0.8437 0,2.547 -2.07801,4.625 -4.625,4.625 -2.54699,0 -4.59375,-2.078 -4.59375,-4.625 0,-0.2868 0.0436,-0.5714 0.0937,-0.8437 l -34.90625,0 c 0.0501,0.2723 0.0937,0.5569 0.0937,0.8437 0,2.547 -2.04676,4.625 -4.59375,4.625 -2.54699,0 -4.625,-2.078 -4.625,-4.625 0,-0.2868 0.0436,-0.5714 0.0937,-0.8437 l -0.0937,0 0,-9.7813 0,-0.8437 0.0937,0 c 0.39489,-2.146 2.27111,-3.7813 4.53125,-3.7813 z m 106.28125,0 c 2.26014,0 4.13636,1.6353 4.53125,3.7813 l 34.875,0 c 0.39489,-2.146 2.27111,-3.7813 4.53125,-3.7813 2.26014,0 4.13636,1.6353 4.53125,3.7813 l 0.0937,0 0,10.625 -0.0937,0 c 0.0501,0.2723 0.0937,0.5569 0.0937,0.8437 0,2.547 -2.07801,4.625 -4.625,4.625 -2.54699,0 -4.625,-2.078 -4.625,-4.625 0,-0.2868 0.0436,-0.5714 0.0937,-0.8437 l -34.875,0 c 0.0501,0.2723 0.0937,0.5569 0.0937,0.8437 0,2.547 -2.07801,4.625 -4.625,4.625 -2.54699,0 -4.59375,-2.078 -4.59375,-4.625 0,-0.2868 0.0436,-0.5714 0.0937,-0.8437 l -0.0937,0 0,-9.7813 0,-0.8437 0.0937,0 c 0.39489,-2.146 2.23986,-3.7813 4.5,-3.7813 z m 106.3125,0 c 2.26014,0 4.13636,1.6353 4.53125,3.7813 l 34.875,0 c 0.39489,-2.146 2.27111,-3.7813 4.53125,-3.7813 2.26015,0 4.10515,1.6353 4.49995,3.7813 l 0.0938,0 0,0.8437 0,9.7813 -0.0938,0 c 0.0503,0.2723 0.0938,0.5569 0.0938,0.8437 0,2.547 -2.0468,4.625 -4.59375,4.625 -2.54699,0 -4.625,-2.078 -4.625,-4.625 0,-0.2868 0.0436,-0.5714 0.0937,-0.8437 l -34.875,0 c 0.0501,0.2723 0.0937,0.5569 0.0937,0.8437 0,2.547 -2.07801,4.625 -4.625,4.625 -2.54699,0 -4.625,-2.078 -4.625,-4.625 0,-0.2868 0.0436,-0.5714 0.0937,-0.8437 l -0.0937,0 0,-10.625 0.0937,0 c 0.39489,-2.146 2.27111,-3.7813 4.53125,-3.7813 z m -335.65625,22.6563 c 2.41277,0 4.375,1.9622 4.375,4.375 0,2.4127 -1.96223,4.375 -4.375,4.375 -2.41277,0 -4.34375,-1.9623 -4.34375,-4.375 0,-2.4128 1.93098,-4.375 4.34375,-4.375 z m 211.53125,1.5312 c 2.41277,0 4.375,1.9623 4.375,4.375 0,2.4128 -1.96223,4.375 -4.375,4.375 -2.41277,0 -4.34375,-1.9622 -4.34375,-4.375 0,-2.4127 1.93098,-4.375 4.34375,-4.375 z m -440.34375,25.6563 10.65625,0 0,0.8437 c 2.54699,0 4.59375,2.04679 4.59375,4.59378 0,2.54699 -2.04676,4.625 -4.59375,4.625 l 0,34.6875 c 2.54699,0 4.59375,2.07801 4.59375,4.625 0,2.54699 -2.04676,4.625 -4.59375,4.625 -0.98664,0 -1.90633,-0.34732 -2.65625,-0.875 l -5.34375,0 c -0.74992,0.52768 -1.66961,0.875 -2.65625,0.875 -2.54699,0 -4.59375,-2.07801 -4.59375,-4.625 0,-2.54699 2.04676,-4.625 4.59375,-4.625 l 0,-34.6875 c -2.54699,0 -4.59375,-2.07801 -4.59375,-4.625 0,-2.54699 2.04676,-4.59378 4.59375,-4.59378 l 0,-0.8437 z m 648.4375,0 10.625,0 0,0.8437 c 2.547,0 4.625,2.04679 4.625,4.59378 0,2.54699 -2.078,4.625 -4.625,4.625 l 0,34.6875 c 2.547,0 4.625,2.07801 4.625,4.625 0,2.54699 -2.078,4.625 -4.625,4.625 -0.9866,0 -1.8751,-0.34732 -2.625,-0.875 l -5.3437,0 c -0.7513,0.5286 -1.6687,0.875 -2.6563,0.875 -2.547,0 -4.625,-2.07801 -4.625,-4.625 0,-2.54699 2.078,-4.625 4.625,-4.625 l 0,-34.6875 c -2.547,0 -4.625,-2.07801 -4.625,-4.625 0,-2.54699 2.078,-4.59378 4.625,-4.59378 l 0,-0.8437 z m -474.625,21.59373 c 0.16913,-0.0172 0.35759,0 0.53125,0 2.77854,0 5.03125,2.22146 5.03125,5 0,0.45151 -0.076,0.89618 -0.1875,1.3125 l 0,7.90625 c 3.13196,1.74676 5.25,5.0655 5.25,8.90625 0,5.64542 -4.57333,10.21875 -10.21875,10.21875 -5.64542,0 -10.21875,-4.57333 -10.21875,-10.21875 0,-3.94009 2.23399,-7.32494 5.5,-9.03125 l 0,-7.78125 c -0.1115,-0.41632 -0.1875,-0.86099 -0.1875,-1.3125 0,-2.60488 1.96309,-4.74236 4.5,-5 z m 310.03125,0 c 0.16913,-0.0172 0.35759,0 0.53125,0 2.77854,0 5.03125,2.22146 5.03125,5 0,0.45151 -0.076,0.89618 -0.1875,1.3125 l 0,7.90625 c 3.13196,1.74676 5.25,5.0655 5.25,8.90625 0,5.64542 -4.57333,10.21875 -10.21875,10.21875 -5.64542,0 -10.21875,-4.57333 -10.21875,-10.21875 0,-3.94009 2.23399,-7.32494 5.5,-9.03125 l 0,-7.78125 c -0.1115,-0.41632 -0.1875,-0.86099 -0.1875,-1.3125 0,-2.60488 1.96309,-4.74236 4.5,-5 z M 57.5,-958.59117 c 2.54699,0 4.625,2.04676 4.625,4.59375 0,2.54699 -2.07801,4.625 -4.625,4.625 -2.54699,0 -4.59375,-2.07801 -4.59375,-4.625 0,-2.54699 2.04676,-4.59375 4.59375,-4.59375 z m 165.28125,46.5 c 2.41277,0 4.375,1.96223 4.375,4.375 0,2.41277 -1.96223,4.375 -4.375,4.375 -2.41277,0 -4.375,-1.96223 -4.375,-4.375 0,-2.41277 1.96223,-4.375 4.375,-4.375 z m -198,15.625 10.65625,0 0,0.84375 c 2.54699,0 4.59375,2.07801 4.59375,4.625 0,2.54699 -2.04676,4.625 -4.59375,4.625 l 0,34.6875 c 2.54699,0 4.59375,2.07801 4.59375,4.625 0,2.54699 -2.04676,4.59375 -4.59375,4.59375 -0.98664,0 -1.90633,-0.31607 -2.65625,-0.84375 l -5.34375,0 c -0.74992,0.52768 -1.66961,0.84375 -2.65625,0.84375 -2.54699,0 -4.59375,-2.04676 -4.59375,-4.59375 0,-2.54699 2.04676,-4.625 4.59375,-4.625 l 0,-34.6875 c -2.54699,0 -4.59375,-2.07801 -4.59375,-4.625 0,-2.54699 2.04676,-4.625 4.59375,-4.625 l 0,-0.84375 z m 648.4375,0 10.625,0 0,0.84375 c 2.547,0 4.625,2.07801 4.625,4.625 0,2.54699 -2.078,4.625 -4.625,4.625 l 0,34.6875 c 2.547,0 4.625,2.07801 4.625,4.625 0,2.54699 -2.078,4.59375 -4.625,4.59375 -0.9866,0 -1.8751,-0.31607 -2.625,-0.84375 l -5.3437,0 c -0.7512,0.5286 -1.6687,0.84375 -2.6563,0.84375 -2.547,0 -4.625,-2.04676 -4.625,-4.59375 0,-2.54699 2.078,-4.625 4.625,-4.625 l 0,-34.6875 c -2.547,0 -4.625,-2.07801 -4.625,-4.625 0,-2.54699 2.078,-4.625 4.625,-4.625 l 0,-0.84375 z m -648.4375,88.59375 10.65625,0 0,0.84375 c 2.54699,0 4.59375,2.07801 4.59375,4.625 0,2.54699 -2.04676,4.59375 -4.59375,4.59375 l 0,34.71875 c 2.54699,0 4.59375,2.04676 4.59375,4.59375 0,2.54699 -2.04676,4.625 -4.59375,4.625 -0.98664,0 -1.90633,-0.31607 -2.65625,-0.84375 l -5.34375,0 c -0.74992,0.52768 -1.66961,0.84375 -2.65625,0.84375 -2.54699,0 -4.59375,-2.07801 -4.59375,-4.625 0,-2.54699 2.04676,-4.59375 4.59375,-4.59375 l 0,-34.71875 c -2.54699,0 -4.59375,-2.04676 -4.59375,-4.59375 0,-2.54699 2.04676,-4.625 4.59375,-4.625 l 0,-0.84375 z m 648.4375,0 10.625,0 0,0.84375 c 2.547,0 4.625,2.07801 4.625,4.625 0,2.54699 -2.078,4.59375 -4.625,4.59375 l 0,34.71875 c 2.547,0 4.625,2.04676 4.625,4.59375 0,2.54699 -2.078,4.625 -4.625,4.625 -0.9866,0 -1.8751,-0.31607 -2.625,-0.84375 l -5.3437,0 c -0.7511,0.5286 -1.6687,0.84375 -2.6563,0.84375 -2.547,0 -4.625,-2.07801 -4.625,-4.625 0,-2.54699 2.078,-4.59375 4.625,-4.59375 l 0,-34.71875 c -2.547,0 -4.625,-2.04676 -4.625,-4.59375 0,-2.54699 2.078,-4.625 4.625,-4.625 l 0,-0.84375 z M 57.5,-797.15367 c 2.54699,0 4.625,2.04676 4.625,4.59375 0,2.54699 -2.07801,4.625 -4.625,4.625 -2.54699,0 -4.59375,-2.07801 -4.59375,-4.625 0,-2.54699 2.04676,-4.59375 4.59375,-4.59375 z m 194,38.875 c 2.48805,0 4.53125,2.01195 4.53125,4.5 0,2.48805 -2.0432,4.5 -4.53125,4.5 -2.48805,0 -4.5,-2.01195 -4.5,-4.5 0,-2.48805 2.01195,-4.5 4.5,-4.5 z m 213.28125,32.84375 c 2.45939,0 4.46875,2.00936 4.46875,4.46875 0,2.45939 -2.00936,4.4375 -4.46875,4.4375 -2.45939,0 -4.4375,-1.97811 -4.4375,-4.4375 0,-2.45939 1.97811,-4.46875 4.4375,-4.46875 z m -242,18.875 c 2.41277,0 4.375,1.96223 4.375,4.375 0,2.41277 -1.96223,4.34375 -4.375,4.34375 -2.41277,0 -4.375,-1.93098 -4.375,-4.34375 0,-2.41277 1.96223,-4.375 4.375,-4.375 z m 173.625,0 c 2.41277,0 4.375,1.96223 4.375,4.375 0,2.41277 -1.96223,4.34375 -4.375,4.34375 -2.41277,0 -4.375,-1.93098 -4.375,-4.34375 0,-2.41277 1.96223,-4.375 4.375,-4.375 z m -371.625,4.96875 10.65625,0 0,0.875 c 2.54699,0 4.59375,2.04676 4.59375,4.59375 0,2.54699 -2.04676,4.625 -4.59375,4.625 l 0,34.6875 c 2.54699,0 4.59375,2.07801 4.59375,4.625 0,2.54699 -2.04676,4.59375 -4.59375,4.59375 -0.98664,0 -1.90633,-0.31607 -2.65625,-0.84375 l -5.34375,0 c -0.74992,0.52768 -1.66961,0.84375 -2.65625,0.84375 -2.54699,0 -4.59375,-2.04676 -4.59375,-4.59375 0,-2.54699 2.04676,-4.625 4.59375,-4.625 l 0,-34.6875 c -2.54699,0 -4.59375,-2.07801 -4.59375,-4.625 0,-2.54699 2.04676,-4.59375 4.59375,-4.59375 l 0,-0.875 z m 648.4375,0 10.625,0 0,0.875 c 2.547,0 4.625,2.04676 4.625,4.59375 0,2.54699 -2.078,4.625 -4.625,4.625 l 0,34.6875 c 2.547,0 4.625,2.07801 4.625,4.625 0,2.54699 -2.078,4.59375 -4.625,4.59375 -0.9866,0 -1.8751,-0.31607 -2.625,-0.84375 l -5.3437,0 c -0.751,0.5286 -1.6687,0.84375 -2.6563,0.84375 -2.547,0 -4.625,-2.04676 -4.625,-4.59375 0,-2.54699 2.078,-4.625 4.625,-4.625 l 0,-34.6875 c -2.547,0 -4.625,-2.07801 -4.625,-4.625 0,-2.54699 2.078,-4.59375 4.625,-4.59375 l 0,-0.875 z m -597.75,84.84375 c 2.26014,0 4.13636,1.60406 4.53125,3.75 l 34.875,0 c 0.39489,-2.14594 2.27111,-3.75 4.53125,-3.75 2.26014,0 4.10511,1.60406 4.5,3.75 l 0.0937,0 0,10.625 -0.0937,0 c 0.0535,0.28107 0.0937,0.5471 0.0937,0.84375 0,2.54699 -2.04676,4.625 -4.59375,4.625 -2.54699,0 -4.625,-2.07801 -4.625,-4.625 0,-0.29665 0.0402,-0.56268 0.0937,-0.84375 l -34.875,0 c 0.05352,0.28107 0.09375,0.5471 0.09375,0.84375 0,2.54699 -2.07801,4.625 -4.625,4.625 -2.54699,0 -4.625,-2.07801 -4.625,-4.625 0,-0.29665 0.04023,-0.56268 0.09375,-0.84375 l -0.09375,0 0,-9.78125 0,-0.84375 0.09375,0 c 0.39489,-2.14594 2.27111,-3.75 4.53125,-3.75 z m 106.3125,0 c 2.26014,0 4.10511,1.60406 4.5,3.75 l 34.90625,0 c 0.39489,-2.14594 2.23986,-3.75 4.5,-3.75 2.26014,0 4.13636,1.60406 4.53125,3.75 l 0.0937,0 0,10.625 -0.0937,0 c 0.0535,0.28107 0.0937,0.5471 0.0937,0.84375 0,2.54699 -2.07801,4.625 -4.625,4.625 -2.54699,0 -4.59375,-2.07801 -4.59375,-4.625 0,-0.29665 0.0402,-0.56268 0.0937,-0.84375 l -34.90625,0 c 0.0535,0.28107 0.0937,0.5471 0.0937,0.84375 0,2.54699 -2.04676,4.625 -4.59375,4.625 -2.54699,0 -4.625,-2.07801 -4.625,-4.625 0,-0.29665 0.0402,-0.56268 0.0937,-0.84375 l -0.0937,0 0,-9.78125 0,-0.84375 0.0937,0 c 0.39489,-2.14594 2.27111,-3.75 4.53125,-3.75 z m 106.28125,0 c 2.26014,0 4.13636,1.60406 4.53125,3.75 l 34.875,0 c 0.39489,-2.14594 2.27111,-3.75 4.53125,-3.75 2.26014,0 4.10511,1.60406 4.5,3.75 l 0.0937,0 0,10.625 -0.0937,0 c 0.0535,0.28107 0.0937,0.5471 0.0937,0.84375 0,2.54699 -2.04676,4.625 -4.59375,4.625 -2.54699,0 -4.625,-2.07801 -4.625,-4.625 0,-0.29665 0.0402,-0.56268 0.0937,-0.84375 l -34.875,0 c 0.0535,0.28107 0.0937,0.5471 0.0937,0.84375 0,2.54699 -2.07801,4.625 -4.625,4.625 -2.54699,0 -4.59375,-2.07801 -4.59375,-4.625 0,-0.29665 0.0402,-0.56268 0.0937,-0.84375 l -0.0937,0 0,-9.78125 0,-0.84375 0.0937,0 c 0.39489,-2.14594 2.23986,-3.75 4.5,-3.75 z m 88.59375,0 c 2.26014,0 4.10511,1.60406 4.5,3.75 l 34.90625,0 c 0.39489,-2.14594 2.23986,-3.75 4.5,-3.75 2.26014,0 4.13636,1.60406 4.53125,3.75 l 0.0937,0 0,10.625 -0.0937,0 c 0.0535,0.28107 0.0937,0.5471 0.0937,0.84375 0,2.54699 -2.07801,4.625 -4.625,4.625 -2.54699,0 -4.59375,-2.07801 -4.59375,-4.625 0,-0.29665 0.0402,-0.56268 0.0937,-0.84375 l -34.90625,0 c 0.0535,0.28107 0.0937,0.5471 0.0937,0.84375 0,2.54699 -2.04676,4.625 -4.59375,4.625 -2.54699,0 -4.625,-2.07801 -4.625,-4.625 0,-0.29665 0.0402,-0.56268 0.0937,-0.84375 l -0.0937,0 0,-9.78125 0,-0.84375 0.0937,0 c 0.39489,-2.14594 2.27111,-3.75 4.53125,-3.75 z m 106.28125,0 c 2.26014,0 4.13636,1.60406 4.53125,3.75 l 34.875,0 c 0.39489,-2.14594 2.27111,-3.75 4.53125,-3.75 2.26014,0 4.13636,1.60406 4.53125,3.75 l 0.0937,0 0,10.625 -0.0937,0 c 0.0535,0.28107 0.0937,0.5471 0.0937,0.84375 0,2.54699 -2.07801,4.625 -4.625,4.625 -2.54699,0 -4.625,-2.07801 -4.625,-4.625 0,-0.29665 0.0402,-0.56268 0.0937,-0.84375 l -34.875,0 c 0.0535,0.28107 0.0937,0.5471 0.0937,0.84375 0,2.54699 -2.07801,4.625 -4.625,4.625 -2.54699,0 -4.59375,-2.07801 -4.59375,-4.625 0,-0.29665 0.0402,-0.56268 0.0937,-0.84375 l -0.0937,0 0,-9.78125 0,-0.84375 0.0937,0 c 0.39489,-2.14594 2.23986,-3.75 4.5,-3.75 z m 106.3125,0 c 2.26014,0 4.13636,1.60406 4.53125,3.75 l 34.875,0 c 0.39489,-2.14594 2.27111,-3.75 4.53125,-3.75 2.26015,0 4.10515,1.60406 4.49995,3.75 l 0.0938,0 0,10.625 -0.0938,0 c 0.0537,0.28107 0.0938,0.5471 0.0938,0.84375 0,2.54699 -2.0468,4.625 -4.59375,4.625 -2.54699,0 -4.625,-2.07801 -4.625,-4.625 0,-0.29665 0.0402,-0.56268 0.0937,-0.84375 l -34.875,0 c 0.0535,0.28107 0.0937,0.5471 0.0937,0.84375 0,2.54699 -2.07801,4.625 -4.625,4.625 -2.54699,0 -4.625,-2.07801 -4.625,-4.625 0,-0.29665 0.0402,-0.56268 0.0937,-0.84375 l -0.0937,0 0,-9.78125 0,-0.84375 0.0937,0 c 0.39489,-2.14594 2.27111,-3.75 4.53125,-3.75 z"
       id="rect3002"
       inkscape:connector-curvature="0" />
    <path
       style="fill:#0000ff;fill-rule:evenodd;stroke:#000000;stroke-width:0.85104442px;stroke-linecap:butt;stroke-linejoin:miter;stroke-opacity:1"
       d="m 70.22805,-345.55004 0,10.625 0,0.8437 -0.0937,0 c -0.39489,2.146 -2.23986,3.75 -4.5,3.75 -2.26014,0 -4.13636,-1.604 -4.53125,-3.75 l -26.28125,0 0,43.0938 c 2.54699,0 4.59375,2.0467 4.59375,4.5937 0,2.547 -2.04676,4.625 -4.59375,4.625 l -10.65625,0 0,70.84376 10.65625,0 c 2.54699,0 4.59375,2.07801 4.59375,4.625 0,2.54699 -2.04676,4.625 -4.59375,4.625 l 0,43.90625 26.1875,0 c 0,-2.54699 2.07801,-4.59375 4.625,-4.59375 2.54699,0 4.59375,2.04676 4.59375,4.59375 l 0,10.625 53.15625,0 0,-10.625 c 0,-2.54699 2.07801,-4.59375 4.625,-4.59375 2.54699,0 4.59375,2.04676 4.59375,4.59375 l 34.71875,0 c 0,-2.54699 2.04676,-4.59375 4.59375,-4.59375 2.54699,0 4.625,2.04676 4.625,4.59375 l 0,10.625 53.15625,0 0,-10.625 0.15625,0 c 0,-2.54699 2.04676,-4.59375 4.59375,-4.59375 2.54699,0 4.625,2.04676 4.625,4.59375 l 33.71875,0 c 0,-2.77854 2.25271,-5.03125 5.03125,-5.03125 2.77854,0 5.03125,2.25271 5.03125,5.03125 l 0,10.625 53.12505,0 0,-9.5625 c -0.079,-0.33919 -0.125,-0.69907 -0.125,-1.0625 0,-2.54699 2.0467,-4.59375 4.5937,-4.59375 2.547,0 4.625,2.04676 4.625,4.59375 l 17.125,0 c 0,-2.54699 2.078,-4.59375 4.625,-4.59375 2.547,0 4.5938,2.04676 4.5938,4.59375 l 0,10.625 53.1562,0 0,-10.625 c 0,-2.54699 2.078,-4.59375 4.625,-4.59375 2.547,0 4.5938,2.04676 4.5938,4.59375 l 34.7187,0 c 0,-2.54699 2.0468,-4.59375 4.5938,-4.59375 2.547,0 4.625,2.04676 4.625,4.59375 l 0,10.625 53.1562,0 0,-10.625 c 0,-2.54699 2.0468,-4.59375 4.5938,-4.59375 2.547,0 4.625,2.04676 4.625,4.59375 l 34.6875,0 c 0,-2.54699 2.078,-4.59375 4.625,-4.59375 2.547,0 4.5937,2.04676 4.5937,4.59375 l 0,10.625 53.1563,0 0,-10.625 c 0,-2.54699 2.078,-4.59375 4.625,-4.59375 2.547,0 4.5936,2.04676 4.5938,4.59375 l 25.375,0 0,-44 c -2.1474,-0.39489 -3.7813,-2.27111 -3.7813,-4.53125 0,-2.26014 1.635,-4.13636 3.7813,-4.53125 l 0,-0.0937 0.8437,0 10.625,0 0,-70.84381 -10.625,0 -0.8437,0 0,-0.094 c -2.1475,-0.3949 -3.7813,-2.2711 -3.7813,-4.5313 0,-2.2601 1.635,-4.1051 3.7813,-4.5 l 0,-43.1875 -25.4688,0 c -0.3949,2.146 -2.2399,3.75 -4.5,3.75 -2.2601,0 -4.1364,-1.604 -4.5312,-3.75 l -0.094,0 0,-0.8437 0,-10.625 -53.1563,0 0,10.625 0,0.8437 -0.094,0 c -0.3949,2.146 -2.2399,3.75 -4.5,3.75 -2.2602,0 -4.1364,-1.604 -4.5313,-3.75 l -34.875,0 c -0.3949,2.146 -2.2711,3.75 -4.5312,3.75 -2.2602,0 -4.1051,-1.604 -4.5,-3.75 l -0.094,0 0,-0.8437 0,-10.625 -53.1562,0 0,10.625 0,0.8437 -0.094,0 c -0.3949,2.146 -2.2711,3.75 -4.5312,3.75 -2.2602,0 -4.1051,-1.604 -4.5,-3.75 l -34.9063,0 c -0.3949,2.146 -2.2398,3.75 -4.5,3.75 -2.2601,0 -4.1363,-1.604 -4.5312,-3.75 l -0.094,0 0,-0.8437 0,-10.625 -53.1562,0 0,10.625 0,0.8437 -0.094,0 c -0.3949,2.146 -2.2399,3.75 -4.5,3.75 -2.2602,0 -4.1364,-1.604 -4.5313,-3.75 l -17.1562,0 c -0.3949,2.146 -2.2711,3.75 -4.5313,3.75 -2.2601,0 -4.1363,-1.604 -4.5312,-3.75 l -0.094,0 0,-0.8437 0,-10.625 -53.12505,0 0,10.625 0,0.8437 -0.0937,0 c -0.39489,2.146 -2.27111,3.75 -4.53125,3.75 -2.26014,0 -4.13636,-1.604 -4.53125,-3.75 l -34.875,0 c -0.39489,2.146 -2.27111,3.75 -4.53125,3.75 -2.26014,0 -4.10511,-1.604 -4.5,-3.75 l -0.0937,0 0,-0.8437 0,-10.625 -53.15625,0 0,10.625 0,0.8437 -0.0937,0 c -0.39489,2.146 -2.27111,3.75 -4.53125,3.75 -2.26014,0 -4.10511,-1.604 -4.5,-3.75 l -34.90625,0 c -0.39489,2.146 -2.23986,3.75 -4.5,3.75 -2.26014,0 -4.13636,-1.604 -4.53125,-3.75 l -0.0937,0 0,-0.8437 0,-10.625 -53.15625,0 z"
       id="rect3266"
       inkscape:connector-curvature="0" />
    <path
       style="fill:#0000ff;fill-rule:evenodd;stroke:#000000;stroke-width:1px;stroke-linecap:butt;stroke-linejoin:miter;stroke-opacity:1"
       d="m 952.21752,-1039.7228 0,10.625 0,17.7187 0,8.5625 c 2.2424,0.3145 3.9688,2.2038 3.9688,4.53129 0,2.3275 -1.7276,4.24804 -3.9688,4.5625 l 0,0.0625 -0.625,0 -10,0 0,53.15625 10,0 0.625,0 0,0.0625 c 2.2423,0.31446 3.9688,2.20375 3.9688,4.53125 0,2.3275 -1.7276,4.24804 -3.9688,4.5625 l 0,34.8125 c 2.2422,0.31446 3.9688,2.235 3.9688,4.5625 0,2.3275 -1.7276,4.21679 -3.9688,4.53125 l 0,0.0625 -0.625,0 -9.2812,0 0,53.40625 7.8438,0 c 0.4495,-0.14707 0.9376,-0.25 1.4374,-0.25 2.5482,0 4.5938,2.07801 4.5938,4.625 0,2.3275 -1.7276,4.21679 -3.9688,4.53125 l 0,17.125 c 2.242,0.31446 3.9688,2.20375 3.9688,4.53125 0,2.3275 -1.7276,4.24804 -3.9688,4.5625 l 0,0.0625 -0.625,0 -9.2812,0 0,53.40625 7.8125,0 c 0.4602,-0.15407 0.9567,-0.25 1.4687,-0.25 2.548,0 4.5938,2.04676 4.5938,4.59375 0,2.3275 -1.7276,4.24804 -3.9688,4.5625 l 0,34.8125 c 2.2415,0.31446 3.9688,2.235 3.9688,4.5625 0,2.3275 -1.7276,4.24804 -3.9688,4.5625 l 0,0.0625 -0.625,0 -9.2812,0 0,53.375 7.8438,0 c 0.4502,-0.14707 0.9376,-0.25 1.4374,-0.25 2.5475,0 4.5938,2.07801 4.5938,4.625 0,2.3275 -1.7276,4.24804 -3.9688,4.5625 l 0,8.53125 0,17.71875 0,10.625 53.12498,0 0,-8.375 c -0.3713,-0.66491 -0.625,-1.43409 -0.625,-2.25 0,-2.54699 2.0784,-4.59375 4.625,-4.59375 2.5474,0 4.5938,2.04676 4.5938,4.59375 l 52.4375,0 c 0,-2.54699 2.0471,-4.59375 4.5937,-4.59375 2.5473,0 4.625,2.04676 4.625,4.59375 l 0.625,0 0,10.625 53.1563,0 0,-10.625 0,-17.71875 0,-8.53125 c -0.2046,0.0278 -0.4128,0.0625 -0.625,0.0625 -2.547,0 -4.625,-2.07801 -4.625,-4.625 0,-2.54699 2.078,-4.625 4.625,-4.625 0.4952,0 0.9589,0.1055 1.4063,0.25 l 8.4687,0 0,-53.375 -9.25,0 0,-0.0625 c -0.2046,0.0278 -0.4128,0.0625 -0.625,0.0625 -2.547,0 -4.625,-2.07801 -4.625,-4.625 0,-2.54699 2.078,-4.625 4.625,-4.625 0.2122,0 0.4204,0.0347 0.625,0.0625 l 0,-34.8125 c -0.2046,0.0278 -0.4128,0.0625 -0.625,0.0625 -2.547,0 -4.625,-2.07801 -4.625,-4.625 0,-2.54699 2.078,-4.59375 4.625,-4.59375 0.5187,0 1.0034,0.0921 1.4687,0.25 l 8.4063,0 0,-53.40625 -9.25,0 0,-0.0625 c -0.2046,0.0278 -0.4128,0.0625 -0.625,0.0625 -2.547,0 -4.625,-2.07801 -4.625,-4.625 0,-2.54699 2.078,-4.59375 4.625,-4.59375 0.2122,0 0.4204,0.0347 0.625,0.0625 l 0,-17.125 c -0.2046,0.0278 -0.4128,0.0625 -0.625,0.0625 -2.547,0 -4.625,-2.04676 -4.625,-4.59375 0,-2.54699 2.078,-4.625 4.625,-4.625 0.4952,0 0.9588,0.1055 1.4063,0.25 l 8.4687,0 0,-53.40625 -9.25,0 0,-0.0625 c -0.2046,0.0278 -0.4128,0.0625 -0.625,0.0625 -2.547,0 -4.625,-2.04676 -4.625,-4.59375 0,-2.54699 2.078,-4.625 4.625,-4.625 0.2122,0 0.4204,0.0347 0.625,0.0625 l 0,-34.8125 c -0.2046,0.0278 -0.4128,0.0625 -0.625,0.0625 -2.547,0 -4.625,-2.07801 -4.625,-4.625 0,-2.54699 2.078,-4.59375 4.625,-4.59375 0.2122,0 0.4204,0.0347 0.625,0.0625 l 0,-0.0625 10,0 0,-53.15625 -10,0 0,-0.0625 c -0.2046,0.0278 -0.4128,0.0625 -0.625,0.0625 -2.547,0 -4.625,-2.07801 -4.625,-4.625 0,-2.54699 2.078,-4.59379 4.625,-4.59379 0.2122,0 0.4204,0.035 0.625,0.062 l 0,-8.5625 0,-17.7187 0,-10.625 -53.1563,0 0,10.625 -0.625,0 c 0,2.547 -2.0776,4.625 -4.625,4.625 -2.5452,0 -4.5937,-2.078 -4.5937,-4.625 l -51.9375,0 c 0,2.547 -2.0464,4.625 -4.5938,4.625 -2.5453,0 -4.6248,-2.078 -4.625,-4.625 0,-0.3526 0.05,-0.7013 0.125,-1.0313 l 0,-9.5937 -53.12498,0 z"
       id="rect3353"
       inkscape:connector-curvature="0" />
    <path
       style="fill:#0000ff;fill-rule:evenodd;stroke:#000000;stroke-width:1px;stroke-linecap:butt;stroke-linejoin:miter;stroke-opacity:1"
       d="m 744.09449,-1040.2337 0,28.3437 0,8.5937 c 2.10149,0.43 3.6875,2.2714 3.6875,4.50001 0,2.22862 -1.58601,4.10122 -3.6875,4.53125 l 0,0.0937 -0.9375,0 -10.625,0 0,53.15625 10.625,0 0.9375,0 0,0.0937 c 2.10149,0.43003 3.6875,2.27138 3.6875,4.5 0,2.22862 -1.58601,4.10122 -3.6875,4.53125 l 0,34.875 c 2.10149,0.43003 3.6875,2.30263 3.6875,4.53125 0,2.22862 -1.58601,4.06997 -3.6875,4.5 l 0,0.0937 -0.9375,0 -9.875,0 0,53.40625 8.46875,0 c 0.45073,-0.14707 0.90642,-0.25 1.40625,-0.25 2.54699,0 4.625,2.07801 4.625,4.625 0,2.22862 -1.58601,4.06997 -3.6875,4.5 l 0,17.1875 c 2.10149,0.43003 3.6875,2.27138 3.6875,4.5 0,2.22862 -1.58601,4.10122 -3.6875,4.53125 l 0,0.0937 -0.9375,0 -9.875,0 0,53.40625 8.40625,0 c 0.46834,-0.16019 0.94614,-0.25 1.46875,-0.25 2.54699,0 4.625,2.04676 4.625,4.59375 0,2.22862 -1.58601,4.10122 -3.6875,4.53125 l 0,34.875 c 2.10149,0.43003 3.6875,2.30263 3.6875,4.53125 0,2.22862 -1.58601,4.10122 -3.6875,4.53125 l 0,0.0937 -0.9375,0 -9.875,0 0,53.375 8.46875,0 c 0.45073,-0.14707 0.90642,-0.25 1.40625,-0.25 2.54699,0 4.625,2.07801 4.625,4.625 0,2.22862 -1.58601,4.10122 -3.6875,4.53125 l 0,26.28125 0,10.625 53.125,0 0,-9.6875 c -0.0614,-0.30021 -0.0937,-0.61913 -0.0937,-0.9375 0,-2.54699 2.04676,-4.59375 4.59375,-4.59375 2.54699,0 4.625,2.04676 4.625,4.59375 l 52.59375,0 c 0,-2.54699 2.07801,-4.59375 4.625,-4.59375 2.54699,0 4.59375,2.04676 4.59375,4.59375 0,0.21225 -0.0347,0.42036 -0.0625,0.625 l 0,10 53.15621,0 0,-28.34375 0,-8.5625 c -0.3002,0.0614 -0.5878,0.0937 -0.9062,0.0937 -2.547,0 -4.625,-2.07801 -4.625,-4.625 0,-2.54699 2.078,-4.625 4.625,-4.625 0.4998,0 0.9555,0.10293 1.4062,0.25 l 9.375,0 0,-53.375 -9.875,0 0,-0.0937 c -0.3002,0.0614 -0.5878,0.0937 -0.9062,0.0937 -2.547,0 -4.625,-2.07801 -4.625,-4.625 0,-2.54699 2.078,-4.625 4.625,-4.625 0.3184,0 0.606,0.0323 0.9062,0.0937 l 0,-34.875 c -0.3002,0.0614 -0.5878,0.0937 -0.9062,0.0937 -2.547,0 -4.625,-2.07801 -4.625,-4.625 0,-2.54699 2.078,-4.59375 4.625,-4.59375 0.5226,0 1.0004,0.0898 1.4687,0.25 l 9.3125,0 0,-53.40625 -9.875,0 0,-0.0937 c -0.3002,0.0614 -0.5878,0.0937 -0.9062,0.0937 -2.547,0 -4.625,-2.07801 -4.625,-4.625 0,-2.54699 2.078,-4.59375 4.625,-4.59375 0.3184,0 0.606,0.0323 0.9062,0.0937 l 0,-17.1875 c -0.3002,0.0614 -0.5878,0.0937 -0.9062,0.0937 -2.547,0 -4.625,-2.04676 -4.625,-4.59375 0,-2.54699 2.078,-4.625 4.625,-4.625 0.4998,0 0.9555,0.10293 1.4062,0.25 l 9.375,0 0,-53.40625 -9.875,0 0,-0.0937 c -0.3002,0.0614 -0.5878,0.0937 -0.9062,0.0937 -2.547,0 -4.625,-2.04676 -4.625,-4.59375 0,-2.54699 2.078,-4.625 4.625,-4.625 0.3184,0 0.606,0.0323 0.9062,0.0937 l 0,-34.875 c -0.3002,0.0614 -0.5878,0.0937 -0.9062,0.0937 -2.547,0 -4.625,-2.07801 -4.625,-4.625 0,-2.54699 2.078,-4.59375 4.625,-4.59375 0.3184,0 0.606,0.0323 0.9062,0.0937 l 0,-0.0937 10.625,0 0,-53.15625 -10.625,0 0,-0.0937 c -0.3002,0.0614 -0.5878,0.0937 -0.9062,0.0937 -2.547,0 -4.625,-2.07801 -4.625,-4.625 0,-2.54701 2.078,-4.59371 4.625,-4.59371 0.3184,0 0.606,0.032 0.9062,0.094 l 0,-8.5938 0,-17.7187 0,-10.625 -53.15621,0 0,10 c 0.0278,0.2046 0.0625,0.4127 0.0625,0.625 0,2.547 -2.04676,4.625 -4.59375,4.625 -2.54699,0 -4.625,-2.078 -4.625,-4.625 l -52.6875,0 c 0,2.547 -2.04676,4.625 -4.59375,4.625 -2.54699,0 -4.625,-2.078 -4.625,-4.625 0,-0.4211 0.0818,-0.8312 0.1875,-1.2188 l 0,-9.4062 -53.125,0 z"
       id="rect3369"
       inkscape:connector-curvature="0" />
    <path
       style="fill:#0000ff;fill-rule:evenodd;stroke:#000000;stroke-width:0.85104442px;stroke-linecap:butt;stroke-linejoin:miter;stroke-opacity:1"
       d="m 72.236098,-557.37646 0,10.625 0,0.84375 -0.0937,0 c -0.39489,2.14594 -2.23986,3.78125 -4.5,3.78125 -2.26014,0 -4.13636,-1.63531 -4.53125,-3.78125 l -26.28125,0 0,43.09375 c 2.54699,0 4.59375,2.04676 4.59375,4.59375 0,2.54699 -2.04676,4.625 -4.59375,4.625 l -10.65625,0 0,70.84375 10.65625,0 c 2.54699,0 4.59375,2.07801 4.59375,4.625 0,2.54699 -2.04676,4.625 -4.59375,4.625 l 0,43.90625 26.1875,0 c 0,-2.54699 2.07801,-4.59375 4.625,-4.59375 2.54699,0 4.59375,2.04676 4.59375,4.59375 l 0,10.625 53.156252,0 0,-10.625 c 0,-2.54699 2.07801,-4.59375 4.625,-4.59375 2.54699,0 4.59375,2.04676 4.59375,4.59375 l 71.65625,0 0,-88.5625 220.31251,0 0,88.5625 43.9375,0 c 0,-2.54699 2.0467,-4.59375 4.5937,-4.59375 2.547,0 4.625,2.04676 4.625,4.59375 l 0,10.625 53.1563,0 0,-10.625 c 0,-2.54699 2.0467,-4.59375 4.5937,-4.59375 2.547,0 4.625,2.04676 4.625,4.59375 l 34.6875,0 c 0,-2.54699 2.078,-4.59375 4.625,-4.59375 2.547,0 4.5938,2.04676 4.5938,4.59375 l 0,10.625 53.1562,0 0,-10.625 c 0,-2.54699 2.078,-4.59375 4.625,-4.59375 2.547,0 4.5936,2.04676 4.5938,4.59375 l 25.375,0 0,-44 c -2.1476,-0.39489 -3.7813,-2.27111 -3.7813,-4.53125 0,-2.26014 1.635,-4.13636 3.7813,-4.53125 l 0,-0.0937 0.8437,0 10.625,0 0,-70.84375 -10.625,0 -0.8437,0 0,-0.0937 c -2.1475,-0.39489 -3.7813,-2.27111 -3.7813,-4.53125 0,-2.26014 1.635,-4.10511 3.7813,-4.5 l 0,-43.1875 -25.4688,0 c -0.3949,2.14594 -2.2399,3.78125 -4.5,3.78125 -2.2601,0 -4.1364,-1.63531 -4.5312,-3.78125 l -0.094,0 0,-0.84375 0,-10.625 -53.1562,0 0,10.625 0,0.84375 -0.094,0 c -0.3949,2.14594 -2.2398,3.78125 -4.5,3.78125 -2.2601,0 -4.1363,-1.63531 -4.5312,-3.78125 l -34.875,0 c -0.3949,2.14594 -2.2711,3.78125 -4.5313,3.78125 -2.2601,0 -4.1051,-1.63531 -4.5,-3.78125 l -0.094,0 0,-0.84375 0,-10.625 -53.1563,0 0,10.625 0,0.84375 -0.094,0 c -0.3949,2.14594 -2.2711,3.78125 -4.5313,3.78125 -2.2601,0 -4.1051,-1.63531 -4.5,-3.78125 l -34.9062,0 c -0.3949,2.14594 -2.2399,3.78125 -4.5,3.78125 -2.2602,0 -4.1364,-1.63531 -4.5313,-3.78125 l -0.094,0 0,-0.84375 0,-10.625 -53.1563,0 0,10.625 0,0.84375 -0.094,0 c -0.3949,2.14594 -2.2399,3.78125 -4.5,3.78125 -2.2602,0 -4.1364,-1.63531 -4.5313,-3.78125 l -17.1562,0 c -0.3949,2.14594 -2.2711,3.78125 -4.5313,3.78125 -2.2601,0 -4.1363,-1.63531 -4.5312,-3.78125 l -0.094,0 0,-0.84375 0,-10.625 -53.12496,0 0,10.625 0,0.84375 -0.0937,0 c -0.39489,2.14594 -2.27111,3.78125 -4.53125,3.78125 -2.26014,0 -4.13636,-1.63531 -4.53125,-3.78125 l -34.875,0 c -0.39489,2.14594 -2.27111,3.78125 -4.53125,3.78125 -2.26014,0 -4.10511,-1.63531 -4.5,-3.78125 l -0.0937,0 0,-0.84375 0,-10.625 -53.15625,0 0,10.625 0,0.84375 -0.0937,0 c -0.39489,2.14594 -2.27111,3.78125 -4.53125,3.78125 -2.26014,0 -4.10511,-1.63531 -4.5,-3.78125 l -34.90625,0 c -0.39489,2.14594 -2.23986,3.78125 -4.5,3.78125 -2.26014,0 -4.13636,-1.63531 -4.53125,-3.78125 l -0.0937,0 0,-0.84375 0,-10.625 -53.156252,0 z m 407.499912,46.0625 106.2813,0 0,35.4375 -106.2813,0 0,-35.4375 z"
       id="rect3385"
       inkscape:connector-curvature="0" />
  </g>
</svg>
