<?xml version="1.0" encoding="UTF-8" standalone="no"?>
<!-- Created with Inkscape (http://www.inkscape.org/) -->

<svg
   xmlns:dc="http://purl.org/dc/elements/1.1/"
   xmlns:cc="http://creativecommons.org/ns#"
   xmlns:rdf="http://www.w3.org/1999/02/22-rdf-syntax-ns#"
   xmlns:svg="http://www.w3.org/2000/svg"
   xmlns="http://www.w3.org/2000/svg"
   xmlns:sodipodi="http://sodipodi.sourceforge.net/DTD/sodipodi-0.dtd"
   xmlns:inkscape="http://www.inkscape.org/namespaces/inkscape"
   width="1417.3228"
   height="2125.9841"
   id="svg2"
   version="1.1"
   inkscape:version="0.48.5 r10040"
   sodipodi:docname="3mm.dxf">
  <defs
     id="defs4" />
  <sodipodi:namedview
     id="base"
     pagecolor="#ffffff"
     bordercolor="#666666"
     borderopacity="1.0"
     inkscape:pageopacity="0.0"
     inkscape:pageshadow="2"
     inkscape:zoom="0.49497475"
     inkscape:cx="817.99389"
     inkscape:cy="1773.2487"
     inkscape:document-units="mm"
     inkscape:current-layer="layer1"
     showgrid="true"
     units="mm"
     objecttolerance="10000"
     guidetolerance="10000"
     inkscape:window-width="1436"
     inkscape:window-height="856"
     inkscape:window-x="0"
     inkscape:window-y="0"
     inkscape:window-maximized="0">
    <inkscape:grid
       type="xygrid"
       id="grid2985"
       empspacing="5"
       visible="true"
       enabled="true"
       snapvisiblegridlinesonly="true"
       units="mm"
       spacingx="1mm"
       spacingy="1mm"
       dotted="false"
       empcolor="#0000ff"
       empopacity="0.25098039" />
  </sodipodi:namedview>
  <metadata
     id="metadata7">
    <rdf:RDF>
      <cc:Work
         rdf:about="">
        <dc:format>image/svg+xml</dc:format>
        <dc:type
           rdf:resource="http://purl.org/dc/dcmitype/StillImage" />
        <dc:title></dc:title>
      </cc:Work>
    </rdf:RDF>
  </metadata>
  <g
     inkscape:label="Layer 1"
     inkscape:groupmode="layer"
     id="layer1"
     transform="translate(0,1073.6223)">
    <path
       style="fill:#0000ff;fill-rule:evenodd;stroke:#000000;stroke-width:1.46002316px;stroke-linecap:butt;stroke-linejoin:miter;stroke-opacity:1"
       d="m 18.504675,-852.19353 0,35.4375 0,0.84375 0,407.46875 0,16.875 0,35.4375 708.656255,0 0,-35.4375 0,-16.875 0,-407.46875 0,-0.84375 0,-35.4375 -708.656255,0 z m 584.625005,21.5 c 2.08712,0 3.83754,1.41036 4.40625,3.3125 l 44.5,0 c 0.69354,-1.66978 2.3292,-2.84375 4.25,-2.84375 2.547,0 4.625,2.07801 4.625,4.625 0,1.73109 -0.9643,3.21129 -2.375,4 1.5372,0.74793 2.5938,2.33181 2.5938,4.15625 0,2.54699 -2.0781,4.59375 -4.625,4.59375 -2.3059,0 -4.1901,-1.69601 -4.5313,-3.90625 l -44.15625,0 c -0.51443,1.98545 -2.29118,3.46875 -4.4375,3.46875 -2.54699,0 -4.625,-2.07801 -4.625,-4.625 0,-1.74621 0.97519,-3.24837 2.40625,-4.03125 -1.54531,-0.74495 -2.625,-2.29464 -2.625,-4.125 0,-2.54699 2.04676,-4.625 4.59375,-4.625 z m -512.593755,0.46875 c 1.92055,0 3.55633,1.17426 4.25,2.84375 l 43.500005,0 c 0.69354,-1.66978 2.32924,-2.84375 4.25,-2.84375 2.54699,0 4.625,2.07801 4.625,4.625 0,1.73109 -0.96428,3.21129 -2.375,4 1.53721,0.74793 2.59375,2.33181 2.59375,4.15625 0,2.54699 -2.07801,4.59375 -4.625,4.59375 -2.30578,0 -4.19005,-1.69601 -4.53125,-3.90625 l -42.906255,0 c -0.3412,2.21024 -2.25672,3.90625 -4.5625,3.90625 -2.54699,0 -4.59375,-2.04676 -4.59375,-4.59375 0,-1.73342 0.96115,-3.24342 2.375,-4.03125 -1.53206,-0.7498 -2.59375,-2.30433 -2.59375,-4.125 0,-2.54699 2.04676,-4.625 4.59375,-4.625 z m 104.000005,0 c 1.92055,0 3.55633,1.17426 4.25,2.84375 l 47.5,0 c 0.69354,-1.66978 2.32924,-2.84375 4.25,-2.84375 2.54699,0 4.625,2.07801 4.625,4.625 0,1.73109 -0.96428,3.21129 -2.375,4 1.53721,0.74793 2.59375,2.33181 2.59375,4.15625 0,2.54699 -2.07801,4.59375 -4.625,4.59375 -2.30578,0 -4.19005,-1.69601 -4.53125,-3.90625 l -46.90625,0 c -0.3412,2.21024 -2.25672,3.90625 -4.5625,3.90625 -2.54699,0 -4.59375,-2.04676 -4.59375,-4.59375 0,-1.73342 0.96115,-3.24342 2.375,-4.03125 -1.53206,-0.7498 -2.59375,-2.30433 -2.59375,-4.125 0,-2.54699 2.04676,-4.625 4.59375,-4.625 z m 106,0 c 1.92055,0 3.55633,1.17426 4.25,2.84375 l 47.5,0 c 0.69354,-1.66978 2.32924,-2.84375 4.25,-2.84375 2.54699,0 4.625,2.07801 4.625,4.625 0,1.73109 -0.96428,3.21129 -2.375,4 1.53721,0.74793 2.59375,2.33181 2.59375,4.15625 0,2.54699 -2.07801,4.59375 -4.625,4.59375 -2.30578,0 -4.19005,-1.69601 -4.53125,-3.90625 l -46.90625,0 c -0.3412,2.21024 -2.25672,3.90625 -4.5625,3.90625 -2.54699,0 -4.59375,-2.04676 -4.59375,-4.59375 0,-1.73342 0.96115,-3.24342 2.375,-4.03125 -1.53206,-0.7498 -2.59375,-2.30433 -2.59375,-4.125 0,-2.54699 2.04676,-4.625 4.59375,-4.625 z m 88,0 c 1.92055,0 3.55633,1.17426 4.25,2.84375 l 48.5625,0 c 0.82916,-0.79841 1.94553,-1.3125 3.1875,-1.3125 2.54699,0 4.625,2.07801 4.625,4.625 0,1.74621 -0.97519,3.24837 -2.40625,4.03125 1.54531,0.74495 2.625,2.29464 2.625,4.125 0,2.54699 -2.07801,4.625 -4.625,4.625 -2.54699,0 -4.59375,-2.07801 -4.59375,-4.625 0,-0.28685 0.0436,-0.57139 0.0937,-0.84375 l -46.9375,0 c -0.3412,2.21024 -2.25672,3.90625 -4.5625,3.90625 -2.54699,0 -4.59375,-2.04676 -4.59375,-4.59375 0,-1.73342 0.96115,-3.24342 2.375,-4.03125 -1.53206,-0.7498 -2.59375,-2.30433 -2.59375,-4.125 0,-2.54699 2.04676,-4.625 4.59375,-4.625 z m 107.15625,0 c 1.92076,0 3.55646,1.17397 4.25,2.84375 l 45.8125,0 c 0.78871,-1.41072 2.26891,-2.375 4,-2.375 2.54699,0 4.625,2.07801 4.625,4.625 0,1.73109 -0.96428,3.21129 -2.375,4 1.53721,0.74793 2.59375,2.33181 2.59375,4.15625 0,2.54699 -2.04676,4.59375 -4.59375,4.59375 -2.46983,0 -4.47385,-1.93491 -4.59375,-4.375 l -44.9375,0 c -0.3412,2.21024 -2.25672,3.90625 -4.5625,3.90625 -2.54699,0 -4.625,-2.04676 -4.625,-4.59375 0,-1.73342 0.9924,-3.24342 2.40625,-4.03125 -1.54531,-0.74495 -2.625,-2.29464 -2.625,-4.125 0,-2.54699 2.07801,-4.625 4.625,-4.625 z m -223.59375,21.71875 c 2.41277,0 4.375,1.96223 4.375,4.375 0,2.41277 -1.96223,4.375 -4.375,4.375 -2.41277,0 -4.34375,-1.96223 -4.34375,-4.375 0,-2.41277 1.93098,-4.375 4.34375,-4.375 z m 211.53125,1.53125 c 2.41277,0 4.375,1.96223 4.375,4.375 0,2.41277 -1.96223,4.375 -4.375,4.375 -2.41277,0 -4.34375,-1.96223 -4.34375,-4.375 0,-2.41277 1.93098,-4.375 4.34375,-4.375 z m 208.31245,18.34375 c 1.9911,0 3.665,1.26656 4.3126,3.03125 0.6458,-1.76585 2.3229,-3.03125 4.3124,-3.03125 2.549,0 4.6252,2.04676 4.625,4.59375 0,1.92055 -1.1742,3.55633 -2.8437,4.25 l 0,46.78125 c 2.547,0 4.625,2.04676 4.625,4.59375 0,2.54699 -2.078,4.625 -4.625,4.625 -1.9898,0 -3.6659,-1.2654 -4.3125,-3.03125 -0.6472,1.76469 -2.3235,3.03125 -4.3125,3.03125 -2.547,0 -4.625,-2.07801 -4.625,-4.625 0,-1.82067 1.0929,-3.3752 2.625,-4.125 l 0,-46.90625 c -2.4437,-0.11609 -4.375,-2.12136 -4.375,-4.59375 0,-2.54699 2.0471,-4.59375 4.5937,-4.59375 z m -647.718705,3.53125 c 1.98901,0 3.66533,1.26656 4.3125,3.03125 0.64656,-1.76585 2.32266,-3.03125 4.3125,-3.03125 2.54699,0 4.625,2.07801 4.625,4.625 0,2.17305 -1.50811,3.98059 -3.53125,4.46875 l 0,44.34375 c 1.78808,0.63477 3.0625,2.33799 3.0625,4.34375 0,2.54699 -2.04676,4.59375 -4.59375,4.59375 -1.98901,0 -3.66533,-1.26656 -4.3125,-3.03125 -0.64656,1.76585 -2.32266,3.03125 -4.3125,3.03125 -2.54699,0 -4.625,-2.04676 -4.625,-4.59375 0,-2.37677 1.81497,-4.31156 4.125,-4.5625 l 0,-44.09375 c -2.08667,-0.4414 -3.65625,-2.28189 -3.65625,-4.5 0,-2.54699 2.04676,-4.625 4.59375,-4.625 z m 652.031305,2.65625 c -0.1486,0.40199 -0.3153,0.78438 -0.5626,1.125 l 1.1563,0 c -0.2477,-0.34124 -0.4464,-0.72218 -0.5937,-1.125 z m -479.1563,22.71875 c 0.16913,-0.0172 0.35759,0 0.53125,0 2.77854,0 5.03125,2.22146 5.03125,5 0,0.45151 -0.076,0.89618 -0.1875,1.3125 l 0,7.90625 c 3.13196,1.74676 5.25,5.0655 5.25,8.90625 0,5.64542 -4.57333,10.21875 -10.21875,10.21875 -5.64542,0 -10.21875,-4.57333 -10.21875,-10.21875 0,-3.94009 2.23399,-7.32494 5.5,-9.03125 l 0,-7.78125 c -0.1115,-0.41632 -0.1875,-0.86099 -0.1875,-1.3125 0,-2.60488 1.96309,-4.74236 4.5,-5 z m 310.03125,0 c 0.16913,-0.0172 0.35759,0 0.53125,0 2.77854,0 5.03125,2.22146 5.03125,5 0,0.45151 -0.076,0.89618 -0.1875,1.3125 l 0,7.90625 c 3.13196,1.74676 5.25,5.0655 5.25,8.90625 0,5.64542 -4.57333,10.21875 -10.21875,10.21875 -5.64542,0 -10.21875,-4.57333 -10.21875,-10.21875 0,-3.94009 2.23399,-7.32494 5.5,-9.03125 l 0,-7.78125 c -0.1115,-0.41632 -0.1875,-0.86099 -0.1875,-1.3125 0,-2.60488 1.96309,-4.74236 4.5,-5 z m -451.125005,22.5625 c 2.54699,0 4.625,2.04676 4.625,4.59375 0,2.54699 -2.07801,4.625 -4.625,4.625 -2.54699,0 -4.59375,-2.07801 -4.59375,-4.625 0,-2.54699 2.04676,-4.59375 4.59375,-4.59375 z m 165.281255,46.5 c 2.41277,0 4.375,1.96223 4.375,4.375 0,2.41277 -1.96223,4.375 -4.375,4.375 -2.41277,0 -4.375,-1.96223 -4.375,-4.375 0,-2.41277 1.96223,-4.375 4.375,-4.375 z m 451.375,9.875 c 1.9898,0 3.6659,1.2654 4.3125,3.03125 0.6472,-1.76469 2.3235,-3.03125 4.3125,-3.03125 2.547,0 4.625,2.04676 4.625,4.59375 0,2.18263 -1.5259,4.02152 -3.5625,4.5 l 0,48.53125 c 2.547,0 4.625,2.04676 4.625,4.59375 0,2.54699 -2.078,4.625 -4.625,4.625 -1.9898,0 -3.6659,-1.2654 -4.3125,-3.03125 -0.6472,1.76469 -2.3235,3.03125 -4.3125,3.03125 -2.547,0 -4.625,-2.07801 -4.625,-4.625 0,-1.82067 1.0929,-3.3752 2.625,-4.125 l 0,-48.96875 c -2.1015,-0.43003 -3.6875,-2.30263 -3.6875,-4.53125 0,-2.54699 2.078,-4.59375 4.625,-4.59375 z m -648.437505,2 c 1.98901,0 3.66533,1.26656 4.3125,3.03125 0.64656,-1.76585 2.32266,-3.03125 4.3125,-3.03125 2.54699,0 4.625,2.04676 4.625,4.59375 0,2.17047 -1.51176,3.978 -3.53125,4.46875 l 0,44.21875 c 2.02314,0.48816 3.53125,2.2957 3.53125,4.46875 0,2.54699 -2.07801,4.625 -4.625,4.625 -1.98984,0 -3.66594,-1.2654 -4.3125,-3.03125 -0.64717,1.76469 -2.32349,3.03125 -4.3125,3.03125 -2.54699,0 -4.59375,-2.07801 -4.59375,-4.625 0,-2.21811 1.56958,-4.0586 3.65625,-4.5 l 0,-44.125 c -2.08696,-0.44117 -3.65625,-2.31294 -3.65625,-4.53125 0,-2.54699 2.04676,-4.59375 4.59375,-4.59375 z m 652.687505,56.90625 c 0.4996,0.48056 0.8816,1.08638 1.125,1.75 0.243,-0.66368 0.6257,-1.26923 1.125,-1.75 l -2.25,0 z m -4.4688,28.59375 c 1.9905,0 3.6659,1.2654 4.3126,3.03125 0.6467,-1.76469 2.3238,-3.03125 4.3124,-3.03125 2.5476,0 4.5938,2.07801 4.5938,4.625 0,2.09974 -1.3926,3.84868 -3.3125,4.40625 l 0,45.78125 c 2.0358,0.47908 3.5625,2.2867 3.5625,4.46875 0,2.54699 -2.078,4.625 -4.625,4.625 -1.989,0 -3.6653,-1.26656 -4.3125,-3.03125 -0.6466,1.76585 -2.3227,3.03125 -4.3125,3.03125 -2.547,0 -4.625,-2.07801 -4.625,-4.625 0,-2.22862 1.586,-4.06997 3.6875,-4.5 l 0,-45.625 c -2.2066,-0.3443 -3.9063,-2.22803 -3.9063,-4.53125 0,-2.54699 2.0784,-4.625 4.625,-4.625 z m -648.218705,1.0625 c 1.981,0 3.65954,1.27774 4.3125,3.03125 0.65245,-1.75451 2.33079,-3.03125 4.3125,-3.03125 2.54699,0 4.625,2.07801 4.625,4.625 0,2.17047 -1.51176,3.978 -3.53125,4.46875 l 0,45 c 2.54699,0 4.59375,2.07801 4.59375,4.625 0,2.54699 -2.04676,4.59375 -4.59375,4.59375 -2.00263,0 -3.70663,-1.27879 -4.34375,-3.0625 -0.63959,1.77908 -2.31318,3.0625 -4.3125,3.0625 -2.54699,0 -4.59375,-2.04676 -4.59375,-4.59375 0,-1.81922 1.06366,-3.37449 2.59375,-4.125 l 0,-45.4375 c -2.08696,-0.44117 -3.65625,-2.31294 -3.65625,-4.53125 0,-2.54699 2.04676,-4.625 4.59375,-4.625 z m 652.531305,5.15625 c -0.0832,0.22189 -0.1982,0.42076 -0.3126,0.625 l 0.625,0 c -0.1132,-0.20366 -0.2303,-0.40379 -0.3124,-0.625 z m -620.750055,11.34375 c 2.54699,0 4.625,2.04676 4.625,4.59375 0,2.54699 -2.07801,4.625 -4.625,4.625 -2.54699,0 -4.59375,-2.07801 -4.59375,-4.625 0,-2.54699 2.04676,-4.59375 4.59375,-4.59375 z m 194.000005,38.875 c 2.48805,0 4.53125,2.01195 4.53125,4.5 0,2.48805 -2.0432,4.5 -4.53125,4.5 -2.48805,0 -4.5,-2.01195 -4.5,-4.5 0,-2.48805 2.01195,-4.5 4.5,-4.5 z m 213.28125,32.84375 c 2.45939,0 4.46875,2.00936 4.46875,4.46875 0,2.45939 -2.00936,4.4375 -4.46875,4.4375 -2.45939,0 -4.4375,-1.97811 -4.4375,-4.4375 0,-2.45939 1.97811,-4.46875 4.4375,-4.46875 z m -242,18.875 c 2.41277,0 4.375,1.96223 4.375,4.375 0,2.41277 -1.96223,4.34375 -4.375,4.34375 -2.41277,0 -4.375,-1.93098 -4.375,-4.34375 0,-2.41277 1.96223,-4.375 4.375,-4.375 z m 173.625,0 c 2.41277,0 4.375,1.96223 4.375,4.375 0,2.41277 -1.96223,4.34375 -4.375,4.34375 -2.41277,0 -4.375,-1.93098 -4.375,-4.34375 0,-2.41277 1.96223,-4.375 4.375,-4.375 z m -370.687505,1.21875 c 1.98901,0 3.66533,1.26656 4.3125,3.03125 0.64656,-1.76585 2.32266,-3.03125 4.3125,-3.03125 2.54699,0 4.625,2.07801 4.625,4.625 0,2.17305 -1.50811,3.98059 -3.53125,4.46875 l 0,43.1875 c 1.91106,0.56314 3.3125,2.31279 3.3125,4.40625 0,2.54699 -2.07801,4.625 -4.625,4.625 -1.98984,0 -3.66594,-1.2654 -4.3125,-3.03125 -0.64717,1.76469 -2.32349,3.03125 -4.3125,3.03125 -2.54699,0 -4.59375,-2.07801 -4.59375,-4.625 0,-2.30322 1.66836,-4.18695 3.875,-4.53125 l 0,-43.03125 c -2.08667,-0.4414 -3.65625,-2.28189 -3.65625,-4.5 0,-2.54699 2.04676,-4.625 4.59375,-4.625 z m 648.437505,0 c 1.9898,0 3.6659,1.2654 4.3125,3.03125 0.6472,-1.76469 2.3235,-3.03125 4.3125,-3.03125 2.547,0 4.625,2.07801 4.625,4.625 0,2.18205 -1.5267,3.98967 -3.5625,4.46875 l 0,44.1875 c 2.0358,0.47908 3.5625,2.2867 3.5625,4.46875 0,2.54699 -2.078,4.625 -4.625,4.625 -1.989,0 -3.6653,-1.26656 -4.3125,-3.03125 -0.6466,1.76585 -2.3227,3.03125 -4.3125,3.03125 -2.547,0 -4.625,-2.07801 -4.625,-4.625 0,-2.22862 1.586,-4.06997 3.6875,-4.5 l 0,-44.125 c -2.1015,-0.43003 -3.6875,-2.27138 -3.6875,-4.5 0,-2.54699 2.078,-4.625 4.625,-4.625 z m -498.28125,89.0625 c 2.07994,0 3.80008,1.38919 4.375,3.28125 l 44.375,0 c 0.57367,-1.8941 2.29361,-3.28125 4.375,-3.28125 2.54699,0 4.625,2.04676 4.625,4.59375 0,1.73342 -0.96115,3.24342 -2.375,4.03125 1.53206,0.7498 2.59375,2.30433 2.59375,4.125 0,2.54699 -2.04676,4.625 -4.59375,4.625 -2.14985,0 -3.95773,-1.47831 -4.46875,-3.46875 l -44.25,0 c -0.51182,1.98927 -2.28847,3.46875 -4.4375,3.46875 -2.54699,0 -4.625,-2.07801 -4.625,-4.625 0,-1.73109 0.96428,-3.21129 2.375,-4 -1.53721,-0.74793 -2.59375,-2.33181 -2.59375,-4.15625 0,-2.54699 2.07801,-4.59375 4.625,-4.59375 z m 162.96875,0 c 2.54699,0 4.625,2.04676 4.625,4.59375 0,1.73342 -0.96115,3.24342 -2.375,4.03125 1.53206,0.7498 2.59375,2.30433 2.59375,4.125 0,2.54699 -2.04676,4.625 -4.59375,4.625 -2.14985,0 -3.95773,-1.47831 -4.46875,-3.46875 l -47.6875,0 c -0.3315,2.22143 -2.24877,3.9375 -4.5625,3.9375 -2.54699,0 -4.59375,-2.07801 -4.59375,-4.625 0,-1.74621 0.97519,-3.24837 2.40625,-4.03125 -1.54531,-0.74495 -2.625,-2.29464 -2.625,-4.125 0,-2.54699 2.04676,-4.625 4.59375,-4.625 1.91025,0 3.5499,1.18853 4.25,2.84375 l 48.0625,0 c 0.57492,-1.89206 2.29506,-3.28125 4.375,-3.28125 z m 31.90625,0 c 2.07994,0 3.80008,1.38919 4.375,3.28125 l 48.0625,0 c 0.7001,-1.65522 2.33975,-2.84375 4.25,-2.84375 2.54699,0 4.625,2.07801 4.625,4.625 0,1.74621 -0.97519,3.24837 -2.40625,4.03125 1.54531,0.74495 2.625,2.29464 2.625,4.125 0,2.54699 -2.07801,4.625 -4.625,4.625 -2.31373,0 -4.19975,-1.71607 -4.53125,-3.9375 l -47.6875,0 c -0.51102,1.99044 -2.3189,3.46875 -4.46875,3.46875 -2.54699,0 -4.625,-2.07801 -4.625,-4.625 0,-1.73109 0.99553,-3.21129 2.40625,-4 -1.55092,-0.74286 -2.625,-2.32179 -2.625,-4.15625 0,-2.54699 2.07801,-4.59375 4.625,-4.59375 z m -246.75,0.4375 c 2.54699,0 4.625,2.07801 4.625,4.625 0,1.74621 -0.97519,3.24837 -2.40625,4.03125 1.54531,0.74495 2.625,2.29464 2.625,4.125 0,2.54699 -2.07801,4.625 -4.625,4.625 -2.31373,0 -4.19975,-1.71607 -4.53125,-3.9375 l -45.781255,0 c -0.11609,2.44365 -2.12136,4.40625 -4.59375,4.40625 -2.54699,0 -4.625,-2.07801 -4.625,-4.625 0,-1.73109 0.99553,-3.21129 2.40625,-4 -1.55092,-0.74286 -2.625,-2.32179 -2.625,-4.15625 0,-2.54699 2.07801,-4.59375 4.625,-4.59375 1.72139,0 3.20771,0.94603 4,2.34375 l 46.656255,0 c 0.7001,-1.65522 2.33975,-2.84375 4.25,-2.84375 z m 353.03125,0 c 1.91025,0 3.5499,1.18853 4.25,2.84375 l 44.65625,0 c 0.7001,-1.65522 2.33975,-2.84375 4.25,-2.84375 2.54699,0 4.625,2.07801 4.625,4.625 0,1.74621 -0.97519,3.24837 -2.40625,4.03125 1.54531,0.74495 2.625,2.29464 2.625,4.125 0,2.54699 -2.07801,4.625 -4.625,4.625 -2.31373,0 -4.19975,-1.71607 -4.53125,-3.9375 l -44.0625,0 c -0.3315,2.22143 -2.21752,3.9375 -4.53125,3.9375 -2.54699,0 -4.625,-2.07801 -4.625,-4.625 0,-1.74621 0.97519,-3.24837 2.40625,-4.03125 -1.54531,-0.74495 -2.625,-2.29464 -2.625,-4.125 0,-2.54699 2.04676,-4.625 4.59375,-4.625 z m 105.15625,0 c 1.91025,0 3.5499,1.18853 4.25,2.84375 l 47.5,0 c 0.7001,-1.65522 2.33975,-2.84375 4.24995,-2.84375 2.5472,0 4.6252,2.07801 4.625,4.625 0,1.74621 -0.9751,3.24837 -2.4062,4.03125 1.5453,0.74495 2.625,2.29464 2.625,4.125 0,2.54699 -2.078,4.625 -4.625,4.625 -2.3137,0 -4.19975,-1.71607 -4.53125,-3.9375 l -46.90625,0 c -0.3315,2.22143 -2.24877,3.9375 -4.5625,3.9375 -2.54699,0 -4.59375,-2.07801 -4.59375,-4.625 0,-1.74621 0.97519,-3.24837 2.40625,-4.03125 -1.54531,-0.74495 -2.625,-2.29464 -2.625,-4.125 0,-2.54699 2.04676,-4.625 4.59375,-4.625 z m -245.59375,8.15625 0,0.28125 c 0.082,-0.0526 0.16456,-0.10885 0.25,-0.15625 -0.085,-0.0417 -0.16805,-0.0783 -0.25,-0.125 z m 248.03125,0.375 c -0.0709,0.044 -0.14535,0.0849 -0.21875,0.125 0.0756,0.0364 0.14555,0.0846 0.21875,0.125 l 0,-0.25 z m -159.4375,0.0937 0,0.28125 c 0.0897,-0.0575 0.18751,-0.10497 0.28125,-0.15625 -0.092,-0.0444 -0.19277,-0.0748 -0.28125,-0.125 z"
       id="rect3002"
       inkscape:connector-curvature="0" />
    <path
       style="fill:#0000ff;fill-rule:evenodd;stroke:#000000;stroke-width:0.85104442px;stroke-linecap:butt;stroke-linejoin:miter;stroke-opacity:1"
       d="m 83.944637,-1061.928 0,10.625 0,0.8437 -0.09375,0 c -0.39489,2.146 -2.23986,3.75 -4.5,3.75 -2.26014,0 -4.13636,-1.604 -4.53125,-3.75 l -26.28125,0 0,43.0938 c 2.54699,0 4.59375,2.0467 4.59375,4.5937 0,2.547 -2.04676,4.62502 -4.59375,4.62502 l -10.65625,0 0,70.84375 10.65625,0 c 2.54699,0 4.59375,2.07801 4.59375,4.625 0,2.54699 -2.04676,4.625 -4.59375,4.625 l 0,43.90625 26.1875,0 c 0,-2.54699 2.07801,-4.59375 4.625,-4.59375 2.54699,0 4.59375,2.04676 4.59375,4.59375 l 0,10.625 53.156253,0 0,-10.625 c 0,-2.54699 2.07801,-4.59375 4.625,-4.59375 2.54699,0 4.59375,2.04676 4.59375,4.59375 l 34.71875,0 c 0,-2.54699 2.04676,-4.59375 4.59375,-4.59375 2.54699,0 4.625,2.04676 4.625,4.59375 l 0,10.625 53.15625,0 0,-10.625 0.15625,0 c 0,-2.54699 2.04676,-4.59375 4.59375,-4.59375 2.54699,0 4.625,2.04676 4.625,4.59375 l 33.71875,0 c 0,-2.77854 2.25271,-5.03125 5.03125,-5.03125 2.77854,0 5.03125,2.25271 5.03125,5.03125 l 0,10.625 53.125,0 0,-9.5625 c -0.0795,-0.33919 -0.125,-0.69907 -0.125,-1.0625 0,-2.54699 2.04676,-4.59375 4.59375,-4.59375 2.54699,0 4.625,2.04676 4.625,4.59375 l 17.125,0 c 0,-2.54699 2.07801,-4.59375 4.625,-4.59375 2.54699,0 4.59375,2.04676 4.59375,4.59375 l 0,10.625 53.15625,0 0,-10.625 c 0,-2.54699 2.07801,-4.59375 4.625,-4.59375 2.54699,0 4.59375,2.04676 4.59375,4.59375 l 34.71875,0 c 0,-2.54699 2.04676,-4.59375 4.59375,-4.59375 2.54699,0 4.625,2.04676 4.625,4.59375 l 0,10.625 53.15625,0 0,-10.625 c 0,-2.54699 2.04676,-4.59375 4.59375,-4.59375 2.54699,0 4.625,2.04676 4.625,4.59375 l 34.6875,0 c 0,-2.54699 2.07801,-4.59375 4.625,-4.59375 2.54699,0 4.59375,2.04676 4.59375,4.59375 l 0,10.625 53.15625,0 0,-10.625 c 0,-2.54699 2.078,-4.59375 4.625,-4.59375 2.547,0 4.5936,2.04676 4.5938,4.59375 l 25.375,0 0,-44 c -2.1473,-0.39489 -3.7813,-2.27111 -3.7813,-4.53125 0,-2.26014 1.635,-4.13636 3.7813,-4.53125 l 0,-0.0937 0.8437,0 10.625,0 0,-70.84375 -10.625,0 -0.8437,0 0,-0.0937 c -2.1474,-0.39489 -3.7813,-2.27107 -3.7813,-4.53127 0,-2.2601 1.635,-4.1051 3.7813,-4.5 l 0,-43.1875 -25.4688,0 c -0.3949,2.146 -2.2399,3.75 -4.5,3.75 -2.2601,0 -4.1364,-1.604 -4.5312,-3.75 l -0.0938,0 0,-0.8437 0,-10.625 -53.15625,0 0,10.625 0,0.8437 -0.0937,0 c -0.39489,2.146 -2.23986,3.75 -4.5,3.75 -2.26014,0 -4.13636,-1.604 -4.53125,-3.75 l -34.875,0 c -0.39489,2.146 -2.27111,3.75 -4.53125,3.75 -2.26014,0 -4.10511,-1.604 -4.5,-3.75 l -0.0937,0 0,-0.8437 0,-10.625 -53.15625,0 0,10.625 0,0.8437 -0.0937,0 c -0.39489,2.146 -2.27111,3.75 -4.53125,3.75 -2.26014,0 -4.10511,-1.604 -4.5,-3.75 l -34.90625,0 c -0.39489,2.146 -2.23986,3.75 -4.5,3.75 -2.26014,0 -4.13636,-1.604 -4.53125,-3.75 l -0.0937,0 0,-0.8437 0,-10.625 -53.15625,0 0,10.625 0,0.8437 -0.0937,0 c -0.39489,2.146 -2.23986,3.75 -4.5,3.75 -2.26014,0 -4.13636,-1.604 -4.53125,-3.75 l -17.15625,0 c -0.39489,2.146 -2.27111,3.75 -4.53125,3.75 -2.26014,0 -4.13636,-1.604 -4.53125,-3.75 l -0.0937,0 0,-0.8437 0,-10.625 -53.125,0 0,10.625 0,0.8437 -0.0937,0 c -0.39489,2.146 -2.27111,3.75 -4.53125,3.75 -2.26014,0 -4.13636,-1.604 -4.53125,-3.75 l -34.875,0 c -0.39489,2.146 -2.27111,3.75 -4.53125,3.75 -2.26014,0 -4.10511,-1.604 -4.5,-3.75 l -0.0937,0 0,-0.8437 0,-10.625 -53.15625,0 0,10.625 0,0.8437 -0.0937,0 c -0.39489,2.146 -2.27111,3.75 -4.53125,3.75 -2.26014,0 -4.10511,-1.604 -4.5,-3.75 l -34.90625,0 c -0.39489,2.146 -2.23986,3.75 -4.5,3.75 -2.26014,0 -4.13636,-1.604 -4.53125,-3.75 l -0.0937,0 0,-0.8437 0,-10.625 -53.156253,0 z"
       id="rect3266"
       inkscape:connector-curvature="0" />
    <path
       style="fill:#0000ff;fill-rule:evenodd;stroke:#000000;stroke-width:1px;stroke-linecap:butt;stroke-linejoin:miter;stroke-opacity:1"
       d="m 749.36024,-1053.4394 0,10.625 0,17.7188 0,8.5625 c 2.2421,0.3145 3.9688,2.2037 3.9688,4.5312 0,2.3275 -1.7276,4.2481 -3.9688,4.5625 l 0,0.062 -0.625,0 -10,0 0,53.1563 10,0 0.625,0 0,0.0625 c 2.242,0.31446 3.9688,2.20375 3.9688,4.53125 0,2.3275 -1.7276,4.24804 -3.9688,4.5625 l 0,34.8125 c 2.2419,0.31446 3.9688,2.235 3.9688,4.5625 0,2.3275 -1.7276,4.21679 -3.9688,4.53125 l 0,0.0625 -0.625,0 -9.2812,0 0,53.40625 7.8438,0 c 0.4498,-0.14707 0.9376,-0.25 1.4374,-0.25 2.5479,0 4.5938,2.07801 4.5938,4.625 0,2.3275 -1.7276,4.21679 -3.9688,4.53125 l 0,17.125 c 2.2417,0.31446 3.9688,2.20375 3.9688,4.53125 0,2.3275 -1.7276,4.24804 -3.9688,4.5625 l 0,0.0625 -0.625,0 -9.2812,0 0,53.40625 7.8125,0 c 0.4602,-0.15407 0.9567,-0.25 1.4687,-0.25 2.5477,0 4.5938,2.04676 4.5938,4.59375 0,2.3275 -1.7276,4.24804 -3.9688,4.5625 l 0,34.8125 c 2.2409,0.31446 3.9688,2.235 3.9688,4.5625 0,2.3275 -1.7279,4.24804 -3.9688,4.5625 l 0,0.0625 -0.625,0 -9.2812,0 0,53.375 7.8438,0 c 0.4506,-0.14707 0.9376,-0.25 1.4374,-0.25 2.5471,0 4.5938,2.07801 4.5938,4.625 0,2.3275 -1.7278,4.24804 -3.9688,4.5625 l 0,26.25 0,10.625 53.125,0 0,-8.375 c -0.3715,-0.66491 -0.625,-1.43409 -0.625,-2.25 0,-2.54699 2.0783,-4.59375 4.625,-4.59375 2.5472,0 4.5938,2.04676 4.5938,4.59375 l 52.4375,0 c 0,-2.54699 2.0471,-4.59375 4.5937,-4.59375 2.5473,0 4.625,2.04676 4.625,4.59375 l 0.625,0 0,10.625 53.1563,0 0,-28.34375 0,-8.53125 c -0.2046,0.0278 -0.4128,0.0625 -0.625,0.0625 -2.547,0 -4.625,-2.07801 -4.625,-4.625 0,-2.54699 2.078,-4.625 4.625,-4.625 0.4952,0 0.9588,0.1055 1.4063,0.25 l 8.4687,0 0,-53.375 -9.25,0 0,-0.0625 c -0.2046,0.0278 -0.4128,0.0625 -0.625,0.0625 -2.547,0 -4.625,-2.07801 -4.625,-4.625 0,-2.54699 2.078,-4.625 4.625,-4.625 0.2122,0 0.4204,0.0347 0.625,0.0625 l 0,-34.8125 c -0.2046,0.0278 -0.4128,0.0625 -0.625,0.0625 -2.547,0 -4.625,-2.07801 -4.625,-4.625 0,-2.54699 2.078,-4.59375 4.625,-4.59375 0.5187,0 1.0035,0.0921 1.4687,0.25 l 8.4063,0 0,-53.40625 -9.25,0 0,-0.0625 c -0.2046,0.0278 -0.4128,0.0625 -0.625,0.0625 -2.547,0 -4.625,-2.07801 -4.625,-4.625 0,-2.54699 2.078,-4.59375 4.625,-4.59375 0.2122,0 0.4204,0.0347 0.625,0.0625 l 0,-17.125 c -0.2046,0.0278 -0.4128,0.0625 -0.625,0.0625 -2.547,0 -4.625,-2.04676 -4.625,-4.59375 0,-2.54699 2.078,-4.625 4.625,-4.625 0.4952,0 0.9588,0.1055 1.4063,0.25 l 8.4687,0 0,-53.40625 -9.25,0 0,-0.0625 c -0.2046,0.0278 -0.4128,0.0625 -0.625,0.0625 -2.547,0 -4.625,-2.04676 -4.625,-4.59375 0,-2.54699 2.078,-4.625 4.625,-4.625 0.2122,0 0.4204,0.0347 0.625,0.0625 l 0,-34.8125 c -0.2046,0.0278 -0.4128,0.0625 -0.625,0.0625 -2.547,0 -4.625,-2.07801 -4.625,-4.625 0,-2.54699 2.078,-4.59375 4.625,-4.59375 0.2122,0 0.4204,0.0347 0.625,0.0625 l 0,-0.0625 10,0 0,-53.1563 -10,0 0,-0.062 c -0.2046,0.028 -0.4128,0.062 -0.625,0.062 -2.547,0 -4.625,-2.078 -4.625,-4.625 0,-2.5469 2.078,-4.5937 4.625,-4.5937 0.2122,0 0.4204,0.035 0.625,0.062 l 0,-26.2813 0,-10.625 -53.1563,0 0,10.625 -0.625,0 c 0,2.547 -2.0776,4.625 -4.625,4.625 -2.5455,0 -4.5937,-2.078 -4.5937,-4.625 l -51.9375,0 c 0,2.547 -2.0464,4.625 -4.5938,4.625 -2.5456,0 -4.6248,-2.078 -4.625,-4.625 0,-0.3526 0.05,-0.7013 0.125,-1.0312 l 0,-9.5938 -53.125,0 z"
       id="rect3353"
       inkscape:connector-curvature="0" />
    <path
       style="fill:#0000ff;fill-rule:evenodd;stroke:#000000;stroke-width:1px;stroke-linecap:butt;stroke-linejoin:miter;stroke-opacity:1"
       d="m 749.63464,-583.57665 0,10.625 0,17.71875 0,8.59375 c 2.1015,0.43003 3.6875,2.27138 3.6875,4.5 0,2.22862 -1.586,4.10122 -3.6875,4.53125 l 0,0.0937 -0.9375,0 -10.625,0 0,53.15625 10.625,0 0.9375,0 0,0.0937 c 2.1015,0.43003 3.6875,2.27138 3.6875,4.5 0,2.22862 -1.586,4.10122 -3.6875,4.53125 l 0,34.875 c 2.1015,0.43003 3.6875,2.30263 3.6875,4.53125 0,2.22862 -1.586,4.06997 -3.6875,4.5 l 0,0.0937 -0.9375,0 -9.875,0 0,53.40625 8.4688,0 c 0.4507,-0.14707 0.9064,-0.25 1.4062,-0.25 2.547,0 4.625,2.07801 4.625,4.625 0,2.22862 -1.586,4.06997 -3.6875,4.5 l 0,17.1875 c 2.1015,0.43003 3.6875,2.27138 3.6875,4.5 0,2.22862 -1.586,4.10122 -3.6875,4.53125 l 0,0.0937 -0.9375,0 -9.875,0 0,53.40625 8.4063,0 c 0.4683,-0.16019 0.9461,-0.25 1.4687,-0.25 2.547,0 4.625,2.04676 4.625,4.59375 0,2.22862 -1.586,4.10122 -3.6875,4.53125 l 0,34.875 c 2.1015,0.43003 3.6875,2.30263 3.6875,4.53125 0,2.22862 -1.586,4.10122 -3.6875,4.53125 l 0,0.0937 -0.9375,0 -9.875,0 0,53.375 8.4688,0 c 0.4507,-0.14707 0.9064,-0.25 1.4062,-0.25 2.547,0 4.625,2.07801 4.625,4.625 0,2.22862 -1.586,4.10122 -3.6875,4.53125 l 0,8.5625 0,17.71875 0,10.625 53.125,0 0,-9.6875 c -0.061,-0.30021 -0.094,-0.61913 -0.094,-0.9375 0,-2.54699 2.0467,-4.59375 4.5937,-4.59375 2.547,0 4.625,2.04676 4.625,4.59375 l 52.5938,0 c 0,-2.54699 2.078,-4.59375 4.625,-4.59375 2.547,0 4.5937,2.04676 4.5937,4.59375 0,0.21225 -0.035,0.42036 -0.062,0.625 l 0,10 53.1563,0 0,-10.625 0,-17.71875 0,-8.5625 c -0.3002,0.0614 -0.5879,0.0937 -0.9063,0.0937 -2.547,0 -4.625,-2.07801 -4.625,-4.625 0,-2.54699 2.078,-4.625 4.625,-4.625 0.4999,0 0.9556,0.10293 1.4063,0.25 l 9.375,0 0,-53.375 -9.875,0 0,-0.0937 c -0.3002,0.0614 -0.5879,0.0937 -0.9063,0.0937 -2.547,0 -4.625,-2.07801 -4.625,-4.625 0,-2.54699 2.078,-4.625 4.625,-4.625 0.3184,0 0.6061,0.0323 0.9063,0.0937 l 0,-34.875 c -0.3002,0.0614 -0.5879,0.0937 -0.9063,0.0937 -2.547,0 -4.625,-2.07801 -4.625,-4.625 0,-2.54699 2.078,-4.59375 4.625,-4.59375 0.5226,0 1.0004,0.0898 1.4688,0.25 l 9.3125,0 0,-53.40625 -9.875,0 0,-0.0937 c -0.3002,0.0614 -0.5879,0.0937 -0.9063,0.0937 -2.547,0 -4.625,-2.07801 -4.625,-4.625 0,-2.54699 2.078,-4.59375 4.625,-4.59375 0.3184,0 0.6061,0.0323 0.9063,0.0937 l 0,-17.1875 c -0.3002,0.0614 -0.5879,0.0937 -0.9063,0.0937 -2.547,0 -4.625,-2.04676 -4.625,-4.59375 0,-2.54699 2.078,-4.625 4.625,-4.625 0.4999,0 0.9556,0.10293 1.4063,0.25 l 9.375,0 0,-53.40625 -9.875,0 0,-0.0937 c -0.3002,0.0614 -0.5879,0.0937 -0.9063,0.0937 -2.547,0 -4.625,-2.04676 -4.625,-4.59375 0,-2.54699 2.078,-4.625 4.625,-4.625 0.3184,0 0.6061,0.0323 0.9063,0.0937 l 0,-34.875 c -0.3002,0.0614 -0.5879,0.0937 -0.9063,0.0937 -2.547,0 -4.625,-2.07801 -4.625,-4.625 0,-2.54699 2.078,-4.59375 4.625,-4.59375 0.3184,0 0.6061,0.0323 0.9063,0.0937 l 0,-0.0937 10.625,0 0,-53.15625 -10.625,0 0,-0.0937 c -0.3002,0.0614 -0.5879,0.0937 -0.9063,0.0937 -2.547,0 -4.625,-2.07801 -4.625,-4.625 0,-2.54699 2.078,-4.59375 4.625,-4.59375 0.3184,0 0.6061,0.0323 0.9063,0.0937 l 0,-8.59375 0,-17.71875 0,-10.625 -53.1563,0 0,10 c 0.028,0.20464 0.062,0.41275 0.062,0.625 0,2.54699 -2.0467,4.625 -4.5937,4.625 -2.547,0 -4.625,-2.07801 -4.625,-4.625 l -52.6875,0 c 0,2.54699 -2.0468,4.625 -4.5938,4.625 -2.547,0 -4.625,-2.07801 -4.625,-4.625 0,-0.42106 0.082,-0.8312 0.1875,-1.21875 l 0,-9.40625 -53.125,0 z"
       id="rect3369"
       inkscape:connector-curvature="0" />
    <path
       style="fill:#0000ff;fill-rule:evenodd;stroke:#000000;stroke-width:0.85104442px;stroke-linecap:butt;stroke-linejoin:miter;stroke-opacity:1"
       d="m 88.576033,-340.99668 0,10.625 0,0.84375 -0.09375,0 c -0.39489,2.14594 -2.23986,3.78125 -4.5,3.78125 -2.26014,0 -4.13636,-1.63531 -4.53125,-3.78125 l -26.28125,0 0,43.09375 c 2.54699,0 4.59375,2.04676 4.59375,4.59375 0,2.54699 -2.04676,4.625 -4.59375,4.625 l -10.65625,0 0,70.84375 10.65625,0 c 2.54699,0 4.59375,2.07801 4.59375,4.625 0,2.54699 -2.04676,4.625 -4.59375,4.625 l 0,43.90625 26.1875,0 c 0,-2.54699 2.07801,-4.59375 4.625,-4.59375 2.54699,0 4.59375,2.04676 4.59375,4.59375 l 0,10.625 53.156247,0 0,-10.625 c 0,-2.54699 2.07801,-4.59375 4.625,-4.59375 2.54699,0 4.59375,2.04676 4.59375,4.59375 l 71.65625,0 0,-88.5625 220.3125,0 0,88.5625 43.9375,0 c 0,-2.54699 2.04676,-4.59375 4.59375,-4.59375 2.54699,0 4.625,2.04676 4.625,4.59375 l 0,10.625 53.15625,0 0,-10.625 c 0,-2.54699 2.04676,-4.59375 4.59375,-4.59375 2.54699,0 4.625,2.04676 4.625,4.59375 l 34.6875,0 c 0,-2.54699 2.07801,-4.59375 4.625,-4.59375 2.54699,0 4.59375,2.04676 4.59375,4.59375 l 0,10.625 53.15625,0 0,-10.625 c 0,-2.54699 2.078,-4.59375 4.625,-4.59375 2.547,0 4.5936,2.04676 4.5938,4.59375 l 25.375,0 0,-44 c -2.1464,-0.39489 -3.7813,-2.27111 -3.7813,-4.53125 0,-2.26014 1.635,-4.13636 3.7813,-4.53125 l 0,-0.0937 0.8437,0 10.625,0 0,-70.84375 -10.625,0 -0.8437,0 0,-0.0937 c -2.1465,-0.39489 -3.7813,-2.27111 -3.7813,-4.53125 0,-2.26014 1.635,-4.10511 3.7813,-4.5 l 0,-43.1875 -25.4688,0 c -0.3949,2.14594 -2.2399,3.78125 -4.5,3.78125 -2.2601,0 -4.1364,-1.63531 -4.5312,-3.78125 l -0.0938,0 0,-0.84375 0,-10.625 -53.15625,0 0,10.625 0,0.84375 -0.0937,0 c -0.39489,2.14594 -2.23986,3.78125 -4.5,3.78125 -2.26014,0 -4.13636,-1.63531 -4.53125,-3.78125 l -34.875,0 c -0.39489,2.14594 -2.27111,3.78125 -4.53125,3.78125 -2.26014,0 -4.10511,-1.63531 -4.5,-3.78125 l -0.0937,0 0,-0.84375 0,-10.625 -53.15625,0 0,10.625 0,0.84375 -0.0937,0 c -0.39489,2.14594 -2.27111,3.78125 -4.53125,3.78125 -2.26014,0 -4.10511,-1.63531 -4.5,-3.78125 l -34.90625,0 c -0.39489,2.14594 -2.23986,3.78125 -4.5,3.78125 -2.26014,0 -4.13636,-1.63531 -4.53125,-3.78125 l -0.0937,0 0,-0.84375 0,-10.625 -53.15625,0 0,10.625 0,0.84375 -0.0937,0 c -0.39489,2.14594 -2.23986,3.78125 -4.5,3.78125 -2.26014,0 -4.13636,-1.63531 -4.53125,-3.78125 l -17.15625,0 c -0.39489,2.14594 -2.27111,3.78125 -4.53125,3.78125 -2.26014,0 -4.13636,-1.63531 -4.53125,-3.78125 l -0.0937,0 0,-0.84375 0,-10.625 -53.125,0 0,10.625 0,0.84375 -0.0937,0 c -0.39489,2.14594 -2.27111,3.78125 -4.53125,3.78125 -2.26014,0 -4.13636,-1.63531 -4.53125,-3.78125 l -34.875,0 c -0.39489,2.14594 -2.27111,3.78125 -4.53125,3.78125 -2.26014,0 -4.10511,-1.63531 -4.5,-3.78125 l -0.0937,0 0,-0.84375 0,-10.625 -53.15625,0 0,10.625 0,0.84375 -0.0937,0 c -0.39489,2.14594 -2.27111,3.78125 -4.53125,3.78125 -2.26014,0 -4.10511,-1.63531 -4.5,-3.78125 l -34.90625,0 c -0.39489,2.14594 -2.23986,3.78125 -4.5,3.78125 -2.26014,0 -4.13636,-1.63531 -4.53125,-3.78125 l -0.0937,0 0,-0.84375 0,-10.625 -53.156247,0 z m 407.499997,46.0625 106.28125,0 0,35.4375 -106.28125,0 0,-35.4375 z"
       id="rect3385"
       inkscape:connector-curvature="0" />
  </g>
</svg>
