<?xml version="1.0" encoding="utf-8"?>
<!-- Generator: Adobe Illustrator 18.1.1, SVG Export Plug-In . SVG Version: 6.00 Build 0)  -->
<svg version="1.1"
	 id="svg2" xmlns:cc="http://creativecommons.org/ns#" xmlns:dc="http://purl.org/dc/elements/1.1/" xmlns:inkscape="http://www.inkscape.org/namespaces/inkscape" xmlns:sodipodi="http://sodipodi.sourceforge.net/DTD/sodipodi-0.dtd" xmlns:svg="http://www.w3.org/2000/svg" xmlns:rdf="http://www.w3.org/1999/02/22-rdf-syntax-ns#" sodipodi:docname="3mm.dxf" inkscape:version="0.48.5 r10040"
	 xmlns="http://www.w3.org/2000/svg" xmlns:xlink="http://www.w3.org/1999/xlink" x="0px" y="0px" viewBox="403 -667 1417.3 2126"
	 enable-background="new 403 -667 1417.3 2126" xml:space="preserve">
<sodipodi:namedview  inkscape:zoom="0.7" borderopacity="1.0" inkscape:cx="662.67224" inkscape:cy="1860.5151" showgrid="true" objecttolerance="10000" units="mm" guidetolerance="10000" bordercolor="#666666" pagecolor="#ffffff" id="base" inkscape:window-maximized="0" inkscape:window-y="0" inkscape:window-x="0" inkscape:window-height="856" inkscape:current-layer="layer1" inkscape:document-units="mm" inkscape:pageopacity="0.0" inkscape:window-width="1436" inkscape:pageshadow="2">
	
		<inkscape:grid  type="xygrid" spacingx="1mm" enabled="true" dotted="false" spacingy="1mm" visible="true" units="mm" empspacing="5" id="grid2985" empcolor="#0000ff" empopacity="0.25098039" snapvisiblegridlinesonly="true">
		</inkscape:grid>
</sodipodi:namedview>
<g id="layer1" transform="translate(0,1073.6223)" inkscape:label="Layer 1" inkscape:groupmode="layer">
	<path id="rect3002" inkscape:connector-curvature="0" fill="none" stroke="#000000" stroke-width="1.46" d="M403-1740.6v28.3v0.7
		v326v13.5v28.3h566.9v-41.8v-326.7v-28.3H403z M463.4-1723.8c1.8,0,3.3,1.3,3.6,3h27.9c0.3-1.7,1.8-3,3.6-3s3.3,1.3,3.6,3h0.1v8.5
		h-0.1c0,0.2,0.1,0.4,0.1,0.7c0,2-1.6,3.7-3.7,3.7s-3.7-1.7-3.7-3.7c0-0.2,0-0.5,0.1-0.7H467c0,0.2,0.1,0.4,0.1,0.7
		c0,2-1.7,3.7-3.7,3.7s-3.7-1.7-3.7-3.7c0-0.2,0-0.5,0.1-0.7h-0.1v-7.8v-0.7h0.1C460.1-1722.5,461.6-1723.8,463.4-1723.8
		L463.4-1723.8z M548.4-1723.8c1.8,0,3.3,1.3,3.6,3H580c0.3-1.7,1.8-3,3.6-3s3.3,1.3,3.6,3h0.1v8.5h-0.1c0,0.2,0.1,0.4,0.1,0.7
		c0,2-1.7,3.7-3.7,3.7s-3.7-1.7-3.7-3.7c0-0.2,0-0.5,0.1-0.7H552c0,0.2,0.1,0.4,0.1,0.7c0,2-1.6,3.7-3.7,3.7s-3.7-1.7-3.7-3.7
		c0-0.2,0-0.5,0.1-0.7h-0.1v-7.8v-0.7h0.1C545.1-1722.5,546.6-1723.8,548.4-1723.8L548.4-1723.8z M633.5-1723.8c1.8,0,3.3,1.3,3.6,3
		H665c0.3-1.7,1.8-3,3.6-3s3.3,1.3,3.6,3h0.1v8.5h-0.1c0,0.2,0.1,0.4,0.1,0.7c0,2-1.6,3.7-3.7,3.7s-3.7-1.7-3.7-3.7
		c0-0.2,0-0.5,0.1-0.7h-27.9c0,0.2,0.1,0.4,0.1,0.7c0,2-1.7,3.7-3.7,3.7s-3.7-1.7-3.7-3.7c0-0.2,0-0.5,0.1-0.7h-0.1v-7.8v-0.7h0.1
		C630.2-1722.5,631.6-1723.8,633.5-1723.8L633.5-1723.8z M704.3-1723.8c1.8,0,3.3,1.3,3.6,3h27.9c0.3-1.7,1.8-3,3.6-3s3.3,1.3,3.6,3
		h0.1v8.5h-0.1c0,0.2,0.1,0.4,0.1,0.7c0,2-1.7,3.7-3.7,3.7s-3.7-1.7-3.7-3.7c0-0.2,0-0.5,0.1-0.7h-27.9c0,0.2,0.1,0.4,0.1,0.7
		c0,2-1.6,3.7-3.7,3.7s-3.7-1.7-3.7-3.7c0-0.2,0-0.5,0.1-0.7h-0.1v-7.8v-0.7h0.1C701-1722.5,702.5-1723.8,704.3-1723.8L704.3-1723.8
		z M789.3-1723.8c1.8,0,3.3,1.3,3.6,3h27.9c0.3-1.7,1.8-3,3.6-3s3.3,1.3,3.6,3h0.1v8.5h-0.1c0,0.2,0.1,0.4,0.1,0.7
		c0,2-1.7,3.7-3.7,3.7s-3.7-1.7-3.7-3.7c0-0.2,0-0.5,0.1-0.7H793c0,0.2,0.1,0.4,0.1,0.7c0,2-1.7,3.7-3.7,3.7s-3.7-1.7-3.7-3.7
		c0-0.2,0-0.5,0.1-0.7h-0.1v-7.8v-0.7h0.1C786.1-1722.5,787.5-1723.8,789.3-1723.8L789.3-1723.8z M874.4-1723.8c1.8,0,3.3,1.3,3.6,3
		h27.9c0.3-1.7,1.8-3,3.6-3s3.3,1.3,3.6,3h0.1v0.7v7.8h-0.1c0,0.2,0.1,0.4,0.1,0.7c0,2-1.6,3.7-3.7,3.7c-2,0-3.7-1.7-3.7-3.7
		c0-0.2,0-0.5,0.1-0.7H878c0,0.2,0.1,0.4,0.1,0.7c0,2-1.7,3.7-3.7,3.7s-3.7-1.7-3.7-3.7c0-0.2,0-0.5,0.1-0.7h-0.1v-8.5h0.1
		C871.1-1722.5,872.6-1723.8,874.4-1723.8L874.4-1723.8z M605.9-1705.7c1.9,0,3.5,1.6,3.5,3.5s-1.6,3.5-3.5,3.5s-3.5-1.6-3.5-3.5
		S603.9-1705.7,605.9-1705.7z M775.1-1704.4c1.9,0,3.5,1.6,3.5,3.5s-1.6,3.5-3.5,3.5c-1.9,0-3.5-1.6-3.5-3.5
		S773.2-1704.4,775.1-1704.4z M422.8-1683.9h8.5v0.7c2,0,3.7,1.6,3.7,3.7s-1.6,3.7-3.7,3.7v27.8c2,0,3.7,1.7,3.7,3.7
		s-1.6,3.7-3.7,3.7c-0.8,0-1.5-0.3-2.1-0.7H425c-0.6,0.4-1.3,0.7-2.1,0.7c-2,0-3.7-1.7-3.7-3.7s1.6-3.7,3.7-3.7v-27.8
		c-2,0-3.7-1.7-3.7-3.7s1.6-3.7,3.7-3.7V-1683.9z M941.6-1683.9h8.5v0.7c2,0,3.7,1.6,3.7,3.7s-1.7,3.7-3.7,3.7v27.8
		c2,0,3.7,1.7,3.7,3.7s-1.7,3.7-3.7,3.7c-0.8,0-1.5-0.3-2.1-0.7h-4.3c-0.6,0.4-1.3,0.7-2.1,0.7c-2,0-3.7-1.7-3.7-3.7
		s1.7-3.7,3.7-3.7v-27.8c-2,0-3.7-1.7-3.7-3.7s1.7-3.7,3.7-3.7V-1683.9z M561.9-1666.6c0.1,0,0.3,0,0.4,0c2.2,0,4,1.8,4,4
		c0,0.4-0.1,0.7-0.2,1v6.3c2.5,1.4,4.2,4.1,4.2,7.1c0,4.5-3.7,8.2-8.2,8.2c-4.5,0-8.2-3.7-8.2-8.2c0-3.2,1.8-5.9,4.4-7.2v-6.2
		c-0.1-0.3-0.1-0.7-0.1-1C558.3-1664.7,559.8-1666.4,561.9-1666.6z M809.9-1666.6c0.1,0,0.3,0,0.4,0c2.2,0,4,1.8,4,4
		c0,0.4-0.1,0.7-0.1,1v6.3c2.5,1.4,4.2,4.1,4.2,7.1c0,4.5-3.7,8.2-8.2,8.2c-4.5,0-8.2-3.7-8.2-8.2c0-3.2,1.8-5.9,4.4-7.2v-6.2
		c-0.1-0.3-0.2-0.7-0.2-1C806.3-1664.7,807.9-1666.4,809.9-1666.6z M449-1648.6c2,0,3.7,1.6,3.7,3.7s-1.7,3.7-3.7,3.7
		s-3.7-1.7-3.7-3.7S447-1648.6,449-1648.6z M581.2-1611.4c1.9,0,3.5,1.6,3.5,3.5c0,1.9-1.6,3.5-3.5,3.5c-1.9,0-3.5-1.6-3.5-3.5
		C577.7-1609.8,579.3-1611.4,581.2-1611.4z M422.8-1598.9h8.5v0.7c2,0,3.7,1.7,3.7,3.7s-1.6,3.7-3.7,3.7v27.8c2,0,3.7,1.7,3.7,3.7
		s-1.6,3.7-3.7,3.7c-0.8,0-1.5-0.3-2.1-0.7H425c-0.6,0.4-1.3,0.7-2.1,0.7c-2,0-3.7-1.6-3.7-3.7s1.6-3.7,3.7-3.7v-27.8
		c-2,0-3.7-1.7-3.7-3.7s1.6-3.7,3.7-3.7V-1598.9z M941.6-1598.9h8.5v0.7c2,0,3.7,1.7,3.7,3.7s-1.7,3.7-3.7,3.7v27.8
		c2,0,3.7,1.7,3.7,3.7s-1.7,3.7-3.7,3.7c-0.8,0-1.5-0.3-2.1-0.7h-4.3c-0.6,0.4-1.3,0.7-2.1,0.7c-2,0-3.7-1.6-3.7-3.7
		s1.7-3.7,3.7-3.7v-27.8c-2,0-3.7-1.7-3.7-3.7s1.7-3.7,3.7-3.7V-1598.9z M422.8-1528h8.5v0.7c2,0,3.7,1.7,3.7,3.7s-1.6,3.7-3.7,3.7
		v27.8c2,0,3.7,1.6,3.7,3.7s-1.6,3.7-3.7,3.7c-0.8,0-1.5-0.3-2.1-0.7H425c-0.6,0.4-1.3,0.7-2.1,0.7c-2,0-3.7-1.7-3.7-3.7
		s1.6-3.7,3.7-3.7v-27.8c-2,0-3.7-1.6-3.7-3.7s1.6-3.7,3.7-3.7V-1528z M941.6-1528h8.5v0.7c2,0,3.7,1.7,3.7,3.7s-1.7,3.7-3.7,3.7
		v27.8c2,0,3.7,1.6,3.7,3.7s-1.7,3.7-3.7,3.7c-0.8,0-1.5-0.3-2.1-0.7h-4.3c-0.6,0.4-1.3,0.7-2.1,0.7c-2,0-3.7-1.7-3.7-3.7
		s1.7-3.7,3.7-3.7v-27.8c-2,0-3.7-1.6-3.7-3.7s1.7-3.7,3.7-3.7V-1528z M449-1519.4c2,0,3.7,1.6,3.7,3.7s-1.7,3.7-3.7,3.7
		s-3.7-1.7-3.7-3.7S447-1519.4,449-1519.4z M604.2-1488.3c2,0,3.6,1.6,3.6,3.6s-1.6,3.6-3.6,3.6c-2,0-3.6-1.6-3.6-3.6
		S602.2-1488.3,604.2-1488.3z M774.8-1462.1c2,0,3.6,1.6,3.6,3.6s-1.6,3.6-3.6,3.6c-2,0-3.5-1.6-3.5-3.6S772.9-1462.1,774.8-1462.1z
		 M581.2-1447c1.9,0,3.5,1.6,3.5,3.5c0,1.9-1.6,3.5-3.5,3.5c-1.9,0-3.5-1.5-3.5-3.5C577.7-1445.4,579.3-1447,581.2-1447z
		 M720.1-1447c1.9,0,3.5,1.6,3.5,3.5c0,1.9-1.6,3.5-3.5,3.5s-3.5-1.5-3.5-3.5C716.6-1445.4,718.2-1447,720.1-1447z M422.8-1443h8.5
		v0.7c2,0,3.7,1.6,3.7,3.7s-1.6,3.7-3.7,3.7v27.8c2,0,3.7,1.7,3.7,3.7s-1.6,3.7-3.7,3.7c-0.8,0-1.5-0.3-2.1-0.7H425
		c-0.6,0.4-1.3,0.7-2.1,0.7c-2,0-3.7-1.6-3.7-3.7s1.6-3.7,3.7-3.7v-27.8c-2,0-3.7-1.7-3.7-3.7s1.6-3.7,3.7-3.7V-1443z M941.6-1443
		h8.5v0.7c2,0,3.7,1.6,3.7,3.7s-1.7,3.7-3.7,3.7v27.8c2,0,3.7,1.7,3.7,3.7s-1.7,3.7-3.7,3.7c-0.8,0-1.5-0.3-2.1-0.7h-4.3
		c-0.6,0.4-1.3,0.7-2.1,0.7c-2,0-3.7-1.6-3.7-3.7s1.7-3.7,3.7-3.7v-27.8c-2,0-3.7-1.7-3.7-3.7s1.7-3.7,3.7-3.7V-1443z M463.4-1375.1
		c1.8,0,3.3,1.3,3.6,3h27.9c0.3-1.7,1.8-3,3.6-3s3.3,1.3,3.6,3h0.1v8.5h-0.1c0,0.2,0.1,0.4,0.1,0.7c0,2-1.6,3.7-3.7,3.7
		s-3.7-1.7-3.7-3.7c0-0.2,0-0.5,0.1-0.7H467c0,0.2,0.1,0.4,0.1,0.7c0,2-1.7,3.7-3.7,3.7s-3.7-1.7-3.7-3.7c0-0.2,0-0.5,0.1-0.7h-0.1
		v-7.8v-0.7h0.1C460.1-1373.8,461.6-1375.1,463.4-1375.1L463.4-1375.1z M548.4-1375.1c1.8,0,3.3,1.3,3.6,3H580c0.3-1.7,1.8-3,3.6-3
		s3.3,1.3,3.6,3h0.1v8.5h-0.1c0,0.2,0.1,0.4,0.1,0.7c0,2-1.7,3.7-3.7,3.7s-3.7-1.7-3.7-3.7c0-0.2,0-0.5,0.1-0.7H552
		c0,0.2,0.1,0.4,0.1,0.7c0,2-1.6,3.7-3.7,3.7s-3.7-1.7-3.7-3.7c0-0.2,0-0.5,0.1-0.7h-0.1v-7.8v-0.7h0.1
		C545.1-1373.8,546.6-1375.1,548.4-1375.1L548.4-1375.1z M633.5-1375.1c1.8,0,3.3,1.3,3.6,3H665c0.3-1.7,1.8-3,3.6-3s3.3,1.3,3.6,3
		h0.1v8.5h-0.1c0,0.2,0.1,0.4,0.1,0.7c0,2-1.6,3.7-3.7,3.7s-3.7-1.7-3.7-3.7c0-0.2,0-0.5,0.1-0.7h-27.9c0,0.2,0.1,0.4,0.1,0.7
		c0,2-1.7,3.7-3.7,3.7s-3.7-1.7-3.7-3.7c0-0.2,0-0.5,0.1-0.7h-0.1v-7.8v-0.7h0.1C630.2-1373.8,631.6-1375.1,633.5-1375.1
		L633.5-1375.1z M704.3-1375.1c1.8,0,3.3,1.3,3.6,3h27.9c0.3-1.7,1.8-3,3.6-3s3.3,1.3,3.6,3h0.1v8.5h-0.1c0,0.2,0.1,0.4,0.1,0.7
		c0,2-1.7,3.7-3.7,3.7s-3.7-1.7-3.7-3.7c0-0.2,0-0.5,0.1-0.7h-27.9c0,0.2,0.1,0.4,0.1,0.7c0,2-1.6,3.7-3.7,3.7s-3.7-1.7-3.7-3.7
		c0-0.2,0-0.5,0.1-0.7h-0.1v-7.8v-0.7h0.1C701-1373.8,702.5-1375.1,704.3-1375.1L704.3-1375.1z M789.3-1375.1c1.8,0,3.3,1.3,3.6,3
		h27.9c0.3-1.7,1.8-3,3.6-3s3.3,1.3,3.6,3h0.1v8.5h-0.1c0,0.2,0.1,0.4,0.1,0.7c0,2-1.7,3.7-3.7,3.7s-3.7-1.7-3.7-3.7
		c0-0.2,0-0.5,0.1-0.7H793c0,0.2,0.1,0.4,0.1,0.7c0,2-1.7,3.7-3.7,3.7s-3.7-1.7-3.7-3.7c0-0.2,0-0.5,0.1-0.7h-0.1v-7.8v-0.7h0.1
		C786.1-1373.8,787.5-1375.1,789.3-1375.1L789.3-1375.1z M874.4-1375.1c1.8,0,3.3,1.3,3.6,3h27.9c0.3-1.7,1.8-3,3.6-3s3.3,1.3,3.6,3
		h0.1v8.5h-0.1c0,0.2,0.1,0.4,0.1,0.7c0,2-1.6,3.7-3.7,3.7c-2,0-3.7-1.7-3.7-3.7c0-0.2,0-0.5,0.1-0.7H878c0,0.2,0.1,0.4,0.1,0.7
		c0,2-1.7,3.7-3.7,3.7s-3.7-1.7-3.7-3.7c0-0.2,0-0.5,0.1-0.7h-0.1v-7.8v-0.7h0.1C871.1-1373.8,872.6-1375.1,874.4-1375.1
		L874.4-1375.1z"/>
	<path id="rect3266" inkscape:connector-curvature="0" fill="none" stroke="#000000" stroke-width="0.851" d="M458.9-1160.9v8.5v0.7
		h-0.1c-0.3,1.7-1.8,3-3.6,3c-1.8,0-3.3-1.3-3.6-3h-21v34.5c2,0,3.7,1.6,3.7,3.7s-1.6,3.7-3.7,3.7H422v56.7h8.5c2,0,3.7,1.7,3.7,3.7
		s-1.6,3.7-3.7,3.7v35.1h21c0-2,1.7-3.7,3.7-3.7c2,0,3.7,1.6,3.7,3.7v8.5h42.5v-8.5c0-2,1.7-3.7,3.7-3.7s3.7,1.6,3.7,3.7h27.8
		c0-2,1.6-3.7,3.7-3.7s3.7,1.6,3.7,3.7v8.5h42.5v-8.5h0.1c0-2,1.6-3.7,3.7-3.7s3.7,1.6,3.7,3.7h27c0-2.2,1.8-4,4-4s4,1.8,4,4v8.5
		h42.5v-7.7c-0.1-0.3-0.1-0.6-0.1-0.8c0-2,1.6-3.7,3.7-3.7s3.7,1.6,3.7,3.7h13.7c0-2,1.7-3.7,3.7-3.7s3.7,1.6,3.7,3.7v8.5h42.5v-8.5
		c0-2,1.7-3.7,3.7-3.7s3.7,1.6,3.7,3.7h27.8c0-2,1.6-3.7,3.7-3.7s3.7,1.6,3.7,3.7v8.5h42.5v-8.5c0-2,1.6-3.7,3.7-3.7
		s3.7,1.6,3.7,3.7h27.8c0-2,1.7-3.7,3.7-3.7s3.7,1.6,3.7,3.7v8.5h42.5v-8.5c0-2,1.7-3.7,3.7-3.7s3.7,1.6,3.7,3.7h20.3v-35.2
		c-1.7-0.3-3-1.8-3-3.6c0-1.8,1.3-3.3,3-3.6v-0.1h0.7h8.5v-56.7h-8.5h-0.7v-0.1c-1.7-0.3-3-1.8-3-3.6c0-1.8,1.3-3.3,3-3.6v-34.6
		h-20.4c-0.3,1.7-1.8,3-3.6,3s-3.3-1.3-3.6-3h-0.1v-0.7v-8.5h-42.5v8.5v0.7h-0.1c-0.3,1.7-1.8,3-3.6,3c-1.8,0-3.3-1.3-3.6-3h-27.9
		c-0.3,1.7-1.8,3-3.6,3c-1.8,0-3.3-1.3-3.6-3h-0.1v-0.7v-8.5h-42.5v8.5v0.7h-0.1c-0.3,1.7-1.8,3-3.6,3c-1.8,0-3.3-1.3-3.6-3h-27.9
		c-0.3,1.7-1.8,3-3.6,3c-1.8,0-3.3-1.3-3.6-3h-0.1v-0.7v-8.5h-42.5v8.5v0.7h-0.1c-0.3,1.7-1.8,3-3.6,3c-1.8,0-3.3-1.3-3.6-3h-13.7
		c-0.3,1.7-1.8,3-3.6,3c-1.8,0-3.3-1.3-3.6-3h-0.1v-0.7v-8.5H629v8.5v0.7h-0.1c-0.3,1.7-1.8,3-3.6,3s-3.3-1.3-3.6-3h-27.9
		c-0.3,1.7-1.8,3-3.6,3s-3.3-1.3-3.6-3h-0.1v-0.7v-8.5h-42.5v8.5v0.7h-0.1c-0.3,1.7-1.8,3-3.6,3s-3.3-1.3-3.6-3h-27.9
		c-0.3,1.7-1.8,3-3.6,3c-1.8,0-3.3-1.3-3.6-3h-0.1v-0.7v-8.5L458.9-1160.9L458.9-1160.9z"/>
	<path id="rect3353" inkscape:connector-curvature="0" fill="none" stroke="#000000" d="M1157-1720.6v8.5v14.2v6.9
		c1.8,0.3,3.2,1.8,3.2,3.6s-1.4,3.4-3.2,3.7v0h-0.5h-8v42.5h8h0.5v0.1c1.8,0.3,3.2,1.8,3.2,3.6c0,1.9-1.4,3.4-3.2,3.7v27.8
		c1.8,0.3,3.2,1.8,3.2,3.7c0,1.9-1.4,3.4-3.2,3.6v0h-0.5h-7.4v42.7h6.3c0.4-0.1,0.8-0.2,1.1-0.2c2,0,3.7,1.7,3.7,3.7
		c0,1.9-1.4,3.4-3.2,3.6v13.7c1.8,0.3,3.2,1.8,3.2,3.6c0,1.9-1.4,3.4-3.2,3.7v0h-0.5h-7.4v42.7h6.2c0.4-0.1,0.8-0.2,1.2-0.2
		c2,0,3.7,1.6,3.7,3.7c0,1.9-1.4,3.4-3.2,3.6v27.9c1.8,0.3,3.2,1.8,3.2,3.6c0,1.9-1.4,3.4-3.2,3.7v0.1h-0.5h-7.4v42.7h6.3
		c0.4-0.1,0.8-0.2,1.1-0.2c2,0,3.7,1.7,3.7,3.7c0,1.9-1.4,3.4-3.2,3.7v6.8v14.2v8.5h42.5v-6.7c-0.3-0.5-0.5-1.1-0.5-1.8
		c0-2,1.7-3.7,3.7-3.7c2,0,3.7,1.6,3.7,3.7h41.9c0-2,1.6-3.7,3.7-3.7c2,0,3.7,1.6,3.7,3.7h0.5v8.5h42.5v-8.5v-14.2v-6.8
		c-0.2,0-0.3,0.1-0.5,0.1c-2,0-3.7-1.7-3.7-3.7s1.7-3.7,3.7-3.7c0.4,0,0.8,0.1,1.1,0.2h6.8v-42.7h-7.4v-0.1c-0.2,0-0.3,0.1-0.5,0.1
		c-2,0-3.7-1.7-3.7-3.7s1.7-3.7,3.7-3.7c0.2,0,0.3,0,0.5,0.1v-27.9c-0.2,0-0.3,0.1-0.5,0.1c-2,0-3.7-1.7-3.7-3.7s1.7-3.7,3.7-3.7
		c0.4,0,0.8,0.1,1.2,0.2h6.7v-42.7h-7.4v0c-0.2,0-0.3,0-0.5,0c-2,0-3.7-1.7-3.7-3.7s1.7-3.7,3.7-3.7c0.2,0,0.3,0,0.5,0.1v-13.7
		c-0.2,0-0.3,0.1-0.5,0.1c-2,0-3.7-1.6-3.7-3.7s1.7-3.7,3.7-3.7c0.4,0,0.8,0.1,1.1,0.2h6.8v-42.7h-7.4v0c-0.2,0-0.3,0-0.5,0
		c-2,0-3.7-1.6-3.7-3.7s1.7-3.7,3.7-3.7c0.2,0,0.3,0,0.5,0.1v-27.8c-0.2,0-0.3,0-0.5,0c-2,0-3.7-1.7-3.7-3.7s1.7-3.7,3.7-3.7
		c0.2,0,0.3,0,0.5,0.1v-0.1h8v-42.5h-8v0c-0.2,0-0.3,0-0.5,0c-2,0-3.7-1.7-3.7-3.7s1.7-3.7,3.7-3.7c0.2,0,0.3,0,0.5,0v-6.8v-14.2
		v-8.5h-42.5v8.5h-0.5c0,2-1.7,3.7-3.7,3.7c-2,0-3.7-1.7-3.7-3.7h-41.5c0,2-1.6,3.7-3.7,3.7c-2,0-3.7-1.7-3.7-3.7
		c0-0.3,0-0.6,0.1-0.8v-7.7L1157-1720.6L1157-1720.6z"/>
	<path id="rect3369" inkscape:connector-curvature="0" fill="none" stroke="#000000" d="M990.5-1721v22.7v6.9
		c1.7,0.3,2.9,1.8,2.9,3.6c0,1.8-1.3,3.3-2.9,3.6v0.1h-0.8h-8.5v42.5h8.5h0.8v0.1c1.7,0.3,2.9,1.8,2.9,3.6c0,1.8-1.3,3.3-2.9,3.6
		v27.9c1.7,0.3,2.9,1.8,2.9,3.6s-1.3,3.3-2.9,3.6v0.1h-0.8h-7.9v42.7h6.8c0.4-0.1,0.7-0.2,1.1-0.2c2,0,3.7,1.7,3.7,3.7
		c0,1.8-1.3,3.3-2.9,3.6v13.8c1.7,0.3,2.9,1.8,2.9,3.6c0,1.8-1.3,3.3-2.9,3.6v0.1h-0.8h-7.9v42.7h6.7c0.4-0.1,0.8-0.2,1.2-0.2
		c2,0,3.7,1.6,3.7,3.7c0,1.8-1.3,3.3-2.9,3.6v27.9c1.7,0.3,2.9,1.8,2.9,3.6s-1.3,3.3-2.9,3.6v0.1h-0.8h-7.9v42.7h6.8
		c0.4-0.1,0.7-0.2,1.1-0.2c2,0,3.7,1.7,3.7,3.7c0,1.8-1.3,3.3-2.9,3.6v21v8.5h42.5v-7.8c0-0.2-0.1-0.5-0.1-0.8c0-2,1.6-3.7,3.7-3.7
		s3.7,1.6,3.7,3.7h42.1c0-2,1.7-3.7,3.7-3.7s3.7,1.6,3.7,3.7c0,0.2,0,0.3,0,0.5v8h42.5v-22.7v-6.9c-0.2,0-0.5,0.1-0.7,0.1
		c-2,0-3.7-1.7-3.7-3.7s1.7-3.7,3.7-3.7c0.4,0,0.8,0.1,1.1,0.2h7.5v-42.7h-7.9v-0.1c-0.2,0-0.5,0.1-0.7,0.1c-2,0-3.7-1.7-3.7-3.7
		s1.7-3.7,3.7-3.7c0.3,0,0.5,0,0.7,0.1v-27.9c-0.2,0-0.5,0.1-0.7,0.1c-2,0-3.7-1.7-3.7-3.7s1.7-3.7,3.7-3.7c0.4,0,0.8,0.1,1.2,0.2
		h7.5v-42.7h-7.9v-0.1c-0.2,0-0.5,0.1-0.7,0.1c-2,0-3.7-1.7-3.7-3.7s1.7-3.7,3.7-3.7c0.3,0,0.5,0,0.7,0.1v-13.8
		c-0.2,0-0.5,0.1-0.7,0.1c-2,0-3.7-1.6-3.7-3.7s1.7-3.7,3.7-3.7c0.4,0,0.8,0.1,1.1,0.2h7.5v-42.7h-7.9v-0.1c-0.2,0-0.5,0.1-0.7,0.1
		c-2,0-3.7-1.6-3.7-3.7s1.7-3.7,3.7-3.7c0.3,0,0.5,0,0.7,0.1v-27.9c-0.2,0-0.5,0.1-0.7,0.1c-2,0-3.7-1.7-3.7-3.7s1.7-3.7,3.7-3.7
		c0.3,0,0.5,0,0.7,0.1v-0.1h8.5v-42.5h-8.5v-0.1c-0.2,0-0.5,0.1-0.7,0.1c-2,0-3.7-1.7-3.7-3.7s1.7-3.7,3.7-3.7c0.3,0,0.5,0,0.7,0.1
		v-6.9v-14.2v-8.5h-42.5v8c0,0.2,0,0.3,0,0.5c0,2-1.6,3.7-3.7,3.7s-3.7-1.7-3.7-3.7h-42.2c0,2-1.6,3.7-3.7,3.7s-3.7-1.7-3.7-3.7
		c0-0.3,0.1-0.7,0.2-1v-7.5L990.5-1721L990.5-1721z"/>
	<path id="rect3385" inkscape:connector-curvature="0" fill="none" stroke="#000000" stroke-width="0.851" d="M460.5-1330.3v8.5v0.7
		h-0.1c-0.3,1.7-1.8,3-3.6,3c-1.8,0-3.3-1.3-3.6-3h-21v34.5c2,0,3.7,1.6,3.7,3.7s-1.6,3.7-3.7,3.7h-8.5v56.7h8.5
		c2,0,3.7,1.7,3.7,3.7s-1.6,3.7-3.7,3.7v35.1h21c0-2,1.7-3.7,3.7-3.7c2,0,3.7,1.6,3.7,3.7v8.5H503v-8.5c0-2,1.7-3.7,3.7-3.7
		s3.7,1.6,3.7,3.7h57.3v-70.8H744v70.8h35.2c0-2,1.6-3.7,3.7-3.7s3.7,1.6,3.7,3.7v8.5H829v-8.5c0-2,1.6-3.7,3.7-3.7s3.7,1.6,3.7,3.7
		h27.8c0-2,1.7-3.7,3.7-3.7s3.7,1.6,3.7,3.7v8.5H914v-8.5c0-2,1.7-3.7,3.7-3.7s3.7,1.6,3.7,3.7h20.3v-35.2c-1.7-0.3-3-1.8-3-3.6
		s1.3-3.3,3-3.6v-0.1h0.7h8.5v-56.7h-8.5h-0.7v-0.1c-1.7-0.3-3-1.8-3-3.6s1.3-3.3,3-3.6v-34.6h-20.4c-0.3,1.7-1.8,3-3.6,3
		c-1.8,0-3.3-1.3-3.6-3H914v-0.7v-8.5h-42.5v8.5v0.7h-0.1c-0.3,1.7-1.8,3-3.6,3c-1.8,0-3.3-1.3-3.6-3h-27.9c-0.3,1.7-1.8,3-3.6,3
		s-3.3-1.3-3.6-3H829v-0.7v-8.5h-42.5v8.5v0.7h-0.1c-0.3,1.7-1.8,3-3.6,3c-1.8,0-3.3-1.3-3.6-3h-27.9c-0.3,1.7-1.8,3-3.6,3
		c-1.8,0-3.3-1.3-3.6-3H744v-0.7v-8.5h-42.5v8.5v0.7h-0.1c-0.3,1.7-1.8,3-3.6,3c-1.8,0-3.3-1.3-3.6-3h-13.7c-0.3,1.7-1.8,3-3.6,3
		c-1.8,0-3.3-1.3-3.6-3h-0.1v-0.7v-8.5h-42.5v8.5v0.7h-0.1c-0.3,1.7-1.8,3-3.6,3s-3.3-1.3-3.6-3h-27.9c-0.3,1.7-1.8,3-3.6,3
		c-1.8,0-3.3-1.3-3.6-3h-0.1v-0.7v-8.5h-42.5v8.5v0.7h-0.1c-0.3,1.7-1.8,3-3.6,3s-3.3-1.3-3.6-3h-27.9c-0.3,1.7-1.8,3-3.6,3
		c-1.8,0-3.3-1.3-3.6-3H503v-0.7v-8.5H460.5L460.5-1330.3z M786.5-1293.5h85v28.3h-85V-1293.5z"/>
</g>
</svg>
