  0
SECTION
  2
HEADER
  9
$ACADVER
  1
AC1014
  9
$HANDSEED
  5
FFFF
  9
$MEASUREMENT
 70
     1
  0
ENDSEC
  0
SECTION
  2
TABLES
  0
TABLE
  2
VPORT
  5
8
330
0
100
AcDbSymbolTable
 70
     4
  0
VPORT
  5
2E
330
8
100
AcDbSymbolTableRecord
100
AcDbViewportTableRecord
  2
*ACTIVE
 70
     0
 10
0.0
 20
0.0
 11
1.0
 21
1.0
 12
210.0
 22
148.5
 13
0.0
 23
0.0
 14
10.0
 24
10.0
 15
10.0
 25
10.0
 16
0.0
 26
0.0
 36
1.0
 17
0.0
 27
0.0
 37
0.0
 40
341.0
 41
1.24
 42
50.0
 43
0.0
 44
0.0
 50
0.0
 51
0.0
 71
     0
 72
   100
 73
     1
 74
     3
 75
     0
 76
     0
 77
     0
 78
     0
  0
ENDTAB
  0
TABLE
  2
LTYPE
  5
5
330
0
100
AcDbSymbolTable
 70
     1
  0
LTYPE
  5
14
330
5
100
AcDbSymbolTableRecord
100
AcDbLinetypeTableRecord
  2
BYBLOCK
 70
     0
  3

 72
    65
 73
     0
 40
0.0
  0
LTYPE
  5
15
330
5
100
AcDbSymbolTableRecord
100
AcDbLinetypeTableRecord
  2
BYLAYER
 70
     0
  3

 72
    65
 73
     0
 40
0.0
  0
LTYPE
  5
16
330
5
100
AcDbSymbolTableRecord
100
AcDbLinetypeTableRecord
  2
CONTINUOUS
 70
     0
  3
Solid line
 72
    65
 73
     0
 40
0.0
  0
ENDTAB
  0
TABLE
  2
LAYER
  5
2
100
AcDbSymbolTable
 70
2
  0
LAYER
  5
50
100
AcDbSymbolTableRecord
100
AcDbLayerTableRecord
  2
0
 70
0
  6
CONTINUOUS
  0
LAYER
  5
51
100
AcDbSymbolTableRecord
100
AcDbLayerTableRecord
  2
Layer_1
 70
0
  6
CONTINUOUS
  0
ENDTAB
  0
TABLE
  2
STYLE
  5
3
330
0
100
AcDbSymbolTable
 70
     1
  0
STYLE
  5
11
330
3
100
AcDbSymbolTableRecord
100
AcDbTextStyleTableRecord
  2
STANDARD
 70
     0
 40
0.0
 41
1.0
 50
0.0
 71
     0
 42
2.5
  3
txt
  4

  0
ENDTAB
  0
TABLE
  2
VIEW
  5
6
330
0
100
AcDbSymbolTable
 70
     0
  0
ENDTAB
  0
TABLE
  2
UCS
  5
7
330
0
100
AcDbSymbolTable
 70
     0
  0
ENDTAB
  0
TABLE
  2
APPID
  5
9
330
0
100
AcDbSymbolTable
 70
     2
  0
APPID
  5
12
330
9
100
AcDbSymbolTableRecord
100
AcDbRegAppTableRecord
  2
ACAD
 70
     0
  0
ENDTAB
  0
TABLE
  2
DIMSTYLE
  5
A
330
0
100
AcDbSymbolTable
 70
     1
  0
DIMSTYLE
105
27
330
A
100
AcDbSymbolTableRecord
100
AcDbDimStyleTableRecord
  2
ISO-25
 70
     0
  3

  4

  5

  6

  7

 40
1.0
 41
2.5
 42
0.625
 43
3.75
 44
1.25
 45
0.0
 46
0.0
 47
0.0
 48
0.0
140
2.5
141
2.5
142
0.0
143
0.03937007874016
144
1.0
145
0.0
146
1.0
147
0.625
 71
     0
 72
     0
 73
     0
 74
     0
 75
     0
 76
     0
 77
     1
 78
     8
170
     0
171
     3
172
     1
173
     0
174
     0
175
     0
176
     0
177
     0
178
     0
270
     2
271
     2
272
     2
273
     2
274
     3
340
11
275
     0
280
     0
281
     0
282
     0
283
     0
284
     8
285
     0
286
     0
287
     3
288
     0
  0
ENDTAB
  0
TABLE
  2
BLOCK_RECORD
  5
1
330
0
100
AcDbSymbolTable
 70
     1
  0
BLOCK_RECORD
  5
1F
330
1
100
AcDbSymbolTableRecord
100
AcDbBlockTableRecord
  2
*MODEL_SPACE
  0
BLOCK_RECORD
  5
1B
330
1
100
AcDbSymbolTableRecord
100
AcDbBlockTableRecord
  2
*PAPER_SPACE
  0
ENDTAB
  0
ENDSEC
  0
SECTION
  2
BLOCKS
  0
BLOCK
  5
20
330
1F
100
AcDbEntity
  8
0
100
AcDbBlockBegin
  2
*MODEL_SPACE
 70
     0
 10
0.0
 20
0.0
 30
0.0
  3
*MODEL_SPACE
  1

  0
ENDBLK
  5
21
330
1F
100
AcDbEntity
  8
0
100
AcDbBlockEnd
  0
BLOCK
  5
1C
330
1B
100
AcDbEntity
 67
     1
  8
0
100
AcDbBlockBegin
  2
*PAPER_SPACE
  1

  0
ENDBLK
  5
1D
330
1B
100
AcDbEntity
 67
     1
  8
0
100
AcDbBlockEnd
  0
ENDSEC
  0
SECTION
  2
ENTITIES
  0
SPLINE
  5
100
100
AcDbEntity
  8
Layer_1
 62
7
100
AcDbSpline
 70
8
 71
3
 72
8
 73
4
 74
0
 40
0
 40
0
 40
0
 40
0
 40
1
 40
1
 40
1
 40
1
 10
21.298958
 20
594.064513
 30
0.0
 10
21.936820
 20
594.064513
 30
0.0
 10
22.466331
 20
593.602995
 30
0.0
 10
22.577778
 20
592.997346
 30
0.0
  0
LWPOLYLINE
  5
101
100
AcDbEntity
  8
Layer_1
 62
7
100
AcDbPolyline
 90
12
 70
1
 10
0.000000
 20
599.999985
 30
0.0
 10
0.000000
 20
589.998735
 30
0.0
 10
0.000000
 20
589.760624
 30
0.0
 10
0.000000
 20
474.763880
 30
0.0
 10
0.000000
 20
470.001380
 30
0.0
 10
0.000000
 20
460.000130
 30
0.0
 10
199.998542
 20
460.000130
 30
0.0
 10
199.998542
 20
474.763880
 30
0.0
 10
199.998542
 20
589.998735
 30
0.0
 10
199.998542
 20
599.999985
 30
0.0
 10
0.000000
 20
599.999985
 30
0.0
 10
0.000000
 20
599.999985
 30
0.0
  0
SPLINE
  5
102
100
AcDbEntity
  8
Layer_1
 62
7
100
AcDbSpline
 70
8
 71
3
 72
8
 73
4
 74
0
 40
0
 40
0
 40
0
 40
0
 40
1
 40
1
 40
1
 40
1
 10
32.420278
 20
592.997346
 30
0.0
 10
32.531725
 20
593.602995
 30
0.0
 10
33.061235
 20
594.064513
 30
0.0
 10
33.699097
 20
594.064513
 30
0.0
  0
SPLINE
  5
103
100
AcDbEntity
  8
Layer_1
 62
7
100
AcDbSpline
 70
8
 71
3
 72
8
 73
4
 74
0
 40
0
 40
0
 40
0
 40
0
 40
1
 40
1
 40
1
 40
1
 10
33.699097
 20
594.064513
 30
0.0
 10
34.336959
 20
594.064513
 30
0.0
 10
34.857650
 20
593.602995
 30
0.0
 10
34.969097
 20
592.997346
 30
0.0
  0
LWPOLYLINE
  5
104
100
AcDbEntity
  8
Layer_1
 62
7
100
AcDbPolyline
 90
2
 70
1
 10
22.577778
 20
592.997346
 30
0.0
 10
32.420278
 20
592.997346
 30
0.0
  0
SPLINE
  5
105
100
AcDbEntity
  8
Layer_1
 62
7
100
AcDbSpline
 70
8
 71
3
 72
8
 73
4
 74
0
 40
0
 40
0
 40
0
 40
0
 40
1
 40
1
 40
1
 40
1
 10
34.969097
 20
589.998735
 30
0.0
 10
34.983237
 20
589.921886
 30
0.0
 10
34.995541
 20
589.841566
 30
0.0
 10
34.995541
 20
589.760624
 30
0.0
  0
SPLINE
  5
106
100
AcDbEntity
  8
Layer_1
 62
7
100
AcDbSpline
 70
8
 71
3
 72
8
 73
4
 74
0
 40
0
 40
0
 40
0
 40
0
 40
1
 40
1
 40
1
 40
1
 10
34.995541
 20
589.760624
 30
0.0
 10
34.995541
 20
589.041804
 30
0.0
 10
34.417900
 20
588.455347
 30
0.0
 10
33.699083
 20
588.455347
 30
0.0
  0
SPLINE
  5
107
100
AcDbEntity
  8
Layer_1
 62
7
100
AcDbSpline
 70
8
 71
3
 72
8
 73
4
 74
0
 40
0
 40
0
 40
0
 40
0
 40
1
 40
1
 40
1
 40
1
 10
33.699083
 20
588.455347
 30
0.0
 10
32.980266
 20
588.455347
 30
0.0
 10
32.393805
 20
589.041804
 30
0.0
 10
32.393805
 20
589.760624
 30
0.0
  0
SPLINE
  5
108
100
AcDbEntity
  8
Layer_1
 62
7
100
AcDbSpline
 70
8
 71
3
 72
8
 73
4
 74
0
 40
0
 40
0
 40
0
 40
0
 40
1
 40
1
 40
1
 40
1
 10
32.393805
 20
589.760624
 30
0.0
 10
32.393805
 20
589.841566
 30
0.0
 10
32.406110
 20
589.921886
 30
0.0
 10
32.420250
 20
589.998735
 30
0.0
  0
LWPOLYLINE
  5
109
100
AcDbEntity
  8
Layer_1
 62
7
100
AcDbPolyline
 90
4
 70
1
 10
34.969097
 20
592.997346
 30
0.0
 10
34.995541
 20
592.997346
 30
0.0
 10
34.995541
 20
589.998735
 30
0.0
 10
34.969097
 20
589.998735
 30
0.0
  0
SPLINE
  5
10a
100
AcDbEntity
  8
Layer_1
 62
7
100
AcDbSpline
 70
8
 71
3
 72
8
 73
4
 74
0
 40
0
 40
0
 40
0
 40
0
 40
1
 40
1
 40
1
 40
1
 10
22.577750
 20
589.998735
 30
0.0
 10
22.591895
 20
589.921886
 30
0.0
 10
22.604208
 20
589.841566
 30
0.0
 10
22.604208
 20
589.760624
 30
0.0
  0
SPLINE
  5
10b
100
AcDbEntity
  8
Layer_1
 62
7
100
AcDbSpline
 70
8
 71
3
 72
8
 73
4
 74
0
 40
0
 40
0
 40
0
 40
0
 40
1
 40
1
 40
1
 40
1
 10
22.604208
 20
589.760624
 30
0.0
 10
22.604208
 20
589.041804
 30
0.0
 10
22.017747
 20
588.455347
 30
0.0
 10
21.298930
 20
588.455347
 30
0.0
  0
SPLINE
  5
10c
100
AcDbEntity
  8
Layer_1
 62
7
100
AcDbSpline
 70
8
 71
3
 72
8
 73
4
 74
0
 40
0
 40
0
 40
0
 40
0
 40
1
 40
1
 40
1
 40
1
 10
21.298930
 20
588.455347
 30
0.0
 10
20.580113
 20
588.455347
 30
0.0
 10
19.993652
 20
589.041804
 30
0.0
 10
19.993652
 20
589.760624
 30
0.0
  0
SPLINE
  5
10d
100
AcDbEntity
  8
Layer_1
 62
7
100
AcDbSpline
 70
8
 71
3
 72
8
 73
4
 74
0
 40
0
 40
0
 40
0
 40
0
 40
1
 40
1
 40
1
 40
1
 10
19.993652
 20
589.760624
 30
0.0
 10
19.993652
 20
589.841566
 30
0.0
 10
20.005966
 20
589.921886
 30
0.0
 10
20.020111
 20
589.998735
 30
0.0
  0
LWPOLYLINE
  5
10e
100
AcDbEntity
  8
Layer_1
 62
7
100
AcDbPolyline
 90
2
 70
1
 10
32.420250
 20
589.998735
 30
0.0
 10
22.577750
 20
589.998735
 30
0.0
  0
SPLINE
  5
10f
100
AcDbEntity
  8
Layer_1
 62
7
100
AcDbSpline
 70
8
 71
3
 72
8
 73
4
 74
0
 40
0
 40
0
 40
0
 40
0
 40
1
 40
1
 40
1
 40
1
 10
20.020111
 20
592.997346
 30
0.0
 10
20.131557
 20
593.602995
 30
0.0
 10
20.661068
 20
594.064513
 30
0.0
 10
21.298930
 20
594.064513
 30
0.0
  0
LWPOLYLINE
  5
110
100
AcDbEntity
  8
Layer_1
 62
7
100
AcDbPolyline
 90
5
 70
1
 10
20.020111
 20
589.998735
 30
0.0
 10
19.993652
 20
589.998735
 30
0.0
 10
19.993652
 20
592.759236
 30
0.0
 10
19.993652
 20
592.997346
 30
0.0
 10
20.020111
 20
592.997346
 30
0.0
  0
SPLINE
  5
111
100
AcDbEntity
  8
Layer_1
 62
7
100
AcDbSpline
 70
8
 71
3
 72
8
 73
4
 74
0
 40
0
 40
0
 40
0
 40
0
 40
1
 40
1
 40
1
 40
1
 10
51.302708
 20
594.064513
 30
0.0
 10
51.940570
 20
594.064513
 30
0.0
 10
52.461262
 20
593.602995
 30
0.0
 10
52.572708
 20
592.997346
 30
0.0
  0
LWPOLYLINE
  5
112
100
AcDbEntity
  8
Layer_1
 62
7
100
AcDbPolyline
 90
2
 70
1
 10
21.298930
 20
594.064513
 30
0.0
 10
21.298958
 20
594.064513
 30
0.0
  0
SPLINE
  5
113
100
AcDbEntity
  8
Layer_1
 62
7
100
AcDbSpline
 70
8
 71
3
 72
8
 73
4
 74
0
 40
0
 40
0
 40
0
 40
0
 40
1
 40
1
 40
1
 40
1
 10
62.424028
 20
592.997346
 30
0.0
 10
62.535475
 20
593.602995
 30
0.0
 10
63.056166
 20
594.064513
 30
0.0
 10
63.694028
 20
594.064513
 30
0.0
  0
SPLINE
  5
114
100
AcDbEntity
  8
Layer_1
 62
7
100
AcDbSpline
 70
8
 71
3
 72
8
 73
4
 74
0
 40
0
 40
0
 40
0
 40
0
 40
1
 40
1
 40
1
 40
1
 10
63.694028
 20
594.064513
 30
0.0
 10
64.331890
 20
594.064513
 30
0.0
 10
64.861400
 20
593.602995
 30
0.0
 10
64.972847
 20
592.997346
 30
0.0
  0
LWPOLYLINE
  5
115
100
AcDbEntity
  8
Layer_1
 62
7
100
AcDbPolyline
 90
2
 70
1
 10
52.572708
 20
592.997346
 30
0.0
 10
62.424028
 20
592.997346
 30
0.0
  0
SPLINE
  5
116
100
AcDbEntity
  8
Layer_1
 62
7
100
AcDbSpline
 70
8
 71
3
 72
8
 73
4
 74
0
 40
0
 40
0
 40
0
 40
0
 40
1
 40
1
 40
1
 40
1
 10
64.972847
 20
589.998735
 30
0.0
 10
64.986987
 20
589.921886
 30
0.0
 10
64.999291
 20
589.841566
 30
0.0
 10
64.999291
 20
589.760624
 30
0.0
  0
SPLINE
  5
117
100
AcDbEntity
  8
Layer_1
 62
7
100
AcDbSpline
 70
8
 71
3
 72
8
 73
4
 74
0
 40
0
 40
0
 40
0
 40
0
 40
1
 40
1
 40
1
 40
1
 10
64.999291
 20
589.760624
 30
0.0
 10
64.999291
 20
589.041804
 30
0.0
 10
64.412831
 20
588.455347
 30
0.0
 10
63.694014
 20
588.455347
 30
0.0
  0
SPLINE
  5
118
100
AcDbEntity
  8
Layer_1
 62
7
100
AcDbSpline
 70
8
 71
3
 72
8
 73
4
 74
0
 40
0
 40
0
 40
0
 40
0
 40
1
 40
1
 40
1
 40
1
 10
63.694014
 20
588.455347
 30
0.0
 10
62.975196
 20
588.455347
 30
0.0
 10
62.397555
 20
589.041804
 30
0.0
 10
62.397555
 20
589.760624
 30
0.0
  0
SPLINE
  5
119
100
AcDbEntity
  8
Layer_1
 62
7
100
AcDbSpline
 70
8
 71
3
 72
8
 73
4
 74
0
 40
0
 40
0
 40
0
 40
0
 40
1
 40
1
 40
1
 40
1
 10
62.397555
 20
589.760624
 30
0.0
 10
62.397555
 20
589.841566
 30
0.0
 10
62.409860
 20
589.921886
 30
0.0
 10
62.424000
 20
589.998735
 30
0.0
  0
LWPOLYLINE
  5
11a
100
AcDbEntity
  8
Layer_1
 62
7
100
AcDbPolyline
 90
4
 70
1
 10
64.972847
 20
592.997346
 30
0.0
 10
64.999291
 20
592.997346
 30
0.0
 10
64.999291
 20
589.998735
 30
0.0
 10
64.972847
 20
589.998735
 30
0.0
  0
SPLINE
  5
11b
100
AcDbEntity
  8
Layer_1
 62
7
100
AcDbSpline
 70
8
 71
3
 72
8
 73
4
 74
0
 40
0
 40
0
 40
0
 40
0
 40
1
 40
1
 40
1
 40
1
 10
52.572680
 20
589.998735
 30
0.0
 10
52.586819
 20
589.921886
 30
0.0
 10
52.599124
 20
589.841566
 30
0.0
 10
52.599124
 20
589.760624
 30
0.0
  0
SPLINE
  5
11c
100
AcDbEntity
  8
Layer_1
 62
7
100
AcDbSpline
 70
8
 71
3
 72
8
 73
4
 74
0
 40
0
 40
0
 40
0
 40
0
 40
1
 40
1
 40
1
 40
1
 10
52.599124
 20
589.760624
 30
0.0
 10
52.599124
 20
589.041804
 30
0.0
 10
52.021483
 20
588.455347
 30
0.0
 10
51.302666
 20
588.455347
 30
0.0
  0
SPLINE
  5
11d
100
AcDbEntity
  8
Layer_1
 62
7
100
AcDbSpline
 70
8
 71
3
 72
8
 73
4
 74
0
 40
0
 40
0
 40
0
 40
0
 40
1
 40
1
 40
1
 40
1
 10
51.302666
 20
588.455347
 30
0.0
 10
50.583849
 20
588.455347
 30
0.0
 10
49.997388
 20
589.041804
 30
0.0
 10
49.997388
 20
589.760624
 30
0.0
  0
SPLINE
  5
11e
100
AcDbEntity
  8
Layer_1
 62
7
100
AcDbSpline
 70
8
 71
3
 72
8
 73
4
 74
0
 40
0
 40
0
 40
0
 40
0
 40
1
 40
1
 40
1
 40
1
 10
49.997388
 20
589.760624
 30
0.0
 10
49.997388
 20
589.841566
 30
0.0
 10
50.009693
 20
589.921886
 30
0.0
 10
50.023832
 20
589.998735
 30
0.0
  0
LWPOLYLINE
  5
11f
100
AcDbEntity
  8
Layer_1
 62
7
100
AcDbPolyline
 90
2
 70
1
 10
62.424000
 20
589.998735
 30
0.0
 10
52.572680
 20
589.998735
 30
0.0
  0
SPLINE
  5
120
100
AcDbEntity
  8
Layer_1
 62
7
100
AcDbSpline
 70
8
 71
3
 72
8
 73
4
 74
0
 40
0
 40
0
 40
0
 40
0
 40
1
 40
1
 40
1
 40
1
 10
50.023832
 20
592.997346
 30
0.0
 10
50.135279
 20
593.602995
 30
0.0
 10
50.664790
 20
594.064513
 30
0.0
 10
51.302652
 20
594.064513
 30
0.0
  0
LWPOLYLINE
  5
121
100
AcDbEntity
  8
Layer_1
 62
7
100
AcDbPolyline
 90
5
 70
1
 10
50.023832
 20
589.998735
 30
0.0
 10
49.997388
 20
589.998735
 30
0.0
 10
49.997388
 20
592.759236
 30
0.0
 10
49.997388
 20
592.997346
 30
0.0
 10
50.023832
 20
592.997346
 30
0.0
  0
SPLINE
  5
122
100
AcDbEntity
  8
Layer_1
 62
7
100
AcDbSpline
 70
8
 71
3
 72
8
 73
4
 74
0
 40
0
 40
0
 40
0
 40
0
 40
1
 40
1
 40
1
 40
1
 10
81.297639
 20
594.064513
 30
0.0
 10
81.935501
 20
594.064513
 30
0.0
 10
82.465012
 20
593.602995
 30
0.0
 10
82.576458
 20
592.997346
 30
0.0
  0
LWPOLYLINE
  5
123
100
AcDbEntity
  8
Layer_1
 62
7
100
AcDbPolyline
 90
2
 70
1
 10
51.302652
 20
594.064513
 30
0.0
 10
51.302708
 20
594.064513
 30
0.0
  0
SPLINE
  5
124
100
AcDbEntity
  8
Layer_1
 62
7
100
AcDbSpline
 70
8
 71
3
 72
8
 73
4
 74
0
 40
0
 40
0
 40
0
 40
0
 40
1
 40
1
 40
1
 40
1
 10
92.418958
 20
592.997346
 30
0.0
 10
92.530405
 20
593.602995
 30
0.0
 10
93.059916
 20
594.064513
 30
0.0
 10
93.697778
 20
594.064513
 30
0.0
  0
SPLINE
  5
125
100
AcDbEntity
  8
Layer_1
 62
7
100
AcDbSpline
 70
8
 71
3
 72
8
 73
4
 74
0
 40
0
 40
0
 40
0
 40
0
 40
1
 40
1
 40
1
 40
1
 10
93.697778
 20
594.064513
 30
0.0
 10
94.335640
 20
594.064513
 30
0.0
 10
94.856331
 20
593.602995
 30
0.0
 10
94.967778
 20
592.997346
 30
0.0
  0
LWPOLYLINE
  5
126
100
AcDbEntity
  8
Layer_1
 62
7
100
AcDbPolyline
 90
2
 70
1
 10
82.576458
 20
592.997346
 30
0.0
 10
92.418958
 20
592.997346
 30
0.0
  0
SPLINE
  5
127
100
AcDbEntity
  8
Layer_1
 62
7
100
AcDbSpline
 70
8
 71
3
 72
8
 73
4
 74
0
 40
0
 40
0
 40
0
 40
0
 40
1
 40
1
 40
1
 40
1
 10
94.967778
 20
589.998735
 30
0.0
 10
94.981917
 20
589.921886
 30
0.0
 10
94.994222
 20
589.841566
 30
0.0
 10
94.994222
 20
589.760624
 30
0.0
  0
SPLINE
  5
128
100
AcDbEntity
  8
Layer_1
 62
7
100
AcDbSpline
 70
8
 71
3
 72
8
 73
4
 74
0
 40
0
 40
0
 40
0
 40
0
 40
1
 40
1
 40
1
 40
1
 10
94.994222
 20
589.760624
 30
0.0
 10
94.994222
 20
589.041804
 30
0.0
 10
94.416581
 20
588.455347
 30
0.0
 10
93.697764
 20
588.455347
 30
0.0
  0
SPLINE
  5
129
100
AcDbEntity
  8
Layer_1
 62
7
100
AcDbSpline
 70
8
 71
3
 72
8
 73
4
 74
0
 40
0
 40
0
 40
0
 40
0
 40
1
 40
1
 40
1
 40
1
 10
93.697764
 20
588.455347
 30
0.0
 10
92.978946
 20
588.455347
 30
0.0
 10
92.392486
 20
589.041804
 30
0.0
 10
92.392486
 20
589.760624
 30
0.0
  0
SPLINE
  5
12a
100
AcDbEntity
  8
Layer_1
 62
7
100
AcDbSpline
 70
8
 71
3
 72
8
 73
4
 74
0
 40
0
 40
0
 40
0
 40
0
 40
1
 40
1
 40
1
 40
1
 10
92.392486
 20
589.760624
 30
0.0
 10
92.392486
 20
589.841566
 30
0.0
 10
92.404791
 20
589.921886
 30
0.0
 10
92.418930
 20
589.998735
 30
0.0
  0
LWPOLYLINE
  5
12b
100
AcDbEntity
  8
Layer_1
 62
7
100
AcDbPolyline
 90
4
 70
1
 10
94.967778
 20
592.997346
 30
0.0
 10
94.994222
 20
592.997346
 30
0.0
 10
94.994222
 20
589.998735
 30
0.0
 10
94.967778
 20
589.998735
 30
0.0
  0
SPLINE
  5
12c
100
AcDbEntity
  8
Layer_1
 62
7
100
AcDbSpline
 70
8
 71
3
 72
8
 73
4
 74
0
 40
0
 40
0
 40
0
 40
0
 40
1
 40
1
 40
1
 40
1
 10
82.576430
 20
589.998735
 30
0.0
 10
82.590569
 20
589.921886
 30
0.0
 10
82.602874
 20
589.841566
 30
0.0
 10
82.602874
 20
589.760624
 30
0.0
  0
SPLINE
  5
12d
100
AcDbEntity
  8
Layer_1
 62
7
100
AcDbSpline
 70
8
 71
3
 72
8
 73
4
 74
0
 40
0
 40
0
 40
0
 40
0
 40
1
 40
1
 40
1
 40
1
 10
82.602874
 20
589.760624
 30
0.0
 10
82.602874
 20
589.041804
 30
0.0
 10
82.016414
 20
588.455347
 30
0.0
 10
81.297597
 20
588.455347
 30
0.0
  0
SPLINE
  5
12e
100
AcDbEntity
  8
Layer_1
 62
7
100
AcDbSpline
 70
8
 71
3
 72
8
 73
4
 74
0
 40
0
 40
0
 40
0
 40
0
 40
1
 40
1
 40
1
 40
1
 10
81.297597
 20
588.455347
 30
0.0
 10
80.578779
 20
588.455347
 30
0.0
 10
80.001138
 20
589.041804
 30
0.0
 10
80.001138
 20
589.760624
 30
0.0
  0
SPLINE
  5
12f
100
AcDbEntity
  8
Layer_1
 62
7
100
AcDbSpline
 70
8
 71
3
 72
8
 73
4
 74
0
 40
0
 40
0
 40
0
 40
0
 40
1
 40
1
 40
1
 40
1
 10
80.001138
 20
589.760624
 30
0.0
 10
80.001138
 20
589.841566
 30
0.0
 10
80.013443
 20
589.921886
 30
0.0
 10
80.027582
 20
589.998735
 30
0.0
  0
LWPOLYLINE
  5
130
100
AcDbEntity
  8
Layer_1
 62
7
100
AcDbPolyline
 90
2
 70
1
 10
92.418930
 20
589.998735
 30
0.0
 10
82.576430
 20
589.998735
 30
0.0
  0
SPLINE
  5
131
100
AcDbEntity
  8
Layer_1
 62
7
100
AcDbSpline
 70
8
 71
3
 72
8
 73
4
 74
0
 40
0
 40
0
 40
0
 40
0
 40
1
 40
1
 40
1
 40
1
 10
80.027582
 20
592.997346
 30
0.0
 10
80.139029
 20
593.602995
 30
0.0
 10
80.659721
 20
594.064513
 30
0.0
 10
81.297582
 20
594.064513
 30
0.0
  0
LWPOLYLINE
  5
132
100
AcDbEntity
  8
Layer_1
 62
7
100
AcDbPolyline
 90
5
 70
1
 10
80.027582
 20
589.998735
 30
0.0
 10
80.001138
 20
589.998735
 30
0.0
 10
80.001138
 20
592.759236
 30
0.0
 10
80.001138
 20
592.997346
 30
0.0
 10
80.027582
 20
592.997346
 30
0.0
  0
SPLINE
  5
133
100
AcDbEntity
  8
Layer_1
 62
7
100
AcDbSpline
 70
8
 71
3
 72
8
 73
4
 74
0
 40
0
 40
0
 40
0
 40
0
 40
1
 40
1
 40
1
 40
1
 10
106.300764
 20
594.064513
 30
0.0
 10
106.938626
 20
594.064513
 30
0.0
 10
107.459317
 20
593.602995
 30
0.0
 10
107.570764
 20
592.997346
 30
0.0
  0
LWPOLYLINE
  5
134
100
AcDbEntity
  8
Layer_1
 62
7
100
AcDbPolyline
 90
2
 70
1
 10
81.297582
 20
594.064513
 30
0.0
 10
81.297639
 20
594.064513
 30
0.0
  0
SPLINE
  5
135
100
AcDbEntity
  8
Layer_1
 62
7
100
AcDbSpline
 70
8
 71
3
 72
8
 73
4
 74
0
 40
0
 40
0
 40
0
 40
0
 40
1
 40
1
 40
1
 40
1
 10
117.422083
 20
592.997346
 30
0.0
 10
117.533530
 20
593.602995
 30
0.0
 10
118.054222
 20
594.064513
 30
0.0
 10
118.692083
 20
594.064513
 30
0.0
  0
SPLINE
  5
136
100
AcDbEntity
  8
Layer_1
 62
7
100
AcDbSpline
 70
8
 71
3
 72
8
 73
4
 74
0
 40
0
 40
0
 40
0
 40
0
 40
1
 40
1
 40
1
 40
1
 10
118.692083
 20
594.064513
 30
0.0
 10
119.329945
 20
594.064513
 30
0.0
 10
119.859456
 20
593.602995
 30
0.0
 10
119.970903
 20
592.997346
 30
0.0
  0
LWPOLYLINE
  5
137
100
AcDbEntity
  8
Layer_1
 62
7
100
AcDbPolyline
 90
2
 70
1
 10
107.570764
 20
592.997346
 30
0.0
 10
117.422083
 20
592.997346
 30
0.0
  0
SPLINE
  5
138
100
AcDbEntity
  8
Layer_1
 62
7
100
AcDbSpline
 70
8
 71
3
 72
8
 73
4
 74
0
 40
0
 40
0
 40
0
 40
0
 40
1
 40
1
 40
1
 40
1
 10
119.970903
 20
589.998735
 30
0.0
 10
119.985042
 20
589.921886
 30
0.0
 10
119.997347
 20
589.841566
 30
0.0
 10
119.997347
 20
589.760624
 30
0.0
  0
SPLINE
  5
139
100
AcDbEntity
  8
Layer_1
 62
7
100
AcDbSpline
 70
8
 71
3
 72
8
 73
4
 74
0
 40
0
 40
0
 40
0
 40
0
 40
1
 40
1
 40
1
 40
1
 10
119.997347
 20
589.760624
 30
0.0
 10
119.997347
 20
589.041804
 30
0.0
 10
119.410886
 20
588.455347
 30
0.0
 10
118.692069
 20
588.455347
 30
0.0
  0
SPLINE
  5
13a
100
AcDbEntity
  8
Layer_1
 62
7
100
AcDbSpline
 70
8
 71
3
 72
8
 73
4
 74
0
 40
0
 40
0
 40
0
 40
0
 40
1
 40
1
 40
1
 40
1
 10
118.692069
 20
588.455347
 30
0.0
 10
117.973252
 20
588.455347
 30
0.0
 10
117.395611
 20
589.041804
 30
0.0
 10
117.395611
 20
589.760624
 30
0.0
  0
SPLINE
  5
13b
100
AcDbEntity
  8
Layer_1
 62
7
100
AcDbSpline
 70
8
 71
3
 72
8
 73
4
 74
0
 40
0
 40
0
 40
0
 40
0
 40
1
 40
1
 40
1
 40
1
 10
117.395611
 20
589.760624
 30
0.0
 10
117.395611
 20
589.841566
 30
0.0
 10
117.407916
 20
589.921886
 30
0.0
 10
117.422055
 20
589.998735
 30
0.0
  0
LWPOLYLINE
  5
13c
100
AcDbEntity
  8
Layer_1
 62
7
100
AcDbPolyline
 90
4
 70
1
 10
119.970903
 20
592.997346
 30
0.0
 10
119.997347
 20
592.997346
 30
0.0
 10
119.997347
 20
589.998735
 30
0.0
 10
119.970903
 20
589.998735
 30
0.0
  0
SPLINE
  5
13d
100
AcDbEntity
  8
Layer_1
 62
7
100
AcDbSpline
 70
8
 71
3
 72
8
 73
4
 74
0
 40
0
 40
0
 40
0
 40
0
 40
1
 40
1
 40
1
 40
1
 10
107.570736
 20
589.998735
 30
0.0
 10
107.584875
 20
589.921886
 30
0.0
 10
107.597180
 20
589.841566
 30
0.0
 10
107.597180
 20
589.760624
 30
0.0
  0
SPLINE
  5
13e
100
AcDbEntity
  8
Layer_1
 62
7
100
AcDbSpline
 70
8
 71
3
 72
8
 73
4
 74
0
 40
0
 40
0
 40
0
 40
0
 40
1
 40
1
 40
1
 40
1
 10
107.597180
 20
589.760624
 30
0.0
 10
107.597180
 20
589.041804
 30
0.0
 10
107.019539
 20
588.455347
 30
0.0
 10
106.300722
 20
588.455347
 30
0.0
  0
SPLINE
  5
13f
100
AcDbEntity
  8
Layer_1
 62
7
100
AcDbSpline
 70
8
 71
3
 72
8
 73
4
 74
0
 40
0
 40
0
 40
0
 40
0
 40
1
 40
1
 40
1
 40
1
 10
106.300722
 20
588.455347
 30
0.0
 10
105.581904
 20
588.455347
 30
0.0
 10
104.995444
 20
589.041804
 30
0.0
 10
104.995444
 20
589.760624
 30
0.0
  0
SPLINE
  5
140
100
AcDbEntity
  8
Layer_1
 62
7
100
AcDbSpline
 70
8
 71
3
 72
8
 73
4
 74
0
 40
0
 40
0
 40
0
 40
0
 40
1
 40
1
 40
1
 40
1
 10
104.995444
 20
589.760624
 30
0.0
 10
104.995444
 20
589.841566
 30
0.0
 10
105.007749
 20
589.921886
 30
0.0
 10
105.021888
 20
589.998735
 30
0.0
  0
LWPOLYLINE
  5
141
100
AcDbEntity
  8
Layer_1
 62
7
100
AcDbPolyline
 90
2
 70
1
 10
117.422055
 20
589.998735
 30
0.0
 10
107.570736
 20
589.998735
 30
0.0
  0
SPLINE
  5
142
100
AcDbEntity
  8
Layer_1
 62
7
100
AcDbSpline
 70
8
 71
3
 72
8
 73
4
 74
0
 40
0
 40
0
 40
0
 40
0
 40
1
 40
1
 40
1
 40
1
 10
105.021888
 20
592.997346
 30
0.0
 10
105.133335
 20
593.602995
 30
0.0
 10
105.662846
 20
594.064513
 30
0.0
 10
106.300707
 20
594.064513
 30
0.0
  0
LWPOLYLINE
  5
143
100
AcDbEntity
  8
Layer_1
 62
7
100
AcDbPolyline
 90
5
 70
1
 10
105.021888
 20
589.998735
 30
0.0
 10
104.995444
 20
589.998735
 30
0.0
 10
104.995444
 20
592.759236
 30
0.0
 10
104.995444
 20
592.997346
 30
0.0
 10
105.021888
 20
592.997346
 30
0.0
  0
SPLINE
  5
144
100
AcDbEntity
  8
Layer_1
 62
7
100
AcDbSpline
 70
8
 71
3
 72
8
 73
4
 74
0
 40
0
 40
0
 40
0
 40
0
 40
1
 40
1
 40
1
 40
1
 10
136.295694
 20
594.064513
 30
0.0
 10
136.933556
 20
594.064513
 30
0.0
 10
137.463067
 20
593.602995
 30
0.0
 10
137.574514
 20
592.997346
 30
0.0
  0
LWPOLYLINE
  5
145
100
AcDbEntity
  8
Layer_1
 62
7
100
AcDbPolyline
 90
2
 70
1
 10
106.300707
 20
594.064513
 30
0.0
 10
106.300764
 20
594.064513
 30
0.0
  0
SPLINE
  5
146
100
AcDbEntity
  8
Layer_1
 62
7
100
AcDbSpline
 70
8
 71
3
 72
8
 73
4
 74
0
 40
0
 40
0
 40
0
 40
0
 40
1
 40
1
 40
1
 40
1
 10
147.417014
 20
592.997346
 30
0.0
 10
147.528461
 20
593.602995
 30
0.0
 10
148.057972
 20
594.064513
 30
0.0
 10
148.695833
 20
594.064513
 30
0.0
  0
SPLINE
  5
147
100
AcDbEntity
  8
Layer_1
 62
7
100
AcDbSpline
 70
8
 71
3
 72
8
 73
4
 74
0
 40
0
 40
0
 40
0
 40
0
 40
1
 40
1
 40
1
 40
1
 10
148.695833
 20
594.064513
 30
0.0
 10
149.333695
 20
594.064513
 30
0.0
 10
149.863206
 20
593.602995
 30
0.0
 10
149.974653
 20
592.997346
 30
0.0
  0
LWPOLYLINE
  5
148
100
AcDbEntity
  8
Layer_1
 62
7
100
AcDbPolyline
 90
2
 70
1
 10
137.574514
 20
592.997346
 30
0.0
 10
147.417014
 20
592.997346
 30
0.0
  0
SPLINE
  5
149
100
AcDbEntity
  8
Layer_1
 62
7
100
AcDbSpline
 70
8
 71
3
 72
8
 73
4
 74
0
 40
0
 40
0
 40
0
 40
0
 40
1
 40
1
 40
1
 40
1
 10
149.974653
 20
589.998735
 30
0.0
 10
149.988792
 20
589.921886
 30
0.0
 10
150.001097
 20
589.841566
 30
0.0
 10
150.001097
 20
589.760624
 30
0.0
  0
SPLINE
  5
14a
100
AcDbEntity
  8
Layer_1
 62
7
100
AcDbSpline
 70
8
 71
3
 72
8
 73
4
 74
0
 40
0
 40
0
 40
0
 40
0
 40
1
 40
1
 40
1
 40
1
 10
150.001097
 20
589.760624
 30
0.0
 10
150.001097
 20
589.041804
 30
0.0
 10
149.414636
 20
588.455347
 30
0.0
 10
148.695819
 20
588.455347
 30
0.0
  0
SPLINE
  5
14b
100
AcDbEntity
  8
Layer_1
 62
7
100
AcDbSpline
 70
8
 71
3
 72
8
 73
4
 74
0
 40
0
 40
0
 40
0
 40
0
 40
1
 40
1
 40
1
 40
1
 10
148.695819
 20
588.455347
 30
0.0
 10
147.977002
 20
588.455347
 30
0.0
 10
147.390541
 20
589.041804
 30
0.0
 10
147.390541
 20
589.760624
 30
0.0
  0
SPLINE
  5
14c
100
AcDbEntity
  8
Layer_1
 62
7
100
AcDbSpline
 70
8
 71
3
 72
8
 73
4
 74
0
 40
0
 40
0
 40
0
 40
0
 40
1
 40
1
 40
1
 40
1
 10
147.390541
 20
589.760624
 30
0.0
 10
147.390541
 20
589.841566
 30
0.0
 10
147.402846
 20
589.921886
 30
0.0
 10
147.416986
 20
589.998735
 30
0.0
  0
LWPOLYLINE
  5
14d
100
AcDbEntity
  8
Layer_1
 62
7
100
AcDbPolyline
 90
4
 70
1
 10
149.974653
 20
592.997346
 30
0.0
 10
150.001097
 20
592.997346
 30
0.0
 10
150.001097
 20
589.998735
 30
0.0
 10
149.974653
 20
589.998735
 30
0.0
  0
SPLINE
  5
14e
100
AcDbEntity
  8
Layer_1
 62
7
100
AcDbSpline
 70
8
 71
3
 72
8
 73
4
 74
0
 40
0
 40
0
 40
0
 40
0
 40
1
 40
1
 40
1
 40
1
 10
137.574486
 20
589.998735
 30
0.0
 10
137.588625
 20
589.921886
 30
0.0
 10
137.600930
 20
589.841566
 30
0.0
 10
137.600930
 20
589.760624
 30
0.0
  0
SPLINE
  5
14f
100
AcDbEntity
  8
Layer_1
 62
7
100
AcDbSpline
 70
8
 71
3
 72
8
 73
4
 74
0
 40
0
 40
0
 40
0
 40
0
 40
1
 40
1
 40
1
 40
1
 10
137.600930
 20
589.760624
 30
0.0
 10
137.600930
 20
589.041804
 30
0.0
 10
137.014469
 20
588.455347
 30
0.0
 10
136.295652
 20
588.455347
 30
0.0
  0
SPLINE
  5
150
100
AcDbEntity
  8
Layer_1
 62
7
100
AcDbSpline
 70
8
 71
3
 72
8
 73
4
 74
0
 40
0
 40
0
 40
0
 40
0
 40
1
 40
1
 40
1
 40
1
 10
136.295652
 20
588.455347
 30
0.0
 10
135.576835
 20
588.455347
 30
0.0
 10
134.999194
 20
589.041804
 30
0.0
 10
134.999194
 20
589.760624
 30
0.0
  0
SPLINE
  5
151
100
AcDbEntity
  8
Layer_1
 62
7
100
AcDbSpline
 70
8
 71
3
 72
8
 73
4
 74
0
 40
0
 40
0
 40
0
 40
0
 40
1
 40
1
 40
1
 40
1
 10
134.999194
 20
589.760624
 30
0.0
 10
134.999194
 20
589.841566
 30
0.0
 10
135.011499
 20
589.921886
 30
0.0
 10
135.025638
 20
589.998735
 30
0.0
  0
LWPOLYLINE
  5
152
100
AcDbEntity
  8
Layer_1
 62
7
100
AcDbPolyline
 90
2
 70
1
 10
147.416986
 20
589.998735
 30
0.0
 10
137.574486
 20
589.998735
 30
0.0
  0
SPLINE
  5
153
100
AcDbEntity
  8
Layer_1
 62
7
100
AcDbSpline
 70
8
 71
3
 72
8
 73
4
 74
0
 40
0
 40
0
 40
0
 40
0
 40
1
 40
1
 40
1
 40
1
 10
135.025638
 20
592.997346
 30
0.0
 10
135.137085
 20
593.602995
 30
0.0
 10
135.657776
 20
594.064513
 30
0.0
 10
136.295638
 20
594.064513
 30
0.0
  0
LWPOLYLINE
  5
154
100
AcDbEntity
  8
Layer_1
 62
7
100
AcDbPolyline
 90
5
 70
1
 10
135.025638
 20
589.998735
 30
0.0
 10
134.999194
 20
589.998735
 30
0.0
 10
134.999194
 20
592.759236
 30
0.0
 10
134.999194
 20
592.997346
 30
0.0
 10
135.025638
 20
592.997346
 30
0.0
  0
SPLINE
  5
155
100
AcDbEntity
  8
Layer_1
 62
7
100
AcDbSpline
 70
8
 71
3
 72
8
 73
4
 74
0
 40
0
 40
0
 40
0
 40
0
 40
1
 40
1
 40
1
 40
1
 10
166.299444
 20
594.064513
 30
0.0
 10
166.937306
 20
594.064513
 30
0.0
 10
167.466817
 20
593.602995
 30
0.0
 10
167.578264
 20
592.997346
 30
0.0
  0
LWPOLYLINE
  5
156
100
AcDbEntity
  8
Layer_1
 62
7
100
AcDbPolyline
 90
2
 70
1
 10
136.295638
 20
594.064513
 30
0.0
 10
136.295694
 20
594.064513
 30
0.0
  0
SPLINE
  5
157
100
AcDbEntity
  8
Layer_1
 62
7
100
AcDbSpline
 70
8
 71
3
 72
8
 73
4
 74
0
 40
0
 40
0
 40
0
 40
0
 40
1
 40
1
 40
1
 40
1
 10
177.420764
 20
592.997346
 30
0.0
 10
177.532211
 20
593.602995
 30
0.0
 10
178.061722
 20
594.064513
 30
0.0
 10
178.699583
 20
594.064513
 30
0.0
  0
SPLINE
  5
158
100
AcDbEntity
  8
Layer_1
 62
7
100
AcDbSpline
 70
8
 71
3
 72
8
 73
4
 74
0
 40
0
 40
0
 40
0
 40
0
 40
1
 40
1
 40
1
 40
1
 10
178.699583
 20
594.064513
 30
0.0
 10
179.337448
 20
594.064513
 30
0.0
 10
179.858148
 20
593.602995
 30
0.0
 10
179.969569
 20
592.997346
 30
0.0
  0
LWPOLYLINE
  5
159
100
AcDbEntity
  8
Layer_1
 62
7
100
AcDbPolyline
 90
2
 70
1
 10
167.578264
 20
592.997346
 30
0.0
 10
177.420764
 20
592.997346
 30
0.0
  0
SPLINE
  5
15a
100
AcDbEntity
  8
Layer_1
 62
7
100
AcDbSpline
 70
8
 71
3
 72
8
 73
4
 74
0
 40
0
 40
0
 40
0
 40
0
 40
1
 40
1
 40
1
 40
1
 10
179.969569
 20
589.998735
 30
0.0
 10
179.983765
 20
589.921886
 30
0.0
 10
179.996042
 20
589.841566
 30
0.0
 10
179.996042
 20
589.760624
 30
0.0
  0
SPLINE
  5
15b
100
AcDbEntity
  8
Layer_1
 62
7
100
AcDbSpline
 70
8
 71
3
 72
8
 73
4
 74
0
 40
0
 40
0
 40
0
 40
0
 40
1
 40
1
 40
1
 40
1
 10
179.996042
 20
589.760624
 30
0.0
 10
179.996042
 20
589.041804
 30
0.0
 10
179.418389
 20
588.455347
 30
0.0
 10
178.699583
 20
588.455347
 30
0.0
  0
SPLINE
  5
15c
100
AcDbEntity
  8
Layer_1
 62
7
100
AcDbSpline
 70
8
 71
3
 72
8
 73
4
 74
0
 40
0
 40
0
 40
0
 40
0
 40
1
 40
1
 40
1
 40
1
 10
178.699583
 20
588.455347
 30
0.0
 10
177.980766
 20
588.455347
 30
0.0
 10
177.394306
 20
589.041804
 30
0.0
 10
177.394306
 20
589.760624
 30
0.0
  0
SPLINE
  5
15d
100
AcDbEntity
  8
Layer_1
 62
7
100
AcDbSpline
 70
8
 71
3
 72
8
 73
4
 74
0
 40
0
 40
0
 40
0
 40
0
 40
1
 40
1
 40
1
 40
1
 10
177.394306
 20
589.760624
 30
0.0
 10
177.394306
 20
589.841566
 30
0.0
 10
177.406610
 20
589.921886
 30
0.0
 10
177.420750
 20
589.998735
 30
0.0
  0
LWPOLYLINE
  5
15e
100
AcDbEntity
  8
Layer_1
 62
7
100
AcDbPolyline
 90
5
 70
1
 10
179.969569
 20
592.997346
 30
0.0
 10
179.996042
 20
592.997346
 30
0.0
 10
179.996042
 20
592.759236
 30
0.0
 10
179.996042
 20
589.998735
 30
0.0
 10
179.969569
 20
589.998735
 30
0.0
  0
SPLINE
  5
15f
100
AcDbEntity
  8
Layer_1
 62
7
100
AcDbSpline
 70
8
 71
3
 72
8
 73
4
 74
0
 40
0
 40
0
 40
0
 40
0
 40
1
 40
1
 40
1
 40
1
 10
167.578250
 20
589.998735
 30
0.0
 10
167.592389
 20
589.921886
 30
0.0
 10
167.604694
 20
589.841566
 30
0.0
 10
167.604694
 20
589.760624
 30
0.0
  0
SPLINE
  5
160
100
AcDbEntity
  8
Layer_1
 62
7
100
AcDbSpline
 70
8
 71
3
 72
8
 73
4
 74
0
 40
0
 40
0
 40
0
 40
0
 40
1
 40
1
 40
1
 40
1
 10
167.604694
 20
589.760624
 30
0.0
 10
167.604694
 20
589.041804
 30
0.0
 10
167.018233
 20
588.455347
 30
0.0
 10
166.299416
 20
588.455347
 30
0.0
  0
SPLINE
  5
161
100
AcDbEntity
  8
Layer_1
 62
7
100
AcDbSpline
 70
8
 71
3
 72
8
 73
4
 74
0
 40
0
 40
0
 40
0
 40
0
 40
1
 40
1
 40
1
 40
1
 10
166.299416
 20
588.455347
 30
0.0
 10
165.580599
 20
588.455347
 30
0.0
 10
164.994138
 20
589.041804
 30
0.0
 10
164.994138
 20
589.760624
 30
0.0
  0
SPLINE
  5
162
100
AcDbEntity
  8
Layer_1
 62
7
100
AcDbSpline
 70
8
 71
3
 72
8
 73
4
 74
0
 40
0
 40
0
 40
0
 40
0
 40
1
 40
1
 40
1
 40
1
 10
164.994138
 20
589.760624
 30
0.0
 10
164.994138
 20
589.841566
 30
0.0
 10
165.006443
 20
589.921886
 30
0.0
 10
165.020583
 20
589.998735
 30
0.0
  0
LWPOLYLINE
  5
163
100
AcDbEntity
  8
Layer_1
 62
7
100
AcDbPolyline
 90
2
 70
1
 10
177.420750
 20
589.998735
 30
0.0
 10
167.578250
 20
589.998735
 30
0.0
  0
SPLINE
  5
164
100
AcDbEntity
  8
Layer_1
 62
7
100
AcDbSpline
 70
8
 71
3
 72
8
 73
4
 74
0
 40
0
 40
0
 40
0
 40
0
 40
1
 40
1
 40
1
 40
1
 10
165.020583
 20
592.997346
 30
0.0
 10
165.132029
 20
593.602995
 30
0.0
 10
165.661540
 20
594.064513
 30
0.0
 10
166.299402
 20
594.064513
 30
0.0
  0
LWPOLYLINE
  5
165
100
AcDbEntity
  8
Layer_1
 62
7
100
AcDbPolyline
 90
4
 70
1
 10
165.020583
 20
589.998735
 30
0.0
 10
164.994138
 20
589.998735
 30
0.0
 10
164.994138
 20
592.997346
 30
0.0
 10
165.020583
 20
592.997346
 30
0.0
  0
SPLINE
  5
166
100
AcDbEntity
  8
Layer_1
 62
7
100
AcDbSpline
 70
8
 71
3
 72
8
 73
4
 74
0
 40
0
 40
0
 40
0
 40
0
 40
1
 40
1
 40
1
 40
1
 10
71.569792
 20
587.670402
 30
0.0
 10
72.250729
 20
587.670402
 30
0.0
 10
72.804514
 20
587.116626
 30
0.0
 10
72.804514
 20
586.435680
 30
0.0
  0
SPLINE
  5
167
100
AcDbEntity
  8
Layer_1
 62
7
100
AcDbSpline
 70
8
 71
3
 72
8
 73
4
 74
0
 40
0
 40
0
 40
0
 40
0
 40
1
 40
1
 40
1
 40
1
 10
72.804514
 20
586.435680
 30
0.0
 10
72.804514
 20
585.754762
 30
0.0
 10
72.250729
 20
585.200958
 30
0.0
 10
71.569792
 20
585.200958
 30
0.0
  0
SPLINE
  5
168
100
AcDbEntity
  8
Layer_1
 62
7
100
AcDbSpline
 70
8
 71
3
 72
8
 73
4
 74
0
 40
0
 40
0
 40
0
 40
0
 40
1
 40
1
 40
1
 40
1
 10
71.569792
 20
585.200958
 30
0.0
 10
70.888854
 20
585.200958
 30
0.0
 10
70.343889
 20
585.754762
 30
0.0
 10
70.343889
 20
586.435680
 30
0.0
  0
SPLINE
  5
169
100
AcDbEntity
  8
Layer_1
 62
7
100
AcDbSpline
 70
8
 71
3
 72
8
 73
4
 74
0
 40
0
 40
0
 40
0
 40
0
 40
1
 40
1
 40
1
 40
1
 10
70.343889
 20
586.435680
 30
0.0
 10
70.343889
 20
587.116626
 30
0.0
 10
70.888854
 20
587.670402
 30
0.0
 10
71.569792
 20
587.670402
 30
0.0
  0
LWPOLYLINE
  5
16a
100
AcDbEntity
  8
Layer_1
 62
7
100
AcDbPolyline
 90
2
 70
1
 10
166.299402
 20
594.064513
 30
0.0
 10
166.299444
 20
594.064513
 30
0.0
  0
SPLINE
  5
16b
100
AcDbEntity
  8
Layer_1
 62
7
100
AcDbSpline
 70
8
 71
3
 72
8
 73
4
 74
0
 40
0
 40
0
 40
0
 40
0
 40
1
 40
1
 40
1
 40
1
 10
131.268611
 20
587.238263
 30
0.0
 10
131.949548
 20
587.238263
 30
0.0
 10
132.503333
 20
586.684459
 30
0.0
 10
132.503333
 20
586.003541
 30
0.0
  0
SPLINE
  5
16c
100
AcDbEntity
  8
Layer_1
 62
7
100
AcDbSpline
 70
8
 71
3
 72
8
 73
4
 74
0
 40
0
 40
0
 40
0
 40
0
 40
1
 40
1
 40
1
 40
1
 10
132.503333
 20
586.003541
 30
0.0
 10
132.503333
 20
585.322595
 30
0.0
 10
131.949548
 20
584.768819
 30
0.0
 10
131.268611
 20
584.768819
 30
0.0
  0
SPLINE
  5
16d
100
AcDbEntity
  8
Layer_1
 62
7
100
AcDbSpline
 70
8
 71
3
 72
8
 73
4
 74
0
 40
0
 40
0
 40
0
 40
0
 40
1
 40
1
 40
1
 40
1
 10
131.268611
 20
584.768819
 30
0.0
 10
130.587674
 20
584.768819
 30
0.0
 10
130.042708
 20
585.322595
 30
0.0
 10
130.042708
 20
586.003541
 30
0.0
  0
SPLINE
  5
16e
100
AcDbEntity
  8
Layer_1
 62
7
100
AcDbSpline
 70
8
 71
3
 72
8
 73
4
 74
0
 40
0
 40
0
 40
0
 40
0
 40
1
 40
1
 40
1
 40
1
 10
130.042708
 20
586.003541
 30
0.0
 10
130.042708
 20
586.684459
 30
0.0
 10
130.587674
 20
587.238263
 30
0.0
 10
131.268611
 20
587.238263
 30
0.0
  0
LWPOLYLINE
  5
16f
100
AcDbEntity
  8
Layer_1
 62
7
100
AcDbPolyline
 90
2
 70
1
 10
71.569792
 20
587.670402
 30
0.0
 10
71.569792
 20
587.670402
 30
0.0
  0
LWPOLYLINE
  5
170
100
AcDbEntity
  8
Layer_1
 62
7
100
AcDbPolyline
 90
2
 70
1
 10
131.268611
 20
587.238263
 30
0.0
 10
131.268611
 20
587.238263
 30
0.0
  0
SPLINE
  5
171
100
AcDbEntity
  8
Layer_1
 62
7
100
AcDbSpline
 70
8
 71
3
 72
8
 73
4
 74
0
 40
0
 40
0
 40
0
 40
0
 40
1
 40
1
 40
1
 40
1
 10
10.001250
 20
579.759374
 30
0.0
 10
10.720067
 20
579.759374
 30
0.0
 10
11.297708
 20
579.181725
 30
0.0
 10
11.297708
 20
578.462908
 30
0.0
  0
SPLINE
  5
172
100
AcDbEntity
  8
Layer_1
 62
7
100
AcDbSpline
 70
8
 71
3
 72
8
 73
4
 74
0
 40
0
 40
0
 40
0
 40
0
 40
1
 40
1
 40
1
 40
1
 10
11.297708
 20
578.462908
 30
0.0
 10
11.297708
 20
577.744090
 30
0.0
 10
10.720067
 20
577.157630
 30
0.0
 10
10.001250
 20
577.157630
 30
0.0
  0
LWPOLYLINE
  5
173
100
AcDbEntity
  8
Layer_1
 62
7
100
AcDbPolyline
 90
3
 70
1
 10
6.993819
 20
579.997485
 30
0.0
 10
10.001250
 20
579.997485
 30
0.0
 10
10.001250
 20
579.759374
 30
0.0
  0
SPLINE
  5
174
100
AcDbEntity
  8
Layer_1
 62
7
100
AcDbSpline
 70
8
 71
3
 72
8
 73
4
 74
0
 40
0
 40
0
 40
0
 40
0
 40
1
 40
1
 40
1
 40
1
 10
10.001250
 20
567.368047
 30
0.0
 10
10.720067
 20
567.368047
 30
0.0
 10
11.297708
 20
566.781586
 30
0.0
 10
11.297708
 20
566.062769
 30
0.0
  0
SPLINE
  5
175
100
AcDbEntity
  8
Layer_1
 62
7
100
AcDbSpline
 70
8
 71
3
 72
8
 73
4
 74
0
 40
0
 40
0
 40
0
 40
0
 40
1
 40
1
 40
1
 40
1
 10
11.297708
 20
566.062769
 30
0.0
 10
11.297708
 20
565.343952
 30
0.0
 10
10.720067
 20
564.757491
 30
0.0
 10
10.001250
 20
564.757491
 30
0.0
  0
SPLINE
  5
176
100
AcDbEntity
  8
Layer_1
 62
7
100
AcDbSpline
 70
8
 71
3
 72
8
 73
4
 74
0
 40
0
 40
0
 40
0
 40
0
 40
1
 40
1
 40
1
 40
1
 10
10.001250
 20
564.757491
 30
0.0
 10
9.722798
 20
564.757491
 30
0.0
 10
9.463241
 20
564.855512
 30
0.0
 10
9.251597
 20
565.004435
 30
0.0
  0
LWPOLYLINE
  5
177
100
AcDbEntity
  8
Layer_1
 62
7
100
AcDbPolyline
 90
2
 70
1
 10
10.001250
 20
577.157630
 30
0.0
 10
10.001250
 20
567.368047
 30
0.0
  0
SPLINE
  5
178
100
AcDbEntity
  8
Layer_1
 62
7
100
AcDbSpline
 70
8
 71
3
 72
8
 73
4
 74
0
 40
0
 40
0
 40
0
 40
0
 40
1
 40
1
 40
1
 40
1
 10
7.743472
 20
565.004435
 30
0.0
 10
7.531828
 20
564.855512
 30
0.0
 10
7.272271
 20
564.757491
 30
0.0
 10
6.993819
 20
564.757491
 30
0.0
  0
SPLINE
  5
179
100
AcDbEntity
  8
Layer_1
 62
7
100
AcDbSpline
 70
8
 71
3
 72
8
 73
4
 74
0
 40
0
 40
0
 40
0
 40
0
 40
1
 40
1
 40
1
 40
1
 10
6.993819
 20
564.757491
 30
0.0
 10
6.275002
 20
564.757491
 30
0.0
 10
5.697361
 20
565.343952
 30
0.0
 10
5.697361
 20
566.062769
 30
0.0
  0
SPLINE
  5
17a
100
AcDbEntity
  8
Layer_1
 62
7
100
AcDbSpline
 70
8
 71
3
 72
8
 73
4
 74
0
 40
0
 40
0
 40
0
 40
0
 40
1
 40
1
 40
1
 40
1
 10
5.697361
 20
566.062769
 30
0.0
 10
5.697361
 20
566.781586
 30
0.0
 10
6.275002
 20
567.368047
 30
0.0
 10
6.993819
 20
567.368047
 30
0.0
  0
LWPOLYLINE
  5
17b
100
AcDbEntity
  8
Layer_1
 62
7
100
AcDbPolyline
 90
2
 70
1
 10
9.251597
 20
565.004435
 30
0.0
 10
7.743472
 20
565.004435
 30
0.0
  0
SPLINE
  5
17c
100
AcDbEntity
  8
Layer_1
 62
7
100
AcDbSpline
 70
8
 71
3
 72
8
 73
4
 74
0
 40
0
 40
0
 40
0
 40
0
 40
1
 40
1
 40
1
 40
1
 10
6.993819
 20
577.157630
 30
0.0
 10
6.275002
 20
577.157630
 30
0.0
 10
5.697361
 20
577.744090
 30
0.0
 10
5.697361
 20
578.462908
 30
0.0
  0
SPLINE
  5
17d
100
AcDbEntity
  8
Layer_1
 62
7
100
AcDbSpline
 70
8
 71
3
 72
8
 73
4
 74
0
 40
0
 40
0
 40
0
 40
0
 40
1
 40
1
 40
1
 40
1
 10
5.697361
 20
578.462908
 30
0.0
 10
5.697361
 20
579.181725
 30
0.0
 10
6.275002
 20
579.759374
 30
0.0
 10
6.993819
 20
579.759374
 30
0.0
  0
LWPOLYLINE
  5
17e
100
AcDbEntity
  8
Layer_1
 62
7
100
AcDbPolyline
 90
2
 70
1
 10
6.993819
 20
567.368047
 30
0.0
 10
6.993819
 20
577.157630
 30
0.0
  0
LWPOLYLINE
  5
17f
100
AcDbEntity
  8
Layer_1
 62
7
100
AcDbPolyline
 90
3
 70
1
 10
6.993819
 20
579.759374
 30
0.0
 10
6.993819
 20
579.997485
 30
0.0
 10
6.993819
 20
579.997485
 30
0.0
  0
SPLINE
  5
180
100
AcDbEntity
  8
Layer_1
 62
7
100
AcDbSpline
 70
8
 71
3
 72
8
 73
4
 74
0
 40
0
 40
0
 40
0
 40
0
 40
1
 40
1
 40
1
 40
1
 10
192.995903
 20
579.759374
 30
0.0
 10
193.714723
 20
579.759374
 30
0.0
 10
194.301181
 20
579.181725
 30
0.0
 10
194.301181
 20
578.462908
 30
0.0
  0
SPLINE
  5
181
100
AcDbEntity
  8
Layer_1
 62
7
100
AcDbSpline
 70
8
 71
3
 72
8
 73
4
 74
0
 40
0
 40
0
 40
0
 40
0
 40
1
 40
1
 40
1
 40
1
 10
194.301181
 20
578.462908
 30
0.0
 10
194.301181
 20
577.744090
 30
0.0
 10
193.714723
 20
577.157630
 30
0.0
 10
192.995903
 20
577.157630
 30
0.0
  0
LWPOLYLINE
  5
182
100
AcDbEntity
  8
Layer_1
 62
7
100
AcDbPolyline
 90
3
 70
1
 10
189.997292
 20
579.997485
 30
0.0
 10
192.995903
 20
579.997485
 30
0.0
 10
192.995903
 20
579.759374
 30
0.0
  0
SPLINE
  5
183
100
AcDbEntity
  8
Layer_1
 62
7
100
AcDbSpline
 70
8
 71
3
 72
8
 73
4
 74
0
 40
0
 40
0
 40
0
 40
0
 40
1
 40
1
 40
1
 40
1
 10
192.995903
 20
567.368047
 30
0.0
 10
193.714723
 20
567.368047
 30
0.0
 10
194.301181
 20
566.781586
 30
0.0
 10
194.301181
 20
566.062769
 30
0.0
  0
SPLINE
  5
184
100
AcDbEntity
  8
Layer_1
 62
7
100
AcDbSpline
 70
8
 71
3
 72
8
 73
4
 74
0
 40
0
 40
0
 40
0
 40
0
 40
1
 40
1
 40
1
 40
1
 10
194.301181
 20
566.062769
 30
0.0
 10
194.301181
 20
565.343952
 30
0.0
 10
193.714723
 20
564.757491
 30
0.0
 10
192.995903
 20
564.757491
 30
0.0
  0
SPLINE
  5
185
100
AcDbEntity
  8
Layer_1
 62
7
100
AcDbSpline
 70
8
 71
3
 72
8
 73
4
 74
0
 40
0
 40
0
 40
0
 40
0
 40
1
 40
1
 40
1
 40
1
 10
192.995903
 20
564.757491
 30
0.0
 10
192.717462
 20
564.757491
 30
0.0
 10
192.466708
 20
564.855512
 30
0.0
 10
192.255069
 20
565.004435
 30
0.0
  0
LWPOLYLINE
  5
186
100
AcDbEntity
  8
Layer_1
 62
7
100
AcDbPolyline
 90
2
 70
1
 10
192.995903
 20
577.157630
 30
0.0
 10
192.995903
 20
567.368047
 30
0.0
  0
SPLINE
  5
187
100
AcDbEntity
  8
Layer_1
 62
7
100
AcDbSpline
 70
8
 71
3
 72
8
 73
4
 74
0
 40
0
 40
0
 40
0
 40
0
 40
1
 40
1
 40
1
 40
1
 10
190.746959
 20
565.004435
 30
0.0
 10
190.534925
 20
564.855253
 30
0.0
 10
190.276014
 20
564.757491
 30
0.0
 10
189.997292
 20
564.757491
 30
0.0
  0
SPLINE
  5
188
100
AcDbEntity
  8
Layer_1
 62
7
100
AcDbSpline
 70
8
 71
3
 72
8
 73
4
 74
0
 40
0
 40
0
 40
0
 40
0
 40
1
 40
1
 40
1
 40
1
 10
189.997292
 20
564.757491
 30
0.0
 10
189.278472
 20
564.757491
 30
0.0
 10
188.692014
 20
565.343952
 30
0.0
 10
188.692014
 20
566.062769
 30
0.0
  0
SPLINE
  5
189
100
AcDbEntity
  8
Layer_1
 62
7
100
AcDbSpline
 70
8
 71
3
 72
8
 73
4
 74
0
 40
0
 40
0
 40
0
 40
0
 40
1
 40
1
 40
1
 40
1
 10
188.692014
 20
566.062769
 30
0.0
 10
188.692014
 20
566.781586
 30
0.0
 10
189.278472
 20
567.368047
 30
0.0
 10
189.997292
 20
567.368047
 30
0.0
  0
LWPOLYLINE
  5
18a
100
AcDbEntity
  8
Layer_1
 62
7
100
AcDbPolyline
 90
2
 70
1
 10
192.255069
 20
565.004435
 30
0.0
 10
190.746959
 20
565.004435
 30
0.0
  0
SPLINE
  5
18b
100
AcDbEntity
  8
Layer_1
 62
7
100
AcDbSpline
 70
8
 71
3
 72
8
 73
4
 74
0
 40
0
 40
0
 40
0
 40
0
 40
1
 40
1
 40
1
 40
1
 10
189.997292
 20
577.157630
 30
0.0
 10
189.278472
 20
577.157630
 30
0.0
 10
188.692014
 20
577.744090
 30
0.0
 10
188.692014
 20
578.462908
 30
0.0
  0
SPLINE
  5
18c
100
AcDbEntity
  8
Layer_1
 62
7
100
AcDbSpline
 70
8
 71
3
 72
8
 73
4
 74
0
 40
0
 40
0
 40
0
 40
0
 40
1
 40
1
 40
1
 40
1
 10
188.692014
 20
578.462908
 30
0.0
 10
188.692014
 20
579.181725
 30
0.0
 10
189.278472
 20
579.759374
 30
0.0
 10
189.997292
 20
579.759374
 30
0.0
  0
LWPOLYLINE
  5
18d
100
AcDbEntity
  8
Layer_1
 62
7
100
AcDbPolyline
 90
2
 70
1
 10
189.997292
 20
567.368047
 30
0.0
 10
189.997292
 20
577.157630
 30
0.0
  0
SPLINE
  5
18e
100
AcDbEntity
  8
Layer_1
 62
7
100
AcDbSpline
 70
8
 71
3
 72
8
 73
4
 74
0
 40
0
 40
0
 40
0
 40
0
 40
1
 40
1
 40
1
 40
1
 10
56.047569
 20
573.903255
 30
0.0
 10
56.095302
 20
573.908109
 30
0.0
 10
56.148489
 20
573.903255
 30
0.0
 10
56.197500
 20
573.903255
 30
0.0
  0
SPLINE
  5
18f
100
AcDbEntity
  8
Layer_1
 62
7
100
AcDbSpline
 70
8
 71
3
 72
8
 73
4
 74
0
 40
0
 40
0
 40
0
 40
0
 40
1
 40
1
 40
1
 40
1
 10
56.197500
 20
573.903255
 30
0.0
 10
56.981666
 20
573.903255
 30
0.0
 10
57.617431
 20
573.276309
 30
0.0
 10
57.617431
 20
572.492144
 30
0.0
  0
SPLINE
  5
190
100
AcDbEntity
  8
Layer_1
 62
7
100
AcDbSpline
 70
8
 71
3
 72
8
 73
4
 74
0
 40
0
 40
0
 40
0
 40
0
 40
1
 40
1
 40
1
 40
1
 10
57.617431
 20
572.492144
 30
0.0
 10
57.617431
 20
572.364718
 30
0.0
 10
57.595982
 20
572.239222
 30
0.0
 10
57.564514
 20
572.121727
 30
0.0
  0
LWPOLYLINE
  5
191
100
AcDbEntity
  8
Layer_1
 62
7
100
AcDbPolyline
 90
3
 70
1
 10
189.997292
 20
579.759374
 30
0.0
 10
189.997292
 20
579.997485
 30
0.0
 10
189.997292
 20
579.997485
 30
0.0
  0
SPLINE
  5
192
100
AcDbEntity
  8
Layer_1
 62
7
100
AcDbSpline
 70
8
 71
3
 72
8
 73
4
 74
0
 40
0
 40
0
 40
0
 40
0
 40
1
 40
1
 40
1
 40
1
 10
57.564514
 20
569.890408
 30
0.0
 10
58.448423
 20
569.397433
 30
0.0
 10
59.046181
 20
568.460811
 30
0.0
 10
59.046181
 20
567.376866
 30
0.0
  0
SPLINE
  5
193
100
AcDbEntity
  8
Layer_1
 62
7
100
AcDbSpline
 70
8
 71
3
 72
8
 73
4
 74
0
 40
0
 40
0
 40
0
 40
0
 40
1
 40
1
 40
1
 40
1
 10
59.046181
 20
567.376866
 30
0.0
 10
59.046181
 20
565.783603
 30
0.0
 10
57.755485
 20
564.492908
 30
0.0
 10
56.162222
 20
564.492908
 30
0.0
  0
SPLINE
  5
194
100
AcDbEntity
  8
Layer_1
 62
7
100
AcDbSpline
 70
8
 71
3
 72
8
 73
4
 74
0
 40
0
 40
0
 40
0
 40
0
 40
1
 40
1
 40
1
 40
1
 10
56.162222
 20
564.492908
 30
0.0
 10
54.568959
 20
564.492908
 30
0.0
 10
53.278264
 20
565.783603
 30
0.0
 10
53.278264
 20
567.376866
 30
0.0
  0
SPLINE
  5
195
100
AcDbEntity
  8
Layer_1
 62
7
100
AcDbSpline
 70
8
 71
3
 72
8
 73
4
 74
0
 40
0
 40
0
 40
0
 40
0
 40
1
 40
1
 40
1
 40
1
 10
53.278264
 20
567.376866
 30
0.0
 10
53.278264
 20
568.488847
 30
0.0
 10
53.908746
 20
569.444127
 30
0.0
 10
54.830486
 20
569.925685
 30
0.0
  0
LWPOLYLINE
  5
196
100
AcDbEntity
  8
Layer_1
 62
7
100
AcDbPolyline
 90
2
 70
1
 10
57.564514
 20
572.121727
 30
0.0
 10
57.564514
 20
569.890408
 30
0.0
  0
SPLINE
  5
197
100
AcDbEntity
  8
Layer_1
 62
7
100
AcDbSpline
 70
8
 71
3
 72
8
 73
4
 74
0
 40
0
 40
0
 40
0
 40
0
 40
1
 40
1
 40
1
 40
1
 10
54.830486
 20
572.121727
 30
0.0
 10
54.799018
 20
572.239222
 30
0.0
 10
54.777569
 20
572.364718
 30
0.0
 10
54.777569
 20
572.492144
 30
0.0
  0
SPLINE
  5
198
100
AcDbEntity
  8
Layer_1
 62
7
100
AcDbSpline
 70
8
 71
3
 72
8
 73
4
 74
0
 40
0
 40
0
 40
0
 40
0
 40
1
 40
1
 40
1
 40
1
 10
54.777569
 20
572.492144
 30
0.0
 10
54.777569
 20
573.227299
 30
0.0
 10
55.331597
 20
573.830543
 30
0.0
 10
56.047569
 20
573.903255
 30
0.0
  0
LWPOLYLINE
  5
199
100
AcDbEntity
  8
Layer_1
 62
7
100
AcDbPolyline
 90
2
 70
1
 10
54.830486
 20
569.925685
 30
0.0
 10
54.830486
 20
572.121727
 30
0.0
  0
SPLINE
  5
19a
100
AcDbEntity
  8
Layer_1
 62
7
100
AcDbSpline
 70
8
 71
3
 72
8
 73
4
 74
0
 40
0
 40
0
 40
0
 40
0
 40
1
 40
1
 40
1
 40
1
 10
143.545278
 20
573.903255
 30
0.0
 10
143.593010
 20
573.908109
 30
0.0
 10
143.646198
 20
573.903255
 30
0.0
 10
143.695208
 20
573.903255
 30
0.0
  0
SPLINE
  5
19b
100
AcDbEntity
  8
Layer_1
 62
7
100
AcDbSpline
 70
8
 71
3
 72
8
 73
4
 74
0
 40
0
 40
0
 40
0
 40
0
 40
1
 40
1
 40
1
 40
1
 10
143.695208
 20
573.903255
 30
0.0
 10
144.479374
 20
573.903255
 30
0.0
 10
145.115139
 20
573.276309
 30
0.0
 10
145.115139
 20
572.492144
 30
0.0
  0
SPLINE
  5
19c
100
AcDbEntity
  8
Layer_1
 62
7
100
AcDbSpline
 70
8
 71
3
 72
8
 73
4
 74
0
 40
0
 40
0
 40
0
 40
0
 40
1
 40
1
 40
1
 40
1
 10
145.115139
 20
572.492144
 30
0.0
 10
145.115139
 20
572.364718
 30
0.0
 10
145.093690
 20
572.239222
 30
0.0
 10
145.062222
 20
572.121727
 30
0.0
  0
LWPOLYLINE
  5
19d
100
AcDbEntity
  8
Layer_1
 62
7
100
AcDbPolyline
 90
2
 70
1
 10
56.047569
 20
573.903255
 30
0.0
 10
56.047569
 20
573.903255
 30
0.0
  0
SPLINE
  5
19e
100
AcDbEntity
  8
Layer_1
 62
7
100
AcDbSpline
 70
8
 71
3
 72
8
 73
4
 74
0
 40
0
 40
0
 40
0
 40
0
 40
1
 40
1
 40
1
 40
1
 10
145.062222
 20
569.890408
 30
0.0
 10
145.946131
 20
569.397433
 30
0.0
 10
146.543889
 20
568.460811
 30
0.0
 10
146.543889
 20
567.376866
 30
0.0
  0
SPLINE
  5
19f
100
AcDbEntity
  8
Layer_1
 62
7
100
AcDbSpline
 70
8
 71
3
 72
8
 73
4
 74
0
 40
0
 40
0
 40
0
 40
0
 40
1
 40
1
 40
1
 40
1
 10
146.543889
 20
567.376866
 30
0.0
 10
146.543889
 20
565.783603
 30
0.0
 10
145.253194
 20
564.492908
 30
0.0
 10
143.659931
 20
564.492908
 30
0.0
  0
SPLINE
  5
1a0
100
AcDbEntity
  8
Layer_1
 62
7
100
AcDbSpline
 70
8
 71
3
 72
8
 73
4
 74
0
 40
0
 40
0
 40
0
 40
0
 40
1
 40
1
 40
1
 40
1
 10
143.659931
 20
564.492908
 30
0.0
 10
142.066668
 20
564.492908
 30
0.0
 10
140.775972
 20
565.783603
 30
0.0
 10
140.775972
 20
567.376866
 30
0.0
  0
SPLINE
  5
1a1
100
AcDbEntity
  8
Layer_1
 62
7
100
AcDbSpline
 70
8
 71
3
 72
8
 73
4
 74
0
 40
0
 40
0
 40
0
 40
0
 40
1
 40
1
 40
1
 40
1
 10
140.775972
 20
567.376866
 30
0.0
 10
140.775972
 20
568.488847
 30
0.0
 10
141.406454
 20
569.444127
 30
0.0
 10
142.328194
 20
569.925685
 30
0.0
  0
LWPOLYLINE
  5
1a2
100
AcDbEntity
  8
Layer_1
 62
7
100
AcDbPolyline
 90
2
 70
1
 10
145.062222
 20
572.121727
 30
0.0
 10
145.062222
 20
569.890408
 30
0.0
  0
SPLINE
  5
1a3
100
AcDbEntity
  8
Layer_1
 62
7
100
AcDbSpline
 70
8
 71
3
 72
8
 73
4
 74
0
 40
0
 40
0
 40
0
 40
0
 40
1
 40
1
 40
1
 40
1
 10
142.328194
 20
572.121727
 30
0.0
 10
142.296727
 20
572.239222
 30
0.0
 10
142.275278
 20
572.364718
 30
0.0
 10
142.275278
 20
572.492144
 30
0.0
  0
SPLINE
  5
1a4
100
AcDbEntity
  8
Layer_1
 62
7
100
AcDbSpline
 70
8
 71
3
 72
8
 73
4
 74
0
 40
0
 40
0
 40
0
 40
0
 40
1
 40
1
 40
1
 40
1
 10
142.275278
 20
572.492144
 30
0.0
 10
142.275278
 20
573.227299
 30
0.0
 10
142.829305
 20
573.830543
 30
0.0
 10
143.545278
 20
573.903255
 30
0.0
  0
LWPOLYLINE
  5
1a5
100
AcDbEntity
  8
Layer_1
 62
7
100
AcDbPolyline
 90
2
 70
1
 10
142.328194
 20
569.925685
 30
0.0
 10
142.328194
 20
572.121727
 30
0.0
  0
SPLINE
  5
1a6
100
AcDbEntity
  8
Layer_1
 62
7
100
AcDbSpline
 70
8
 71
3
 72
8
 73
4
 74
0
 40
0
 40
0
 40
0
 40
0
 40
1
 40
1
 40
1
 40
1
 10
16.227778
 20
567.535616
 30
0.0
 10
16.946595
 20
567.535616
 30
0.0
 10
17.533056
 20
566.957975
 30
0.0
 10
17.533056
 20
566.239158
 30
0.0
  0
SPLINE
  5
1a7
100
AcDbEntity
  8
Layer_1
 62
7
100
AcDbSpline
 70
8
 71
3
 72
8
 73
4
 74
0
 40
0
 40
0
 40
0
 40
0
 40
1
 40
1
 40
1
 40
1
 10
17.533056
 20
566.239158
 30
0.0
 10
17.533056
 20
565.520340
 30
0.0
 10
16.946595
 20
564.933880
 30
0.0
 10
16.227778
 20
564.933880
 30
0.0
  0
SPLINE
  5
1a8
100
AcDbEntity
  8
Layer_1
 62
7
100
AcDbSpline
 70
8
 71
3
 72
8
 73
4
 74
0
 40
0
 40
0
 40
0
 40
0
 40
1
 40
1
 40
1
 40
1
 10
16.227778
 20
564.933880
 30
0.0
 10
15.508961
 20
564.933880
 30
0.0
 10
14.931319
 20
565.520340
 30
0.0
 10
14.931319
 20
566.239158
 30
0.0
  0
SPLINE
  5
1a9
100
AcDbEntity
  8
Layer_1
 62
7
100
AcDbSpline
 70
8
 71
3
 72
8
 73
4
 74
0
 40
0
 40
0
 40
0
 40
0
 40
1
 40
1
 40
1
 40
1
 10
14.931319
 20
566.239158
 30
0.0
 10
14.931319
 20
566.957975
 30
0.0
 10
15.508961
 20
567.535616
 30
0.0
 10
16.227778
 20
567.535616
 30
0.0
  0
LWPOLYLINE
  5
1aa
100
AcDbEntity
  8
Layer_1
 62
7
100
AcDbPolyline
 90
2
 70
1
 10
143.545278
 20
573.903255
 30
0.0
 10
143.545278
 20
573.903255
 30
0.0
  0
SPLINE
  5
1ab
100
AcDbEntity
  8
Layer_1
 62
7
100
AcDbSpline
 70
8
 71
3
 72
8
 73
4
 74
0
 40
0
 40
0
 40
0
 40
0
 40
1
 40
1
 40
1
 40
1
 10
62.873819
 20
554.412283
 30
0.0
 10
63.554757
 20
554.412283
 30
0.0
 10
64.108542
 20
553.858498
 30
0.0
 10
64.108542
 20
553.177560
 30
0.0
  0
SPLINE
  5
1ac
100
AcDbEntity
  8
Layer_1
 62
7
100
AcDbSpline
 70
8
 71
3
 72
8
 73
4
 74
0
 40
0
 40
0
 40
0
 40
0
 40
1
 40
1
 40
1
 40
1
 10
64.108542
 20
553.177560
 30
0.0
 10
64.108542
 20
552.496623
 30
0.0
 10
63.554757
 20
551.942838
 30
0.0
 10
62.873819
 20
551.942838
 30
0.0
  0
SPLINE
  5
1ad
100
AcDbEntity
  8
Layer_1
 62
7
100
AcDbSpline
 70
8
 71
3
 72
8
 73
4
 74
0
 40
0
 40
0
 40
0
 40
0
 40
1
 40
1
 40
1
 40
1
 10
62.873819
 20
551.942838
 30
0.0
 10
62.192882
 20
551.942838
 30
0.0
 10
61.639097
 20
552.496623
 30
0.0
 10
61.639097
 20
553.177560
 30
0.0
  0
SPLINE
  5
1ae
100
AcDbEntity
  8
Layer_1
 62
7
100
AcDbSpline
 70
8
 71
3
 72
8
 73
4
 74
0
 40
0
 40
0
 40
0
 40
0
 40
1
 40
1
 40
1
 40
1
 10
61.639097
 20
553.177560
 30
0.0
 10
61.639097
 20
553.858498
 30
0.0
 10
62.192882
 20
554.412283
 30
0.0
 10
62.873819
 20
554.412283
 30
0.0
  0
LWPOLYLINE
  5
1af
100
AcDbEntity
  8
Layer_1
 62
7
100
AcDbPolyline
 90
2
 70
1
 10
16.227778
 20
567.535616
 30
0.0
 10
16.227778
 20
567.535616
 30
0.0
  0
LWPOLYLINE
  5
1b0
100
AcDbEntity
  8
Layer_1
 62
7
100
AcDbPolyline
 90
2
 70
1
 10
62.873819
 20
554.412283
 30
0.0
 10
62.873819
 20
554.412283
 30
0.0
  0
SPLINE
  5
1b1
100
AcDbEntity
  8
Layer_1
 62
7
100
AcDbSpline
 70
8
 71
3
 72
8
 73
4
 74
0
 40
0
 40
0
 40
0
 40
0
 40
1
 40
1
 40
1
 40
1
 10
10.001250
 20
549.764435
 30
0.0
 10
10.720067
 20
549.764435
 30
0.0
 10
11.297708
 20
549.177975
 30
0.0
 10
11.297708
 20
548.459158
 30
0.0
  0
SPLINE
  5
1b2
100
AcDbEntity
  8
Layer_1
 62
7
100
AcDbSpline
 70
8
 71
3
 72
8
 73
4
 74
0
 40
0
 40
0
 40
0
 40
0
 40
1
 40
1
 40
1
 40
1
 10
11.297708
 20
548.459158
 30
0.0
 10
11.297708
 20
547.740340
 30
0.0
 10
10.720067
 20
547.153880
 30
0.0
 10
10.001250
 20
547.153880
 30
0.0
  0
LWPOLYLINE
  5
1b3
100
AcDbEntity
  8
Layer_1
 62
7
100
AcDbPolyline
 90
3
 70
1
 10
6.993819
 20
550.002560
 30
0.0
 10
10.001250
 20
550.002560
 30
0.0
 10
10.001250
 20
549.764435
 30
0.0
  0
SPLINE
  5
1b4
100
AcDbEntity
  8
Layer_1
 62
7
100
AcDbSpline
 70
8
 71
3
 72
8
 73
4
 74
0
 40
0
 40
0
 40
0
 40
0
 40
1
 40
1
 40
1
 40
1
 10
10.001250
 20
537.364297
 30
0.0
 10
10.720067
 20
537.364297
 30
0.0
 10
11.297708
 20
536.777836
 30
0.0
 10
11.297708
 20
536.059019
 30
0.0
  0
SPLINE
  5
1b5
100
AcDbEntity
  8
Layer_1
 62
7
100
AcDbSpline
 70
8
 71
3
 72
8
 73
4
 74
0
 40
0
 40
0
 40
0
 40
0
 40
1
 40
1
 40
1
 40
1
 10
11.297708
 20
536.059019
 30
0.0
 10
11.297708
 20
535.340202
 30
0.0
 10
10.720067
 20
534.762560
 30
0.0
 10
10.001250
 20
534.762560
 30
0.0
  0
SPLINE
  5
1b6
100
AcDbEntity
  8
Layer_1
 62
7
100
AcDbSpline
 70
8
 71
3
 72
8
 73
4
 74
0
 40
0
 40
0
 40
0
 40
0
 40
1
 40
1
 40
1
 40
1
 10
10.001250
 20
534.762560
 30
0.0
 10
9.722798
 20
534.762560
 30
0.0
 10
9.463241
 20
534.851762
 30
0.0
 10
9.251597
 20
535.000685
 30
0.0
  0
LWPOLYLINE
  5
1b7
100
AcDbEntity
  8
Layer_1
 62
7
100
AcDbPolyline
 90
2
 70
1
 10
10.001250
 20
547.153880
 30
0.0
 10
10.001250
 20
537.364297
 30
0.0
  0
SPLINE
  5
1b8
100
AcDbEntity
  8
Layer_1
 62
7
100
AcDbSpline
 70
8
 71
3
 72
8
 73
4
 74
0
 40
0
 40
0
 40
0
 40
0
 40
1
 40
1
 40
1
 40
1
 10
7.743472
 20
535.000685
 30
0.0
 10
7.531828
 20
534.851762
 30
0.0
 10
7.272271
 20
534.762560
 30
0.0
 10
6.993819
 20
534.762560
 30
0.0
  0
SPLINE
  5
1b9
100
AcDbEntity
  8
Layer_1
 62
7
100
AcDbSpline
 70
8
 71
3
 72
8
 73
4
 74
0
 40
0
 40
0
 40
0
 40
0
 40
1
 40
1
 40
1
 40
1
 10
6.993819
 20
534.762560
 30
0.0
 10
6.275002
 20
534.762560
 30
0.0
 10
5.697361
 20
535.340202
 30
0.0
 10
5.697361
 20
536.059019
 30
0.0
  0
SPLINE
  5
1ba
100
AcDbEntity
  8
Layer_1
 62
7
100
AcDbSpline
 70
8
 71
3
 72
8
 73
4
 74
0
 40
0
 40
0
 40
0
 40
0
 40
1
 40
1
 40
1
 40
1
 10
5.697361
 20
536.059019
 30
0.0
 10
5.697361
 20
536.777836
 30
0.0
 10
6.275002
 20
537.364297
 30
0.0
 10
6.993819
 20
537.364297
 30
0.0
  0
LWPOLYLINE
  5
1bb
100
AcDbEntity
  8
Layer_1
 62
7
100
AcDbPolyline
 90
2
 70
1
 10
9.251597
 20
535.000685
 30
0.0
 10
7.743472
 20
535.000685
 30
0.0
  0
SPLINE
  5
1bc
100
AcDbEntity
  8
Layer_1
 62
7
100
AcDbSpline
 70
8
 71
3
 72
8
 73
4
 74
0
 40
0
 40
0
 40
0
 40
0
 40
1
 40
1
 40
1
 40
1
 10
6.993819
 20
547.153880
 30
0.0
 10
6.275002
 20
547.153880
 30
0.0
 10
5.697361
 20
547.740340
 30
0.0
 10
5.697361
 20
548.459158
 30
0.0
  0
SPLINE
  5
1bd
100
AcDbEntity
  8
Layer_1
 62
7
100
AcDbSpline
 70
8
 71
3
 72
8
 73
4
 74
0
 40
0
 40
0
 40
0
 40
0
 40
1
 40
1
 40
1
 40
1
 10
5.697361
 20
548.459158
 30
0.0
 10
5.697361
 20
549.177975
 30
0.0
 10
6.275002
 20
549.764435
 30
0.0
 10
6.993819
 20
549.764435
 30
0.0
  0
LWPOLYLINE
  5
1be
100
AcDbEntity
  8
Layer_1
 62
7
100
AcDbPolyline
 90
2
 70
1
 10
6.993819
 20
537.364297
 30
0.0
 10
6.993819
 20
547.153880
 30
0.0
  0
LWPOLYLINE
  5
1bf
100
AcDbEntity
  8
Layer_1
 62
7
100
AcDbPolyline
 90
3
 70
1
 10
6.993819
 20
549.764435
 30
0.0
 10
6.993819
 20
550.002560
 30
0.0
 10
6.993819
 20
550.002560
 30
0.0
  0
SPLINE
  5
1c0
100
AcDbEntity
  8
Layer_1
 62
7
100
AcDbSpline
 70
8
 71
3
 72
8
 73
4
 74
0
 40
0
 40
0
 40
0
 40
0
 40
1
 40
1
 40
1
 40
1
 10
192.995903
 20
549.764435
 30
0.0
 10
193.714723
 20
549.764435
 30
0.0
 10
194.301181
 20
549.177975
 30
0.0
 10
194.301181
 20
548.459158
 30
0.0
  0
SPLINE
  5
1c1
100
AcDbEntity
  8
Layer_1
 62
7
100
AcDbSpline
 70
8
 71
3
 72
8
 73
4
 74
0
 40
0
 40
0
 40
0
 40
0
 40
1
 40
1
 40
1
 40
1
 10
194.301181
 20
548.459158
 30
0.0
 10
194.301181
 20
547.740340
 30
0.0
 10
193.714723
 20
547.153880
 30
0.0
 10
192.995903
 20
547.153880
 30
0.0
  0
LWPOLYLINE
  5
1c2
100
AcDbEntity
  8
Layer_1
 62
7
100
AcDbPolyline
 90
3
 70
1
 10
189.997292
 20
550.002560
 30
0.0
 10
192.995903
 20
550.002560
 30
0.0
 10
192.995903
 20
549.764435
 30
0.0
  0
SPLINE
  5
1c3
100
AcDbEntity
  8
Layer_1
 62
7
100
AcDbSpline
 70
8
 71
3
 72
8
 73
4
 74
0
 40
0
 40
0
 40
0
 40
0
 40
1
 40
1
 40
1
 40
1
 10
192.995903
 20
537.364297
 30
0.0
 10
193.714723
 20
537.364297
 30
0.0
 10
194.301181
 20
536.777836
 30
0.0
 10
194.301181
 20
536.059019
 30
0.0
  0
SPLINE
  5
1c4
100
AcDbEntity
  8
Layer_1
 62
7
100
AcDbSpline
 70
8
 71
3
 72
8
 73
4
 74
0
 40
0
 40
0
 40
0
 40
0
 40
1
 40
1
 40
1
 40
1
 10
194.301181
 20
536.059019
 30
0.0
 10
194.301181
 20
535.340202
 30
0.0
 10
193.714723
 20
534.762560
 30
0.0
 10
192.995903
 20
534.762560
 30
0.0
  0
SPLINE
  5
1c5
100
AcDbEntity
  8
Layer_1
 62
7
100
AcDbSpline
 70
8
 71
3
 72
8
 73
4
 74
0
 40
0
 40
0
 40
0
 40
0
 40
1
 40
1
 40
1
 40
1
 10
192.995903
 20
534.762560
 30
0.0
 10
192.717462
 20
534.762560
 30
0.0
 10
192.466708
 20
534.851762
 30
0.0
 10
192.255069
 20
535.000685
 30
0.0
  0
LWPOLYLINE
  5
1c6
100
AcDbEntity
  8
Layer_1
 62
7
100
AcDbPolyline
 90
2
 70
1
 10
192.995903
 20
547.153880
 30
0.0
 10
192.995903
 20
537.364297
 30
0.0
  0
SPLINE
  5
1c7
100
AcDbEntity
  8
Layer_1
 62
7
100
AcDbSpline
 70
8
 71
3
 72
8
 73
4
 74
0
 40
0
 40
0
 40
0
 40
0
 40
1
 40
1
 40
1
 40
1
 10
190.746959
 20
535.000685
 30
0.0
 10
190.534953
 20
534.851503
 30
0.0
 10
190.276014
 20
534.762560
 30
0.0
 10
189.997292
 20
534.762560
 30
0.0
  0
SPLINE
  5
1c8
100
AcDbEntity
  8
Layer_1
 62
7
100
AcDbSpline
 70
8
 71
3
 72
8
 73
4
 74
0
 40
0
 40
0
 40
0
 40
0
 40
1
 40
1
 40
1
 40
1
 10
189.997292
 20
534.762560
 30
0.0
 10
189.278472
 20
534.762560
 30
0.0
 10
188.692014
 20
535.340202
 30
0.0
 10
188.692014
 20
536.059019
 30
0.0
  0
SPLINE
  5
1c9
100
AcDbEntity
  8
Layer_1
 62
7
100
AcDbSpline
 70
8
 71
3
 72
8
 73
4
 74
0
 40
0
 40
0
 40
0
 40
0
 40
1
 40
1
 40
1
 40
1
 10
188.692014
 20
536.059019
 30
0.0
 10
188.692014
 20
536.777836
 30
0.0
 10
189.278472
 20
537.364297
 30
0.0
 10
189.997292
 20
537.364297
 30
0.0
  0
LWPOLYLINE
  5
1ca
100
AcDbEntity
  8
Layer_1
 62
7
100
AcDbPolyline
 90
2
 70
1
 10
192.255069
 20
535.000685
 30
0.0
 10
190.746959
 20
535.000685
 30
0.0
  0
SPLINE
  5
1cb
100
AcDbEntity
  8
Layer_1
 62
7
100
AcDbSpline
 70
8
 71
3
 72
8
 73
4
 74
0
 40
0
 40
0
 40
0
 40
0
 40
1
 40
1
 40
1
 40
1
 10
189.997292
 20
547.153880
 30
0.0
 10
189.278472
 20
547.153880
 30
0.0
 10
188.692014
 20
547.740340
 30
0.0
 10
188.692014
 20
548.459158
 30
0.0
  0
SPLINE
  5
1cc
100
AcDbEntity
  8
Layer_1
 62
7
100
AcDbSpline
 70
8
 71
3
 72
8
 73
4
 74
0
 40
0
 40
0
 40
0
 40
0
 40
1
 40
1
 40
1
 40
1
 10
188.692014
 20
548.459158
 30
0.0
 10
188.692014
 20
549.177975
 30
0.0
 10
189.278472
 20
549.764435
 30
0.0
 10
189.997292
 20
549.764435
 30
0.0
  0
LWPOLYLINE
  5
1cd
100
AcDbEntity
  8
Layer_1
 62
7
100
AcDbPolyline
 90
2
 70
1
 10
189.997292
 20
537.364297
 30
0.0
 10
189.997292
 20
547.153880
 30
0.0
  0
LWPOLYLINE
  5
1ce
100
AcDbEntity
  8
Layer_1
 62
7
100
AcDbPolyline
 90
3
 70
1
 10
189.997292
 20
549.764435
 30
0.0
 10
189.997292
 20
550.002560
 30
0.0
 10
189.997292
 20
550.002560
 30
0.0
  0
SPLINE
  5
1cf
100
AcDbEntity
  8
Layer_1
 62
7
100
AcDbSpline
 70
8
 71
3
 72
8
 73
4
 74
0
 40
0
 40
0
 40
0
 40
0
 40
1
 40
1
 40
1
 40
1
 10
10.001250
 20
524.761310
 30
0.0
 10
10.720067
 20
524.761310
 30
0.0
 10
11.297708
 20
524.174850
 30
0.0
 10
11.297708
 20
523.456033
 30
0.0
  0
SPLINE
  5
1d0
100
AcDbEntity
  8
Layer_1
 62
7
100
AcDbSpline
 70
8
 71
3
 72
8
 73
4
 74
0
 40
0
 40
0
 40
0
 40
0
 40
1
 40
1
 40
1
 40
1
 10
11.297708
 20
523.456033
 30
0.0
 10
11.297708
 20
522.737215
 30
0.0
 10
10.720067
 20
522.159574
 30
0.0
 10
10.001250
 20
522.159574
 30
0.0
  0
LWPOLYLINE
  5
1d1
100
AcDbEntity
  8
Layer_1
 62
7
100
AcDbPolyline
 90
3
 70
1
 10
6.993819
 20
524.999435
 30
0.0
 10
10.001250
 20
524.999435
 30
0.0
 10
10.001250
 20
524.761310
 30
0.0
  0
SPLINE
  5
1d2
100
AcDbEntity
  8
Layer_1
 62
7
100
AcDbSpline
 70
8
 71
3
 72
8
 73
4
 74
0
 40
0
 40
0
 40
0
 40
0
 40
1
 40
1
 40
1
 40
1
 10
10.001250
 20
512.361172
 30
0.0
 10
10.720067
 20
512.361172
 30
0.0
 10
11.297708
 20
511.783530
 30
0.0
 10
11.297708
 20
511.064713
 30
0.0
  0
SPLINE
  5
1d3
100
AcDbEntity
  8
Layer_1
 62
7
100
AcDbSpline
 70
8
 71
3
 72
8
 73
4
 74
0
 40
0
 40
0
 40
0
 40
0
 40
1
 40
1
 40
1
 40
1
 10
11.297708
 20
511.064713
 30
0.0
 10
11.297708
 20
510.345896
 30
0.0
 10
10.720067
 20
509.759435
 30
0.0
 10
10.001250
 20
509.759435
 30
0.0
  0
SPLINE
  5
1d4
100
AcDbEntity
  8
Layer_1
 62
7
100
AcDbSpline
 70
8
 71
3
 72
8
 73
4
 74
0
 40
0
 40
0
 40
0
 40
0
 40
1
 40
1
 40
1
 40
1
 10
10.001250
 20
509.759435
 30
0.0
 10
9.722798
 20
509.759435
 30
0.0
 10
9.463241
 20
509.848637
 30
0.0
 10
9.251597
 20
509.997560
 30
0.0
  0
LWPOLYLINE
  5
1d5
100
AcDbEntity
  8
Layer_1
 62
7
100
AcDbPolyline
 90
2
 70
1
 10
10.001250
 20
522.159574
 30
0.0
 10
10.001250
 20
512.361172
 30
0.0
  0
SPLINE
  5
1d6
100
AcDbEntity
  8
Layer_1
 62
7
100
AcDbSpline
 70
8
 71
3
 72
8
 73
4
 74
0
 40
0
 40
0
 40
0
 40
0
 40
1
 40
1
 40
1
 40
1
 10
7.743472
 20
509.997560
 30
0.0
 10
7.531828
 20
509.848637
 30
0.0
 10
7.272271
 20
509.759435
 30
0.0
 10
6.993819
 20
509.759435
 30
0.0
  0
SPLINE
  5
1d7
100
AcDbEntity
  8
Layer_1
 62
7
100
AcDbSpline
 70
8
 71
3
 72
8
 73
4
 74
0
 40
0
 40
0
 40
0
 40
0
 40
1
 40
1
 40
1
 40
1
 10
6.993819
 20
509.759435
 30
0.0
 10
6.275002
 20
509.759435
 30
0.0
 10
5.697361
 20
510.345896
 30
0.0
 10
5.697361
 20
511.064713
 30
0.0
  0
SPLINE
  5
1d8
100
AcDbEntity
  8
Layer_1
 62
7
100
AcDbSpline
 70
8
 71
3
 72
8
 73
4
 74
0
 40
0
 40
0
 40
0
 40
0
 40
1
 40
1
 40
1
 40
1
 10
5.697361
 20
511.064713
 30
0.0
 10
5.697361
 20
511.783530
 30
0.0
 10
6.275002
 20
512.361172
 30
0.0
 10
6.993819
 20
512.361172
 30
0.0
  0
LWPOLYLINE
  5
1d9
100
AcDbEntity
  8
Layer_1
 62
7
100
AcDbPolyline
 90
2
 70
1
 10
9.251597
 20
509.997560
 30
0.0
 10
7.743472
 20
509.997560
 30
0.0
  0
SPLINE
  5
1da
100
AcDbEntity
  8
Layer_1
 62
7
100
AcDbSpline
 70
8
 71
3
 72
8
 73
4
 74
0
 40
0
 40
0
 40
0
 40
0
 40
1
 40
1
 40
1
 40
1
 10
6.993819
 20
522.159574
 30
0.0
 10
6.275002
 20
522.159574
 30
0.0
 10
5.697361
 20
522.737215
 30
0.0
 10
5.697361
 20
523.456033
 30
0.0
  0
SPLINE
  5
1db
100
AcDbEntity
  8
Layer_1
 62
7
100
AcDbSpline
 70
8
 71
3
 72
8
 73
4
 74
0
 40
0
 40
0
 40
0
 40
0
 40
1
 40
1
 40
1
 40
1
 10
5.697361
 20
523.456033
 30
0.0
 10
5.697361
 20
524.174850
 30
0.0
 10
6.275002
 20
524.761310
 30
0.0
 10
6.993819
 20
524.761310
 30
0.0
  0
LWPOLYLINE
  5
1dc
100
AcDbEntity
  8
Layer_1
 62
7
100
AcDbPolyline
 90
2
 70
1
 10
6.993819
 20
512.361172
 30
0.0
 10
6.993819
 20
522.159574
 30
0.0
  0
LWPOLYLINE
  5
1dd
100
AcDbEntity
  8
Layer_1
 62
7
100
AcDbPolyline
 90
3
 70
1
 10
6.993819
 20
524.761310
 30
0.0
 10
6.993819
 20
524.999435
 30
0.0
 10
6.993819
 20
524.999435
 30
0.0
  0
SPLINE
  5
1de
100
AcDbEntity
  8
Layer_1
 62
7
100
AcDbSpline
 70
8
 71
3
 72
8
 73
4
 74
0
 40
0
 40
0
 40
0
 40
0
 40
1
 40
1
 40
1
 40
1
 10
192.995903
 20
524.761310
 30
0.0
 10
193.714723
 20
524.761310
 30
0.0
 10
194.301181
 20
524.174850
 30
0.0
 10
194.301181
 20
523.456033
 30
0.0
  0
SPLINE
  5
1df
100
AcDbEntity
  8
Layer_1
 62
7
100
AcDbSpline
 70
8
 71
3
 72
8
 73
4
 74
0
 40
0
 40
0
 40
0
 40
0
 40
1
 40
1
 40
1
 40
1
 10
194.301181
 20
523.456033
 30
0.0
 10
194.301181
 20
522.737215
 30
0.0
 10
193.714723
 20
522.159574
 30
0.0
 10
192.995903
 20
522.159574
 30
0.0
  0
LWPOLYLINE
  5
1e0
100
AcDbEntity
  8
Layer_1
 62
7
100
AcDbPolyline
 90
3
 70
1
 10
189.997292
 20
524.999435
 30
0.0
 10
192.995903
 20
524.999435
 30
0.0
 10
192.995903
 20
524.761310
 30
0.0
  0
SPLINE
  5
1e1
100
AcDbEntity
  8
Layer_1
 62
7
100
AcDbSpline
 70
8
 71
3
 72
8
 73
4
 74
0
 40
0
 40
0
 40
0
 40
0
 40
1
 40
1
 40
1
 40
1
 10
192.995903
 20
512.361172
 30
0.0
 10
193.714723
 20
512.361172
 30
0.0
 10
194.301181
 20
511.783530
 30
0.0
 10
194.301181
 20
511.064713
 30
0.0
  0
SPLINE
  5
1e2
100
AcDbEntity
  8
Layer_1
 62
7
100
AcDbSpline
 70
8
 71
3
 72
8
 73
4
 74
0
 40
0
 40
0
 40
0
 40
0
 40
1
 40
1
 40
1
 40
1
 10
194.301181
 20
511.064713
 30
0.0
 10
194.301181
 20
510.345896
 30
0.0
 10
193.714723
 20
509.759435
 30
0.0
 10
192.995903
 20
509.759435
 30
0.0
  0
SPLINE
  5
1e3
100
AcDbEntity
  8
Layer_1
 62
7
100
AcDbSpline
 70
8
 71
3
 72
8
 73
4
 74
0
 40
0
 40
0
 40
0
 40
0
 40
1
 40
1
 40
1
 40
1
 10
192.995903
 20
509.759435
 30
0.0
 10
192.717462
 20
509.759435
 30
0.0
 10
192.466708
 20
509.848637
 30
0.0
 10
192.255069
 20
509.997560
 30
0.0
  0
LWPOLYLINE
  5
1e4
100
AcDbEntity
  8
Layer_1
 62
7
100
AcDbPolyline
 90
2
 70
1
 10
192.995903
 20
522.159574
 30
0.0
 10
192.995903
 20
512.361172
 30
0.0
  0
SPLINE
  5
1e5
100
AcDbEntity
  8
Layer_1
 62
7
100
AcDbSpline
 70
8
 71
3
 72
8
 73
4
 74
0
 40
0
 40
0
 40
0
 40
0
 40
1
 40
1
 40
1
 40
1
 10
190.746959
 20
509.997560
 30
0.0
 10
190.534981
 20
509.848378
 30
0.0
 10
190.276014
 20
509.759435
 30
0.0
 10
189.997292
 20
509.759435
 30
0.0
  0
SPLINE
  5
1e6
100
AcDbEntity
  8
Layer_1
 62
7
100
AcDbSpline
 70
8
 71
3
 72
8
 73
4
 74
0
 40
0
 40
0
 40
0
 40
0
 40
1
 40
1
 40
1
 40
1
 10
189.997292
 20
509.759435
 30
0.0
 10
189.278472
 20
509.759435
 30
0.0
 10
188.692014
 20
510.345896
 30
0.0
 10
188.692014
 20
511.064713
 30
0.0
  0
SPLINE
  5
1e7
100
AcDbEntity
  8
Layer_1
 62
7
100
AcDbSpline
 70
8
 71
3
 72
8
 73
4
 74
0
 40
0
 40
0
 40
0
 40
0
 40
1
 40
1
 40
1
 40
1
 10
188.692014
 20
511.064713
 30
0.0
 10
188.692014
 20
511.783530
 30
0.0
 10
189.278472
 20
512.361172
 30
0.0
 10
189.997292
 20
512.361172
 30
0.0
  0
LWPOLYLINE
  5
1e8
100
AcDbEntity
  8
Layer_1
 62
7
100
AcDbPolyline
 90
2
 70
1
 10
192.255069
 20
509.997560
 30
0.0
 10
190.746959
 20
509.997560
 30
0.0
  0
SPLINE
  5
1e9
100
AcDbEntity
  8
Layer_1
 62
7
100
AcDbSpline
 70
8
 71
3
 72
8
 73
4
 74
0
 40
0
 40
0
 40
0
 40
0
 40
1
 40
1
 40
1
 40
1
 10
189.997292
 20
522.159574
 30
0.0
 10
189.278472
 20
522.159574
 30
0.0
 10
188.692014
 20
522.737215
 30
0.0
 10
188.692014
 20
523.456033
 30
0.0
  0
SPLINE
  5
1ea
100
AcDbEntity
  8
Layer_1
 62
7
100
AcDbSpline
 70
8
 71
3
 72
8
 73
4
 74
0
 40
0
 40
0
 40
0
 40
0
 40
1
 40
1
 40
1
 40
1
 10
188.692014
 20
523.456033
 30
0.0
 10
188.692014
 20
524.174850
 30
0.0
 10
189.278472
 20
524.761310
 30
0.0
 10
189.997292
 20
524.761310
 30
0.0
  0
LWPOLYLINE
  5
1eb
100
AcDbEntity
  8
Layer_1
 62
7
100
AcDbPolyline
 90
2
 70
1
 10
189.997292
 20
512.361172
 30
0.0
 10
189.997292
 20
522.159574
 30
0.0
  0
SPLINE
  5
1ec
100
AcDbEntity
  8
Layer_1
 62
7
100
AcDbSpline
 70
8
 71
3
 72
8
 73
4
 74
0
 40
0
 40
0
 40
0
 40
0
 40
1
 40
1
 40
1
 40
1
 10
16.227778
 20
521.974366
 30
0.0
 10
16.946595
 20
521.974366
 30
0.0
 10
17.533056
 20
521.396725
 30
0.0
 10
17.533056
 20
520.677908
 30
0.0
  0
SPLINE
  5
1ed
100
AcDbEntity
  8
Layer_1
 62
7
100
AcDbSpline
 70
8
 71
3
 72
8
 73
4
 74
0
 40
0
 40
0
 40
0
 40
0
 40
1
 40
1
 40
1
 40
1
 10
17.533056
 20
520.677908
 30
0.0
 10
17.533056
 20
519.959090
 30
0.0
 10
16.946595
 20
519.372630
 30
0.0
 10
16.227778
 20
519.372630
 30
0.0
  0
SPLINE
  5
1ee
100
AcDbEntity
  8
Layer_1
 62
7
100
AcDbSpline
 70
8
 71
3
 72
8
 73
4
 74
0
 40
0
 40
0
 40
0
 40
0
 40
1
 40
1
 40
1
 40
1
 10
16.227778
 20
519.372630
 30
0.0
 10
15.508961
 20
519.372630
 30
0.0
 10
14.931319
 20
519.959090
 30
0.0
 10
14.931319
 20
520.677908
 30
0.0
  0
SPLINE
  5
1ef
100
AcDbEntity
  8
Layer_1
 62
7
100
AcDbSpline
 70
8
 71
3
 72
8
 73
4
 74
0
 40
0
 40
0
 40
0
 40
0
 40
1
 40
1
 40
1
 40
1
 10
14.931319
 20
520.677908
 30
0.0
 10
14.931319
 20
521.396725
 30
0.0
 10
15.508961
 20
521.974366
 30
0.0
 10
16.227778
 20
521.974366
 30
0.0
  0
LWPOLYLINE
  5
1f0
100
AcDbEntity
  8
Layer_1
 62
7
100
AcDbPolyline
 90
3
 70
1
 10
189.997292
 20
524.761310
 30
0.0
 10
189.997292
 20
524.999435
 30
0.0
 10
189.997292
 20
524.999435
 30
0.0
  0
SPLINE
  5
1f1
100
AcDbEntity
  8
Layer_1
 62
7
100
AcDbSpline
 70
8
 71
3
 72
8
 73
4
 74
0
 40
0
 40
0
 40
0
 40
0
 40
1
 40
1
 40
1
 40
1
 10
70.978889
 20
511.002977
 30
0.0
 10
71.681072
 20
511.002977
 30
0.0
 10
72.257708
 20
510.435160
 30
0.0
 10
72.257708
 20
509.732977
 30
0.0
  0
SPLINE
  5
1f2
100
AcDbEntity
  8
Layer_1
 62
7
100
AcDbSpline
 70
8
 71
3
 72
8
 73
4
 74
0
 40
0
 40
0
 40
0
 40
0
 40
1
 40
1
 40
1
 40
1
 10
72.257708
 20
509.732977
 30
0.0
 10
72.257708
 20
509.030794
 30
0.0
 10
71.681072
 20
508.462977
 30
0.0
 10
70.978889
 20
508.462977
 30
0.0
  0
SPLINE
  5
1f3
100
AcDbEntity
  8
Layer_1
 62
7
100
AcDbSpline
 70
8
 71
3
 72
8
 73
4
 74
0
 40
0
 40
0
 40
0
 40
0
 40
1
 40
1
 40
1
 40
1
 10
70.978889
 20
508.462977
 30
0.0
 10
70.276706
 20
508.462977
 30
0.0
 10
69.708889
 20
509.030794
 30
0.0
 10
69.708889
 20
509.732977
 30
0.0
  0
SPLINE
  5
1f4
100
AcDbEntity
  8
Layer_1
 62
7
100
AcDbSpline
 70
8
 71
3
 72
8
 73
4
 74
0
 40
0
 40
0
 40
0
 40
0
 40
1
 40
1
 40
1
 40
1
 10
69.708889
 20
509.732977
 30
0.0
 10
69.708889
 20
510.435160
 30
0.0
 10
70.276706
 20
511.002977
 30
0.0
 10
70.978889
 20
511.002977
 30
0.0
  0
LWPOLYLINE
  5
1f5
100
AcDbEntity
  8
Layer_1
 62
7
100
AcDbPolyline
 90
2
 70
1
 10
16.227778
 20
521.974366
 30
0.0
 10
16.227778
 20
521.974366
 30
0.0
  0
SPLINE
  5
1f6
100
AcDbEntity
  8
Layer_1
 62
7
100
AcDbSpline
 70
8
 71
3
 72
8
 73
4
 74
0
 40
0
 40
0
 40
0
 40
0
 40
1
 40
1
 40
1
 40
1
 10
131.171597
 20
501.733741
 30
0.0
 10
131.865692
 20
501.733741
 30
0.0
 10
132.432778
 20
501.166655
 30
0.0
 10
132.432778
 20
500.472560
 30
0.0
  0
SPLINE
  5
1f7
100
AcDbEntity
  8
Layer_1
 62
7
100
AcDbSpline
 70
8
 71
3
 72
8
 73
4
 74
0
 40
0
 40
0
 40
0
 40
0
 40
1
 40
1
 40
1
 40
1
 10
132.432778
 20
500.472560
 30
0.0
 10
132.432778
 20
499.778466
 30
0.0
 10
131.865692
 20
499.220199
 30
0.0
 10
131.171597
 20
499.220199
 30
0.0
  0
SPLINE
  5
1f8
100
AcDbEntity
  8
Layer_1
 62
7
100
AcDbSpline
 70
8
 71
3
 72
8
 73
4
 74
0
 40
0
 40
0
 40
0
 40
0
 40
1
 40
1
 40
1
 40
1
 10
131.171597
 20
499.220199
 30
0.0
 10
130.477503
 20
499.220199
 30
0.0
 10
129.919236
 20
499.778466
 30
0.0
 10
129.919236
 20
500.472560
 30
0.0
  0
SPLINE
  5
1f9
100
AcDbEntity
  8
Layer_1
 62
7
100
AcDbSpline
 70
8
 71
3
 72
8
 73
4
 74
0
 40
0
 40
0
 40
0
 40
0
 40
1
 40
1
 40
1
 40
1
 10
129.919236
 20
500.472560
 30
0.0
 10
129.919236
 20
501.166655
 30
0.0
 10
130.477503
 20
501.733741
 30
0.0
 10
131.171597
 20
501.733741
 30
0.0
  0
LWPOLYLINE
  5
1fa
100
AcDbEntity
  8
Layer_1
 62
7
100
AcDbPolyline
 90
2
 70
1
 10
70.978889
 20
511.002977
 30
0.0
 10
70.978889
 20
511.002977
 30
0.0
  0
SPLINE
  5
1fb
100
AcDbEntity
  8
Layer_1
 62
7
100
AcDbSpline
 70
8
 71
3
 72
8
 73
4
 74
0
 40
0
 40
0
 40
0
 40
0
 40
1
 40
1
 40
1
 40
1
 10
62.873819
 20
496.406797
 30
0.0
 10
63.554757
 20
496.406797
 30
0.0
 10
64.108542
 20
495.853012
 30
0.0
 10
64.108542
 20
495.172074
 30
0.0
  0
SPLINE
  5
1fc
100
AcDbEntity
  8
Layer_1
 62
7
100
AcDbSpline
 70
8
 71
3
 72
8
 73
4
 74
0
 40
0
 40
0
 40
0
 40
0
 40
1
 40
1
 40
1
 40
1
 10
64.108542
 20
495.172074
 30
0.0
 10
64.108542
 20
494.491137
 30
0.0
 10
63.554757
 20
493.946172
 30
0.0
 10
62.873819
 20
493.946172
 30
0.0
  0
SPLINE
  5
1fd
100
AcDbEntity
  8
Layer_1
 62
7
100
AcDbSpline
 70
8
 71
3
 72
8
 73
4
 74
0
 40
0
 40
0
 40
0
 40
0
 40
1
 40
1
 40
1
 40
1
 10
62.873819
 20
493.946172
 30
0.0
 10
62.192882
 20
493.946172
 30
0.0
 10
61.639097
 20
494.491137
 30
0.0
 10
61.639097
 20
495.172074
 30
0.0
  0
SPLINE
  5
1fe
100
AcDbEntity
  8
Layer_1
 62
7
100
AcDbSpline
 70
8
 71
3
 72
8
 73
4
 74
0
 40
0
 40
0
 40
0
 40
0
 40
1
 40
1
 40
1
 40
1
 10
61.639097
 20
495.172074
 30
0.0
 10
61.639097
 20
495.853012
 30
0.0
 10
62.192882
 20
496.406797
 30
0.0
 10
62.873819
 20
496.406797
 30
0.0
  0
LWPOLYLINE
  5
1ff
100
AcDbEntity
  8
Layer_1
 62
7
100
AcDbPolyline
 90
2
 70
1
 10
131.171597
 20
501.733741
 30
0.0
 10
131.171597
 20
501.733741
 30
0.0
  0
SPLINE
  5
200
100
AcDbEntity
  8
Layer_1
 62
7
100
AcDbSpline
 70
8
 71
3
 72
8
 73
4
 74
0
 40
0
 40
0
 40
0
 40
0
 40
1
 40
1
 40
1
 40
1
 10
111.874653
 20
496.406797
 30
0.0
 10
112.555590
 20
496.406797
 30
0.0
 10
113.109375
 20
495.853012
 30
0.0
 10
113.109375
 20
495.172074
 30
0.0
  0
SPLINE
  5
201
100
AcDbEntity
  8
Layer_1
 62
7
100
AcDbSpline
 70
8
 71
3
 72
8
 73
4
 74
0
 40
0
 40
0
 40
0
 40
0
 40
1
 40
1
 40
1
 40
1
 10
113.109375
 20
495.172074
 30
0.0
 10
113.109375
 20
494.491137
 30
0.0
 10
112.555590
 20
493.946172
 30
0.0
 10
111.874653
 20
493.946172
 30
0.0
  0
SPLINE
  5
202
100
AcDbEntity
  8
Layer_1
 62
7
100
AcDbSpline
 70
8
 71
3
 72
8
 73
4
 74
0
 40
0
 40
0
 40
0
 40
0
 40
1
 40
1
 40
1
 40
1
 10
111.874653
 20
493.946172
 30
0.0
 10
111.193715
 20
493.946172
 30
0.0
 10
110.639931
 20
494.491137
 30
0.0
 10
110.639931
 20
495.172074
 30
0.0
  0
SPLINE
  5
203
100
AcDbEntity
  8
Layer_1
 62
7
100
AcDbSpline
 70
8
 71
3
 72
8
 73
4
 74
0
 40
0
 40
0
 40
0
 40
0
 40
1
 40
1
 40
1
 40
1
 10
110.639931
 20
495.172074
 30
0.0
 10
110.639931
 20
495.853012
 30
0.0
 10
111.193715
 20
496.406797
 30
0.0
 10
111.874653
 20
496.406797
 30
0.0
  0
LWPOLYLINE
  5
204
100
AcDbEntity
  8
Layer_1
 62
7
100
AcDbPolyline
 90
2
 70
1
 10
62.873819
 20
496.406797
 30
0.0
 10
62.873819
 20
496.406797
 30
0.0
  0
LWPOLYLINE
  5
205
100
AcDbEntity
  8
Layer_1
 62
7
100
AcDbPolyline
 90
2
 70
1
 10
111.874653
 20
496.406797
 30
0.0
 10
111.874653
 20
496.406797
 30
0.0
  0
SPLINE
  5
206
100
AcDbEntity
  8
Layer_1
 62
7
100
AcDbSpline
 70
8
 71
3
 72
8
 73
4
 74
0
 40
0
 40
0
 40
0
 40
0
 40
1
 40
1
 40
1
 40
1
 10
10.001250
 20
494.757560
 30
0.0
 10
10.720067
 20
494.757560
 30
0.0
 10
11.297708
 20
494.179919
 30
0.0
 10
11.297708
 20
493.461102
 30
0.0
  0
SPLINE
  5
207
100
AcDbEntity
  8
Layer_1
 62
7
100
AcDbSpline
 70
8
 71
3
 72
8
 73
4
 74
0
 40
0
 40
0
 40
0
 40
0
 40
1
 40
1
 40
1
 40
1
 10
11.297708
 20
493.461102
 30
0.0
 10
11.297708
 20
492.742285
 30
0.0
 10
10.720067
 20
492.155824
 30
0.0
 10
10.001250
 20
492.155824
 30
0.0
  0
LWPOLYLINE
  5
208
100
AcDbEntity
  8
Layer_1
 62
7
100
AcDbPolyline
 90
3
 70
1
 10
6.993819
 20
495.004505
 30
0.0
 10
10.001250
 20
495.004505
 30
0.0
 10
10.001250
 20
494.757560
 30
0.0
  0
SPLINE
  5
209
100
AcDbEntity
  8
Layer_1
 62
7
100
AcDbSpline
 70
8
 71
3
 72
8
 73
4
 74
0
 40
0
 40
0
 40
0
 40
0
 40
1
 40
1
 40
1
 40
1
 10
10.001250
 20
482.366241
 30
0.0
 10
10.720067
 20
482.366241
 30
0.0
 10
11.297708
 20
481.779780
 30
0.0
 10
11.297708
 20
481.060963
 30
0.0
  0
SPLINE
  5
20a
100
AcDbEntity
  8
Layer_1
 62
7
100
AcDbSpline
 70
8
 71
3
 72
8
 73
4
 74
0
 40
0
 40
0
 40
0
 40
0
 40
1
 40
1
 40
1
 40
1
 10
11.297708
 20
481.060963
 30
0.0
 10
11.297708
 20
480.342146
 30
0.0
 10
10.720067
 20
479.764505
 30
0.0
 10
10.001250
 20
479.764505
 30
0.0
  0
SPLINE
  5
20b
100
AcDbEntity
  8
Layer_1
 62
7
100
AcDbSpline
 70
8
 71
3
 72
8
 73
4
 74
0
 40
0
 40
0
 40
0
 40
0
 40
1
 40
1
 40
1
 40
1
 10
10.001250
 20
479.764505
 30
0.0
 10
9.722798
 20
479.764505
 30
0.0
 10
9.463241
 20
479.853707
 30
0.0
 10
9.251597
 20
480.002630
 30
0.0
  0
LWPOLYLINE
  5
20c
100
AcDbEntity
  8
Layer_1
 62
7
100
AcDbPolyline
 90
2
 70
1
 10
10.001250
 20
492.155824
 30
0.0
 10
10.001250
 20
482.366241
 30
0.0
  0
SPLINE
  5
20d
100
AcDbEntity
  8
Layer_1
 62
7
100
AcDbSpline
 70
8
 71
3
 72
8
 73
4
 74
0
 40
0
 40
0
 40
0
 40
0
 40
1
 40
1
 40
1
 40
1
 10
7.743472
 20
480.002630
 30
0.0
 10
7.531828
 20
479.853707
 30
0.0
 10
7.272271
 20
479.764505
 30
0.0
 10
6.993819
 20
479.764505
 30
0.0
  0
SPLINE
  5
20e
100
AcDbEntity
  8
Layer_1
 62
7
100
AcDbSpline
 70
8
 71
3
 72
8
 73
4
 74
0
 40
0
 40
0
 40
0
 40
0
 40
1
 40
1
 40
1
 40
1
 10
6.993819
 20
479.764505
 30
0.0
 10
6.275002
 20
479.764505
 30
0.0
 10
5.697361
 20
480.342146
 30
0.0
 10
5.697361
 20
481.060963
 30
0.0
  0
SPLINE
  5
20f
100
AcDbEntity
  8
Layer_1
 62
7
100
AcDbSpline
 70
8
 71
3
 72
8
 73
4
 74
0
 40
0
 40
0
 40
0
 40
0
 40
1
 40
1
 40
1
 40
1
 10
5.697361
 20
481.060963
 30
0.0
 10
5.697361
 20
481.779780
 30
0.0
 10
6.275002
 20
482.366241
 30
0.0
 10
6.993819
 20
482.366241
 30
0.0
  0
LWPOLYLINE
  5
210
100
AcDbEntity
  8
Layer_1
 62
7
100
AcDbPolyline
 90
2
 70
1
 10
9.251597
 20
480.002630
 30
0.0
 10
7.743472
 20
480.002630
 30
0.0
  0
SPLINE
  5
211
100
AcDbEntity
  8
Layer_1
 62
7
100
AcDbSpline
 70
8
 71
3
 72
8
 73
4
 74
0
 40
0
 40
0
 40
0
 40
0
 40
1
 40
1
 40
1
 40
1
 10
6.993819
 20
492.155824
 30
0.0
 10
6.275002
 20
492.155824
 30
0.0
 10
5.697361
 20
492.742285
 30
0.0
 10
5.697361
 20
493.461102
 30
0.0
  0
SPLINE
  5
212
100
AcDbEntity
  8
Layer_1
 62
7
100
AcDbSpline
 70
8
 71
3
 72
8
 73
4
 74
0
 40
0
 40
0
 40
0
 40
0
 40
1
 40
1
 40
1
 40
1
 10
5.697361
 20
493.461102
 30
0.0
 10
5.697361
 20
494.179919
 30
0.0
 10
6.275002
 20
494.757560
 30
0.0
 10
6.993819
 20
494.757560
 30
0.0
  0
LWPOLYLINE
  5
213
100
AcDbEntity
  8
Layer_1
 62
7
100
AcDbPolyline
 90
2
 70
1
 10
6.993819
 20
482.366241
 30
0.0
 10
6.993819
 20
492.155824
 30
0.0
  0
LWPOLYLINE
  5
214
100
AcDbEntity
  8
Layer_1
 62
7
100
AcDbPolyline
 90
3
 70
1
 10
6.993819
 20
494.757560
 30
0.0
 10
6.993819
 20
495.004505
 30
0.0
 10
6.993819
 20
495.004505
 30
0.0
  0
SPLINE
  5
215
100
AcDbEntity
  8
Layer_1
 62
7
100
AcDbSpline
 70
8
 71
3
 72
8
 73
4
 74
0
 40
0
 40
0
 40
0
 40
0
 40
1
 40
1
 40
1
 40
1
 10
192.995903
 20
494.757560
 30
0.0
 10
193.714723
 20
494.757560
 30
0.0
 10
194.301181
 20
494.179919
 30
0.0
 10
194.301181
 20
493.461102
 30
0.0
  0
SPLINE
  5
216
100
AcDbEntity
  8
Layer_1
 62
7
100
AcDbSpline
 70
8
 71
3
 72
8
 73
4
 74
0
 40
0
 40
0
 40
0
 40
0
 40
1
 40
1
 40
1
 40
1
 10
194.301181
 20
493.461102
 30
0.0
 10
194.301181
 20
492.742285
 30
0.0
 10
193.714723
 20
492.155824
 30
0.0
 10
192.995903
 20
492.155824
 30
0.0
  0
LWPOLYLINE
  5
217
100
AcDbEntity
  8
Layer_1
 62
7
100
AcDbPolyline
 90
3
 70
1
 10
189.997292
 20
495.004505
 30
0.0
 10
192.995903
 20
495.004505
 30
0.0
 10
192.995903
 20
494.757560
 30
0.0
  0
SPLINE
  5
218
100
AcDbEntity
  8
Layer_1
 62
7
100
AcDbSpline
 70
8
 71
3
 72
8
 73
4
 74
0
 40
0
 40
0
 40
0
 40
0
 40
1
 40
1
 40
1
 40
1
 10
192.995903
 20
482.366241
 30
0.0
 10
193.714723
 20
482.366241
 30
0.0
 10
194.301181
 20
481.779780
 30
0.0
 10
194.301181
 20
481.060963
 30
0.0
  0
SPLINE
  5
219
100
AcDbEntity
  8
Layer_1
 62
7
100
AcDbSpline
 70
8
 71
3
 72
8
 73
4
 74
0
 40
0
 40
0
 40
0
 40
0
 40
1
 40
1
 40
1
 40
1
 10
194.301181
 20
481.060963
 30
0.0
 10
194.301181
 20
480.342146
 30
0.0
 10
193.714723
 20
479.764505
 30
0.0
 10
192.995903
 20
479.764505
 30
0.0
  0
SPLINE
  5
21a
100
AcDbEntity
  8
Layer_1
 62
7
100
AcDbSpline
 70
8
 71
3
 72
8
 73
4
 74
0
 40
0
 40
0
 40
0
 40
0
 40
1
 40
1
 40
1
 40
1
 10
192.995903
 20
479.764505
 30
0.0
 10
192.717462
 20
479.764505
 30
0.0
 10
192.466708
 20
479.853707
 30
0.0
 10
192.255069
 20
480.002630
 30
0.0
  0
LWPOLYLINE
  5
21b
100
AcDbEntity
  8
Layer_1
 62
7
100
AcDbPolyline
 90
2
 70
1
 10
192.995903
 20
492.155824
 30
0.0
 10
192.995903
 20
482.366241
 30
0.0
  0
SPLINE
  5
21c
100
AcDbEntity
  8
Layer_1
 62
7
100
AcDbSpline
 70
8
 71
3
 72
8
 73
4
 74
0
 40
0
 40
0
 40
0
 40
0
 40
1
 40
1
 40
1
 40
1
 10
190.746959
 20
480.002630
 30
0.0
 10
190.535010
 20
479.853447
 30
0.0
 10
190.276014
 20
479.764505
 30
0.0
 10
189.997292
 20
479.764505
 30
0.0
  0
SPLINE
  5
21d
100
AcDbEntity
  8
Layer_1
 62
7
100
AcDbSpline
 70
8
 71
3
 72
8
 73
4
 74
0
 40
0
 40
0
 40
0
 40
0
 40
1
 40
1
 40
1
 40
1
 10
189.997292
 20
479.764505
 30
0.0
 10
189.278472
 20
479.764505
 30
0.0
 10
188.692014
 20
480.342146
 30
0.0
 10
188.692014
 20
481.060963
 30
0.0
  0
SPLINE
  5
21e
100
AcDbEntity
  8
Layer_1
 62
7
100
AcDbSpline
 70
8
 71
3
 72
8
 73
4
 74
0
 40
0
 40
0
 40
0
 40
0
 40
1
 40
1
 40
1
 40
1
 10
188.692014
 20
481.060963
 30
0.0
 10
188.692014
 20
481.779780
 30
0.0
 10
189.278472
 20
482.366241
 30
0.0
 10
189.997292
 20
482.366241
 30
0.0
  0
LWPOLYLINE
  5
21f
100
AcDbEntity
  8
Layer_1
 62
7
100
AcDbPolyline
 90
2
 70
1
 10
192.255069
 20
480.002630
 30
0.0
 10
190.746959
 20
480.002630
 30
0.0
  0
SPLINE
  5
220
100
AcDbEntity
  8
Layer_1
 62
7
100
AcDbSpline
 70
8
 71
3
 72
8
 73
4
 74
0
 40
0
 40
0
 40
0
 40
0
 40
1
 40
1
 40
1
 40
1
 10
189.997292
 20
492.155824
 30
0.0
 10
189.278472
 20
492.155824
 30
0.0
 10
188.692014
 20
492.742285
 30
0.0
 10
188.692014
 20
493.461102
 30
0.0
  0
SPLINE
  5
221
100
AcDbEntity
  8
Layer_1
 62
7
100
AcDbSpline
 70
8
 71
3
 72
8
 73
4
 74
0
 40
0
 40
0
 40
0
 40
0
 40
1
 40
1
 40
1
 40
1
 10
188.692014
 20
493.461102
 30
0.0
 10
188.692014
 20
494.179919
 30
0.0
 10
189.278472
 20
494.757560
 30
0.0
 10
189.997292
 20
494.757560
 30
0.0
  0
LWPOLYLINE
  5
222
100
AcDbEntity
  8
Layer_1
 62
7
100
AcDbPolyline
 90
2
 70
1
 10
189.997292
 20
482.366241
 30
0.0
 10
189.997292
 20
492.155824
 30
0.0
  0
SPLINE
  5
223
100
AcDbEntity
  8
Layer_1
 62
7
100
AcDbSpline
 70
8
 71
3
 72
8
 73
4
 74
0
 40
0
 40
0
 40
0
 40
0
 40
1
 40
1
 40
1
 40
1
 10
21.298958
 20
471.059713
 30
0.0
 10
21.936820
 20
471.059713
 30
0.0
 10
22.466331
 20
470.607012
 30
0.0
 10
22.577778
 20
470.001380
 30
0.0
  0
LWPOLYLINE
  5
224
100
AcDbEntity
  8
Layer_1
 62
7
100
AcDbPolyline
 90
3
 70
1
 10
189.997292
 20
494.757560
 30
0.0
 10
189.997292
 20
495.004505
 30
0.0
 10
189.997292
 20
495.004505
 30
0.0
  0
SPLINE
  5
225
100
AcDbEntity
  8
Layer_1
 62
7
100
AcDbSpline
 70
8
 71
3
 72
8
 73
4
 74
0
 40
0
 40
0
 40
0
 40
0
 40
1
 40
1
 40
1
 40
1
 10
32.420278
 20
470.001380
 30
0.0
 10
32.531725
 20
470.607012
 30
0.0
 10
33.061235
 20
471.059713
 30
0.0
 10
33.699097
 20
471.059713
 30
0.0
  0
SPLINE
  5
226
100
AcDbEntity
  8
Layer_1
 62
7
100
AcDbSpline
 70
8
 71
3
 72
8
 73
4
 74
0
 40
0
 40
0
 40
0
 40
0
 40
1
 40
1
 40
1
 40
1
 10
33.699097
 20
471.059713
 30
0.0
 10
34.336959
 20
471.059713
 30
0.0
 10
34.857650
 20
470.607012
 30
0.0
 10
34.969097
 20
470.001380
 30
0.0
  0
LWPOLYLINE
  5
227
100
AcDbEntity
  8
Layer_1
 62
7
100
AcDbPolyline
 90
2
 70
1
 10
22.577778
 20
470.001380
 30
0.0
 10
32.420278
 20
470.001380
 30
0.0
  0
SPLINE
  5
228
100
AcDbEntity
  8
Layer_1
 62
7
100
AcDbSpline
 70
8
 71
3
 72
8
 73
4
 74
0
 40
0
 40
0
 40
0
 40
0
 40
1
 40
1
 40
1
 40
1
 10
34.969097
 20
467.002769
 30
0.0
 10
34.984196
 20
466.923445
 30
0.0
 10
34.995541
 20
466.848365
 30
0.0
 10
34.995541
 20
466.764644
 30
0.0
  0
SPLINE
  5
229
100
AcDbEntity
  8
Layer_1
 62
7
100
AcDbSpline
 70
8
 71
3
 72
8
 73
4
 74
0
 40
0
 40
0
 40
0
 40
0
 40
1
 40
1
 40
1
 40
1
 10
34.995541
 20
466.764644
 30
0.0
 10
34.995541
 20
466.045827
 30
0.0
 10
34.417900
 20
465.459366
 30
0.0
 10
33.699083
 20
465.459366
 30
0.0
  0
SPLINE
  5
22a
100
AcDbEntity
  8
Layer_1
 62
7
100
AcDbSpline
 70
8
 71
3
 72
8
 73
4
 74
0
 40
0
 40
0
 40
0
 40
0
 40
1
 40
1
 40
1
 40
1
 10
33.699083
 20
465.459366
 30
0.0
 10
32.980266
 20
465.459366
 30
0.0
 10
32.393805
 20
466.045827
 30
0.0
 10
32.393805
 20
466.764644
 30
0.0
  0
SPLINE
  5
22b
100
AcDbEntity
  8
Layer_1
 62
7
100
AcDbSpline
 70
8
 71
3
 72
8
 73
4
 74
0
 40
0
 40
0
 40
0
 40
0
 40
1
 40
1
 40
1
 40
1
 10
32.393805
 20
466.764644
 30
0.0
 10
32.393805
 20
466.848365
 30
0.0
 10
32.405151
 20
466.923445
 30
0.0
 10
32.420250
 20
467.002769
 30
0.0
  0
LWPOLYLINE
  5
22c
100
AcDbEntity
  8
Layer_1
 62
7
100
AcDbPolyline
 90
4
 70
1
 10
34.969097
 20
470.001380
 30
0.0
 10
34.995541
 20
470.001380
 30
0.0
 10
34.995541
 20
467.002769
 30
0.0
 10
34.969097
 20
467.002769
 30
0.0
  0
SPLINE
  5
22d
100
AcDbEntity
  8
Layer_1
 62
7
100
AcDbSpline
 70
8
 71
3
 72
8
 73
4
 74
0
 40
0
 40
0
 40
0
 40
0
 40
1
 40
1
 40
1
 40
1
 10
22.577750
 20
467.002769
 30
0.0
 10
22.592854
 20
466.923445
 30
0.0
 10
22.604208
 20
466.848365
 30
0.0
 10
22.604208
 20
466.764644
 30
0.0
  0
SPLINE
  5
22e
100
AcDbEntity
  8
Layer_1
 62
7
100
AcDbSpline
 70
8
 71
3
 72
8
 73
4
 74
0
 40
0
 40
0
 40
0
 40
0
 40
1
 40
1
 40
1
 40
1
 10
22.604208
 20
466.764644
 30
0.0
 10
22.604208
 20
466.045827
 30
0.0
 10
22.017747
 20
465.459366
 30
0.0
 10
21.298930
 20
465.459366
 30
0.0
  0
SPLINE
  5
22f
100
AcDbEntity
  8
Layer_1
 62
7
100
AcDbSpline
 70
8
 71
3
 72
8
 73
4
 74
0
 40
0
 40
0
 40
0
 40
0
 40
1
 40
1
 40
1
 40
1
 10
21.298930
 20
465.459366
 30
0.0
 10
20.580113
 20
465.459366
 30
0.0
 10
19.993652
 20
466.045827
 30
0.0
 10
19.993652
 20
466.764644
 30
0.0
  0
SPLINE
  5
230
100
AcDbEntity
  8
Layer_1
 62
7
100
AcDbSpline
 70
8
 71
3
 72
8
 73
4
 74
0
 40
0
 40
0
 40
0
 40
0
 40
1
 40
1
 40
1
 40
1
 10
19.993652
 20
466.764644
 30
0.0
 10
19.993652
 20
466.848365
 30
0.0
 10
20.005006
 20
466.923445
 30
0.0
 10
20.020111
 20
467.002769
 30
0.0
  0
LWPOLYLINE
  5
231
100
AcDbEntity
  8
Layer_1
 62
7
100
AcDbPolyline
 90
2
 70
1
 10
32.420250
 20
467.002769
 30
0.0
 10
22.577750
 20
467.002769
 30
0.0
  0
SPLINE
  5
232
100
AcDbEntity
  8
Layer_1
 62
7
100
AcDbSpline
 70
8
 71
3
 72
8
 73
4
 74
0
 40
0
 40
0
 40
0
 40
0
 40
1
 40
1
 40
1
 40
1
 10
20.020111
 20
470.001380
 30
0.0
 10
20.131557
 20
470.607012
 30
0.0
 10
20.661068
 20
471.059713
 30
0.0
 10
21.298930
 20
471.059713
 30
0.0
  0
LWPOLYLINE
  5
233
100
AcDbEntity
  8
Layer_1
 62
7
100
AcDbPolyline
 90
5
 70
1
 10
20.020111
 20
467.002769
 30
0.0
 10
19.993652
 20
467.002769
 30
0.0
 10
19.993652
 20
469.763255
 30
0.0
 10
19.993652
 20
470.001380
 30
0.0
 10
20.020111
 20
470.001380
 30
0.0
  0
SPLINE
  5
234
100
AcDbEntity
  8
Layer_1
 62
7
100
AcDbSpline
 70
8
 71
3
 72
8
 73
4
 74
0
 40
0
 40
0
 40
0
 40
0
 40
1
 40
1
 40
1
 40
1
 10
51.302708
 20
471.059713
 30
0.0
 10
51.940570
 20
471.059713
 30
0.0
 10
52.461262
 20
470.607012
 30
0.0
 10
52.572708
 20
470.001380
 30
0.0
  0
LWPOLYLINE
  5
235
100
AcDbEntity
  8
Layer_1
 62
7
100
AcDbPolyline
 90
2
 70
1
 10
21.298930
 20
471.059713
 30
0.0
 10
21.298958
 20
471.059713
 30
0.0
  0
SPLINE
  5
236
100
AcDbEntity
  8
Layer_1
 62
7
100
AcDbSpline
 70
8
 71
3
 72
8
 73
4
 74
0
 40
0
 40
0
 40
0
 40
0
 40
1
 40
1
 40
1
 40
1
 10
62.424028
 20
470.001380
 30
0.0
 10
62.535475
 20
470.607012
 30
0.0
 10
63.056166
 20
471.059713
 30
0.0
 10
63.694028
 20
471.059713
 30
0.0
  0
SPLINE
  5
237
100
AcDbEntity
  8
Layer_1
 62
7
100
AcDbSpline
 70
8
 71
3
 72
8
 73
4
 74
0
 40
0
 40
0
 40
0
 40
0
 40
1
 40
1
 40
1
 40
1
 10
63.694028
 20
471.059713
 30
0.0
 10
64.331890
 20
471.059713
 30
0.0
 10
64.861400
 20
470.607012
 30
0.0
 10
64.972847
 20
470.001380
 30
0.0
  0
LWPOLYLINE
  5
238
100
AcDbEntity
  8
Layer_1
 62
7
100
AcDbPolyline
 90
2
 70
1
 10
52.572708
 20
470.001380
 30
0.0
 10
62.424028
 20
470.001380
 30
0.0
  0
SPLINE
  5
239
100
AcDbEntity
  8
Layer_1
 62
7
100
AcDbSpline
 70
8
 71
3
 72
8
 73
4
 74
0
 40
0
 40
0
 40
0
 40
0
 40
1
 40
1
 40
1
 40
1
 10
64.972847
 20
467.002769
 30
0.0
 10
64.987946
 20
466.923445
 30
0.0
 10
64.999291
 20
466.848365
 30
0.0
 10
64.999291
 20
466.764644
 30
0.0
  0
SPLINE
  5
23a
100
AcDbEntity
  8
Layer_1
 62
7
100
AcDbSpline
 70
8
 71
3
 72
8
 73
4
 74
0
 40
0
 40
0
 40
0
 40
0
 40
1
 40
1
 40
1
 40
1
 10
64.999291
 20
466.764644
 30
0.0
 10
64.999291
 20
466.045827
 30
0.0
 10
64.412831
 20
465.459366
 30
0.0
 10
63.694014
 20
465.459366
 30
0.0
  0
SPLINE
  5
23b
100
AcDbEntity
  8
Layer_1
 62
7
100
AcDbSpline
 70
8
 71
3
 72
8
 73
4
 74
0
 40
0
 40
0
 40
0
 40
0
 40
1
 40
1
 40
1
 40
1
 10
63.694014
 20
465.459366
 30
0.0
 10
62.975196
 20
465.459366
 30
0.0
 10
62.397555
 20
466.045827
 30
0.0
 10
62.397555
 20
466.764644
 30
0.0
  0
SPLINE
  5
23c
100
AcDbEntity
  8
Layer_1
 62
7
100
AcDbSpline
 70
8
 71
3
 72
8
 73
4
 74
0
 40
0
 40
0
 40
0
 40
0
 40
1
 40
1
 40
1
 40
1
 10
62.397555
 20
466.764644
 30
0.0
 10
62.397555
 20
466.848365
 30
0.0
 10
62.408901
 20
466.923445
 30
0.0
 10
62.424000
 20
467.002769
 30
0.0
  0
LWPOLYLINE
  5
23d
100
AcDbEntity
  8
Layer_1
 62
7
100
AcDbPolyline
 90
4
 70
1
 10
64.972847
 20
470.001380
 30
0.0
 10
64.999291
 20
470.001380
 30
0.0
 10
64.999291
 20
467.002769
 30
0.0
 10
64.972847
 20
467.002769
 30
0.0
  0
SPLINE
  5
23e
100
AcDbEntity
  8
Layer_1
 62
7
100
AcDbSpline
 70
8
 71
3
 72
8
 73
4
 74
0
 40
0
 40
0
 40
0
 40
0
 40
1
 40
1
 40
1
 40
1
 10
52.572680
 20
467.002769
 30
0.0
 10
52.587779
 20
466.923445
 30
0.0
 10
52.599124
 20
466.848365
 30
0.0
 10
52.599124
 20
466.764644
 30
0.0
  0
SPLINE
  5
23f
100
AcDbEntity
  8
Layer_1
 62
7
100
AcDbSpline
 70
8
 71
3
 72
8
 73
4
 74
0
 40
0
 40
0
 40
0
 40
0
 40
1
 40
1
 40
1
 40
1
 10
52.599124
 20
466.764644
 30
0.0
 10
52.599124
 20
466.045827
 30
0.0
 10
52.021483
 20
465.459366
 30
0.0
 10
51.302666
 20
465.459366
 30
0.0
  0
SPLINE
  5
240
100
AcDbEntity
  8
Layer_1
 62
7
100
AcDbSpline
 70
8
 71
3
 72
8
 73
4
 74
0
 40
0
 40
0
 40
0
 40
0
 40
1
 40
1
 40
1
 40
1
 10
51.302666
 20
465.459366
 30
0.0
 10
50.583849
 20
465.459366
 30
0.0
 10
49.997388
 20
466.045827
 30
0.0
 10
49.997388
 20
466.764644
 30
0.0
  0
SPLINE
  5
241
100
AcDbEntity
  8
Layer_1
 62
7
100
AcDbSpline
 70
8
 71
3
 72
8
 73
4
 74
0
 40
0
 40
0
 40
0
 40
0
 40
1
 40
1
 40
1
 40
1
 10
49.997388
 20
466.764644
 30
0.0
 10
49.997388
 20
466.848365
 30
0.0
 10
50.008734
 20
466.923445
 30
0.0
 10
50.023832
 20
467.002769
 30
0.0
  0
LWPOLYLINE
  5
242
100
AcDbEntity
  8
Layer_1
 62
7
100
AcDbPolyline
 90
2
 70
1
 10
62.424000
 20
467.002769
 30
0.0
 10
52.572680
 20
467.002769
 30
0.0
  0
SPLINE
  5
243
100
AcDbEntity
  8
Layer_1
 62
7
100
AcDbSpline
 70
8
 71
3
 72
8
 73
4
 74
0
 40
0
 40
0
 40
0
 40
0
 40
1
 40
1
 40
1
 40
1
 10
50.023832
 20
470.001380
 30
0.0
 10
50.135279
 20
470.607012
 30
0.0
 10
50.664790
 20
471.059713
 30
0.0
 10
51.302652
 20
471.059713
 30
0.0
  0
LWPOLYLINE
  5
244
100
AcDbEntity
  8
Layer_1
 62
7
100
AcDbPolyline
 90
5
 70
1
 10
50.023832
 20
467.002769
 30
0.0
 10
49.997388
 20
467.002769
 30
0.0
 10
49.997388
 20
469.763255
 30
0.0
 10
49.997388
 20
470.001380
 30
0.0
 10
50.023832
 20
470.001380
 30
0.0
  0
SPLINE
  5
245
100
AcDbEntity
  8
Layer_1
 62
7
100
AcDbSpline
 70
8
 71
3
 72
8
 73
4
 74
0
 40
0
 40
0
 40
0
 40
0
 40
1
 40
1
 40
1
 40
1
 10
81.297639
 20
471.059713
 30
0.0
 10
81.935501
 20
471.059713
 30
0.0
 10
82.465012
 20
470.607012
 30
0.0
 10
82.576458
 20
470.001380
 30
0.0
  0
LWPOLYLINE
  5
246
100
AcDbEntity
  8
Layer_1
 62
7
100
AcDbPolyline
 90
2
 70
1
 10
51.302652
 20
471.059713
 30
0.0
 10
51.302708
 20
471.059713
 30
0.0
  0
SPLINE
  5
247
100
AcDbEntity
  8
Layer_1
 62
7
100
AcDbSpline
 70
8
 71
3
 72
8
 73
4
 74
0
 40
0
 40
0
 40
0
 40
0
 40
1
 40
1
 40
1
 40
1
 10
92.418958
 20
470.001380
 30
0.0
 10
92.530405
 20
470.607012
 30
0.0
 10
93.059916
 20
471.059713
 30
0.0
 10
93.697778
 20
471.059713
 30
0.0
  0
SPLINE
  5
248
100
AcDbEntity
  8
Layer_1
 62
7
100
AcDbSpline
 70
8
 71
3
 72
8
 73
4
 74
0
 40
0
 40
0
 40
0
 40
0
 40
1
 40
1
 40
1
 40
1
 10
93.697778
 20
471.059713
 30
0.0
 10
94.335640
 20
471.059713
 30
0.0
 10
94.856331
 20
470.607012
 30
0.0
 10
94.967778
 20
470.001380
 30
0.0
  0
LWPOLYLINE
  5
249
100
AcDbEntity
  8
Layer_1
 62
7
100
AcDbPolyline
 90
2
 70
1
 10
82.576458
 20
470.001380
 30
0.0
 10
92.418958
 20
470.001380
 30
0.0
  0
SPLINE
  5
24a
100
AcDbEntity
  8
Layer_1
 62
7
100
AcDbSpline
 70
8
 71
3
 72
8
 73
4
 74
0
 40
0
 40
0
 40
0
 40
0
 40
1
 40
1
 40
1
 40
1
 10
94.967778
 20
467.002769
 30
0.0
 10
94.982877
 20
466.923445
 30
0.0
 10
94.994222
 20
466.848365
 30
0.0
 10
94.994222
 20
466.764644
 30
0.0
  0
SPLINE
  5
24b
100
AcDbEntity
  8
Layer_1
 62
7
100
AcDbSpline
 70
8
 71
3
 72
8
 73
4
 74
0
 40
0
 40
0
 40
0
 40
0
 40
1
 40
1
 40
1
 40
1
 10
94.994222
 20
466.764644
 30
0.0
 10
94.994222
 20
466.045827
 30
0.0
 10
94.416581
 20
465.459366
 30
0.0
 10
93.697764
 20
465.459366
 30
0.0
  0
SPLINE
  5
24c
100
AcDbEntity
  8
Layer_1
 62
7
100
AcDbSpline
 70
8
 71
3
 72
8
 73
4
 74
0
 40
0
 40
0
 40
0
 40
0
 40
1
 40
1
 40
1
 40
1
 10
93.697764
 20
465.459366
 30
0.0
 10
92.978946
 20
465.459366
 30
0.0
 10
92.392486
 20
466.045827
 30
0.0
 10
92.392486
 20
466.764644
 30
0.0
  0
SPLINE
  5
24d
100
AcDbEntity
  8
Layer_1
 62
7
100
AcDbSpline
 70
8
 71
3
 72
8
 73
4
 74
0
 40
0
 40
0
 40
0
 40
0
 40
1
 40
1
 40
1
 40
1
 10
92.392486
 20
466.764644
 30
0.0
 10
92.392486
 20
466.848365
 30
0.0
 10
92.403831
 20
466.923445
 30
0.0
 10
92.418930
 20
467.002769
 30
0.0
  0
LWPOLYLINE
  5
24e
100
AcDbEntity
  8
Layer_1
 62
7
100
AcDbPolyline
 90
4
 70
1
 10
94.967778
 20
470.001380
 30
0.0
 10
94.994222
 20
470.001380
 30
0.0
 10
94.994222
 20
467.002769
 30
0.0
 10
94.967778
 20
467.002769
 30
0.0
  0
SPLINE
  5
24f
100
AcDbEntity
  8
Layer_1
 62
7
100
AcDbSpline
 70
8
 71
3
 72
8
 73
4
 74
0
 40
0
 40
0
 40
0
 40
0
 40
1
 40
1
 40
1
 40
1
 10
82.576430
 20
467.002769
 30
0.0
 10
82.591529
 20
466.923445
 30
0.0
 10
82.602874
 20
466.848365
 30
0.0
 10
82.602874
 20
466.764644
 30
0.0
  0
SPLINE
  5
250
100
AcDbEntity
  8
Layer_1
 62
7
100
AcDbSpline
 70
8
 71
3
 72
8
 73
4
 74
0
 40
0
 40
0
 40
0
 40
0
 40
1
 40
1
 40
1
 40
1
 10
82.602874
 20
466.764644
 30
0.0
 10
82.602874
 20
466.045827
 30
0.0
 10
82.016414
 20
465.459366
 30
0.0
 10
81.297597
 20
465.459366
 30
0.0
  0
SPLINE
  5
251
100
AcDbEntity
  8
Layer_1
 62
7
100
AcDbSpline
 70
8
 71
3
 72
8
 73
4
 74
0
 40
0
 40
0
 40
0
 40
0
 40
1
 40
1
 40
1
 40
1
 10
81.297597
 20
465.459366
 30
0.0
 10
80.578779
 20
465.459366
 30
0.0
 10
80.001138
 20
466.045827
 30
0.0
 10
80.001138
 20
466.764644
 30
0.0
  0
SPLINE
  5
252
100
AcDbEntity
  8
Layer_1
 62
7
100
AcDbSpline
 70
8
 71
3
 72
8
 73
4
 74
0
 40
0
 40
0
 40
0
 40
0
 40
1
 40
1
 40
1
 40
1
 10
80.001138
 20
466.764644
 30
0.0
 10
80.001138
 20
466.848365
 30
0.0
 10
80.012484
 20
466.923445
 30
0.0
 10
80.027582
 20
467.002769
 30
0.0
  0
LWPOLYLINE
  5
253
100
AcDbEntity
  8
Layer_1
 62
7
100
AcDbPolyline
 90
2
 70
1
 10
92.418930
 20
467.002769
 30
0.0
 10
82.576430
 20
467.002769
 30
0.0
  0
SPLINE
  5
254
100
AcDbEntity
  8
Layer_1
 62
7
100
AcDbSpline
 70
8
 71
3
 72
8
 73
4
 74
0
 40
0
 40
0
 40
0
 40
0
 40
1
 40
1
 40
1
 40
1
 10
80.027582
 20
470.001380
 30
0.0
 10
80.139029
 20
470.607012
 30
0.0
 10
80.659721
 20
471.059713
 30
0.0
 10
81.297582
 20
471.059713
 30
0.0
  0
LWPOLYLINE
  5
255
100
AcDbEntity
  8
Layer_1
 62
7
100
AcDbPolyline
 90
5
 70
1
 10
80.027582
 20
467.002769
 30
0.0
 10
80.001138
 20
467.002769
 30
0.0
 10
80.001138
 20
469.763255
 30
0.0
 10
80.001138
 20
470.001380
 30
0.0
 10
80.027582
 20
470.001380
 30
0.0
  0
SPLINE
  5
256
100
AcDbEntity
  8
Layer_1
 62
7
100
AcDbSpline
 70
8
 71
3
 72
8
 73
4
 74
0
 40
0
 40
0
 40
0
 40
0
 40
1
 40
1
 40
1
 40
1
 10
106.300764
 20
471.059713
 30
0.0
 10
106.938626
 20
471.059713
 30
0.0
 10
107.459317
 20
470.607012
 30
0.0
 10
107.570764
 20
470.001380
 30
0.0
  0
LWPOLYLINE
  5
257
100
AcDbEntity
  8
Layer_1
 62
7
100
AcDbPolyline
 90
2
 70
1
 10
81.297582
 20
471.059713
 30
0.0
 10
81.297639
 20
471.059713
 30
0.0
  0
SPLINE
  5
258
100
AcDbEntity
  8
Layer_1
 62
7
100
AcDbSpline
 70
8
 71
3
 72
8
 73
4
 74
0
 40
0
 40
0
 40
0
 40
0
 40
1
 40
1
 40
1
 40
1
 10
117.422083
 20
470.001380
 30
0.0
 10
117.533530
 20
470.607012
 30
0.0
 10
118.054222
 20
471.059713
 30
0.0
 10
118.692083
 20
471.059713
 30
0.0
  0
SPLINE
  5
259
100
AcDbEntity
  8
Layer_1
 62
7
100
AcDbSpline
 70
8
 71
3
 72
8
 73
4
 74
0
 40
0
 40
0
 40
0
 40
0
 40
1
 40
1
 40
1
 40
1
 10
118.692083
 20
471.059713
 30
0.0
 10
119.329945
 20
471.059713
 30
0.0
 10
119.859456
 20
470.607012
 30
0.0
 10
119.970903
 20
470.001380
 30
0.0
  0
LWPOLYLINE
  5
25a
100
AcDbEntity
  8
Layer_1
 62
7
100
AcDbPolyline
 90
2
 70
1
 10
107.570764
 20
470.001380
 30
0.0
 10
117.422083
 20
470.001380
 30
0.0
  0
SPLINE
  5
25b
100
AcDbEntity
  8
Layer_1
 62
7
100
AcDbSpline
 70
8
 71
3
 72
8
 73
4
 74
0
 40
0
 40
0
 40
0
 40
0
 40
1
 40
1
 40
1
 40
1
 10
119.970903
 20
467.002769
 30
0.0
 10
119.986002
 20
466.923445
 30
0.0
 10
119.997347
 20
466.848365
 30
0.0
 10
119.997347
 20
466.764644
 30
0.0
  0
SPLINE
  5
25c
100
AcDbEntity
  8
Layer_1
 62
7
100
AcDbSpline
 70
8
 71
3
 72
8
 73
4
 74
0
 40
0
 40
0
 40
0
 40
0
 40
1
 40
1
 40
1
 40
1
 10
119.997347
 20
466.764644
 30
0.0
 10
119.997347
 20
466.045827
 30
0.0
 10
119.410886
 20
465.459366
 30
0.0
 10
118.692069
 20
465.459366
 30
0.0
  0
SPLINE
  5
25d
100
AcDbEntity
  8
Layer_1
 62
7
100
AcDbSpline
 70
8
 71
3
 72
8
 73
4
 74
0
 40
0
 40
0
 40
0
 40
0
 40
1
 40
1
 40
1
 40
1
 10
118.692069
 20
465.459366
 30
0.0
 10
117.973252
 20
465.459366
 30
0.0
 10
117.395611
 20
466.045827
 30
0.0
 10
117.395611
 20
466.764644
 30
0.0
  0
SPLINE
  5
25e
100
AcDbEntity
  8
Layer_1
 62
7
100
AcDbSpline
 70
8
 71
3
 72
8
 73
4
 74
0
 40
0
 40
0
 40
0
 40
0
 40
1
 40
1
 40
1
 40
1
 10
117.395611
 20
466.764644
 30
0.0
 10
117.395611
 20
466.848365
 30
0.0
 10
117.406956
 20
466.923445
 30
0.0
 10
117.422055
 20
467.002769
 30
0.0
  0
LWPOLYLINE
  5
25f
100
AcDbEntity
  8
Layer_1
 62
7
100
AcDbPolyline
 90
4
 70
1
 10
119.970903
 20
470.001380
 30
0.0
 10
119.997347
 20
470.001380
 30
0.0
 10
119.997347
 20
467.002769
 30
0.0
 10
119.970903
 20
467.002769
 30
0.0
  0
SPLINE
  5
260
100
AcDbEntity
  8
Layer_1
 62
7
100
AcDbSpline
 70
8
 71
3
 72
8
 73
4
 74
0
 40
0
 40
0
 40
0
 40
0
 40
1
 40
1
 40
1
 40
1
 10
107.570736
 20
467.002769
 30
0.0
 10
107.585835
 20
466.923445
 30
0.0
 10
107.597180
 20
466.848365
 30
0.0
 10
107.597180
 20
466.764644
 30
0.0
  0
SPLINE
  5
261
100
AcDbEntity
  8
Layer_1
 62
7
100
AcDbSpline
 70
8
 71
3
 72
8
 73
4
 74
0
 40
0
 40
0
 40
0
 40
0
 40
1
 40
1
 40
1
 40
1
 10
107.597180
 20
466.764644
 30
0.0
 10
107.597180
 20
466.045827
 30
0.0
 10
107.019539
 20
465.459366
 30
0.0
 10
106.300722
 20
465.459366
 30
0.0
  0
SPLINE
  5
262
100
AcDbEntity
  8
Layer_1
 62
7
100
AcDbSpline
 70
8
 71
3
 72
8
 73
4
 74
0
 40
0
 40
0
 40
0
 40
0
 40
1
 40
1
 40
1
 40
1
 10
106.300722
 20
465.459366
 30
0.0
 10
105.581904
 20
465.459366
 30
0.0
 10
104.995444
 20
466.045827
 30
0.0
 10
104.995444
 20
466.764644
 30
0.0
  0
SPLINE
  5
263
100
AcDbEntity
  8
Layer_1
 62
7
100
AcDbSpline
 70
8
 71
3
 72
8
 73
4
 74
0
 40
0
 40
0
 40
0
 40
0
 40
1
 40
1
 40
1
 40
1
 10
104.995444
 20
466.764644
 30
0.0
 10
104.995444
 20
466.848365
 30
0.0
 10
105.006789
 20
466.923445
 30
0.0
 10
105.021888
 20
467.002769
 30
0.0
  0
LWPOLYLINE
  5
264
100
AcDbEntity
  8
Layer_1
 62
7
100
AcDbPolyline
 90
2
 70
1
 10
117.422055
 20
467.002769
 30
0.0
 10
107.570736
 20
467.002769
 30
0.0
  0
SPLINE
  5
265
100
AcDbEntity
  8
Layer_1
 62
7
100
AcDbSpline
 70
8
 71
3
 72
8
 73
4
 74
0
 40
0
 40
0
 40
0
 40
0
 40
1
 40
1
 40
1
 40
1
 10
105.021888
 20
470.001380
 30
0.0
 10
105.133335
 20
470.607012
 30
0.0
 10
105.662846
 20
471.059713
 30
0.0
 10
106.300707
 20
471.059713
 30
0.0
  0
LWPOLYLINE
  5
266
100
AcDbEntity
  8
Layer_1
 62
7
100
AcDbPolyline
 90
5
 70
1
 10
105.021888
 20
467.002769
 30
0.0
 10
104.995444
 20
467.002769
 30
0.0
 10
104.995444
 20
469.763255
 30
0.0
 10
104.995444
 20
470.001380
 30
0.0
 10
105.021888
 20
470.001380
 30
0.0
  0
SPLINE
  5
267
100
AcDbEntity
  8
Layer_1
 62
7
100
AcDbSpline
 70
8
 71
3
 72
8
 73
4
 74
0
 40
0
 40
0
 40
0
 40
0
 40
1
 40
1
 40
1
 40
1
 10
136.295694
 20
471.059713
 30
0.0
 10
136.933556
 20
471.059713
 30
0.0
 10
137.463067
 20
470.607012
 30
0.0
 10
137.574514
 20
470.001380
 30
0.0
  0
LWPOLYLINE
  5
268
100
AcDbEntity
  8
Layer_1
 62
7
100
AcDbPolyline
 90
2
 70
1
 10
106.300707
 20
471.059713
 30
0.0
 10
106.300764
 20
471.059713
 30
0.0
  0
SPLINE
  5
269
100
AcDbEntity
  8
Layer_1
 62
7
100
AcDbSpline
 70
8
 71
3
 72
8
 73
4
 74
0
 40
0
 40
0
 40
0
 40
0
 40
1
 40
1
 40
1
 40
1
 10
147.417014
 20
470.001380
 30
0.0
 10
147.528461
 20
470.607012
 30
0.0
 10
148.057972
 20
471.059713
 30
0.0
 10
148.695833
 20
471.059713
 30
0.0
  0
SPLINE
  5
26a
100
AcDbEntity
  8
Layer_1
 62
7
100
AcDbSpline
 70
8
 71
3
 72
8
 73
4
 74
0
 40
0
 40
0
 40
0
 40
0
 40
1
 40
1
 40
1
 40
1
 10
148.695833
 20
471.059713
 30
0.0
 10
149.333695
 20
471.059713
 30
0.0
 10
149.863206
 20
470.607012
 30
0.0
 10
149.974653
 20
470.001380
 30
0.0
  0
LWPOLYLINE
  5
26b
100
AcDbEntity
  8
Layer_1
 62
7
100
AcDbPolyline
 90
2
 70
1
 10
137.574514
 20
470.001380
 30
0.0
 10
147.417014
 20
470.001380
 30
0.0
  0
SPLINE
  5
26c
100
AcDbEntity
  8
Layer_1
 62
7
100
AcDbSpline
 70
8
 71
3
 72
8
 73
4
 74
0
 40
0
 40
0
 40
0
 40
0
 40
1
 40
1
 40
1
 40
1
 10
149.974653
 20
467.002769
 30
0.0
 10
149.989752
 20
466.923445
 30
0.0
 10
150.001097
 20
466.848365
 30
0.0
 10
150.001097
 20
466.764644
 30
0.0
  0
SPLINE
  5
26d
100
AcDbEntity
  8
Layer_1
 62
7
100
AcDbSpline
 70
8
 71
3
 72
8
 73
4
 74
0
 40
0
 40
0
 40
0
 40
0
 40
1
 40
1
 40
1
 40
1
 10
150.001097
 20
466.764644
 30
0.0
 10
150.001097
 20
466.045827
 30
0.0
 10
149.414636
 20
465.459366
 30
0.0
 10
148.695819
 20
465.459366
 30
0.0
  0
SPLINE
  5
26e
100
AcDbEntity
  8
Layer_1
 62
7
100
AcDbSpline
 70
8
 71
3
 72
8
 73
4
 74
0
 40
0
 40
0
 40
0
 40
0
 40
1
 40
1
 40
1
 40
1
 10
148.695819
 20
465.459366
 30
0.0
 10
147.977002
 20
465.459366
 30
0.0
 10
147.390541
 20
466.045827
 30
0.0
 10
147.390541
 20
466.764644
 30
0.0
  0
SPLINE
  5
26f
100
AcDbEntity
  8
Layer_1
 62
7
100
AcDbSpline
 70
8
 71
3
 72
8
 73
4
 74
0
 40
0
 40
0
 40
0
 40
0
 40
1
 40
1
 40
1
 40
1
 10
147.390541
 20
466.764644
 30
0.0
 10
147.390541
 20
466.848365
 30
0.0
 10
147.401887
 20
466.923445
 30
0.0
 10
147.416986
 20
467.002769
 30
0.0
  0
LWPOLYLINE
  5
270
100
AcDbEntity
  8
Layer_1
 62
7
100
AcDbPolyline
 90
4
 70
1
 10
149.974653
 20
470.001380
 30
0.0
 10
150.001097
 20
470.001380
 30
0.0
 10
150.001097
 20
467.002769
 30
0.0
 10
149.974653
 20
467.002769
 30
0.0
  0
SPLINE
  5
271
100
AcDbEntity
  8
Layer_1
 62
7
100
AcDbSpline
 70
8
 71
3
 72
8
 73
4
 74
0
 40
0
 40
0
 40
0
 40
0
 40
1
 40
1
 40
1
 40
1
 10
137.574486
 20
467.002769
 30
0.0
 10
137.589585
 20
466.923445
 30
0.0
 10
137.600930
 20
466.848365
 30
0.0
 10
137.600930
 20
466.764644
 30
0.0
  0
SPLINE
  5
272
100
AcDbEntity
  8
Layer_1
 62
7
100
AcDbSpline
 70
8
 71
3
 72
8
 73
4
 74
0
 40
0
 40
0
 40
0
 40
0
 40
1
 40
1
 40
1
 40
1
 10
137.600930
 20
466.764644
 30
0.0
 10
137.600930
 20
466.045827
 30
0.0
 10
137.014469
 20
465.459366
 30
0.0
 10
136.295652
 20
465.459366
 30
0.0
  0
SPLINE
  5
273
100
AcDbEntity
  8
Layer_1
 62
7
100
AcDbSpline
 70
8
 71
3
 72
8
 73
4
 74
0
 40
0
 40
0
 40
0
 40
0
 40
1
 40
1
 40
1
 40
1
 10
136.295652
 20
465.459366
 30
0.0
 10
135.576835
 20
465.459366
 30
0.0
 10
134.999194
 20
466.045827
 30
0.0
 10
134.999194
 20
466.764644
 30
0.0
  0
SPLINE
  5
274
100
AcDbEntity
  8
Layer_1
 62
7
100
AcDbSpline
 70
8
 71
3
 72
8
 73
4
 74
0
 40
0
 40
0
 40
0
 40
0
 40
1
 40
1
 40
1
 40
1
 10
134.999194
 20
466.764644
 30
0.0
 10
134.999194
 20
466.848365
 30
0.0
 10
135.010539
 20
466.923445
 30
0.0
 10
135.025638
 20
467.002769
 30
0.0
  0
LWPOLYLINE
  5
275
100
AcDbEntity
  8
Layer_1
 62
7
100
AcDbPolyline
 90
2
 70
1
 10
147.416986
 20
467.002769
 30
0.0
 10
137.574486
 20
467.002769
 30
0.0
  0
SPLINE
  5
276
100
AcDbEntity
  8
Layer_1
 62
7
100
AcDbSpline
 70
8
 71
3
 72
8
 73
4
 74
0
 40
0
 40
0
 40
0
 40
0
 40
1
 40
1
 40
1
 40
1
 10
135.025638
 20
470.001380
 30
0.0
 10
135.137085
 20
470.607012
 30
0.0
 10
135.657776
 20
471.059713
 30
0.0
 10
136.295638
 20
471.059713
 30
0.0
  0
LWPOLYLINE
  5
277
100
AcDbEntity
  8
Layer_1
 62
7
100
AcDbPolyline
 90
5
 70
1
 10
135.025638
 20
467.002769
 30
0.0
 10
134.999194
 20
467.002769
 30
0.0
 10
134.999194
 20
469.763255
 30
0.0
 10
134.999194
 20
470.001380
 30
0.0
 10
135.025638
 20
470.001380
 30
0.0
  0
SPLINE
  5
278
100
AcDbEntity
  8
Layer_1
 62
7
100
AcDbSpline
 70
8
 71
3
 72
8
 73
4
 74
0
 40
0
 40
0
 40
0
 40
0
 40
1
 40
1
 40
1
 40
1
 10
166.299444
 20
471.059713
 30
0.0
 10
166.937306
 20
471.059713
 30
0.0
 10
167.466817
 20
470.607012
 30
0.0
 10
167.578264
 20
470.001380
 30
0.0
  0
LWPOLYLINE
  5
279
100
AcDbEntity
  8
Layer_1
 62
7
100
AcDbPolyline
 90
2
 70
1
 10
136.295638
 20
471.059713
 30
0.0
 10
136.295694
 20
471.059713
 30
0.0
  0
SPLINE
  5
27a
100
AcDbEntity
  8
Layer_1
 62
7
100
AcDbSpline
 70
8
 71
3
 72
8
 73
4
 74
0
 40
0
 40
0
 40
0
 40
0
 40
1
 40
1
 40
1
 40
1
 10
177.420764
 20
470.001380
 30
0.0
 10
177.532211
 20
470.607012
 30
0.0
 10
178.061722
 20
471.059713
 30
0.0
 10
178.699583
 20
471.059713
 30
0.0
  0
SPLINE
  5
27b
100
AcDbEntity
  8
Layer_1
 62
7
100
AcDbSpline
 70
8
 71
3
 72
8
 73
4
 74
0
 40
0
 40
0
 40
0
 40
0
 40
1
 40
1
 40
1
 40
1
 10
178.699583
 20
471.059713
 30
0.0
 10
179.337448
 20
471.059713
 30
0.0
 10
179.858148
 20
470.607012
 30
0.0
 10
179.969569
 20
470.001380
 30
0.0
  0
LWPOLYLINE
  5
27c
100
AcDbEntity
  8
Layer_1
 62
7
100
AcDbPolyline
 90
2
 70
1
 10
167.578264
 20
470.001380
 30
0.0
 10
177.420764
 20
470.001380
 30
0.0
  0
SPLINE
  5
27d
100
AcDbEntity
  8
Layer_1
 62
7
100
AcDbSpline
 70
8
 71
3
 72
8
 73
4
 74
0
 40
0
 40
0
 40
0
 40
0
 40
1
 40
1
 40
1
 40
1
 10
179.969569
 20
467.002769
 30
0.0
 10
179.984725
 20
466.923445
 30
0.0
 10
179.996042
 20
466.848365
 30
0.0
 10
179.996042
 20
466.764644
 30
0.0
  0
SPLINE
  5
27e
100
AcDbEntity
  8
Layer_1
 62
7
100
AcDbSpline
 70
8
 71
3
 72
8
 73
4
 74
0
 40
0
 40
0
 40
0
 40
0
 40
1
 40
1
 40
1
 40
1
 10
179.996042
 20
466.764644
 30
0.0
 10
179.996042
 20
466.045827
 30
0.0
 10
179.418389
 20
465.459366
 30
0.0
 10
178.699583
 20
465.459366
 30
0.0
  0
SPLINE
  5
27f
100
AcDbEntity
  8
Layer_1
 62
7
100
AcDbSpline
 70
8
 71
3
 72
8
 73
4
 74
0
 40
0
 40
0
 40
0
 40
0
 40
1
 40
1
 40
1
 40
1
 10
178.699583
 20
465.459366
 30
0.0
 10
177.980766
 20
465.459366
 30
0.0
 10
177.394306
 20
466.045827
 30
0.0
 10
177.394306
 20
466.764644
 30
0.0
  0
SPLINE
  5
280
100
AcDbEntity
  8
Layer_1
 62
7
100
AcDbSpline
 70
8
 71
3
 72
8
 73
4
 74
0
 40
0
 40
0
 40
0
 40
0
 40
1
 40
1
 40
1
 40
1
 10
177.394306
 20
466.764644
 30
0.0
 10
177.394306
 20
466.848365
 30
0.0
 10
177.405651
 20
466.923445
 30
0.0
 10
177.420750
 20
467.002769
 30
0.0
  0
LWPOLYLINE
  5
281
100
AcDbEntity
  8
Layer_1
 62
7
100
AcDbPolyline
 90
4
 70
1
 10
179.969569
 20
470.001380
 30
0.0
 10
179.996042
 20
470.001380
 30
0.0
 10
179.996042
 20
467.002769
 30
0.0
 10
179.969569
 20
467.002769
 30
0.0
  0
SPLINE
  5
282
100
AcDbEntity
  8
Layer_1
 62
7
100
AcDbSpline
 70
8
 71
3
 72
8
 73
4
 74
0
 40
0
 40
0
 40
0
 40
0
 40
1
 40
1
 40
1
 40
1
 10
167.578250
 20
467.002769
 30
0.0
 10
167.593349
 20
466.923445
 30
0.0
 10
167.604694
 20
466.848365
 30
0.0
 10
167.604694
 20
466.764644
 30
0.0
  0
SPLINE
  5
283
100
AcDbEntity
  8
Layer_1
 62
7
100
AcDbSpline
 70
8
 71
3
 72
8
 73
4
 74
0
 40
0
 40
0
 40
0
 40
0
 40
1
 40
1
 40
1
 40
1
 10
167.604694
 20
466.764644
 30
0.0
 10
167.604694
 20
466.045827
 30
0.0
 10
167.018233
 20
465.459366
 30
0.0
 10
166.299416
 20
465.459366
 30
0.0
  0
SPLINE
  5
284
100
AcDbEntity
  8
Layer_1
 62
7
100
AcDbSpline
 70
8
 71
3
 72
8
 73
4
 74
0
 40
0
 40
0
 40
0
 40
0
 40
1
 40
1
 40
1
 40
1
 10
166.299416
 20
465.459366
 30
0.0
 10
165.580599
 20
465.459366
 30
0.0
 10
164.994138
 20
466.045827
 30
0.0
 10
164.994138
 20
466.764644
 30
0.0
  0
SPLINE
  5
285
100
AcDbEntity
  8
Layer_1
 62
7
100
AcDbSpline
 70
8
 71
3
 72
8
 73
4
 74
0
 40
0
 40
0
 40
0
 40
0
 40
1
 40
1
 40
1
 40
1
 10
164.994138
 20
466.764644
 30
0.0
 10
164.994138
 20
466.848365
 30
0.0
 10
165.005484
 20
466.923445
 30
0.0
 10
165.020583
 20
467.002769
 30
0.0
  0
LWPOLYLINE
  5
286
100
AcDbEntity
  8
Layer_1
 62
7
100
AcDbPolyline
 90
2
 70
1
 10
177.420750
 20
467.002769
 30
0.0
 10
167.578250
 20
467.002769
 30
0.0
  0
SPLINE
  5
287
100
AcDbEntity
  8
Layer_1
 62
7
100
AcDbSpline
 70
8
 71
3
 72
8
 73
4
 74
0
 40
0
 40
0
 40
0
 40
0
 40
1
 40
1
 40
1
 40
1
 10
165.020583
 20
470.001380
 30
0.0
 10
165.132029
 20
470.607012
 30
0.0
 10
165.661540
 20
471.059713
 30
0.0
 10
166.299402
 20
471.059713
 30
0.0
  0
LWPOLYLINE
  5
288
100
AcDbEntity
  8
Layer_1
 62
7
100
AcDbPolyline
 90
5
 70
1
 10
165.020583
 20
467.002769
 30
0.0
 10
164.994138
 20
467.002769
 30
0.0
 10
164.994138
 20
469.763255
 30
0.0
 10
164.994138
 20
470.001380
 30
0.0
 10
165.020583
 20
470.001380
 30
0.0
  0
LWPOLYLINE
  5
289
100
AcDbEntity
  8
Layer_1
 62
7
100
AcDbPolyline
 90
2
 70
1
 10
166.299402
 20
471.059713
 30
0.0
 10
166.299444
 20
471.059713
 30
0.0
  0
SPLINE
  5
28a
100
AcDbEntity
  8
Layer_1
 62
7
100
AcDbSpline
 70
8
 71
3
 72
8
 73
4
 74
0
 40
0
 40
0
 40
0
 40
0
 40
1
 40
1
 40
1
 40
1
 10
19.793472
 20
391.285064
 30
0.0
 10
19.682025
 20
390.679415
 30
0.0
 10
19.161334
 20
390.226731
 30
0.0
 10
18.523472
 20
390.226731
 30
0.0
  0
SPLINE
  5
28b
100
AcDbEntity
  8
Layer_1
 62
7
100
AcDbSpline
 70
8
 71
3
 72
8
 73
4
 74
0
 40
0
 40
0
 40
0
 40
0
 40
1
 40
1
 40
1
 40
1
 10
18.523472
 20
390.226731
 30
0.0
 10
17.885610
 20
390.226731
 30
0.0
 10
17.356099
 20
390.679415
 30
0.0
 10
17.244653
 20
391.285064
 30
0.0
  0
LWPOLYLINE
  5
28c
100
AcDbEntity
  8
Layer_1
 62
7
100
AcDbPolyline
 90
4
 70
1
 10
19.819916
 20
394.521786
 30
0.0
 10
19.819916
 20
391.523175
 30
0.0
 10
19.819916
 20
391.285064
 30
0.0
 10
19.793472
 20
391.285064
 30
0.0
  0
SPLINE
  5
28d
100
AcDbEntity
  8
Layer_1
 62
7
100
AcDbSpline
 70
8
 71
3
 72
8
 73
4
 74
0
 40
0
 40
0
 40
0
 40
0
 40
1
 40
1
 40
1
 40
1
 10
9.827500
 20
379.123036
 30
0.0
 10
10.546317
 20
379.123036
 30
0.0
 10
11.123958
 20
378.545412
 30
0.0
 10
11.123958
 20
377.826592
 30
0.0
  0
SPLINE
  5
28e
100
AcDbEntity
  8
Layer_1
 62
7
100
AcDbSpline
 70
8
 71
3
 72
8
 73
4
 74
0
 40
0
 40
0
 40
0
 40
0
 40
1
 40
1
 40
1
 40
1
 10
11.123958
 20
377.826592
 30
0.0
 10
11.123958
 20
377.107772
 30
0.0
 10
10.546317
 20
376.521314
 30
0.0
 10
9.827500
 20
376.521314
 30
0.0
  0
LWPOLYLINE
  5
28f
100
AcDbEntity
  8
Layer_1
 62
7
100
AcDbPolyline
 90
3
 70
1
 10
17.244653
 20
391.285064
 30
0.0
 10
9.827500
 20
391.285064
 30
0.0
 10
9.827500
 20
379.123036
 30
0.0
  0
SPLINE
  5
290
100
AcDbEntity
  8
Layer_1
 62
7
100
AcDbSpline
 70
8
 71
3
 72
8
 73
4
 74
0
 40
0
 40
0
 40
0
 40
0
 40
1
 40
1
 40
1
 40
1
 10
9.827500
 20
356.527631
 30
0.0
 10
10.546317
 20
356.527631
 30
0.0
 10
11.123958
 20
355.941170
 30
0.0
 10
11.123958
 20
355.222353
 30
0.0
  0
SPLINE
  5
291
100
AcDbEntity
  8
Layer_1
 62
7
100
AcDbSpline
 70
8
 71
3
 72
8
 73
4
 74
0
 40
0
 40
0
 40
0
 40
0
 40
1
 40
1
 40
1
 40
1
 10
11.123958
 20
355.222353
 30
0.0
 10
11.123958
 20
354.503536
 30
0.0
 10
10.546317
 20
353.917075
 30
0.0
 10
9.827500
 20
353.917075
 30
0.0
  0
LWPOLYLINE
  5
292
100
AcDbEntity
  8
Layer_1
 62
7
100
AcDbPolyline
 90
4
 70
1
 10
9.827500
 20
376.521314
 30
0.0
 10
6.820069
 20
376.521314
 30
0.0
 10
6.820069
 20
356.527631
 30
0.0
 10
9.827500
 20
356.527631
 30
0.0
  0
SPLINE
  5
293
100
AcDbEntity
  8
Layer_1
 62
7
100
AcDbSpline
 70
8
 71
3
 72
8
 73
4
 74
0
 40
0
 40
0
 40
0
 40
0
 40
1
 40
1
 40
1
 40
1
 10
17.218194
 20
341.525756
 30
0.0
 10
17.218194
 20
342.244573
 30
0.0
 10
17.804655
 20
342.822214
 30
0.0
 10
18.523472
 20
342.822214
 30
0.0
  0
SPLINE
  5
294
100
AcDbEntity
  8
Layer_1
 62
7
100
AcDbSpline
 70
8
 71
3
 72
8
 73
4
 74
0
 40
0
 40
0
 40
0
 40
0
 40
1
 40
1
 40
1
 40
1
 10
18.523472
 20
342.822214
 30
0.0
 10
19.242289
 20
342.822214
 30
0.0
 10
19.819930
 20
342.244573
 30
0.0
 10
19.819930
 20
341.525756
 30
0.0
  0
LWPOLYLINE
  5
295
100
AcDbEntity
  8
Layer_1
 62
7
100
AcDbPolyline
 90
3
 70
1
 10
9.827500
 20
353.917075
 30
0.0
 10
9.827500
 20
341.525756
 30
0.0
 10
17.218194
 20
341.525756
 30
0.0
  0
SPLINE
  5
296
100
AcDbEntity
  8
Layer_1
 62
7
100
AcDbSpline
 70
8
 71
3
 72
8
 73
4
 74
0
 40
0
 40
0
 40
0
 40
0
 40
1
 40
1
 40
1
 40
1
 10
34.821805
 20
341.525756
 30
0.0
 10
34.821805
 20
342.244573
 30
0.0
 10
35.408266
 20
342.822214
 30
0.0
 10
36.127083
 20
342.822214
 30
0.0
  0
SPLINE
  5
297
100
AcDbEntity
  8
Layer_1
 62
7
100
AcDbSpline
 70
8
 71
3
 72
8
 73
4
 74
0
 40
0
 40
0
 40
0
 40
0
 40
1
 40
1
 40
1
 40
1
 10
36.127083
 20
342.822214
 30
0.0
 10
36.845900
 20
342.822214
 30
0.0
 10
37.423542
 20
342.244573
 30
0.0
 10
37.423542
 20
341.525756
 30
0.0
  0
LWPOLYLINE
  5
298
100
AcDbEntity
  8
Layer_1
 62
7
100
AcDbPolyline
 90
4
 70
1
 10
19.819930
 20
341.525756
 30
0.0
 10
19.819930
 20
338.527144
 30
0.0
 10
34.821805
 20
338.527144
 30
0.0
 10
34.821805
 20
341.525756
 30
0.0
  0
SPLINE
  5
299
100
AcDbEntity
  8
Layer_1
 62
7
100
AcDbSpline
 70
8
 71
3
 72
8
 73
4
 74
0
 40
0
 40
0
 40
0
 40
0
 40
1
 40
1
 40
1
 40
1
 10
47.221944
 20
341.525756
 30
0.0
 10
47.221944
 20
342.244573
 30
0.0
 10
47.799585
 20
342.822214
 30
0.0
 10
48.518403
 20
342.822214
 30
0.0
  0
SPLINE
  5
29a
100
AcDbEntity
  8
Layer_1
 62
7
100
AcDbSpline
 70
8
 71
3
 72
8
 73
4
 74
0
 40
0
 40
0
 40
0
 40
0
 40
1
 40
1
 40
1
 40
1
 10
48.518403
 20
342.822214
 30
0.0
 10
49.237220
 20
342.822214
 30
0.0
 10
49.823680
 20
342.244573
 30
0.0
 10
49.823680
 20
341.525756
 30
0.0
  0
LWPOLYLINE
  5
29b
100
AcDbEntity
  8
Layer_1
 62
7
100
AcDbPolyline
 90
2
 70
1
 10
37.423542
 20
341.525756
 30
0.0
 10
47.221944
 20
341.525756
 30
0.0
  0
SPLINE
  5
29c
100
AcDbEntity
  8
Layer_1
 62
7
100
AcDbSpline
 70
8
 71
3
 72
8
 73
4
 74
0
 40
0
 40
0
 40
0
 40
0
 40
1
 40
1
 40
1
 40
1
 10
64.869653
 20
341.525756
 30
0.0
 10
64.869653
 20
342.244573
 30
0.0
 10
65.447294
 20
342.822214
 30
0.0
 10
66.166111
 20
342.822214
 30
0.0
  0
SPLINE
  5
29d
100
AcDbEntity
  8
Layer_1
 62
7
100
AcDbSpline
 70
8
 71
3
 72
8
 73
4
 74
0
 40
0
 40
0
 40
0
 40
0
 40
1
 40
1
 40
1
 40
1
 10
66.166111
 20
342.822214
 30
0.0
 10
66.884928
 20
342.822214
 30
0.0
 10
67.471389
 20
342.244573
 30
0.0
 10
67.471389
 20
341.525756
 30
0.0
  0
LWPOLYLINE
  5
29e
100
AcDbEntity
  8
Layer_1
 62
7
100
AcDbPolyline
 90
5
 70
1
 10
49.823680
 20
341.525756
 30
0.0
 10
49.823680
 20
338.527144
 30
0.0
 10
64.825555
 20
338.527144
 30
0.0
 10
64.825555
 20
341.525756
 30
0.0
 10
64.869653
 20
341.525756
 30
0.0
  0
SPLINE
  5
29f
100
AcDbEntity
  8
Layer_1
 62
7
100
AcDbSpline
 70
8
 71
3
 72
8
 73
4
 74
0
 40
0
 40
0
 40
0
 40
0
 40
1
 40
1
 40
1
 40
1
 10
76.987569
 20
341.525756
 30
0.0
 10
76.987569
 20
342.309921
 30
0.0
 10
77.623334
 20
342.945686
 30
0.0
 10
78.407500
 20
342.945686
 30
0.0
  0
SPLINE
  5
2a0
100
AcDbEntity
  8
Layer_1
 62
7
100
AcDbSpline
 70
8
 71
3
 72
8
 73
4
 74
0
 40
0
 40
0
 40
0
 40
0
 40
1
 40
1
 40
1
 40
1
 10
78.407500
 20
342.945686
 30
0.0
 10
79.191666
 20
342.945686
 30
0.0
 10
79.827430
 20
342.309921
 30
0.0
 10
79.827430
 20
341.525756
 30
0.0
  0
LWPOLYLINE
  5
2a1
100
AcDbEntity
  8
Layer_1
 62
7
100
AcDbPolyline
 90
2
 70
1
 10
67.471389
 20
341.525756
 30
0.0
 10
76.987569
 20
341.525756
 30
0.0
  0
SPLINE
  5
2a2
100
AcDbEntity
  8
Layer_1
 62
7
100
AcDbSpline
 70
8
 71
3
 72
8
 73
4
 74
0
 40
0
 40
0
 40
0
 40
0
 40
1
 40
1
 40
1
 40
1
 10
94.820500
 20
341.225894
 30
0.0
 10
94.798205
 20
341.321621
 30
0.0
 10
94.785222
 20
341.423188
 30
0.0
 10
94.785222
 20
341.525756
 30
0.0
  0
SPLINE
  5
2a3
100
AcDbEntity
  8
Layer_1
 62
7
100
AcDbSpline
 70
8
 71
3
 72
8
 73
4
 74
0
 40
0
 40
0
 40
0
 40
0
 40
1
 40
1
 40
1
 40
1
 10
94.785222
 20
341.525756
 30
0.0
 10
94.785222
 20
342.244573
 30
0.0
 10
95.362847
 20
342.822214
 30
0.0
 10
96.081667
 20
342.822214
 30
0.0
  0
SPLINE
  5
2a4
100
AcDbEntity
  8
Layer_1
 62
7
100
AcDbSpline
 70
8
 71
3
 72
8
 73
4
 74
0
 40
0
 40
0
 40
0
 40
0
 40
1
 40
1
 40
1
 40
1
 10
96.081667
 20
342.822214
 30
0.0
 10
96.800487
 20
342.822214
 30
0.0
 10
97.386944
 20
342.244573
 30
0.0
 10
97.386944
 20
341.525756
 30
0.0
  0
LWPOLYLINE
  5
2a5
100
AcDbEntity
  8
Layer_1
 62
7
100
AcDbPolyline
 90
4
 70
1
 10
79.827430
 20
341.525756
 30
0.0
 10
79.827430
 20
338.527144
 30
0.0
 10
94.820500
 20
338.527144
 30
0.0
 10
94.820500
 20
341.225894
 30
0.0
  0
SPLINE
  5
2a6
100
AcDbEntity
  8
Layer_1
 62
7
100
AcDbSpline
 70
8
 71
3
 72
8
 73
4
 74
0
 40
0
 40
0
 40
0
 40
0
 40
1
 40
1
 40
1
 40
1
 10
102.220000
 20
341.525756
 30
0.0
 10
102.220000
 20
342.244573
 30
0.0
 10
102.806458
 20
342.822214
 30
0.0
 10
103.525278
 20
342.822214
 30
0.0
  0
SPLINE
  5
2a7
100
AcDbEntity
  8
Layer_1
 62
7
100
AcDbSpline
 70
8
 71
3
 72
8
 73
4
 74
0
 40
0
 40
0
 40
0
 40
0
 40
1
 40
1
 40
1
 40
1
 10
103.525278
 20
342.822214
 30
0.0
 10
104.244098
 20
342.822214
 30
0.0
 10
104.821750
 20
342.244573
 30
0.0
 10
104.821750
 20
341.525756
 30
0.0
  0
LWPOLYLINE
  5
2a8
100
AcDbEntity
  8
Layer_1
 62
7
100
AcDbPolyline
 90
2
 70
1
 10
97.386944
 20
341.525756
 30
0.0
 10
102.220000
 20
341.525756
 30
0.0
  0
SPLINE
  5
2a9
100
AcDbEntity
  8
Layer_1
 62
7
100
AcDbSpline
 70
8
 71
3
 72
8
 73
4
 74
0
 40
0
 40
0
 40
0
 40
0
 40
1
 40
1
 40
1
 40
1
 10
119.823611
 20
341.525756
 30
0.0
 10
119.823611
 20
342.244573
 30
0.0
 10
120.410069
 20
342.822214
 30
0.0
 10
121.128889
 20
342.822214
 30
0.0
  0
SPLINE
  5
2aa
100
AcDbEntity
  8
Layer_1
 62
7
100
AcDbSpline
 70
8
 71
3
 72
8
 73
4
 74
0
 40
0
 40
0
 40
0
 40
0
 40
1
 40
1
 40
1
 40
1
 10
121.128889
 20
342.822214
 30
0.0
 10
121.847709
 20
342.822214
 30
0.0
 10
122.425361
 20
342.244573
 30
0.0
 10
122.425361
 20
341.525756
 30
0.0
  0
LWPOLYLINE
  5
2ab
100
AcDbEntity
  8
Layer_1
 62
7
100
AcDbPolyline
 90
4
 70
1
 10
104.821750
 20
341.525756
 30
0.0
 10
104.821750
 20
338.527144
 30
0.0
 10
119.823611
 20
338.527144
 30
0.0
 10
119.823611
 20
341.525756
 30
0.0
  0
SPLINE
  5
2ac
100
AcDbEntity
  8
Layer_1
 62
7
100
AcDbSpline
 70
8
 71
3
 72
8
 73
4
 74
0
 40
0
 40
0
 40
0
 40
0
 40
1
 40
1
 40
1
 40
1
 10
132.223750
 20
341.525756
 30
0.0
 10
132.223750
 20
342.244573
 30
0.0
 10
132.801402
 20
342.822214
 30
0.0
 10
133.520222
 20
342.822214
 30
0.0
  0
SPLINE
  5
2ad
100
AcDbEntity
  8
Layer_1
 62
7
100
AcDbSpline
 70
8
 71
3
 72
8
 73
4
 74
0
 40
0
 40
0
 40
0
 40
0
 40
1
 40
1
 40
1
 40
1
 10
133.520222
 20
342.822214
 30
0.0
 10
134.239042
 20
342.822214
 30
0.0
 10
134.825500
 20
342.244573
 30
0.0
 10
134.825500
 20
341.525756
 30
0.0
  0
LWPOLYLINE
  5
2ae
100
AcDbEntity
  8
Layer_1
 62
7
100
AcDbPolyline
 90
2
 70
1
 10
122.425361
 20
341.525756
 30
0.0
 10
132.223750
 20
341.525756
 30
0.0
  0
SPLINE
  5
2af
100
AcDbEntity
  8
Layer_1
 62
7
100
AcDbSpline
 70
8
 71
3
 72
8
 73
4
 74
0
 40
0
 40
0
 40
0
 40
0
 40
1
 40
1
 40
1
 40
1
 10
149.827361
 20
341.525756
 30
0.0
 10
149.827361
 20
342.244573
 30
0.0
 10
150.405013
 20
342.822214
 30
0.0
 10
151.123833
 20
342.822214
 30
0.0
  0
SPLINE
  5
2b0
100
AcDbEntity
  8
Layer_1
 62
7
100
AcDbSpline
 70
8
 71
3
 72
8
 73
4
 74
0
 40
0
 40
0
 40
0
 40
0
 40
1
 40
1
 40
1
 40
1
 10
151.123833
 20
342.822214
 30
0.0
 10
151.842653
 20
342.822214
 30
0.0
 10
152.429111
 20
342.244573
 30
0.0
 10
152.429111
 20
341.525756
 30
0.0
  0
LWPOLYLINE
  5
2b1
100
AcDbEntity
  8
Layer_1
 62
7
100
AcDbPolyline
 90
4
 70
1
 10
134.825500
 20
341.525756
 30
0.0
 10
134.825500
 20
338.527144
 30
0.0
 10
149.827361
 20
338.527144
 30
0.0
 10
149.827361
 20
341.525756
 30
0.0
  0
SPLINE
  5
2b2
100
AcDbEntity
  8
Layer_1
 62
7
100
AcDbSpline
 70
8
 71
3
 72
8
 73
4
 74
0
 40
0
 40
0
 40
0
 40
0
 40
1
 40
1
 40
1
 40
1
 10
162.218695
 20
341.525756
 30
0.0
 10
162.218695
 20
342.244573
 30
0.0
 10
162.805152
 20
342.822214
 30
0.0
 10
163.523972
 20
342.822214
 30
0.0
  0
SPLINE
  5
2b3
100
AcDbEntity
  8
Layer_1
 62
7
100
AcDbSpline
 70
8
 71
3
 72
8
 73
4
 74
0
 40
0
 40
0
 40
0
 40
0
 40
1
 40
1
 40
1
 40
1
 10
163.523972
 20
342.822214
 30
0.0
 10
164.242792
 20
342.822214
 30
0.0
 10
164.820417
 20
342.244573
 30
0.0
 10
164.820417
 20
341.525756
 30
0.0
  0
LWPOLYLINE
  5
2b4
100
AcDbEntity
  8
Layer_1
 62
7
100
AcDbPolyline
 90
2
 70
1
 10
152.429111
 20
341.525756
 30
0.0
 10
162.218695
 20
341.525756
 30
0.0
  0
SPLINE
  5
2b5
100
AcDbEntity
  8
Layer_1
 62
7
100
AcDbSpline
 70
8
 71
3
 72
8
 73
4
 74
0
 40
0
 40
0
 40
0
 40
0
 40
1
 40
1
 40
1
 40
1
 10
179.822306
 20
341.525756
 30
0.0
 10
179.822306
 20
342.244573
 30
0.0
 10
180.408763
 20
342.822214
 30
0.0
 10
181.127583
 20
342.822214
 30
0.0
  0
SPLINE
  5
2b6
100
AcDbEntity
  8
Layer_1
 62
7
100
AcDbSpline
 70
8
 71
3
 72
8
 73
4
 74
0
 40
0
 40
0
 40
0
 40
0
 40
1
 40
1
 40
1
 40
1
 10
181.127583
 20
342.822214
 30
0.0
 10
181.846403
 20
342.822214
 30
0.0
 10
182.423999
 20
342.244573
 30
0.0
 10
182.424056
 20
341.525756
 30
0.0
  0
LWPOLYLINE
  5
2b7
100
AcDbEntity
  8
Layer_1
 62
7
100
AcDbPolyline
 90
4
 70
1
 10
164.820417
 20
341.525756
 30
0.0
 10
164.820417
 20
338.527144
 30
0.0
 10
179.822306
 20
338.527144
 30
0.0
 10
179.822306
 20
341.525756
 30
0.0
  0
SPLINE
  5
2b8
100
AcDbEntity
  8
Layer_1
 62
7
100
AcDbSpline
 70
8
 71
3
 72
8
 73
4
 74
0
 40
0
 40
0
 40
0
 40
0
 40
1
 40
1
 40
1
 40
1
 10
189.585445
 20
353.943533
 30
0.0
 10
188.979401
 20
354.054980
 30
0.0
 10
188.518278
 20
354.584491
 30
0.0
 10
188.518278
 20
355.222353
 30
0.0
  0
SPLINE
  5
2b9
100
AcDbEntity
  8
Layer_1
 62
7
100
AcDbSpline
 70
8
 71
3
 72
8
 73
4
 74
0
 40
0
 40
0
 40
0
 40
0
 40
1
 40
1
 40
1
 40
1
 10
188.518278
 20
355.222353
 30
0.0
 10
188.518278
 20
355.860215
 30
0.0
 10
188.979711
 20
356.389726
 30
0.0
 10
189.585445
 20
356.501172
 30
0.0
  0
LWPOLYLINE
  5
2ba
100
AcDbEntity
  8
Layer_1
 62
7
100
AcDbPolyline
 90
3
 70
1
 10
182.424056
 20
341.525756
 30
0.0
 10
189.585445
 20
341.525756
 30
0.0
 10
189.585445
 20
353.943533
 30
0.0
  0
SPLINE
  5
2bb
100
AcDbEntity
  8
Layer_1
 62
7
100
AcDbSpline
 70
8
 71
3
 72
8
 73
4
 74
0
 40
0
 40
0
 40
0
 40
0
 40
1
 40
1
 40
1
 40
1
 10
189.585445
 20
376.547843
 30
0.0
 10
188.979373
 20
376.659292
 30
0.0
 10
188.518278
 20
377.188798
 30
0.0
 10
188.518278
 20
377.826676
 30
0.0
  0
SPLINE
  5
2bc
100
AcDbEntity
  8
Layer_1
 62
7
100
AcDbSpline
 70
8
 71
3
 72
8
 73
4
 74
0
 40
0
 40
0
 40
0
 40
0
 40
1
 40
1
 40
1
 40
1
 10
188.518278
 20
377.826676
 30
0.0
 10
188.518278
 20
378.464527
 30
0.0
 10
188.979711
 20
378.985227
 30
0.0
 10
189.585445
 20
379.096676
 30
0.0
  0
LWPOLYLINE
  5
2bd
100
AcDbEntity
  8
Layer_1
 62
7
100
AcDbPolyline
 90
8
 70
1
 10
189.585445
 20
356.501172
 30
0.0
 10
189.585445
 20
356.527616
 30
0.0
 10
189.823556
 20
356.527616
 30
0.0
 10
192.822167
 20
356.527616
 30
0.0
 10
192.822167
 20
376.521314
 30
0.0
 10
189.823556
 20
376.521314
 30
0.0
 10
189.585445
 20
376.521314
 30
0.0
 10
189.585445
 20
376.547843
 30
0.0
  0
SPLINE
  5
2be
100
AcDbEntity
  8
Layer_1
 62
7
100
AcDbSpline
 70
8
 71
3
 72
8
 73
4
 74
0
 40
0
 40
0
 40
0
 40
0
 40
1
 40
1
 40
1
 40
1
 10
182.397583
 20
391.285149
 30
0.0
 10
182.286134
 20
390.679500
 30
0.0
 10
181.765434
 20
390.226815
 30
0.0
 10
181.127583
 20
390.226815
 30
0.0
  0
SPLINE
  5
2bf
100
AcDbEntity
  8
Layer_1
 62
7
100
AcDbSpline
 70
8
 71
3
 72
8
 73
4
 74
0
 40
0
 40
0
 40
0
 40
0
 40
1
 40
1
 40
1
 40
1
 10
181.127583
 20
390.226815
 30
0.0
 10
180.489733
 20
390.226815
 30
0.0
 10
179.960199
 20
390.679500
 30
0.0
 10
179.848778
 20
391.285149
 30
0.0
  0
LWPOLYLINE
  5
2c0
100
AcDbEntity
  8
Layer_1
 62
7
100
AcDbPolyline
 90
3
 70
1
 10
189.585445
 20
379.096676
 30
0.0
 10
189.585445
 20
391.285149
 30
0.0
 10
182.397583
 20
391.285149
 30
0.0
  0
SPLINE
  5
2c1
100
AcDbEntity
  8
Layer_1
 62
7
100
AcDbSpline
 70
8
 71
3
 72
8
 73
4
 74
0
 40
0
 40
0
 40
0
 40
0
 40
1
 40
1
 40
1
 40
1
 10
164.793831
 20
391.285149
 30
0.0
 10
164.682382
 20
390.679500
 30
0.0
 10
164.161682
 20
390.226815
 30
0.0
 10
163.523831
 20
390.226815
 30
0.0
  0
SPLINE
  5
2c2
100
AcDbEntity
  8
Layer_1
 62
7
100
AcDbSpline
 70
8
 71
3
 72
8
 73
4
 74
0
 40
0
 40
0
 40
0
 40
0
 40
1
 40
1
 40
1
 40
1
 10
163.523831
 20
390.226815
 30
0.0
 10
162.885953
 20
390.226815
 30
0.0
 10
162.356447
 20
390.679500
 30
0.0
 10
162.244998
 20
391.285149
 30
0.0
  0
LWPOLYLINE
  5
2c3
100
AcDbEntity
  8
Layer_1
 62
7
100
AcDbPolyline
 90
8
 70
1
 10
179.848778
 20
391.285149
 30
0.0
 10
179.822249
 20
391.285149
 30
0.0
 10
179.822249
 20
391.523260
 30
0.0
 10
179.822249
 20
394.521871
 30
0.0
 10
164.820360
 20
394.521871
 30
0.0
 10
164.820360
 20
391.523260
 30
0.0
 10
164.820360
 20
391.285149
 30
0.0
 10
164.793831
 20
391.285149
 30
0.0
  0
SPLINE
  5
2c4
100
AcDbEntity
  8
Layer_1
 62
7
100
AcDbSpline
 70
8
 71
3
 72
8
 73
4
 74
0
 40
0
 40
0
 40
0
 40
0
 40
1
 40
1
 40
1
 40
1
 10
152.402498
 20
391.285149
 30
0.0
 10
152.291048
 20
390.679500
 30
0.0
 10
151.761543
 20
390.226815
 30
0.0
 10
151.123692
 20
390.226815
 30
0.0
  0
SPLINE
  5
2c5
100
AcDbEntity
  8
Layer_1
 62
7
100
AcDbSpline
 70
8
 71
3
 72
8
 73
4
 74
0
 40
0
 40
0
 40
0
 40
0
 40
1
 40
1
 40
1
 40
1
 10
151.123692
 20
390.226815
 30
0.0
 10
150.485814
 20
390.226815
 30
0.0
 10
149.965142
 20
390.679500
 30
0.0
 10
149.853692
 20
391.285149
 30
0.0
  0
LWPOLYLINE
  5
2c6
100
AcDbEntity
  8
Layer_1
 62
7
100
AcDbPolyline
 90
2
 70
1
 10
162.244998
 20
391.285149
 30
0.0
 10
152.402498
 20
391.285149
 30
0.0
  0
SPLINE
  5
2c7
100
AcDbEntity
  8
Layer_1
 62
7
100
AcDbSpline
 70
8
 71
3
 72
8
 73
4
 74
0
 40
0
 40
0
 40
0
 40
0
 40
1
 40
1
 40
1
 40
1
 10
134.798774
 20
391.285149
 30
0.0
 10
134.687324
 20
390.679500
 30
0.0
 10
134.157819
 20
390.226815
 30
0.0
 10
133.519968
 20
390.226815
 30
0.0
  0
SPLINE
  5
2c8
100
AcDbEntity
  8
Layer_1
 62
7
100
AcDbSpline
 70
8
 71
3
 72
8
 73
4
 74
0
 40
0
 40
0
 40
0
 40
0
 40
1
 40
1
 40
1
 40
1
 10
133.519968
 20
390.226815
 30
0.0
 10
132.882090
 20
390.226815
 30
0.0
 10
132.361418
 20
390.679500
 30
0.0
 10
132.249968
 20
391.285149
 30
0.0
  0
LWPOLYLINE
  5
2c9
100
AcDbEntity
  8
Layer_1
 62
7
100
AcDbPolyline
 90
8
 70
1
 10
149.853692
 20
391.285149
 30
0.0
 10
149.827163
 20
391.285149
 30
0.0
 10
149.827163
 20
391.523260
 30
0.0
 10
149.827163
 20
394.521871
 30
0.0
 10
134.825303
 20
394.521871
 30
0.0
 10
134.825303
 20
391.523260
 30
0.0
 10
134.825303
 20
391.285149
 30
0.0
 10
134.798774
 20
391.285149
 30
0.0
  0
SPLINE
  5
2ca
100
AcDbEntity
  8
Layer_1
 62
7
100
AcDbSpline
 70
8
 71
3
 72
8
 73
4
 74
0
 40
0
 40
0
 40
0
 40
0
 40
1
 40
1
 40
1
 40
1
 10
122.398635
 20
391.285149
 30
0.0
 10
122.287185
 20
390.679500
 30
0.0
 10
121.766513
 20
390.226815
 30
0.0
 10
121.128635
 20
390.226815
 30
0.0
  0
SPLINE
  5
2cb
100
AcDbEntity
  8
Layer_1
 62
7
100
AcDbSpline
 70
8
 71
3
 72
8
 73
4
 74
0
 40
0
 40
0
 40
0
 40
0
 40
1
 40
1
 40
1
 40
1
 10
121.128635
 20
390.226815
 30
0.0
 10
120.490784
 20
390.226815
 30
0.0
 10
119.961279
 20
390.679500
 30
0.0
 10
119.849829
 20
391.285149
 30
0.0
  0
LWPOLYLINE
  5
2cc
100
AcDbEntity
  8
Layer_1
 62
7
100
AcDbPolyline
 90
2
 70
1
 10
132.249968
 20
391.285149
 30
0.0
 10
122.398635
 20
391.285149
 30
0.0
  0
SPLINE
  5
2cd
100
AcDbEntity
  8
Layer_1
 62
7
100
AcDbSpline
 70
8
 71
3
 72
8
 73
4
 74
0
 40
0
 40
0
 40
0
 40
0
 40
1
 40
1
 40
1
 40
1
 10
104.794911
 20
391.285149
 30
0.0
 10
104.683461
 20
390.679500
 30
0.0
 10
104.162761
 20
390.226815
 30
0.0
 10
103.524911
 20
390.226815
 30
0.0
  0
SPLINE
  5
2ce
100
AcDbEntity
  8
Layer_1
 62
7
100
AcDbSpline
 70
8
 71
3
 72
8
 73
4
 74
0
 40
0
 40
0
 40
0
 40
0
 40
1
 40
1
 40
1
 40
1
 10
103.524911
 20
390.226815
 30
0.0
 10
102.887032
 20
390.226815
 30
0.0
 10
102.357527
 20
390.679500
 30
0.0
 10
102.246077
 20
391.285149
 30
0.0
  0
LWPOLYLINE
  5
2cf
100
AcDbEntity
  8
Layer_1
 62
7
100
AcDbPolyline
 90
8
 70
1
 10
119.849829
 20
391.285149
 30
0.0
 10
119.823301
 20
391.285149
 30
0.0
 10
119.823301
 20
391.523260
 30
0.0
 10
119.823301
 20
394.521871
 30
0.0
 10
104.821440
 20
394.521871
 30
0.0
 10
104.821440
 20
391.523260
 30
0.0
 10
104.821440
 20
391.285149
 30
0.0
 10
104.794911
 20
391.285149
 30
0.0
  0
SPLINE
  5
2d0
100
AcDbEntity
  8
Layer_1
 62
7
100
AcDbSpline
 70
8
 71
3
 72
8
 73
4
 74
0
 40
0
 40
0
 40
0
 40
0
 40
1
 40
1
 40
1
 40
1
 10
97.404216
 20
391.285149
 30
0.0
 10
97.292767
 20
390.679500
 30
0.0
 10
96.763261
 20
390.226815
 30
0.0
 10
96.125383
 20
390.226815
 30
0.0
  0
SPLINE
  5
2d1
100
AcDbEntity
  8
Layer_1
 62
7
100
AcDbSpline
 70
8
 71
3
 72
8
 73
4
 74
0
 40
0
 40
0
 40
0
 40
0
 40
1
 40
1
 40
1
 40
1
 10
96.125383
 20
390.226815
 30
0.0
 10
95.487532
 20
390.226815
 30
0.0
 10
94.958027
 20
390.679500
 30
0.0
 10
94.846577
 20
391.285149
 30
0.0
  0
LWPOLYLINE
  5
2d2
100
AcDbEntity
  8
Layer_1
 62
7
100
AcDbPolyline
 90
2
 70
1
 10
102.246077
 20
391.285149
 30
0.0
 10
97.404216
 20
391.285149
 30
0.0
  0
SPLINE
  5
2d3
100
AcDbEntity
  8
Layer_1
 62
7
100
AcDbSpline
 70
8
 71
3
 72
8
 73
4
 74
0
 40
0
 40
0
 40
0
 40
0
 40
1
 40
1
 40
1
 40
1
 10
79.800535
 20
391.285149
 30
0.0
 10
79.689088
 20
390.679500
 30
0.0
 10
79.159577
 20
390.226815
 30
0.0
 10
78.521715
 20
390.226815
 30
0.0
  0
SPLINE
  5
2d4
100
AcDbEntity
  8
Layer_1
 62
7
100
AcDbSpline
 70
8
 71
3
 72
8
 73
4
 74
0
 40
0
 40
0
 40
0
 40
0
 40
1
 40
1
 40
1
 40
1
 10
78.521715
 20
390.226815
 30
0.0
 10
77.883853
 20
390.226815
 30
0.0
 10
77.354343
 20
390.679500
 30
0.0
 10
77.242896
 20
391.285149
 30
0.0
  0
LWPOLYLINE
  5
2d5
100
AcDbEntity
  8
Layer_1
 62
7
100
AcDbPolyline
 90
8
 70
1
 10
94.846577
 20
391.285149
 30
0.0
 10
94.820049
 20
391.285149
 30
0.0
 10
94.820049
 20
391.523260
 30
0.0
 10
94.820049
 20
394.521871
 30
0.0
 10
79.826979
 20
394.521871
 30
0.0
 10
79.826979
 20
391.523260
 30
0.0
 10
79.826979
 20
391.285149
 30
0.0
 10
79.800535
 20
391.285149
 30
0.0
  0
SPLINE
  5
2d6
100
AcDbEntity
  8
Layer_1
 62
7
100
AcDbSpline
 70
8
 71
3
 72
8
 73
4
 74
0
 40
0
 40
0
 40
0
 40
0
 40
1
 40
1
 40
1
 40
1
 10
67.400396
 20
391.285149
 30
0.0
 10
67.288949
 20
390.679500
 30
0.0
 10
66.759438
 20
390.226815
 30
0.0
 10
66.121576
 20
390.226815
 30
0.0
  0
SPLINE
  5
2d7
100
AcDbEntity
  8
Layer_1
 62
7
100
AcDbSpline
 70
8
 71
3
 72
8
 73
4
 74
0
 40
0
 40
0
 40
0
 40
0
 40
1
 40
1
 40
1
 40
1
 10
66.121576
 20
390.226815
 30
0.0
 10
65.483715
 20
390.226815
 30
0.0
 10
64.963023
 20
390.679500
 30
0.0
 10
64.851576
 20
391.285149
 30
0.0
  0
LWPOLYLINE
  5
2d8
100
AcDbEntity
  8
Layer_1
 62
7
100
AcDbPolyline
 90
2
 70
1
 10
77.242896
 20
391.285149
 30
0.0
 10
67.400396
 20
391.285149
 30
0.0
  0
SPLINE
  5
2d9
100
AcDbEntity
  8
Layer_1
 62
7
100
AcDbSpline
 70
8
 71
3
 72
8
 73
4
 74
0
 40
0
 40
0
 40
0
 40
0
 40
1
 40
1
 40
1
 40
1
 10
49.796813
 20
391.285149
 30
0.0
 10
49.685366
 20
390.679500
 30
0.0
 10
49.155855
 20
390.226815
 30
0.0
 10
48.517993
 20
390.226815
 30
0.0
  0
SPLINE
  5
2da
100
AcDbEntity
  8
Layer_1
 62
7
100
AcDbSpline
 70
8
 71
3
 72
8
 73
4
 74
0
 40
0
 40
0
 40
0
 40
0
 40
1
 40
1
 40
1
 40
1
 10
48.517993
 20
390.226815
 30
0.0
 10
47.880132
 20
390.226815
 30
0.0
 10
47.359440
 20
390.679500
 30
0.0
 10
47.247993
 20
391.285149
 30
0.0
  0
LWPOLYLINE
  5
2db
100
AcDbEntity
  8
Layer_1
 62
7
100
AcDbPolyline
 90
8
 70
1
 10
64.851576
 20
391.285149
 30
0.0
 10
64.825132
 20
391.285149
 30
0.0
 10
64.825132
 20
391.523260
 30
0.0
 10
64.825132
 20
394.521871
 30
0.0
 10
49.823257
 20
394.521871
 30
0.0
 10
49.823257
 20
391.523260
 30
0.0
 10
49.823257
 20
391.285149
 30
0.0
 10
49.796813
 20
391.285149
 30
0.0
  0
SPLINE
  5
2dc
100
AcDbEntity
  8
Layer_1
 62
7
100
AcDbSpline
 70
8
 71
3
 72
8
 73
4
 74
0
 40
0
 40
0
 40
0
 40
0
 40
1
 40
1
 40
1
 40
1
 10
37.396674
 20
391.285149
 30
0.0
 10
37.285227
 20
390.679500
 30
0.0
 10
36.764536
 20
390.226815
 30
0.0
 10
36.126674
 20
390.226815
 30
0.0
  0
SPLINE
  5
2dd
100
AcDbEntity
  8
Layer_1
 62
7
100
AcDbSpline
 70
8
 71
3
 72
8
 73
4
 74
0
 40
0
 40
0
 40
0
 40
0
 40
1
 40
1
 40
1
 40
1
 10
36.126674
 20
390.226815
 30
0.0
 10
35.488812
 20
390.226815
 30
0.0
 10
34.959301
 20
390.679500
 30
0.0
 10
34.847855
 20
391.285149
 30
0.0
  0
LWPOLYLINE
  5
2de
100
AcDbEntity
  8
Layer_1
 62
7
100
AcDbPolyline
 90
2
 70
1
 10
47.247993
 20
391.285149
 30
0.0
 10
37.396674
 20
391.285149
 30
0.0
  0
LWPOLYLINE
  5
2df
100
AcDbEntity
  8
Layer_1
 62
7
100
AcDbPolyline
 90
6
 70
1
 10
34.847855
 20
391.285149
 30
0.0
 10
34.821410
 20
391.285149
 30
0.0
 10
34.821410
 20
391.523260
 30
0.0
 10
34.821410
 20
394.521871
 30
0.0
 10
19.819535
 20
394.521871
 30
0.0
 10
19.819916
 20
394.521786
 30
0.0
  0
SPLINE
  5
2e0
100
AcDbEntity
  8
Layer_1
 62
7
100
AcDbSpline
 70
8
 71
3
 72
8
 73
4
 74
0
 40
0
 40
0
 40
0
 40
0
 40
1
 40
1
 40
1
 40
1
 10
268.736945
 20
580.017015
 30
0.0
 10
269.369800
 20
579.928256
 30
0.0
 10
269.857028
 20
579.395054
 30
0.0
 10
269.857028
 20
578.738184
 30
0.0
  0
SPLINE
  5
2e1
100
AcDbEntity
  8
Layer_1
 62
7
100
AcDbSpline
 70
8
 71
3
 72
8
 73
4
 74
0
 40
0
 40
0
 40
0
 40
0
 40
1
 40
1
 40
1
 40
1
 10
269.857028
 20
578.738184
 30
0.0
 10
269.857028
 20
578.081312
 30
0.0
 10
269.369461
 20
577.539293
 30
0.0
 10
268.736945
 20
577.450545
 30
0.0
  0
LWPOLYLINE
  5
2e2
100
AcDbEntity
  8
Layer_1
 62
7
100
AcDbPolyline
 90
4
 70
1
 10
268.736945
 20
590.432765
 30
0.0
 10
268.736945
 20
587.434154
 30
0.0
 10
268.736945
 20
582.433543
 30
0.0
 10
268.736945
 20
580.017015
 30
0.0
  0
SPLINE
  5
2e3
100
AcDbEntity
  8
Layer_1
 62
7
100
AcDbSpline
 70
8
 71
3
 72
8
 73
4
 74
0
 40
0
 40
0
 40
0
 40
0
 40
1
 40
1
 40
1
 40
1
 10
268.736945
 20
562.413393
 30
0.0
 10
269.369771
 20
562.324645
 30
0.0
 10
269.857028
 20
561.791445
 30
0.0
 10
269.857028
 20
561.134573
 30
0.0
  0
SPLINE
  5
2e4
100
AcDbEntity
  8
Layer_1
 62
7
100
AcDbSpline
 70
8
 71
3
 72
8
 73
4
 74
0
 40
0
 40
0
 40
0
 40
0
 40
1
 40
1
 40
1
 40
1
 10
269.857028
 20
561.134573
 30
0.0
 10
269.857028
 20
560.477701
 30
0.0
 10
269.369461
 20
559.935682
 30
0.0
 10
268.736945
 20
559.846934
 30
0.0
  0
LWPOLYLINE
  5
2e5
100
AcDbEntity
  8
Layer_1
 62
7
100
AcDbPolyline
 90
8
 70
1
 10
268.736945
 20
577.450545
 30
0.0
 10
268.736945
 20
577.432907
 30
0.0
 10
268.560556
 20
577.432907
 30
0.0
 10
265.738333
 20
577.432907
 30
0.0
 10
265.738333
 20
562.431032
 30
0.0
 10
268.560556
 20
562.431032
 30
0.0
 10
268.736945
 20
562.431032
 30
0.0
 10
268.736945
 20
562.413393
 30
0.0
  0
SPLINE
  5
2e6
100
AcDbEntity
  8
Layer_1
 62
7
100
AcDbSpline
 70
8
 71
3
 72
8
 73
4
 74
0
 40
0
 40
0
 40
0
 40
0
 40
1
 40
1
 40
1
 40
1
 10
268.736945
 20
550.022073
 30
0.0
 10
269.369743
 20
549.933326
 30
0.0
 10
269.857028
 20
549.391307
 30
0.0
 10
269.857028
 20
548.734434
 30
0.0
  0
SPLINE
  5
2e7
100
AcDbEntity
  8
Layer_1
 62
7
100
AcDbSpline
 70
8
 71
3
 72
8
 73
4
 74
0
 40
0
 40
0
 40
0
 40
0
 40
1
 40
1
 40
1
 40
1
 10
269.857028
 20
548.734434
 30
0.0
 10
269.857028
 20
548.077562
 30
0.0
 10
269.369461
 20
547.544363
 30
0.0
 10
268.736945
 20
547.455615
 30
0.0
  0
LWPOLYLINE
  5
2e8
100
AcDbEntity
  8
Layer_1
 62
7
100
AcDbPolyline
 90
2
 70
1
 10
268.736945
 20
559.846934
 30
0.0
 10
268.736945
 20
550.022073
 30
0.0
  0
SPLINE
  5
2e9
100
AcDbEntity
  8
Layer_1
 62
7
100
AcDbSpline
 70
8
 71
3
 72
8
 73
4
 74
0
 40
0
 40
0
 40
0
 40
0
 40
1
 40
1
 40
1
 40
1
 10
268.154889
 20
532.365545
 30
0.0
 10
268.281748
 20
532.407052
 30
0.0
 10
268.419501
 20
532.436101
 30
0.0
 10
268.560556
 20
532.436101
 30
0.0
  0
SPLINE
  5
2ea
100
AcDbEntity
  8
Layer_1
 62
7
100
AcDbSpline
 70
8
 71
3
 72
8
 73
4
 74
0
 40
0
 40
0
 40
0
 40
0
 40
1
 40
1
 40
1
 40
1
 10
268.560556
 20
532.436101
 30
0.0
 10
269.279714
 20
532.436101
 30
0.0
 10
269.857028
 20
531.849640
 30
0.0
 10
269.857028
 20
531.130823
 30
0.0
  0
SPLINE
  5
2eb
100
AcDbEntity
  8
Layer_1
 62
7
100
AcDbSpline
 70
8
 71
3
 72
8
 73
4
 74
0
 40
0
 40
0
 40
0
 40
0
 40
1
 40
1
 40
1
 40
1
 10
269.857028
 20
531.130823
 30
0.0
 10
269.857028
 20
530.473951
 30
0.0
 10
269.369461
 20
529.940751
 30
0.0
 10
268.736945
 20
529.852004
 30
0.0
  0
LWPOLYLINE
  5
2ec
100
AcDbEntity
  8
Layer_1
 62
7
100
AcDbPolyline
 90
6
 70
1
 10
268.736945
 20
547.455615
 30
0.0
 10
268.736945
 20
547.437976
 30
0.0
 10
268.560556
 20
547.437976
 30
0.0
 10
265.941195
 20
547.437976
 30
0.0
 10
265.941195
 20
532.365545
 30
0.0
 10
268.154889
 20
532.365545
 30
0.0
  0
SPLINE
  5
2ed
100
AcDbEntity
  8
Layer_1
 62
7
100
AcDbSpline
 70
8
 71
3
 72
8
 73
4
 74
0
 40
0
 40
0
 40
0
 40
0
 40
1
 40
1
 40
1
 40
1
 10
268.736945
 20
525.018948
 30
0.0
 10
269.369687
 20
524.930201
 30
0.0
 10
269.857028
 20
524.397001
 30
0.0
 10
269.857028
 20
523.740129
 30
0.0
  0
SPLINE
  5
2ee
100
AcDbEntity
  8
Layer_1
 62
7
100
AcDbSpline
 70
8
 71
3
 72
8
 73
4
 74
0
 40
0
 40
0
 40
0
 40
0
 40
1
 40
1
 40
1
 40
1
 10
269.857028
 20
523.740129
 30
0.0
 10
269.857028
 20
523.083257
 30
0.0
 10
269.369461
 20
522.541238
 30
0.0
 10
268.736945
 20
522.452490
 30
0.0
  0
LWPOLYLINE
  5
2ef
100
AcDbEntity
  8
Layer_1
 62
7
100
AcDbPolyline
 90
2
 70
1
 10
268.736945
 20
529.852004
 30
0.0
 10
268.736945
 20
525.018948
 30
0.0
  0
SPLINE
  5
2f0
100
AcDbEntity
  8
Layer_1
 62
7
100
AcDbSpline
 70
8
 71
3
 72
8
 73
4
 74
0
 40
0
 40
0
 40
0
 40
0
 40
1
 40
1
 40
1
 40
1
 10
268.146056
 20
507.362420
 30
0.0
 10
268.275935
 20
507.405902
 30
0.0
 10
268.416058
 20
507.432976
 30
0.0
 10
268.560556
 20
507.432976
 30
0.0
  0
SPLINE
  5
2f1
100
AcDbEntity
  8
Layer_1
 62
7
100
AcDbSpline
 70
8
 71
3
 72
8
 73
4
 74
0
 40
0
 40
0
 40
0
 40
0
 40
1
 40
1
 40
1
 40
1
 10
268.560556
 20
507.432976
 30
0.0
 10
269.279658
 20
507.432976
 30
0.0
 10
269.857028
 20
506.855335
 30
0.0
 10
269.857028
 20
506.136518
 30
0.0
  0
SPLINE
  5
2f2
100
AcDbEntity
  8
Layer_1
 62
7
100
AcDbSpline
 70
8
 71
3
 72
8
 73
4
 74
0
 40
0
 40
0
 40
0
 40
0
 40
1
 40
1
 40
1
 40
1
 10
269.857028
 20
506.136518
 30
0.0
 10
269.857028
 20
505.479645
 30
0.0
 10
269.369461
 20
504.937626
 30
0.0
 10
268.736945
 20
504.848879
 30
0.0
  0
LWPOLYLINE
  5
2f3
100
AcDbEntity
  8
Layer_1
 62
7
100
AcDbPolyline
 90
6
 70
1
 10
268.736945
 20
522.452490
 30
0.0
 10
268.736945
 20
522.434851
 30
0.0
 10
268.560556
 20
522.434851
 30
0.0
 10
265.941195
 20
522.434851
 30
0.0
 10
265.941195
 20
507.362420
 30
0.0
 10
268.146056
 20
507.362420
 30
0.0
  0
SPLINE
  5
2f4
100
AcDbEntity
  8
Layer_1
 62
7
100
AcDbSpline
 70
8
 71
3
 72
8
 73
4
 74
0
 40
0
 40
0
 40
0
 40
0
 40
1
 40
1
 40
1
 40
1
 10
268.736945
 20
495.024018
 30
0.0
 10
269.369546
 20
494.935270
 30
0.0
 10
269.857028
 20
494.393251
 30
0.0
 10
269.857028
 20
493.736379
 30
0.0
  0
SPLINE
  5
2f5
100
AcDbEntity
  8
Layer_1
 62
7
100
AcDbSpline
 70
8
 71
3
 72
8
 73
4
 74
0
 40
0
 40
0
 40
0
 40
0
 40
1
 40
1
 40
1
 40
1
 10
269.857028
 20
493.736379
 30
0.0
 10
269.857028
 20
493.079507
 30
0.0
 10
269.369461
 20
492.537488
 30
0.0
 10
268.736945
 20
492.448740
 30
0.0
  0
LWPOLYLINE
  5
2f6
100
AcDbEntity
  8
Layer_1
 62
7
100
AcDbPolyline
 90
2
 70
1
 10
268.736945
 20
504.848879
 30
0.0
 10
268.736945
 20
495.024018
 30
0.0
  0
SPLINE
  5
2f7
100
AcDbEntity
  8
Layer_1
 62
7
100
AcDbSpline
 70
8
 71
3
 72
8
 73
4
 74
0
 40
0
 40
0
 40
0
 40
0
 40
1
 40
1
 40
1
 40
1
 10
268.154889
 20
477.367490
 30
0.0
 10
268.281946
 20
477.408996
 30
0.0
 10
268.419501
 20
477.438045
 30
0.0
 10
268.560556
 20
477.438045
 30
0.0
  0
SPLINE
  5
2f8
100
AcDbEntity
  8
Layer_1
 62
7
100
AcDbSpline
 70
8
 71
3
 72
8
 73
4
 74
0
 40
0
 40
0
 40
0
 40
0
 40
1
 40
1
 40
1
 40
1
 10
268.560556
 20
477.438045
 30
0.0
 10
269.279517
 20
477.438045
 30
0.0
 10
269.857028
 20
476.851585
 30
0.0
 10
269.857028
 20
476.132768
 30
0.0
  0
SPLINE
  5
2f9
100
AcDbEntity
  8
Layer_1
 62
7
100
AcDbSpline
 70
8
 71
3
 72
8
 73
4
 74
0
 40
0
 40
0
 40
0
 40
0
 40
1
 40
1
 40
1
 40
1
 10
269.857028
 20
476.132768
 30
0.0
 10
269.857028
 20
475.475895
 30
0.0
 10
269.369461
 20
474.933876
 30
0.0
 10
268.736945
 20
474.845129
 30
0.0
  0
LWPOLYLINE
  5
2fa
100
AcDbEntity
  8
Layer_1
 62
7
100
AcDbPolyline
 90
6
 70
1
 10
268.736945
 20
492.448740
 30
0.0
 10
268.736945
 20
492.431101
 30
0.0
 10
268.560556
 20
492.431101
 30
0.0
 10
265.941195
 20
492.431101
 30
0.0
 10
265.941195
 20
477.367490
 30
0.0
 10
268.154889
 20
477.367490
 30
0.0
  0
SPLINE
  5
2fb
100
AcDbEntity
  8
Layer_1
 62
7
100
AcDbSpline
 70
8
 71
3
 72
8
 73
4
 74
0
 40
0
 40
0
 40
0
 40
0
 40
1
 40
1
 40
1
 40
1
 10
283.729994
 20
466.801795
 30
0.0
 10
283.625205
 20
466.989448
 30
0.0
 10
283.553606
 20
467.206528
 30
0.0
 10
283.553606
 20
467.436795
 30
0.0
  0
SPLINE
  5
2fc
100
AcDbEntity
  8
Layer_1
 62
7
100
AcDbSpline
 70
8
 71
3
 72
8
 73
4
 74
0
 40
0
 40
0
 40
0
 40
0
 40
1
 40
1
 40
1
 40
1
 10
283.553606
 20
467.436795
 30
0.0
 10
283.553606
 20
468.155613
 30
0.0
 10
284.140176
 20
468.733254
 30
0.0
 10
284.858883
 20
468.733254
 30
0.0
  0
SPLINE
  5
2fd
100
AcDbEntity
  8
Layer_1
 62
7
100
AcDbSpline
 70
8
 71
3
 72
8
 73
4
 74
0
 40
0
 40
0
 40
0
 40
0
 40
1
 40
1
 40
1
 40
1
 10
284.858883
 20
468.733254
 30
0.0
 10
285.577816
 20
468.733254
 30
0.0
 10
286.155356
 20
468.155613
 30
0.0
 10
286.155356
 20
467.436795
 30
0.0
  0
LWPOLYLINE
  5
2fe
100
AcDbEntity
  8
Layer_1
 62
7
100
AcDbPolyline
 90
6
 70
1
 10
268.736945
 20
474.845129
 30
0.0
 10
268.736945
 20
472.437420
 30
0.0
 10
268.736945
 20
467.436795
 30
0.0
 10
268.736945
 20
464.438184
 30
0.0
 10
283.729994
 20
464.438184
 30
0.0
 10
283.729994
 20
466.801795
 30
0.0
  0
SPLINE
  5
2ff
100
AcDbEntity
  8
Layer_1
 62
7
100
AcDbSpline
 70
8
 71
3
 72
8
 73
4
 74
0
 40
0
 40
0
 40
0
 40
0
 40
1
 40
1
 40
1
 40
1
 10
300.954384
 20
467.436795
 30
0.0
 10
300.954384
 20
468.155613
 30
0.0
 10
301.532121
 20
468.733254
 30
0.0
 10
302.250828
 20
468.733254
 30
0.0
  0
SPLINE
  5
300
100
AcDbEntity
  8
Layer_1
 62
7
100
AcDbSpline
 70
8
 71
3
 72
8
 73
4
 74
0
 40
0
 40
0
 40
0
 40
0
 40
1
 40
1
 40
1
 40
1
 10
302.250828
 20
468.733254
 30
0.0
 10
302.969732
 20
468.733254
 30
0.0
 10
303.556106
 20
468.155613
 30
0.0
 10
303.556106
 20
467.436795
 30
0.0
  0
LWPOLYLINE
  5
301
100
AcDbEntity
  8
Layer_1
 62
7
100
AcDbPolyline
 90
2
 70
1
 10
286.155356
 20
467.436795
 30
0.0
 10
300.954384
 20
467.436795
 30
0.0
  0
SPLINE
  5
302
100
AcDbEntity
  8
Layer_1
 62
7
100
AcDbSpline
 70
8
 71
3
 72
8
 73
4
 74
0
 40
0
 40
0
 40
0
 40
0
 40
1
 40
1
 40
1
 40
1
 10
318.734384
 20
474.845129
 30
0.0
 10
318.676641
 20
474.837283
 30
0.0
 10
318.617882
 20
474.827490
 30
0.0
 10
318.557995
 20
474.827490
 30
0.0
  0
SPLINE
  5
303
100
AcDbEntity
  8
Layer_1
 62
7
100
AcDbSpline
 70
8
 71
3
 72
8
 73
4
 74
0
 40
0
 40
0
 40
0
 40
0
 40
1
 40
1
 40
1
 40
1
 10
318.557995
 20
474.827490
 30
0.0
 10
317.839175
 20
474.827490
 30
0.0
 10
317.252717
 20
475.413951
 30
0.0
 10
317.252717
 20
476.132768
 30
0.0
  0
SPLINE
  5
304
100
AcDbEntity
  8
Layer_1
 62
7
100
AcDbSpline
 70
8
 71
3
 72
8
 73
4
 74
0
 40
0
 40
0
 40
0
 40
0
 40
1
 40
1
 40
1
 40
1
 10
317.252717
 20
476.132768
 30
0.0
 10
317.252717
 20
476.851585
 30
0.0
 10
317.839175
 20
477.438045
 30
0.0
 10
318.557995
 20
477.438045
 30
0.0
  0
SPLINE
  5
305
100
AcDbEntity
  8
Layer_1
 62
7
100
AcDbSpline
 70
8
 71
3
 72
8
 73
4
 74
0
 40
0
 40
0
 40
0
 40
0
 40
1
 40
1
 40
1
 40
1
 10
318.557995
 20
477.438045
 30
0.0
 10
318.697751
 20
477.438045
 30
0.0
 10
318.828618
 20
477.408271
 30
0.0
 10
318.954884
 20
477.367490
 30
0.0
  0
LWPOLYLINE
  5
306
100
AcDbEntity
  8
Layer_1
 62
7
100
AcDbPolyline
 90
7
 70
1
 10
303.556106
 20
467.436795
 30
0.0
 10
303.732494
 20
467.436795
 30
0.0
 10
303.732494
 20
464.438184
 30
0.0
 10
318.734384
 20
464.438184
 30
0.0
 10
318.734384
 20
467.436795
 30
0.0
 10
318.734384
 20
472.437420
 30
0.0
 10
318.734384
 20
474.845129
 30
0.0
  0
SPLINE
  5
307
100
AcDbEntity
  8
Layer_1
 62
7
100
AcDbSpline
 70
8
 71
3
 72
8
 73
4
 74
0
 40
0
 40
0
 40
0
 40
0
 40
1
 40
1
 40
1
 40
1
 10
318.734384
 20
492.448740
 30
0.0
 10
318.676641
 20
492.440894
 30
0.0
 10
318.617882
 20
492.431101
 30
0.0
 10
318.557995
 20
492.431101
 30
0.0
  0
SPLINE
  5
308
100
AcDbEntity
  8
Layer_1
 62
7
100
AcDbSpline
 70
8
 71
3
 72
8
 73
4
 74
0
 40
0
 40
0
 40
0
 40
0
 40
1
 40
1
 40
1
 40
1
 10
318.557995
 20
492.431101
 30
0.0
 10
317.839175
 20
492.431101
 30
0.0
 10
317.252717
 20
493.017562
 30
0.0
 10
317.252717
 20
493.736379
 30
0.0
  0
SPLINE
  5
309
100
AcDbEntity
  8
Layer_1
 62
7
100
AcDbSpline
 70
8
 71
3
 72
8
 73
4
 74
0
 40
0
 40
0
 40
0
 40
0
 40
1
 40
1
 40
1
 40
1
 10
317.252717
 20
493.736379
 30
0.0
 10
317.252717
 20
494.455196
 30
0.0
 10
317.839175
 20
495.041657
 30
0.0
 10
318.557995
 20
495.041657
 30
0.0
  0
SPLINE
  5
30a
100
AcDbEntity
  8
Layer_1
 62
7
100
AcDbSpline
 70
8
 71
3
 72
8
 73
4
 74
0
 40
0
 40
0
 40
0
 40
0
 40
1
 40
1
 40
1
 40
1
 10
318.557995
 20
495.041657
 30
0.0
 10
318.617882
 20
495.041657
 30
0.0
 10
318.676641
 20
495.031863
 30
0.0
 10
318.734384
 20
495.024018
 30
0.0
  0
LWPOLYLINE
  5
30b
100
AcDbEntity
  8
Layer_1
 62
7
100
AcDbPolyline
 90
5
 70
1
 10
318.954884
 20
477.367490
 30
0.0
 10
321.344939
 20
477.367490
 30
0.0
 10
321.344939
 20
492.431101
 30
0.0
 10
318.734384
 20
492.431101
 30
0.0
 10
318.734384
 20
492.448740
 30
0.0
  0
SPLINE
  5
30c
100
AcDbEntity
  8
Layer_1
 62
7
100
AcDbSpline
 70
8
 71
3
 72
8
 73
4
 74
0
 40
0
 40
0
 40
0
 40
0
 40
1
 40
1
 40
1
 40
1
 10
318.734384
 20
504.848879
 30
0.0
 10
318.676641
 20
504.841033
 30
0.0
 10
318.617882
 20
504.831240
 30
0.0
 10
318.557995
 20
504.831240
 30
0.0
  0
SPLINE
  5
30d
100
AcDbEntity
  8
Layer_1
 62
7
100
AcDbSpline
 70
8
 71
3
 72
8
 73
4
 74
0
 40
0
 40
0
 40
0
 40
0
 40
1
 40
1
 40
1
 40
1
 10
318.557995
 20
504.831240
 30
0.0
 10
317.839175
 20
504.831240
 30
0.0
 10
317.252717
 20
505.417701
 30
0.0
 10
317.252717
 20
506.136518
 30
0.0
  0
SPLINE
  5
30e
100
AcDbEntity
  8
Layer_1
 62
7
100
AcDbSpline
 70
8
 71
3
 72
8
 73
4
 74
0
 40
0
 40
0
 40
0
 40
0
 40
1
 40
1
 40
1
 40
1
 10
317.252717
 20
506.136518
 30
0.0
 10
317.252717
 20
506.855335
 30
0.0
 10
317.839175
 20
507.432976
 30
0.0
 10
318.557995
 20
507.432976
 30
0.0
  0
SPLINE
  5
30f
100
AcDbEntity
  8
Layer_1
 62
7
100
AcDbSpline
 70
8
 71
3
 72
8
 73
4
 74
0
 40
0
 40
0
 40
0
 40
0
 40
1
 40
1
 40
1
 40
1
 10
318.557995
 20
507.432976
 30
0.0
 10
318.704383
 20
507.432976
 30
0.0
 10
318.841176
 20
507.406983
 30
0.0
 10
318.972494
 20
507.362420
 30
0.0
  0
LWPOLYLINE
  5
310
100
AcDbEntity
  8
Layer_1
 62
7
100
AcDbPolyline
 90
2
 70
1
 10
318.734384
 20
495.024018
 30
0.0
 10
318.734384
 20
504.848879
 30
0.0
  0
SPLINE
  5
311
100
AcDbEntity
  8
Layer_1
 62
7
100
AcDbSpline
 70
8
 71
3
 72
8
 73
4
 74
0
 40
0
 40
0
 40
0
 40
0
 40
1
 40
1
 40
1
 40
1
 10
318.734384
 20
522.452490
 30
0.0
 10
318.676641
 20
522.444644
 30
0.0
 10
318.617882
 20
522.434851
 30
0.0
 10
318.557995
 20
522.434851
 30
0.0
  0
SPLINE
  5
312
100
AcDbEntity
  8
Layer_1
 62
7
100
AcDbSpline
 70
8
 71
3
 72
8
 73
4
 74
0
 40
0
 40
0
 40
0
 40
0
 40
1
 40
1
 40
1
 40
1
 10
318.557995
 20
522.434851
 30
0.0
 10
317.839175
 20
522.434851
 30
0.0
 10
317.252717
 20
523.021312
 30
0.0
 10
317.252717
 20
523.740129
 30
0.0
  0
SPLINE
  5
313
100
AcDbEntity
  8
Layer_1
 62
7
100
AcDbSpline
 70
8
 71
3
 72
8
 73
4
 74
0
 40
0
 40
0
 40
0
 40
0
 40
1
 40
1
 40
1
 40
1
 10
317.252717
 20
523.740129
 30
0.0
 10
317.252717
 20
524.458946
 30
0.0
 10
317.839175
 20
525.036587
 30
0.0
 10
318.557995
 20
525.036587
 30
0.0
  0
SPLINE
  5
314
100
AcDbEntity
  8
Layer_1
 62
7
100
AcDbSpline
 70
8
 71
3
 72
8
 73
4
 74
0
 40
0
 40
0
 40
0
 40
0
 40
1
 40
1
 40
1
 40
1
 10
318.557995
 20
525.036587
 30
0.0
 10
318.617882
 20
525.036587
 30
0.0
 10
318.676641
 20
525.026794
 30
0.0
 10
318.734384
 20
525.018948
 30
0.0
  0
LWPOLYLINE
  5
315
100
AcDbEntity
  8
Layer_1
 62
7
100
AcDbPolyline
 90
5
 70
1
 10
318.972494
 20
507.362420
 30
0.0
 10
321.344939
 20
507.362420
 30
0.0
 10
321.344939
 20
522.434851
 30
0.0
 10
318.734384
 20
522.434851
 30
0.0
 10
318.734384
 20
522.452490
 30
0.0
  0
SPLINE
  5
316
100
AcDbEntity
  8
Layer_1
 62
7
100
AcDbSpline
 70
8
 71
3
 72
8
 73
4
 74
0
 40
0
 40
0
 40
0
 40
0
 40
1
 40
1
 40
1
 40
1
 10
318.734384
 20
529.852004
 30
0.0
 10
318.676641
 20
529.844158
 30
0.0
 10
318.617882
 20
529.834365
 30
0.0
 10
318.557995
 20
529.834365
 30
0.0
  0
SPLINE
  5
317
100
AcDbEntity
  8
Layer_1
 62
7
100
AcDbSpline
 70
8
 71
3
 72
8
 73
4
 74
0
 40
0
 40
0
 40
0
 40
0
 40
1
 40
1
 40
1
 40
1
 10
318.557995
 20
529.834365
 30
0.0
 10
317.839175
 20
529.834365
 30
0.0
 10
317.252717
 20
530.412006
 30
0.0
 10
317.252717
 20
531.130823
 30
0.0
  0
SPLINE
  5
318
100
AcDbEntity
  8
Layer_1
 62
7
100
AcDbSpline
 70
8
 71
3
 72
8
 73
4
 74
0
 40
0
 40
0
 40
0
 40
0
 40
1
 40
1
 40
1
 40
1
 10
317.252717
 20
531.130823
 30
0.0
 10
317.252717
 20
531.849640
 30
0.0
 10
317.839175
 20
532.436101
 30
0.0
 10
318.557995
 20
532.436101
 30
0.0
  0
SPLINE
  5
319
100
AcDbEntity
  8
Layer_1
 62
7
100
AcDbSpline
 70
8
 71
3
 72
8
 73
4
 74
0
 40
0
 40
0
 40
0
 40
0
 40
1
 40
1
 40
1
 40
1
 10
318.557995
 20
532.436101
 30
0.0
 10
318.697751
 20
532.436101
 30
0.0
 10
318.828589
 20
532.406327
 30
0.0
 10
318.954884
 20
532.365545
 30
0.0
  0
LWPOLYLINE
  5
31a
100
AcDbEntity
  8
Layer_1
 62
7
100
AcDbPolyline
 90
2
 70
1
 10
318.734384
 20
525.018948
 30
0.0
 10
318.734384
 20
529.852004
 30
0.0
  0
SPLINE
  5
31b
100
AcDbEntity
  8
Layer_1
 62
7
100
AcDbSpline
 70
8
 71
3
 72
8
 73
4
 74
0
 40
0
 40
0
 40
0
 40
0
 40
1
 40
1
 40
1
 40
1
 10
318.734384
 20
547.455615
 30
0.0
 10
318.676641
 20
547.447769
 30
0.0
 10
318.617882
 20
547.437976
 30
0.0
 10
318.557995
 20
547.437976
 30
0.0
  0
SPLINE
  5
31c
100
AcDbEntity
  8
Layer_1
 62
7
100
AcDbSpline
 70
8
 71
3
 72
8
 73
4
 74
0
 40
0
 40
0
 40
0
 40
0
 40
1
 40
1
 40
1
 40
1
 10
318.557995
 20
547.437976
 30
0.0
 10
317.839175
 20
547.437976
 30
0.0
 10
317.252717
 20
548.015617
 30
0.0
 10
317.252717
 20
548.734434
 30
0.0
  0
SPLINE
  5
31d
100
AcDbEntity
  8
Layer_1
 62
7
100
AcDbSpline
 70
8
 71
3
 72
8
 73
4
 74
0
 40
0
 40
0
 40
0
 40
0
 40
1
 40
1
 40
1
 40
1
 10
317.252717
 20
548.734434
 30
0.0
 10
317.252717
 20
549.453252
 30
0.0
 10
317.839175
 20
550.039712
 30
0.0
 10
318.557995
 20
550.039712
 30
0.0
  0
SPLINE
  5
31e
100
AcDbEntity
  8
Layer_1
 62
7
100
AcDbSpline
 70
8
 71
3
 72
8
 73
4
 74
0
 40
0
 40
0
 40
0
 40
0
 40
1
 40
1
 40
1
 40
1
 10
318.557995
 20
550.039712
 30
0.0
 10
318.617882
 20
550.039712
 30
0.0
 10
318.676641
 20
550.029919
 30
0.0
 10
318.734384
 20
550.022073
 30
0.0
  0
LWPOLYLINE
  5
31f
100
AcDbEntity
  8
Layer_1
 62
7
100
AcDbPolyline
 90
5
 70
1
 10
318.954884
 20
532.365545
 30
0.0
 10
321.344939
 20
532.365545
 30
0.0
 10
321.344939
 20
547.437976
 30
0.0
 10
318.734384
 20
547.437976
 30
0.0
 10
318.734384
 20
547.455615
 30
0.0
  0
SPLINE
  5
320
100
AcDbEntity
  8
Layer_1
 62
7
100
AcDbSpline
 70
8
 71
3
 72
8
 73
4
 74
0
 40
0
 40
0
 40
0
 40
0
 40
1
 40
1
 40
1
 40
1
 10
318.734384
 20
559.846934
 30
0.0
 10
318.676641
 20
559.839089
 30
0.0
 10
318.617882
 20
559.829295
 30
0.0
 10
318.557995
 20
559.829295
 30
0.0
  0
SPLINE
  5
321
100
AcDbEntity
  8
Layer_1
 62
7
100
AcDbSpline
 70
8
 71
3
 72
8
 73
4
 74
0
 40
0
 40
0
 40
0
 40
0
 40
1
 40
1
 40
1
 40
1
 10
318.557995
 20
559.829295
 30
0.0
 10
317.839175
 20
559.829295
 30
0.0
 10
317.252717
 20
560.415756
 30
0.0
 10
317.252717
 20
561.134573
 30
0.0
  0
SPLINE
  5
322
100
AcDbEntity
  8
Layer_1
 62
7
100
AcDbSpline
 70
8
 71
3
 72
8
 73
4
 74
0
 40
0
 40
0
 40
0
 40
0
 40
1
 40
1
 40
1
 40
1
 10
317.252717
 20
561.134573
 30
0.0
 10
317.252717
 20
561.853390
 30
0.0
 10
317.839175
 20
562.431032
 30
0.0
 10
318.557995
 20
562.431032
 30
0.0
  0
SPLINE
  5
323
100
AcDbEntity
  8
Layer_1
 62
7
100
AcDbSpline
 70
8
 71
3
 72
8
 73
4
 74
0
 40
0
 40
0
 40
0
 40
0
 40
1
 40
1
 40
1
 40
1
 10
318.557995
 20
562.431032
 30
0.0
 10
318.617882
 20
562.431032
 30
0.0
 10
318.676641
 20
562.421238
 30
0.0
 10
318.734384
 20
562.413393
 30
0.0
  0
LWPOLYLINE
  5
324
100
AcDbEntity
  8
Layer_1
 62
7
100
AcDbPolyline
 90
2
 70
1
 10
318.734384
 20
550.022073
 30
0.0
 10
318.734384
 20
559.846934
 30
0.0
  0
SPLINE
  5
325
100
AcDbEntity
  8
Layer_1
 62
7
100
AcDbSpline
 70
8
 71
3
 72
8
 73
4
 74
0
 40
0
 40
0
 40
0
 40
0
 40
1
 40
1
 40
1
 40
1
 10
318.734384
 20
577.450545
 30
0.0
 10
318.676641
 20
577.442700
 30
0.0
 10
318.617882
 20
577.432907
 30
0.0
 10
318.557995
 20
577.432907
 30
0.0
  0
SPLINE
  5
326
100
AcDbEntity
  8
Layer_1
 62
7
100
AcDbSpline
 70
8
 71
3
 72
8
 73
4
 74
0
 40
0
 40
0
 40
0
 40
0
 40
1
 40
1
 40
1
 40
1
 10
318.557995
 20
577.432907
 30
0.0
 10
317.839175
 20
577.432907
 30
0.0
 10
317.252717
 20
578.019367
 30
0.0
 10
317.252717
 20
578.738184
 30
0.0
  0
SPLINE
  5
327
100
AcDbEntity
  8
Layer_1
 62
7
100
AcDbSpline
 70
8
 71
3
 72
8
 73
4
 74
0
 40
0
 40
0
 40
0
 40
0
 40
1
 40
1
 40
1
 40
1
 10
317.252717
 20
578.738184
 30
0.0
 10
317.252717
 20
579.457002
 30
0.0
 10
317.839175
 20
580.034654
 30
0.0
 10
318.557995
 20
580.034654
 30
0.0
  0
SPLINE
  5
328
100
AcDbEntity
  8
Layer_1
 62
7
100
AcDbSpline
 70
8
 71
3
 72
8
 73
4
 74
0
 40
0
 40
0
 40
0
 40
0
 40
1
 40
1
 40
1
 40
1
 10
318.557995
 20
580.034654
 30
0.0
 10
318.617882
 20
580.034654
 30
0.0
 10
318.676641
 20
580.024776
 30
0.0
 10
318.734384
 20
580.017156
 30
0.0
  0
LWPOLYLINE
  5
329
100
AcDbEntity
  8
Layer_1
 62
7
100
AcDbPolyline
 90
6
 70
1
 10
318.734384
 20
562.413393
 30
0.0
 10
318.734384
 20
562.431032
 30
0.0
 10
321.556606
 20
562.431032
 30
0.0
 10
321.556606
 20
577.432907
 30
0.0
 10
318.734384
 20
577.432907
 30
0.0
 10
318.734384
 20
577.450545
 30
0.0
  0
SPLINE
  5
32a
100
AcDbEntity
  8
Layer_1
 62
7
100
AcDbSpline
 70
8
 71
3
 72
8
 73
4
 74
0
 40
0
 40
0
 40
0
 40
0
 40
1
 40
1
 40
1
 40
1
 10
303.556106
 20
587.434295
 30
0.0
 10
303.556106
 20
586.715475
 30
0.0
 10
302.969761
 20
586.129017
 30
0.0
 10
302.250828
 20
586.129017
 30
0.0
  0
SPLINE
  5
32b
100
AcDbEntity
  8
Layer_1
 62
7
100
AcDbSpline
 70
8
 71
3
 72
8
 73
4
 74
0
 40
0
 40
0
 40
0
 40
0
 40
1
 40
1
 40
1
 40
1
 10
302.250828
 20
586.129017
 30
0.0
 10
301.532516
 20
586.129017
 30
0.0
 10
300.954384
 20
586.715475
 30
0.0
 10
300.954384
 20
587.434295
 30
0.0
  0
LWPOLYLINE
  5
32c
100
AcDbEntity
  8
Layer_1
 62
7
100
AcDbPolyline
 90
7
 70
1
 10
318.734384
 20
580.017156
 30
0.0
 10
318.734384
 20
582.433684
 30
0.0
 10
318.734384
 20
587.434295
 30
0.0
 10
318.734384
 20
590.432906
 30
0.0
 10
303.732494
 20
590.432906
 30
0.0
 10
303.732494
 20
587.434295
 30
0.0
 10
303.556106
 20
587.434295
 30
0.0
  0
SPLINE
  5
32d
100
AcDbEntity
  8
Layer_1
 62
7
100
AcDbSpline
 70
8
 71
3
 72
8
 73
4
 74
0
 40
0
 40
0
 40
0
 40
0
 40
1
 40
1
 40
1
 40
1
 10
286.296467
 20
587.434295
 30
0.0
 10
286.296467
 20
586.715475
 30
0.0
 10
285.718927
 20
586.129017
 30
0.0
 10
284.999994
 20
586.129017
 30
0.0
  0
SPLINE
  5
32e
100
AcDbEntity
  8
Layer_1
 62
7
100
AcDbSpline
 70
8
 71
3
 72
8
 73
4
 74
0
 40
0
 40
0
 40
0
 40
0
 40
1
 40
1
 40
1
 40
1
 10
284.999994
 20
586.129017
 30
0.0
 10
284.281654
 20
586.129017
 30
0.0
 10
283.694773
 20
586.715475
 30
0.0
 10
283.694717
 20
587.434295
 30
0.0
  0
SPLINE
  5
32f
100
AcDbEntity
  8
Layer_1
 62
7
100
AcDbSpline
 70
8
 71
3
 72
8
 73
4
 74
0
 40
0
 40
0
 40
0
 40
0
 40
1
 40
1
 40
1
 40
1
 10
283.694717
 20
587.434295
 30
0.0
 10
283.694717
 20
587.533806
 30
0.0
 10
283.708828
 20
587.632217
 30
0.0
 10
283.729994
 20
587.725351
 30
0.0
  0
LWPOLYLINE
  5
330
100
AcDbEntity
  8
Layer_1
 62
7
100
AcDbPolyline
 90
2
 70
1
 10
300.954384
 20
587.434295
 30
0.0
 10
286.296467
 20
587.434295
 30
0.0
  0
LWPOLYLINE
  5
331
100
AcDbEntity
  8
Layer_1
 62
7
100
AcDbPolyline
 90
4
 70
1
 10
283.729994
 20
587.725351
 30
0.0
 10
283.729994
 20
590.432906
 30
0.0
 10
268.736945
 20
590.432906
 30
0.0
 10
268.736945
 20
590.432765
 30
0.0
  0
SPLINE
  5
332
100
AcDbEntity
  8
Layer_1
 62
7
100
AcDbSpline
 70
8
 71
3
 72
8
 73
4
 74
0
 40
0
 40
0
 40
0
 40
0
 40
1
 40
1
 40
1
 40
1
 10
210.000001
 20
580.152397
 30
0.0
 10
210.593088
 20
580.031042
 30
0.0
 10
211.040695
 20
579.511358
 30
0.0
 10
211.040695
 20
578.882394
 30
0.0
  0
SPLINE
  5
333
100
AcDbEntity
  8
Layer_1
 62
7
100
AcDbSpline
 70
8
 71
3
 72
8
 73
4
 74
0
 40
0
 40
0
 40
0
 40
0
 40
1
 40
1
 40
1
 40
1
 10
211.040695
 20
578.882394
 30
0.0
 10
211.040695
 20
578.253428
 30
0.0
 10
210.593088
 20
577.724939
 30
0.0
 10
210.000001
 20
577.603575
 30
0.0
  0
LWPOLYLINE
  5
334
100
AcDbEntity
  8
Layer_1
 62
7
100
AcDbPolyline
 90
3
 70
1
 10
210.000001
 20
590.576952
 30
0.0
 10
210.000001
 20
582.577730
 30
0.0
 10
210.000001
 20
580.152397
 30
0.0
  0
SPLINE
  5
335
100
AcDbEntity
  8
Layer_1
 62
7
100
AcDbSpline
 70
8
 71
3
 72
8
 73
4
 74
0
 40
0
 40
0
 40
0
 40
0
 40
1
 40
1
 40
1
 40
1
 10
210.000001
 20
562.548811
 30
0.0
 10
210.593088
 20
562.427447
 30
0.0
 10
211.040695
 20
561.907777
 30
0.0
 10
211.040695
 20
561.278811
 30
0.0
  0
SPLINE
  5
336
100
AcDbEntity
  8
Layer_1
 62
7
100
AcDbSpline
 70
8
 71
3
 72
8
 73
4
 74
0
 40
0
 40
0
 40
0
 40
0
 40
1
 40
1
 40
1
 40
1
 10
211.040695
 20
561.278811
 30
0.0
 10
211.040695
 20
560.649845
 30
0.0
 10
210.593088
 20
560.121356
 30
0.0
 10
210.000001
 20
559.999992
 30
0.0
  0
LWPOLYLINE
  5
337
100
AcDbEntity
  8
Layer_1
 62
7
100
AcDbPolyline
 90
8
 70
1
 10
210.000001
 20
577.603575
 30
0.0
 10
210.000001
 20
577.577131
 30
0.0
 10
209.735417
 20
577.577131
 30
0.0
 10
206.736806
 20
577.577131
 30
0.0
 10
206.736806
 20
562.575256
 30
0.0
 10
209.735417
 20
562.575256
 30
0.0
 10
210.000001
 20
562.575256
 30
0.0
 10
210.000001
 20
562.548811
 30
0.0
  0
SPLINE
  5
338
100
AcDbEntity
  8
Layer_1
 62
7
100
AcDbSpline
 70
8
 71
3
 72
8
 73
4
 74
0
 40
0
 40
0
 40
0
 40
0
 40
1
 40
1
 40
1
 40
1
 10
210.000001
 20
550.157492
 30
0.0
 10
210.593088
 20
550.036128
 30
0.0
 10
211.040695
 20
549.507639
 30
0.0
 10
211.040695
 20
548.878673
 30
0.0
  0
SPLINE
  5
339
100
AcDbEntity
  8
Layer_1
 62
7
100
AcDbSpline
 70
8
 71
3
 72
8
 73
4
 74
0
 40
0
 40
0
 40
0
 40
0
 40
1
 40
1
 40
1
 40
1
 10
211.040695
 20
548.878673
 30
0.0
 10
211.040695
 20
548.249706
 30
0.0
 10
210.593088
 20
547.730037
 30
0.0
 10
210.000001
 20
547.608673
 30
0.0
  0
LWPOLYLINE
  5
33a
100
AcDbEntity
  8
Layer_1
 62
7
100
AcDbPolyline
 90
2
 70
1
 10
210.000001
 20
559.999992
 30
0.0
 10
210.000001
 20
550.157492
 30
0.0
  0
SPLINE
  5
33b
100
AcDbEntity
  8
Layer_1
 62
7
100
AcDbSpline
 70
8
 71
3
 72
8
 73
4
 74
0
 40
0
 40
0
 40
0
 40
0
 40
1
 40
1
 40
1
 40
1
 10
209.338542
 20
532.509798
 30
0.0
 10
209.465748
 20
532.551304
 30
0.0
 10
209.594354
 20
532.580353
 30
0.0
 10
209.735417
 20
532.580353
 30
0.0
  0
SPLINE
  5
33c
100
AcDbEntity
  8
Layer_1
 62
7
100
AcDbSpline
 70
8
 71
3
 72
8
 73
4
 74
0
 40
0
 40
0
 40
0
 40
0
 40
1
 40
1
 40
1
 40
1
 10
209.735417
 20
532.580353
 30
0.0
 10
210.454234
 20
532.580353
 30
0.0
 10
211.040695
 20
531.993893
 30
0.0
 10
211.040695
 20
531.275076
 30
0.0
  0
SPLINE
  5
33d
100
AcDbEntity
  8
Layer_1
 62
7
100
AcDbSpline
 70
8
 71
3
 72
8
 73
4
 74
0
 40
0
 40
0
 40
0
 40
0
 40
1
 40
1
 40
1
 40
1
 10
211.040695
 20
531.275076
 30
0.0
 10
211.040695
 20
530.646109
 30
0.0
 10
210.593088
 20
530.126440
 30
0.0
 10
210.000001
 20
530.005076
 30
0.0
  0
LWPOLYLINE
  5
33e
100
AcDbEntity
  8
Layer_1
 62
7
100
AcDbPolyline
 90
6
 70
1
 10
210.000001
 20
547.608673
 30
0.0
 10
210.000001
 20
547.582228
 30
0.0
 10
209.735417
 20
547.582228
 30
0.0
 10
206.948473
 20
547.582228
 30
0.0
 10
206.948473
 20
532.509798
 30
0.0
 10
209.338542
 20
532.509798
 30
0.0
  0
SPLINE
  5
33f
100
AcDbEntity
  8
Layer_1
 62
7
100
AcDbSpline
 70
8
 71
3
 72
8
 73
4
 74
0
 40
0
 40
0
 40
0
 40
0
 40
1
 40
1
 40
1
 40
1
 10
210.000001
 20
525.154381
 30
0.0
 10
210.593088
 20
525.033017
 30
0.0
 10
211.040695
 20
524.513347
 30
0.0
 10
211.040695
 20
523.884381
 30
0.0
  0
SPLINE
  5
340
100
AcDbEntity
  8
Layer_1
 62
7
100
AcDbSpline
 70
8
 71
3
 72
8
 73
4
 74
0
 40
0
 40
0
 40
0
 40
0
 40
1
 40
1
 40
1
 40
1
 10
211.040695
 20
523.884381
 30
0.0
 10
211.040695
 20
523.255415
 30
0.0
 10
210.593088
 20
522.726926
 30
0.0
 10
210.000001
 20
522.605562
 30
0.0
  0
LWPOLYLINE
  5
341
100
AcDbEntity
  8
Layer_1
 62
7
100
AcDbPolyline
 90
2
 70
1
 10
210.000001
 20
530.005076
 30
0.0
 10
210.000001
 20
525.154381
 30
0.0
  0
SPLINE
  5
342
100
AcDbEntity
  8
Layer_1
 62
7
100
AcDbSpline
 70
8
 71
3
 72
8
 73
4
 74
0
 40
0
 40
0
 40
0
 40
0
 40
1
 40
1
 40
1
 40
1
 10
209.320903
 20
507.506687
 30
0.0
 10
209.453079
 20
507.551896
 30
0.0
 10
209.587925
 20
507.577242
 30
0.0
 10
209.735417
 20
507.577242
 30
0.0
  0
SPLINE
  5
343
100
AcDbEntity
  8
Layer_1
 62
7
100
AcDbSpline
 70
8
 71
3
 72
8
 73
4
 74
0
 40
0
 40
0
 40
0
 40
0
 40
1
 40
1
 40
1
 40
1
 10
209.735417
 20
507.577242
 30
0.0
 10
210.454234
 20
507.577242
 30
0.0
 10
211.040695
 20
506.999601
 30
0.0
 10
211.040695
 20
506.280784
 30
0.0
  0
SPLINE
  5
344
100
AcDbEntity
  8
Layer_1
 62
7
100
AcDbSpline
 70
8
 71
3
 72
8
 73
4
 74
0
 40
0
 40
0
 40
0
 40
0
 40
1
 40
1
 40
1
 40
1
 10
211.040695
 20
506.280784
 30
0.0
 10
211.040695
 20
505.651818
 30
0.0
 10
210.593088
 20
505.123329
 30
0.0
 10
210.000001
 20
505.001965
 30
0.0
  0
LWPOLYLINE
  5
345
100
AcDbEntity
  8
Layer_1
 62
7
100
AcDbPolyline
 90
6
 70
1
 10
210.000001
 20
522.605562
 30
0.0
 10
210.000001
 20
522.579117
 30
0.0
 10
209.735417
 20
522.579117
 30
0.0
 10
206.948473
 20
522.579117
 30
0.0
 10
206.948473
 20
507.506687
 30
0.0
 10
209.320903
 20
507.506687
 30
0.0
  0
SPLINE
  5
346
100
AcDbEntity
  8
Layer_1
 62
7
100
AcDbSpline
 70
8
 71
3
 72
8
 73
4
 74
0
 40
0
 40
0
 40
0
 40
0
 40
1
 40
1
 40
1
 40
1
 10
210.000001
 20
495.159465
 30
0.0
 10
210.593088
 20
495.038101
 30
0.0
 10
211.040695
 20
494.509611
 30
0.0
 10
211.040695
 20
493.880645
 30
0.0
  0
SPLINE
  5
347
100
AcDbEntity
  8
Layer_1
 62
7
100
AcDbSpline
 70
8
 71
3
 72
8
 73
4
 74
0
 40
0
 40
0
 40
0
 40
0
 40
1
 40
1
 40
1
 40
1
 10
211.040695
 20
493.880645
 30
0.0
 10
211.040695
 20
493.251679
 30
0.0
 10
210.593088
 20
492.723190
 30
0.0
 10
210.000001
 20
492.601826
 30
0.0
  0
LWPOLYLINE
  5
348
100
AcDbEntity
  8
Layer_1
 62
7
100
AcDbPolyline
 90
2
 70
1
 10
210.000001
 20
505.001965
 30
0.0
 10
210.000001
 20
495.159465
 30
0.0
  0
SPLINE
  5
349
100
AcDbEntity
  8
Layer_1
 62
7
100
AcDbSpline
 70
8
 71
3
 72
8
 73
4
 74
0
 40
0
 40
0
 40
0
 40
0
 40
1
 40
1
 40
1
 40
1
 10
209.338542
 20
477.511770
 30
0.0
 10
209.465748
 20
477.553277
 30
0.0
 10
209.594354
 20
477.582326
 30
0.0
 10
209.735417
 20
477.582326
 30
0.0
  0
SPLINE
  5
34a
100
AcDbEntity
  8
Layer_1
 62
7
100
AcDbSpline
 70
8
 71
3
 72
8
 73
4
 74
0
 40
0
 40
0
 40
0
 40
0
 40
1
 40
1
 40
1
 40
1
 10
209.735417
 20
477.582326
 30
0.0
 10
210.454234
 20
477.582326
 30
0.0
 10
211.040695
 20
476.995865
 30
0.0
 10
211.040695
 20
476.277048
 30
0.0
  0
SPLINE
  5
34b
100
AcDbEntity
  8
Layer_1
 62
7
100
AcDbSpline
 70
8
 71
3
 72
8
 73
4
 74
0
 40
0
 40
0
 40
0
 40
0
 40
1
 40
1
 40
1
 40
1
 10
211.040695
 20
476.277048
 30
0.0
 10
211.040695
 20
475.648082
 30
0.0
 10
210.593088
 20
475.119593
 30
0.0
 10
210.000001
 20
474.998229
 30
0.0
  0
LWPOLYLINE
  5
34c
100
AcDbEntity
  8
Layer_1
 62
7
100
AcDbPolyline
 90
6
 70
1
 10
210.000001
 20
492.601826
 30
0.0
 10
210.000001
 20
492.575382
 30
0.0
 10
209.735417
 20
492.575382
 30
0.0
 10
206.948473
 20
492.575382
 30
0.0
 10
206.948473
 20
477.511770
 30
0.0
 10
209.338542
 20
477.511770
 30
0.0
  0
SPLINE
  5
34d
100
AcDbEntity
  8
Layer_1
 62
7
100
AcDbSpline
 70
8
 71
3
 72
8
 73
4
 74
0
 40
0
 40
0
 40
0
 40
0
 40
1
 40
1
 40
1
 40
1
 10
224.993056
 20
467.316493
 30
0.0
 10
224.975728
 20
467.401219
 30
0.0
 10
224.966612
 20
467.491225
 30
0.0
 10
224.966612
 20
467.581076
 30
0.0
  0
SPLINE
  5
34e
100
AcDbEntity
  8
Layer_1
 62
7
100
AcDbSpline
 70
8
 71
3
 72
8
 73
4
 74
0
 40
0
 40
0
 40
0
 40
0
 40
1
 40
1
 40
1
 40
1
 10
224.966612
 20
467.581076
 30
0.0
 10
224.966612
 20
468.299893
 30
0.0
 10
225.544253
 20
468.877534
 30
0.0
 10
226.263070
 20
468.877534
 30
0.0
  0
SPLINE
  5
34f
100
AcDbEntity
  8
Layer_1
 62
7
100
AcDbSpline
 70
8
 71
3
 72
8
 73
4
 74
0
 40
0
 40
0
 40
0
 40
0
 40
1
 40
1
 40
1
 40
1
 10
226.263070
 20
468.877534
 30
0.0
 10
226.981887
 20
468.877534
 30
0.0
 10
227.568348
 20
468.299893
 30
0.0
 10
227.568348
 20
467.581076
 30
0.0
  0
LWPOLYLINE
  5
350
100
AcDbEntity
  8
Layer_1
 62
7
100
AcDbPolyline
 90
5
 70
1
 10
210.000001
 20
474.998229
 30
0.0
 10
210.000001
 20
467.581076
 30
0.0
 10
210.000001
 20
464.582465
 30
0.0
 10
224.993056
 20
464.582465
 30
0.0
 10
224.993056
 20
467.316493
 30
0.0
  0
SPLINE
  5
351
100
AcDbEntity
  8
Layer_1
 62
7
100
AcDbSpline
 70
8
 71
3
 72
8
 73
4
 74
0
 40
0
 40
0
 40
0
 40
0
 40
1
 40
1
 40
1
 40
1
 10
242.411473
 20
467.581076
 30
0.0
 10
242.411473
 20
468.299893
 30
0.0
 10
242.997934
 20
468.877534
 30
0.0
 10
243.716751
 20
468.877534
 30
0.0
  0
SPLINE
  5
352
100
AcDbEntity
  8
Layer_1
 62
7
100
AcDbSpline
 70
8
 71
3
 72
8
 73
4
 74
0
 40
0
 40
0
 40
0
 40
0
 40
1
 40
1
 40
1
 40
1
 10
243.716751
 20
468.877534
 30
0.0
 10
244.435568
 20
468.877534
 30
0.0
 10
245.013209
 20
468.299893
 30
0.0
 10
245.013209
 20
467.581076
 30
0.0
  0
SPLINE
  5
353
100
AcDbEntity
  8
Layer_1
 62
7
100
AcDbSpline
 70
8
 71
3
 72
8
 73
4
 74
0
 40
0
 40
0
 40
0
 40
0
 40
1
 40
1
 40
1
 40
1
 10
245.013209
 20
467.581076
 30
0.0
 10
245.013209
 20
467.521174
 30
0.0
 10
245.003416
 20
467.462441
 30
0.0
 10
244.995570
 20
467.404687
 30
0.0
  0
LWPOLYLINE
  5
354
100
AcDbEntity
  8
Layer_1
 62
7
100
AcDbPolyline
 90
2
 70
1
 10
227.568348
 20
467.581076
 30
0.0
 10
242.411473
 20
467.581076
 30
0.0
  0
SPLINE
  5
355
100
AcDbEntity
  8
Layer_1
 62
7
100
AcDbSpline
 70
8
 71
3
 72
8
 73
4
 74
0
 40
0
 40
0
 40
0
 40
0
 40
1
 40
1
 40
1
 40
1
 10
259.997434
 20
474.998229
 30
0.0
 10
259.912711
 20
474.980900
 30
0.0
 10
259.831544
 20
474.971785
 30
0.0
 10
259.741684
 20
474.971785
 30
0.0
  0
SPLINE
  5
356
100
AcDbEntity
  8
Layer_1
 62
7
100
AcDbSpline
 70
8
 71
3
 72
8
 73
4
 74
0
 40
0
 40
0
 40
0
 40
0
 40
1
 40
1
 40
1
 40
1
 10
259.741684
 20
474.971785
 30
0.0
 10
259.022864
 20
474.971785
 30
0.0
 10
258.436406
 20
475.558245
 30
0.0
 10
258.436406
 20
476.277062
 30
0.0
  0
SPLINE
  5
357
100
AcDbEntity
  8
Layer_1
 62
7
100
AcDbSpline
 70
8
 71
3
 72
8
 73
4
 74
0
 40
0
 40
0
 40
0
 40
0
 40
1
 40
1
 40
1
 40
1
 10
258.436406
 20
476.277062
 30
0.0
 10
258.436406
 20
476.995879
 30
0.0
 10
259.022864
 20
477.582340
 30
0.0
 10
259.741684
 20
477.582340
 30
0.0
  0
SPLINE
  5
358
100
AcDbEntity
  8
Layer_1
 62
7
100
AcDbSpline
 70
8
 71
3
 72
8
 73
4
 74
0
 40
0
 40
0
 40
0
 40
0
 40
1
 40
1
 40
1
 40
1
 10
259.741684
 20
477.582340
 30
0.0
 10
259.882739
 20
477.582340
 30
0.0
 10
260.011347
 20
477.553291
 30
0.0
 10
260.138545
 20
477.511785
 30
0.0
  0
LWPOLYLINE
  5
359
100
AcDbEntity
  8
Layer_1
 62
7
100
AcDbPolyline
 90
5
 70
1
 10
244.995570
 20
467.404687
 30
0.0
 10
244.995570
 20
464.582465
 30
0.0
 10
259.997434
 20
464.582465
 30
0.0
 10
259.997434
 20
472.581701
 30
0.0
 10
259.997434
 20
474.998229
 30
0.0
  0
SPLINE
  5
35a
100
AcDbEntity
  8
Layer_1
 62
7
100
AcDbSpline
 70
8
 71
3
 72
8
 73
4
 74
0
 40
0
 40
0
 40
0
 40
0
 40
1
 40
1
 40
1
 40
1
 10
259.997434
 20
492.601840
 30
0.0
 10
259.912711
 20
492.584511
 30
0.0
 10
259.831544
 20
492.575396
 30
0.0
 10
259.741684
 20
492.575396
 30
0.0
  0
SPLINE
  5
35b
100
AcDbEntity
  8
Layer_1
 62
7
100
AcDbSpline
 70
8
 71
3
 72
8
 73
4
 74
0
 40
0
 40
0
 40
0
 40
0
 40
1
 40
1
 40
1
 40
1
 10
259.741684
 20
492.575396
 30
0.0
 10
259.022864
 20
492.575396
 30
0.0
 10
258.436406
 20
493.161856
 30
0.0
 10
258.436406
 20
493.880673
 30
0.0
  0
SPLINE
  5
35c
100
AcDbEntity
  8
Layer_1
 62
7
100
AcDbSpline
 70
8
 71
3
 72
8
 73
4
 74
0
 40
0
 40
0
 40
0
 40
0
 40
1
 40
1
 40
1
 40
1
 10
258.436406
 20
493.880673
 30
0.0
 10
258.436406
 20
494.599491
 30
0.0
 10
259.022864
 20
495.185951
 30
0.0
 10
259.741684
 20
495.185951
 30
0.0
  0
SPLINE
  5
35d
100
AcDbEntity
  8
Layer_1
 62
7
100
AcDbSpline
 70
8
 71
3
 72
8
 73
4
 74
0
 40
0
 40
0
 40
0
 40
0
 40
1
 40
1
 40
1
 40
1
 10
259.741684
 20
495.185951
 30
0.0
 10
259.831544
 20
495.185951
 30
0.0
 10
259.912711
 20
495.176835
 30
0.0
 10
259.997434
 20
495.159507
 30
0.0
  0
LWPOLYLINE
  5
35e
100
AcDbEntity
  8
Layer_1
 62
7
100
AcDbPolyline
 90
5
 70
1
 10
260.138545
 20
477.511785
 30
0.0
 10
262.784378
 20
477.511785
 30
0.0
 10
262.784378
 20
492.575396
 30
0.0
 10
259.997434
 20
492.575396
 30
0.0
 10
259.997434
 20
492.601840
 30
0.0
  0
SPLINE
  5
35f
100
AcDbEntity
  8
Layer_1
 62
7
100
AcDbSpline
 70
8
 71
3
 72
8
 73
4
 74
0
 40
0
 40
0
 40
0
 40
0
 40
1
 40
1
 40
1
 40
1
 10
259.997434
 20
505.002007
 30
0.0
 10
259.912711
 20
504.984679
 30
0.0
 10
259.831544
 20
504.975563
 30
0.0
 10
259.741684
 20
504.975563
 30
0.0
  0
SPLINE
  5
360
100
AcDbEntity
  8
Layer_1
 62
7
100
AcDbSpline
 70
8
 71
3
 72
8
 73
4
 74
0
 40
0
 40
0
 40
0
 40
0
 40
1
 40
1
 40
1
 40
1
 10
259.741684
 20
504.975563
 30
0.0
 10
259.022864
 20
504.975563
 30
0.0
 10
258.436406
 20
505.562023
 30
0.0
 10
258.436406
 20
506.280841
 30
0.0
  0
SPLINE
  5
361
100
AcDbEntity
  8
Layer_1
 62
7
100
AcDbSpline
 70
8
 71
3
 72
8
 73
4
 74
0
 40
0
 40
0
 40
0
 40
0
 40
1
 40
1
 40
1
 40
1
 10
258.436406
 20
506.280841
 30
0.0
 10
258.436406
 20
506.999658
 30
0.0
 10
259.022864
 20
507.577299
 30
0.0
 10
259.741684
 20
507.577299
 30
0.0
  0
SPLINE
  5
362
100
AcDbEntity
  8
Layer_1
 62
7
100
AcDbSpline
 70
8
 71
3
 72
8
 73
4
 74
0
 40
0
 40
0
 40
0
 40
0
 40
1
 40
1
 40
1
 40
1
 10
259.741684
 20
507.577299
 30
0.0
 10
259.889173
 20
507.577299
 30
0.0
 10
260.024019
 20
507.551955
 30
0.0
 10
260.156184
 20
507.506743
 30
0.0
  0
LWPOLYLINE
  5
363
100
AcDbEntity
  8
Layer_1
 62
7
100
AcDbPolyline
 90
2
 70
1
 10
259.997434
 20
495.159507
 30
0.0
 10
259.997434
 20
505.002007
 30
0.0
  0
SPLINE
  5
364
100
AcDbEntity
  8
Layer_1
 62
7
100
AcDbSpline
 70
8
 71
3
 72
8
 73
4
 74
0
 40
0
 40
0
 40
0
 40
0
 40
1
 40
1
 40
1
 40
1
 10
259.997434
 20
522.605618
 30
0.0
 10
259.912711
 20
522.588290
 30
0.0
 10
259.831544
 20
522.579174
 30
0.0
 10
259.741684
 20
522.579174
 30
0.0
  0
SPLINE
  5
365
100
AcDbEntity
  8
Layer_1
 62
7
100
AcDbSpline
 70
8
 71
3
 72
8
 73
4
 74
0
 40
0
 40
0
 40
0
 40
0
 40
1
 40
1
 40
1
 40
1
 10
259.741684
 20
522.579174
 30
0.0
 10
259.022864
 20
522.579174
 30
0.0
 10
258.436406
 20
523.165634
 30
0.0
 10
258.436406
 20
523.884452
 30
0.0
  0
SPLINE
  5
366
100
AcDbEntity
  8
Layer_1
 62
7
100
AcDbSpline
 70
8
 71
3
 72
8
 73
4
 74
0
 40
0
 40
0
 40
0
 40
0
 40
1
 40
1
 40
1
 40
1
 10
258.436406
 20
523.884452
 30
0.0
 10
258.436406
 20
524.603269
 30
0.0
 10
259.022864
 20
525.180910
 30
0.0
 10
259.741684
 20
525.180910
 30
0.0
  0
SPLINE
  5
367
100
AcDbEntity
  8
Layer_1
 62
7
100
AcDbSpline
 70
8
 71
3
 72
8
 73
4
 74
0
 40
0
 40
0
 40
0
 40
0
 40
1
 40
1
 40
1
 40
1
 10
259.741684
 20
525.180910
 30
0.0
 10
259.831544
 20
525.180910
 30
0.0
 10
259.912711
 20
525.171794
 30
0.0
 10
259.997434
 20
525.154466
 30
0.0
  0
LWPOLYLINE
  5
368
100
AcDbEntity
  8
Layer_1
 62
7
100
AcDbPolyline
 90
5
 70
1
 10
260.156184
 20
507.506743
 30
0.0
 10
262.784378
 20
507.506743
 30
0.0
 10
262.784378
 20
522.579174
 30
0.0
 10
259.997434
 20
522.579174
 30
0.0
 10
259.997434
 20
522.605618
 30
0.0
  0
SPLINE
  5
369
100
AcDbEntity
  8
Layer_1
 62
7
100
AcDbSpline
 70
8
 71
3
 72
8
 73
4
 74
0
 40
0
 40
0
 40
0
 40
0
 40
1
 40
1
 40
1
 40
1
 10
259.997434
 20
530.005160
 30
0.0
 10
259.912711
 20
529.987832
 30
0.0
 10
259.831544
 20
529.978716
 30
0.0
 10
259.741684
 20
529.978716
 30
0.0
  0
SPLINE
  5
36a
100
AcDbEntity
  8
Layer_1
 62
7
100
AcDbSpline
 70
8
 71
3
 72
8
 73
4
 74
0
 40
0
 40
0
 40
0
 40
0
 40
1
 40
1
 40
1
 40
1
 10
259.741684
 20
529.978716
 30
0.0
 10
259.022864
 20
529.978716
 30
0.0
 10
258.436406
 20
530.556357
 30
0.0
 10
258.436406
 20
531.275174
 30
0.0
  0
SPLINE
  5
36b
100
AcDbEntity
  8
Layer_1
 62
7
100
AcDbSpline
 70
8
 71
3
 72
8
 73
4
 74
0
 40
0
 40
0
 40
0
 40
0
 40
1
 40
1
 40
1
 40
1
 10
258.436406
 20
531.275174
 30
0.0
 10
258.436406
 20
531.993991
 30
0.0
 10
259.022864
 20
532.580452
 30
0.0
 10
259.741684
 20
532.580452
 30
0.0
  0
SPLINE
  5
36c
100
AcDbEntity
  8
Layer_1
 62
7
100
AcDbSpline
 70
8
 71
3
 72
8
 73
4
 74
0
 40
0
 40
0
 40
0
 40
0
 40
1
 40
1
 40
1
 40
1
 10
259.741684
 20
532.580452
 30
0.0
 10
259.882739
 20
532.580452
 30
0.0
 10
260.011347
 20
532.551403
 30
0.0
 10
260.138545
 20
532.509897
 30
0.0
  0
LWPOLYLINE
  5
36d
100
AcDbEntity
  8
Layer_1
 62
7
100
AcDbPolyline
 90
2
 70
1
 10
259.997434
 20
525.154466
 30
0.0
 10
259.997434
 20
530.005160
 30
0.0
  0
SPLINE
  5
36e
100
AcDbEntity
  8
Layer_1
 62
7
100
AcDbSpline
 70
8
 71
3
 72
8
 73
4
 74
0
 40
0
 40
0
 40
0
 40
0
 40
1
 40
1
 40
1
 40
1
 10
259.997434
 20
547.608771
 30
0.0
 10
259.912711
 20
547.591443
 30
0.0
 10
259.831544
 20
547.582327
 30
0.0
 10
259.741684
 20
547.582327
 30
0.0
  0
SPLINE
  5
36f
100
AcDbEntity
  8
Layer_1
 62
7
100
AcDbSpline
 70
8
 71
3
 72
8
 73
4
 74
0
 40
0
 40
0
 40
0
 40
0
 40
1
 40
1
 40
1
 40
1
 10
259.741684
 20
547.582327
 30
0.0
 10
259.022864
 20
547.582327
 30
0.0
 10
258.436406
 20
548.159968
 30
0.0
 10
258.436406
 20
548.878785
 30
0.0
  0
SPLINE
  5
370
100
AcDbEntity
  8
Layer_1
 62
7
100
AcDbSpline
 70
8
 71
3
 72
8
 73
4
 74
0
 40
0
 40
0
 40
0
 40
0
 40
1
 40
1
 40
1
 40
1
 10
258.436406
 20
548.878785
 30
0.0
 10
258.436406
 20
549.597603
 30
0.0
 10
259.022864
 20
550.184063
 30
0.0
 10
259.741684
 20
550.184063
 30
0.0
  0
SPLINE
  5
371
100
AcDbEntity
  8
Layer_1
 62
7
100
AcDbSpline
 70
8
 71
3
 72
8
 73
4
 74
0
 40
0
 40
0
 40
0
 40
0
 40
1
 40
1
 40
1
 40
1
 10
259.741684
 20
550.184063
 30
0.0
 10
259.831544
 20
550.184063
 30
0.0
 10
259.912711
 20
550.174947
 30
0.0
 10
259.997434
 20
550.157619
 30
0.0
  0
LWPOLYLINE
  5
372
100
AcDbEntity
  8
Layer_1
 62
7
100
AcDbPolyline
 90
5
 70
1
 10
260.138545
 20
532.509897
 30
0.0
 10
262.784378
 20
532.509897
 30
0.0
 10
262.784378
 20
547.582327
 30
0.0
 10
259.997434
 20
547.582327
 30
0.0
 10
259.997434
 20
547.608771
 30
0.0
  0
SPLINE
  5
373
100
AcDbEntity
  8
Layer_1
 62
7
100
AcDbSpline
 70
8
 71
3
 72
8
 73
4
 74
0
 40
0
 40
0
 40
0
 40
0
 40
1
 40
1
 40
1
 40
1
 10
259.997434
 20
560.000119
 30
0.0
 10
259.912711
 20
559.982791
 30
0.0
 10
259.831544
 20
559.973675
 30
0.0
 10
259.741684
 20
559.973675
 30
0.0
  0
SPLINE
  5
374
100
AcDbEntity
  8
Layer_1
 62
7
100
AcDbSpline
 70
8
 71
3
 72
8
 73
4
 74
0
 40
0
 40
0
 40
0
 40
0
 40
1
 40
1
 40
1
 40
1
 10
259.741684
 20
559.973675
 30
0.0
 10
259.022864
 20
559.973675
 30
0.0
 10
258.436406
 20
560.560135
 30
0.0
 10
258.436406
 20
561.278953
 30
0.0
  0
SPLINE
  5
375
100
AcDbEntity
  8
Layer_1
 62
7
100
AcDbSpline
 70
8
 71
3
 72
8
 73
4
 74
0
 40
0
 40
0
 40
0
 40
0
 40
1
 40
1
 40
1
 40
1
 10
258.436406
 20
561.278953
 30
0.0
 10
258.436406
 20
561.997770
 30
0.0
 10
259.022864
 20
562.575411
 30
0.0
 10
259.741684
 20
562.575411
 30
0.0
  0
SPLINE
  5
376
100
AcDbEntity
  8
Layer_1
 62
7
100
AcDbSpline
 70
8
 71
3
 72
8
 73
4
 74
0
 40
0
 40
0
 40
0
 40
0
 40
1
 40
1
 40
1
 40
1
 10
259.741684
 20
562.575411
 30
0.0
 10
259.831544
 20
562.575411
 30
0.0
 10
259.912711
 20
562.566295
 30
0.0
 10
259.997434
 20
562.548967
 30
0.0
  0
LWPOLYLINE
  5
377
100
AcDbEntity
  8
Layer_1
 62
7
100
AcDbPolyline
 90
2
 70
1
 10
259.997434
 20
550.157619
 30
0.0
 10
259.997434
 20
560.000119
 30
0.0
  0
SPLINE
  5
378
100
AcDbEntity
  8
Layer_1
 62
7
100
AcDbSpline
 70
8
 71
3
 72
8
 73
4
 74
0
 40
0
 40
0
 40
0
 40
0
 40
1
 40
1
 40
1
 40
1
 10
259.997434
 20
577.603730
 30
0.0
 10
259.912711
 20
577.586402
 30
0.0
 10
259.831544
 20
577.577286
 30
0.0
 10
259.741684
 20
577.577286
 30
0.0
  0
SPLINE
  5
379
100
AcDbEntity
  8
Layer_1
 62
7
100
AcDbSpline
 70
8
 71
3
 72
8
 73
4
 74
0
 40
0
 40
0
 40
0
 40
0
 40
1
 40
1
 40
1
 40
1
 10
259.741684
 20
577.577286
 30
0.0
 10
259.022864
 20
577.577286
 30
0.0
 10
258.436406
 20
578.163746
 30
0.0
 10
258.436406
 20
578.882564
 30
0.0
  0
SPLINE
  5
37a
100
AcDbEntity
  8
Layer_1
 62
7
100
AcDbSpline
 70
8
 71
3
 72
8
 73
4
 74
0
 40
0
 40
0
 40
0
 40
0
 40
1
 40
1
 40
1
 40
1
 10
258.436406
 20
578.882564
 30
0.0
 10
258.436406
 20
579.601386
 30
0.0
 10
259.022864
 20
580.179011
 30
0.0
 10
259.741684
 20
580.179011
 30
0.0
  0
SPLINE
  5
37b
100
AcDbEntity
  8
Layer_1
 62
7
100
AcDbSpline
 70
8
 71
3
 72
8
 73
4
 74
0
 40
0
 40
0
 40
0
 40
0
 40
1
 40
1
 40
1
 40
1
 10
259.741684
 20
580.179011
 30
0.0
 10
259.831544
 20
580.179011
 30
0.0
 10
259.912711
 20
580.169980
 30
0.0
 10
259.997434
 20
580.152482
 30
0.0
  0
LWPOLYLINE
  5
37c
100
AcDbEntity
  8
Layer_1
 62
7
100
AcDbPolyline
 90
6
 70
1
 10
259.997434
 20
562.548967
 30
0.0
 10
259.997434
 20
562.575411
 30
0.0
 10
262.996045
 20
562.575411
 30
0.0
 10
262.996045
 20
577.577286
 30
0.0
 10
259.997434
 20
577.577286
 30
0.0
 10
259.997434
 20
577.603730
 30
0.0
  0
SPLINE
  5
37d
100
AcDbEntity
  8
Layer_1
 62
7
100
AcDbSpline
 70
8
 71
3
 72
8
 73
4
 74
0
 40
0
 40
0
 40
0
 40
0
 40
1
 40
1
 40
1
 40
1
 10
244.995570
 20
587.754843
 30
0.0
 10
245.003416
 20
587.697100
 30
0.0
 10
245.013209
 20
587.638370
 30
0.0
 10
245.013209
 20
587.578454
 30
0.0
  0
SPLINE
  5
37e
100
AcDbEntity
  8
Layer_1
 62
7
100
AcDbSpline
 70
8
 71
3
 72
8
 73
4
 74
0
 40
0
 40
0
 40
0
 40
0
 40
1
 40
1
 40
1
 40
1
 10
245.013209
 20
587.578454
 30
0.0
 10
245.013209
 20
586.859634
 30
0.0
 10
244.435568
 20
586.273176
 30
0.0
 10
243.716751
 20
586.273176
 30
0.0
  0
SPLINE
  5
37f
100
AcDbEntity
  8
Layer_1
 62
7
100
AcDbSpline
 70
8
 71
3
 72
8
 73
4
 74
0
 40
0
 40
0
 40
0
 40
0
 40
1
 40
1
 40
1
 40
1
 10
243.716751
 20
586.273176
 30
0.0
 10
242.997934
 20
586.273176
 30
0.0
 10
242.411473
 20
586.859634
 30
0.0
 10
242.411473
 20
587.578454
 30
0.0
  0
LWPOLYLINE
  5
380
100
AcDbEntity
  8
Layer_1
 62
7
100
AcDbPolyline
 90
6
 70
1
 10
259.997434
 20
580.152482
 30
0.0
 10
259.997434
 20
582.577843
 30
0.0
 10
259.997434
 20
587.578454
 30
0.0
 10
259.997434
 20
590.577065
 30
0.0
 10
244.995570
 20
590.577065
 30
0.0
 10
244.995570
 20
587.754843
 30
0.0
  0
SPLINE
  5
381
100
AcDbEntity
  8
Layer_1
 62
7
100
AcDbSpline
 70
8
 71
3
 72
8
 73
4
 74
0
 40
0
 40
0
 40
0
 40
0
 40
1
 40
1
 40
1
 40
1
 10
227.541890
 20
587.578454
 30
0.0
 10
227.541890
 20
586.859634
 30
0.0
 10
226.964248
 20
586.273176
 30
0.0
 10
226.245431
 20
586.273176
 30
0.0
  0
SPLINE
  5
382
100
AcDbEntity
  8
Layer_1
 62
7
100
AcDbSpline
 70
8
 71
3
 72
8
 73
4
 74
0
 40
0
 40
0
 40
0
 40
0
 40
1
 40
1
 40
1
 40
1
 10
226.245431
 20
586.273176
 30
0.0
 10
225.526614
 20
586.273176
 30
0.0
 10
224.940154
 20
586.859634
 30
0.0
 10
224.940154
 20
587.578454
 30
0.0
  0
SPLINE
  5
383
100
AcDbEntity
  8
Layer_1
 62
7
100
AcDbSpline
 70
8
 71
3
 72
8
 73
4
 74
0
 40
0
 40
0
 40
0
 40
0
 40
1
 40
1
 40
1
 40
1
 10
224.940154
 20
587.578454
 30
0.0
 10
224.940154
 20
587.697298
 30
0.0
 10
224.963239
 20
587.813037
 30
0.0
 10
224.993070
 20
587.922426
 30
0.0
  0
LWPOLYLINE
  5
384
100
AcDbEntity
  8
Layer_1
 62
7
100
AcDbPolyline
 90
2
 70
1
 10
242.411473
 20
587.578454
 30
0.0
 10
227.541890
 20
587.578454
 30
0.0
  0
LWPOLYLINE
  5
385
100
AcDbEntity
  8
Layer_1
 62
7
100
AcDbPolyline
 90
4
 70
1
 10
224.993070
 20
587.922426
 30
0.0
 10
224.993070
 20
590.577065
 30
0.0
 10
210.000015
 20
590.577065
 30
0.0
 10
210.000001
 20
590.576952
 30
0.0
  0
SPLINE
  5
386
100
AcDbEntity
  8
Layer_1
 62
7
100
AcDbSpline
 70
8
 71
3
 72
8
 73
4
 74
0
 40
0
 40
0
 40
0
 40
0
 40
1
 40
1
 40
1
 40
1
 10
20.360188
 20
451.067173
 30
0.0
 10
20.248741
 20
450.461541
 30
0.0
 10
19.728050
 20
450.000020
 30
0.0
 10
19.090188
 20
450.000020
 30
0.0
  0
SPLINE
  5
387
100
AcDbEntity
  8
Layer_1
 62
7
100
AcDbSpline
 70
8
 71
3
 72
8
 73
4
 74
0
 40
0
 40
0
 40
0
 40
0
 40
1
 40
1
 40
1
 40
1
 10
19.090188
 20
450.000020
 30
0.0
 10
18.452326
 20
450.000020
 30
0.0
 10
17.922815
 20
450.461541
 30
0.0
 10
17.811368
 20
451.067173
 30
0.0
  0
LWPOLYLINE
  5
388
100
AcDbEntity
  8
Layer_1
 62
7
100
AcDbPolyline
 90
4
 70
1
 10
20.386632
 20
454.303909
 30
0.0
 10
20.386632
 20
451.305298
 30
0.0
 10
20.386632
 20
451.067173
 30
0.0
 10
20.360188
 20
451.067173
 30
0.0
  0
SPLINE
  5
389
100
AcDbEntity
  8
Layer_1
 62
7
100
AcDbSpline
 70
8
 71
3
 72
8
 73
4
 74
0
 40
0
 40
0
 40
0
 40
0
 40
1
 40
1
 40
1
 40
1
 10
10.394216
 20
438.905159
 30
0.0
 10
11.113033
 20
438.905159
 30
0.0
 10
11.690674
 20
438.327518
 30
0.0
 10
11.690674
 20
437.608701
 30
0.0
  0
SPLINE
  5
38a
100
AcDbEntity
  8
Layer_1
 62
7
100
AcDbSpline
 70
8
 71
3
 72
8
 73
4
 74
0
 40
0
 40
0
 40
0
 40
0
 40
1
 40
1
 40
1
 40
1
 10
11.690674
 20
437.608701
 30
0.0
 10
11.690674
 20
436.889883
 30
0.0
 10
11.113033
 20
436.303423
 30
0.0
 10
10.394216
 20
436.303423
 30
0.0
  0
LWPOLYLINE
  5
38b
100
AcDbEntity
  8
Layer_1
 62
7
100
AcDbPolyline
 90
3
 70
1
 10
17.811368
 20
451.067173
 30
0.0
 10
10.394216
 20
451.067173
 30
0.0
 10
10.394216
 20
438.905159
 30
0.0
  0
SPLINE
  5
38c
100
AcDbEntity
  8
Layer_1
 62
7
100
AcDbSpline
 70
8
 71
3
 72
8
 73
4
 74
0
 40
0
 40
0
 40
0
 40
0
 40
1
 40
1
 40
1
 40
1
 10
10.394216
 20
416.309742
 30
0.0
 10
11.113033
 20
416.309742
 30
0.0
 10
11.690674
 20
415.723282
 30
0.0
 10
11.690674
 20
415.004464
 30
0.0
  0
SPLINE
  5
38d
100
AcDbEntity
  8
Layer_1
 62
7
100
AcDbSpline
 70
8
 71
3
 72
8
 73
4
 74
0
 40
0
 40
0
 40
0
 40
0
 40
1
 40
1
 40
1
 40
1
 10
11.690674
 20
415.004464
 30
0.0
 10
11.690674
 20
414.285647
 30
0.0
 10
11.113033
 20
413.699187
 30
0.0
 10
10.394216
 20
413.699187
 30
0.0
  0
LWPOLYLINE
  5
38e
100
AcDbEntity
  8
Layer_1
 62
7
100
AcDbPolyline
 90
4
 70
1
 10
10.394216
 20
436.303423
 30
0.0
 10
7.386785
 20
436.303423
 30
0.0
 10
7.386785
 20
416.309742
 30
0.0
 10
10.394216
 20
416.309742
 30
0.0
  0
SPLINE
  5
38f
100
AcDbEntity
  8
Layer_1
 62
7
100
AcDbSpline
 70
8
 71
3
 72
8
 73
4
 74
0
 40
0
 40
0
 40
0
 40
0
 40
1
 40
1
 40
1
 40
1
 10
17.784910
 20
401.307867
 30
0.0
 10
17.784910
 20
402.026684
 30
0.0
 10
18.371371
 20
402.604326
 30
0.0
 10
19.090188
 20
402.604326
 30
0.0
  0
SPLINE
  5
390
100
AcDbEntity
  8
Layer_1
 62
7
100
AcDbSpline
 70
8
 71
3
 72
8
 73
4
 74
0
 40
0
 40
0
 40
0
 40
0
 40
1
 40
1
 40
1
 40
1
 10
19.090188
 20
402.604326
 30
0.0
 10
19.809005
 20
402.604326
 30
0.0
 10
20.386646
 20
402.026684
 30
0.0
 10
20.386646
 20
401.307867
 30
0.0
  0
LWPOLYLINE
  5
391
100
AcDbEntity
  8
Layer_1
 62
7
100
AcDbPolyline
 90
3
 70
1
 10
10.394216
 20
413.699187
 30
0.0
 10
10.394216
 20
401.307867
 30
0.0
 10
17.784910
 20
401.307867
 30
0.0
  0
SPLINE
  5
392
100
AcDbEntity
  8
Layer_1
 62
7
100
AcDbSpline
 70
8
 71
3
 72
8
 73
4
 74
0
 40
0
 40
0
 40
0
 40
0
 40
1
 40
1
 40
1
 40
1
 10
35.388522
 20
401.307867
 30
0.0
 10
35.388522
 20
402.026684
 30
0.0
 10
35.974982
 20
402.604326
 30
0.0
 10
36.693800
 20
402.604326
 30
0.0
  0
SPLINE
  5
393
100
AcDbEntity
  8
Layer_1
 62
7
100
AcDbSpline
 70
8
 71
3
 72
8
 73
4
 74
0
 40
0
 40
0
 40
0
 40
0
 40
1
 40
1
 40
1
 40
1
 10
36.693800
 20
402.604326
 30
0.0
 10
37.412617
 20
402.604326
 30
0.0
 10
37.990258
 20
402.026684
 30
0.0
 10
37.990258
 20
401.307867
 30
0.0
  0
LWPOLYLINE
  5
394
100
AcDbEntity
  8
Layer_1
 62
7
100
AcDbPolyline
 90
4
 70
1
 10
20.386646
 20
401.307867
 30
0.0
 10
20.386646
 20
398.309256
 30
0.0
 10
35.388522
 20
398.309256
 30
0.0
 10
35.388522
 20
401.307867
 30
0.0
  0
SPLINE
  5
395
100
AcDbEntity
  8
Layer_1
 62
7
100
AcDbSpline
 70
8
 71
3
 72
8
 73
4
 74
0
 40
0
 40
0
 40
0
 40
0
 40
1
 40
1
 40
1
 40
1
 10
132.790469
 20
401.307867
 30
0.0
 10
132.790469
 20
402.026684
 30
0.0
 10
133.368093
 20
402.604326
 30
0.0
 10
134.086913
 20
402.604326
 30
0.0
  0
SPLINE
  5
396
100
AcDbEntity
  8
Layer_1
 62
7
100
AcDbSpline
 70
8
 71
3
 72
8
 73
4
 74
0
 40
0
 40
0
 40
0
 40
0
 40
1
 40
1
 40
1
 40
1
 10
134.086913
 20
402.604326
 30
0.0
 10
134.805733
 20
402.604326
 30
0.0
 10
135.392191
 20
402.026684
 30
0.0
 10
135.392191
 20
401.307867
 30
0.0
  0
LWPOLYLINE
  5
397
100
AcDbEntity
  8
Layer_1
 62
7
100
AcDbPolyline
 90
6
 70
1
 10
37.990258
 20
401.307867
 30
0.0
 10
58.213244
 20
401.307867
 30
0.0
 10
58.213244
 20
426.302173
 30
0.0
 10
120.390330
 20
426.302173
 30
0.0
 10
120.390330
 20
401.307867
 30
0.0
 10
132.790469
 20
401.307867
 30
0.0
  0
SPLINE
  5
398
100
AcDbEntity
  8
Layer_1
 62
7
100
AcDbSpline
 70
8
 71
3
 72
8
 73
4
 74
0
 40
0
 40
0
 40
0
 40
0
 40
1
 40
1
 40
1
 40
1
 10
150.394080
 20
401.307867
 30
0.0
 10
150.394080
 20
402.026684
 30
0.0
 10
150.971704
 20
402.604326
 30
0.0
 10
151.690524
 20
402.604326
 30
0.0
  0
SPLINE
  5
399
100
AcDbEntity
  8
Layer_1
 62
7
100
AcDbSpline
 70
8
 71
3
 72
8
 73
4
 74
0
 40
0
 40
0
 40
0
 40
0
 40
1
 40
1
 40
1
 40
1
 10
151.690524
 20
402.604326
 30
0.0
 10
152.409344
 20
402.604326
 30
0.0
 10
152.995802
 20
402.026684
 30
0.0
 10
152.995802
 20
401.307867
 30
0.0
  0
LWPOLYLINE
  5
39a
100
AcDbEntity
  8
Layer_1
 62
7
100
AcDbPolyline
 90
4
 70
1
 10
135.392191
 20
401.307867
 30
0.0
 10
135.392191
 20
398.309256
 30
0.0
 10
150.394080
 20
398.309256
 30
0.0
 10
150.394080
 20
401.307867
 30
0.0
  0
SPLINE
  5
39b
100
AcDbEntity
  8
Layer_1
 62
7
100
AcDbSpline
 70
8
 71
3
 72
8
 73
4
 74
0
 40
0
 40
0
 40
0
 40
0
 40
1
 40
1
 40
1
 40
1
 10
162.785385
 20
401.307867
 30
0.0
 10
162.785385
 20
402.026684
 30
0.0
 10
163.371843
 20
402.604326
 30
0.0
 10
164.090663
 20
402.604326
 30
0.0
  0
SPLINE
  5
39c
100
AcDbEntity
  8
Layer_1
 62
7
100
AcDbSpline
 70
8
 71
3
 72
8
 73
4
 74
0
 40
0
 40
0
 40
0
 40
0
 40
1
 40
1
 40
1
 40
1
 10
164.090663
 20
402.604326
 30
0.0
 10
164.809483
 20
402.604326
 30
0.0
 10
165.387136
 20
402.026684
 30
0.0
 10
165.387136
 20
401.307867
 30
0.0
  0
LWPOLYLINE
  5
39d
100
AcDbEntity
  8
Layer_1
 62
7
100
AcDbPolyline
 90
2
 70
1
 10
152.995802
 20
401.307867
 30
0.0
 10
162.785385
 20
401.307867
 30
0.0
  0
SPLINE
  5
39e
100
AcDbEntity
  8
Layer_1
 62
7
100
AcDbSpline
 70
8
 71
3
 72
8
 73
4
 74
0
 40
0
 40
0
 40
0
 40
0
 40
1
 40
1
 40
1
 40
1
 10
180.388997
 20
401.307867
 30
0.0
 10
180.388997
 20
402.026684
 30
0.0
 10
180.975454
 20
402.604326
 30
0.0
 10
181.694274
 20
402.604326
 30
0.0
  0
SPLINE
  5
39f
100
AcDbEntity
  8
Layer_1
 62
7
100
AcDbSpline
 70
8
 71
3
 72
8
 73
4
 74
0
 40
0
 40
0
 40
0
 40
0
 40
1
 40
1
 40
1
 40
1
 10
181.694274
 20
402.604326
 30
0.0
 10
182.413094
 20
402.604326
 30
0.0
 10
182.990690
 20
402.026684
 30
0.0
 10
182.990747
 20
401.307867
 30
0.0
  0
LWPOLYLINE
  5
3a0
100
AcDbEntity
  8
Layer_1
 62
7
100
AcDbPolyline
 90
4
 70
1
 10
165.387136
 20
401.307867
 30
0.0
 10
165.387136
 20
398.309256
 30
0.0
 10
180.388997
 20
398.309256
 30
0.0
 10
180.388997
 20
401.307867
 30
0.0
  0
SPLINE
  5
3a1
100
AcDbEntity
  8
Layer_1
 62
7
100
AcDbSpline
 70
8
 71
3
 72
8
 73
4
 74
0
 40
0
 40
0
 40
0
 40
0
 40
1
 40
1
 40
1
 40
1
 10
190.152136
 20
413.725645
 30
0.0
 10
189.546035
 20
413.837092
 30
0.0
 10
189.084969
 20
414.366603
 30
0.0
 10
189.084969
 20
415.004464
 30
0.0
  0
SPLINE
  5
3a2
100
AcDbEntity
  8
Layer_1
 62
7
100
AcDbSpline
 70
8
 71
3
 72
8
 73
4
 74
0
 40
0
 40
0
 40
0
 40
0
 40
1
 40
1
 40
1
 40
1
 10
189.084969
 20
415.004464
 30
0.0
 10
189.084969
 20
415.642326
 30
0.0
 10
189.546402
 20
416.171837
 30
0.0
 10
190.152136
 20
416.283284
 30
0.0
  0
LWPOLYLINE
  5
3a3
100
AcDbEntity
  8
Layer_1
 62
7
100
AcDbPolyline
 90
3
 70
1
 10
182.990747
 20
401.307867
 30
0.0
 10
190.152136
 20
401.307867
 30
0.0
 10
190.152136
 20
413.725645
 30
0.0
  0
SPLINE
  5
3a4
100
AcDbEntity
  8
Layer_1
 62
7
100
AcDbSpline
 70
8
 71
3
 72
8
 73
4
 74
0
 40
0
 40
0
 40
0
 40
0
 40
1
 40
1
 40
1
 40
1
 10
190.152136
 20
436.329853
 30
0.0
 10
189.546063
 20
436.441300
 30
0.0
 10
189.084969
 20
436.970811
 30
0.0
 10
189.084969
 20
437.608672
 30
0.0
  0
SPLINE
  5
3a5
100
AcDbEntity
  8
Layer_1
 62
7
100
AcDbSpline
 70
8
 71
3
 72
8
 73
4
 74
0
 40
0
 40
0
 40
0
 40
0
 40
1
 40
1
 40
1
 40
1
 10
189.084969
 20
437.608672
 30
0.0
 10
189.084969
 20
438.246534
 30
0.0
 10
189.546402
 20
438.767226
 30
0.0
 10
190.152136
 20
438.878672
 30
0.0
  0
LWPOLYLINE
  5
3a6
100
AcDbEntity
  8
Layer_1
 62
7
100
AcDbPolyline
 90
8
 70
1
 10
190.152136
 20
416.283284
 30
0.0
 10
190.152136
 20
416.309728
 30
0.0
 10
190.390247
 20
416.309728
 30
0.0
 10
193.388858
 20
416.309728
 30
0.0
 10
193.388858
 20
436.303409
 30
0.0
 10
190.390247
 20
436.303409
 30
0.0
 10
190.152136
 20
436.303409
 30
0.0
 10
190.152136
 20
436.329853
 30
0.0
  0
SPLINE
  5
3a7
100
AcDbEntity
  8
Layer_1
 62
7
100
AcDbSpline
 70
8
 71
3
 72
8
 73
4
 74
0
 40
0
 40
0
 40
0
 40
0
 40
1
 40
1
 40
1
 40
1
 10
182.964274
 20
451.067145
 30
0.0
 10
182.852825
 20
450.461513
 30
0.0
 10
182.332125
 20
449.999992
 30
0.0
 10
181.694274
 20
449.999992
 30
0.0
  0
SPLINE
  5
3a8
100
AcDbEntity
  8
Layer_1
 62
7
100
AcDbSpline
 70
8
 71
3
 72
8
 73
4
 74
0
 40
0
 40
0
 40
0
 40
0
 40
1
 40
1
 40
1
 40
1
 10
181.694274
 20
449.999992
 30
0.0
 10
181.056424
 20
449.999992
 30
0.0
 10
180.526890
 20
450.461513
 30
0.0
 10
180.415469
 20
451.067145
 30
0.0
  0
LWPOLYLINE
  5
3a9
100
AcDbEntity
  8
Layer_1
 62
7
100
AcDbPolyline
 90
3
 70
1
 10
190.152136
 20
438.878672
 30
0.0
 10
190.152136
 20
451.067145
 30
0.0
 10
182.964274
 20
451.067145
 30
0.0
  0
SPLINE
  5
3aa
100
AcDbEntity
  8
Layer_1
 62
7
100
AcDbSpline
 70
8
 71
3
 72
8
 73
4
 74
0
 40
0
 40
0
 40
0
 40
0
 40
1
 40
1
 40
1
 40
1
 10
165.360550
 20
451.067145
 30
0.0
 10
165.249101
 20
450.461513
 30
0.0
 10
164.728429
 20
449.999992
 30
0.0
 10
164.090550
 20
449.999992
 30
0.0
  0
SPLINE
  5
3ab
100
AcDbEntity
  8
Layer_1
 62
7
100
AcDbSpline
 70
8
 71
3
 72
8
 73
4
 74
0
 40
0
 40
0
 40
0
 40
0
 40
1
 40
1
 40
1
 40
1
 10
164.090550
 20
449.999992
 30
0.0
 10
163.452700
 20
449.999992
 30
0.0
 10
162.923195
 20
450.461513
 30
0.0
 10
162.811745
 20
451.067145
 30
0.0
  0
LWPOLYLINE
  5
3ac
100
AcDbEntity
  8
Layer_1
 62
7
100
AcDbPolyline
 90
8
 70
1
 10
180.415469
 20
451.067145
 30
0.0
 10
180.388940
 20
451.067145
 30
0.0
 10
180.388940
 20
451.305270
 30
0.0
 10
180.388940
 20
454.303881
 30
0.0
 10
165.387079
 20
454.303881
 30
0.0
 10
165.387079
 20
451.305270
 30
0.0
 10
165.387079
 20
451.067145
 30
0.0
 10
165.360550
 20
451.067145
 30
0.0
  0
SPLINE
  5
3ad
100
AcDbEntity
  8
Layer_1
 62
7
100
AcDbSpline
 70
8
 71
3
 72
8
 73
4
 74
0
 40
0
 40
0
 40
0
 40
0
 40
1
 40
1
 40
1
 40
1
 10
152.969245
 20
451.067145
 30
0.0
 10
152.857795
 20
450.461513
 30
0.0
 10
152.328290
 20
449.999992
 30
0.0
 10
151.690411
 20
449.999992
 30
0.0
  0
SPLINE
  5
3ae
100
AcDbEntity
  8
Layer_1
 62
7
100
AcDbSpline
 70
8
 71
3
 72
8
 73
4
 74
0
 40
0
 40
0
 40
0
 40
0
 40
1
 40
1
 40
1
 40
1
 10
151.690411
 20
449.999992
 30
0.0
 10
151.052561
 20
449.999992
 30
0.0
 10
150.531861
 20
450.461513
 30
0.0
 10
150.420411
 20
451.067145
 30
0.0
  0
LWPOLYLINE
  5
3af
100
AcDbEntity
  8
Layer_1
 62
7
100
AcDbPolyline
 90
2
 70
1
 10
162.811745
 20
451.067145
 30
0.0
 10
152.969245
 20
451.067145
 30
0.0
  0
SPLINE
  5
3b0
100
AcDbEntity
  8
Layer_1
 62
7
100
AcDbSpline
 70
8
 71
3
 72
8
 73
4
 74
0
 40
0
 40
0
 40
0
 40
0
 40
1
 40
1
 40
1
 40
1
 10
135.365465
 20
451.067145
 30
0.0
 10
135.254015
 20
450.461513
 30
0.0
 10
134.724510
 20
449.999992
 30
0.0
 10
134.086631
 20
449.999992
 30
0.0
  0
SPLINE
  5
3b1
100
AcDbEntity
  8
Layer_1
 62
7
100
AcDbSpline
 70
8
 71
3
 72
8
 73
4
 74
0
 40
0
 40
0
 40
0
 40
0
 40
1
 40
1
 40
1
 40
1
 10
134.086631
 20
449.999992
 30
0.0
 10
133.448781
 20
449.999992
 30
0.0
 10
132.928081
 20
450.461513
 30
0.0
 10
132.816631
 20
451.067145
 30
0.0
  0
LWPOLYLINE
  5
3b2
100
AcDbEntity
  8
Layer_1
 62
7
100
AcDbPolyline
 90
8
 70
1
 10
150.420411
 20
451.067145
 30
0.0
 10
150.393883
 20
451.067145
 30
0.0
 10
150.393883
 20
451.305270
 30
0.0
 10
150.393883
 20
454.303881
 30
0.0
 10
135.391993
 20
454.303881
 30
0.0
 10
135.391993
 20
451.305270
 30
0.0
 10
135.391993
 20
451.067145
 30
0.0
 10
135.365465
 20
451.067145
 30
0.0
  0
SPLINE
  5
3b3
100
AcDbEntity
  8
Layer_1
 62
7
100
AcDbSpline
 70
8
 71
3
 72
8
 73
4
 74
0
 40
0
 40
0
 40
0
 40
0
 40
1
 40
1
 40
1
 40
1
 10
122.965326
 20
451.067145
 30
0.0
 10
122.853876
 20
450.461513
 30
0.0
 10
122.333176
 20
449.999992
 30
0.0
 10
121.695326
 20
449.999992
 30
0.0
  0
SPLINE
  5
3b4
100
AcDbEntity
  8
Layer_1
 62
7
100
AcDbSpline
 70
8
 71
3
 72
8
 73
4
 74
0
 40
0
 40
0
 40
0
 40
0
 40
1
 40
1
 40
1
 40
1
 10
121.695326
 20
449.999992
 30
0.0
 10
121.057447
 20
449.999992
 30
0.0
 10
120.527942
 20
450.461513
 30
0.0
 10
120.416492
 20
451.067145
 30
0.0
  0
LWPOLYLINE
  5
3b5
100
AcDbEntity
  8
Layer_1
 62
7
100
AcDbPolyline
 90
2
 70
1
 10
132.816631
 20
451.067145
 30
0.0
 10
122.965326
 20
451.067145
 30
0.0
  0
SPLINE
  5
3b6
100
AcDbEntity
  8
Layer_1
 62
7
100
AcDbSpline
 70
8
 71
3
 72
8
 73
4
 74
0
 40
0
 40
0
 40
0
 40
0
 40
1
 40
1
 40
1
 40
1
 10
105.361545
 20
451.067145
 30
0.0
 10
105.250096
 20
450.461513
 30
0.0
 10
104.729396
 20
449.999992
 30
0.0
 10
104.091545
 20
449.999992
 30
0.0
  0
SPLINE
  5
3b7
100
AcDbEntity
  8
Layer_1
 62
7
100
AcDbSpline
 70
8
 71
3
 72
8
 73
4
 74
0
 40
0
 40
0
 40
0
 40
0
 40
1
 40
1
 40
1
 40
1
 10
104.091545
 20
449.999992
 30
0.0
 10
103.453667
 20
449.999992
 30
0.0
 10
102.924161
 20
450.461513
 30
0.0
 10
102.812712
 20
451.067145
 30
0.0
  0
LWPOLYLINE
  5
3b8
100
AcDbEntity
  8
Layer_1
 62
7
100
AcDbPolyline
 90
8
 70
1
 10
120.416492
 20
451.067145
 30
0.0
 10
120.389963
 20
451.067145
 30
0.0
 10
120.389963
 20
451.305270
 30
0.0
 10
120.389963
 20
454.303881
 30
0.0
 10
105.388074
 20
454.303881
 30
0.0
 10
105.388074
 20
451.305270
 30
0.0
 10
105.388074
 20
451.067145
 30
0.0
 10
105.361545
 20
451.067145
 30
0.0
  0
SPLINE
  5
3b9
100
AcDbEntity
  8
Layer_1
 62
7
100
AcDbSpline
 70
8
 71
3
 72
8
 73
4
 74
0
 40
0
 40
0
 40
0
 40
0
 40
1
 40
1
 40
1
 40
1
 10
97.970851
 20
451.067145
 30
0.0
 10
97.859401
 20
450.461513
 30
0.0
 10
97.329896
 20
449.999992
 30
0.0
 10
96.692017
 20
449.999992
 30
0.0
  0
SPLINE
  5
3ba
100
AcDbEntity
  8
Layer_1
 62
7
100
AcDbSpline
 70
8
 71
3
 72
8
 73
4
 74
0
 40
0
 40
0
 40
0
 40
0
 40
1
 40
1
 40
1
 40
1
 10
96.692017
 20
449.999992
 30
0.0
 10
96.054167
 20
449.999992
 30
0.0
 10
95.524661
 20
450.461513
 30
0.0
 10
95.413212
 20
451.067145
 30
0.0
  0
LWPOLYLINE
  5
3bb
100
AcDbEntity
  8
Layer_1
 62
7
100
AcDbPolyline
 90
2
 70
1
 10
102.812712
 20
451.067145
 30
0.0
 10
97.970851
 20
451.067145
 30
0.0
  0
SPLINE
  5
3bc
100
AcDbEntity
  8
Layer_1
 62
7
100
AcDbSpline
 70
8
 71
3
 72
8
 73
4
 74
0
 40
0
 40
0
 40
0
 40
0
 40
1
 40
1
 40
1
 40
1
 10
80.367195
 20
451.067145
 30
0.0
 10
80.255748
 20
450.461513
 30
0.0
 10
79.726237
 20
449.999992
 30
0.0
 10
79.088375
 20
449.999992
 30
0.0
  0
SPLINE
  5
3bd
100
AcDbEntity
  8
Layer_1
 62
7
100
AcDbSpline
 70
8
 71
3
 72
8
 73
4
 74
0
 40
0
 40
0
 40
0
 40
0
 40
1
 40
1
 40
1
 40
1
 10
79.088375
 20
449.999992
 30
0.0
 10
78.450513
 20
449.999992
 30
0.0
 10
77.921002
 20
450.461513
 30
0.0
 10
77.809556
 20
451.067145
 30
0.0
  0
LWPOLYLINE
  5
3be
100
AcDbEntity
  8
Layer_1
 62
7
100
AcDbPolyline
 90
8
 70
1
 10
95.413212
 20
451.067145
 30
0.0
 10
95.386683
 20
451.067145
 30
0.0
 10
95.386683
 20
451.305270
 30
0.0
 10
95.386683
 20
454.303881
 30
0.0
 10
80.393639
 20
454.303881
 30
0.0
 10
80.393639
 20
451.305270
 30
0.0
 10
80.393639
 20
451.067145
 30
0.0
 10
80.367195
 20
451.067145
 30
0.0
  0
SPLINE
  5
3bf
100
AcDbEntity
  8
Layer_1
 62
7
100
AcDbSpline
 70
8
 71
3
 72
8
 73
4
 74
0
 40
0
 40
0
 40
0
 40
0
 40
1
 40
1
 40
1
 40
1
 10
67.967056
 20
451.067145
 30
0.0
 10
67.855609
 20
450.461513
 30
0.0
 10
67.326098
 20
449.999992
 30
0.0
 10
66.688236
 20
449.999992
 30
0.0
  0
SPLINE
  5
3c0
100
AcDbEntity
  8
Layer_1
 62
7
100
AcDbSpline
 70
8
 71
3
 72
8
 73
4
 74
0
 40
0
 40
0
 40
0
 40
0
 40
1
 40
1
 40
1
 40
1
 10
66.688236
 20
449.999992
 30
0.0
 10
66.050374
 20
449.999992
 30
0.0
 10
65.529683
 20
450.461513
 30
0.0
 10
65.418236
 20
451.067145
 30
0.0
  0
LWPOLYLINE
  5
3c1
100
AcDbEntity
  8
Layer_1
 62
7
100
AcDbPolyline
 90
2
 70
1
 10
77.809556
 20
451.067145
 30
0.0
 10
67.967056
 20
451.067145
 30
0.0
  0
SPLINE
  5
3c2
100
AcDbEntity
  8
Layer_1
 62
7
100
AcDbSpline
 70
8
 71
3
 72
8
 73
4
 74
0
 40
0
 40
0
 40
0
 40
0
 40
1
 40
1
 40
1
 40
1
 10
50.363473
 20
451.067145
 30
0.0
 10
50.252026
 20
450.461513
 30
0.0
 10
49.722515
 20
449.999992
 30
0.0
 10
49.084653
 20
449.999992
 30
0.0
  0
SPLINE
  5
3c3
100
AcDbEntity
  8
Layer_1
 62
7
100
AcDbSpline
 70
8
 71
3
 72
8
 73
4
 74
0
 40
0
 40
0
 40
0
 40
0
 40
1
 40
1
 40
1
 40
1
 10
49.084653
 20
449.999992
 30
0.0
 10
48.446792
 20
449.999992
 30
0.0
 10
47.926100
 20
450.461513
 30
0.0
 10
47.814653
 20
451.067145
 30
0.0
  0
LWPOLYLINE
  5
3c4
100
AcDbEntity
  8
Layer_1
 62
7
100
AcDbPolyline
 90
8
 70
1
 10
65.418236
 20
451.067145
 30
0.0
 10
65.391792
 20
451.067145
 30
0.0
 10
65.391792
 20
451.305270
 30
0.0
 10
65.391792
 20
454.303881
 30
0.0
 10
50.389917
 20
454.303881
 30
0.0
 10
50.389917
 20
451.305270
 30
0.0
 10
50.389917
 20
451.067145
 30
0.0
 10
50.363473
 20
451.067145
 30
0.0
  0
SPLINE
  5
3c5
100
AcDbEntity
  8
Layer_1
 62
7
100
AcDbSpline
 70
8
 71
3
 72
8
 73
4
 74
0
 40
0
 40
0
 40
0
 40
0
 40
1
 40
1
 40
1
 40
1
 10
37.963334
 20
451.067145
 30
0.0
 10
37.851887
 20
450.461513
 30
0.0
 10
37.331196
 20
449.999992
 30
0.0
 10
36.693334
 20
449.999992
 30
0.0
  0
SPLINE
  5
3c6
100
AcDbEntity
  8
Layer_1
 62
7
100
AcDbSpline
 70
8
 71
3
 72
8
 73
4
 74
0
 40
0
 40
0
 40
0
 40
0
 40
1
 40
1
 40
1
 40
1
 10
36.693334
 20
449.999992
 30
0.0
 10
36.055472
 20
449.999992
 30
0.0
 10
35.525961
 20
450.461513
 30
0.0
 10
35.414514
 20
451.067145
 30
0.0
  0
LWPOLYLINE
  5
3c7
100
AcDbEntity
  8
Layer_1
 62
7
100
AcDbPolyline
 90
2
 70
1
 10
47.814653
 20
451.067145
 30
0.0
 10
37.963334
 20
451.067145
 30
0.0
  0
LWPOLYLINE
  5
3c8
100
AcDbEntity
  8
Layer_1
 62
7
100
AcDbPolyline
 90
6
 70
1
 10
35.414514
 20
451.067145
 30
0.0
 10
35.388070
 20
451.067145
 30
0.0
 10
35.388070
 20
451.305270
 30
0.0
 10
35.388070
 20
454.303881
 30
0.0
 10
20.386195
 20
454.303881
 30
0.0
 10
20.386632
 20
454.303909
 30
0.0
  0
LWPOLYLINE
  5
3c9
100
AcDbEntity
  8
Layer_1
 62
7
100
AcDbPolyline
 90
6
 70
1
 10
135.392163
 20
441.304048
 30
0.0
 10
165.387107
 20
441.304048
 30
0.0
 10
165.387107
 20
431.302798
 30
0.0
 10
135.392163
 20
431.302798
 30
0.0
 10
135.392163
 20
441.304048
 30
0.0
 10
135.392163
 20
441.304048
 30
0.0
  0
ENDSEC
  0
SECTION
  2
OBJECTS
  0
DICTIONARY
  5
C
330
0
100
AcDbDictionary
  3
ACAD_GROUP
350
D
  3
ACAD_MLINESTYLE
350
17
  0
DICTIONARY
  5
D
330
C
100
AcDbDictionary
  0
DICTIONARY
  5
1A
330
C
100
AcDbDictionary
  0
DICTIONARY
  5
17
330
C
100
AcDbDictionary
  3
STANDARD
350
18
  0
DICTIONARY
  5
19
330
C
100
AcDbDictionary
  0
ENDSEC
  0
EOF
