  0
SECTION
  2
HEADER
  9
$ACADVER
  1
AC1014
  9
$HANDSEED
  5
FFFF
  9
$MEASUREMENT
 70
     1
  0
ENDSEC
  0
SECTION
  2
TABLES
  0
TABLE
  2
VPORT
  5
8
330
0
100
AcDbSymbolTable
 70
     4
  0
VPORT
  5
2E
330
8
100
AcDbSymbolTableRecord
100
AcDbViewportTableRecord
  2
*ACTIVE
 70
     0
 10
0.0
 20
0.0
 11
1.0
 21
1.0
 12
210.0
 22
148.5
 13
0.0
 23
0.0
 14
10.0
 24
10.0
 15
10.0
 25
10.0
 16
0.0
 26
0.0
 36
1.0
 17
0.0
 27
0.0
 37
0.0
 40
341.0
 41
1.24
 42
50.0
 43
0.0
 44
0.0
 50
0.0
 51
0.0
 71
     0
 72
   100
 73
     1
 74
     3
 75
     0
 76
     0
 77
     0
 78
     0
  0
ENDTAB
  0
TABLE
  2
LTYPE
  5
5
330
0
100
AcDbSymbolTable
 70
     1
  0
LTYPE
  5
14
330
5
100
AcDbSymbolTableRecord
100
AcDbLinetypeTableRecord
  2
BYBLOCK
 70
     0
  3

 72
    65
 73
     0
 40
0.0
  0
LTYPE
  5
15
330
5
100
AcDbSymbolTableRecord
100
AcDbLinetypeTableRecord
  2
BYLAYER
 70
     0
  3

 72
    65
 73
     0
 40
0.0
  0
LTYPE
  5
16
330
5
100
AcDbSymbolTableRecord
100
AcDbLinetypeTableRecord
  2
CONTINUOUS
 70
     0
  3
Solid line
 72
    65
 73
     0
 40
0.0
  0
ENDTAB
  0
TABLE
  2
LAYER
  5
2
100
AcDbSymbolTable
 70
2
  0
LAYER
  5
50
100
AcDbSymbolTableRecord
100
AcDbLayerTableRecord
  2
0
 70
0
  6
CONTINUOUS
  0
LAYER
  5
51
100
AcDbSymbolTableRecord
100
AcDbLayerTableRecord
  2
Layer_1
 70
0
  6
CONTINUOUS
  0
ENDTAB
  0
TABLE
  2
STYLE
  5
3
330
0
100
AcDbSymbolTable
 70
     1
  0
STYLE
  5
11
330
3
100
AcDbSymbolTableRecord
100
AcDbTextStyleTableRecord
  2
STANDARD
 70
     0
 40
0.0
 41
1.0
 50
0.0
 71
     0
 42
2.5
  3
txt
  4

  0
ENDTAB
  0
TABLE
  2
VIEW
  5
6
330
0
100
AcDbSymbolTable
 70
     0
  0
ENDTAB
  0
TABLE
  2
UCS
  5
7
330
0
100
AcDbSymbolTable
 70
     0
  0
ENDTAB
  0
TABLE
  2
APPID
  5
9
330
0
100
AcDbSymbolTable
 70
     2
  0
APPID
  5
12
330
9
100
AcDbSymbolTableRecord
100
AcDbRegAppTableRecord
  2
ACAD
 70
     0
  0
ENDTAB
  0
TABLE
  2
DIMSTYLE
  5
A
330
0
100
AcDbSymbolTable
 70
     1
  0
DIMSTYLE
105
27
330
A
100
AcDbSymbolTableRecord
100
AcDbDimStyleTableRecord
  2
ISO-25
 70
     0
  3

  4

  5

  6

  7

 40
1.0
 41
2.5
 42
0.625
 43
3.75
 44
1.25
 45
0.0
 46
0.0
 47
0.0
 48
0.0
140
2.5
141
2.5
142
0.0
143
0.03937007874016
144
1.0
145
0.0
146
1.0
147
0.625
 71
     0
 72
     0
 73
     0
 74
     0
 75
     0
 76
     0
 77
     1
 78
     8
170
     0
171
     3
172
     1
173
     0
174
     0
175
     0
176
     0
177
     0
178
     0
270
     2
271
     2
272
     2
273
     2
274
     3
340
11
275
     0
280
     0
281
     0
282
     0
283
     0
284
     8
285
     0
286
     0
287
     3
288
     0
  0
ENDTAB
  0
TABLE
  2
BLOCK_RECORD
  5
1
330
0
100
AcDbSymbolTable
 70
     1
  0
BLOCK_RECORD
  5
1F
330
1
100
AcDbSymbolTableRecord
100
AcDbBlockTableRecord
  2
*MODEL_SPACE
  0
BLOCK_RECORD
  5
1B
330
1
100
AcDbSymbolTableRecord
100
AcDbBlockTableRecord
  2
*PAPER_SPACE
  0
ENDTAB
  0
ENDSEC
  0
SECTION
  2
BLOCKS
  0
BLOCK
  5
20
330
1F
100
AcDbEntity
  8
0
100
AcDbBlockBegin
  2
*MODEL_SPACE
 70
     0
 10
0.0
 20
0.0
 30
0.0
  3
*MODEL_SPACE
  1

  0
ENDBLK
  5
21
330
1F
100
AcDbEntity
  8
0
100
AcDbBlockEnd
  0
BLOCK
  5
1C
330
1B
100
AcDbEntity
 67
     1
  8
0
100
AcDbBlockBegin
  2
*PAPER_SPACE
  1

  0
ENDBLK
  5
1D
330
1B
100
AcDbEntity
 67
     1
  8
0
100
AcDbBlockEnd
  0
ENDSEC
  0
SECTION
  2
ENTITIES
  0
SPLINE
  5
100
100
AcDbEntity
  8
Layer_1
 62
7
100
AcDbSpline
 70
8
 71
3
 72
8
 73
4
 74
0
 40
0
 40
0
 40
0
 40
0
 40
1
 40
1
 40
1
 40
1
 10
170.216599
 20
531.440060
 30
0.0
 10
170.805630
 20
531.440060
 30
0.0
 10
171.299638
 20
531.042025
 30
0.0
 10
171.460140
 20
530.505199
 30
0.0
  0
LWPOLYLINE
  5
101
100
AcDbEntity
  8
Layer_1
 62
7
100
AcDbPolyline
 90
14
 70
1
 10
5.222430
 20
537.507838
 30
0.0
 10
5.222430
 20
527.506588
 30
0.0
 10
5.222430
 20
527.268463
 30
0.0
 10
5.222430
 20
412.271726
 30
0.0
 10
5.222430
 20
407.509226
 30
0.0
 10
5.222430
 20
397.507976
 30
0.0
 10
205.220974
 20
397.507976
 30
0.0
 10
205.220974
 20
407.509226
 30
0.0
 10
205.220974
 20
412.271726
 30
0.0
 10
205.220974
 20
527.268463
 30
0.0
 10
205.220974
 20
527.506588
 30
0.0
 10
205.220974
 20
537.507838
 30
0.0
 10
5.222431
 20
537.507838
 30
0.0
 10
5.222430
 20
537.507838
 30
0.0
  0
SPLINE
  5
102
100
AcDbEntity
  8
Layer_1
 62
7
100
AcDbSpline
 70
8
 71
3
 72
8
 73
4
 74
0
 40
0
 40
0
 40
0
 40
0
 40
1
 40
1
 40
1
 40
1
 10
184.019029
 20
530.505199
 30
0.0
 10
184.214762
 20
530.976448
 30
0.0
 10
184.676381
 20
531.307768
 30
0.0
 10
185.218474
 20
531.307768
 30
0.0
  0
SPLINE
  5
103
100
AcDbEntity
  8
Layer_1
 62
7
100
AcDbSpline
 70
8
 71
3
 72
8
 73
4
 74
0
 40
0
 40
0
 40
0
 40
0
 40
1
 40
1
 40
1
 40
1
 10
185.218474
 20
531.307768
 30
0.0
 10
185.937294
 20
531.307768
 30
0.0
 10
186.523751
 20
530.721308
 30
0.0
 10
186.523751
 20
530.002490
 30
0.0
  0
SPLINE
  5
104
100
AcDbEntity
  8
Layer_1
 62
7
100
AcDbSpline
 70
8
 71
3
 72
8
 73
4
 74
0
 40
0
 40
0
 40
0
 40
0
 40
1
 40
1
 40
1
 40
1
 10
186.523751
 20
530.002490
 30
0.0
 10
186.523751
 20
529.513938
 30
0.0
 10
186.251604
 20
529.096193
 30
0.0
 10
185.853474
 20
528.873601
 30
0.0
  0
SPLINE
  5
105
100
AcDbEntity
  8
Layer_1
 62
7
100
AcDbSpline
 70
8
 71
3
 72
8
 73
4
 74
0
 40
0
 40
0
 40
0
 40
0
 40
1
 40
1
 40
1
 40
1
 10
185.853474
 20
528.873601
 30
0.0
 10
186.287306
 20
528.662519
 30
0.0
 10
186.585502
 20
528.215513
 30
0.0
 10
186.585502
 20
527.700615
 30
0.0
  0
SPLINE
  5
106
100
AcDbEntity
  8
Layer_1
 62
7
100
AcDbSpline
 70
8
 71
3
 72
8
 73
4
 74
0
 40
0
 40
0
 40
0
 40
0
 40
1
 40
1
 40
1
 40
1
 10
186.585502
 20
527.700615
 30
0.0
 10
186.585502
 20
526.981798
 30
0.0
 10
185.999016
 20
526.404157
 30
0.0
 10
185.280224
 20
526.404157
 30
0.0
  0
SPLINE
  5
107
100
AcDbEntity
  8
Layer_1
 62
7
100
AcDbSpline
 70
8
 71
3
 72
8
 73
4
 74
0
 40
0
 40
0
 40
0
 40
0
 40
1
 40
1
 40
1
 40
1
 10
185.280224
 20
526.404157
 30
0.0
 10
184.629448
 20
526.404157
 30
0.0
 10
184.097684
 20
526.882809
 30
0.0
 10
184.001390
 20
527.506588
 30
0.0
  0
LWPOLYLINE
  5
108
100
AcDbEntity
  8
Layer_1
 62
7
100
AcDbPolyline
 90
2
 70
1
 10
171.460140
 20
530.505199
 30
0.0
 10
184.019029
 20
530.505199
 30
0.0
  0
SPLINE
  5
109
100
AcDbEntity
  8
Layer_1
 62
7
100
AcDbSpline
 70
8
 71
3
 72
8
 73
4
 74
0
 40
0
 40
0
 40
0
 40
0
 40
1
 40
1
 40
1
 40
1
 10
171.539515
 20
527.506588
 30
0.0
 10
171.394332
 20
526.946249
 30
0.0
 10
170.892893
 20
526.527629
 30
0.0
 10
170.287154
 20
526.527629
 30
0.0
  0
SPLINE
  5
10a
100
AcDbEntity
  8
Layer_1
 62
7
100
AcDbSpline
 70
8
 71
3
 72
8
 73
4
 74
0
 40
0
 40
0
 40
0
 40
0
 40
1
 40
1
 40
1
 40
1
 10
170.287154
 20
526.527629
 30
0.0
 10
169.568337
 20
526.527629
 30
0.0
 10
168.981876
 20
527.114090
 30
0.0
 10
168.981876
 20
527.832907
 30
0.0
  0
SPLINE
  5
10b
100
AcDbEntity
  8
Layer_1
 62
7
100
AcDbSpline
 70
8
 71
3
 72
8
 73
4
 74
0
 40
0
 40
0
 40
0
 40
0
 40
1
 40
1
 40
1
 40
1
 10
168.981876
 20
527.832907
 30
0.0
 10
168.981876
 20
528.325726
 30
0.0
 10
169.257097
 20
528.749669
 30
0.0
 10
169.660974
 20
528.970615
 30
0.0
  0
SPLINE
  5
10c
100
AcDbEntity
  8
Layer_1
 62
7
100
AcDbSpline
 70
8
 71
3
 72
8
 73
4
 74
0
 40
0
 40
0
 40
0
 40
0
 40
1
 40
1
 40
1
 40
1
 10
169.660974
 20
528.970615
 30
0.0
 10
169.224853
 20
529.180857
 30
0.0
 10
168.920140
 20
529.618214
 30
0.0
 10
168.920140
 20
530.134782
 30
0.0
  0
SPLINE
  5
10d
100
AcDbEntity
  8
Layer_1
 62
7
100
AcDbSpline
 70
8
 71
3
 72
8
 73
4
 74
0
 40
0
 40
0
 40
0
 40
0
 40
1
 40
1
 40
1
 40
1
 10
168.920140
 20
530.134782
 30
0.0
 10
168.920140
 20
530.853599
 30
0.0
 10
169.497781
 20
531.440060
 30
0.0
 10
170.216599
 20
531.440060
 30
0.0
  0
LWPOLYLINE
  5
10e
100
AcDbEntity
  8
Layer_1
 62
7
100
AcDbPolyline
 90
2
 70
1
 10
184.001390
 20
527.506588
 30
0.0
 10
171.539515
 20
527.506588
 30
0.0
  0
SPLINE
  5
10f
100
AcDbEntity
  8
Layer_1
 62
7
100
AcDbSpline
 70
8
 71
3
 72
8
 73
4
 74
0
 40
0
 40
0
 40
0
 40
0
 40
1
 40
1
 40
1
 40
1
 10
25.551250
 20
531.307768
 30
0.0
 10
26.093272
 20
531.307768
 30
0.0
 10
26.554925
 20
530.976366
 30
0.0
 10
26.750694
 20
530.505199
 30
0.0
  0
LWPOLYLINE
  5
110
100
AcDbEntity
  8
Layer_1
 62
7
100
AcDbPolyline
 90
2
 70
1
 10
170.216599
 20
531.440060
 30
0.0
 10
170.216599
 20
531.440060
 30
0.0
  0
SPLINE
  5
111
100
AcDbEntity
  8
Layer_1
 62
7
100
AcDbSpline
 70
8
 71
3
 72
8
 73
4
 74
0
 40
0
 40
0
 40
0
 40
0
 40
1
 40
1
 40
1
 40
1
 10
39.027362
 20
530.505199
 30
0.0
 10
39.223095
 20
530.976448
 30
0.0
 10
39.684726
 20
531.307768
 30
0.0
 10
40.226807
 20
531.307768
 30
0.0
  0
SPLINE
  5
112
100
AcDbEntity
  8
Layer_1
 62
7
100
AcDbSpline
 70
8
 71
3
 72
8
 73
4
 74
0
 40
0
 40
0
 40
0
 40
0
 40
1
 40
1
 40
1
 40
1
 10
40.226807
 20
531.307768
 30
0.0
 10
40.945624
 20
531.307768
 30
0.0
 10
41.532085
 20
530.721308
 30
0.0
 10
41.532085
 20
530.002490
 30
0.0
  0
SPLINE
  5
113
100
AcDbEntity
  8
Layer_1
 62
7
100
AcDbSpline
 70
8
 71
3
 72
8
 73
4
 74
0
 40
0
 40
0
 40
0
 40
0
 40
1
 40
1
 40
1
 40
1
 10
41.532085
 20
530.002490
 30
0.0
 10
41.532085
 20
529.513938
 30
0.0
 10
41.259943
 20
529.096193
 30
0.0
 10
40.861807
 20
528.873601
 30
0.0
  0
SPLINE
  5
114
100
AcDbEntity
  8
Layer_1
 62
7
100
AcDbSpline
 70
8
 71
3
 72
8
 73
4
 74
0
 40
0
 40
0
 40
0
 40
0
 40
1
 40
1
 40
1
 40
1
 10
40.861807
 20
528.873601
 30
0.0
 10
41.295642
 20
528.662519
 30
0.0
 10
41.593821
 20
528.215513
 30
0.0
 10
41.593821
 20
527.700615
 30
0.0
  0
SPLINE
  5
115
100
AcDbEntity
  8
Layer_1
 62
7
100
AcDbSpline
 70
8
 71
3
 72
8
 73
4
 74
0
 40
0
 40
0
 40
0
 40
0
 40
1
 40
1
 40
1
 40
1
 10
41.593821
 20
527.700615
 30
0.0
 10
41.593821
 20
526.981798
 30
0.0
 10
41.007360
 20
526.404157
 30
0.0
 10
40.288543
 20
526.404157
 30
0.0
  0
SPLINE
  5
116
100
AcDbEntity
  8
Layer_1
 62
7
100
AcDbSpline
 70
8
 71
3
 72
8
 73
4
 74
0
 40
0
 40
0
 40
0
 40
0
 40
1
 40
1
 40
1
 40
1
 10
40.288543
 20
526.404157
 30
0.0
 10
39.637801
 20
526.404157
 30
0.0
 10
39.106018
 20
526.882809
 30
0.0
 10
39.009724
 20
527.506588
 30
0.0
  0
LWPOLYLINE
  5
117
100
AcDbEntity
  8
Layer_1
 62
7
100
AcDbPolyline
 90
2
 70
1
 10
26.750694
 20
530.505199
 30
0.0
 10
39.027362
 20
530.505199
 30
0.0
  0
SPLINE
  5
118
100
AcDbEntity
  8
Layer_1
 62
7
100
AcDbSpline
 70
8
 71
3
 72
8
 73
4
 74
0
 40
0
 40
0
 40
0
 40
0
 40
1
 40
1
 40
1
 40
1
 10
26.900625
 20
527.506588
 30
0.0
 10
26.804331
 20
526.882809
 30
0.0
 10
26.263728
 20
526.404157
 30
0.0
 10
25.612986
 20
526.404157
 30
0.0
  0
SPLINE
  5
119
100
AcDbEntity
  8
Layer_1
 62
7
100
AcDbSpline
 70
8
 71
3
 72
8
 73
4
 74
0
 40
0
 40
0
 40
0
 40
0
 40
1
 40
1
 40
1
 40
1
 10
25.612986
 20
526.404157
 30
0.0
 10
24.894169
 20
526.404157
 30
0.0
 10
24.316528
 20
526.981798
 30
0.0
 10
24.316528
 20
527.700615
 30
0.0
  0
SPLINE
  5
11a
100
AcDbEntity
  8
Layer_1
 62
7
100
AcDbSpline
 70
8
 71
3
 72
8
 73
4
 74
0
 40
0
 40
0
 40
0
 40
0
 40
1
 40
1
 40
1
 40
1
 10
24.316528
 20
527.700615
 30
0.0
 10
24.316528
 20
528.189825
 30
0.0
 10
24.587786
 20
528.615981
 30
0.0
 10
24.986805
 20
528.838324
 30
0.0
  0
SPLINE
  5
11b
100
AcDbEntity
  8
Layer_1
 62
7
100
AcDbSpline
 70
8
 71
3
 72
8
 73
4
 74
0
 40
0
 40
0
 40
0
 40
0
 40
1
 40
1
 40
1
 40
1
 10
24.986805
 20
528.838324
 30
0.0
 10
24.554424
 20
529.049934
 30
0.0
 10
24.254792
 20
529.488657
 30
0.0
 10
24.254792
 20
530.002490
 30
0.0
  0
SPLINE
  5
11c
100
AcDbEntity
  8
Layer_1
 62
7
100
AcDbSpline
 70
8
 71
3
 72
8
 73
4
 74
0
 40
0
 40
0
 40
0
 40
0
 40
1
 40
1
 40
1
 40
1
 10
24.254792
 20
530.002490
 30
0.0
 10
24.254792
 20
530.721308
 30
0.0
 10
24.832433
 20
531.307768
 30
0.0
 10
25.551250
 20
531.307768
 30
0.0
  0
LWPOLYLINE
  5
11d
100
AcDbEntity
  8
Layer_1
 62
7
100
AcDbPolyline
 90
2
 70
1
 10
39.009724
 20
527.506588
 30
0.0
 10
26.900625
 20
527.506588
 30
0.0
  0
SPLINE
  5
11e
100
AcDbEntity
  8
Layer_1
 62
7
100
AcDbSpline
 70
8
 71
3
 72
8
 73
4
 74
0
 40
0
 40
0
 40
0
 40
0
 40
1
 40
1
 40
1
 40
1
 10
54.902362
 20
531.307768
 30
0.0
 10
55.444384
 20
531.307768
 30
0.0
 10
55.906038
 20
530.976366
 30
0.0
 10
56.101807
 20
530.505199
 30
0.0
  0
LWPOLYLINE
  5
11f
100
AcDbEntity
  8
Layer_1
 62
7
100
AcDbPolyline
 90
2
 70
1
 10
25.551250
 20
531.307768
 30
0.0
 10
25.551250
 20
531.307768
 30
0.0
  0
SPLINE
  5
120
100
AcDbEntity
  8
Layer_1
 62
7
100
AcDbSpline
 70
8
 71
3
 72
8
 73
4
 74
0
 40
0
 40
0
 40
0
 40
0
 40
1
 40
1
 40
1
 40
1
 10
69.507362
 20
530.505199
 30
0.0
 10
69.703095
 20
530.976448
 30
0.0
 10
70.164726
 20
531.307768
 30
0.0
 10
70.706807
 20
531.307768
 30
0.0
  0
SPLINE
  5
121
100
AcDbEntity
  8
Layer_1
 62
7
100
AcDbSpline
 70
8
 71
3
 72
8
 73
4
 74
0
 40
0
 40
0
 40
0
 40
0
 40
1
 40
1
 40
1
 40
1
 10
70.706807
 20
531.307768
 30
0.0
 10
71.425624
 20
531.307768
 30
0.0
 10
72.012085
 20
530.721308
 30
0.0
 10
72.012085
 20
530.002490
 30
0.0
  0
SPLINE
  5
122
100
AcDbEntity
  8
Layer_1
 62
7
100
AcDbSpline
 70
8
 71
3
 72
8
 73
4
 74
0
 40
0
 40
0
 40
0
 40
0
 40
1
 40
1
 40
1
 40
1
 10
72.012085
 20
530.002490
 30
0.0
 10
72.012085
 20
529.513938
 30
0.0
 10
71.739943
 20
529.096193
 30
0.0
 10
71.341807
 20
528.873601
 30
0.0
  0
SPLINE
  5
123
100
AcDbEntity
  8
Layer_1
 62
7
100
AcDbSpline
 70
8
 71
3
 72
8
 73
4
 74
0
 40
0
 40
0
 40
0
 40
0
 40
1
 40
1
 40
1
 40
1
 10
71.341807
 20
528.873601
 30
0.0
 10
71.775642
 20
528.662519
 30
0.0
 10
72.073821
 20
528.215513
 30
0.0
 10
72.073821
 20
527.700615
 30
0.0
  0
SPLINE
  5
124
100
AcDbEntity
  8
Layer_1
 62
7
100
AcDbSpline
 70
8
 71
3
 72
8
 73
4
 74
0
 40
0
 40
0
 40
0
 40
0
 40
1
 40
1
 40
1
 40
1
 10
72.073821
 20
527.700615
 30
0.0
 10
72.073821
 20
526.981798
 30
0.0
 10
71.487360
 20
526.404157
 30
0.0
 10
70.768543
 20
526.404157
 30
0.0
  0
SPLINE
  5
125
100
AcDbEntity
  8
Layer_1
 62
7
100
AcDbSpline
 70
8
 71
3
 72
8
 73
4
 74
0
 40
0
 40
0
 40
0
 40
0
 40
1
 40
1
 40
1
 40
1
 10
70.768543
 20
526.404157
 30
0.0
 10
70.117801
 20
526.404157
 30
0.0
 10
69.586018
 20
526.882809
 30
0.0
 10
69.489724
 20
527.506588
 30
0.0
  0
LWPOLYLINE
  5
126
100
AcDbEntity
  8
Layer_1
 62
7
100
AcDbPolyline
 90
2
 70
1
 10
56.101807
 20
530.505199
 30
0.0
 10
69.507362
 20
530.505199
 30
0.0
  0
SPLINE
  5
127
100
AcDbEntity
  8
Layer_1
 62
7
100
AcDbSpline
 70
8
 71
3
 72
8
 73
4
 74
0
 40
0
 40
0
 40
0
 40
0
 40
1
 40
1
 40
1
 40
1
 10
56.251737
 20
527.506588
 30
0.0
 10
56.155443
 20
526.882809
 30
0.0
 10
55.614841
 20
526.404157
 30
0.0
 10
54.964099
 20
526.404157
 30
0.0
  0
SPLINE
  5
128
100
AcDbEntity
  8
Layer_1
 62
7
100
AcDbSpline
 70
8
 71
3
 72
8
 73
4
 74
0
 40
0
 40
0
 40
0
 40
0
 40
1
 40
1
 40
1
 40
1
 10
54.964099
 20
526.404157
 30
0.0
 10
54.245281
 20
526.404157
 30
0.0
 10
53.667640
 20
526.981798
 30
0.0
 10
53.667640
 20
527.700615
 30
0.0
  0
SPLINE
  5
129
100
AcDbEntity
  8
Layer_1
 62
7
100
AcDbSpline
 70
8
 71
3
 72
8
 73
4
 74
0
 40
0
 40
0
 40
0
 40
0
 40
1
 40
1
 40
1
 40
1
 10
53.667640
 20
527.700615
 30
0.0
 10
53.667640
 20
528.189825
 30
0.0
 10
53.938898
 20
528.615981
 30
0.0
 10
54.337918
 20
528.838324
 30
0.0
  0
SPLINE
  5
12a
100
AcDbEntity
  8
Layer_1
 62
7
100
AcDbSpline
 70
8
 71
3
 72
8
 73
4
 74
0
 40
0
 40
0
 40
0
 40
0
 40
1
 40
1
 40
1
 40
1
 10
54.337918
 20
528.838324
 30
0.0
 10
53.905537
 20
529.049934
 30
0.0
 10
53.605904
 20
529.488657
 30
0.0
 10
53.605904
 20
530.002490
 30
0.0
  0
SPLINE
  5
12b
100
AcDbEntity
  8
Layer_1
 62
7
100
AcDbSpline
 70
8
 71
3
 72
8
 73
4
 74
0
 40
0
 40
0
 40
0
 40
0
 40
1
 40
1
 40
1
 40
1
 10
53.605904
 20
530.002490
 30
0.0
 10
53.605904
 20
530.721308
 30
0.0
 10
54.183545
 20
531.307768
 30
0.0
 10
54.902362
 20
531.307768
 30
0.0
  0
LWPOLYLINE
  5
12c
100
AcDbEntity
  8
Layer_1
 62
7
100
AcDbPolyline
 90
2
 70
1
 10
69.489724
 20
527.506588
 30
0.0
 10
56.251737
 20
527.506588
 30
0.0
  0
SPLINE
  5
12d
100
AcDbEntity
  8
Layer_1
 62
7
100
AcDbSpline
 70
8
 71
3
 72
8
 73
4
 74
0
 40
0
 40
0
 40
0
 40
0
 40
1
 40
1
 40
1
 40
1
 10
84.817918
 20
531.307768
 30
0.0
 10
85.359940
 20
531.307768
 30
0.0
 10
85.821593
 20
530.976366
 30
0.0
 10
86.017362
 20
530.505199
 30
0.0
  0
LWPOLYLINE
  5
12e
100
AcDbEntity
  8
Layer_1
 62
7
100
AcDbPolyline
 90
2
 70
1
 10
54.902362
 20
531.307768
 30
0.0
 10
54.902362
 20
531.307768
 30
0.0
  0
SPLINE
  5
12f
100
AcDbEntity
  8
Layer_1
 62
7
100
AcDbSpline
 70
8
 71
3
 72
8
 73
4
 74
0
 40
0
 40
0
 40
0
 40
0
 40
1
 40
1
 40
1
 40
1
 10
99.422918
 20
530.505199
 30
0.0
 10
99.618650
 20
530.976448
 30
0.0
 10
100.080281
 20
531.307768
 30
0.0
 10
100.622362
 20
531.307768
 30
0.0
  0
SPLINE
  5
130
100
AcDbEntity
  8
Layer_1
 62
7
100
AcDbSpline
 70
8
 71
3
 72
8
 73
4
 74
0
 40
0
 40
0
 40
0
 40
0
 40
1
 40
1
 40
1
 40
1
 10
100.622362
 20
531.307768
 30
0.0
 10
101.341180
 20
531.307768
 30
0.0
 10
101.927640
 20
530.721308
 30
0.0
 10
101.927640
 20
530.002490
 30
0.0
  0
SPLINE
  5
131
100
AcDbEntity
  8
Layer_1
 62
7
100
AcDbSpline
 70
8
 71
3
 72
8
 73
4
 74
0
 40
0
 40
0
 40
0
 40
0
 40
1
 40
1
 40
1
 40
1
 10
101.927640
 20
530.002490
 30
0.0
 10
101.927640
 20
529.513938
 30
0.0
 10
101.655499
 20
529.096193
 30
0.0
 10
101.257362
 20
528.873601
 30
0.0
  0
SPLINE
  5
132
100
AcDbEntity
  8
Layer_1
 62
7
100
AcDbSpline
 70
8
 71
3
 72
8
 73
4
 74
0
 40
0
 40
0
 40
0
 40
0
 40
1
 40
1
 40
1
 40
1
 10
101.257362
 20
528.873601
 30
0.0
 10
101.691197
 20
528.662519
 30
0.0
 10
101.989376
 20
528.215513
 30
0.0
 10
101.989376
 20
527.700615
 30
0.0
  0
SPLINE
  5
133
100
AcDbEntity
  8
Layer_1
 62
7
100
AcDbSpline
 70
8
 71
3
 72
8
 73
4
 74
0
 40
0
 40
0
 40
0
 40
0
 40
1
 40
1
 40
1
 40
1
 10
101.989376
 20
527.700615
 30
0.0
 10
101.989376
 20
526.981798
 30
0.0
 10
101.402916
 20
526.404157
 30
0.0
 10
100.684099
 20
526.404157
 30
0.0
  0
SPLINE
  5
134
100
AcDbEntity
  8
Layer_1
 62
7
100
AcDbSpline
 70
8
 71
3
 72
8
 73
4
 74
0
 40
0
 40
0
 40
0
 40
0
 40
1
 40
1
 40
1
 40
1
 10
100.684099
 20
526.404157
 30
0.0
 10
100.033356
 20
526.404157
 30
0.0
 10
99.501573
 20
526.882809
 30
0.0
 10
99.405279
 20
527.506588
 30
0.0
  0
LWPOLYLINE
  5
135
100
AcDbEntity
  8
Layer_1
 62
7
100
AcDbPolyline
 90
2
 70
1
 10
86.017362
 20
530.505199
 30
0.0
 10
99.422918
 20
530.505199
 30
0.0
  0
SPLINE
  5
136
100
AcDbEntity
  8
Layer_1
 62
7
100
AcDbSpline
 70
8
 71
3
 72
8
 73
4
 74
0
 40
0
 40
0
 40
0
 40
0
 40
1
 40
1
 40
1
 40
1
 10
86.167293
 20
527.506588
 30
0.0
 10
86.070999
 20
526.882809
 30
0.0
 10
85.530396
 20
526.404157
 30
0.0
 10
84.879654
 20
526.404157
 30
0.0
  0
SPLINE
  5
137
100
AcDbEntity
  8
Layer_1
 62
7
100
AcDbSpline
 70
8
 71
3
 72
8
 73
4
 74
0
 40
0
 40
0
 40
0
 40
0
 40
1
 40
1
 40
1
 40
1
 10
84.879654
 20
526.404157
 30
0.0
 10
84.160837
 20
526.404157
 30
0.0
 10
83.583196
 20
526.981798
 30
0.0
 10
83.583196
 20
527.700615
 30
0.0
  0
SPLINE
  5
138
100
AcDbEntity
  8
Layer_1
 62
7
100
AcDbSpline
 70
8
 71
3
 72
8
 73
4
 74
0
 40
0
 40
0
 40
0
 40
0
 40
1
 40
1
 40
1
 40
1
 10
83.583196
 20
527.700615
 30
0.0
 10
83.583196
 20
528.189825
 30
0.0
 10
83.854454
 20
528.615981
 30
0.0
 10
84.253474
 20
528.838324
 30
0.0
  0
SPLINE
  5
139
100
AcDbEntity
  8
Layer_1
 62
7
100
AcDbSpline
 70
8
 71
3
 72
8
 73
4
 74
0
 40
0
 40
0
 40
0
 40
0
 40
1
 40
1
 40
1
 40
1
 10
84.253474
 20
528.838324
 30
0.0
 10
83.821092
 20
529.049934
 30
0.0
 10
83.521460
 20
529.488657
 30
0.0
 10
83.521460
 20
530.002490
 30
0.0
  0
SPLINE
  5
13a
100
AcDbEntity
  8
Layer_1
 62
7
100
AcDbSpline
 70
8
 71
3
 72
8
 73
4
 74
0
 40
0
 40
0
 40
0
 40
0
 40
1
 40
1
 40
1
 40
1
 10
83.521460
 20
530.002490
 30
0.0
 10
83.521460
 20
530.721308
 30
0.0
 10
84.099101
 20
531.307768
 30
0.0
 10
84.817918
 20
531.307768
 30
0.0
  0
LWPOLYLINE
  5
13b
100
AcDbEntity
  8
Layer_1
 62
7
100
AcDbPolyline
 90
2
 70
1
 10
99.405279
 20
527.506588
 30
0.0
 10
86.167293
 20
527.506588
 30
0.0
  0
SPLINE
  5
13c
100
AcDbEntity
  8
Layer_1
 62
7
100
AcDbSpline
 70
8
 71
3
 72
8
 73
4
 74
0
 40
0
 40
0
 40
0
 40
0
 40
1
 40
1
 40
1
 40
1
 10
109.653474
 20
531.307768
 30
0.0
 10
110.195495
 20
531.307768
 30
0.0
 10
110.657149
 20
530.976366
 30
0.0
 10
110.852918
 20
530.505199
 30
0.0
  0
LWPOLYLINE
  5
13d
100
AcDbEntity
  8
Layer_1
 62
7
100
AcDbPolyline
 90
2
 70
1
 10
84.817918
 20
531.307768
 30
0.0
 10
84.817918
 20
531.307768
 30
0.0
  0
SPLINE
  5
13e
100
AcDbEntity
  8
Layer_1
 62
7
100
AcDbSpline
 70
8
 71
3
 72
8
 73
4
 74
0
 40
0
 40
0
 40
0
 40
0
 40
1
 40
1
 40
1
 40
1
 10
124.558335
 20
530.505199
 30
0.0
 10
124.792342
 20
530.730528
 30
0.0
 10
125.107406
 20
530.875615
 30
0.0
 10
125.457918
 20
530.875615
 30
0.0
  0
SPLINE
  5
13f
100
AcDbEntity
  8
Layer_1
 62
7
100
AcDbSpline
 70
8
 71
3
 72
8
 73
4
 74
0
 40
0
 40
0
 40
0
 40
0
 40
1
 40
1
 40
1
 40
1
 10
125.457918
 20
530.875615
 30
0.0
 10
126.176735
 20
530.875615
 30
0.0
 10
126.763196
 20
530.289155
 30
0.0
 10
126.763196
 20
529.570338
 30
0.0
  0
SPLINE
  5
140
100
AcDbEntity
  8
Layer_1
 62
7
100
AcDbSpline
 70
8
 71
3
 72
8
 73
4
 74
0
 40
0
 40
0
 40
0
 40
0
 40
1
 40
1
 40
1
 40
1
 10
126.763196
 20
529.570338
 30
0.0
 10
126.763196
 20
529.077518
 30
0.0
 10
126.487976
 20
528.653575
 30
0.0
 10
126.084099
 20
528.432629
 30
0.0
  0
SPLINE
  5
141
100
AcDbEntity
  8
Layer_1
 62
7
100
AcDbSpline
 70
8
 71
3
 72
8
 73
4
 74
0
 40
0
 40
0
 40
0
 40
0
 40
1
 40
1
 40
1
 40
1
 10
126.084099
 20
528.432629
 30
0.0
 10
126.520219
 20
528.222388
 30
0.0
 10
126.824932
 20
527.785031
 30
0.0
 10
126.824932
 20
527.268463
 30
0.0
  0
SPLINE
  5
142
100
AcDbEntity
  8
Layer_1
 62
7
100
AcDbSpline
 70
8
 71
3
 72
8
 73
4
 74
0
 40
0
 40
0
 40
0
 40
0
 40
1
 40
1
 40
1
 40
1
 10
126.824932
 20
527.268463
 30
0.0
 10
126.824932
 20
526.549645
 30
0.0
 10
126.238471
 20
525.963185
 30
0.0
 10
125.519654
 20
525.963185
 30
0.0
  0
SPLINE
  5
143
100
AcDbEntity
  8
Layer_1
 62
7
100
AcDbSpline
 70
8
 71
3
 72
8
 73
4
 74
0
 40
0
 40
0
 40
0
 40
0
 40
1
 40
1
 40
1
 40
1
 10
125.519654
 20
525.963185
 30
0.0
 10
124.800837
 20
525.963185
 30
0.0
 10
124.223196
 20
526.549645
 30
0.0
 10
124.223196
 20
527.268463
 30
0.0
  0
SPLINE
  5
144
100
AcDbEntity
  8
Layer_1
 62
7
100
AcDbSpline
 70
8
 71
3
 72
8
 73
4
 74
0
 40
0
 40
0
 40
0
 40
0
 40
1
 40
1
 40
1
 40
1
 10
124.223196
 20
527.268463
 30
0.0
 10
124.223196
 20
527.349418
 30
0.0
 10
124.235501
 20
527.429722
 30
0.0
 10
124.249640
 20
527.506588
 30
0.0
  0
LWPOLYLINE
  5
145
100
AcDbEntity
  8
Layer_1
 62
7
100
AcDbPolyline
 90
2
 70
1
 10
110.852918
 20
530.505199
 30
0.0
 10
124.558335
 20
530.505199
 30
0.0
  0
SPLINE
  5
146
100
AcDbEntity
  8
Layer_1
 62
7
100
AcDbSpline
 70
8
 71
3
 72
8
 73
4
 74
0
 40
0
 40
0
 40
0
 40
0
 40
1
 40
1
 40
1
 40
1
 10
111.002834
 20
527.506588
 30
0.0
 10
110.906540
 20
526.882809
 30
0.0
 10
110.365938
 20
526.404157
 30
0.0
 10
109.715196
 20
526.404157
 30
0.0
  0
SPLINE
  5
147
100
AcDbEntity
  8
Layer_1
 62
7
100
AcDbSpline
 70
8
 71
3
 72
8
 73
4
 74
0
 40
0
 40
0
 40
0
 40
0
 40
1
 40
1
 40
1
 40
1
 10
109.715196
 20
526.404157
 30
0.0
 10
108.996378
 20
526.404157
 30
0.0
 10
108.418737
 20
526.981798
 30
0.0
 10
108.418737
 20
527.700615
 30
0.0
  0
SPLINE
  5
148
100
AcDbEntity
  8
Layer_1
 62
7
100
AcDbSpline
 70
8
 71
3
 72
8
 73
4
 74
0
 40
0
 40
0
 40
0
 40
0
 40
1
 40
1
 40
1
 40
1
 10
108.418737
 20
527.700615
 30
0.0
 10
108.418737
 20
528.189825
 30
0.0
 10
108.689995
 20
528.615981
 30
0.0
 10
109.089015
 20
528.838324
 30
0.0
  0
SPLINE
  5
149
100
AcDbEntity
  8
Layer_1
 62
7
100
AcDbSpline
 70
8
 71
3
 72
8
 73
4
 74
0
 40
0
 40
0
 40
0
 40
0
 40
1
 40
1
 40
1
 40
1
 10
109.089015
 20
528.838324
 30
0.0
 10
108.656634
 20
529.049934
 30
0.0
 10
108.357001
 20
529.488657
 30
0.0
 10
108.357001
 20
530.002490
 30
0.0
  0
SPLINE
  5
14a
100
AcDbEntity
  8
Layer_1
 62
7
100
AcDbSpline
 70
8
 71
3
 72
8
 73
4
 74
0
 40
0
 40
0
 40
0
 40
0
 40
1
 40
1
 40
1
 40
1
 10
108.357001
 20
530.002490
 30
0.0
 10
108.357001
 20
530.721308
 30
0.0
 10
108.934642
 20
531.307768
 30
0.0
 10
109.653459
 20
531.307768
 30
0.0
  0
LWPOLYLINE
  5
14b
100
AcDbEntity
  8
Layer_1
 62
7
100
AcDbPolyline
 90
2
 70
1
 10
124.249640
 20
527.506588
 30
0.0
 10
111.002834
 20
527.506588
 30
0.0
  0
SPLINE
  5
14c
100
AcDbEntity
  8
Layer_1
 62
7
100
AcDbSpline
 70
8
 71
3
 72
8
 73
4
 74
0
 40
0
 40
0
 40
0
 40
0
 40
1
 40
1
 40
1
 40
1
 10
139.895349
 20
531.307768
 30
0.0
 10
140.437430
 20
531.307768
 30
0.0
 10
140.899061
 20
530.976448
 30
0.0
 10
141.094793
 20
530.505199
 30
0.0
  0
LWPOLYLINE
  5
14d
100
AcDbEntity
  8
Layer_1
 62
7
100
AcDbPolyline
 90
2
 70
1
 10
109.653459
 20
531.307768
 30
0.0
 10
109.653474
 20
531.307768
 30
0.0
  0
SPLINE
  5
14e
100
AcDbEntity
  8
Layer_1
 62
7
100
AcDbSpline
 70
8
 71
3
 72
8
 73
4
 74
0
 40
0
 40
0
 40
0
 40
0
 40
1
 40
1
 40
1
 40
1
 10
154.024099
 20
530.505199
 30
0.0
 10
154.246690
 20
530.903335
 30
0.0
 10
154.664435
 20
531.175476
 30
0.0
 10
155.152987
 20
531.175476
 30
0.0
  0
SPLINE
  5
14f
100
AcDbEntity
  8
Layer_1
 62
7
100
AcDbSpline
 70
8
 71
3
 72
8
 73
4
 74
0
 40
0
 40
0
 40
0
 40
0
 40
1
 40
1
 40
1
 40
1
 10
155.152987
 20
531.175476
 30
0.0
 10
155.871805
 20
531.175476
 30
0.0
 10
156.458265
 20
530.589016
 30
0.0
 10
156.458265
 20
529.870199
 30
0.0
  0
SPLINE
  5
150
100
AcDbEntity
  8
Layer_1
 62
7
100
AcDbSpline
 70
8
 71
3
 72
8
 73
4
 74
0
 40
0
 40
0
 40
0
 40
0
 40
1
 40
1
 40
1
 40
1
 10
156.458265
 20
529.870199
 30
0.0
 10
156.458265
 20
529.381647
 30
0.0
 10
156.186124
 20
528.963901
 30
0.0
 10
155.787987
 20
528.741310
 30
0.0
  0
SPLINE
  5
151
100
AcDbEntity
  8
Layer_1
 62
7
100
AcDbSpline
 70
8
 71
3
 72
8
 73
4
 74
0
 40
0
 40
0
 40
0
 40
0
 40
1
 40
1
 40
1
 40
1
 10
155.787987
 20
528.741310
 30
0.0
 10
156.221822
 20
528.530227
 30
0.0
 10
156.520001
 20
528.083221
 30
0.0
 10
156.520001
 20
527.568324
 30
0.0
  0
SPLINE
  5
152
100
AcDbEntity
  8
Layer_1
 62
7
100
AcDbSpline
 70
8
 71
3
 72
8
 73
4
 74
0
 40
0
 40
0
 40
0
 40
0
 40
1
 40
1
 40
1
 40
1
 10
156.520001
 20
527.568324
 30
0.0
 10
156.520001
 20
526.849507
 30
0.0
 10
155.942360
 20
526.271865
 30
0.0
 10
155.223543
 20
526.271865
 30
0.0
  0
SPLINE
  5
153
100
AcDbEntity
  8
Layer_1
 62
7
100
AcDbSpline
 70
8
 71
3
 72
8
 73
4
 74
0
 40
0
 40
0
 40
0
 40
0
 40
1
 40
1
 40
1
 40
1
 10
155.223543
 20
526.271865
 30
0.0
 10
154.526502
 20
526.271865
 30
0.0
 10
153.960923
 20
526.817940
 30
0.0
 10
153.927085
 20
527.506588
 30
0.0
  0
LWPOLYLINE
  5
154
100
AcDbEntity
  8
Layer_1
 62
7
100
AcDbPolyline
 90
2
 70
1
 10
141.094793
 20
530.505199
 30
0.0
 10
154.024099
 20
530.505199
 30
0.0
  0
SPLINE
  5
155
100
AcDbEntity
  8
Layer_1
 62
7
100
AcDbSpline
 70
8
 71
3
 72
8
 73
4
 74
0
 40
0
 40
0
 40
0
 40
0
 40
1
 40
1
 40
1
 40
1
 10
141.244724
 20
527.506588
 30
0.0
 10
141.148429
 20
526.882809
 30
0.0
 10
140.607827
 20
526.404157
 30
0.0
 10
139.957085
 20
526.404157
 30
0.0
  0
SPLINE
  5
156
100
AcDbEntity
  8
Layer_1
 62
7
100
AcDbSpline
 70
8
 71
3
 72
8
 73
4
 74
0
 40
0
 40
0
 40
0
 40
0
 40
1
 40
1
 40
1
 40
1
 10
139.957085
 20
526.404157
 30
0.0
 10
139.238268
 20
526.404157
 30
0.0
 10
138.651807
 20
526.981798
 30
0.0
 10
138.651807
 20
527.700615
 30
0.0
  0
SPLINE
  5
157
100
AcDbEntity
  8
Layer_1
 62
7
100
AcDbSpline
 70
8
 71
3
 72
8
 73
4
 74
0
 40
0
 40
0
 40
0
 40
0
 40
1
 40
1
 40
1
 40
1
 10
138.651807
 20
527.700615
 30
0.0
 10
138.651807
 20
528.189825
 30
0.0
 10
138.931884
 20
528.615981
 30
0.0
 10
139.330904
 20
528.838324
 30
0.0
  0
SPLINE
  5
158
100
AcDbEntity
  8
Layer_1
 62
7
100
AcDbSpline
 70
8
 71
3
 72
8
 73
4
 74
0
 40
0
 40
0
 40
0
 40
0
 40
1
 40
1
 40
1
 40
1
 10
139.330904
 20
528.838324
 30
0.0
 10
138.894783
 20
529.048565
 30
0.0
 10
138.590071
 20
529.485922
 30
0.0
 10
138.590071
 20
530.002490
 30
0.0
  0
SPLINE
  5
159
100
AcDbEntity
  8
Layer_1
 62
7
100
AcDbSpline
 70
8
 71
3
 72
8
 73
4
 74
0
 40
0
 40
0
 40
0
 40
0
 40
1
 40
1
 40
1
 40
1
 10
138.590071
 20
530.002490
 30
0.0
 10
138.590071
 20
530.721308
 30
0.0
 10
139.176531
 20
531.307768
 30
0.0
 10
139.895349
 20
531.307768
 30
0.0
  0
LWPOLYLINE
  5
15a
100
AcDbEntity
  8
Layer_1
 62
7
100
AcDbPolyline
 90
2
 70
1
 10
153.927085
 20
527.506588
 30
0.0
 10
141.244724
 20
527.506588
 30
0.0
  0
SPLINE
  5
15b
100
AcDbEntity
  8
Layer_1
 62
7
100
AcDbSpline
 70
8
 71
3
 72
8
 73
4
 74
0
 40
0
 40
0
 40
0
 40
0
 40
1
 40
1
 40
1
 40
1
 10
76.792224
 20
525.178254
 30
0.0
 10
77.473161
 20
525.178254
 30
0.0
 10
78.026946
 20
524.624469
 30
0.0
 10
78.026946
 20
523.943532
 30
0.0
  0
SPLINE
  5
15c
100
AcDbEntity
  8
Layer_1
 62
7
100
AcDbSpline
 70
8
 71
3
 72
8
 73
4
 74
0
 40
0
 40
0
 40
0
 40
0
 40
1
 40
1
 40
1
 40
1
 10
78.026946
 20
523.943532
 30
0.0
 10
78.026946
 20
523.262595
 30
0.0
 10
77.473161
 20
522.708810
 30
0.0
 10
76.792224
 20
522.708810
 30
0.0
  0
SPLINE
  5
15d
100
AcDbEntity
  8
Layer_1
 62
7
100
AcDbSpline
 70
8
 71
3
 72
8
 73
4
 74
0
 40
0
 40
0
 40
0
 40
0
 40
1
 40
1
 40
1
 40
1
 10
76.792224
 20
522.708810
 30
0.0
 10
76.111286
 20
522.708810
 30
0.0
 10
75.566321
 20
523.262595
 30
0.0
 10
75.566321
 20
523.943532
 30
0.0
  0
SPLINE
  5
15e
100
AcDbEntity
  8
Layer_1
 62
7
100
AcDbSpline
 70
8
 71
3
 72
8
 73
4
 74
0
 40
0
 40
0
 40
0
 40
0
 40
1
 40
1
 40
1
 40
1
 10
75.566321
 20
523.943532
 30
0.0
 10
75.566321
 20
524.624469
 30
0.0
 10
76.111286
 20
525.178254
 30
0.0
 10
76.792224
 20
525.178254
 30
0.0
  0
LWPOLYLINE
  5
15f
100
AcDbEntity
  8
Layer_1
 62
7
100
AcDbPolyline
 90
2
 70
1
 10
139.895349
 20
531.307768
 30
0.0
 10
139.895349
 20
531.307768
 30
0.0
  0
SPLINE
  5
160
100
AcDbEntity
  8
Layer_1
 62
7
100
AcDbSpline
 70
8
 71
3
 72
8
 73
4
 74
0
 40
0
 40
0
 40
0
 40
0
 40
1
 40
1
 40
1
 40
1
 10
136.491043
 20
524.746101
 30
0.0
 10
137.171980
 20
524.746101
 30
0.0
 10
137.725765
 20
524.192317
 30
0.0
 10
137.725765
 20
523.511379
 30
0.0
  0
SPLINE
  5
161
100
AcDbEntity
  8
Layer_1
 62
7
100
AcDbSpline
 70
8
 71
3
 72
8
 73
4
 74
0
 40
0
 40
0
 40
0
 40
0
 40
1
 40
1
 40
1
 40
1
 10
137.725765
 20
523.511379
 30
0.0
 10
137.725765
 20
522.830442
 30
0.0
 10
137.171980
 20
522.276657
 30
0.0
 10
136.491043
 20
522.276657
 30
0.0
  0
SPLINE
  5
162
100
AcDbEntity
  8
Layer_1
 62
7
100
AcDbSpline
 70
8
 71
3
 72
8
 73
4
 74
0
 40
0
 40
0
 40
0
 40
0
 40
1
 40
1
 40
1
 40
1
 10
136.491043
 20
522.276657
 30
0.0
 10
135.810106
 20
522.276657
 30
0.0
 10
135.265140
 20
522.830442
 30
0.0
 10
135.265140
 20
523.511379
 30
0.0
  0
SPLINE
  5
163
100
AcDbEntity
  8
Layer_1
 62
7
100
AcDbSpline
 70
8
 71
3
 72
8
 73
4
 74
0
 40
0
 40
0
 40
0
 40
0
 40
1
 40
1
 40
1
 40
1
 10
135.265140
 20
523.511379
 30
0.0
 10
135.265140
 20
524.192317
 30
0.0
 10
135.810106
 20
524.746101
 30
0.0
 10
136.491043
 20
524.746101
 30
0.0
  0
LWPOLYLINE
  5
164
100
AcDbEntity
  8
Layer_1
 62
7
100
AcDbPolyline
 90
2
 70
1
 10
76.792224
 20
525.178254
 30
0.0
 10
76.792224
 20
525.178254
 30
0.0
  0
SPLINE
  5
165
100
AcDbEntity
  8
Layer_1
 62
7
100
AcDbSpline
 70
8
 71
3
 72
8
 73
4
 74
0
 40
0
 40
0
 40
0
 40
0
 40
1
 40
1
 40
1
 40
1
 10
195.281446
 20
519.569088
 30
0.0
 10
195.843378
 20
519.569088
 30
0.0
 10
196.315790
 20
519.211636
 30
0.0
 10
196.498557
 20
518.713601
 30
0.0
  0
SPLINE
  5
166
100
AcDbEntity
  8
Layer_1
 62
7
100
AcDbSpline
 70
8
 71
3
 72
8
 73
4
 74
0
 40
0
 40
0
 40
0
 40
0
 40
1
 40
1
 40
1
 40
1
 10
196.498557
 20
518.713601
 30
0.0
 10
196.680816
 20
519.211964
 30
0.0
 10
197.154131
 20
519.569088
 30
0.0
 10
197.715612
 20
519.569088
 30
0.0
  0
SPLINE
  5
167
100
AcDbEntity
  8
Layer_1
 62
7
100
AcDbSpline
 70
8
 71
3
 72
8
 73
4
 74
0
 40
0
 40
0
 40
0
 40
0
 40
1
 40
1
 40
1
 40
1
 10
197.715612
 20
519.569088
 30
0.0
 10
198.434997
 20
519.569088
 30
0.0
 10
199.020946
 20
518.991446
 30
0.0
 10
199.020890
 20
518.272629
 30
0.0
  0
SPLINE
  5
168
100
AcDbEntity
  8
Layer_1
 62
7
100
AcDbSpline
 70
8
 71
3
 72
8
 73
4
 74
0
 40
0
 40
0
 40
0
 40
0
 40
1
 40
1
 40
1
 40
1
 10
199.020890
 20
518.272629
 30
0.0
 10
199.020890
 20
517.730607
 30
0.0
 10
198.689505
 20
517.268954
 30
0.0
 10
198.218335
 20
517.073185
 30
0.0
  0
LWPOLYLINE
  5
169
100
AcDbEntity
  8
Layer_1
 62
7
100
AcDbPolyline
 90
2
 70
1
 10
136.491043
 20
524.746101
 30
0.0
 10
136.491043
 20
524.746101
 30
0.0
  0
SPLINE
  5
16a
100
AcDbEntity
  8
Layer_1
 62
7
100
AcDbSpline
 70
8
 71
3
 72
8
 73
4
 74
0
 40
0
 40
0
 40
0
 40
0
 40
1
 40
1
 40
1
 40
1
 10
198.218335
 20
503.870476
 30
0.0
 10
198.937155
 20
503.870476
 30
0.0
 10
199.523612
 20
503.292835
 30
0.0
 10
199.523612
 20
502.574018
 30
0.0
  0
SPLINE
  5
16b
100
AcDbEntity
  8
Layer_1
 62
7
100
AcDbSpline
 70
8
 71
3
 72
8
 73
4
 74
0
 40
0
 40
0
 40
0
 40
0
 40
1
 40
1
 40
1
 40
1
 10
199.523612
 20
502.574018
 30
0.0
 10
199.523612
 20
501.855201
 30
0.0
 10
198.937155
 20
501.268740
 30
0.0
 10
198.218335
 20
501.268740
 30
0.0
  0
SPLINE
  5
16c
100
AcDbEntity
  8
Layer_1
 62
7
100
AcDbSpline
 70
8
 71
3
 72
8
 73
4
 74
0
 40
0
 40
0
 40
0
 40
0
 40
1
 40
1
 40
1
 40
1
 10
198.218335
 20
501.268740
 30
0.0
 10
197.656769
 20
501.268740
 30
0.0
 10
197.183736
 20
501.625864
 30
0.0
 10
197.001251
 20
502.124226
 30
0.0
  0
SPLINE
  5
16d
100
AcDbEntity
  8
Layer_1
 62
7
100
AcDbSpline
 70
8
 71
3
 72
8
 73
4
 74
0
 40
0
 40
0
 40
0
 40
0
 40
1
 40
1
 40
1
 40
1
 10
197.001251
 20
502.124226
 30
0.0
 10
196.818597
 20
501.626192
 30
0.0
 10
196.345508
 20
501.268740
 30
0.0
 10
195.784168
 20
501.268740
 30
0.0
  0
SPLINE
  5
16e
100
AcDbEntity
  8
Layer_1
 62
7
100
AcDbSpline
 70
8
 71
3
 72
8
 73
4
 74
0
 40
0
 40
0
 40
0
 40
0
 40
1
 40
1
 40
1
 40
1
 10
195.784168
 20
501.268740
 30
0.0
 10
195.065348
 20
501.268740
 30
0.0
 10
194.478890
 20
501.855201
 30
0.0
 10
194.478890
 20
502.574018
 30
0.0
  0
SPLINE
  5
16f
100
AcDbEntity
  8
Layer_1
 62
7
100
AcDbSpline
 70
8
 71
3
 72
8
 73
4
 74
0
 40
0
 40
0
 40
0
 40
0
 40
1
 40
1
 40
1
 40
1
 10
194.478890
 20
502.574018
 30
0.0
 10
194.478890
 20
503.087852
 30
0.0
 10
194.787331
 20
503.526575
 30
0.0
 10
195.219724
 20
503.738185
 30
0.0
  0
LWPOLYLINE
  5
170
100
AcDbEntity
  8
Layer_1
 62
7
100
AcDbPolyline
 90
2
 70
1
 10
198.218335
 20
517.073185
 30
0.0
 10
198.218335
 20
503.870476
 30
0.0
  0
SPLINE
  5
171
100
AcDbEntity
  8
Layer_1
 62
7
100
AcDbSpline
 70
8
 71
3
 72
8
 73
4
 74
0
 40
0
 40
0
 40
0
 40
0
 40
1
 40
1
 40
1
 40
1
 10
195.219724
 20
516.976171
 30
0.0
 10
194.530057
 20
517.008934
 30
0.0
 10
193.985001
 20
517.574866
 30
0.0
 10
193.985001
 20
518.272629
 30
0.0
  0
SPLINE
  5
172
100
AcDbEntity
  8
Layer_1
 62
7
100
AcDbSpline
 70
8
 71
3
 72
8
 73
4
 74
0
 40
0
 40
0
 40
0
 40
0
 40
1
 40
1
 40
1
 40
1
 10
193.985001
 20
518.272629
 30
0.0
 10
193.985001
 20
518.991446
 30
0.0
 10
194.562738
 20
519.569088
 30
0.0
 10
195.281446
 20
519.569088
 30
0.0
  0
LWPOLYLINE
  5
173
100
AcDbEntity
  8
Layer_1
 62
7
100
AcDbPolyline
 90
2
 70
1
 10
195.219724
 20
503.738185
 30
0.0
 10
195.219724
 20
516.976171
 30
0.0
  0
SPLINE
  5
174
100
AcDbEntity
  8
Layer_1
 62
7
100
AcDbSpline
 70
8
 71
3
 72
8
 73
4
 74
0
 40
0
 40
0
 40
0
 40
0
 40
1
 40
1
 40
1
 40
1
 10
12.480833
 20
518.572490
 30
0.0
 10
13.042176
 20
518.572490
 30
0.0
 10
13.515271
 20
518.215039
 30
0.0
 10
13.697917
 20
517.717004
 30
0.0
  0
SPLINE
  5
175
100
AcDbEntity
  8
Layer_1
 62
7
100
AcDbSpline
 70
8
 71
3
 72
8
 73
4
 74
0
 40
0
 40
0
 40
0
 40
0
 40
1
 40
1
 40
1
 40
1
 10
13.697917
 20
517.717004
 30
0.0
 10
13.880390
 20
518.215366
 30
0.0
 10
14.353423
 20
518.572490
 30
0.0
 10
14.915000
 20
518.572490
 30
0.0
  0
SPLINE
  5
176
100
AcDbEntity
  8
Layer_1
 62
7
100
AcDbSpline
 70
8
 71
3
 72
8
 73
4
 74
0
 40
0
 40
0
 40
0
 40
0
 40
1
 40
1
 40
1
 40
1
 10
14.915000
 20
518.572490
 30
0.0
 10
15.633817
 20
518.572490
 30
0.0
 10
16.220278
 20
517.986030
 30
0.0
 10
16.220278
 20
517.267213
 30
0.0
  0
SPLINE
  5
177
100
AcDbEntity
  8
Layer_1
 62
7
100
AcDbSpline
 70
8
 71
3
 72
8
 73
4
 74
0
 40
0
 40
0
 40
0
 40
0
 40
1
 40
1
 40
1
 40
1
 10
16.220278
 20
517.267213
 30
0.0
 10
16.220278
 20
516.653930
 30
0.0
 10
15.794656
 20
516.143802
 30
0.0
 10
15.223681
 20
516.006032
 30
0.0
  0
LWPOLYLINE
  5
178
100
AcDbEntity
  8
Layer_1
 62
7
100
AcDbPolyline
 90
2
 70
1
 10
195.281446
 20
519.569088
 30
0.0
 10
195.281446
 20
519.569088
 30
0.0
  0
SPLINE
  5
179
100
AcDbEntity
  8
Layer_1
 62
7
100
AcDbSpline
 70
8
 71
3
 72
8
 73
4
 74
0
 40
0
 40
0
 40
0
 40
0
 40
1
 40
1
 40
1
 40
1
 10
15.223681
 20
503.491240
 30
0.0
 10
15.728316
 20
503.312094
 30
0.0
 10
16.087986
 20
502.831408
 30
0.0
 10
16.087986
 20
502.265338
 30
0.0
  0
SPLINE
  5
17a
100
AcDbEntity
  8
Layer_1
 62
7
100
AcDbSpline
 70
8
 71
3
 72
8
 73
4
 74
0
 40
0
 40
0
 40
0
 40
0
 40
1
 40
1
 40
1
 40
1
 10
16.087986
 20
502.265338
 30
0.0
 10
16.087986
 20
501.546520
 30
0.0
 10
15.510345
 20
500.968879
 30
0.0
 10
14.791528
 20
500.968879
 30
0.0
  0
SPLINE
  5
17b
100
AcDbEntity
  8
Layer_1
 62
7
100
AcDbSpline
 70
8
 71
3
 72
8
 73
4
 74
0
 40
0
 40
0
 40
0
 40
0
 40
1
 40
1
 40
1
 40
1
 10
14.791528
 20
500.968879
 30
0.0
 10
14.230185
 20
500.968879
 30
0.0
 10
13.757090
 20
501.326331
 30
0.0
 10
13.574444
 20
501.824365
 30
0.0
  0
SPLINE
  5
17c
100
AcDbEntity
  8
Layer_1
 62
7
100
AcDbSpline
 70
8
 71
3
 72
8
 73
4
 74
0
 40
0
 40
0
 40
0
 40
0
 40
1
 40
1
 40
1
 40
1
 10
13.574444
 20
501.824365
 30
0.0
 10
13.391971
 20
501.326003
 30
0.0
 10
12.918938
 20
500.968879
 30
0.0
 10
12.357361
 20
500.968879
 30
0.0
  0
SPLINE
  5
17d
100
AcDbEntity
  8
Layer_1
 62
7
100
AcDbSpline
 70
8
 71
3
 72
8
 73
4
 74
0
 40
0
 40
0
 40
0
 40
0
 40
1
 40
1
 40
1
 40
1
 10
12.357361
 20
500.968879
 30
0.0
 10
11.638544
 20
500.968879
 30
0.0
 10
11.052083
 20
501.546520
 30
0.0
 10
11.052083
 20
502.265338
 30
0.0
  0
SPLINE
  5
17e
100
AcDbEntity
  8
Layer_1
 62
7
100
AcDbSpline
 70
8
 71
3
 72
8
 73
4
 74
0
 40
0
 40
0
 40
0
 40
0
 40
1
 40
1
 40
1
 40
1
 10
11.052083
 20
502.265338
 30
0.0
 10
11.052083
 20
502.936115
 30
0.0
 10
11.564308
 20
503.482156
 30
0.0
 10
12.216250
 20
503.552976
 30
0.0
  0
LWPOLYLINE
  5
17f
100
AcDbEntity
  8
Layer_1
 62
7
100
AcDbPolyline
 90
2
 70
1
 10
15.223681
 20
516.006032
 30
0.0
 10
15.223681
 20
503.491240
 30
0.0
  0
SPLINE
  5
180
100
AcDbEntity
  8
Layer_1
 62
7
100
AcDbSpline
 70
8
 71
3
 72
8
 73
4
 74
0
 40
0
 40
0
 40
0
 40
0
 40
1
 40
1
 40
1
 40
1
 10
12.216250
 20
515.997213
 30
0.0
 10
11.627345
 20
516.121785
 30
0.0
 10
11.184375
 20
516.641213
 30
0.0
 10
11.184375
 20
517.267213
 30
0.0
  0
SPLINE
  5
181
100
AcDbEntity
  8
Layer_1
 62
7
100
AcDbSpline
 70
8
 71
3
 72
8
 73
4
 74
0
 40
0
 40
0
 40
0
 40
0
 40
1
 40
1
 40
1
 40
1
 10
11.184375
 20
517.267213
 30
0.0
 10
11.184375
 20
517.986030
 30
0.0
 10
11.762016
 20
518.572490
 30
0.0
 10
12.480833
 20
518.572490
 30
0.0
  0
LWPOLYLINE
  5
182
100
AcDbEntity
  8
Layer_1
 62
7
100
AcDbPolyline
 90
2
 70
1
 10
12.216250
 20
503.552976
 30
0.0
 10
12.216250
 20
515.997213
 30
0.0
  0
SPLINE
  5
183
100
AcDbEntity
  8
Layer_1
 62
7
100
AcDbSpline
 70
8
 71
3
 72
8
 73
4
 74
0
 40
0
 40
0
 40
0
 40
0
 40
1
 40
1
 40
1
 40
1
 10
196.498557
 20
517.822838
 30
0.0
 10
196.456619
 20
517.709387
 30
0.0
 10
196.409572
 20
517.601468
 30
0.0
 10
196.339779
 20
517.505338
 30
0.0
  0
LWPOLYLINE
  5
184
100
AcDbEntity
  8
Layer_1
 62
7
100
AcDbPolyline
 90
2
 70
1
 10
12.480833
 20
518.572490
 30
0.0
 10
12.480833
 20
518.572490
 30
0.0
  0
SPLINE
  5
185
100
AcDbEntity
  8
Layer_1
 62
7
100
AcDbSpline
 70
8
 71
3
 72
8
 73
4
 74
0
 40
0
 40
0
 40
0
 40
0
 40
1
 40
1
 40
1
 40
1
 10
196.666112
 20
517.505338
 30
0.0
 10
196.596206
 20
517.601643
 30
0.0
 10
196.540128
 20
517.709153
 30
0.0
 10
196.498557
 20
517.822838
 30
0.0
  0
LWPOLYLINE
  5
186
100
AcDbEntity
  8
Layer_1
 62
7
100
AcDbPolyline
 90
2
 70
1
 10
196.339779
 20
517.505338
 30
0.0
 10
196.666112
 20
517.505338
 30
0.0
  0
SPLINE
  5
187
100
AcDbEntity
  8
Layer_1
 62
7
100
AcDbSpline
 70
8
 71
3
 72
8
 73
4
 74
0
 40
0
 40
0
 40
0
 40
0
 40
1
 40
1
 40
1
 40
1
 10
61.270001
 20
511.411101
 30
0.0
 10
61.317734
 20
511.415956
 30
0.0
 10
61.370921
 20
511.411101
 30
0.0
 10
61.419932
 20
511.411101
 30
0.0
  0
SPLINE
  5
188
100
AcDbEntity
  8
Layer_1
 62
7
100
AcDbSpline
 70
8
 71
3
 72
8
 73
4
 74
0
 40
0
 40
0
 40
0
 40
0
 40
1
 40
1
 40
1
 40
1
 10
61.419932
 20
511.411101
 30
0.0
 10
62.204098
 20
511.411101
 30
0.0
 10
62.839862
 20
510.784156
 30
0.0
 10
62.839862
 20
509.999990
 30
0.0
  0
SPLINE
  5
189
100
AcDbEntity
  8
Layer_1
 62
7
100
AcDbSpline
 70
8
 71
3
 72
8
 73
4
 74
0
 40
0
 40
0
 40
0
 40
0
 40
1
 40
1
 40
1
 40
1
 10
62.839862
 20
509.999990
 30
0.0
 10
62.839862
 20
509.872564
 30
0.0
 10
62.818414
 20
509.747068
 30
0.0
 10
62.786946
 20
509.629574
 30
0.0
  0
LWPOLYLINE
  5
18a
100
AcDbEntity
  8
Layer_1
 62
7
100
AcDbPolyline
 90
2
 70
1
 10
196.498557
 20
517.822838
 30
0.0
 10
196.498557
 20
517.822838
 30
0.0
  0
SPLINE
  5
18b
100
AcDbEntity
  8
Layer_1
 62
7
100
AcDbSpline
 70
8
 71
3
 72
8
 73
4
 74
0
 40
0
 40
0
 40
0
 40
0
 40
1
 40
1
 40
1
 40
1
 10
62.786946
 20
507.398254
 30
0.0
 10
63.670855
 20
506.905280
 30
0.0
 10
64.268612
 20
505.968658
 30
0.0
 10
64.268612
 20
504.884713
 30
0.0
  0
SPLINE
  5
18c
100
AcDbEntity
  8
Layer_1
 62
7
100
AcDbSpline
 70
8
 71
3
 72
8
 73
4
 74
0
 40
0
 40
0
 40
0
 40
0
 40
1
 40
1
 40
1
 40
1
 10
64.268612
 20
504.884713
 30
0.0
 10
64.268612
 20
503.291450
 30
0.0
 10
62.977917
 20
502.000754
 30
0.0
 10
61.384654
 20
502.000754
 30
0.0
  0
SPLINE
  5
18d
100
AcDbEntity
  8
Layer_1
 62
7
100
AcDbSpline
 70
8
 71
3
 72
8
 73
4
 74
0
 40
0
 40
0
 40
0
 40
0
 40
1
 40
1
 40
1
 40
1
 10
61.384654
 20
502.000754
 30
0.0
 10
59.791391
 20
502.000754
 30
0.0
 10
58.500696
 20
503.291450
 30
0.0
 10
58.500696
 20
504.884713
 30
0.0
  0
SPLINE
  5
18e
100
AcDbEntity
  8
Layer_1
 62
7
100
AcDbSpline
 70
8
 71
3
 72
8
 73
4
 74
0
 40
0
 40
0
 40
0
 40
0
 40
1
 40
1
 40
1
 40
1
 10
58.500696
 20
504.884713
 30
0.0
 10
58.500696
 20
505.996694
 30
0.0
 10
59.131177
 20
506.951973
 30
0.0
 10
60.052918
 20
507.433532
 30
0.0
  0
LWPOLYLINE
  5
18f
100
AcDbEntity
  8
Layer_1
 62
7
100
AcDbPolyline
 90
2
 70
1
 10
62.786946
 20
509.629574
 30
0.0
 10
62.786946
 20
507.398254
 30
0.0
  0
SPLINE
  5
190
100
AcDbEntity
  8
Layer_1
 62
7
100
AcDbSpline
 70
8
 71
3
 72
8
 73
4
 74
0
 40
0
 40
0
 40
0
 40
0
 40
1
 40
1
 40
1
 40
1
 10
60.052918
 20
509.629574
 30
0.0
 10
60.021450
 20
509.747068
 30
0.0
 10
60.000001
 20
509.872564
 30
0.0
 10
60.000001
 20
509.999990
 30
0.0
  0
SPLINE
  5
191
100
AcDbEntity
  8
Layer_1
 62
7
100
AcDbSpline
 70
8
 71
3
 72
8
 73
4
 74
0
 40
0
 40
0
 40
0
 40
0
 40
1
 40
1
 40
1
 40
1
 10
60.000001
 20
509.999990
 30
0.0
 10
60.000001
 20
510.735145
 30
0.0
 10
60.554029
 20
511.338390
 30
0.0
 10
61.270001
 20
511.411101
 30
0.0
  0
LWPOLYLINE
  5
192
100
AcDbEntity
  8
Layer_1
 62
7
100
AcDbPolyline
 90
2
 70
1
 10
60.052918
 20
507.433532
 30
0.0
 10
60.052918
 20
509.629574
 30
0.0
  0
SPLINE
  5
193
100
AcDbEntity
  8
Layer_1
 62
7
100
AcDbSpline
 70
8
 71
3
 72
8
 73
4
 74
0
 40
0
 40
0
 40
0
 40
0
 40
1
 40
1
 40
1
 40
1
 10
148.767710
 20
511.411101
 30
0.0
 10
148.815442
 20
511.415956
 30
0.0
 10
148.868630
 20
511.411101
 30
0.0
 10
148.917640
 20
511.411101
 30
0.0
  0
SPLINE
  5
194
100
AcDbEntity
  8
Layer_1
 62
7
100
AcDbSpline
 70
8
 71
3
 72
8
 73
4
 74
0
 40
0
 40
0
 40
0
 40
0
 40
1
 40
1
 40
1
 40
1
 10
148.917640
 20
511.411101
 30
0.0
 10
149.701806
 20
511.411101
 30
0.0
 10
150.337571
 20
510.784156
 30
0.0
 10
150.337571
 20
509.999990
 30
0.0
  0
SPLINE
  5
195
100
AcDbEntity
  8
Layer_1
 62
7
100
AcDbSpline
 70
8
 71
3
 72
8
 73
4
 74
0
 40
0
 40
0
 40
0
 40
0
 40
1
 40
1
 40
1
 40
1
 10
150.337571
 20
509.999990
 30
0.0
 10
150.337571
 20
509.872564
 30
0.0
 10
150.316122
 20
509.747068
 30
0.0
 10
150.284654
 20
509.629574
 30
0.0
  0
LWPOLYLINE
  5
196
100
AcDbEntity
  8
Layer_1
 62
7
100
AcDbPolyline
 90
2
 70
1
 10
61.270001
 20
511.411101
 30
0.0
 10
61.270001
 20
511.411101
 30
0.0
  0
SPLINE
  5
197
100
AcDbEntity
  8
Layer_1
 62
7
100
AcDbSpline
 70
8
 71
3
 72
8
 73
4
 74
0
 40
0
 40
0
 40
0
 40
0
 40
1
 40
1
 40
1
 40
1
 10
150.284654
 20
507.398254
 30
0.0
 10
151.168563
 20
506.905280
 30
0.0
 10
151.766321
 20
505.968658
 30
0.0
 10
151.766321
 20
504.884713
 30
0.0
  0
SPLINE
  5
198
100
AcDbEntity
  8
Layer_1
 62
7
100
AcDbSpline
 70
8
 71
3
 72
8
 73
4
 74
0
 40
0
 40
0
 40
0
 40
0
 40
1
 40
1
 40
1
 40
1
 10
151.766321
 20
504.884713
 30
0.0
 10
151.766321
 20
503.291450
 30
0.0
 10
150.475625
 20
502.000754
 30
0.0
 10
148.882362
 20
502.000754
 30
0.0
  0
SPLINE
  5
199
100
AcDbEntity
  8
Layer_1
 62
7
100
AcDbSpline
 70
8
 71
3
 72
8
 73
4
 74
0
 40
0
 40
0
 40
0
 40
0
 40
1
 40
1
 40
1
 40
1
 10
148.882362
 20
502.000754
 30
0.0
 10
147.289099
 20
502.000754
 30
0.0
 10
145.998404
 20
503.291450
 30
0.0
 10
145.998404
 20
504.884713
 30
0.0
  0
SPLINE
  5
19a
100
AcDbEntity
  8
Layer_1
 62
7
100
AcDbSpline
 70
8
 71
3
 72
8
 73
4
 74
0
 40
0
 40
0
 40
0
 40
0
 40
1
 40
1
 40
1
 40
1
 10
145.998404
 20
504.884713
 30
0.0
 10
145.998404
 20
505.996694
 30
0.0
 10
146.628886
 20
506.951973
 30
0.0
 10
147.550626
 20
507.433532
 30
0.0
  0
LWPOLYLINE
  5
19b
100
AcDbEntity
  8
Layer_1
 62
7
100
AcDbPolyline
 90
2
 70
1
 10
150.284654
 20
509.629574
 30
0.0
 10
150.284654
 20
507.398254
 30
0.0
  0
SPLINE
  5
19c
100
AcDbEntity
  8
Layer_1
 62
7
100
AcDbSpline
 70
8
 71
3
 72
8
 73
4
 74
0
 40
0
 40
0
 40
0
 40
0
 40
1
 40
1
 40
1
 40
1
 10
147.550626
 20
509.629574
 30
0.0
 10
147.519159
 20
509.747068
 30
0.0
 10
147.497710
 20
509.872564
 30
0.0
 10
147.497710
 20
509.999990
 30
0.0
  0
SPLINE
  5
19d
100
AcDbEntity
  8
Layer_1
 62
7
100
AcDbSpline
 70
8
 71
3
 72
8
 73
4
 74
0
 40
0
 40
0
 40
0
 40
0
 40
1
 40
1
 40
1
 40
1
 10
147.497710
 20
509.999990
 30
0.0
 10
147.497710
 20
510.735145
 30
0.0
 10
148.051737
 20
511.338390
 30
0.0
 10
148.767710
 20
511.411101
 30
0.0
  0
LWPOLYLINE
  5
19e
100
AcDbEntity
  8
Layer_1
 62
7
100
AcDbPolyline
 90
2
 70
1
 10
147.550626
 20
507.433532
 30
0.0
 10
147.550626
 20
509.629574
 30
0.0
  0
SPLINE
  5
19f
100
AcDbEntity
  8
Layer_1
 62
7
100
AcDbSpline
 70
8
 71
3
 72
8
 73
4
 74
0
 40
0
 40
0
 40
0
 40
0
 40
1
 40
1
 40
1
 40
1
 10
21.450208
 20
505.043463
 30
0.0
 10
22.169025
 20
505.043463
 30
0.0
 10
22.755486
 20
504.465821
 30
0.0
 10
22.755486
 20
503.747004
 30
0.0
  0
SPLINE
  5
1a0
100
AcDbEntity
  8
Layer_1
 62
7
100
AcDbSpline
 70
8
 71
3
 72
8
 73
4
 74
0
 40
0
 40
0
 40
0
 40
0
 40
1
 40
1
 40
1
 40
1
 10
22.755486
 20
503.747004
 30
0.0
 10
22.755486
 20
503.028187
 30
0.0
 10
22.169025
 20
502.441726
 30
0.0
 10
21.450208
 20
502.441726
 30
0.0
  0
SPLINE
  5
1a1
100
AcDbEntity
  8
Layer_1
 62
7
100
AcDbSpline
 70
8
 71
3
 72
8
 73
4
 74
0
 40
0
 40
0
 40
0
 40
0
 40
1
 40
1
 40
1
 40
1
 10
21.450208
 20
502.441726
 30
0.0
 10
20.731391
 20
502.441726
 30
0.0
 10
20.153750
 20
503.028187
 30
0.0
 10
20.153750
 20
503.747004
 30
0.0
  0
SPLINE
  5
1a2
100
AcDbEntity
  8
Layer_1
 62
7
100
AcDbSpline
 70
8
 71
3
 72
8
 73
4
 74
0
 40
0
 40
0
 40
0
 40
0
 40
1
 40
1
 40
1
 40
1
 10
20.153750
 20
503.747004
 30
0.0
 10
20.153750
 20
504.465821
 30
0.0
 10
20.731391
 20
505.043463
 30
0.0
 10
21.450208
 20
505.043463
 30
0.0
  0
LWPOLYLINE
  5
1a3
100
AcDbEntity
  8
Layer_1
 62
7
100
AcDbPolyline
 90
2
 70
1
 10
148.767710
 20
511.411101
 30
0.0
 10
148.767710
 20
511.411101
 30
0.0
  0
SPLINE
  5
1a4
100
AcDbEntity
  8
Layer_1
 62
7
100
AcDbSpline
 70
8
 71
3
 72
8
 73
4
 74
0
 40
0
 40
0
 40
0
 40
0
 40
1
 40
1
 40
1
 40
1
 10
68.096251
 20
491.920129
 30
0.0
 10
68.777189
 20
491.920129
 30
0.0
 10
69.330974
 20
491.366344
 30
0.0
 10
69.330974
 20
490.685407
 30
0.0
  0
SPLINE
  5
1a5
100
AcDbEntity
  8
Layer_1
 62
7
100
AcDbSpline
 70
8
 71
3
 72
8
 73
4
 74
0
 40
0
 40
0
 40
0
 40
0
 40
1
 40
1
 40
1
 40
1
 10
69.330974
 20
490.685407
 30
0.0
 10
69.330974
 20
490.004470
 30
0.0
 10
68.777189
 20
489.450685
 30
0.0
 10
68.096251
 20
489.450685
 30
0.0
  0
SPLINE
  5
1a6
100
AcDbEntity
  8
Layer_1
 62
7
100
AcDbSpline
 70
8
 71
3
 72
8
 73
4
 74
0
 40
0
 40
0
 40
0
 40
0
 40
1
 40
1
 40
1
 40
1
 10
68.096251
 20
489.450685
 30
0.0
 10
67.415314
 20
489.450685
 30
0.0
 10
66.861529
 20
490.004470
 30
0.0
 10
66.861529
 20
490.685407
 30
0.0
  0
SPLINE
  5
1a7
100
AcDbEntity
  8
Layer_1
 62
7
100
AcDbSpline
 70
8
 71
3
 72
8
 73
4
 74
0
 40
0
 40
0
 40
0
 40
0
 40
1
 40
1
 40
1
 40
1
 10
66.861529
 20
490.685407
 30
0.0
 10
66.861529
 20
491.366344
 30
0.0
 10
67.415314
 20
491.920129
 30
0.0
 10
68.096251
 20
491.920129
 30
0.0
  0
LWPOLYLINE
  5
1a8
100
AcDbEntity
  8
Layer_1
 62
7
100
AcDbPolyline
 90
2
 70
1
 10
21.450208
 20
505.043463
 30
0.0
 10
21.450208
 20
505.043463
 30
0.0
  0
SPLINE
  5
1a9
100
AcDbEntity
  8
Layer_1
 62
7
100
AcDbSpline
 70
8
 71
3
 72
8
 73
4
 74
0
 40
0
 40
0
 40
0
 40
0
 40
1
 40
1
 40
1
 40
1
 10
195.484307
 20
489.133185
 30
0.0
 10
196.045873
 20
489.133185
 30
0.0
 10
196.518905
 20
488.776061
 30
0.0
 10
196.701390
 20
488.277699
 30
0.0
  0
SPLINE
  5
1aa
100
AcDbEntity
  8
Layer_1
 62
7
100
AcDbSpline
 70
8
 71
3
 72
8
 73
4
 74
0
 40
0
 40
0
 40
0
 40
0
 40
1
 40
1
 40
1
 40
1
 10
196.701390
 20
488.277699
 30
0.0
 10
196.884044
 20
488.775733
 30
0.0
 10
197.357134
 20
489.133185
 30
0.0
 10
197.918474
 20
489.133185
 30
0.0
  0
SPLINE
  5
1ab
100
AcDbEntity
  8
Layer_1
 62
7
100
AcDbSpline
 70
8
 71
3
 72
8
 73
4
 74
0
 40
0
 40
0
 40
0
 40
0
 40
1
 40
1
 40
1
 40
1
 10
197.918474
 20
489.133185
 30
0.0
 10
198.637294
 20
489.133185
 30
0.0
 10
199.223751
 20
488.555544
 30
0.0
 10
199.223751
 20
487.836726
 30
0.0
  0
SPLINE
  5
1ac
100
AcDbEntity
  8
Layer_1
 62
7
100
AcDbSpline
 70
8
 71
3
 72
8
 73
4
 74
0
 40
0
 40
0
 40
0
 40
0
 40
1
 40
1
 40
1
 40
1
 10
199.223751
 20
487.836726
 30
0.0
 10
199.223751
 20
487.220740
 30
0.0
 10
198.793108
 20
486.701764
 30
0.0
 10
198.218335
 20
486.566726
 30
0.0
  0
LWPOLYLINE
  5
1ad
100
AcDbEntity
  8
Layer_1
 62
7
100
AcDbPolyline
 90
2
 70
1
 10
68.096251
 20
491.920129
 30
0.0
 10
68.096251
 20
491.920129
 30
0.0
  0
SPLINE
  5
1ae
100
AcDbEntity
  8
Layer_1
 62
7
100
AcDbSpline
 70
8
 71
3
 72
8
 73
4
 74
0
 40
0
 40
0
 40
0
 40
0
 40
1
 40
1
 40
1
 40
1
 10
198.218335
 20
472.870129
 30
0.0
 10
198.937155
 20
472.870129
 30
0.0
 10
199.523612
 20
472.292488
 30
0.0
 10
199.523612
 20
471.573671
 30
0.0
  0
SPLINE
  5
1af
100
AcDbEntity
  8
Layer_1
 62
7
100
AcDbSpline
 70
8
 71
3
 72
8
 73
4
 74
0
 40
0
 40
0
 40
0
 40
0
 40
1
 40
1
 40
1
 40
1
 10
199.523612
 20
471.573671
 30
0.0
 10
199.523612
 20
470.854854
 30
0.0
 10
198.937155
 20
470.268393
 30
0.0
 10
198.218335
 20
470.268393
 30
0.0
  0
SPLINE
  5
1b0
100
AcDbEntity
  8
Layer_1
 62
7
100
AcDbSpline
 70
8
 71
3
 72
8
 73
4
 74
0
 40
0
 40
0
 40
0
 40
0
 40
1
 40
1
 40
1
 40
1
 10
198.218335
 20
470.268393
 30
0.0
 10
197.656769
 20
470.268393
 30
0.0
 10
197.183736
 20
470.625517
 30
0.0
 10
197.001251
 20
471.123879
 30
0.0
  0
SPLINE
  5
1b1
100
AcDbEntity
  8
Layer_1
 62
7
100
AcDbSpline
 70
8
 71
3
 72
8
 73
4
 74
0
 40
0
 40
0
 40
0
 40
0
 40
1
 40
1
 40
1
 40
1
 10
197.001251
 20
471.123879
 30
0.0
 10
196.818597
 20
470.625845
 30
0.0
 10
196.345508
 20
470.268393
 30
0.0
 10
195.784168
 20
470.268393
 30
0.0
  0
SPLINE
  5
1b2
100
AcDbEntity
  8
Layer_1
 62
7
100
AcDbSpline
 70
8
 71
3
 72
8
 73
4
 74
0
 40
0
 40
0
 40
0
 40
0
 40
1
 40
1
 40
1
 40
1
 10
195.784168
 20
470.268393
 30
0.0
 10
195.065348
 20
470.268393
 30
0.0
 10
194.478890
 20
470.854854
 30
0.0
 10
194.478890
 20
471.573671
 30
0.0
  0
SPLINE
  5
1b3
100
AcDbEntity
  8
Layer_1
 62
7
100
AcDbSpline
 70
8
 71
3
 72
8
 73
4
 74
0
 40
0
 40
0
 40
0
 40
0
 40
1
 40
1
 40
1
 40
1
 10
194.478890
 20
471.573671
 30
0.0
 10
194.478890
 20
472.087504
 30
0.0
 10
194.787331
 20
472.526227
 30
0.0
 10
195.219724
 20
472.737838
 30
0.0
  0
LWPOLYLINE
  5
1b4
100
AcDbEntity
  8
Layer_1
 62
7
100
AcDbPolyline
 90
2
 70
1
 10
198.218335
 20
486.566726
 30
0.0
 10
198.218335
 20
472.870129
 30
0.0
  0
SPLINE
  5
1b5
100
AcDbEntity
  8
Layer_1
 62
7
100
AcDbSpline
 70
8
 71
3
 72
8
 73
4
 74
0
 40
0
 40
0
 40
0
 40
0
 40
1
 40
1
 40
1
 40
1
 10
195.219724
 20
486.557907
 30
0.0
 10
194.626634
 20
486.679271
 30
0.0
 10
194.179029
 20
487.207760
 30
0.0
 10
194.179029
 20
487.836726
 30
0.0
  0
SPLINE
  5
1b6
100
AcDbEntity
  8
Layer_1
 62
7
100
AcDbSpline
 70
8
 71
3
 72
8
 73
4
 74
0
 40
0
 40
0
 40
0
 40
0
 40
1
 40
1
 40
1
 40
1
 10
194.179029
 20
487.836726
 30
0.0
 10
194.179029
 20
488.555544
 30
0.0
 10
194.765487
 20
489.133185
 30
0.0
 10
195.484307
 20
489.133185
 30
0.0
  0
LWPOLYLINE
  5
1b7
100
AcDbEntity
  8
Layer_1
 62
7
100
AcDbPolyline
 90
2
 70
1
 10
195.219724
 20
472.737838
 30
0.0
 10
195.219724
 20
486.557907
 30
0.0
  0
SPLINE
  5
1b8
100
AcDbEntity
  8
Layer_1
 62
7
100
AcDbSpline
 70
8
 71
3
 72
8
 73
4
 74
0
 40
0
 40
0
 40
0
 40
0
 40
1
 40
1
 40
1
 40
1
 10
12.480833
 20
488.568740
 30
0.0
 10
13.042176
 20
488.568740
 30
0.0
 10
13.515271
 20
488.211289
 30
0.0
 10
13.697917
 20
487.713254
 30
0.0
  0
SPLINE
  5
1b9
100
AcDbEntity
  8
Layer_1
 62
7
100
AcDbSpline
 70
8
 71
3
 72
8
 73
4
 74
0
 40
0
 40
0
 40
0
 40
0
 40
1
 40
1
 40
1
 40
1
 10
13.697917
 20
487.713254
 30
0.0
 10
13.880390
 20
488.211616
 30
0.0
 10
14.353423
 20
488.568740
 30
0.0
 10
14.915000
 20
488.568740
 30
0.0
  0
SPLINE
  5
1ba
100
AcDbEntity
  8
Layer_1
 62
7
100
AcDbSpline
 70
8
 71
3
 72
8
 73
4
 74
0
 40
0
 40
0
 40
0
 40
0
 40
1
 40
1
 40
1
 40
1
 10
14.915000
 20
488.568740
 30
0.0
 10
15.633817
 20
488.568740
 30
0.0
 10
16.220278
 20
487.991099
 30
0.0
 10
16.220278
 20
487.272282
 30
0.0
  0
SPLINE
  5
1bb
100
AcDbEntity
  8
Layer_1
 62
7
100
AcDbSpline
 70
8
 71
3
 72
8
 73
4
 74
0
 40
0
 40
0
 40
0
 40
0
 40
1
 40
1
 40
1
 40
1
 10
16.220278
 20
487.272282
 30
0.0
 10
16.220278
 20
486.659727
 30
0.0
 10
15.793625
 20
486.149602
 30
0.0
 10
15.223681
 20
486.011101
 30
0.0
  0
LWPOLYLINE
  5
1bc
100
AcDbEntity
  8
Layer_1
 62
7
100
AcDbPolyline
 90
2
 70
1
 10
195.484307
 20
489.133185
 30
0.0
 10
195.484307
 20
489.133185
 30
0.0
  0
SPLINE
  5
1bd
100
AcDbEntity
  8
Layer_1
 62
7
100
AcDbSpline
 70
8
 71
3
 72
8
 73
4
 74
0
 40
0
 40
0
 40
0
 40
0
 40
1
 40
1
 40
1
 40
1
 10
15.223681
 20
473.531588
 30
0.0
 10
15.794656
 20
473.393818
 30
0.0
 10
16.220278
 20
472.883690
 30
0.0
 10
16.220278
 20
472.270407
 30
0.0
  0
SPLINE
  5
1be
100
AcDbEntity
  8
Layer_1
 62
7
100
AcDbSpline
 70
8
 71
3
 72
8
 73
4
 74
0
 40
0
 40
0
 40
0
 40
0
 40
1
 40
1
 40
1
 40
1
 10
16.220278
 20
472.270407
 30
0.0
 10
16.220278
 20
471.551590
 30
0.0
 10
15.633817
 20
470.965129
 30
0.0
 10
14.915000
 20
470.965129
 30
0.0
  0
SPLINE
  5
1bf
100
AcDbEntity
  8
Layer_1
 62
7
100
AcDbSpline
 70
8
 71
3
 72
8
 73
4
 74
0
 40
0
 40
0
 40
0
 40
0
 40
1
 40
1
 40
1
 40
1
 10
14.915000
 20
470.965129
 30
0.0
 10
14.353423
 20
470.965129
 30
0.0
 10
13.880390
 20
471.322253
 30
0.0
 10
13.697917
 20
471.820615
 30
0.0
  0
SPLINE
  5
1c0
100
AcDbEntity
  8
Layer_1
 62
7
100
AcDbSpline
 70
8
 71
3
 72
8
 73
4
 74
0
 40
0
 40
0
 40
0
 40
0
 40
1
 40
1
 40
1
 40
1
 10
13.697917
 20
471.820615
 30
0.0
 10
13.515271
 20
471.322581
 30
0.0
 10
13.042176
 20
470.965129
 30
0.0
 10
12.480833
 20
470.965129
 30
0.0
  0
SPLINE
  5
1c1
100
AcDbEntity
  8
Layer_1
 62
7
100
AcDbSpline
 70
8
 71
3
 72
8
 73
4
 74
0
 40
0
 40
0
 40
0
 40
0
 40
1
 40
1
 40
1
 40
1
 10
12.480833
 20
470.965129
 30
0.0
 10
11.762016
 20
470.965129
 30
0.0
 10
11.184375
 20
471.551590
 30
0.0
 10
11.184375
 20
472.270407
 30
0.0
  0
SPLINE
  5
1c2
100
AcDbEntity
  8
Layer_1
 62
7
100
AcDbSpline
 70
8
 71
3
 72
8
 73
4
 74
0
 40
0
 40
0
 40
0
 40
0
 40
1
 40
1
 40
1
 40
1
 10
11.184375
 20
472.270407
 30
0.0
 10
11.184375
 20
472.896407
 30
0.0
 10
11.627345
 20
473.415834
 30
0.0
 10
12.216250
 20
473.540407
 30
0.0
  0
LWPOLYLINE
  5
1c3
100
AcDbEntity
  8
Layer_1
 62
7
100
AcDbPolyline
 90
2
 70
1
 10
15.223681
 20
486.011101
 30
0.0
 10
15.223681
 20
473.531588
 30
0.0
  0
SPLINE
  5
1c4
100
AcDbEntity
  8
Layer_1
 62
7
100
AcDbSpline
 70
8
 71
3
 72
8
 73
4
 74
0
 40
0
 40
0
 40
0
 40
0
 40
1
 40
1
 40
1
 40
1
 10
12.216250
 20
485.993463
 30
0.0
 10
11.627263
 20
486.117971
 30
0.0
 10
11.184375
 20
486.646226
 30
0.0
 10
11.184375
 20
487.272282
 30
0.0
  0
SPLINE
  5
1c5
100
AcDbEntity
  8
Layer_1
 62
7
100
AcDbSpline
 70
8
 71
3
 72
8
 73
4
 74
0
 40
0
 40
0
 40
0
 40
0
 40
1
 40
1
 40
1
 40
1
 10
11.184375
 20
487.272282
 30
0.0
 10
11.184375
 20
487.991099
 30
0.0
 10
11.762016
 20
488.568740
 30
0.0
 10
12.480833
 20
488.568740
 30
0.0
  0
LWPOLYLINE
  5
1c6
100
AcDbEntity
  8
Layer_1
 62
7
100
AcDbPolyline
 90
2
 70
1
 10
12.216250
 20
473.540407
 30
0.0
 10
12.216250
 20
485.993463
 30
0.0
  0
SPLINE
  5
1c7
100
AcDbEntity
  8
Layer_1
 62
7
100
AcDbSpline
 70
8
 71
3
 72
8
 73
4
 74
0
 40
0
 40
0
 40
0
 40
0
 40
1
 40
1
 40
1
 40
1
 10
196.683751
 20
472.508532
 30
0.0
 10
196.824750
 20
472.372907
 30
0.0
 10
196.932558
 20
472.201931
 30
0.0
 10
197.001251
 20
472.014643
 30
0.0
  0
SPLINE
  5
1c8
100
AcDbEntity
  8
Layer_1
 62
7
100
AcDbSpline
 70
8
 71
3
 72
8
 73
4
 74
0
 40
0
 40
0
 40
0
 40
0
 40
1
 40
1
 40
1
 40
1
 10
197.001251
 20
472.014643
 30
0.0
 10
197.069831
 20
472.201948
 30
0.0
 10
197.177838
 20
472.372848
 30
0.0
 10
197.318751
 20
472.508532
 30
0.0
  0
LWPOLYLINE
  5
1c9
100
AcDbEntity
  8
Layer_1
 62
7
100
AcDbPolyline
 90
2
 70
1
 10
12.480833
 20
488.568740
 30
0.0
 10
12.480833
 20
488.568740
 30
0.0
  0
SPLINE
  5
1ca
100
AcDbEntity
  8
Layer_1
 62
7
100
AcDbSpline
 70
8
 71
3
 72
8
 73
4
 74
0
 40
0
 40
0
 40
0
 40
0
 40
1
 40
1
 40
1
 40
1
 10
195.422557
 20
464.438740
 30
0.0
 10
195.984320
 20
464.438740
 30
0.0
 10
196.457155
 20
464.081616
 30
0.0
 10
196.639668
 20
463.583254
 30
0.0
  0
SPLINE
  5
1cb
100
AcDbEntity
  8
Layer_1
 62
7
100
AcDbSpline
 70
8
 71
3
 72
8
 73
4
 74
0
 40
0
 40
0
 40
0
 40
0
 40
1
 40
1
 40
1
 40
1
 10
196.639668
 20
463.583254
 30
0.0
 10
196.822181
 20
464.081289
 30
0.0
 10
197.295496
 20
464.438740
 30
0.0
 10
197.856723
 20
464.438740
 30
0.0
  0
SPLINE
  5
1cc
100
AcDbEntity
  8
Layer_1
 62
7
100
AcDbSpline
 70
8
 71
3
 72
8
 73
4
 74
0
 40
0
 40
0
 40
0
 40
0
 40
1
 40
1
 40
1
 40
1
 10
197.856723
 20
464.438740
 30
0.0
 10
198.575713
 20
464.438740
 30
0.0
 10
199.153196
 20
463.852280
 30
0.0
 10
199.153196
 20
463.133463
 30
0.0
  0
SPLINE
  5
1cd
100
AcDbEntity
  8
Layer_1
 62
7
100
AcDbSpline
 70
8
 71
3
 72
8
 73
4
 74
0
 40
0
 40
0
 40
0
 40
0
 40
1
 40
1
 40
1
 40
1
 10
199.153196
 20
463.133463
 30
0.0
 10
199.153196
 20
462.540869
 30
0.0
 10
198.760173
 20
462.047280
 30
0.0
 10
198.218335
 20
461.889921
 30
0.0
  0
LWPOLYLINE
  5
1ce
100
AcDbEntity
  8
Layer_1
 62
7
100
AcDbPolyline
 90
3
 70
1
 10
197.318751
 20
472.508532
 30
0.0
 10
196.683751
 20
472.508532
 30
0.0
 10
196.683751
 20
472.508532
 30
0.0
  0
SPLINE
  5
1cf
100
AcDbEntity
  8
Layer_1
 62
7
100
AcDbSpline
 70
8
 71
3
 72
8
 73
4
 74
0
 40
0
 40
0
 40
0
 40
0
 40
1
 40
1
 40
1
 40
1
 10
198.218335
 20
448.969435
 30
0.0
 10
198.792883
 20
448.834228
 30
0.0
 10
199.223751
 20
448.324077
 30
0.0
 10
199.223751
 20
447.708254
 30
0.0
  0
SPLINE
  5
1d0
100
AcDbEntity
  8
Layer_1
 62
7
100
AcDbSpline
 70
8
 71
3
 72
8
 73
4
 74
0
 40
0
 40
0
 40
0
 40
0
 40
1
 40
1
 40
1
 40
1
 10
199.223751
 20
447.708254
 30
0.0
 10
199.223751
 20
446.989437
 30
0.0
 10
198.637294
 20
446.402976
 30
0.0
 10
197.918474
 20
446.402976
 30
0.0
  0
SPLINE
  5
1d1
100
AcDbEntity
  8
Layer_1
 62
7
100
AcDbSpline
 70
8
 71
3
 72
8
 73
4
 74
0
 40
0
 40
0
 40
0
 40
0
 40
1
 40
1
 40
1
 40
1
 10
197.918474
 20
446.402976
 30
0.0
 10
197.357134
 20
446.402976
 30
0.0
 10
196.884044
 20
446.760428
 30
0.0
 10
196.701390
 20
447.258463
 30
0.0
  0
SPLINE
  5
1d2
100
AcDbEntity
  8
Layer_1
 62
7
100
AcDbSpline
 70
8
 71
3
 72
8
 73
4
 74
0
 40
0
 40
0
 40
0
 40
0
 40
1
 40
1
 40
1
 40
1
 10
196.701390
 20
447.258463
 30
0.0
 10
196.518905
 20
446.760100
 30
0.0
 10
196.045873
 20
446.402976
 30
0.0
 10
195.484307
 20
446.402976
 30
0.0
  0
SPLINE
  5
1d3
100
AcDbEntity
  8
Layer_1
 62
7
100
AcDbSpline
 70
8
 71
3
 72
8
 73
4
 74
0
 40
0
 40
0
 40
0
 40
0
 40
1
 40
1
 40
1
 40
1
 10
195.484307
 20
446.402976
 30
0.0
 10
194.765487
 20
446.402976
 30
0.0
 10
194.179029
 20
446.989437
 30
0.0
 10
194.179029
 20
447.708254
 30
0.0
  0
SPLINE
  5
1d4
100
AcDbEntity
  8
Layer_1
 62
7
100
AcDbSpline
 70
8
 71
3
 72
8
 73
4
 74
0
 40
0
 40
0
 40
0
 40
0
 40
1
 40
1
 40
1
 40
1
 10
194.179029
 20
447.708254
 30
0.0
 10
194.179029
 20
448.337220
 30
0.0
 10
194.626634
 20
448.856890
 30
0.0
 10
195.219724
 20
448.978254
 30
0.0
  0
LWPOLYLINE
  5
1d5
100
AcDbEntity
  8
Layer_1
 62
7
100
AcDbPolyline
 90
2
 70
1
 10
198.218335
 20
461.889921
 30
0.0
 10
198.218335
 20
448.969435
 30
0.0
  0
SPLINE
  5
1d6
100
AcDbEntity
  8
Layer_1
 62
7
100
AcDbSpline
 70
8
 71
3
 72
8
 73
4
 74
0
 40
0
 40
0
 40
0
 40
0
 40
1
 40
1
 40
1
 40
1
 10
195.219724
 20
461.854643
 30
0.0
 10
194.596972
 20
461.951812
 30
0.0
 10
194.117279
 20
462.483443
 30
0.0
 10
194.117279
 20
463.133463
 30
0.0
  0
SPLINE
  5
1d7
100
AcDbEntity
  8
Layer_1
 62
7
100
AcDbSpline
 70
8
 71
3
 72
8
 73
4
 74
0
 40
0
 40
0
 40
0
 40
0
 40
1
 40
1
 40
1
 40
1
 10
194.117279
 20
463.133463
 30
0.0
 10
194.117279
 20
463.852280
 30
0.0
 10
194.703850
 20
464.438740
 30
0.0
 10
195.422557
 20
464.438740
 30
0.0
  0
LWPOLYLINE
  5
1d8
100
AcDbEntity
  8
Layer_1
 62
7
100
AcDbPolyline
 90
2
 70
1
 10
195.219724
 20
448.978254
 30
0.0
 10
195.219724
 20
461.854643
 30
0.0
  0
SPLINE
  5
1d9
100
AcDbEntity
  8
Layer_1
 62
7
100
AcDbSpline
 70
8
 71
3
 72
8
 73
4
 74
0
 40
0
 40
0
 40
0
 40
0
 40
1
 40
1
 40
1
 40
1
 10
12.480833
 20
464.138879
 30
0.0
 10
13.039916
 20
464.138879
 30
0.0
 10
13.513637
 20
463.778273
 30
0.0
 10
13.697917
 20
463.283393
 30
0.0
  0
SPLINE
  5
1da
100
AcDbEntity
  8
Layer_1
 62
7
100
AcDbSpline
 70
8
 71
3
 72
8
 73
4
 74
0
 40
0
 40
0
 40
0
 40
0
 40
1
 40
1
 40
1
 40
1
 10
13.697917
 20
463.283393
 30
0.0
 10
13.882053
 20
463.778555
 30
0.0
 10
14.355717
 20
464.138879
 30
0.0
 10
14.915000
 20
464.138879
 30
0.0
  0
SPLINE
  5
1db
100
AcDbEntity
  8
Layer_1
 62
7
100
AcDbSpline
 70
8
 71
3
 72
8
 73
4
 74
0
 40
0
 40
0
 40
0
 40
0
 40
1
 40
1
 40
1
 40
1
 10
14.915000
 20
464.138879
 30
0.0
 10
15.633817
 20
464.138879
 30
0.0
 10
16.220278
 20
463.552419
 30
0.0
 10
16.220278
 20
462.833601
 30
0.0
  0
SPLINE
  5
1dc
100
AcDbEntity
  8
Layer_1
 62
7
100
AcDbSpline
 70
8
 71
3
 72
8
 73
4
 74
0
 40
0
 40
0
 40
0
 40
0
 40
1
 40
1
 40
1
 40
1
 10
16.220278
 20
462.833601
 30
0.0
 10
16.220278
 20
462.221047
 30
0.0
 10
15.793625
 20
461.710921
 30
0.0
 10
15.223681
 20
461.572421
 30
0.0
  0
LWPOLYLINE
  5
1dd
100
AcDbEntity
  8
Layer_1
 62
7
100
AcDbPolyline
 90
2
 70
1
 10
195.422557
 20
464.438740
 30
0.0
 10
195.422557
 20
464.438740
 30
0.0
  0
SPLINE
  5
1de
100
AcDbEntity
  8
Layer_1
 62
7
100
AcDbSpline
 70
8
 71
3
 72
8
 73
4
 74
0
 40
0
 40
0
 40
0
 40
0
 40
1
 40
1
 40
1
 40
1
 10
15.223681
 20
448.872421
 30
0.0
 10
15.942498
 20
448.872421
 30
0.0
 10
16.520139
 20
448.285960
 30
0.0
 10
16.520139
 20
447.567143
 30
0.0
  0
SPLINE
  5
1df
100
AcDbEntity
  8
Layer_1
 62
7
100
AcDbSpline
 70
8
 71
3
 72
8
 73
4
 74
0
 40
0
 40
0
 40
0
 40
0
 40
1
 40
1
 40
1
 40
1
 10
16.520139
 20
447.567143
 30
0.0
 10
16.520139
 20
446.848326
 30
0.0
 10
15.942498
 20
446.270685
 30
0.0
 10
15.223681
 20
446.270685
 30
0.0
  0
SPLINE
  5
1e0
100
AcDbEntity
  8
Layer_1
 62
7
100
AcDbSpline
 70
8
 71
3
 72
8
 73
4
 74
0
 40
0
 40
0
 40
0
 40
0
 40
1
 40
1
 40
1
 40
1
 10
15.223681
 20
446.270685
 30
0.0
 10
14.658494
 20
446.270685
 30
0.0
 10
14.177587
 20
446.631588
 30
0.0
 10
13.997778
 20
447.134990
 30
0.0
  0
SPLINE
  5
1e1
100
AcDbEntity
  8
Layer_1
 62
7
100
AcDbSpline
 70
8
 71
3
 72
8
 73
4
 74
0
 40
0
 40
0
 40
0
 40
0
 40
1
 40
1
 40
1
 40
1
 10
13.997778
 20
447.134990
 30
0.0
 10
13.817271
 20
446.632894
 30
0.0
 10
13.344947
 20
446.270685
 30
0.0
 10
12.780694
 20
446.270685
 30
0.0
  0
SPLINE
  5
1e2
100
AcDbEntity
  8
Layer_1
 62
7
100
AcDbSpline
 70
8
 71
3
 72
8
 73
4
 74
0
 40
0
 40
0
 40
0
 40
0
 40
1
 40
1
 40
1
 40
1
 10
12.780694
 20
446.270685
 30
0.0
 10
12.061877
 20
446.270685
 30
0.0
 10
11.484236
 20
446.848326
 30
0.0
 10
11.484236
 20
447.567143
 30
0.0
  0
SPLINE
  5
1e3
100
AcDbEntity
  8
Layer_1
 62
7
100
AcDbSpline
 70
8
 71
3
 72
8
 73
4
 74
0
 40
0
 40
0
 40
0
 40
0
 40
1
 40
1
 40
1
 40
1
 10
11.484236
 20
447.567143
 30
0.0
 10
11.484236
 20
448.080567
 30
0.0
 10
11.784425
 20
448.519499
 30
0.0
 10
12.216250
 20
448.731310
 30
0.0
  0
LWPOLYLINE
  5
1e4
100
AcDbEntity
  8
Layer_1
 62
7
100
AcDbPolyline
 90
2
 70
1
 10
15.223681
 20
461.572421
 30
0.0
 10
15.223681
 20
448.872421
 30
0.0
  0
SPLINE
  5
1e5
100
AcDbEntity
  8
Layer_1
 62
7
100
AcDbSpline
 70
8
 71
3
 72
8
 73
4
 74
0
 40
0
 40
0
 40
0
 40
0
 40
1
 40
1
 40
1
 40
1
 10
12.216250
 20
461.554782
 30
0.0
 10
11.627263
 20
461.679290
 30
0.0
 10
11.184375
 20
462.207545
 30
0.0
 10
11.184375
 20
462.833601
 30
0.0
  0
SPLINE
  5
1e6
100
AcDbEntity
  8
Layer_1
 62
7
100
AcDbSpline
 70
8
 71
3
 72
8
 73
4
 74
0
 40
0
 40
0
 40
0
 40
0
 40
1
 40
1
 40
1
 40
1
 10
11.184375
 20
462.833601
 30
0.0
 10
11.184375
 20
463.552419
 30
0.0
 10
11.762016
 20
464.138879
 30
0.0
 10
12.480833
 20
464.138879
 30
0.0
  0
LWPOLYLINE
  5
1e7
100
AcDbEntity
  8
Layer_1
 62
7
100
AcDbPolyline
 90
2
 70
1
 10
12.216250
 20
448.731310
 30
0.0
 10
12.216250
 20
461.554782
 30
0.0
  0
SPLINE
  5
1e8
100
AcDbEntity
  8
Layer_1
 62
7
100
AcDbSpline
 70
8
 71
3
 72
8
 73
4
 74
0
 40
0
 40
0
 40
0
 40
0
 40
1
 40
1
 40
1
 40
1
 10
196.639668
 20
462.683671
 30
0.0
 10
196.616187
 20
462.621049
 30
0.0
 10
196.583732
 20
462.564923
 30
0.0
 10
196.551446
 20
462.507282
 30
0.0
  0
LWPOLYLINE
  5
1e9
100
AcDbEntity
  8
Layer_1
 62
7
100
AcDbPolyline
 90
2
 70
1
 10
12.480833
 20
464.138879
 30
0.0
 10
12.480833
 20
464.138879
 30
0.0
  0
SPLINE
  5
1ea
100
AcDbEntity
  8
Layer_1
 62
7
100
AcDbSpline
 70
8
 71
3
 72
8
 73
4
 74
0
 40
0
 40
0
 40
0
 40
0
 40
1
 40
1
 40
1
 40
1
 10
196.727834
 20
462.507282
 30
0.0
 10
196.695887
 20
462.564759
 30
0.0
 10
196.662839
 20
462.621241
 30
0.0
 10
196.639668
 20
462.683671
 30
0.0
  0
LWPOLYLINE
  5
1eb
100
AcDbEntity
  8
Layer_1
 62
7
100
AcDbPolyline
 90
2
 70
1
 10
196.551446
 20
462.507282
 30
0.0
 10
196.727834
 20
462.507282
 30
0.0
  0
SPLINE
  5
1ec
100
AcDbEntity
  8
Layer_1
 62
7
100
AcDbSpline
 70
8
 71
3
 72
8
 73
4
 74
0
 40
0
 40
0
 40
0
 40
0
 40
1
 40
1
 40
1
 40
1
 10
21.450208
 20
459.482213
 30
0.0
 10
22.169025
 20
459.482213
 30
0.0
 10
22.755486
 20
458.904571
 30
0.0
 10
22.755486
 20
458.185754
 30
0.0
  0
SPLINE
  5
1ed
100
AcDbEntity
  8
Layer_1
 62
7
100
AcDbSpline
 70
8
 71
3
 72
8
 73
4
 74
0
 40
0
 40
0
 40
0
 40
0
 40
1
 40
1
 40
1
 40
1
 10
22.755486
 20
458.185754
 30
0.0
 10
22.755486
 20
457.466937
 30
0.0
 10
22.169025
 20
456.880476
 30
0.0
 10
21.450208
 20
456.880476
 30
0.0
  0
SPLINE
  5
1ee
100
AcDbEntity
  8
Layer_1
 62
7
100
AcDbSpline
 70
8
 71
3
 72
8
 73
4
 74
0
 40
0
 40
0
 40
0
 40
0
 40
1
 40
1
 40
1
 40
1
 10
21.450208
 20
456.880476
 30
0.0
 10
20.731391
 20
456.880476
 30
0.0
 10
20.153750
 20
457.466937
 30
0.0
 10
20.153750
 20
458.185754
 30
0.0
  0
SPLINE
  5
1ef
100
AcDbEntity
  8
Layer_1
 62
7
100
AcDbSpline
 70
8
 71
3
 72
8
 73
4
 74
0
 40
0
 40
0
 40
0
 40
0
 40
1
 40
1
 40
1
 40
1
 10
20.153750
 20
458.185754
 30
0.0
 10
20.153750
 20
458.904571
 30
0.0
 10
20.731391
 20
459.482213
 30
0.0
 10
21.450208
 20
459.482213
 30
0.0
  0
LWPOLYLINE
  5
1f0
100
AcDbEntity
  8
Layer_1
 62
7
100
AcDbPolyline
 90
2
 70
1
 10
196.639668
 20
462.683671
 30
0.0
 10
196.639668
 20
462.683671
 30
0.0
  0
SPLINE
  5
1f1
100
AcDbEntity
  8
Layer_1
 62
7
100
AcDbSpline
 70
8
 71
3
 72
8
 73
4
 74
0
 40
0
 40
0
 40
0
 40
0
 40
1
 40
1
 40
1
 40
1
 10
76.201321
 20
448.510824
 30
0.0
 10
76.903504
 20
448.510824
 30
0.0
 10
77.480140
 20
447.943007
 30
0.0
 10
77.480140
 20
447.240824
 30
0.0
  0
SPLINE
  5
1f2
100
AcDbEntity
  8
Layer_1
 62
7
100
AcDbSpline
 70
8
 71
3
 72
8
 73
4
 74
0
 40
0
 40
0
 40
0
 40
0
 40
1
 40
1
 40
1
 40
1
 10
77.480140
 20
447.240824
 30
0.0
 10
77.480140
 20
446.538641
 30
0.0
 10
76.903504
 20
445.970824
 30
0.0
 10
76.201321
 20
445.970824
 30
0.0
  0
SPLINE
  5
1f3
100
AcDbEntity
  8
Layer_1
 62
7
100
AcDbSpline
 70
8
 71
3
 72
8
 73
4
 74
0
 40
0
 40
0
 40
0
 40
0
 40
1
 40
1
 40
1
 40
1
 10
76.201321
 20
445.970824
 30
0.0
 10
75.499138
 20
445.970824
 30
0.0
 10
74.931321
 20
446.538641
 30
0.0
 10
74.931321
 20
447.240824
 30
0.0
  0
SPLINE
  5
1f4
100
AcDbEntity
  8
Layer_1
 62
7
100
AcDbSpline
 70
8
 71
3
 72
8
 73
4
 74
0
 40
0
 40
0
 40
0
 40
0
 40
1
 40
1
 40
1
 40
1
 10
74.931321
 20
447.240824
 30
0.0
 10
74.931321
 20
447.943007
 30
0.0
 10
75.499138
 20
448.510824
 30
0.0
 10
76.201321
 20
448.510824
 30
0.0
  0
LWPOLYLINE
  5
1f5
100
AcDbEntity
  8
Layer_1
 62
7
100
AcDbPolyline
 90
2
 70
1
 10
21.450208
 20
459.482213
 30
0.0
 10
21.450208
 20
459.482213
 30
0.0
  0
SPLINE
  5
1f6
100
AcDbEntity
  8
Layer_1
 62
7
100
AcDbSpline
 70
8
 71
3
 72
8
 73
4
 74
0
 40
0
 40
0
 40
0
 40
0
 40
1
 40
1
 40
1
 40
1
 10
136.394029
 20
439.241588
 30
0.0
 10
137.088124
 20
439.241588
 30
0.0
 10
137.655210
 20
438.674502
 30
0.0
 10
137.655210
 20
437.980407
 30
0.0
  0
SPLINE
  5
1f7
100
AcDbEntity
  8
Layer_1
 62
7
100
AcDbSpline
 70
8
 71
3
 72
8
 73
4
 74
0
 40
0
 40
0
 40
0
 40
0
 40
1
 40
1
 40
1
 40
1
 10
137.655210
 20
437.980407
 30
0.0
 10
137.655210
 20
437.286313
 30
0.0
 10
137.088124
 20
436.728046
 30
0.0
 10
136.394029
 20
436.728046
 30
0.0
  0
SPLINE
  5
1f8
100
AcDbEntity
  8
Layer_1
 62
7
100
AcDbSpline
 70
8
 71
3
 72
8
 73
4
 74
0
 40
0
 40
0
 40
0
 40
0
 40
1
 40
1
 40
1
 40
1
 10
136.394029
 20
436.728046
 30
0.0
 10
135.699935
 20
436.728046
 30
0.0
 10
135.141668
 20
437.286313
 30
0.0
 10
135.141668
 20
437.980407
 30
0.0
  0
SPLINE
  5
1f9
100
AcDbEntity
  8
Layer_1
 62
7
100
AcDbSpline
 70
8
 71
3
 72
8
 73
4
 74
0
 40
0
 40
0
 40
0
 40
0
 40
1
 40
1
 40
1
 40
1
 10
135.141668
 20
437.980407
 30
0.0
 10
135.141668
 20
438.674502
 30
0.0
 10
135.699935
 20
439.241588
 30
0.0
 10
136.394029
 20
439.241588
 30
0.0
  0
LWPOLYLINE
  5
1fa
100
AcDbEntity
  8
Layer_1
 62
7
100
AcDbPolyline
 90
2
 70
1
 10
76.201321
 20
448.510824
 30
0.0
 10
76.201321
 20
448.510824
 30
0.0
  0
SPLINE
  5
1fb
100
AcDbEntity
  8
Layer_1
 62
7
100
AcDbSpline
 70
8
 71
3
 72
8
 73
4
 74
0
 40
0
 40
0
 40
0
 40
0
 40
1
 40
1
 40
1
 40
1
 10
68.096251
 20
433.914643
 30
0.0
 10
68.777189
 20
433.914643
 30
0.0
 10
69.330974
 20
433.360858
 30
0.0
 10
69.330974
 20
432.679921
 30
0.0
  0
SPLINE
  5
1fc
100
AcDbEntity
  8
Layer_1
 62
7
100
AcDbSpline
 70
8
 71
3
 72
8
 73
4
 74
0
 40
0
 40
0
 40
0
 40
0
 40
1
 40
1
 40
1
 40
1
 10
69.330974
 20
432.679921
 30
0.0
 10
69.330974
 20
431.998984
 30
0.0
 10
68.777189
 20
431.454018
 30
0.0
 10
68.096251
 20
431.454018
 30
0.0
  0
SPLINE
  5
1fd
100
AcDbEntity
  8
Layer_1
 62
7
100
AcDbSpline
 70
8
 71
3
 72
8
 73
4
 74
0
 40
0
 40
0
 40
0
 40
0
 40
1
 40
1
 40
1
 40
1
 10
68.096251
 20
431.454018
 30
0.0
 10
67.415314
 20
431.454018
 30
0.0
 10
66.861529
 20
431.998984
 30
0.0
 10
66.861529
 20
432.679921
 30
0.0
  0
SPLINE
  5
1fe
100
AcDbEntity
  8
Layer_1
 62
7
100
AcDbSpline
 70
8
 71
3
 72
8
 73
4
 74
0
 40
0
 40
0
 40
0
 40
0
 40
1
 40
1
 40
1
 40
1
 10
66.861529
 20
432.679921
 30
0.0
 10
66.861529
 20
433.360858
 30
0.0
 10
67.415314
 20
433.914643
 30
0.0
 10
68.096251
 20
433.914643
 30
0.0
  0
LWPOLYLINE
  5
1ff
100
AcDbEntity
  8
Layer_1
 62
7
100
AcDbPolyline
 90
2
 70
1
 10
136.394029
 20
439.241588
 30
0.0
 10
136.394029
 20
439.241588
 30
0.0
  0
SPLINE
  5
200
100
AcDbEntity
  8
Layer_1
 62
7
100
AcDbSpline
 70
8
 71
3
 72
8
 73
4
 74
0
 40
0
 40
0
 40
0
 40
0
 40
1
 40
1
 40
1
 40
1
 10
117.097085
 20
433.914643
 30
0.0
 10
117.778022
 20
433.914643
 30
0.0
 10
118.331807
 20
433.360858
 30
0.0
 10
118.331807
 20
432.679921
 30
0.0
  0
SPLINE
  5
201
100
AcDbEntity
  8
Layer_1
 62
7
100
AcDbSpline
 70
8
 71
3
 72
8
 73
4
 74
0
 40
0
 40
0
 40
0
 40
0
 40
1
 40
1
 40
1
 40
1
 10
118.331807
 20
432.679921
 30
0.0
 10
118.331807
 20
431.998984
 30
0.0
 10
117.778022
 20
431.454018
 30
0.0
 10
117.097085
 20
431.454018
 30
0.0
  0
SPLINE
  5
202
100
AcDbEntity
  8
Layer_1
 62
7
100
AcDbSpline
 70
8
 71
3
 72
8
 73
4
 74
0
 40
0
 40
0
 40
0
 40
0
 40
1
 40
1
 40
1
 40
1
 10
117.097085
 20
431.454018
 30
0.0
 10
116.416147
 20
431.454018
 30
0.0
 10
115.862362
 20
431.998984
 30
0.0
 10
115.862362
 20
432.679921
 30
0.0
  0
SPLINE
  5
203
100
AcDbEntity
  8
Layer_1
 62
7
100
AcDbSpline
 70
8
 71
3
 72
8
 73
4
 74
0
 40
0
 40
0
 40
0
 40
0
 40
1
 40
1
 40
1
 40
1
 10
115.862362
 20
432.679921
 30
0.0
 10
115.862362
 20
433.360858
 30
0.0
 10
116.416147
 20
433.914643
 30
0.0
 10
117.097085
 20
433.914643
 30
0.0
  0
LWPOLYLINE
  5
204
100
AcDbEntity
  8
Layer_1
 62
7
100
AcDbPolyline
 90
2
 70
1
 10
68.096251
 20
433.914643
 30
0.0
 10
68.096251
 20
433.914643
 30
0.0
  0
SPLINE
  5
205
100
AcDbEntity
  8
Layer_1
 62
7
100
AcDbSpline
 70
8
 71
3
 72
8
 73
4
 74
0
 40
0
 40
0
 40
0
 40
0
 40
1
 40
1
 40
1
 40
1
 10
12.480833
 20
433.570685
 30
0.0
 10
13.042176
 20
433.570685
 30
0.0
 10
13.515271
 20
433.213233
 30
0.0
 10
13.697917
 20
432.715199
 30
0.0
  0
SPLINE
  5
206
100
AcDbEntity
  8
Layer_1
 62
7
100
AcDbSpline
 70
8
 71
3
 72
8
 73
4
 74
0
 40
0
 40
0
 40
0
 40
0
 40
1
 40
1
 40
1
 40
1
 10
13.697917
 20
432.715199
 30
0.0
 10
13.880390
 20
433.213561
 30
0.0
 10
14.353423
 20
433.570685
 30
0.0
 10
14.915000
 20
433.570685
 30
0.0
  0
SPLINE
  5
207
100
AcDbEntity
  8
Layer_1
 62
7
100
AcDbSpline
 70
8
 71
3
 72
8
 73
4
 74
0
 40
0
 40
0
 40
0
 40
0
 40
1
 40
1
 40
1
 40
1
 10
14.915000
 20
433.570685
 30
0.0
 10
15.633817
 20
433.570685
 30
0.0
 10
16.220278
 20
432.984224
 30
0.0
 10
16.220278
 20
432.265407
 30
0.0
  0
SPLINE
  5
208
100
AcDbEntity
  8
Layer_1
 62
7
100
AcDbSpline
 70
8
 71
3
 72
8
 73
4
 74
0
 40
0
 40
0
 40
0
 40
0
 40
1
 40
1
 40
1
 40
1
 10
16.220278
 20
432.265407
 30
0.0
 10
16.220278
 20
431.652124
 30
0.0
 10
15.794656
 20
431.141996
 30
0.0
 10
15.223681
 20
431.004226
 30
0.0
  0
LWPOLYLINE
  5
209
100
AcDbEntity
  8
Layer_1
 62
7
100
AcDbPolyline
 90
2
 70
1
 10
117.097085
 20
433.914643
 30
0.0
 10
117.097085
 20
433.914643
 30
0.0
  0
SPLINE
  5
20a
100
AcDbEntity
  8
Layer_1
 62
7
100
AcDbSpline
 70
8
 71
3
 72
8
 73
4
 74
0
 40
0
 40
0
 40
0
 40
0
 40
1
 40
1
 40
1
 40
1
 10
15.223681
 20
418.815754
 30
0.0
 10
15.763024
 20
418.656824
 30
0.0
 10
16.158542
 20
418.163034
 30
0.0
 10
16.158542
 20
417.572213
 30
0.0
  0
SPLINE
  5
20b
100
AcDbEntity
  8
Layer_1
 62
7
100
AcDbSpline
 70
8
 71
3
 72
8
 73
4
 74
0
 40
0
 40
0
 40
0
 40
0
 40
1
 40
1
 40
1
 40
1
 10
16.158542
 20
417.572213
 30
0.0
 10
16.158542
 20
416.853395
 30
0.0
 10
15.572081
 20
416.266935
 30
0.0
 10
14.853264
 20
416.266935
 30
0.0
  0
SPLINE
  5
20c
100
AcDbEntity
  8
Layer_1
 62
7
100
AcDbSpline
 70
8
 71
3
 72
8
 73
4
 74
0
 40
0
 40
0
 40
0
 40
0
 40
1
 40
1
 40
1
 40
1
 10
14.853264
 20
416.266935
 30
0.0
 10
14.291687
 20
416.266935
 30
0.0
 10
13.818654
 20
416.624059
 30
0.0
 10
13.636181
 20
417.122421
 30
0.0
  0
SPLINE
  5
20d
100
AcDbEntity
  8
Layer_1
 62
7
100
AcDbSpline
 70
8
 71
3
 72
8
 73
4
 74
0
 40
0
 40
0
 40
0
 40
0
 40
1
 40
1
 40
1
 40
1
 10
13.636181
 20
417.122421
 30
0.0
 10
13.453535
 20
416.624386
 30
0.0
 10
12.980440
 20
416.266935
 30
0.0
 10
12.419097
 20
416.266935
 30
0.0
  0
SPLINE
  5
20e
100
AcDbEntity
  8
Layer_1
 62
7
100
AcDbSpline
 70
8
 71
3
 72
8
 73
4
 74
0
 40
0
 40
0
 40
0
 40
0
 40
1
 40
1
 40
1
 40
1
 10
12.419097
 20
416.266935
 30
0.0
 10
11.700280
 20
416.266935
 30
0.0
 10
11.122639
 20
416.853395
 30
0.0
 10
11.122639
 20
417.572213
 30
0.0
  0
SPLINE
  5
20f
100
AcDbEntity
  8
Layer_1
 62
7
100
AcDbSpline
 70
8
 71
3
 72
8
 73
4
 74
0
 40
0
 40
0
 40
0
 40
0
 40
1
 40
1
 40
1
 40
1
 10
11.122639
 20
417.572213
 30
0.0
 10
11.122639
 20
418.222232
 30
0.0
 10
11.593487
 20
418.753863
 30
0.0
 10
12.216250
 20
418.851032
 30
0.0
  0
LWPOLYLINE
  5
210
100
AcDbEntity
  8
Layer_1
 62
7
100
AcDbPolyline
 90
2
 70
1
 10
15.223681
 20
431.004226
 30
0.0
 10
15.223681
 20
418.815754
 30
0.0
  0
SPLINE
  5
211
100
AcDbEntity
  8
Layer_1
 62
7
100
AcDbSpline
 70
8
 71
3
 72
8
 73
4
 74
0
 40
0
 40
0
 40
0
 40
0
 40
1
 40
1
 40
1
 40
1
 10
12.216250
 20
430.995407
 30
0.0
 10
11.627345
 20
431.119980
 30
0.0
 10
11.184375
 20
431.639407
 30
0.0
 10
11.184375
 20
432.265407
 30
0.0
  0
SPLINE
  5
212
100
AcDbEntity
  8
Layer_1
 62
7
100
AcDbSpline
 70
8
 71
3
 72
8
 73
4
 74
0
 40
0
 40
0
 40
0
 40
0
 40
1
 40
1
 40
1
 40
1
 10
11.184375
 20
432.265407
 30
0.0
 10
11.184375
 20
432.984224
 30
0.0
 10
11.762016
 20
433.570685
 30
0.0
 10
12.480833
 20
433.570685
 30
0.0
  0
LWPOLYLINE
  5
213
100
AcDbEntity
  8
Layer_1
 62
7
100
AcDbPolyline
 90
2
 70
1
 10
12.216250
 20
418.851032
 30
0.0
 10
12.216250
 20
430.995407
 30
0.0
  0
SPLINE
  5
214
100
AcDbEntity
  8
Layer_1
 62
7
100
AcDbSpline
 70
8
 71
3
 72
8
 73
4
 74
0
 40
0
 40
0
 40
0
 40
0
 40
1
 40
1
 40
1
 40
1
 10
195.484307
 20
433.570685
 30
0.0
 10
196.045873
 20
433.570685
 30
0.0
 10
196.518905
 20
433.213561
 30
0.0
 10
196.701390
 20
432.715199
 30
0.0
  0
SPLINE
  5
215
100
AcDbEntity
  8
Layer_1
 62
7
100
AcDbSpline
 70
8
 71
3
 72
8
 73
4
 74
0
 40
0
 40
0
 40
0
 40
0
 40
1
 40
1
 40
1
 40
1
 10
196.701390
 20
432.715199
 30
0.0
 10
196.884044
 20
433.213233
 30
0.0
 10
197.357134
 20
433.570685
 30
0.0
 10
197.918474
 20
433.570685
 30
0.0
  0
SPLINE
  5
216
100
AcDbEntity
  8
Layer_1
 62
7
100
AcDbSpline
 70
8
 71
3
 72
8
 73
4
 74
0
 40
0
 40
0
 40
0
 40
0
 40
1
 40
1
 40
1
 40
1
 10
197.918474
 20
433.570685
 30
0.0
 10
198.637294
 20
433.570685
 30
0.0
 10
199.223751
 20
432.984224
 30
0.0
 10
199.223751
 20
432.265407
 30
0.0
  0
SPLINE
  5
217
100
AcDbEntity
  8
Layer_1
 62
7
100
AcDbSpline
 70
8
 71
3
 72
8
 73
4
 74
0
 40
0
 40
0
 40
0
 40
0
 40
1
 40
1
 40
1
 40
1
 10
199.223751
 20
432.265407
 30
0.0
 10
199.223751
 20
431.649584
 30
0.0
 10
198.792883
 20
431.139433
 30
0.0
 10
198.218335
 20
431.004226
 30
0.0
  0
LWPOLYLINE
  5
218
100
AcDbEntity
  8
Layer_1
 62
7
100
AcDbPolyline
 90
2
 70
1
 10
12.480833
 20
433.570685
 30
0.0
 10
12.480833
 20
433.570685
 30
0.0
  0
SPLINE
  5
219
100
AcDbEntity
  8
Layer_1
 62
7
100
AcDbSpline
 70
8
 71
3
 72
8
 73
4
 74
0
 40
0
 40
0
 40
0
 40
0
 40
1
 40
1
 40
1
 40
1
 10
198.218335
 20
418.533532
 30
0.0
 10
198.792883
 20
418.398325
 30
0.0
 10
199.223751
 20
417.888174
 30
0.0
 10
199.223751
 20
417.272351
 30
0.0
  0
SPLINE
  5
21a
100
AcDbEntity
  8
Layer_1
 62
7
100
AcDbSpline
 70
8
 71
3
 72
8
 73
4
 74
0
 40
0
 40
0
 40
0
 40
0
 40
1
 40
1
 40
1
 40
1
 10
199.223751
 20
417.272351
 30
0.0
 10
199.223751
 20
416.553534
 30
0.0
 10
198.637294
 20
415.967074
 30
0.0
 10
197.918474
 20
415.967074
 30
0.0
  0
SPLINE
  5
21b
100
AcDbEntity
  8
Layer_1
 62
7
100
AcDbSpline
 70
8
 71
3
 72
8
 73
4
 74
0
 40
0
 40
0
 40
0
 40
0
 40
1
 40
1
 40
1
 40
1
 10
197.918474
 20
415.967074
 30
0.0
 10
197.357134
 20
415.967074
 30
0.0
 10
196.884044
 20
416.324525
 30
0.0
 10
196.701390
 20
416.822560
 30
0.0
  0
SPLINE
  5
21c
100
AcDbEntity
  8
Layer_1
 62
7
100
AcDbSpline
 70
8
 71
3
 72
8
 73
4
 74
0
 40
0
 40
0
 40
0
 40
0
 40
1
 40
1
 40
1
 40
1
 10
196.701390
 20
416.822560
 30
0.0
 10
196.518905
 20
416.324198
 30
0.0
 10
196.045873
 20
415.967074
 30
0.0
 10
195.484307
 20
415.967074
 30
0.0
  0
SPLINE
  5
21d
100
AcDbEntity
  8
Layer_1
 62
7
100
AcDbSpline
 70
8
 71
3
 72
8
 73
4
 74
0
 40
0
 40
0
 40
0
 40
0
 40
1
 40
1
 40
1
 40
1
 10
195.484307
 20
415.967074
 30
0.0
 10
194.765487
 20
415.967074
 30
0.0
 10
194.179029
 20
416.553534
 30
0.0
 10
194.179029
 20
417.272351
 30
0.0
  0
SPLINE
  5
21e
100
AcDbEntity
  8
Layer_1
 62
7
100
AcDbSpline
 70
8
 71
3
 72
8
 73
4
 74
0
 40
0
 40
0
 40
0
 40
0
 40
1
 40
1
 40
1
 40
1
 10
194.179029
 20
417.272351
 30
0.0
 10
194.179029
 20
417.901318
 30
0.0
 10
194.626634
 20
418.420987
 30
0.0
 10
195.219724
 20
418.542351
 30
0.0
  0
LWPOLYLINE
  5
21f
100
AcDbEntity
  8
Layer_1
 62
7
100
AcDbPolyline
 90
2
 70
1
 10
198.218335
 20
431.004226
 30
0.0
 10
198.218335
 20
418.533532
 30
0.0
  0
SPLINE
  5
220
100
AcDbEntity
  8
Layer_1
 62
7
100
AcDbSpline
 70
8
 71
3
 72
8
 73
4
 74
0
 40
0
 40
0
 40
0
 40
0
 40
1
 40
1
 40
1
 40
1
 10
195.219724
 20
430.995407
 30
0.0
 10
194.626634
 20
431.116771
 30
0.0
 10
194.179029
 20
431.636441
 30
0.0
 10
194.179029
 20
432.265407
 30
0.0
  0
SPLINE
  5
221
100
AcDbEntity
  8
Layer_1
 62
7
100
AcDbSpline
 70
8
 71
3
 72
8
 73
4
 74
0
 40
0
 40
0
 40
0
 40
0
 40
1
 40
1
 40
1
 40
1
 10
194.179029
 20
432.265407
 30
0.0
 10
194.179029
 20
432.984224
 30
0.0
 10
194.765487
 20
433.570685
 30
0.0
 10
195.484307
 20
433.570685
 30
0.0
  0
LWPOLYLINE
  5
222
100
AcDbEntity
  8
Layer_1
 62
7
100
AcDbPolyline
 90
2
 70
1
 10
195.219724
 20
418.542351
 30
0.0
 10
195.219724
 20
430.995407
 30
0.0
  0
SPLINE
  5
223
100
AcDbEntity
  8
Layer_1
 62
7
100
AcDbSpline
 70
8
 71
3
 72
8
 73
4
 74
0
 40
0
 40
0
 40
0
 40
0
 40
1
 40
1
 40
1
 40
1
 10
54.858265
 20
408.435268
 30
0.0
 10
55.445271
 20
408.435268
 30
0.0
 10
55.930732
 20
408.043208
 30
0.0
 10
56.092987
 20
407.509226
 30
0.0
  0
LWPOLYLINE
  5
224
100
AcDbEntity
  8
Layer_1
 62
7
100
AcDbPolyline
 90
2
 70
1
 10
195.484307
 20
433.570685
 30
0.0
 10
195.484307
 20
433.570685
 30
0.0
  0
SPLINE
  5
225
100
AcDbEntity
  8
Layer_1
 62
7
100
AcDbSpline
 70
8
 71
3
 72
8
 73
4
 74
0
 40
0
 40
0
 40
0
 40
0
 40
1
 40
1
 40
1
 40
1
 10
68.616599
 20
407.509226
 30
0.0
 10
68.778501
 20
408.043784
 30
0.0
 10
69.263906
 20
408.435268
 30
0.0
 10
69.851321
 20
408.435268
 30
0.0
  0
SPLINE
  5
226
100
AcDbEntity
  8
Layer_1
 62
7
100
AcDbSpline
 70
8
 71
3
 72
8
 73
4
 74
0
 40
0
 40
0
 40
0
 40
0
 40
1
 40
1
 40
1
 40
1
 10
69.851321
 20
408.435268
 30
0.0
 10
70.570138
 20
408.435268
 30
0.0
 10
71.156599
 20
407.857627
 30
0.0
 10
71.156599
 20
407.138810
 30
0.0
  0
SPLINE
  5
227
100
AcDbEntity
  8
Layer_1
 62
7
100
AcDbSpline
 70
8
 71
3
 72
8
 73
4
 74
0
 40
0
 40
0
 40
0
 40
0
 40
1
 40
1
 40
1
 40
1
 10
71.156599
 20
407.138810
 30
0.0
 10
71.156599
 20
406.649600
 30
0.0
 10
70.885341
 20
406.223445
 30
0.0
 10
70.486321
 20
406.001101
 30
0.0
  0
SPLINE
  5
228
100
AcDbEntity
  8
Layer_1
 62
7
100
AcDbSpline
 70
8
 71
3
 72
8
 73
4
 74
0
 40
0
 40
0
 40
0
 40
0
 40
1
 40
1
 40
1
 40
1
 10
70.486321
 20
406.001101
 30
0.0
 10
70.918702
 20
405.789491
 30
0.0
 10
71.218335
 20
405.350768
 30
0.0
 10
71.218335
 20
404.836935
 30
0.0
  0
SPLINE
  5
229
100
AcDbEntity
  8
Layer_1
 62
7
100
AcDbSpline
 70
8
 71
3
 72
8
 73
4
 74
0
 40
0
 40
0
 40
0
 40
0
 40
1
 40
1
 40
1
 40
1
 10
71.218335
 20
404.836935
 30
0.0
 10
71.218335
 20
404.118118
 30
0.0
 10
70.640694
 20
403.531657
 30
0.0
 10
69.921876
 20
403.531657
 30
0.0
  0
SPLINE
  5
22a
100
AcDbEntity
  8
Layer_1
 62
7
100
AcDbSpline
 70
8
 71
3
 72
8
 73
4
 74
0
 40
0
 40
0
 40
0
 40
0
 40
1
 40
1
 40
1
 40
1
 10
69.921876
 20
403.531657
 30
0.0
 10
69.315141
 20
403.531657
 30
0.0
 10
68.804917
 20
403.948869
 30
0.0
 10
68.660696
 20
404.510615
 30
0.0
  0
LWPOLYLINE
  5
22b
100
AcDbEntity
  8
Layer_1
 62
7
100
AcDbPolyline
 90
2
 70
1
 10
56.092987
 20
407.509226
 30
0.0
 10
68.616599
 20
407.509226
 30
0.0
  0
SPLINE
  5
22c
100
AcDbEntity
  8
Layer_1
 62
7
100
AcDbSpline
 70
8
 71
3
 72
8
 73
4
 74
0
 40
0
 40
0
 40
0
 40
0
 40
1
 40
1
 40
1
 40
1
 10
56.172362
 20
404.510615
 30
0.0
 10
56.027915
 20
403.949199
 30
0.0
 10
55.526505
 20
403.531657
 30
0.0
 10
54.920001
 20
403.531657
 30
0.0
  0
SPLINE
  5
22d
100
AcDbEntity
  8
Layer_1
 62
7
100
AcDbSpline
 70
8
 71
3
 72
8
 73
4
 74
0
 40
0
 40
0
 40
0
 40
0
 40
1
 40
1
 40
1
 40
1
 10
54.920001
 20
403.531657
 30
0.0
 10
54.201184
 20
403.531657
 30
0.0
 10
53.614724
 20
404.118118
 30
0.0
 10
53.614724
 20
404.836935
 30
0.0
  0
SPLINE
  5
22e
100
AcDbEntity
  8
Layer_1
 62
7
100
AcDbSpline
 70
8
 71
3
 72
8
 73
4
 74
0
 40
0
 40
0
 40
0
 40
0
 40
1
 40
1
 40
1
 40
1
 10
53.614724
 20
404.836935
 30
0.0
 10
53.614724
 20
405.325487
 30
0.0
 10
53.886865
 20
405.743232
 30
0.0
 10
54.285001
 20
405.965824
 30
0.0
  0
SPLINE
  5
22f
100
AcDbEntity
  8
Layer_1
 62
7
100
AcDbSpline
 70
8
 71
3
 72
8
 73
4
 74
0
 40
0
 40
0
 40
0
 40
0
 40
1
 40
1
 40
1
 40
1
 10
54.285001
 20
405.965824
 30
0.0
 10
53.851167
 20
406.176906
 30
0.0
 10
53.552987
 20
406.623912
 30
0.0
 10
53.552987
 20
407.138810
 30
0.0
  0
SPLINE
  5
230
100
AcDbEntity
  8
Layer_1
 62
7
100
AcDbSpline
 70
8
 71
3
 72
8
 73
4
 74
0
 40
0
 40
0
 40
0
 40
0
 40
1
 40
1
 40
1
 40
1
 10
53.552987
 20
407.138810
 30
0.0
 10
53.552987
 20
407.857627
 30
0.0
 10
54.139448
 20
408.435268
 30
0.0
 10
54.858265
 20
408.435268
 30
0.0
  0
LWPOLYLINE
  5
231
100
AcDbEntity
  8
Layer_1
 62
7
100
AcDbPolyline
 90
2
 70
1
 10
68.660696
 20
404.510615
 30
0.0
 10
56.172362
 20
404.510615
 30
0.0
  0
SPLINE
  5
232
100
AcDbEntity
  8
Layer_1
 62
7
100
AcDbSpline
 70
8
 71
3
 72
8
 73
4
 74
0
 40
0
 40
0
 40
0
 40
0
 40
1
 40
1
 40
1
 40
1
 10
100.851668
 20
408.435268
 30
0.0
 10
101.570485
 20
408.435268
 30
0.0
 10
102.156946
 20
407.857627
 30
0.0
 10
102.156946
 20
407.138810
 30
0.0
  0
SPLINE
  5
233
100
AcDbEntity
  8
Layer_1
 62
7
100
AcDbSpline
 70
8
 71
3
 72
8
 73
4
 74
0
 40
0
 40
0
 40
0
 40
0
 40
1
 40
1
 40
1
 40
1
 10
102.156946
 20
407.138810
 30
0.0
 10
102.156946
 20
406.649600
 30
0.0
 10
101.885688
 20
406.223445
 30
0.0
 10
101.486668
 20
406.001101
 30
0.0
  0
SPLINE
  5
234
100
AcDbEntity
  8
Layer_1
 62
7
100
AcDbSpline
 70
8
 71
3
 72
8
 73
4
 74
0
 40
0
 40
0
 40
0
 40
0
 40
1
 40
1
 40
1
 40
1
 10
101.486668
 20
406.001101
 30
0.0
 10
101.919049
 20
405.789491
 30
0.0
 10
102.218682
 20
405.350768
 30
0.0
 10
102.218682
 20
404.836935
 30
0.0
  0
SPLINE
  5
235
100
AcDbEntity
  8
Layer_1
 62
7
100
AcDbSpline
 70
8
 71
3
 72
8
 73
4
 74
0
 40
0
 40
0
 40
0
 40
0
 40
1
 40
1
 40
1
 40
1
 10
102.218682
 20
404.836935
 30
0.0
 10
102.218682
 20
404.118118
 30
0.0
 10
101.641041
 20
403.531657
 30
0.0
 10
100.922224
 20
403.531657
 30
0.0
  0
SPLINE
  5
236
100
AcDbEntity
  8
Layer_1
 62
7
100
AcDbSpline
 70
8
 71
3
 72
8
 73
4
 74
0
 40
0
 40
0
 40
0
 40
0
 40
1
 40
1
 40
1
 40
1
 10
100.922224
 20
403.531657
 30
0.0
 10
100.315488
 20
403.531657
 30
0.0
 10
99.805264
 20
403.948869
 30
0.0
 10
99.661043
 20
404.510615
 30
0.0
  0
LWPOLYLINE
  5
237
100
AcDbEntity
  8
Layer_1
 62
7
100
AcDbPolyline
 90
2
 70
1
 10
54.858265
 20
408.435268
 30
0.0
 10
54.858265
 20
408.435268
 30
0.0
  0
SPLINE
  5
238
100
AcDbEntity
  8
Layer_1
 62
7
100
AcDbSpline
 70
8
 71
3
 72
8
 73
4
 74
0
 40
0
 40
0
 40
0
 40
0
 40
1
 40
1
 40
1
 40
1
 10
86.202571
 20
404.510615
 30
0.0
 10
86.109014
 20
403.883678
 30
0.0
 10
85.567918
 20
403.399365
 30
0.0
 10
84.914932
 20
403.399365
 30
0.0
  0
SPLINE
  5
239
100
AcDbEntity
  8
Layer_1
 62
7
100
AcDbSpline
 70
8
 71
3
 72
8
 73
4
 74
0
 40
0
 40
0
 40
0
 40
0
 40
1
 40
1
 40
1
 40
1
 10
84.914932
 20
403.399365
 30
0.0
 10
84.196115
 20
403.399365
 30
0.0
 10
83.618474
 20
403.985826
 30
0.0
 10
83.618474
 20
404.704643
 30
0.0
  0
SPLINE
  5
23a
100
AcDbEntity
  8
Layer_1
 62
7
100
AcDbSpline
 70
8
 71
3
 72
8
 73
4
 74
0
 40
0
 40
0
 40
0
 40
0
 40
1
 40
1
 40
1
 40
1
 10
83.618474
 20
404.704643
 30
0.0
 10
83.618474
 20
405.197462
 30
0.0
 10
83.893694
 20
405.621405
 30
0.0
 10
84.297571
 20
405.842351
 30
0.0
  0
SPLINE
  5
23b
100
AcDbEntity
  8
Layer_1
 62
7
100
AcDbSpline
 70
8
 71
3
 72
8
 73
4
 74
0
 40
0
 40
0
 40
0
 40
0
 40
1
 40
1
 40
1
 40
1
 10
84.297571
 20
405.842351
 30
0.0
 10
83.861450
 20
406.052593
 30
0.0
 10
83.556737
 20
406.489950
 30
0.0
 10
83.556737
 20
407.006518
 30
0.0
  0
SPLINE
  5
23c
100
AcDbEntity
  8
Layer_1
 62
7
100
AcDbSpline
 70
8
 71
3
 72
8
 73
4
 74
0
 40
0
 40
0
 40
0
 40
0
 40
1
 40
1
 40
1
 40
1
 10
83.556737
 20
407.006518
 30
0.0
 10
83.556737
 20
407.725335
 30
0.0
 10
84.134379
 20
408.311796
 30
0.0
 10
84.853196
 20
408.311796
 30
0.0
  0
SPLINE
  5
23d
100
AcDbEntity
  8
Layer_1
 62
7
100
AcDbSpline
 70
8
 71
3
 72
8
 73
4
 74
0
 40
0
 40
0
 40
0
 40
0
 40
1
 40
1
 40
1
 40
1
 10
84.853196
 20
408.311796
 30
0.0
 10
85.392311
 20
408.311796
 30
0.0
 10
85.855056
 20
407.976366
 30
0.0
 10
86.052640
 20
407.509226
 30
0.0
  0
LWPOLYLINE
  5
23e
100
AcDbEntity
  8
Layer_1
 62
7
100
AcDbPolyline
 90
2
 70
1
 10
99.661043
 20
404.510615
 30
0.0
 10
86.202571
 20
404.510615
 30
0.0
  0
SPLINE
  5
23f
100
AcDbEntity
  8
Layer_1
 62
7
100
AcDbSpline
 70
8
 71
3
 72
8
 73
4
 74
0
 40
0
 40
0
 40
0
 40
0
 40
1
 40
1
 40
1
 40
1
 10
99.616946
 20
407.509226
 30
0.0
 10
99.779201
 20
408.043208
 30
0.0
 10
100.264663
 20
408.435268
 30
0.0
 10
100.851668
 20
408.435268
 30
0.0
  0
LWPOLYLINE
  5
240
100
AcDbEntity
  8
Layer_1
 62
7
100
AcDbPolyline
 90
2
 70
1
 10
86.052640
 20
407.509226
 30
0.0
 10
99.616946
 20
407.509226
 30
0.0
  0
SPLINE
  5
241
100
AcDbEntity
  8
Layer_1
 62
7
100
AcDbSpline
 70
8
 71
3
 72
8
 73
4
 74
0
 40
0
 40
0
 40
0
 40
0
 40
1
 40
1
 40
1
 40
1
 10
109.856321
 20
408.435268
 30
0.0
 10
110.443326
 20
408.435268
 30
0.0
 10
110.928788
 20
408.043208
 30
0.0
 10
111.091043
 20
407.509226
 30
0.0
  0
LWPOLYLINE
  5
242
100
AcDbEntity
  8
Layer_1
 62
7
100
AcDbPolyline
 90
2
 70
1
 10
100.851668
 20
408.435268
 30
0.0
 10
100.851668
 20
408.435268
 30
0.0
  0
SPLINE
  5
243
100
AcDbEntity
  8
Layer_1
 62
7
100
AcDbSpline
 70
8
 71
3
 72
8
 73
4
 74
0
 40
0
 40
0
 40
0
 40
0
 40
1
 40
1
 40
1
 40
1
 10
124.655349
 20
407.509226
 30
0.0
 10
124.852932
 20
407.976366
 30
0.0
 10
125.315678
 20
408.311796
 30
0.0
 10
125.854793
 20
408.311796
 30
0.0
  0
SPLINE
  5
244
100
AcDbEntity
  8
Layer_1
 62
7
100
AcDbSpline
 70
8
 71
3
 72
8
 73
4
 74
0
 40
0
 40
0
 40
0
 40
0
 40
1
 40
1
 40
1
 40
1
 10
125.854793
 20
408.311796
 30
0.0
 10
126.573610
 20
408.311796
 30
0.0
 10
127.160071
 20
407.725335
 30
0.0
 10
127.160071
 20
407.006518
 30
0.0
  0
SPLINE
  5
245
100
AcDbEntity
  8
Layer_1
 62
7
100
AcDbSpline
 70
8
 71
3
 72
8
 73
4
 74
0
 40
0
 40
0
 40
0
 40
0
 40
1
 40
1
 40
1
 40
1
 10
127.160071
 20
407.006518
 30
0.0
 10
127.160071
 20
406.513699
 30
0.0
 10
126.884851
 20
406.089756
 30
0.0
 10
126.480974
 20
405.868810
 30
0.0
  0
SPLINE
  5
246
100
AcDbEntity
  8
Layer_1
 62
7
100
AcDbSpline
 70
8
 71
3
 72
8
 73
4
 74
0
 40
0
 40
0
 40
0
 40
0
 40
1
 40
1
 40
1
 40
1
 10
126.480974
 20
405.868810
 30
0.0
 10
126.917094
 20
405.658568
 30
0.0
 10
127.221807
 20
405.221211
 30
0.0
 10
127.221807
 20
404.704643
 30
0.0
  0
SPLINE
  5
247
100
AcDbEntity
  8
Layer_1
 62
7
100
AcDbSpline
 70
8
 71
3
 72
8
 73
4
 74
0
 40
0
 40
0
 40
0
 40
0
 40
1
 40
1
 40
1
 40
1
 10
127.221807
 20
404.704643
 30
0.0
 10
127.221807
 20
403.985826
 30
0.0
 10
126.635346
 20
403.399365
 30
0.0
 10
125.916529
 20
403.399365
 30
0.0
  0
SPLINE
  5
248
100
AcDbEntity
  8
Layer_1
 62
7
100
AcDbSpline
 70
8
 71
3
 72
8
 73
4
 74
0
 40
0
 40
0
 40
0
 40
0
 40
1
 40
1
 40
1
 40
1
 10
125.916529
 20
403.399365
 30
0.0
 10
125.263543
 20
403.399365
 30
0.0
 10
124.731266
 20
403.883678
 30
0.0
 10
124.637710
 20
404.510615
 30
0.0
  0
LWPOLYLINE
  5
249
100
AcDbEntity
  8
Layer_1
 62
7
100
AcDbPolyline
 90
2
 70
1
 10
111.091043
 20
407.509226
 30
0.0
 10
124.655349
 20
407.509226
 30
0.0
  0
SPLINE
  5
24a
100
AcDbEntity
  8
Layer_1
 62
7
100
AcDbSpline
 70
8
 71
3
 72
8
 73
4
 74
0
 40
0
 40
0
 40
0
 40
0
 40
1
 40
1
 40
1
 40
1
 10
111.179237
 20
404.510615
 30
0.0
 10
111.035016
 20
403.948869
 30
0.0
 10
110.524792
 20
403.531657
 30
0.0
 10
109.918057
 20
403.531657
 30
0.0
  0
SPLINE
  5
24b
100
AcDbEntity
  8
Layer_1
 62
7
100
AcDbSpline
 70
8
 71
3
 72
8
 73
4
 74
0
 40
0
 40
0
 40
0
 40
0
 40
1
 40
1
 40
1
 40
1
 10
109.918057
 20
403.531657
 30
0.0
 10
109.199240
 20
403.531657
 30
0.0
 10
108.612779
 20
404.118118
 30
0.0
 10
108.612779
 20
404.836935
 30
0.0
  0
SPLINE
  5
24c
100
AcDbEntity
  8
Layer_1
 62
7
100
AcDbSpline
 70
8
 71
3
 72
8
 73
4
 74
0
 40
0
 40
0
 40
0
 40
0
 40
1
 40
1
 40
1
 40
1
 10
108.612779
 20
404.836935
 30
0.0
 10
108.612779
 20
405.325487
 30
0.0
 10
108.893740
 20
405.743232
 30
0.0
 10
109.291876
 20
405.965824
 30
0.0
  0
SPLINE
  5
24d
100
AcDbEntity
  8
Layer_1
 62
7
100
AcDbSpline
 70
8
 71
3
 72
8
 73
4
 74
0
 40
0
 40
0
 40
0
 40
0
 40
1
 40
1
 40
1
 40
1
 10
109.291876
 20
405.965824
 30
0.0
 10
108.854172
 20
406.175475
 30
0.0
 10
108.551043
 20
406.621084
 30
0.0
 10
108.551043
 20
407.138810
 30
0.0
  0
SPLINE
  5
24e
100
AcDbEntity
  8
Layer_1
 62
7
100
AcDbSpline
 70
8
 71
3
 72
8
 73
4
 74
0
 40
0
 40
0
 40
0
 40
0
 40
1
 40
1
 40
1
 40
1
 10
108.551043
 20
407.138810
 30
0.0
 10
108.551043
 20
407.857627
 30
0.0
 10
109.137504
 20
408.435268
 30
0.0
 10
109.856321
 20
408.435268
 30
0.0
  0
LWPOLYLINE
  5
24f
100
AcDbEntity
  8
Layer_1
 62
7
100
AcDbPolyline
 90
2
 70
1
 10
124.637710
 20
404.510615
 30
0.0
 10
111.179237
 20
404.510615
 30
0.0
  0
SPLINE
  5
250
100
AcDbEntity
  8
Layer_1
 62
7
100
AcDbSpline
 70
8
 71
3
 72
8
 73
4
 74
0
 40
0
 40
0
 40
0
 40
0
 40
1
 40
1
 40
1
 40
1
 10
40.217987
 20
408.311796
 30
0.0
 10
40.936805
 20
408.311796
 30
0.0
 10
41.523265
 20
407.725335
 30
0.0
 10
41.523265
 20
407.006518
 30
0.0
  0
SPLINE
  5
251
100
AcDbEntity
  8
Layer_1
 62
7
100
AcDbSpline
 70
8
 71
3
 72
8
 73
4
 74
0
 40
0
 40
0
 40
0
 40
0
 40
1
 40
1
 40
1
 40
1
 10
41.523265
 20
407.006518
 30
0.0
 10
41.523265
 20
406.513699
 30
0.0
 10
41.248045
 20
406.089756
 30
0.0
 10
40.844168
 20
405.868810
 30
0.0
  0
SPLINE
  5
252
100
AcDbEntity
  8
Layer_1
 62
7
100
AcDbSpline
 70
8
 71
3
 72
8
 73
4
 74
0
 40
0
 40
0
 40
0
 40
0
 40
1
 40
1
 40
1
 40
1
 10
40.844168
 20
405.868810
 30
0.0
 10
41.280289
 20
405.658568
 30
0.0
 10
41.585001
 20
405.221211
 30
0.0
 10
41.585001
 20
404.704643
 30
0.0
  0
SPLINE
  5
253
100
AcDbEntity
  8
Layer_1
 62
7
100
AcDbSpline
 70
8
 71
3
 72
8
 73
4
 74
0
 40
0
 40
0
 40
0
 40
0
 40
1
 40
1
 40
1
 40
1
 10
41.585001
 20
404.704643
 30
0.0
 10
41.585001
 20
403.985826
 30
0.0
 10
40.998541
 20
403.399365
 30
0.0
 10
40.279724
 20
403.399365
 30
0.0
  0
SPLINE
  5
254
100
AcDbEntity
  8
Layer_1
 62
7
100
AcDbSpline
 70
8
 71
3
 72
8
 73
4
 74
0
 40
0
 40
0
 40
0
 40
0
 40
1
 40
1
 40
1
 40
1
 10
40.279724
 20
403.399365
 30
0.0
 10
39.626738
 20
403.399365
 30
0.0
 10
39.094461
 20
403.883678
 30
0.0
 10
39.000904
 20
404.510615
 30
0.0
  0
LWPOLYLINE
  5
255
100
AcDbEntity
  8
Layer_1
 62
7
100
AcDbPolyline
 90
2
 70
1
 10
109.856321
 20
408.435268
 30
0.0
 10
109.856321
 20
408.435268
 30
0.0
  0
SPLINE
  5
256
100
AcDbEntity
  8
Layer_1
 62
7
100
AcDbSpline
 70
8
 71
3
 72
8
 73
4
 74
0
 40
0
 40
0
 40
0
 40
0
 40
1
 40
1
 40
1
 40
1
 10
26.080417
 20
404.510615
 30
0.0
 10
26.047653
 20
403.820963
 30
0.0
 10
25.481722
 20
403.267074
 30
0.0
 10
24.783958
 20
403.267074
 30
0.0
  0
SPLINE
  5
257
100
AcDbEntity
  8
Layer_1
 62
7
100
AcDbSpline
 70
8
 71
3
 72
8
 73
4
 74
0
 40
0
 40
0
 40
0
 40
0
 40
1
 40
1
 40
1
 40
1
 10
24.783958
 20
403.267074
 30
0.0
 10
24.065141
 20
403.267074
 30
0.0
 10
23.478680
 20
403.853534
 30
0.0
 10
23.478680
 20
404.572351
 30
0.0
  0
SPLINE
  5
258
100
AcDbEntity
  8
Layer_1
 62
7
100
AcDbSpline
 70
8
 71
3
 72
8
 73
4
 74
0
 40
0
 40
0
 40
0
 40
0
 40
1
 40
1
 40
1
 40
1
 10
23.478680
 20
404.572351
 30
0.0
 10
23.478680
 20
405.060904
 30
0.0
 10
23.759641
 20
405.478649
 30
0.0
 10
24.157778
 20
405.701240
 30
0.0
  0
SPLINE
  5
259
100
AcDbEntity
  8
Layer_1
 62
7
100
AcDbSpline
 70
8
 71
3
 72
8
 73
4
 74
0
 40
0
 40
0
 40
0
 40
0
 40
1
 40
1
 40
1
 40
1
 10
24.157778
 20
405.701240
 30
0.0
 10
23.720074
 20
405.910892
 30
0.0
 10
23.416944
 20
406.356501
 30
0.0
 10
23.416944
 20
406.874226
 30
0.0
  0
SPLINE
  5
25a
100
AcDbEntity
  8
Layer_1
 62
7
100
AcDbSpline
 70
8
 71
3
 72
8
 73
4
 74
0
 40
0
 40
0
 40
0
 40
0
 40
1
 40
1
 40
1
 40
1
 10
23.416944
 20
406.874226
 30
0.0
 10
23.416944
 20
407.593044
 30
0.0
 10
24.003405
 20
408.170685
 30
0.0
 10
24.722222
 20
408.170685
 30
0.0
  0
SPLINE
  5
25b
100
AcDbEntity
  8
Layer_1
 62
7
100
AcDbSpline
 70
8
 71
3
 72
8
 73
4
 74
0
 40
0
 40
0
 40
0
 40
0
 40
1
 40
1
 40
1
 40
1
 10
24.722222
 20
408.170685
 30
0.0
 10
25.208037
 20
408.170685
 30
0.0
 10
25.627509
 20
407.903694
 30
0.0
 10
25.851111
 20
407.509226
 30
0.0
  0
LWPOLYLINE
  5
25c
100
AcDbEntity
  8
Layer_1
 62
7
100
AcDbPolyline
 90
2
 70
1
 10
39.000904
 20
404.510615
 30
0.0
 10
26.080417
 20
404.510615
 30
0.0
  0
SPLINE
  5
25d
100
AcDbEntity
  8
Layer_1
 62
7
100
AcDbSpline
 70
8
 71
3
 72
8
 73
4
 74
0
 40
0
 40
0
 40
0
 40
0
 40
1
 40
1
 40
1
 40
1
 10
39.018543
 20
407.509226
 30
0.0
 10
39.216127
 20
407.976366
 30
0.0
 10
39.678872
 20
408.311796
 30
0.0
 10
40.217987
 20
408.311796
 30
0.0
  0
LWPOLYLINE
  5
25e
100
AcDbEntity
  8
Layer_1
 62
7
100
AcDbPolyline
 90
2
 70
1
 10
25.851111
 20
407.509226
 30
0.0
 10
39.018543
 20
407.509226
 30
0.0
  0
SPLINE
  5
25f
100
AcDbEntity
  8
Layer_1
 62
7
100
AcDbSpline
 70
8
 71
3
 72
8
 73
4
 74
0
 40
0
 40
0
 40
0
 40
0
 40
1
 40
1
 40
1
 40
1
 10
139.851251
 20
408.311796
 30
0.0
 10
140.390366
 20
408.311796
 30
0.0
 10
140.853112
 20
407.976366
 30
0.0
 10
141.050696
 20
407.509226
 30
0.0
  0
LWPOLYLINE
  5
260
100
AcDbEntity
  8
Layer_1
 62
7
100
AcDbPolyline
 90
2
 70
1
 10
40.217987
 20
408.311796
 30
0.0
 10
40.217987
 20
408.311796
 30
0.0
  0
SPLINE
  5
261
100
AcDbEntity
  8
Layer_1
 62
7
100
AcDbSpline
 70
8
 71
3
 72
8
 73
4
 74
0
 40
0
 40
0
 40
0
 40
0
 40
1
 40
1
 40
1
 40
1
 10
153.653682
 20
407.509226
 30
0.0
 10
153.851266
 20
407.976366
 30
0.0
 10
154.314011
 20
408.311796
 30
0.0
 10
154.853126
 20
408.311796
 30
0.0
  0
SPLINE
  5
262
100
AcDbEntity
  8
Layer_1
 62
7
100
AcDbSpline
 70
8
 71
3
 72
8
 73
4
 74
0
 40
0
 40
0
 40
0
 40
0
 40
1
 40
1
 40
1
 40
1
 10
154.853126
 20
408.311796
 30
0.0
 10
155.571944
 20
408.311796
 30
0.0
 10
156.158404
 20
407.725335
 30
0.0
 10
156.158404
 20
407.006518
 30
0.0
  0
SPLINE
  5
263
100
AcDbEntity
  8
Layer_1
 62
7
100
AcDbSpline
 70
8
 71
3
 72
8
 73
4
 74
0
 40
0
 40
0
 40
0
 40
0
 40
1
 40
1
 40
1
 40
1
 10
156.158404
 20
407.006518
 30
0.0
 10
156.158404
 20
406.513699
 30
0.0
 10
155.883184
 20
406.089756
 30
0.0
 10
155.479307
 20
405.868810
 30
0.0
  0
SPLINE
  5
264
100
AcDbEntity
  8
Layer_1
 62
7
100
AcDbSpline
 70
8
 71
3
 72
8
 73
4
 74
0
 40
0
 40
0
 40
0
 40
0
 40
1
 40
1
 40
1
 40
1
 10
155.479307
 20
405.868810
 30
0.0
 10
155.915428
 20
405.658568
 30
0.0
 10
156.220140
 20
405.221211
 30
0.0
 10
156.220140
 20
404.704643
 30
0.0
  0
SPLINE
  5
265
100
AcDbEntity
  8
Layer_1
 62
7
100
AcDbSpline
 70
8
 71
3
 72
8
 73
4
 74
0
 40
0
 40
0
 40
0
 40
0
 40
1
 40
1
 40
1
 40
1
 10
156.220140
 20
404.704643
 30
0.0
 10
156.220140
 20
403.985826
 30
0.0
 10
155.633680
 20
403.399365
 30
0.0
 10
154.914862
 20
403.399365
 30
0.0
  0
SPLINE
  5
266
100
AcDbEntity
  8
Layer_1
 62
7
100
AcDbSpline
 70
8
 71
3
 72
8
 73
4
 74
0
 40
0
 40
0
 40
0
 40
0
 40
1
 40
1
 40
1
 40
1
 10
154.914862
 20
403.399365
 30
0.0
 10
154.261876
 20
403.399365
 30
0.0
 10
153.729600
 20
403.883678
 30
0.0
 10
153.636043
 20
404.510615
 30
0.0
  0
LWPOLYLINE
  5
267
100
AcDbEntity
  8
Layer_1
 62
7
100
AcDbPolyline
 90
2
 70
1
 10
141.050696
 20
407.509226
 30
0.0
 10
153.653682
 20
407.509226
 30
0.0
  0
SPLINE
  5
268
100
AcDbEntity
  8
Layer_1
 62
7
100
AcDbSpline
 70
8
 71
3
 72
8
 73
4
 74
0
 40
0
 40
0
 40
0
 40
0
 40
1
 40
1
 40
1
 40
1
 10
141.200626
 20
404.510615
 30
0.0
 10
141.107070
 20
403.883678
 30
0.0
 10
140.574793
 20
403.399365
 30
0.0
 10
139.921807
 20
403.399365
 30
0.0
  0
SPLINE
  5
269
100
AcDbEntity
  8
Layer_1
 62
7
100
AcDbSpline
 70
8
 71
3
 72
8
 73
4
 74
0
 40
0
 40
0
 40
0
 40
0
 40
1
 40
1
 40
1
 40
1
 10
139.921807
 20
403.399365
 30
0.0
 10
139.202990
 20
403.399365
 30
0.0
 10
138.616529
 20
403.985826
 30
0.0
 10
138.616529
 20
404.704643
 30
0.0
  0
SPLINE
  5
26a
100
AcDbEntity
  8
Layer_1
 62
7
100
AcDbSpline
 70
8
 71
3
 72
8
 73
4
 74
0
 40
0
 40
0
 40
0
 40
0
 40
1
 40
1
 40
1
 40
1
 10
138.616529
 20
404.704643
 30
0.0
 10
138.616529
 20
405.197462
 30
0.0
 10
138.891749
 20
405.621405
 30
0.0
 10
139.295626
 20
405.842351
 30
0.0
  0
SPLINE
  5
26b
100
AcDbEntity
  8
Layer_1
 62
7
100
AcDbSpline
 70
8
 71
3
 72
8
 73
4
 74
0
 40
0
 40
0
 40
0
 40
0
 40
1
 40
1
 40
1
 40
1
 10
139.295626
 20
405.842351
 30
0.0
 10
138.859506
 20
406.052593
 30
0.0
 10
138.554793
 20
406.489950
 30
0.0
 10
138.554793
 20
407.006518
 30
0.0
  0
SPLINE
  5
26c
100
AcDbEntity
  8
Layer_1
 62
7
100
AcDbSpline
 70
8
 71
3
 72
8
 73
4
 74
0
 40
0
 40
0
 40
0
 40
0
 40
1
 40
1
 40
1
 40
1
 10
138.554793
 20
407.006518
 30
0.0
 10
138.554793
 20
407.725335
 30
0.0
 10
139.132434
 20
408.311796
 30
0.0
 10
139.851251
 20
408.311796
 30
0.0
  0
LWPOLYLINE
  5
26d
100
AcDbEntity
  8
Layer_1
 62
7
100
AcDbPolyline
 90
2
 70
1
 10
153.636043
 20
404.510615
 30
0.0
 10
141.200626
 20
404.510615
 30
0.0
  0
SPLINE
  5
26e
100
AcDbEntity
  8
Layer_1
 62
7
100
AcDbSpline
 70
8
 71
3
 72
8
 73
4
 74
0
 40
0
 40
0
 40
0
 40
0
 40
1
 40
1
 40
1
 40
1
 10
169.528682
 20
408.311796
 30
0.0
 10
170.067797
 20
408.311796
 30
0.0
 10
170.530543
 20
407.976366
 30
0.0
 10
170.728126
 20
407.509226
 30
0.0
  0
LWPOLYLINE
  5
26f
100
AcDbEntity
  8
Layer_1
 62
7
100
AcDbPolyline
 90
2
 70
1
 10
139.851251
 20
408.311796
 30
0.0
 10
139.851251
 20
408.311796
 30
0.0
  0
SPLINE
  5
270
100
AcDbEntity
  8
Layer_1
 62
7
100
AcDbSpline
 70
8
 71
3
 72
8
 73
4
 74
0
 40
0
 40
0
 40
0
 40
0
 40
1
 40
1
 40
1
 40
1
 10
184.133682
 20
407.509226
 30
0.0
 10
184.331266
 20
407.976366
 30
0.0
 10
184.794011
 20
408.311796
 30
0.0
 10
185.333112
 20
408.311796
 30
0.0
  0
SPLINE
  5
271
100
AcDbEntity
  8
Layer_1
 62
7
100
AcDbSpline
 70
8
 71
3
 72
8
 73
4
 74
0
 40
0
 40
0
 40
0
 40
0
 40
1
 40
1
 40
1
 40
1
 10
185.333112
 20
408.311796
 30
0.0
 10
186.051989
 20
408.311796
 30
0.0
 10
186.638446
 20
407.725335
 30
0.0
 10
186.638390
 20
407.006518
 30
0.0
  0
SPLINE
  5
272
100
AcDbEntity
  8
Layer_1
 62
7
100
AcDbSpline
 70
8
 71
3
 72
8
 73
4
 74
0
 40
0
 40
0
 40
0
 40
0
 40
1
 40
1
 40
1
 40
1
 10
186.638390
 20
407.006518
 30
0.0
 10
186.638390
 20
406.513699
 30
0.0
 10
186.363195
 20
406.089756
 30
0.0
 10
185.959307
 20
405.868810
 30
0.0
  0
SPLINE
  5
273
100
AcDbEntity
  8
Layer_1
 62
7
100
AcDbSpline
 70
8
 71
3
 72
8
 73
4
 74
0
 40
0
 40
0
 40
0
 40
0
 40
1
 40
1
 40
1
 40
1
 10
185.959307
 20
405.868810
 30
0.0
 10
186.395425
 20
405.658568
 30
0.0
 10
186.700140
 20
405.221211
 30
0.0
 10
186.700140
 20
404.704643
 30
0.0
  0
SPLINE
  5
274
100
AcDbEntity
  8
Layer_1
 62
7
100
AcDbSpline
 70
8
 71
3
 72
8
 73
4
 74
0
 40
0
 40
0
 40
0
 40
0
 40
1
 40
1
 40
1
 40
1
 10
186.700140
 20
404.704643
 30
0.0
 10
186.700140
 20
403.985826
 30
0.0
 10
186.113682
 20
403.399365
 30
0.0
 10
185.394862
 20
403.399365
 30
0.0
  0
SPLINE
  5
275
100
AcDbEntity
  8
Layer_1
 62
7
100
AcDbSpline
 70
8
 71
3
 72
8
 73
4
 74
0
 40
0
 40
0
 40
0
 40
0
 40
1
 40
1
 40
1
 40
1
 10
185.394862
 20
403.399365
 30
0.0
 10
184.741885
 20
403.399365
 30
0.0
 10
184.209600
 20
403.883678
 30
0.0
 10
184.116043
 20
404.510615
 30
0.0
  0
LWPOLYLINE
  5
276
100
AcDbEntity
  8
Layer_1
 62
7
100
AcDbPolyline
 90
2
 70
1
 10
170.728126
 20
407.509226
 30
0.0
 10
184.133682
 20
407.509226
 30
0.0
  0
SPLINE
  5
277
100
AcDbEntity
  8
Layer_1
 62
7
100
AcDbSpline
 70
8
 71
3
 72
8
 73
4
 74
0
 40
0
 40
0
 40
0
 40
0
 40
1
 40
1
 40
1
 40
1
 10
170.878057
 20
404.510615
 30
0.0
 10
170.784500
 20
403.883678
 30
0.0
 10
170.243404
 20
403.399365
 30
0.0
 10
169.590418
 20
403.399365
 30
0.0
  0
SPLINE
  5
278
100
AcDbEntity
  8
Layer_1
 62
7
100
AcDbSpline
 70
8
 71
3
 72
8
 73
4
 74
0
 40
0
 40
0
 40
0
 40
0
 40
1
 40
1
 40
1
 40
1
 10
169.590418
 20
403.399365
 30
0.0
 10
168.871601
 20
403.399365
 30
0.0
 10
168.293960
 20
403.985826
 30
0.0
 10
168.293960
 20
404.704643
 30
0.0
  0
SPLINE
  5
279
100
AcDbEntity
  8
Layer_1
 62
7
100
AcDbSpline
 70
8
 71
3
 72
8
 73
4
 74
0
 40
0
 40
0
 40
0
 40
0
 40
1
 40
1
 40
1
 40
1
 10
168.293960
 20
404.704643
 30
0.0
 10
168.293960
 20
405.197462
 30
0.0
 10
168.569180
 20
405.621405
 30
0.0
 10
168.973057
 20
405.842351
 30
0.0
  0
SPLINE
  5
27a
100
AcDbEntity
  8
Layer_1
 62
7
100
AcDbSpline
 70
8
 71
3
 72
8
 73
4
 74
0
 40
0
 40
0
 40
0
 40
0
 40
1
 40
1
 40
1
 40
1
 10
168.973057
 20
405.842351
 30
0.0
 10
168.536936
 20
406.052593
 30
0.0
 10
168.232224
 20
406.489950
 30
0.0
 10
168.232224
 20
407.006518
 30
0.0
  0
SPLINE
  5
27b
100
AcDbEntity
  8
Layer_1
 62
7
100
AcDbSpline
 70
8
 71
3
 72
8
 73
4
 74
0
 40
0
 40
0
 40
0
 40
0
 40
1
 40
1
 40
1
 40
1
 10
168.232224
 20
407.006518
 30
0.0
 10
168.232224
 20
407.725335
 30
0.0
 10
168.809865
 20
408.311796
 30
0.0
 10
169.528682
 20
408.311796
 30
0.0
  0
LWPOLYLINE
  5
27c
100
AcDbEntity
  8
Layer_1
 62
7
100
AcDbPolyline
 90
2
 70
1
 10
184.116043
 20
404.510615
 30
0.0
 10
170.878057
 20
404.510615
 30
0.0
  0
LWPOLYLINE
  5
27d
100
AcDbEntity
  8
Layer_1
 62
7
100
AcDbPolyline
 90
2
 70
1
 10
169.528682
 20
408.311796
 30
0.0
 10
169.528682
 20
408.311796
 30
0.0
  0
SPLINE
  5
27e
100
AcDbEntity
  8
Layer_1
 62
7
100
AcDbSpline
 70
8
 71
3
 72
8
 73
4
 74
0
 40
0
 40
0
 40
0
 40
0
 40
1
 40
1
 40
1
 40
1
 10
100.216668
 20
405.930546
 30
0.0
 10
100.239810
 20
405.945391
 30
0.0
 10
100.263111
 20
405.961266
 30
0.0
 10
100.287224
 20
405.974643
 30
0.0
  0
SPLINE
  5
27f
100
AcDbEntity
  8
Layer_1
 62
7
100
AcDbSpline
 70
8
 71
3
 72
8
 73
4
 74
0
 40
0
 40
0
 40
0
 40
0
 40
1
 40
1
 40
1
 40
1
 10
100.287224
 20
405.974643
 30
0.0
 10
100.263235
 20
405.986412
 30
0.0
 10
100.239796
 20
405.996741
 30
0.0
 10
100.216668
 20
406.009921
 30
0.0
  0
LWPOLYLINE
  5
280
100
AcDbEntity
  8
Layer_1
 62
7
100
AcDbPolyline
 90
2
 70
1
 10
100.216668
 20
406.009921
 30
0.0
 10
100.216668
 20
405.930546
 30
0.0
  0
SPLINE
  5
281
100
AcDbEntity
  8
Layer_1
 62
7
100
AcDbSpline
 70
8
 71
3
 72
8
 73
4
 74
0
 40
0
 40
0
 40
0
 40
0
 40
1
 40
1
 40
1
 40
1
 10
170.216599
 20
405.904088
 30
0.0
 10
170.196589
 20
405.891670
 30
0.0
 10
170.175578
 20
405.880127
 30
0.0
 10
170.154862
 20
405.868810
 30
0.0
  0
SPLINE
  5
282
100
AcDbEntity
  8
Layer_1
 62
7
100
AcDbSpline
 70
8
 71
3
 72
8
 73
4
 74
0
 40
0
 40
0
 40
0
 40
0
 40
1
 40
1
 40
1
 40
1
 10
170.154862
 20
405.868810
 30
0.0
 10
170.176198
 20
405.858537
 30
0.0
 10
170.195940
 20
405.844934
 30
0.0
 10
170.216599
 20
405.833532
 30
0.0
  0
LWPOLYLINE
  5
283
100
AcDbEntity
  8
Layer_1
 62
7
100
AcDbPolyline
 90
2
 70
1
 10
100.216668
 20
406.009921
 30
0.0
 10
100.216668
 20
406.009921
 30
0.0
  0
LWPOLYLINE
  5
284
100
AcDbEntity
  8
Layer_1
 62
7
100
AcDbPolyline
 90
3
 70
1
 10
170.216599
 20
405.833532
 30
0.0
 10
170.216599
 20
405.904088
 30
0.0
 10
170.216599
 20
405.904088
 30
0.0
  0
SPLINE
  5
285
100
AcDbEntity
  8
Layer_1
 62
7
100
AcDbSpline
 70
8
 71
3
 72
8
 73
4
 74
0
 40
0
 40
0
 40
0
 40
0
 40
1
 40
1
 40
1
 40
1
 10
125.219793
 20
405.798268
 30
0.0
 10
125.245108
 20
405.814496
 30
0.0
 10
125.272713
 20
405.827893
 30
0.0
 10
125.299168
 20
405.842366
 30
0.0
  0
SPLINE
  5
286
100
AcDbEntity
  8
Layer_1
 62
7
100
AcDbSpline
 70
8
 71
3
 72
8
 73
4
 74
0
 40
0
 40
0
 40
0
 40
0
 40
1
 40
1
 40
1
 40
1
 10
125.299168
 20
405.842366
 30
0.0
 10
125.273204
 20
405.854896
 30
0.0
 10
125.244764
 20
405.863476
 30
0.0
 10
125.219793
 20
405.877643
 30
0.0
  0
LWPOLYLINE
  5
287
100
AcDbEntity
  8
Layer_1
 62
7
100
AcDbPolyline
 90
2
 70
1
 10
125.219793
 20
405.877643
 30
0.0
 10
125.219793
 20
405.798268
 30
0.0
  0
LWPOLYLINE
  5
288
100
AcDbEntity
  8
Layer_1
 62
7
100
AcDbPolyline
 90
2
 70
1
 10
125.219793
 20
405.877643
 30
0.0
 10
125.219793
 20
405.877643
 30
0.0
  0
SPLINE
  5
289
100
AcDbEntity
  8
Layer_1
 62
7
100
AcDbSpline
 70
8
 71
3
 72
8
 73
4
 74
0
 40
0
 40
0
 40
0
 40
0
 40
1
 40
1
 40
1
 40
1
 10
23.664584
 20
593.462844
 30
0.0
 10
23.553137
 20
592.857195
 30
0.0
 10
23.032445
 20
592.404510
 30
0.0
 10
22.394584
 20
592.404510
 30
0.0
  0
SPLINE
  5
28a
100
AcDbEntity
  8
Layer_1
 62
7
100
AcDbSpline
 70
8
 71
3
 72
8
 73
4
 74
0
 40
0
 40
0
 40
0
 40
0
 40
1
 40
1
 40
1
 40
1
 10
22.394584
 20
592.404510
 30
0.0
 10
21.756722
 20
592.404510
 30
0.0
 10
21.227211
 20
592.857195
 30
0.0
 10
21.115764
 20
593.462844
 30
0.0
  0
LWPOLYLINE
  5
28b
100
AcDbEntity
  8
Layer_1
 62
7
100
AcDbPolyline
 90
4
 70
1
 10
23.691042
 20
596.699566
 30
0.0
 10
23.691042
 20
593.700955
 30
0.0
 10
23.691042
 20
593.462844
 30
0.0
 10
23.664584
 20
593.462844
 30
0.0
  0
SPLINE
  5
28c
100
AcDbEntity
  8
Layer_1
 62
7
100
AcDbSpline
 70
8
 71
3
 72
8
 73
4
 74
0
 40
0
 40
0
 40
0
 40
0
 40
1
 40
1
 40
1
 40
1
 10
13.698611
 20
581.300816
 30
0.0
 10
14.417429
 20
581.300816
 30
0.0
 10
14.995070
 20
580.723192
 30
0.0
 10
14.995070
 20
580.004372
 30
0.0
  0
SPLINE
  5
28d
100
AcDbEntity
  8
Layer_1
 62
7
100
AcDbSpline
 70
8
 71
3
 72
8
 73
4
 74
0
 40
0
 40
0
 40
0
 40
0
 40
1
 40
1
 40
1
 40
1
 10
14.995070
 20
580.004372
 30
0.0
 10
14.995070
 20
579.285552
 30
0.0
 10
14.417429
 20
578.699088
 30
0.0
 10
13.698611
 20
578.699088
 30
0.0
  0
LWPOLYLINE
  5
28e
100
AcDbEntity
  8
Layer_1
 62
7
100
AcDbPolyline
 90
3
 70
1
 10
21.115764
 20
593.462844
 30
0.0
 10
13.698611
 20
593.462844
 30
0.0
 10
13.698611
 20
581.300816
 30
0.0
  0
SPLINE
  5
28f
100
AcDbEntity
  8
Layer_1
 62
7
100
AcDbSpline
 70
8
 71
3
 72
8
 73
4
 74
0
 40
0
 40
0
 40
0
 40
0
 40
1
 40
1
 40
1
 40
1
 10
13.698611
 20
558.705408
 30
0.0
 10
14.417429
 20
558.705408
 30
0.0
 10
14.995070
 20
558.118947
 30
0.0
 10
14.995070
 20
557.400130
 30
0.0
  0
SPLINE
  5
290
100
AcDbEntity
  8
Layer_1
 62
7
100
AcDbSpline
 70
8
 71
3
 72
8
 73
4
 74
0
 40
0
 40
0
 40
0
 40
0
 40
1
 40
1
 40
1
 40
1
 10
14.995070
 20
557.400130
 30
0.0
 10
14.995070
 20
556.681313
 30
0.0
 10
14.417429
 20
556.094852
 30
0.0
 10
13.698611
 20
556.094852
 30
0.0
  0
LWPOLYLINE
  5
291
100
AcDbEntity
  8
Layer_1
 62
7
100
AcDbPolyline
 90
4
 70
1
 10
13.698611
 20
578.699088
 30
0.0
 10
10.691181
 20
578.699088
 30
0.0
 10
10.691181
 20
558.705408
 30
0.0
 10
13.698611
 20
558.705408
 30
0.0
  0
SPLINE
  5
292
100
AcDbEntity
  8
Layer_1
 62
7
100
AcDbSpline
 70
8
 71
3
 72
8
 73
4
 74
0
 40
0
 40
0
 40
0
 40
0
 40
1
 40
1
 40
1
 40
1
 10
21.089306
 20
543.703533
 30
0.0
 10
21.089306
 20
544.422350
 30
0.0
 10
21.675766
 20
544.999991
 30
0.0
 10
22.394584
 20
544.999991
 30
0.0
  0
SPLINE
  5
293
100
AcDbEntity
  8
Layer_1
 62
7
100
AcDbSpline
 70
8
 71
3
 72
8
 73
4
 74
0
 40
0
 40
0
 40
0
 40
0
 40
1
 40
1
 40
1
 40
1
 10
22.394584
 20
544.999991
 30
0.0
 10
23.113401
 20
544.999991
 30
0.0
 10
23.691042
 20
544.422350
 30
0.0
 10
23.691042
 20
543.703533
 30
0.0
  0
LWPOLYLINE
  5
294
100
AcDbEntity
  8
Layer_1
 62
7
100
AcDbPolyline
 90
3
 70
1
 10
13.698611
 20
556.094852
 30
0.0
 10
13.698611
 20
543.703533
 30
0.0
 10
21.089306
 20
543.703533
 30
0.0
  0
SPLINE
  5
295
100
AcDbEntity
  8
Layer_1
 62
7
100
AcDbSpline
 70
8
 71
3
 72
8
 73
4
 74
0
 40
0
 40
0
 40
0
 40
0
 40
1
 40
1
 40
1
 40
1
 10
38.692918
 20
543.703533
 30
0.0
 10
38.692918
 20
544.422350
 30
0.0
 10
39.279378
 20
544.999991
 30
0.0
 10
39.998196
 20
544.999991
 30
0.0
  0
SPLINE
  5
296
100
AcDbEntity
  8
Layer_1
 62
7
100
AcDbSpline
 70
8
 71
3
 72
8
 73
4
 74
0
 40
0
 40
0
 40
0
 40
0
 40
1
 40
1
 40
1
 40
1
 10
39.998196
 20
544.999991
 30
0.0
 10
40.717013
 20
544.999991
 30
0.0
 10
41.294654
 20
544.422350
 30
0.0
 10
41.294654
 20
543.703533
 30
0.0
  0
LWPOLYLINE
  5
297
100
AcDbEntity
  8
Layer_1
 62
7
100
AcDbPolyline
 90
4
 70
1
 10
23.691042
 20
543.703533
 30
0.0
 10
23.691042
 20
540.704921
 30
0.0
 10
38.692918
 20
540.704921
 30
0.0
 10
38.692918
 20
543.703533
 30
0.0
  0
SPLINE
  5
298
100
AcDbEntity
  8
Layer_1
 62
7
100
AcDbSpline
 70
8
 71
3
 72
8
 73
4
 74
0
 40
0
 40
0
 40
0
 40
0
 40
1
 40
1
 40
1
 40
1
 10
51.093057
 20
543.703533
 30
0.0
 10
51.093057
 20
544.422350
 30
0.0
 10
51.670698
 20
544.999991
 30
0.0
 10
52.389515
 20
544.999991
 30
0.0
  0
SPLINE
  5
299
100
AcDbEntity
  8
Layer_1
 62
7
100
AcDbSpline
 70
8
 71
3
 72
8
 73
4
 74
0
 40
0
 40
0
 40
0
 40
0
 40
1
 40
1
 40
1
 40
1
 10
52.389515
 20
544.999991
 30
0.0
 10
53.108332
 20
544.999991
 30
0.0
 10
53.694793
 20
544.422350
 30
0.0
 10
53.694793
 20
543.703533
 30
0.0
  0
LWPOLYLINE
  5
29a
100
AcDbEntity
  8
Layer_1
 62
7
100
AcDbPolyline
 90
2
 70
1
 10
41.294654
 20
543.703533
 30
0.0
 10
51.093057
 20
543.703533
 30
0.0
  0
SPLINE
  5
29b
100
AcDbEntity
  8
Layer_1
 62
7
100
AcDbSpline
 70
8
 71
3
 72
8
 73
4
 74
0
 40
0
 40
0
 40
0
 40
0
 40
1
 40
1
 40
1
 40
1
 10
68.740765
 20
543.703533
 30
0.0
 10
68.740765
 20
544.422350
 30
0.0
 10
69.318406
 20
544.999991
 30
0.0
 10
70.037223
 20
544.999991
 30
0.0
  0
SPLINE
  5
29c
100
AcDbEntity
  8
Layer_1
 62
7
100
AcDbSpline
 70
8
 71
3
 72
8
 73
4
 74
0
 40
0
 40
0
 40
0
 40
0
 40
1
 40
1
 40
1
 40
1
 10
70.037223
 20
544.999991
 30
0.0
 10
70.756041
 20
544.999991
 30
0.0
 10
71.342501
 20
544.422350
 30
0.0
 10
71.342501
 20
543.703533
 30
0.0
  0
LWPOLYLINE
  5
29d
100
AcDbEntity
  8
Layer_1
 62
7
100
AcDbPolyline
 90
5
 70
1
 10
53.694793
 20
543.703533
 30
0.0
 10
53.694793
 20
540.704921
 30
0.0
 10
68.696668
 20
540.704921
 30
0.0
 10
68.696668
 20
543.703533
 30
0.0
 10
68.740765
 20
543.703533
 30
0.0
  0
SPLINE
  5
29e
100
AcDbEntity
  8
Layer_1
 62
7
100
AcDbSpline
 70
8
 71
3
 72
8
 73
4
 74
0
 40
0
 40
0
 40
0
 40
0
 40
1
 40
1
 40
1
 40
1
 10
80.858682
 20
543.703533
 30
0.0
 10
80.858682
 20
544.487698
 30
0.0
 10
81.494447
 20
545.123463
 30
0.0
 10
82.278612
 20
545.123463
 30
0.0
  0
SPLINE
  5
29f
100
AcDbEntity
  8
Layer_1
 62
7
100
AcDbSpline
 70
8
 71
3
 72
8
 73
4
 74
0
 40
0
 40
0
 40
0
 40
0
 40
1
 40
1
 40
1
 40
1
 10
82.278612
 20
545.123463
 30
0.0
 10
83.062778
 20
545.123463
 30
0.0
 10
83.698543
 20
544.487698
 30
0.0
 10
83.698543
 20
543.703533
 30
0.0
  0
LWPOLYLINE
  5
2a0
100
AcDbEntity
  8
Layer_1
 62
7
100
AcDbPolyline
 90
2
 70
1
 10
71.342501
 20
543.703533
 30
0.0
 10
80.858682
 20
543.703533
 30
0.0
  0
SPLINE
  5
2a1
100
AcDbEntity
  8
Layer_1
 62
7
100
AcDbSpline
 70
8
 71
3
 72
8
 73
4
 74
0
 40
0
 40
0
 40
0
 40
0
 40
1
 40
1
 40
1
 40
1
 10
98.691598
 20
543.403671
 30
0.0
 10
98.669162
 20
543.499398
 30
0.0
 10
98.656321
 20
543.600965
 30
0.0
 10
98.656321
 20
543.703533
 30
0.0
  0
SPLINE
  5
2a2
100
AcDbEntity
  8
Layer_1
 62
7
100
AcDbSpline
 70
8
 71
3
 72
8
 73
4
 74
0
 40
0
 40
0
 40
0
 40
0
 40
1
 40
1
 40
1
 40
1
 10
98.656321
 20
543.703533
 30
0.0
 10
98.656321
 20
544.422350
 30
0.0
 10
99.233962
 20
544.999991
 30
0.0
 10
99.952779
 20
544.999991
 30
0.0
  0
SPLINE
  5
2a3
100
AcDbEntity
  8
Layer_1
 62
7
100
AcDbSpline
 70
8
 71
3
 72
8
 73
4
 74
0
 40
0
 40
0
 40
0
 40
0
 40
1
 40
1
 40
1
 40
1
 10
99.952779
 20
544.999991
 30
0.0
 10
100.671596
 20
544.999991
 30
0.0
 10
101.258057
 20
544.422350
 30
0.0
 10
101.258057
 20
543.703533
 30
0.0
  0
LWPOLYLINE
  5
2a4
100
AcDbEntity
  8
Layer_1
 62
7
100
AcDbPolyline
 90
4
 70
1
 10
83.698543
 20
543.703533
 30
0.0
 10
83.698543
 20
540.704921
 30
0.0
 10
98.691598
 20
540.704921
 30
0.0
 10
98.691598
 20
543.403671
 30
0.0
  0
SPLINE
  5
2a5
100
AcDbEntity
  8
Layer_1
 62
7
100
AcDbSpline
 70
8
 71
3
 72
8
 73
4
 74
0
 40
0
 40
0
 40
0
 40
0
 40
1
 40
1
 40
1
 40
1
 10
106.091112
 20
543.703533
 30
0.0
 10
106.091112
 20
544.422350
 30
0.0
 10
106.677573
 20
544.999991
 30
0.0
 10
107.396390
 20
544.999991
 30
0.0
  0
SPLINE
  5
2a6
100
AcDbEntity
  8
Layer_1
 62
7
100
AcDbSpline
 70
8
 71
3
 72
8
 73
4
 74
0
 40
0
 40
0
 40
0
 40
0
 40
1
 40
1
 40
1
 40
1
 10
107.396390
 20
544.999991
 30
0.0
 10
108.115207
 20
544.999991
 30
0.0
 10
108.692848
 20
544.422350
 30
0.0
 10
108.692848
 20
543.703533
 30
0.0
  0
LWPOLYLINE
  5
2a7
100
AcDbEntity
  8
Layer_1
 62
7
100
AcDbPolyline
 90
2
 70
1
 10
101.258057
 20
543.703533
 30
0.0
 10
106.091112
 20
543.703533
 30
0.0
  0
SPLINE
  5
2a8
100
AcDbEntity
  8
Layer_1
 62
7
100
AcDbSpline
 70
8
 71
3
 72
8
 73
4
 74
0
 40
0
 40
0
 40
0
 40
0
 40
1
 40
1
 40
1
 40
1
 10
123.694723
 20
543.703533
 30
0.0
 10
123.694723
 20
544.422350
 30
0.0
 10
124.281184
 20
544.999991
 30
0.0
 10
125.000001
 20
544.999991
 30
0.0
  0
SPLINE
  5
2a9
100
AcDbEntity
  8
Layer_1
 62
7
100
AcDbSpline
 70
8
 71
3
 72
8
 73
4
 74
0
 40
0
 40
0
 40
0
 40
0
 40
1
 40
1
 40
1
 40
1
 10
125.000001
 20
544.999991
 30
0.0
 10
125.718818
 20
544.999991
 30
0.0
 10
126.296460
 20
544.422350
 30
0.0
 10
126.296460
 20
543.703533
 30
0.0
  0
LWPOLYLINE
  5
2aa
100
AcDbEntity
  8
Layer_1
 62
7
100
AcDbPolyline
 90
4
 70
1
 10
108.692848
 20
543.703533
 30
0.0
 10
108.692848
 20
540.704921
 30
0.0
 10
123.694723
 20
540.704921
 30
0.0
 10
123.694723
 20
543.703533
 30
0.0
  0
SPLINE
  5
2ab
100
AcDbEntity
  8
Layer_1
 62
7
100
AcDbSpline
 70
8
 71
3
 72
8
 73
4
 74
0
 40
0
 40
0
 40
0
 40
0
 40
1
 40
1
 40
1
 40
1
 10
136.094862
 20
543.703533
 30
0.0
 10
136.094862
 20
544.422350
 30
0.0
 10
136.672503
 20
544.999991
 30
0.0
 10
137.391321
 20
544.999991
 30
0.0
  0
SPLINE
  5
2ac
100
AcDbEntity
  8
Layer_1
 62
7
100
AcDbSpline
 70
8
 71
3
 72
8
 73
4
 74
0
 40
0
 40
0
 40
0
 40
0
 40
1
 40
1
 40
1
 40
1
 10
137.391321
 20
544.999991
 30
0.0
 10
138.110138
 20
544.999991
 30
0.0
 10
138.696598
 20
544.422350
 30
0.0
 10
138.696598
 20
543.703533
 30
0.0
  0
LWPOLYLINE
  5
2ad
100
AcDbEntity
  8
Layer_1
 62
7
100
AcDbPolyline
 90
2
 70
1
 10
126.296460
 20
543.703533
 30
0.0
 10
136.094862
 20
543.703533
 30
0.0
  0
SPLINE
  5
2ae
100
AcDbEntity
  8
Layer_1
 62
7
100
AcDbSpline
 70
8
 71
3
 72
8
 73
4
 74
0
 40
0
 40
0
 40
0
 40
0
 40
1
 40
1
 40
1
 40
1
 10
153.698473
 20
543.703533
 30
0.0
 10
153.698473
 20
544.422350
 30
0.0
 10
154.276115
 20
544.999991
 30
0.0
 10
154.994932
 20
544.999991
 30
0.0
  0
SPLINE
  5
2af
100
AcDbEntity
  8
Layer_1
 62
7
100
AcDbSpline
 70
8
 71
3
 72
8
 73
4
 74
0
 40
0
 40
0
 40
0
 40
0
 40
1
 40
1
 40
1
 40
1
 10
154.994932
 20
544.999991
 30
0.0
 10
155.713749
 20
544.999991
 30
0.0
 10
156.300210
 20
544.422350
 30
0.0
 10
156.300210
 20
543.703533
 30
0.0
  0
LWPOLYLINE
  5
2b0
100
AcDbEntity
  8
Layer_1
 62
7
100
AcDbPolyline
 90
4
 70
1
 10
138.696598
 20
543.703533
 30
0.0
 10
138.696598
 20
540.704921
 30
0.0
 10
153.698473
 20
540.704921
 30
0.0
 10
153.698473
 20
543.703533
 30
0.0
  0
SPLINE
  5
2b1
100
AcDbEntity
  8
Layer_1
 62
7
100
AcDbSpline
 70
8
 71
3
 72
8
 73
4
 74
0
 40
0
 40
0
 40
0
 40
0
 40
1
 40
1
 40
1
 40
1
 10
166.089793
 20
543.703533
 30
0.0
 10
166.089793
 20
544.422350
 30
0.0
 10
166.676253
 20
544.999991
 30
0.0
 10
167.395071
 20
544.999991
 30
0.0
  0
SPLINE
  5
2b2
100
AcDbEntity
  8
Layer_1
 62
7
100
AcDbSpline
 70
8
 71
3
 72
8
 73
4
 74
0
 40
0
 40
0
 40
0
 40
0
 40
1
 40
1
 40
1
 40
1
 10
167.395071
 20
544.999991
 30
0.0
 10
168.113888
 20
544.999991
 30
0.0
 10
168.691529
 20
544.422350
 30
0.0
 10
168.691529
 20
543.703533
 30
0.0
  0
LWPOLYLINE
  5
2b3
100
AcDbEntity
  8
Layer_1
 62
7
100
AcDbPolyline
 90
2
 70
1
 10
156.300210
 20
543.703533
 30
0.0
 10
166.089793
 20
543.703533
 30
0.0
  0
SPLINE
  5
2b4
100
AcDbEntity
  8
Layer_1
 62
7
100
AcDbSpline
 70
8
 71
3
 72
8
 73
4
 74
0
 40
0
 40
0
 40
0
 40
0
 40
1
 40
1
 40
1
 40
1
 10
183.693404
 20
543.703533
 30
0.0
 10
183.693404
 20
544.422350
 30
0.0
 10
184.279862
 20
544.999991
 30
0.0
 10
184.998682
 20
544.999991
 30
0.0
  0
SPLINE
  5
2b5
100
AcDbEntity
  8
Layer_1
 62
7
100
AcDbSpline
 70
8
 71
3
 72
8
 73
4
 74
0
 40
0
 40
0
 40
0
 40
0
 40
1
 40
1
 40
1
 40
1
 10
184.998682
 20
544.999991
 30
0.0
 10
185.717502
 20
544.999991
 30
0.0
 10
186.295098
 20
544.422350
 30
0.0
 10
186.295154
 20
543.703533
 30
0.0
  0
LWPOLYLINE
  5
2b6
100
AcDbEntity
  8
Layer_1
 62
7
100
AcDbPolyline
 90
4
 70
1
 10
168.691529
 20
543.703533
 30
0.0
 10
168.691529
 20
540.704921
 30
0.0
 10
183.693404
 20
540.704921
 30
0.0
 10
183.693404
 20
543.703533
 30
0.0
  0
SPLINE
  5
2b7
100
AcDbEntity
  8
Layer_1
 62
7
100
AcDbSpline
 70
8
 71
3
 72
8
 73
4
 74
0
 40
0
 40
0
 40
0
 40
0
 40
1
 40
1
 40
1
 40
1
 10
193.456543
 20
556.121310
 30
0.0
 10
192.850527
 20
556.232757
 30
0.0
 10
192.389376
 20
556.762268
 30
0.0
 10
192.389376
 20
557.400130
 30
0.0
  0
SPLINE
  5
2b8
100
AcDbEntity
  8
Layer_1
 62
7
100
AcDbSpline
 70
8
 71
3
 72
8
 73
4
 74
0
 40
0
 40
0
 40
0
 40
0
 40
1
 40
1
 40
1
 40
1
 10
192.389376
 20
557.400130
 30
0.0
 10
192.389376
 20
558.037992
 30
0.0
 10
192.850810
 20
558.567503
 30
0.0
 10
193.456543
 20
558.678949
 30
0.0
  0
LWPOLYLINE
  5
2b9
100
AcDbEntity
  8
Layer_1
 62
7
100
AcDbPolyline
 90
3
 70
1
 10
186.295154
 20
543.703533
 30
0.0
 10
193.456543
 20
543.703533
 30
0.0
 10
193.456543
 20
556.121310
 30
0.0
  0
SPLINE
  5
2ba
100
AcDbEntity
  8
Layer_1
 62
7
100
AcDbSpline
 70
8
 71
3
 72
8
 73
4
 74
0
 40
0
 40
0
 40
0
 40
0
 40
1
 40
1
 40
1
 40
1
 10
193.456543
 20
578.725518
 30
0.0
 10
192.850499
 20
578.836965
 30
0.0
 10
192.389376
 20
579.366465
 30
0.0
 10
192.389376
 20
580.004343
 30
0.0
  0
SPLINE
  5
2bb
100
AcDbEntity
  8
Layer_1
 62
7
100
AcDbSpline
 70
8
 71
3
 72
8
 73
4
 74
0
 40
0
 40
0
 40
0
 40
0
 40
1
 40
1
 40
1
 40
1
 10
192.389376
 20
580.004343
 30
0.0
 10
192.389376
 20
580.642194
 30
0.0
 10
192.850810
 20
581.162894
 30
0.0
 10
193.456543
 20
581.274343
 30
0.0
  0
LWPOLYLINE
  5
2bc
100
AcDbEntity
  8
Layer_1
 62
7
100
AcDbPolyline
 90
8
 70
1
 10
193.456543
 20
558.678949
 30
0.0
 10
193.456543
 20
558.705393
 30
0.0
 10
193.694654
 20
558.705393
 30
0.0
 10
196.693265
 20
558.705393
 30
0.0
 10
196.693265
 20
578.699074
 30
0.0
 10
193.694654
 20
578.699074
 30
0.0
 10
193.456543
 20
578.699074
 30
0.0
 10
193.456543
 20
578.725518
 30
0.0
  0
SPLINE
  5
2bd
100
AcDbEntity
  8
Layer_1
 62
7
100
AcDbSpline
 70
8
 71
3
 72
8
 73
4
 74
0
 40
0
 40
0
 40
0
 40
0
 40
1
 40
1
 40
1
 40
1
 10
186.268682
 20
593.462816
 30
0.0
 10
186.157232
 20
592.857167
 30
0.0
 10
185.636532
 20
592.404482
 30
0.0
 10
184.998682
 20
592.404482
 30
0.0
  0
SPLINE
  5
2be
100
AcDbEntity
  8
Layer_1
 62
7
100
AcDbSpline
 70
8
 71
3
 72
8
 73
4
 74
0
 40
0
 40
0
 40
0
 40
0
 40
1
 40
1
 40
1
 40
1
 10
184.998682
 20
592.404482
 30
0.0
 10
184.360831
 20
592.404482
 30
0.0
 10
183.831298
 20
592.857167
 30
0.0
 10
183.719876
 20
593.462816
 30
0.0
  0
LWPOLYLINE
  5
2bf
100
AcDbEntity
  8
Layer_1
 62
7
100
AcDbPolyline
 90
3
 70
1
 10
193.456543
 20
581.274343
 30
0.0
 10
193.456543
 20
593.462816
 30
0.0
 10
186.268682
 20
593.462816
 30
0.0
  0
SPLINE
  5
2c0
100
AcDbEntity
  8
Layer_1
 62
7
100
AcDbSpline
 70
8
 71
3
 72
8
 73
4
 74
0
 40
0
 40
0
 40
0
 40
0
 40
1
 40
1
 40
1
 40
1
 10
168.665085
 20
593.462816
 30
0.0
 10
168.553638
 20
592.857167
 30
0.0
 10
168.032946
 20
592.404482
 30
0.0
 10
167.395085
 20
592.404482
 30
0.0
  0
SPLINE
  5
2c1
100
AcDbEntity
  8
Layer_1
 62
7
100
AcDbSpline
 70
8
 71
3
 72
8
 73
4
 74
0
 40
0
 40
0
 40
0
 40
0
 40
1
 40
1
 40
1
 40
1
 10
167.395085
 20
592.404482
 30
0.0
 10
166.757223
 20
592.404482
 30
0.0
 10
166.227712
 20
592.857167
 30
0.0
 10
166.116265
 20
593.462816
 30
0.0
  0
LWPOLYLINE
  5
2c2
100
AcDbEntity
  8
Layer_1
 62
7
100
AcDbPolyline
 90
8
 70
1
 10
183.719876
 20
593.462816
 30
0.0
 10
183.693404
 20
593.462816
 30
0.0
 10
183.693404
 20
593.700926
 30
0.0
 10
183.693404
 20
596.699538
 30
0.0
 10
168.691529
 20
596.699538
 30
0.0
 10
168.691529
 20
593.700926
 30
0.0
 10
168.691529
 20
593.462816
 30
0.0
 10
168.665085
 20
593.462816
 30
0.0
  0
SPLINE
  5
2c3
100
AcDbEntity
  8
Layer_1
 62
7
100
AcDbSpline
 70
8
 71
3
 72
8
 73
4
 74
0
 40
0
 40
0
 40
0
 40
0
 40
1
 40
1
 40
1
 40
1
 10
156.273765
 20
593.462816
 30
0.0
 10
156.162319
 20
592.857167
 30
0.0
 10
155.632808
 20
592.404482
 30
0.0
 10
154.994946
 20
592.404482
 30
0.0
  0
SPLINE
  5
2c4
100
AcDbEntity
  8
Layer_1
 62
7
100
AcDbSpline
 70
8
 71
3
 72
8
 73
4
 74
0
 40
0
 40
0
 40
0
 40
0
 40
1
 40
1
 40
1
 40
1
 10
154.994946
 20
592.404482
 30
0.0
 10
154.357084
 20
592.404482
 30
0.0
 10
153.836393
 20
592.857167
 30
0.0
 10
153.724946
 20
593.462816
 30
0.0
  0
LWPOLYLINE
  5
2c5
100
AcDbEntity
  8
Layer_1
 62
7
100
AcDbPolyline
 90
2
 70
1
 10
166.116265
 20
593.462816
 30
0.0
 10
156.273765
 20
593.462816
 30
0.0
  0
SPLINE
  5
2c6
100
AcDbEntity
  8
Layer_1
 62
7
100
AcDbSpline
 70
8
 71
3
 72
8
 73
4
 74
0
 40
0
 40
0
 40
0
 40
0
 40
1
 40
1
 40
1
 40
1
 10
138.670182
 20
593.462816
 30
0.0
 10
138.558736
 20
592.857167
 30
0.0
 10
138.029225
 20
592.404482
 30
0.0
 10
137.391363
 20
592.404482
 30
0.0
  0
SPLINE
  5
2c7
100
AcDbEntity
  8
Layer_1
 62
7
100
AcDbSpline
 70
8
 71
3
 72
8
 73
4
 74
0
 40
0
 40
0
 40
0
 40
0
 40
1
 40
1
 40
1
 40
1
 10
137.391363
 20
592.404482
 30
0.0
 10
136.753501
 20
592.404482
 30
0.0
 10
136.232810
 20
592.857167
 30
0.0
 10
136.121363
 20
593.462816
 30
0.0
  0
LWPOLYLINE
  5
2c8
100
AcDbEntity
  8
Layer_1
 62
7
100
AcDbPolyline
 90
8
 70
1
 10
153.724946
 20
593.462816
 30
0.0
 10
153.698502
 20
593.462816
 30
0.0
 10
153.698502
 20
593.700926
 30
0.0
 10
153.698502
 20
596.699538
 30
0.0
 10
138.696627
 20
596.699538
 30
0.0
 10
138.696627
 20
593.700926
 30
0.0
 10
138.696627
 20
593.462816
 30
0.0
 10
138.670182
 20
593.462816
 30
0.0
  0
SPLINE
  5
2c9
100
AcDbEntity
  8
Layer_1
 62
7
100
AcDbSpline
 70
8
 71
3
 72
8
 73
4
 74
0
 40
0
 40
0
 40
0
 40
0
 40
1
 40
1
 40
1
 40
1
 10
126.270044
 20
593.462816
 30
0.0
 10
126.158597
 20
592.857167
 30
0.0
 10
125.637905
 20
592.404482
 30
0.0
 10
125.000044
 20
592.404482
 30
0.0
  0
SPLINE
  5
2ca
100
AcDbEntity
  8
Layer_1
 62
7
100
AcDbSpline
 70
8
 71
3
 72
8
 73
4
 74
0
 40
0
 40
0
 40
0
 40
0
 40
1
 40
1
 40
1
 40
1
 10
125.000044
 20
592.404482
 30
0.0
 10
124.362182
 20
592.404482
 30
0.0
 10
123.832671
 20
592.857167
 30
0.0
 10
123.721224
 20
593.462816
 30
0.0
  0
LWPOLYLINE
  5
2cb
100
AcDbEntity
  8
Layer_1
 62
7
100
AcDbPolyline
 90
2
 70
1
 10
136.121363
 20
593.462816
 30
0.0
 10
126.270044
 20
593.462816
 30
0.0
  0
SPLINE
  5
2cc
100
AcDbEntity
  8
Layer_1
 62
7
100
AcDbSpline
 70
8
 71
3
 72
8
 73
4
 74
0
 40
0
 40
0
 40
0
 40
0
 40
1
 40
1
 40
1
 40
1
 10
108.666461
 20
593.462816
 30
0.0
 10
108.555014
 20
592.857167
 30
0.0
 10
108.034322
 20
592.404482
 30
0.0
 10
107.396461
 20
592.404482
 30
0.0
  0
SPLINE
  5
2cd
100
AcDbEntity
  8
Layer_1
 62
7
100
AcDbSpline
 70
8
 71
3
 72
8
 73
4
 74
0
 40
0
 40
0
 40
0
 40
0
 40
1
 40
1
 40
1
 40
1
 10
107.396461
 20
592.404482
 30
0.0
 10
106.758599
 20
592.404482
 30
0.0
 10
106.229088
 20
592.857167
 30
0.0
 10
106.117641
 20
593.462816
 30
0.0
  0
LWPOLYLINE
  5
2ce
100
AcDbEntity
  8
Layer_1
 62
7
100
AcDbPolyline
 90
8
 70
1
 10
123.721224
 20
593.462816
 30
0.0
 10
123.694780
 20
593.462816
 30
0.0
 10
123.694780
 20
593.700926
 30
0.0
 10
123.694780
 20
596.699538
 30
0.0
 10
108.692905
 20
596.699538
 30
0.0
 10
108.692905
 20
593.700926
 30
0.0
 10
108.692905
 20
593.462816
 30
0.0
 10
108.666461
 20
593.462816
 30
0.0
  0
SPLINE
  5
2cf
100
AcDbEntity
  8
Layer_1
 62
7
100
AcDbSpline
 70
8
 71
3
 72
8
 73
4
 74
0
 40
0
 40
0
 40
0
 40
0
 40
1
 40
1
 40
1
 40
1
 10
101.275766
 20
593.462816
 30
0.0
 10
101.164319
 20
592.857167
 30
0.0
 10
100.634808
 20
592.404482
 30
0.0
 10
99.996947
 20
592.404482
 30
0.0
  0
SPLINE
  5
2d0
100
AcDbEntity
  8
Layer_1
 62
7
100
AcDbSpline
 70
8
 71
3
 72
8
 73
4
 74
0
 40
0
 40
0
 40
0
 40
0
 40
1
 40
1
 40
1
 40
1
 10
99.996947
 20
592.404482
 30
0.0
 10
99.359085
 20
592.404482
 30
0.0
 10
98.829574
 20
592.857167
 30
0.0
 10
98.718127
 20
593.462816
 30
0.0
  0
LWPOLYLINE
  5
2d1
100
AcDbEntity
  8
Layer_1
 62
7
100
AcDbPolyline
 90
2
 70
1
 10
106.117641
 20
593.462816
 30
0.0
 10
101.275766
 20
593.462816
 30
0.0
  0
SPLINE
  5
2d2
100
AcDbEntity
  8
Layer_1
 62
7
100
AcDbSpline
 70
8
 71
3
 72
8
 73
4
 74
0
 40
0
 40
0
 40
0
 40
0
 40
1
 40
1
 40
1
 40
1
 10
83.672183
 20
593.462816
 30
0.0
 10
83.560737
 20
592.857167
 30
0.0
 10
83.031226
 20
592.404482
 30
0.0
 10
82.393364
 20
592.404482
 30
0.0
  0
SPLINE
  5
2d3
100
AcDbEntity
  8
Layer_1
 62
7
100
AcDbSpline
 70
8
 71
3
 72
8
 73
4
 74
0
 40
0
 40
0
 40
0
 40
0
 40
1
 40
1
 40
1
 40
1
 10
82.393364
 20
592.404482
 30
0.0
 10
81.755502
 20
592.404482
 30
0.0
 10
81.225991
 20
592.857167
 30
0.0
 10
81.114544
 20
593.462816
 30
0.0
  0
LWPOLYLINE
  5
2d4
100
AcDbEntity
  8
Layer_1
 62
7
100
AcDbPolyline
 90
8
 70
1
 10
98.718127
 20
593.462816
 30
0.0
 10
98.691683
 20
593.462816
 30
0.0
 10
98.691683
 20
593.700926
 30
0.0
 10
98.691683
 20
596.699538
 30
0.0
 10
83.698628
 20
596.699538
 30
0.0
 10
83.698628
 20
593.700926
 30
0.0
 10
83.698628
 20
593.462816
 30
0.0
 10
83.672183
 20
593.462816
 30
0.0
  0
SPLINE
  5
2d5
100
AcDbEntity
  8
Layer_1
 62
7
100
AcDbSpline
 70
8
 71
3
 72
8
 73
4
 74
0
 40
0
 40
0
 40
0
 40
0
 40
1
 40
1
 40
1
 40
1
 10
71.272044
 20
593.462816
 30
0.0
 10
71.160598
 20
592.857167
 30
0.0
 10
70.631087
 20
592.404482
 30
0.0
 10
69.993225
 20
592.404482
 30
0.0
  0
SPLINE
  5
2d6
100
AcDbEntity
  8
Layer_1
 62
7
100
AcDbSpline
 70
8
 71
3
 72
8
 73
4
 74
0
 40
0
 40
0
 40
0
 40
0
 40
1
 40
1
 40
1
 40
1
 10
69.993225
 20
592.404482
 30
0.0
 10
69.355363
 20
592.404482
 30
0.0
 10
68.834672
 20
592.857167
 30
0.0
 10
68.723225
 20
593.462816
 30
0.0
  0
LWPOLYLINE
  5
2d7
100
AcDbEntity
  8
Layer_1
 62
7
100
AcDbPolyline
 90
2
 70
1
 10
81.114544
 20
593.462816
 30
0.0
 10
71.272044
 20
593.462816
 30
0.0
  0
SPLINE
  5
2d8
100
AcDbEntity
  8
Layer_1
 62
7
100
AcDbSpline
 70
8
 71
3
 72
8
 73
4
 74
0
 40
0
 40
0
 40
0
 40
0
 40
1
 40
1
 40
1
 40
1
 10
53.668462
 20
593.462816
 30
0.0
 10
53.557015
 20
592.857167
 30
0.0
 10
53.027504
 20
592.404482
 30
0.0
 10
52.389642
 20
592.404482
 30
0.0
  0
SPLINE
  5
2d9
100
AcDbEntity
  8
Layer_1
 62
7
100
AcDbSpline
 70
8
 71
3
 72
8
 73
4
 74
0
 40
0
 40
0
 40
0
 40
0
 40
1
 40
1
 40
1
 40
1
 10
52.389642
 20
592.404482
 30
0.0
 10
51.751780
 20
592.404482
 30
0.0
 10
51.231089
 20
592.857167
 30
0.0
 10
51.119642
 20
593.462816
 30
0.0
  0
LWPOLYLINE
  5
2da
100
AcDbEntity
  8
Layer_1
 62
7
100
AcDbPolyline
 90
8
 70
1
 10
68.723225
 20
593.462816
 30
0.0
 10
68.696781
 20
593.462816
 30
0.0
 10
68.696781
 20
593.700926
 30
0.0
 10
68.696781
 20
596.699538
 30
0.0
 10
53.694906
 20
596.699538
 30
0.0
 10
53.694906
 20
593.700926
 30
0.0
 10
53.694906
 20
593.462816
 30
0.0
 10
53.668462
 20
593.462816
 30
0.0
  0
SPLINE
  5
2db
100
AcDbEntity
  8
Layer_1
 62
7
100
AcDbSpline
 70
8
 71
3
 72
8
 73
4
 74
0
 40
0
 40
0
 40
0
 40
0
 40
1
 40
1
 40
1
 40
1
 10
41.268323
 20
593.462816
 30
0.0
 10
41.156876
 20
592.857167
 30
0.0
 10
40.636184
 20
592.404482
 30
0.0
 10
39.998323
 20
592.404482
 30
0.0
  0
SPLINE
  5
2dc
100
AcDbEntity
  8
Layer_1
 62
7
100
AcDbSpline
 70
8
 71
3
 72
8
 73
4
 74
0
 40
0
 40
0
 40
0
 40
0
 40
1
 40
1
 40
1
 40
1
 10
39.998323
 20
592.404482
 30
0.0
 10
39.360461
 20
592.404482
 30
0.0
 10
38.830950
 20
592.857167
 30
0.0
 10
38.719503
 20
593.462816
 30
0.0
  0
LWPOLYLINE
  5
2dd
100
AcDbEntity
  8
Layer_1
 62
7
100
AcDbPolyline
 90
2
 70
1
 10
51.119642
 20
593.462816
 30
0.0
 10
41.268323
 20
593.462816
 30
0.0
  0
LWPOLYLINE
  5
2de
100
AcDbEntity
  8
Layer_1
 62
7
100
AcDbPolyline
 90
6
 70
1
 10
38.719503
 20
593.462816
 30
0.0
 10
38.693059
 20
593.462816
 30
0.0
 10
38.693059
 20
593.700926
 30
0.0
 10
38.693059
 20
596.699538
 30
0.0
 10
23.691183
 20
596.699538
 30
0.0
 10
23.691042
 20
596.699566
 30
0.0
  0
SPLINE
  5
2df
100
AcDbEntity
  8
Layer_1
 62
7
100
AcDbSpline
 70
8
 71
3
 72
8
 73
4
 74
0
 40
0
 40
0
 40
0
 40
0
 40
1
 40
1
 40
1
 40
1
 10
211.486112
 20
583.888116
 30
0.0
 10
212.118883
 20
583.799357
 30
0.0
 10
212.606196
 20
583.266183
 30
0.0
 10
212.606196
 20
582.609311
 30
0.0
  0
SPLINE
  5
2e0
100
AcDbEntity
  8
Layer_1
 62
7
100
AcDbSpline
 70
8
 71
3
 72
8
 73
4
 74
0
 40
0
 40
0
 40
0
 40
0
 40
1
 40
1
 40
1
 40
1
 10
212.606196
 20
582.609311
 30
0.0
 10
212.606196
 20
581.952439
 30
0.0
 10
212.118629
 20
581.410403
 30
0.0
 10
211.486112
 20
581.321672
 30
0.0
  0
LWPOLYLINE
  5
2e1
100
AcDbEntity
  8
Layer_1
 62
7
100
AcDbPolyline
 90
4
 70
1
 10
211.486112
 20
594.303894
 30
0.0
 10
211.486112
 20
591.305283
 30
0.0
 10
211.486112
 20
586.304644
 30
0.0
 10
211.486112
 20
583.888116
 30
0.0
  0
SPLINE
  5
2e2
100
AcDbEntity
  8
Layer_1
 62
7
100
AcDbSpline
 70
8
 71
3
 72
8
 73
4
 74
0
 40
0
 40
0
 40
0
 40
0
 40
1
 40
1
 40
1
 40
1
 10
211.486112
 20
566.284646
 30
0.0
 10
212.118854
 20
566.195899
 30
0.0
 10
212.606196
 20
565.662699
 30
0.0
 10
212.606196
 20
565.005827
 30
0.0
  0
SPLINE
  5
2e3
100
AcDbEntity
  8
Layer_1
 62
7
100
AcDbSpline
 70
8
 71
3
 72
8
 73
4
 74
0
 40
0
 40
0
 40
0
 40
0
 40
1
 40
1
 40
1
 40
1
 10
212.606196
 20
565.005827
 30
0.0
 10
212.606196
 20
564.348955
 30
0.0
 10
212.118629
 20
563.806935
 30
0.0
 10
211.486112
 20
563.718188
 30
0.0
  0
LWPOLYLINE
  5
2e4
100
AcDbEntity
  8
Layer_1
 62
7
100
AcDbPolyline
 90
8
 70
1
 10
211.486112
 20
581.321672
 30
0.0
 10
211.486112
 20
581.304174
 30
0.0
 10
211.309723
 20
581.304174
 30
0.0
 10
208.487501
 20
581.304174
 30
0.0
 10
208.487501
 20
566.302285
 30
0.0
 10
211.309723
 20
566.302285
 30
0.0
 10
211.486112
 20
566.302285
 30
0.0
 10
211.486112
 20
566.284646
 30
0.0
  0
SPLINE
  5
2e5
100
AcDbEntity
  8
Layer_1
 62
7
100
AcDbSpline
 70
8
 71
3
 72
8
 73
4
 74
0
 40
0
 40
0
 40
0
 40
0
 40
1
 40
1
 40
1
 40
1
 10
211.486112
 20
553.893327
 30
0.0
 10
212.118826
 20
553.804579
 30
0.0
 10
212.606196
 20
553.262560
 30
0.0
 10
212.606196
 20
552.605688
 30
0.0
  0
SPLINE
  5
2e6
100
AcDbEntity
  8
Layer_1
 62
7
100
AcDbSpline
 70
8
 71
3
 72
8
 73
4
 74
0
 40
0
 40
0
 40
0
 40
0
 40
1
 40
1
 40
1
 40
1
 10
212.606196
 20
552.605688
 30
0.0
 10
212.606196
 20
551.948816
 30
0.0
 10
212.118629
 20
551.415616
 30
0.0
 10
211.486112
 20
551.326868
 30
0.0
  0
LWPOLYLINE
  5
2e7
100
AcDbEntity
  8
Layer_1
 62
7
100
AcDbPolyline
 90
2
 70
1
 10
211.486112
 20
563.718188
 30
0.0
 10
211.486112
 20
553.893327
 30
0.0
  0
SPLINE
  5
2e8
100
AcDbEntity
  8
Layer_1
 62
7
100
AcDbSpline
 70
8
 71
3
 72
8
 73
4
 74
0
 40
0
 40
0
 40
0
 40
0
 40
1
 40
1
 40
1
 40
1
 10
210.904057
 20
536.236799
 30
0.0
 10
211.031001
 20
536.278305
 30
0.0
 10
211.168669
 20
536.307355
 30
0.0
 10
211.309723
 20
536.307355
 30
0.0
  0
SPLINE
  5
2e9
100
AcDbEntity
  8
Layer_1
 62
7
100
AcDbSpline
 70
8
 71
3
 72
8
 73
4
 74
0
 40
0
 40
0
 40
0
 40
0
 40
1
 40
1
 40
1
 40
1
 10
211.309723
 20
536.307355
 30
0.0
 10
212.028797
 20
536.307355
 30
0.0
 10
212.606196
 20
535.720894
 30
0.0
 10
212.606196
 20
535.002077
 30
0.0
  0
SPLINE
  5
2ea
100
AcDbEntity
  8
Layer_1
 62
7
100
AcDbSpline
 70
8
 71
3
 72
8
 73
4
 74
0
 40
0
 40
0
 40
0
 40
0
 40
1
 40
1
 40
1
 40
1
 10
212.606196
 20
535.002077
 30
0.0
 10
212.606196
 20
534.345205
 30
0.0
 10
212.118629
 20
533.812005
 30
0.0
 10
211.486112
 20
533.723257
 30
0.0
  0
LWPOLYLINE
  5
2eb
100
AcDbEntity
  8
Layer_1
 62
7
100
AcDbPolyline
 90
6
 70
1
 10
211.486112
 20
551.326868
 30
0.0
 10
211.486112
 20
551.309230
 30
0.0
 10
211.309723
 20
551.309230
 30
0.0
 10
208.690362
 20
551.309230
 30
0.0
 10
208.690362
 20
536.236799
 30
0.0
 10
210.904057
 20
536.236799
 30
0.0
  0
SPLINE
  5
2ec
100
AcDbEntity
  8
Layer_1
 62
7
100
AcDbSpline
 70
8
 71
3
 72
8
 73
4
 74
0
 40
0
 40
0
 40
0
 40
0
 40
1
 40
1
 40
1
 40
1
 10
211.486112
 20
528.890202
 30
0.0
 10
212.118770
 20
528.801454
 30
0.0
 10
212.606196
 20
528.268255
 30
0.0
 10
212.606196
 20
527.611382
 30
0.0
  0
SPLINE
  5
2ed
100
AcDbEntity
  8
Layer_1
 62
7
100
AcDbSpline
 70
8
 71
3
 72
8
 73
4
 74
0
 40
0
 40
0
 40
0
 40
0
 40
1
 40
1
 40
1
 40
1
 10
212.606196
 20
527.611382
 30
0.0
 10
212.606196
 20
526.954510
 30
0.0
 10
212.118629
 20
526.412491
 30
0.0
 10
211.486112
 20
526.323743
 30
0.0
  0
LWPOLYLINE
  5
2ee
100
AcDbEntity
  8
Layer_1
 62
7
100
AcDbPolyline
 90
2
 70
1
 10
211.486112
 20
533.723257
 30
0.0
 10
211.486112
 20
528.890202
 30
0.0
  0
SPLINE
  5
2ef
100
AcDbEntity
  8
Layer_1
 62
7
100
AcDbSpline
 70
8
 71
3
 72
8
 73
4
 74
0
 40
0
 40
0
 40
0
 40
0
 40
1
 40
1
 40
1
 40
1
 10
210.895224
 20
511.233674
 30
0.0
 10
211.025102
 20
511.277156
 30
0.0
 10
211.165226
 20
511.304230
 30
0.0
 10
211.309723
 20
511.304230
 30
0.0
  0
SPLINE
  5
2f0
100
AcDbEntity
  8
Layer_1
 62
7
100
AcDbSpline
 70
8
 71
3
 72
8
 73
4
 74
0
 40
0
 40
0
 40
0
 40
0
 40
1
 40
1
 40
1
 40
1
 10
211.309723
 20
511.304230
 30
0.0
 10
212.028741
 20
511.304230
 30
0.0
 10
212.606196
 20
510.726588
 30
0.0
 10
212.606196
 20
510.007771
 30
0.0
  0
SPLINE
  5
2f1
100
AcDbEntity
  8
Layer_1
 62
7
100
AcDbSpline
 70
8
 71
3
 72
8
 73
4
 74
0
 40
0
 40
0
 40
0
 40
0
 40
1
 40
1
 40
1
 40
1
 10
212.606196
 20
510.007771
 30
0.0
 10
212.606196
 20
509.350899
 30
0.0
 10
212.118629
 20
508.808880
 30
0.0
 10
211.486112
 20
508.720132
 30
0.0
  0
LWPOLYLINE
  5
2f2
100
AcDbEntity
  8
Layer_1
 62
7
100
AcDbPolyline
 90
6
 70
1
 10
211.486112
 20
526.323743
 30
0.0
 10
211.486112
 20
526.306105
 30
0.0
 10
211.309723
 20
526.306105
 30
0.0
 10
208.690362
 20
526.306105
 30
0.0
 10
208.690362
 20
511.233674
 30
0.0
 10
210.895224
 20
511.233674
 30
0.0
  0
SPLINE
  5
2f3
100
AcDbEntity
  8
Layer_1
 62
7
100
AcDbSpline
 70
8
 71
3
 72
8
 73
4
 74
0
 40
0
 40
0
 40
0
 40
0
 40
1
 40
1
 40
1
 40
1
 10
211.486112
 20
498.895271
 30
0.0
 10
212.118544
 20
498.806524
 30
0.0
 10
212.606196
 20
498.264505
 30
0.0
 10
212.606196
 20
497.607632
 30
0.0
  0
SPLINE
  5
2f4
100
AcDbEntity
  8
Layer_1
 62
7
100
AcDbSpline
 70
8
 71
3
 72
8
 73
4
 74
0
 40
0
 40
0
 40
0
 40
0
 40
1
 40
1
 40
1
 40
1
 10
212.606196
 20
497.607632
 30
0.0
 10
212.606196
 20
496.950760
 30
0.0
 10
212.118544
 20
496.408741
 30
0.0
 10
211.486112
 20
496.319993
 30
0.0
  0
LWPOLYLINE
  5
2f5
100
AcDbEntity
  8
Layer_1
 62
7
100
AcDbPolyline
 90
2
 70
1
 10
211.486112
 20
508.720132
 30
0.0
 10
211.486112
 20
498.895271
 30
0.0
  0
SPLINE
  5
2f6
100
AcDbEntity
  8
Layer_1
 62
7
100
AcDbSpline
 70
8
 71
3
 72
8
 73
4
 74
0
 40
0
 40
0
 40
0
 40
0
 40
1
 40
1
 40
1
 40
1
 10
210.904057
 20
481.238743
 30
0.0
 10
211.031226
 20
481.280250
 30
0.0
 10
211.168669
 20
481.309299
 30
0.0
 10
211.309723
 20
481.309299
 30
0.0
  0
SPLINE
  5
2f7
100
AcDbEntity
  8
Layer_1
 62
7
100
AcDbSpline
 70
8
 71
3
 72
8
 73
4
 74
0
 40
0
 40
0
 40
0
 40
0
 40
1
 40
1
 40
1
 40
1
 10
211.309723
 20
481.309299
 30
0.0
 10
212.028572
 20
481.309299
 30
0.0
 10
212.606196
 20
480.722838
 30
0.0
 10
212.606196
 20
480.004021
 30
0.0
  0
SPLINE
  5
2f8
100
AcDbEntity
  8
Layer_1
 62
7
100
AcDbSpline
 70
8
 71
3
 72
8
 73
4
 74
0
 40
0
 40
0
 40
0
 40
0
 40
1
 40
1
 40
1
 40
1
 10
212.606196
 20
480.004021
 30
0.0
 10
212.606196
 20
479.347149
 30
0.0
 10
212.118572
 20
478.805130
 30
0.0
 10
211.486112
 20
478.716382
 30
0.0
  0
LWPOLYLINE
  5
2f9
100
AcDbEntity
  8
Layer_1
 62
7
100
AcDbPolyline
 90
6
 70
1
 10
211.486112
 20
496.319993
 30
0.0
 10
211.486112
 20
496.302355
 30
0.0
 10
211.309723
 20
496.302355
 30
0.0
 10
208.690362
 20
496.302355
 30
0.0
 10
208.690362
 20
481.238743
 30
0.0
 10
210.904057
 20
481.238743
 30
0.0
  0
SPLINE
  5
2fa
100
AcDbEntity
  8
Layer_1
 62
7
100
AcDbSpline
 70
8
 71
3
 72
8
 73
4
 74
0
 40
0
 40
0
 40
0
 40
0
 40
1
 40
1
 40
1
 40
1
 10
226.479168
 20
470.673049
 30
0.0
 10
226.374322
 20
470.860701
 30
0.0
 10
226.302779
 20
471.077781
 30
0.0
 10
226.302779
 20
471.308049
 30
0.0
  0
SPLINE
  5
2fb
100
AcDbEntity
  8
Layer_1
 62
7
100
AcDbSpline
 70
8
 71
3
 72
8
 73
4
 74
0
 40
0
 40
0
 40
0
 40
0
 40
1
 40
1
 40
1
 40
1
 10
226.302779
 20
471.308049
 30
0.0
 10
226.302779
 20
472.026866
 30
0.0
 10
226.889321
 20
472.604507
 30
0.0
 10
227.608057
 20
472.604507
 30
0.0
  0
SPLINE
  5
2fc
100
AcDbEntity
  8
Layer_1
 62
7
100
AcDbSpline
 70
8
 71
3
 72
8
 73
4
 74
0
 40
0
 40
0
 40
0
 40
0
 40
1
 40
1
 40
1
 40
1
 10
227.608057
 20
472.604507
 30
0.0
 10
228.326933
 20
472.604507
 30
0.0
 10
228.904529
 20
472.026866
 30
0.0
 10
228.904529
 20
471.308049
 30
0.0
  0
LWPOLYLINE
  5
2fd
100
AcDbEntity
  8
Layer_1
 62
7
100
AcDbPolyline
 90
5
 70
1
 10
211.486112
 20
478.716382
 30
0.0
 10
211.486112
 20
471.308049
 30
0.0
 10
211.486112
 20
468.309438
 30
0.0
 10
226.479168
 20
468.309438
 30
0.0
 10
226.479168
 20
470.673049
 30
0.0
  0
SPLINE
  5
2fe
100
AcDbEntity
  8
Layer_1
 62
7
100
AcDbSpline
 70
8
 71
3
 72
8
 73
4
 74
0
 40
0
 40
0
 40
0
 40
0
 40
1
 40
1
 40
1
 40
1
 10
243.703557
 20
471.308049
 30
0.0
 10
243.703557
 20
472.026866
 30
0.0
 10
244.281294
 20
472.604507
 30
0.0
 10
245.000001
 20
472.604507
 30
0.0
  0
SPLINE
  5
2ff
100
AcDbEntity
  8
Layer_1
 62
7
100
AcDbSpline
 70
8
 71
3
 72
8
 73
4
 74
0
 40
0
 40
0
 40
0
 40
0
 40
1
 40
1
 40
1
 40
1
 10
245.000001
 20
472.604507
 30
0.0
 10
245.718906
 20
472.604507
 30
0.0
 10
246.305279
 20
472.026866
 30
0.0
 10
246.305279
 20
471.308049
 30
0.0
  0
LWPOLYLINE
  5
300
100
AcDbEntity
  8
Layer_1
 62
7
100
AcDbPolyline
 90
2
 70
1
 10
228.904529
 20
471.308049
 30
0.0
 10
243.703557
 20
471.308049
 30
0.0
  0
SPLINE
  5
301
100
AcDbEntity
  8
Layer_1
 62
7
100
AcDbSpline
 70
8
 71
3
 72
8
 73
4
 74
0
 40
0
 40
0
 40
0
 40
0
 40
1
 40
1
 40
1
 40
1
 10
261.483557
 20
478.716382
 30
0.0
 10
261.425814
 20
478.708537
 30
0.0
 10
261.367056
 20
478.698743
 30
0.0
 10
261.307168
 20
478.698743
 30
0.0
  0
SPLINE
  5
302
100
AcDbEntity
  8
Layer_1
 62
7
100
AcDbSpline
 70
8
 71
3
 72
8
 73
4
 74
0
 40
0
 40
0
 40
0
 40
0
 40
1
 40
1
 40
1
 40
1
 10
261.307168
 20
478.698743
 30
0.0
 10
260.588348
 20
478.698743
 30
0.0
 10
260.001890
 20
479.285204
 30
0.0
 10
260.001890
 20
480.004021
 30
0.0
  0
SPLINE
  5
303
100
AcDbEntity
  8
Layer_1
 62
7
100
AcDbSpline
 70
8
 71
3
 72
8
 73
4
 74
0
 40
0
 40
0
 40
0
 40
0
 40
1
 40
1
 40
1
 40
1
 10
260.001890
 20
480.004021
 30
0.0
 10
260.001890
 20
480.722838
 30
0.0
 10
260.588348
 20
481.309299
 30
0.0
 10
261.307168
 20
481.309299
 30
0.0
  0
SPLINE
  5
304
100
AcDbEntity
  8
Layer_1
 62
7
100
AcDbSpline
 70
8
 71
3
 72
8
 73
4
 74
0
 40
0
 40
0
 40
0
 40
0
 40
1
 40
1
 40
1
 40
1
 10
261.307168
 20
481.309299
 30
0.0
 10
261.446924
 20
481.309299
 30
0.0
 10
261.577763
 20
481.279525
 30
0.0
 10
261.704057
 20
481.238743
 30
0.0
  0
LWPOLYLINE
  5
305
100
AcDbEntity
  8
Layer_1
 62
7
100
AcDbPolyline
 90
6
 70
1
 10
246.305279
 20
471.308049
 30
0.0
 10
246.481668
 20
471.308049
 30
0.0
 10
246.481668
 20
468.309438
 30
0.0
 10
261.483557
 20
468.309438
 30
0.0
 10
261.483557
 20
476.308674
 30
0.0
 10
261.483557
 20
478.716382
 30
0.0
  0
SPLINE
  5
306
100
AcDbEntity
  8
Layer_1
 62
7
100
AcDbSpline
 70
8
 71
3
 72
8
 73
4
 74
0
 40
0
 40
0
 40
0
 40
0
 40
1
 40
1
 40
1
 40
1
 10
261.483557
 20
496.319993
 30
0.0
 10
261.425814
 20
496.312148
 30
0.0
 10
261.367056
 20
496.302355
 30
0.0
 10
261.307168
 20
496.302355
 30
0.0
  0
SPLINE
  5
307
100
AcDbEntity
  8
Layer_1
 62
7
100
AcDbSpline
 70
8
 71
3
 72
8
 73
4
 74
0
 40
0
 40
0
 40
0
 40
0
 40
1
 40
1
 40
1
 40
1
 10
261.307168
 20
496.302355
 30
0.0
 10
260.588348
 20
496.302355
 30
0.0
 10
260.001890
 20
496.888815
 30
0.0
 10
260.001890
 20
497.607632
 30
0.0
  0
SPLINE
  5
308
100
AcDbEntity
  8
Layer_1
 62
7
100
AcDbSpline
 70
8
 71
3
 72
8
 73
4
 74
0
 40
0
 40
0
 40
0
 40
0
 40
1
 40
1
 40
1
 40
1
 10
260.001890
 20
497.607632
 30
0.0
 10
260.001890
 20
498.326450
 30
0.0
 10
260.588348
 20
498.912910
 30
0.0
 10
261.307168
 20
498.912910
 30
0.0
  0
SPLINE
  5
309
100
AcDbEntity
  8
Layer_1
 62
7
100
AcDbSpline
 70
8
 71
3
 72
8
 73
4
 74
0
 40
0
 40
0
 40
0
 40
0
 40
1
 40
1
 40
1
 40
1
 10
261.307168
 20
498.912910
 30
0.0
 10
261.367056
 20
498.912910
 30
0.0
 10
261.425814
 20
498.903117
 30
0.0
 10
261.483557
 20
498.895271
 30
0.0
  0
LWPOLYLINE
  5
30a
100
AcDbEntity
  8
Layer_1
 62
7
100
AcDbPolyline
 90
5
 70
1
 10
261.704057
 20
481.238743
 30
0.0
 10
264.094112
 20
481.238743
 30
0.0
 10
264.094112
 20
496.302355
 30
0.0
 10
261.483557
 20
496.302355
 30
0.0
 10
261.483557
 20
496.319993
 30
0.0
  0
SPLINE
  5
30b
100
AcDbEntity
  8
Layer_1
 62
7
100
AcDbSpline
 70
8
 71
3
 72
8
 73
4
 74
0
 40
0
 40
0
 40
0
 40
0
 40
1
 40
1
 40
1
 40
1
 10
261.483557
 20
508.720132
 30
0.0
 10
261.425814
 20
508.712287
 30
0.0
 10
261.367056
 20
508.702493
 30
0.0
 10
261.307168
 20
508.702493
 30
0.0
  0
SPLINE
  5
30c
100
AcDbEntity
  8
Layer_1
 62
7
100
AcDbSpline
 70
8
 71
3
 72
8
 73
4
 74
0
 40
0
 40
0
 40
0
 40
0
 40
1
 40
1
 40
1
 40
1
 10
261.307168
 20
508.702493
 30
0.0
 10
260.588348
 20
508.702493
 30
0.0
 10
260.001890
 20
509.288954
 30
0.0
 10
260.001890
 20
510.007771
 30
0.0
  0
SPLINE
  5
30d
100
AcDbEntity
  8
Layer_1
 62
7
100
AcDbSpline
 70
8
 71
3
 72
8
 73
4
 74
0
 40
0
 40
0
 40
0
 40
0
 40
1
 40
1
 40
1
 40
1
 10
260.001890
 20
510.007771
 30
0.0
 10
260.001890
 20
510.726588
 30
0.0
 10
260.588348
 20
511.304230
 30
0.0
 10
261.307168
 20
511.304230
 30
0.0
  0
SPLINE
  5
30e
100
AcDbEntity
  8
Layer_1
 62
7
100
AcDbSpline
 70
8
 71
3
 72
8
 73
4
 74
0
 40
0
 40
0
 40
0
 40
0
 40
1
 40
1
 40
1
 40
1
 10
261.307168
 20
511.304230
 30
0.0
 10
261.453557
 20
511.304230
 30
0.0
 10
261.590378
 20
511.278237
 30
0.0
 10
261.721668
 20
511.233674
 30
0.0
  0
LWPOLYLINE
  5
30f
100
AcDbEntity
  8
Layer_1
 62
7
100
AcDbPolyline
 90
2
 70
1
 10
261.483557
 20
498.895271
 30
0.0
 10
261.483557
 20
508.720132
 30
0.0
  0
SPLINE
  5
310
100
AcDbEntity
  8
Layer_1
 62
7
100
AcDbSpline
 70
8
 71
3
 72
8
 73
4
 74
0
 40
0
 40
0
 40
0
 40
0
 40
1
 40
1
 40
1
 40
1
 10
261.483557
 20
526.323743
 30
0.0
 10
261.425814
 20
526.315898
 30
0.0
 10
261.367056
 20
526.306105
 30
0.0
 10
261.307168
 20
526.306105
 30
0.0
  0
SPLINE
  5
311
100
AcDbEntity
  8
Layer_1
 62
7
100
AcDbSpline
 70
8
 71
3
 72
8
 73
4
 74
0
 40
0
 40
0
 40
0
 40
0
 40
1
 40
1
 40
1
 40
1
 10
261.307168
 20
526.306105
 30
0.0
 10
260.588348
 20
526.306105
 30
0.0
 10
260.001890
 20
526.892565
 30
0.0
 10
260.001890
 20
527.611382
 30
0.0
  0
SPLINE
  5
312
100
AcDbEntity
  8
Layer_1
 62
7
100
AcDbSpline
 70
8
 71
3
 72
8
 73
4
 74
0
 40
0
 40
0
 40
0
 40
0
 40
1
 40
1
 40
1
 40
1
 10
260.001890
 20
527.611382
 30
0.0
 10
260.001890
 20
528.330200
 30
0.0
 10
260.588348
 20
528.907841
 30
0.0
 10
261.307168
 20
528.907841
 30
0.0
  0
SPLINE
  5
313
100
AcDbEntity
  8
Layer_1
 62
7
100
AcDbSpline
 70
8
 71
3
 72
8
 73
4
 74
0
 40
0
 40
0
 40
0
 40
0
 40
1
 40
1
 40
1
 40
1
 10
261.307168
 20
528.907841
 30
0.0
 10
261.367056
 20
528.907841
 30
0.0
 10
261.425814
 20
528.898048
 30
0.0
 10
261.483557
 20
528.890202
 30
0.0
  0
LWPOLYLINE
  5
314
100
AcDbEntity
  8
Layer_1
 62
7
100
AcDbPolyline
 90
5
 70
1
 10
261.721668
 20
511.233674
 30
0.0
 10
264.094112
 20
511.233674
 30
0.0
 10
264.094112
 20
526.306105
 30
0.0
 10
261.483557
 20
526.306105
 30
0.0
 10
261.483557
 20
526.323743
 30
0.0
  0
SPLINE
  5
315
100
AcDbEntity
  8
Layer_1
 62
7
100
AcDbSpline
 70
8
 71
3
 72
8
 73
4
 74
0
 40
0
 40
0
 40
0
 40
0
 40
1
 40
1
 40
1
 40
1
 10
261.483557
 20
533.723257
 30
0.0
 10
261.425814
 20
533.715412
 30
0.0
 10
261.367056
 20
533.705618
 30
0.0
 10
261.307168
 20
533.705618
 30
0.0
  0
SPLINE
  5
316
100
AcDbEntity
  8
Layer_1
 62
7
100
AcDbSpline
 70
8
 71
3
 72
8
 73
4
 74
0
 40
0
 40
0
 40
0
 40
0
 40
1
 40
1
 40
1
 40
1
 10
261.307168
 20
533.705618
 30
0.0
 10
260.588348
 20
533.705618
 30
0.0
 10
260.001890
 20
534.283260
 30
0.0
 10
260.001890
 20
535.002077
 30
0.0
  0
SPLINE
  5
317
100
AcDbEntity
  8
Layer_1
 62
7
100
AcDbSpline
 70
8
 71
3
 72
8
 73
4
 74
0
 40
0
 40
0
 40
0
 40
0
 40
1
 40
1
 40
1
 40
1
 10
260.001890
 20
535.002077
 30
0.0
 10
260.001890
 20
535.720894
 30
0.0
 10
260.588348
 20
536.307355
 30
0.0
 10
261.307168
 20
536.307355
 30
0.0
  0
SPLINE
  5
318
100
AcDbEntity
  8
Layer_1
 62
7
100
AcDbSpline
 70
8
 71
3
 72
8
 73
4
 74
0
 40
0
 40
0
 40
0
 40
0
 40
1
 40
1
 40
1
 40
1
 10
261.307168
 20
536.307355
 30
0.0
 10
261.446924
 20
536.307355
 30
0.0
 10
261.577763
 20
536.277580
 30
0.0
 10
261.704057
 20
536.236799
 30
0.0
  0
LWPOLYLINE
  5
319
100
AcDbEntity
  8
Layer_1
 62
7
100
AcDbPolyline
 90
2
 70
1
 10
261.483557
 20
528.890202
 30
0.0
 10
261.483557
 20
533.723257
 30
0.0
  0
SPLINE
  5
31a
100
AcDbEntity
  8
Layer_1
 62
7
100
AcDbSpline
 70
8
 71
3
 72
8
 73
4
 74
0
 40
0
 40
0
 40
0
 40
0
 40
1
 40
1
 40
1
 40
1
 10
261.483557
 20
551.326868
 30
0.0
 10
261.425814
 20
551.319023
 30
0.0
 10
261.367056
 20
551.309230
 30
0.0
 10
261.307168
 20
551.309230
 30
0.0
  0
SPLINE
  5
31b
100
AcDbEntity
  8
Layer_1
 62
7
100
AcDbSpline
 70
8
 71
3
 72
8
 73
4
 74
0
 40
0
 40
0
 40
0
 40
0
 40
1
 40
1
 40
1
 40
1
 10
261.307168
 20
551.309230
 30
0.0
 10
260.588348
 20
551.309230
 30
0.0
 10
260.001890
 20
551.886871
 30
0.0
 10
260.001890
 20
552.605688
 30
0.0
  0
SPLINE
  5
31c
100
AcDbEntity
  8
Layer_1
 62
7
100
AcDbSpline
 70
8
 71
3
 72
8
 73
4
 74
0
 40
0
 40
0
 40
0
 40
0
 40
1
 40
1
 40
1
 40
1
 10
260.001890
 20
552.605688
 30
0.0
 10
260.001890
 20
553.324505
 30
0.0
 10
260.588348
 20
553.910966
 30
0.0
 10
261.307168
 20
553.910966
 30
0.0
  0
SPLINE
  5
31d
100
AcDbEntity
  8
Layer_1
 62
7
100
AcDbSpline
 70
8
 71
3
 72
8
 73
4
 74
0
 40
0
 40
0
 40
0
 40
0
 40
1
 40
1
 40
1
 40
1
 10
261.307168
 20
553.910966
 30
0.0
 10
261.367056
 20
553.910966
 30
0.0
 10
261.425814
 20
553.901173
 30
0.0
 10
261.483557
 20
553.893327
 30
0.0
  0
LWPOLYLINE
  5
31e
100
AcDbEntity
  8
Layer_1
 62
7
100
AcDbPolyline
 90
5
 70
1
 10
261.704057
 20
536.236799
 30
0.0
 10
264.094112
 20
536.236799
 30
0.0
 10
264.094112
 20
551.309230
 30
0.0
 10
261.483557
 20
551.309230
 30
0.0
 10
261.483557
 20
551.326868
 30
0.0
  0
SPLINE
  5
31f
100
AcDbEntity
  8
Layer_1
 62
7
100
AcDbSpline
 70
8
 71
3
 72
8
 73
4
 74
0
 40
0
 40
0
 40
0
 40
0
 40
1
 40
1
 40
1
 40
1
 10
261.483557
 20
563.718188
 30
0.0
 10
261.425814
 20
563.710342
 30
0.0
 10
261.367056
 20
563.700549
 30
0.0
 10
261.307168
 20
563.700549
 30
0.0
  0
SPLINE
  5
320
100
AcDbEntity
  8
Layer_1
 62
7
100
AcDbSpline
 70
8
 71
3
 72
8
 73
4
 74
0
 40
0
 40
0
 40
0
 40
0
 40
1
 40
1
 40
1
 40
1
 10
261.307168
 20
563.700549
 30
0.0
 10
260.588348
 20
563.700549
 30
0.0
 10
260.001890
 20
564.287010
 30
0.0
 10
260.001890
 20
565.005827
 30
0.0
  0
SPLINE
  5
321
100
AcDbEntity
  8
Layer_1
 62
7
100
AcDbSpline
 70
8
 71
3
 72
8
 73
4
 74
0
 40
0
 40
0
 40
0
 40
0
 40
1
 40
1
 40
1
 40
1
 10
260.001890
 20
565.005827
 30
0.0
 10
260.001890
 20
565.724644
 30
0.0
 10
260.588348
 20
566.302285
 30
0.0
 10
261.307168
 20
566.302285
 30
0.0
  0
SPLINE
  5
322
100
AcDbEntity
  8
Layer_1
 62
7
100
AcDbSpline
 70
8
 71
3
 72
8
 73
4
 74
0
 40
0
 40
0
 40
0
 40
0
 40
1
 40
1
 40
1
 40
1
 10
261.307168
 20
566.302285
 30
0.0
 10
261.367056
 20
566.302285
 30
0.0
 10
261.425814
 20
566.292492
 30
0.0
 10
261.483557
 20
566.284646
 30
0.0
  0
LWPOLYLINE
  5
323
100
AcDbEntity
  8
Layer_1
 62
7
100
AcDbPolyline
 90
2
 70
1
 10
261.483557
 20
553.893327
 30
0.0
 10
261.483557
 20
563.718188
 30
0.0
  0
SPLINE
  5
324
100
AcDbEntity
  8
Layer_1
 62
7
100
AcDbSpline
 70
8
 71
3
 72
8
 73
4
 74
0
 40
0
 40
0
 40
0
 40
0
 40
1
 40
1
 40
1
 40
1
 10
261.483557
 20
581.321672
 30
0.0
 10
261.425814
 20
581.313770
 30
0.0
 10
261.367056
 20
581.304174
 30
0.0
 10
261.307168
 20
581.304174
 30
0.0
  0
SPLINE
  5
325
100
AcDbEntity
  8
Layer_1
 62
7
100
AcDbSpline
 70
8
 71
3
 72
8
 73
4
 74
0
 40
0
 40
0
 40
0
 40
0
 40
1
 40
1
 40
1
 40
1
 10
261.307168
 20
581.304174
 30
0.0
 10
260.588348
 20
581.304174
 30
0.0
 10
260.001890
 20
581.890632
 30
0.0
 10
260.001890
 20
582.609452
 30
0.0
  0
SPLINE
  5
326
100
AcDbEntity
  8
Layer_1
 62
7
100
AcDbSpline
 70
8
 71
3
 72
8
 73
4
 74
0
 40
0
 40
0
 40
0
 40
0
 40
1
 40
1
 40
1
 40
1
 10
260.001890
 20
582.609452
 30
0.0
 10
260.001890
 20
583.328244
 30
0.0
 10
260.588348
 20
583.905896
 30
0.0
 10
261.307168
 20
583.905896
 30
0.0
  0
SPLINE
  5
327
100
AcDbEntity
  8
Layer_1
 62
7
100
AcDbSpline
 70
8
 71
3
 72
8
 73
4
 74
0
 40
0
 40
0
 40
0
 40
0
 40
1
 40
1
 40
1
 40
1
 10
261.307168
 20
583.905896
 30
0.0
 10
261.367056
 20
583.905896
 30
0.0
 10
261.425814
 20
583.896018
 30
0.0
 10
261.483557
 20
583.888398
 30
0.0
  0
LWPOLYLINE
  5
328
100
AcDbEntity
  8
Layer_1
 62
7
100
AcDbPolyline
 90
6
 70
1
 10
261.483557
 20
566.284646
 30
0.0
 10
261.483557
 20
566.302285
 30
0.0
 10
264.305779
 20
566.302285
 30
0.0
 10
264.305779
 20
581.304174
 30
0.0
 10
261.483557
 20
581.304174
 30
0.0
 10
261.483557
 20
581.321672
 30
0.0
  0
SPLINE
  5
329
100
AcDbEntity
  8
Layer_1
 62
7
100
AcDbSpline
 70
8
 71
3
 72
8
 73
4
 74
0
 40
0
 40
0
 40
0
 40
0
 40
1
 40
1
 40
1
 40
1
 10
246.305279
 20
591.305565
 30
0.0
 10
246.305279
 20
590.586745
 30
0.0
 10
245.718934
 20
590.000288
 30
0.0
 10
245.000001
 20
590.000288
 30
0.0
  0
SPLINE
  5
32a
100
AcDbEntity
  8
Layer_1
 62
7
100
AcDbSpline
 70
8
 71
3
 72
8
 73
4
 74
0
 40
0
 40
0
 40
0
 40
0
 40
1
 40
1
 40
1
 40
1
 10
245.000001
 20
590.000288
 30
0.0
 10
244.281604
 20
590.000288
 30
0.0
 10
243.703557
 20
590.586745
 30
0.0
 10
243.703557
 20
591.305565
 30
0.0
  0
LWPOLYLINE
  5
32b
100
AcDbEntity
  8
Layer_1
 62
7
100
AcDbPolyline
 90
6
 70
1
 10
261.483557
 20
583.888398
 30
0.0
 10
261.483557
 20
591.305565
 30
0.0
 10
261.483557
 20
594.304176
 30
0.0
 10
246.481668
 20
594.304176
 30
0.0
 10
246.481668
 20
591.305565
 30
0.0
 10
246.305279
 20
591.305565
 30
0.0
  0
SPLINE
  5
32c
100
AcDbEntity
  8
Layer_1
 62
7
100
AcDbSpline
 70
8
 71
3
 72
8
 73
4
 74
0
 40
0
 40
0
 40
0
 40
0
 40
1
 40
1
 40
1
 40
1
 10
229.045640
 20
591.305565
 30
0.0
 10
229.045640
 20
590.586745
 30
0.0
 10
228.468101
 20
590.000288
 30
0.0
 10
227.749168
 20
590.000288
 30
0.0
  0
SPLINE
  5
32d
100
AcDbEntity
  8
Layer_1
 62
7
100
AcDbSpline
 70
8
 71
3
 72
8
 73
4
 74
0
 40
0
 40
0
 40
0
 40
0
 40
1
 40
1
 40
1
 40
1
 10
227.749168
 20
590.000288
 30
0.0
 10
227.030743
 20
590.000288
 30
0.0
 10
226.443946
 20
590.586745
 30
0.0
 10
226.443890
 20
591.305565
 30
0.0
  0
SPLINE
  5
32e
100
AcDbEntity
  8
Layer_1
 62
7
100
AcDbSpline
 70
8
 71
3
 72
8
 73
4
 74
0
 40
0
 40
0
 40
0
 40
0
 40
1
 40
1
 40
1
 40
1
 10
226.443890
 20
591.305565
 30
0.0
 10
226.443890
 20
591.405077
 30
0.0
 10
226.458001
 20
591.503488
 30
0.0
 10
226.479168
 20
591.596593
 30
0.0
  0
LWPOLYLINE
  5
32f
100
AcDbEntity
  8
Layer_1
 62
7
100
AcDbPolyline
 90
2
 70
1
 10
243.703557
 20
591.305565
 30
0.0
 10
229.045640
 20
591.305565
 30
0.0
  0
LWPOLYLINE
  5
330
100
AcDbEntity
  8
Layer_1
 62
7
100
AcDbPolyline
 90
4
 70
1
 10
226.479168
 20
591.596593
 30
0.0
 10
226.479168
 20
594.304176
 30
0.0
 10
211.486112
 20
594.304176
 30
0.0
 10
211.486112
 20
594.303894
 30
0.0
  0
SPLINE
  5
331
100
AcDbEntity
  8
Layer_1
 62
7
100
AcDbSpline
 70
8
 71
3
 72
8
 73
4
 74
0
 40
0
 40
0
 40
0
 40
0
 40
1
 40
1
 40
1
 40
1
 10
211.563554
 20
451.273601
 30
0.0
 10
212.156644
 20
451.152237
 30
0.0
 10
212.604248
 20
450.632568
 30
0.0
 10
212.604248
 20
450.003601
 30
0.0
  0
SPLINE
  5
332
100
AcDbEntity
  8
Layer_1
 62
7
100
AcDbSpline
 70
8
 71
3
 72
8
 73
4
 74
0
 40
0
 40
0
 40
0
 40
0
 40
1
 40
1
 40
1
 40
1
 10
212.604248
 20
450.003601
 30
0.0
 10
212.604248
 20
449.374635
 30
0.0
 10
212.156644
 20
448.846146
 30
0.0
 10
211.563554
 20
448.724782
 30
0.0
  0
LWPOLYLINE
  5
333
100
AcDbEntity
  8
Layer_1
 62
7
100
AcDbPolyline
 90
4
 70
1
 10
211.563554
 20
461.698185
 30
0.0
 10
211.563554
 20
458.699574
 30
0.0
 10
211.563554
 20
453.698949
 30
0.0
 10
211.563554
 20
451.273601
 30
0.0
  0
SPLINE
  5
334
100
AcDbEntity
  8
Layer_1
 62
7
100
AcDbSpline
 70
8
 71
3
 72
8
 73
4
 74
0
 40
0
 40
0
 40
0
 40
0
 40
1
 40
1
 40
1
 40
1
 10
211.563554
 20
433.670019
 30
0.0
 10
212.156644
 20
433.548655
 30
0.0
 10
212.604248
 20
433.028985
 30
0.0
 10
212.604248
 20
432.400019
 30
0.0
  0
SPLINE
  5
335
100
AcDbEntity
  8
Layer_1
 62
7
100
AcDbSpline
 70
8
 71
3
 72
8
 73
4
 74
0
 40
0
 40
0
 40
0
 40
0
 40
1
 40
1
 40
1
 40
1
 10
212.604248
 20
432.400019
 30
0.0
 10
212.604248
 20
431.771052
 30
0.0
 10
212.156644
 20
431.242563
 30
0.0
 10
211.563554
 20
431.121199
 30
0.0
  0
LWPOLYLINE
  5
336
100
AcDbEntity
  8
Layer_1
 62
7
100
AcDbPolyline
 90
8
 70
1
 10
211.563554
 20
448.724782
 30
0.0
 10
211.563554
 20
448.698338
 30
0.0
 10
211.298971
 20
448.698338
 30
0.0
 10
208.300360
 20
448.698338
 30
0.0
 10
208.300360
 20
433.696463
 30
0.0
 10
211.298971
 20
433.696463
 30
0.0
 10
211.563554
 20
433.696463
 30
0.0
 10
211.563554
 20
433.670019
 30
0.0
  0
SPLINE
  5
337
100
AcDbEntity
  8
Layer_1
 62
7
100
AcDbSpline
 70
8
 71
3
 72
8
 73
4
 74
0
 40
0
 40
0
 40
0
 40
0
 40
1
 40
1
 40
1
 40
1
 10
211.563554
 20
421.278699
 30
0.0
 10
212.156644
 20
421.157335
 30
0.0
 10
212.604248
 20
420.628846
 30
0.0
 10
212.604248
 20
419.999880
 30
0.0
  0
SPLINE
  5
338
100
AcDbEntity
  8
Layer_1
 62
7
100
AcDbSpline
 70
8
 71
3
 72
8
 73
4
 74
0
 40
0
 40
0
 40
0
 40
0
 40
1
 40
1
 40
1
 40
1
 10
212.604248
 20
419.999880
 30
0.0
 10
212.604248
 20
419.370914
 30
0.0
 10
212.156644
 20
418.851244
 30
0.0
 10
211.563554
 20
418.729880
 30
0.0
  0
LWPOLYLINE
  5
339
100
AcDbEntity
  8
Layer_1
 62
7
100
AcDbPolyline
 90
2
 70
1
 10
211.563554
 20
431.121199
 30
0.0
 10
211.563554
 20
421.278699
 30
0.0
  0
SPLINE
  5
33a
100
AcDbEntity
  8
Layer_1
 62
7
100
AcDbSpline
 70
8
 71
3
 72
8
 73
4
 74
0
 40
0
 40
0
 40
0
 40
0
 40
1
 40
1
 40
1
 40
1
 10
210.902110
 20
403.631005
 30
0.0
 10
211.029307
 20
403.672511
 30
0.0
 10
211.157916
 20
403.701560
 30
0.0
 10
211.298971
 20
403.701560
 30
0.0
  0
SPLINE
  5
33b
100
AcDbEntity
  8
Layer_1
 62
7
100
AcDbSpline
 70
8
 71
3
 72
8
 73
4
 74
0
 40
0
 40
0
 40
0
 40
0
 40
1
 40
1
 40
1
 40
1
 10
211.298971
 20
403.701560
 30
0.0
 10
212.017791
 20
403.701560
 30
0.0
 10
212.604248
 20
403.115100
 30
0.0
 10
212.604248
 20
402.396283
 30
0.0
  0
SPLINE
  5
33c
100
AcDbEntity
  8
Layer_1
 62
7
100
AcDbSpline
 70
8
 71
3
 72
8
 73
4
 74
0
 40
0
 40
0
 40
0
 40
0
 40
1
 40
1
 40
1
 40
1
 10
212.604248
 20
402.396283
 30
0.0
 10
212.604248
 20
401.767317
 30
0.0
 10
212.156644
 20
401.247647
 30
0.0
 10
211.563554
 20
401.126283
 30
0.0
  0
LWPOLYLINE
  5
33d
100
AcDbEntity
  8
Layer_1
 62
7
100
AcDbPolyline
 90
6
 70
1
 10
211.563554
 20
418.729880
 30
0.0
 10
211.563554
 20
418.703435
 30
0.0
 10
211.298971
 20
418.703435
 30
0.0
 10
208.512026
 20
418.703435
 30
0.0
 10
208.512026
 20
403.631005
 30
0.0
 10
210.902110
 20
403.631005
 30
0.0
  0
SPLINE
  5
33e
100
AcDbEntity
  8
Layer_1
 62
7
100
AcDbSpline
 70
8
 71
3
 72
8
 73
4
 74
0
 40
0
 40
0
 40
0
 40
0
 40
1
 40
1
 40
1
 40
1
 10
211.563554
 20
396.275588
 30
0.0
 10
212.156644
 20
396.154224
 30
0.0
 10
212.604248
 20
395.634554
 30
0.0
 10
212.604248
 20
395.005588
 30
0.0
  0
SPLINE
  5
33f
100
AcDbEntity
  8
Layer_1
 62
7
100
AcDbSpline
 70
8
 71
3
 72
8
 73
4
 74
0
 40
0
 40
0
 40
0
 40
0
 40
1
 40
1
 40
1
 40
1
 10
212.604248
 20
395.005588
 30
0.0
 10
212.604248
 20
394.376622
 30
0.0
 10
212.156644
 20
393.848133
 30
0.0
 10
211.563554
 20
393.726769
 30
0.0
  0
LWPOLYLINE
  5
340
100
AcDbEntity
  8
Layer_1
 62
7
100
AcDbPolyline
 90
2
 70
1
 10
211.563554
 20
401.126283
 30
0.0
 10
211.563554
 20
396.275588
 30
0.0
  0
SPLINE
  5
341
100
AcDbEntity
  8
Layer_1
 62
7
100
AcDbSpline
 70
8
 71
3
 72
8
 73
4
 74
0
 40
0
 40
0
 40
0
 40
0
 40
1
 40
1
 40
1
 40
1
 10
210.884471
 20
378.627894
 30
0.0
 10
211.016636
 20
378.673103
 30
0.0
 10
211.151481
 20
378.698450
 30
0.0
 10
211.298971
 20
378.698450
 30
0.0
  0
SPLINE
  5
342
100
AcDbEntity
  8
Layer_1
 62
7
100
AcDbSpline
 70
8
 71
3
 72
8
 73
4
 74
0
 40
0
 40
0
 40
0
 40
0
 40
1
 40
1
 40
1
 40
1
 10
211.298971
 20
378.698450
 30
0.0
 10
212.017791
 20
378.698450
 30
0.0
 10
212.604248
 20
378.120808
 30
0.0
 10
212.604248
 20
377.401991
 30
0.0
  0
SPLINE
  5
343
100
AcDbEntity
  8
Layer_1
 62
7
100
AcDbSpline
 70
8
 71
3
 72
8
 73
4
 74
0
 40
0
 40
0
 40
0
 40
0
 40
1
 40
1
 40
1
 40
1
 10
212.604248
 20
377.401991
 30
0.0
 10
212.604248
 20
376.773025
 30
0.0
 10
212.156644
 20
376.244536
 30
0.0
 10
211.563554
 20
376.123172
 30
0.0
  0
LWPOLYLINE
  5
344
100
AcDbEntity
  8
Layer_1
 62
7
100
AcDbPolyline
 90
6
 70
1
 10
211.563554
 20
393.726769
 30
0.0
 10
211.563554
 20
393.700325
 30
0.0
 10
211.298971
 20
393.700325
 30
0.0
 10
208.512026
 20
393.700325
 30
0.0
 10
208.512026
 20
378.627894
 30
0.0
 10
210.884471
 20
378.627894
 30
0.0
  0
SPLINE
  5
345
100
AcDbEntity
  8
Layer_1
 62
7
100
AcDbSpline
 70
8
 71
3
 72
8
 73
4
 74
0
 40
0
 40
0
 40
0
 40
0
 40
1
 40
1
 40
1
 40
1
 10
211.563554
 20
366.280672
 30
0.0
 10
212.156644
 20
366.159308
 30
0.0
 10
212.604248
 20
365.630818
 30
0.0
 10
212.604248
 20
365.001852
 30
0.0
  0
SPLINE
  5
346
100
AcDbEntity
  8
Layer_1
 62
7
100
AcDbSpline
 70
8
 71
3
 72
8
 73
4
 74
0
 40
0
 40
0
 40
0
 40
0
 40
1
 40
1
 40
1
 40
1
 10
212.604248
 20
365.001852
 30
0.0
 10
212.604248
 20
364.372886
 30
0.0
 10
212.156644
 20
363.844397
 30
0.0
 10
211.563554
 20
363.723033
 30
0.0
  0
LWPOLYLINE
  5
347
100
AcDbEntity
  8
Layer_1
 62
7
100
AcDbPolyline
 90
2
 70
1
 10
211.563554
 20
376.123172
 30
0.0
 10
211.563554
 20
366.280672
 30
0.0
  0
SPLINE
  5
348
100
AcDbEntity
  8
Layer_1
 62
7
100
AcDbSpline
 70
8
 71
3
 72
8
 73
4
 74
0
 40
0
 40
0
 40
0
 40
0
 40
1
 40
1
 40
1
 40
1
 10
210.902110
 20
348.632978
 30
0.0
 10
211.029307
 20
348.674484
 30
0.0
 10
211.157916
 20
348.703533
 30
0.0
 10
211.298971
 20
348.703533
 30
0.0
  0
SPLINE
  5
349
100
AcDbEntity
  8
Layer_1
 62
7
100
AcDbSpline
 70
8
 71
3
 72
8
 73
4
 74
0
 40
0
 40
0
 40
0
 40
0
 40
1
 40
1
 40
1
 40
1
 10
211.298971
 20
348.703533
 30
0.0
 10
212.017791
 20
348.703533
 30
0.0
 10
212.604248
 20
348.117073
 30
0.0
 10
212.604248
 20
347.398255
 30
0.0
  0
SPLINE
  5
34a
100
AcDbEntity
  8
Layer_1
 62
7
100
AcDbSpline
 70
8
 71
3
 72
8
 73
4
 74
0
 40
0
 40
0
 40
0
 40
0
 40
1
 40
1
 40
1
 40
1
 10
212.604248
 20
347.398255
 30
0.0
 10
212.604248
 20
346.769289
 30
0.0
 10
212.156644
 20
346.240800
 30
0.0
 10
211.563554
 20
346.119436
 30
0.0
  0
LWPOLYLINE
  5
34b
100
AcDbEntity
  8
Layer_1
 62
7
100
AcDbPolyline
 90
6
 70
1
 10
211.563554
 20
363.723033
 30
0.0
 10
211.563554
 20
363.696589
 30
0.0
 10
211.298971
 20
363.696589
 30
0.0
 10
208.512026
 20
363.696589
 30
0.0
 10
208.512026
 20
348.632978
 30
0.0
 10
210.902110
 20
348.632978
 30
0.0
  0
SPLINE
  5
34c
100
AcDbEntity
  8
Layer_1
 62
7
100
AcDbSpline
 70
8
 71
3
 72
8
 73
4
 74
0
 40
0
 40
0
 40
0
 40
0
 40
1
 40
1
 40
1
 40
1
 10
226.556610
 20
338.437700
 30
0.0
 10
226.539394
 20
338.522426
 30
0.0
 10
226.530081
 20
338.612432
 30
0.0
 10
226.530081
 20
338.702283
 30
0.0
  0
SPLINE
  5
34d
100
AcDbEntity
  8
Layer_1
 62
7
100
AcDbSpline
 70
8
 71
3
 72
8
 73
4
 74
0
 40
0
 40
0
 40
0
 40
0
 40
1
 40
1
 40
1
 40
1
 10
226.530081
 20
338.702283
 30
0.0
 10
226.530081
 20
339.421100
 30
0.0
 10
227.107705
 20
339.998741
 30
0.0
 10
227.826525
 20
339.998741
 30
0.0
  0
SPLINE
  5
34e
100
AcDbEntity
  8
Layer_1
 62
7
100
AcDbSpline
 70
8
 71
3
 72
8
 73
4
 74
0
 40
0
 40
0
 40
0
 40
0
 40
1
 40
1
 40
1
 40
1
 10
227.826525
 20
339.998741
 30
0.0
 10
228.545345
 20
339.998741
 30
0.0
 10
229.131803
 20
339.421100
 30
0.0
 10
229.131803
 20
338.702283
 30
0.0
  0
LWPOLYLINE
  5
34f
100
AcDbEntity
  8
Layer_1
 62
7
100
AcDbPolyline
 90
6
 70
1
 10
211.563554
 20
346.119436
 30
0.0
 10
211.563554
 20
343.702908
 30
0.0
 10
211.563554
 20
338.702283
 30
0.0
 10
211.563554
 20
335.703672
 30
0.0
 10
226.556610
 20
335.703672
 30
0.0
 10
226.556610
 20
338.437700
 30
0.0
  0
SPLINE
  5
350
100
AcDbEntity
  8
Layer_1
 62
7
100
AcDbSpline
 70
8
 71
3
 72
8
 73
4
 74
0
 40
0
 40
0
 40
0
 40
0
 40
1
 40
1
 40
1
 40
1
 10
243.974942
 20
338.702283
 30
0.0
 10
243.974942
 20
339.421100
 30
0.0
 10
244.561400
 20
339.998741
 30
0.0
 10
245.280220
 20
339.998741
 30
0.0
  0
SPLINE
  5
351
100
AcDbEntity
  8
Layer_1
 62
7
100
AcDbSpline
 70
8
 71
3
 72
8
 73
4
 74
0
 40
0
 40
0
 40
0
 40
0
 40
1
 40
1
 40
1
 40
1
 10
245.280220
 20
339.998741
 30
0.0
 10
245.999040
 20
339.998741
 30
0.0
 10
246.576664
 20
339.421100
 30
0.0
 10
246.576664
 20
338.702283
 30
0.0
  0
SPLINE
  5
352
100
AcDbEntity
  8
Layer_1
 62
7
100
AcDbSpline
 70
8
 71
3
 72
8
 73
4
 74
0
 40
0
 40
0
 40
0
 40
0
 40
1
 40
1
 40
1
 40
1
 10
246.576664
 20
338.702283
 30
0.0
 10
246.576664
 20
338.642381
 30
0.0
 10
246.566786
 20
338.583648
 30
0.0
 10
246.559166
 20
338.525894
 30
0.0
  0
LWPOLYLINE
  5
353
100
AcDbEntity
  8
Layer_1
 62
7
100
AcDbPolyline
 90
2
 70
1
 10
229.131803
 20
338.702283
 30
0.0
 10
243.974942
 20
338.702283
 30
0.0
  0
SPLINE
  5
354
100
AcDbEntity
  8
Layer_1
 62
7
100
AcDbSpline
 70
8
 71
3
 72
8
 73
4
 74
0
 40
0
 40
0
 40
0
 40
0
 40
1
 40
1
 40
1
 40
1
 10
261.561055
 20
346.119436
 30
0.0
 10
261.476332
 20
346.102107
 30
0.0
 10
261.395137
 20
346.092992
 30
0.0
 10
261.305277
 20
346.092992
 30
0.0
  0
SPLINE
  5
355
100
AcDbEntity
  8
Layer_1
 62
7
100
AcDbSpline
 70
8
 71
3
 72
8
 73
4
 74
0
 40
0
 40
0
 40
0
 40
0
 40
1
 40
1
 40
1
 40
1
 10
261.305277
 20
346.092992
 30
0.0
 10
260.586457
 20
346.092992
 30
0.0
 10
259.999999
 20
346.679452
 30
0.0
 10
259.999999
 20
347.398269
 30
0.0
  0
SPLINE
  5
356
100
AcDbEntity
  8
Layer_1
 62
7
100
AcDbSpline
 70
8
 71
3
 72
8
 73
4
 74
0
 40
0
 40
0
 40
0
 40
0
 40
1
 40
1
 40
1
 40
1
 10
259.999999
 20
347.398269
 30
0.0
 10
259.999999
 20
348.117087
 30
0.0
 10
260.586457
 20
348.703547
 30
0.0
 10
261.305277
 20
348.703547
 30
0.0
  0
SPLINE
  5
357
100
AcDbEntity
  8
Layer_1
 62
7
100
AcDbSpline
 70
8
 71
3
 72
8
 73
4
 74
0
 40
0
 40
0
 40
0
 40
0
 40
1
 40
1
 40
1
 40
1
 10
261.305277
 20
348.703547
 30
0.0
 10
261.446360
 20
348.703547
 30
0.0
 10
261.574969
 20
348.674498
 30
0.0
 10
261.702166
 20
348.632992
 30
0.0
  0
LWPOLYLINE
  5
358
100
AcDbEntity
  8
Layer_1
 62
7
100
AcDbPolyline
 90
6
 70
1
 10
246.559166
 20
338.525894
 30
0.0
 10
246.559166
 20
335.703672
 30
0.0
 10
261.561055
 20
335.703672
 30
0.0
 10
261.561055
 20
338.702283
 30
0.0
 10
261.561055
 20
343.702908
 30
0.0
 10
261.561055
 20
346.119436
 30
0.0
  0
SPLINE
  5
359
100
AcDbEntity
  8
Layer_1
 62
7
100
AcDbSpline
 70
8
 71
3
 72
8
 73
4
 74
0
 40
0
 40
0
 40
0
 40
0
 40
1
 40
1
 40
1
 40
1
 10
261.561055
 20
363.723047
 30
0.0
 10
261.476332
 20
363.705719
 30
0.0
 10
261.395137
 20
363.696603
 30
0.0
 10
261.305277
 20
363.696603
 30
0.0
  0
SPLINE
  5
35a
100
AcDbEntity
  8
Layer_1
 62
7
100
AcDbSpline
 70
8
 71
3
 72
8
 73
4
 74
0
 40
0
 40
0
 40
0
 40
0
 40
1
 40
1
 40
1
 40
1
 10
261.305277
 20
363.696603
 30
0.0
 10
260.586457
 20
363.696603
 30
0.0
 10
259.999999
 20
364.283063
 30
0.0
 10
259.999999
 20
365.001881
 30
0.0
  0
SPLINE
  5
35b
100
AcDbEntity
  8
Layer_1
 62
7
100
AcDbSpline
 70
8
 71
3
 72
8
 73
4
 74
0
 40
0
 40
0
 40
0
 40
0
 40
1
 40
1
 40
1
 40
1
 10
259.999999
 20
365.001881
 30
0.0
 10
259.999999
 20
365.720698
 30
0.0
 10
260.586457
 20
366.307158
 30
0.0
 10
261.305277
 20
366.307158
 30
0.0
  0
SPLINE
  5
35c
100
AcDbEntity
  8
Layer_1
 62
7
100
AcDbSpline
 70
8
 71
3
 72
8
 73
4
 74
0
 40
0
 40
0
 40
0
 40
0
 40
1
 40
1
 40
1
 40
1
 10
261.305277
 20
366.307158
 30
0.0
 10
261.395137
 20
366.307158
 30
0.0
 10
261.476332
 20
366.298043
 30
0.0
 10
261.561055
 20
366.280714
 30
0.0
  0
LWPOLYLINE
  5
35d
100
AcDbEntity
  8
Layer_1
 62
7
100
AcDbPolyline
 90
5
 70
1
 10
261.702166
 20
348.632992
 30
0.0
 10
264.348000
 20
348.632992
 30
0.0
 10
264.348000
 20
363.696603
 30
0.0
 10
261.561055
 20
363.696603
 30
0.0
 10
261.561055
 20
363.723047
 30
0.0
  0
SPLINE
  5
35e
100
AcDbEntity
  8
Layer_1
 62
7
100
AcDbSpline
 70
8
 71
3
 72
8
 73
4
 74
0
 40
0
 40
0
 40
0
 40
0
 40
1
 40
1
 40
1
 40
1
 10
261.561055
 20
376.123214
 30
0.0
 10
261.476332
 20
376.105886
 30
0.0
 10
261.395137
 20
376.096770
 30
0.0
 10
261.305277
 20
376.096770
 30
0.0
  0
SPLINE
  5
35f
100
AcDbEntity
  8
Layer_1
 62
7
100
AcDbSpline
 70
8
 71
3
 72
8
 73
4
 74
0
 40
0
 40
0
 40
0
 40
0
 40
1
 40
1
 40
1
 40
1
 10
261.305277
 20
376.096770
 30
0.0
 10
260.586457
 20
376.096770
 30
0.0
 10
259.999999
 20
376.683230
 30
0.0
 10
259.999999
 20
377.402048
 30
0.0
  0
SPLINE
  5
360
100
AcDbEntity
  8
Layer_1
 62
7
100
AcDbSpline
 70
8
 71
3
 72
8
 73
4
 74
0
 40
0
 40
0
 40
0
 40
0
 40
1
 40
1
 40
1
 40
1
 10
259.999999
 20
377.402048
 30
0.0
 10
259.999999
 20
378.120865
 30
0.0
 10
260.586457
 20
378.698506
 30
0.0
 10
261.305277
 20
378.698506
 30
0.0
  0
SPLINE
  5
361
100
AcDbEntity
  8
Layer_1
 62
7
100
AcDbSpline
 70
8
 71
3
 72
8
 73
4
 74
0
 40
0
 40
0
 40
0
 40
0
 40
1
 40
1
 40
1
 40
1
 10
261.305277
 20
378.698506
 30
0.0
 10
261.452766
 20
378.698506
 30
0.0
 10
261.587612
 20
378.673162
 30
0.0
 10
261.719805
 20
378.627950
 30
0.0
  0
LWPOLYLINE
  5
362
100
AcDbEntity
  8
Layer_1
 62
7
100
AcDbPolyline
 90
2
 70
1
 10
261.561055
 20
366.280714
 30
0.0
 10
261.561055
 20
376.123214
 30
0.0
  0
SPLINE
  5
363
100
AcDbEntity
  8
Layer_1
 62
7
100
AcDbSpline
 70
8
 71
3
 72
8
 73
4
 74
0
 40
0
 40
0
 40
0
 40
0
 40
1
 40
1
 40
1
 40
1
 10
261.561055
 20
393.726825
 30
0.0
 10
261.476332
 20
393.709497
 30
0.0
 10
261.395137
 20
393.700381
 30
0.0
 10
261.305277
 20
393.700381
 30
0.0
  0
SPLINE
  5
364
100
AcDbEntity
  8
Layer_1
 62
7
100
AcDbSpline
 70
8
 71
3
 72
8
 73
4
 74
0
 40
0
 40
0
 40
0
 40
0
 40
1
 40
1
 40
1
 40
1
 10
261.305277
 20
393.700381
 30
0.0
 10
260.586457
 20
393.700381
 30
0.0
 10
259.999999
 20
394.286842
 30
0.0
 10
259.999999
 20
395.005659
 30
0.0
  0
SPLINE
  5
365
100
AcDbEntity
  8
Layer_1
 62
7
100
AcDbSpline
 70
8
 71
3
 72
8
 73
4
 74
0
 40
0
 40
0
 40
0
 40
0
 40
1
 40
1
 40
1
 40
1
 10
259.999999
 20
395.005659
 30
0.0
 10
259.999999
 20
395.724476
 30
0.0
 10
260.586457
 20
396.302117
 30
0.0
 10
261.305277
 20
396.302117
 30
0.0
  0
SPLINE
  5
366
100
AcDbEntity
  8
Layer_1
 62
7
100
AcDbSpline
 70
8
 71
3
 72
8
 73
4
 74
0
 40
0
 40
0
 40
0
 40
0
 40
1
 40
1
 40
1
 40
1
 10
261.305277
 20
396.302117
 30
0.0
 10
261.395137
 20
396.302117
 30
0.0
 10
261.476332
 20
396.293001
 30
0.0
 10
261.561055
 20
396.275673
 30
0.0
  0
LWPOLYLINE
  5
367
100
AcDbEntity
  8
Layer_1
 62
7
100
AcDbPolyline
 90
5
 70
1
 10
261.719805
 20
378.627950
 30
0.0
 10
264.348000
 20
378.627950
 30
0.0
 10
264.348000
 20
393.700381
 30
0.0
 10
261.561055
 20
393.700381
 30
0.0
 10
261.561055
 20
393.726825
 30
0.0
  0
SPLINE
  5
368
100
AcDbEntity
  8
Layer_1
 62
7
100
AcDbSpline
 70
8
 71
3
 72
8
 73
4
 74
0
 40
0
 40
0
 40
0
 40
0
 40
1
 40
1
 40
1
 40
1
 10
261.561055
 20
401.126367
 30
0.0
 10
261.476332
 20
401.109039
 30
0.0
 10
261.395137
 20
401.099923
 30
0.0
 10
261.305277
 20
401.099923
 30
0.0
  0
SPLINE
  5
369
100
AcDbEntity
  8
Layer_1
 62
7
100
AcDbSpline
 70
8
 71
3
 72
8
 73
4
 74
0
 40
0
 40
0
 40
0
 40
0
 40
1
 40
1
 40
1
 40
1
 10
261.305277
 20
401.099923
 30
0.0
 10
260.586457
 20
401.099923
 30
0.0
 10
259.999999
 20
401.677564
 30
0.0
 10
259.999999
 20
402.396381
 30
0.0
  0
SPLINE
  5
36a
100
AcDbEntity
  8
Layer_1
 62
7
100
AcDbSpline
 70
8
 71
3
 72
8
 73
4
 74
0
 40
0
 40
0
 40
0
 40
0
 40
1
 40
1
 40
1
 40
1
 10
259.999999
 20
402.396381
 30
0.0
 10
259.999999
 20
403.115199
 30
0.0
 10
260.586457
 20
403.701659
 30
0.0
 10
261.305277
 20
403.701659
 30
0.0
  0
SPLINE
  5
36b
100
AcDbEntity
  8
Layer_1
 62
7
100
AcDbSpline
 70
8
 71
3
 72
8
 73
4
 74
0
 40
0
 40
0
 40
0
 40
0
 40
1
 40
1
 40
1
 40
1
 10
261.305277
 20
403.701659
 30
0.0
 10
261.446360
 20
403.701659
 30
0.0
 10
261.574969
 20
403.672610
 30
0.0
 10
261.702166
 20
403.631104
 30
0.0
  0
LWPOLYLINE
  5
36c
100
AcDbEntity
  8
Layer_1
 62
7
100
AcDbPolyline
 90
2
 70
1
 10
261.561055
 20
396.275673
 30
0.0
 10
261.561055
 20
401.126367
 30
0.0
  0
SPLINE
  5
36d
100
AcDbEntity
  8
Layer_1
 62
7
100
AcDbSpline
 70
8
 71
3
 72
8
 73
4
 74
0
 40
0
 40
0
 40
0
 40
0
 40
1
 40
1
 40
1
 40
1
 10
261.561055
 20
418.729978
 30
0.0
 10
261.476332
 20
418.712650
 30
0.0
 10
261.395137
 20
418.703534
 30
0.0
 10
261.305277
 20
418.703534
 30
0.0
  0
SPLINE
  5
36e
100
AcDbEntity
  8
Layer_1
 62
7
100
AcDbSpline
 70
8
 71
3
 72
8
 73
4
 74
0
 40
0
 40
0
 40
0
 40
0
 40
1
 40
1
 40
1
 40
1
 10
261.305277
 20
418.703534
 30
0.0
 10
260.586457
 20
418.703534
 30
0.0
 10
259.999999
 20
419.281175
 30
0.0
 10
259.999999
 20
419.999993
 30
0.0
  0
SPLINE
  5
36f
100
AcDbEntity
  8
Layer_1
 62
7
100
AcDbSpline
 70
8
 71
3
 72
8
 73
4
 74
0
 40
0
 40
0
 40
0
 40
0
 40
1
 40
1
 40
1
 40
1
 10
259.999999
 20
419.999993
 30
0.0
 10
259.999999
 20
420.718810
 30
0.0
 10
260.586457
 20
421.305270
 30
0.0
 10
261.305277
 20
421.305270
 30
0.0
  0
SPLINE
  5
370
100
AcDbEntity
  8
Layer_1
 62
7
100
AcDbSpline
 70
8
 71
3
 72
8
 73
4
 74
0
 40
0
 40
0
 40
0
 40
0
 40
1
 40
1
 40
1
 40
1
 10
261.305277
 20
421.305270
 30
0.0
 10
261.395137
 20
421.305270
 30
0.0
 10
261.476332
 20
421.296155
 30
0.0
 10
261.561055
 20
421.278826
 30
0.0
  0
LWPOLYLINE
  5
371
100
AcDbEntity
  8
Layer_1
 62
7
100
AcDbPolyline
 90
5
 70
1
 10
261.702166
 20
403.631104
 30
0.0
 10
264.348000
 20
403.631104
 30
0.0
 10
264.348000
 20
418.703534
 30
0.0
 10
261.561055
 20
418.703534
 30
0.0
 10
261.561055
 20
418.729978
 30
0.0
  0
SPLINE
  5
372
100
AcDbEntity
  8
Layer_1
 62
7
100
AcDbSpline
 70
8
 71
3
 72
8
 73
4
 74
0
 40
0
 40
0
 40
0
 40
0
 40
1
 40
1
 40
1
 40
1
 10
261.561055
 20
431.121326
 30
0.0
 10
261.476332
 20
431.103998
 30
0.0
 10
261.395137
 20
431.094882
 30
0.0
 10
261.305277
 20
431.094882
 30
0.0
  0
SPLINE
  5
373
100
AcDbEntity
  8
Layer_1
 62
7
100
AcDbSpline
 70
8
 71
3
 72
8
 73
4
 74
0
 40
0
 40
0
 40
0
 40
0
 40
1
 40
1
 40
1
 40
1
 10
261.305277
 20
431.094882
 30
0.0
 10
260.586457
 20
431.094882
 30
0.0
 10
259.999999
 20
431.681342
 30
0.0
 10
259.999999
 20
432.400160
 30
0.0
  0
SPLINE
  5
374
100
AcDbEntity
  8
Layer_1
 62
7
100
AcDbSpline
 70
8
 71
3
 72
8
 73
4
 74
0
 40
0
 40
0
 40
0
 40
0
 40
1
 40
1
 40
1
 40
1
 10
259.999999
 20
432.400160
 30
0.0
 10
259.999999
 20
433.118977
 30
0.0
 10
260.586457
 20
433.696618
 30
0.0
 10
261.305277
 20
433.696618
 30
0.0
  0
SPLINE
  5
375
100
AcDbEntity
  8
Layer_1
 62
7
100
AcDbSpline
 70
8
 71
3
 72
8
 73
4
 74
0
 40
0
 40
0
 40
0
 40
0
 40
1
 40
1
 40
1
 40
1
 10
261.305277
 20
433.696618
 30
0.0
 10
261.395137
 20
433.696618
 30
0.0
 10
261.476332
 20
433.687502
 30
0.0
 10
261.561055
 20
433.670174
 30
0.0
  0
LWPOLYLINE
  5
376
100
AcDbEntity
  8
Layer_1
 62
7
100
AcDbPolyline
 90
2
 70
1
 10
261.561055
 20
421.278826
 30
0.0
 10
261.561055
 20
431.121326
 30
0.0
  0
SPLINE
  5
377
100
AcDbEntity
  8
Layer_1
 62
7
100
AcDbSpline
 70
8
 71
3
 72
8
 73
4
 74
0
 40
0
 40
0
 40
0
 40
0
 40
1
 40
1
 40
1
 40
1
 10
261.561055
 20
448.724937
 30
0.0
 10
261.476332
 20
448.707609
 30
0.0
 10
261.395137
 20
448.698493
 30
0.0
 10
261.305277
 20
448.698493
 30
0.0
  0
SPLINE
  5
378
100
AcDbEntity
  8
Layer_1
 62
7
100
AcDbSpline
 70
8
 71
3
 72
8
 73
4
 74
0
 40
0
 40
0
 40
0
 40
0
 40
1
 40
1
 40
1
 40
1
 10
261.305277
 20
448.698493
 30
0.0
 10
260.586457
 20
448.698493
 30
0.0
 10
259.999999
 20
449.284954
 30
0.0
 10
259.999999
 20
450.003771
 30
0.0
  0
SPLINE
  5
379
100
AcDbEntity
  8
Layer_1
 62
7
100
AcDbSpline
 70
8
 71
3
 72
8
 73
4
 74
0
 40
0
 40
0
 40
0
 40
0
 40
1
 40
1
 40
1
 40
1
 10
259.999999
 20
450.003771
 30
0.0
 10
259.999999
 20
450.722588
 30
0.0
 10
260.586457
 20
451.300229
 30
0.0
 10
261.305277
 20
451.300229
 30
0.0
  0
SPLINE
  5
37a
100
AcDbEntity
  8
Layer_1
 62
7
100
AcDbSpline
 70
8
 71
3
 72
8
 73
4
 74
0
 40
0
 40
0
 40
0
 40
0
 40
1
 40
1
 40
1
 40
1
 10
261.305277
 20
451.300229
 30
0.0
 10
261.395137
 20
451.300229
 30
0.0
 10
261.476332
 20
451.291113
 30
0.0
 10
261.561055
 20
451.273785
 30
0.0
  0
LWPOLYLINE
  5
37b
100
AcDbEntity
  8
Layer_1
 62
7
100
AcDbPolyline
 90
6
 70
1
 10
261.561055
 20
433.670174
 30
0.0
 10
261.561055
 20
433.696618
 30
0.0
 10
264.559666
 20
433.696618
 30
0.0
 10
264.559666
 20
448.698493
 30
0.0
 10
261.561055
 20
448.698493
 30
0.0
 10
261.561055
 20
448.724937
 30
0.0
  0
SPLINE
  5
37c
100
AcDbEntity
  8
Layer_1
 62
7
100
AcDbSpline
 70
8
 71
3
 72
8
 73
4
 74
0
 40
0
 40
0
 40
0
 40
0
 40
1
 40
1
 40
1
 40
1
 10
246.559166
 20
458.876146
 30
0.0
 10
246.567068
 20
458.818392
 30
0.0
 10
246.576664
 20
458.759659
 30
0.0
 10
246.576664
 20
458.699757
 30
0.0
  0
SPLINE
  5
37d
100
AcDbEntity
  8
Layer_1
 62
7
100
AcDbSpline
 70
8
 71
3
 72
8
 73
4
 74
0
 40
0
 40
0
 40
0
 40
0
 40
1
 40
1
 40
1
 40
1
 10
246.576664
 20
458.699757
 30
0.0
 10
246.576664
 20
457.980940
 30
0.0
 10
245.999040
 20
457.394479
 30
0.0
 10
245.280220
 20
457.394479
 30
0.0
  0
SPLINE
  5
37e
100
AcDbEntity
  8
Layer_1
 62
7
100
AcDbSpline
 70
8
 71
3
 72
8
 73
4
 74
0
 40
0
 40
0
 40
0
 40
0
 40
1
 40
1
 40
1
 40
1
 10
245.280220
 20
457.394479
 30
0.0
 10
244.561400
 20
457.394479
 30
0.0
 10
243.974942
 20
457.980940
 30
0.0
 10
243.974942
 20
458.699757
 30
0.0
  0
LWPOLYLINE
  5
37f
100
AcDbEntity
  8
Layer_1
 62
7
100
AcDbPolyline
 90
6
 70
1
 10
261.561055
 20
451.273785
 30
0.0
 10
261.561055
 20
453.699132
 30
0.0
 10
261.561055
 20
458.699757
 30
0.0
 10
261.561055
 20
461.698368
 30
0.0
 10
246.559166
 20
461.698368
 30
0.0
 10
246.559166
 20
458.876146
 30
0.0
  0
SPLINE
  5
380
100
AcDbEntity
  8
Layer_1
 62
7
100
AcDbSpline
 70
8
 71
3
 72
8
 73
4
 74
0
 40
0
 40
0
 40
0
 40
0
 40
1
 40
1
 40
1
 40
1
 10
229.105358
 20
458.699757
 30
0.0
 10
229.105358
 20
457.980940
 30
0.0
 10
228.527706
 20
457.394479
 30
0.0
 10
227.808886
 20
457.394479
 30
0.0
  0
SPLINE
  5
381
100
AcDbEntity
  8
Layer_1
 62
7
100
AcDbSpline
 70
8
 71
3
 72
8
 73
4
 74
0
 40
0
 40
0
 40
0
 40
0
 40
1
 40
1
 40
1
 40
1
 10
227.808886
 20
457.394479
 30
0.0
 10
227.090066
 20
457.394479
 30
0.0
 10
226.503608
 20
457.980940
 30
0.0
 10
226.503608
 20
458.699757
 30
0.0
  0
SPLINE
  5
382
100
AcDbEntity
  8
Layer_1
 62
7
100
AcDbSpline
 70
8
 71
3
 72
8
 73
4
 74
0
 40
0
 40
0
 40
0
 40
0
 40
1
 40
1
 40
1
 40
1
 10
226.503608
 20
458.699757
 30
0.0
 10
226.503608
 20
458.818590
 30
0.0
 10
226.526750
 20
458.934340
 30
0.0
 10
226.556525
 20
459.043715
 30
0.0
  0
LWPOLYLINE
  5
383
100
AcDbEntity
  8
Layer_1
 62
7
100
AcDbPolyline
 90
2
 70
1
 10
243.974942
 20
458.699757
 30
0.0
 10
229.105358
 20
458.699757
 30
0.0
  0
LWPOLYLINE
  5
384
100
AcDbEntity
  8
Layer_1
 62
7
100
AcDbPolyline
 90
4
 70
1
 10
226.556525
 20
459.043715
 30
0.0
 10
226.556525
 20
461.698368
 30
0.0
 10
211.563469
 20
461.698368
 30
0.0
 10
211.563554
 20
461.698185
 30
0.0
  0
SPLINE
  5
385
100
AcDbEntity
  8
Layer_1
 62
7
100
AcDbSpline
 70
8
 71
3
 72
8
 73
4
 74
0
 40
0
 40
0
 40
0
 40
0
 40
1
 40
1
 40
1
 40
1
 10
24.971667
 20
389.999990
 30
0.0
 10
24.860220
 20
389.394359
 30
0.0
 10
24.339528
 20
388.932838
 30
0.0
 10
23.701667
 20
388.932838
 30
0.0
  0
SPLINE
  5
386
100
AcDbEntity
  8
Layer_1
 62
7
100
AcDbSpline
 70
8
 71
3
 72
8
 73
4
 74
0
 40
0
 40
0
 40
0
 40
0
 40
1
 40
1
 40
1
 40
1
 10
23.701667
 20
388.932838
 30
0.0
 10
23.063805
 20
388.932838
 30
0.0
 10
22.534294
 20
389.394359
 30
0.0
 10
22.422847
 20
389.999990
 30
0.0
  0
LWPOLYLINE
  5
387
100
AcDbEntity
  8
Layer_1
 62
7
100
AcDbPolyline
 90
4
 70
1
 10
24.998125
 20
393.236727
 30
0.0
 10
24.998125
 20
390.238115
 30
0.0
 10
24.998125
 20
389.999990
 30
0.0
 10
24.971667
 20
389.999990
 30
0.0
  0
SPLINE
  5
388
100
AcDbEntity
  8
Layer_1
 62
7
100
AcDbSpline
 70
8
 71
3
 72
8
 73
4
 74
0
 40
0
 40
0
 40
0
 40
0
 40
1
 40
1
 40
1
 40
1
 10
15.005694
 20
377.837977
 30
0.0
 10
15.724511
 20
377.837977
 30
0.0
 10
16.302153
 20
377.260335
 30
0.0
 10
16.302153
 20
376.541518
 30
0.0
  0
SPLINE
  5
389
100
AcDbEntity
  8
Layer_1
 62
7
100
AcDbSpline
 70
8
 71
3
 72
8
 73
4
 74
0
 40
0
 40
0
 40
0
 40
0
 40
1
 40
1
 40
1
 40
1
 10
16.302153
 20
376.541518
 30
0.0
 10
16.302153
 20
375.822701
 30
0.0
 10
15.724511
 20
375.236240
 30
0.0
 10
15.005694
 20
375.236240
 30
0.0
  0
LWPOLYLINE
  5
38a
100
AcDbEntity
  8
Layer_1
 62
7
100
AcDbPolyline
 90
3
 70
1
 10
22.422847
 20
389.999990
 30
0.0
 10
15.005694
 20
389.999990
 30
0.0
 10
15.005694
 20
377.837977
 30
0.0
  0
SPLINE
  5
38b
100
AcDbEntity
  8
Layer_1
 62
7
100
AcDbSpline
 70
8
 71
3
 72
8
 73
4
 74
0
 40
0
 40
0
 40
0
 40
0
 40
1
 40
1
 40
1
 40
1
 10
15.005694
 20
355.242560
 30
0.0
 10
15.724511
 20
355.242560
 30
0.0
 10
16.302153
 20
354.656099
 30
0.0
 10
16.302153
 20
353.937282
 30
0.0
  0
SPLINE
  5
38c
100
AcDbEntity
  8
Layer_1
 62
7
100
AcDbSpline
 70
8
 71
3
 72
8
 73
4
 74
0
 40
0
 40
0
 40
0
 40
0
 40
1
 40
1
 40
1
 40
1
 10
16.302153
 20
353.937282
 30
0.0
 10
16.302153
 20
353.218465
 30
0.0
 10
15.724511
 20
352.632004
 30
0.0
 10
15.005694
 20
352.632004
 30
0.0
  0
LWPOLYLINE
  5
38d
100
AcDbEntity
  8
Layer_1
 62
7
100
AcDbPolyline
 90
4
 70
1
 10
15.005694
 20
375.236240
 30
0.0
 10
11.998264
 20
375.236240
 30
0.0
 10
11.998264
 20
355.242560
 30
0.0
 10
15.005694
 20
355.242560
 30
0.0
  0
SPLINE
  5
38e
100
AcDbEntity
  8
Layer_1
 62
7
100
AcDbSpline
 70
8
 71
3
 72
8
 73
4
 74
0
 40
0
 40
0
 40
0
 40
0
 40
1
 40
1
 40
1
 40
1
 10
22.396389
 20
340.240685
 30
0.0
 10
22.396389
 20
340.959502
 30
0.0
 10
22.982849
 20
341.537143
 30
0.0
 10
23.701667
 20
341.537143
 30
0.0
  0
SPLINE
  5
38f
100
AcDbEntity
  8
Layer_1
 62
7
100
AcDbSpline
 70
8
 71
3
 72
8
 73
4
 74
0
 40
0
 40
0
 40
0
 40
0
 40
1
 40
1
 40
1
 40
1
 10
23.701667
 20
341.537143
 30
0.0
 10
24.420484
 20
341.537143
 30
0.0
 10
24.998125
 20
340.959502
 30
0.0
 10
24.998125
 20
340.240685
 30
0.0
  0
LWPOLYLINE
  5
390
100
AcDbEntity
  8
Layer_1
 62
7
100
AcDbPolyline
 90
3
 70
1
 10
15.005694
 20
352.632004
 30
0.0
 10
15.005694
 20
340.240685
 30
0.0
 10
22.396389
 20
340.240685
 30
0.0
  0
SPLINE
  5
391
100
AcDbEntity
  8
Layer_1
 62
7
100
AcDbSpline
 70
8
 71
3
 72
8
 73
4
 74
0
 40
0
 40
0
 40
0
 40
0
 40
1
 40
1
 40
1
 40
1
 10
39.999999
 20
340.240685
 30
0.0
 10
39.999999
 20
340.959502
 30
0.0
 10
40.586460
 20
341.537143
 30
0.0
 10
41.305277
 20
341.537143
 30
0.0
  0
SPLINE
  5
392
100
AcDbEntity
  8
Layer_1
 62
7
100
AcDbSpline
 70
8
 71
3
 72
8
 73
4
 74
0
 40
0
 40
0
 40
0
 40
0
 40
1
 40
1
 40
1
 40
1
 10
41.305277
 20
341.537143
 30
0.0
 10
42.024094
 20
341.537143
 30
0.0
 10
42.601735
 20
340.959502
 30
0.0
 10
42.601735
 20
340.240685
 30
0.0
  0
LWPOLYLINE
  5
393
100
AcDbEntity
  8
Layer_1
 62
7
100
AcDbPolyline
 90
4
 70
1
 10
24.998125
 20
340.240685
 30
0.0
 10
24.998125
 20
337.242074
 30
0.0
 10
39.999999
 20
337.242074
 30
0.0
 10
39.999999
 20
340.240685
 30
0.0
  0
SPLINE
  5
394
100
AcDbEntity
  8
Layer_1
 62
7
100
AcDbSpline
 70
8
 71
3
 72
8
 73
4
 74
0
 40
0
 40
0
 40
0
 40
0
 40
1
 40
1
 40
1
 40
1
 10
137.401943
 20
340.240685
 30
0.0
 10
137.401943
 20
340.959502
 30
0.0
 10
137.979585
 20
341.537143
 30
0.0
 10
138.698402
 20
341.537143
 30
0.0
  0
SPLINE
  5
395
100
AcDbEntity
  8
Layer_1
 62
7
100
AcDbSpline
 70
8
 71
3
 72
8
 73
4
 74
0
 40
0
 40
0
 40
0
 40
0
 40
1
 40
1
 40
1
 40
1
 10
138.698402
 20
341.537143
 30
0.0
 10
139.417219
 20
341.537143
 30
0.0
 10
140.003680
 20
340.959502
 30
0.0
 10
140.003680
 20
340.240685
 30
0.0
  0
LWPOLYLINE
  5
396
100
AcDbEntity
  8
Layer_1
 62
7
100
AcDbPolyline
 90
6
 70
1
 10
42.601735
 20
340.240685
 30
0.0
 10
62.824721
 20
340.240685
 30
0.0
 10
62.824721
 20
365.234990
 30
0.0
 10
125.001805
 20
365.234990
 30
0.0
 10
125.001805
 20
340.240685
 30
0.0
 10
137.401943
 20
340.240685
 30
0.0
  0
SPLINE
  5
397
100
AcDbEntity
  8
Layer_1
 62
7
100
AcDbSpline
 70
8
 71
3
 72
8
 73
4
 74
0
 40
0
 40
0
 40
0
 40
0
 40
1
 40
1
 40
1
 40
1
 10
155.005555
 20
340.240685
 30
0.0
 10
155.005555
 20
340.959502
 30
0.0
 10
155.583196
 20
341.537143
 30
0.0
 10
156.302013
 20
341.537143
 30
0.0
  0
SPLINE
  5
398
100
AcDbEntity
  8
Layer_1
 62
7
100
AcDbSpline
 70
8
 71
3
 72
8
 73
4
 74
0
 40
0
 40
0
 40
0
 40
0
 40
1
 40
1
 40
1
 40
1
 10
156.302013
 20
341.537143
 30
0.0
 10
157.020830
 20
341.537143
 30
0.0
 10
157.607291
 20
340.959502
 30
0.0
 10
157.607291
 20
340.240685
 30
0.0
  0
LWPOLYLINE
  5
399
100
AcDbEntity
  8
Layer_1
 62
7
100
AcDbPolyline
 90
4
 70
1
 10
140.003680
 20
340.240685
 30
0.0
 10
140.003680
 20
337.242074
 30
0.0
 10
155.005555
 20
337.242074
 30
0.0
 10
155.005555
 20
340.240685
 30
0.0
  0
SPLINE
  5
39a
100
AcDbEntity
  8
Layer_1
 62
7
100
AcDbSpline
 70
8
 71
3
 72
8
 73
4
 74
0
 40
0
 40
0
 40
0
 40
0
 40
1
 40
1
 40
1
 40
1
 10
167.396874
 20
340.240685
 30
0.0
 10
167.396874
 20
340.959502
 30
0.0
 10
167.983335
 20
341.537143
 30
0.0
 10
168.702152
 20
341.537143
 30
0.0
  0
SPLINE
  5
39b
100
AcDbEntity
  8
Layer_1
 62
7
100
AcDbSpline
 70
8
 71
3
 72
8
 73
4
 74
0
 40
0
 40
0
 40
0
 40
0
 40
1
 40
1
 40
1
 40
1
 10
168.702152
 20
341.537143
 30
0.0
 10
169.420969
 20
341.537143
 30
0.0
 10
169.998610
 20
340.959502
 30
0.0
 10
169.998610
 20
340.240685
 30
0.0
  0
LWPOLYLINE
  5
39c
100
AcDbEntity
  8
Layer_1
 62
7
100
AcDbPolyline
 90
2
 70
1
 10
157.607291
 20
340.240685
 30
0.0
 10
167.396874
 20
340.240685
 30
0.0
  0
SPLINE
  5
39d
100
AcDbEntity
  8
Layer_1
 62
7
100
AcDbSpline
 70
8
 71
3
 72
8
 73
4
 74
0
 40
0
 40
0
 40
0
 40
0
 40
1
 40
1
 40
1
 40
1
 10
185.000485
 20
340.240685
 30
0.0
 10
185.000485
 20
340.959502
 30
0.0
 10
185.586943
 20
341.537143
 30
0.0
 10
186.305763
 20
341.537143
 30
0.0
  0
SPLINE
  5
39e
100
AcDbEntity
  8
Layer_1
 62
7
100
AcDbSpline
 70
8
 71
3
 72
8
 73
4
 74
0
 40
0
 40
0
 40
0
 40
0
 40
1
 40
1
 40
1
 40
1
 10
186.305763
 20
341.537143
 30
0.0
 10
187.024583
 20
341.537143
 30
0.0
 10
187.602179
 20
340.959502
 30
0.0
 10
187.602235
 20
340.240685
 30
0.0
  0
LWPOLYLINE
  5
39f
100
AcDbEntity
  8
Layer_1
 62
7
100
AcDbPolyline
 90
4
 70
1
 10
169.998610
 20
340.240685
 30
0.0
 10
169.998610
 20
337.242074
 30
0.0
 10
185.000485
 20
337.242074
 30
0.0
 10
185.000485
 20
340.240685
 30
0.0
  0
SPLINE
  5
3a0
100
AcDbEntity
  8
Layer_1
 62
7
100
AcDbSpline
 70
8
 71
3
 72
8
 73
4
 74
0
 40
0
 40
0
 40
0
 40
0
 40
1
 40
1
 40
1
 40
1
 10
194.763624
 20
352.658463
 30
0.0
 10
194.157862
 20
352.769909
 30
0.0
 10
193.696457
 20
353.299420
 30
0.0
 10
193.696457
 20
353.937282
 30
0.0
  0
SPLINE
  5
3a1
100
AcDbEntity
  8
Layer_1
 62
7
100
AcDbSpline
 70
8
 71
3
 72
8
 73
4
 74
0
 40
0
 40
0
 40
0
 40
0
 40
1
 40
1
 40
1
 40
1
 10
193.696457
 20
353.937282
 30
0.0
 10
193.696457
 20
354.575144
 30
0.0
 10
194.157891
 20
355.104655
 30
0.0
 10
194.763624
 20
355.216102
 30
0.0
  0
LWPOLYLINE
  5
3a2
100
AcDbEntity
  8
Layer_1
 62
7
100
AcDbPolyline
 90
3
 70
1
 10
187.602235
 20
340.240685
 30
0.0
 10
194.763624
 20
340.240685
 30
0.0
 10
194.763624
 20
352.658463
 30
0.0
  0
SPLINE
  5
3a3
100
AcDbEntity
  8
Layer_1
 62
7
100
AcDbSpline
 70
8
 71
3
 72
8
 73
4
 74
0
 40
0
 40
0
 40
0
 40
0
 40
1
 40
1
 40
1
 40
1
 10
194.763624
 20
375.262671
 30
0.0
 10
194.157834
 20
375.374117
 30
0.0
 10
193.696457
 20
375.903628
 30
0.0
 10
193.696457
 20
376.541490
 30
0.0
  0
SPLINE
  5
3a4
100
AcDbEntity
  8
Layer_1
 62
7
100
AcDbSpline
 70
8
 71
3
 72
8
 73
4
 74
0
 40
0
 40
0
 40
0
 40
0
 40
1
 40
1
 40
1
 40
1
 10
193.696457
 20
376.541490
 30
0.0
 10
193.696457
 20
377.179352
 30
0.0
 10
194.157891
 20
377.700043
 30
0.0
 10
194.763624
 20
377.811490
 30
0.0
  0
LWPOLYLINE
  5
3a5
100
AcDbEntity
  8
Layer_1
 62
7
100
AcDbPolyline
 90
8
 70
1
 10
194.763624
 20
355.216102
 30
0.0
 10
194.763624
 20
355.242546
 30
0.0
 10
195.001735
 20
355.242546
 30
0.0
 10
198.000346
 20
355.242546
 30
0.0
 10
198.000346
 20
375.236226
 30
0.0
 10
195.001735
 20
375.236226
 30
0.0
 10
194.763624
 20
375.236226
 30
0.0
 10
194.763624
 20
375.262671
 30
0.0
  0
SPLINE
  5
3a6
100
AcDbEntity
  8
Layer_1
 62
7
100
AcDbSpline
 70
8
 71
3
 72
8
 73
4
 74
0
 40
0
 40
0
 40
0
 40
0
 40
1
 40
1
 40
1
 40
1
 10
187.575763
 20
389.999962
 30
0.0
 10
187.464313
 20
389.394330
 30
0.0
 10
186.943613
 20
388.932809
 30
0.0
 10
186.305763
 20
388.932809
 30
0.0
  0
SPLINE
  5
3a7
100
AcDbEntity
  8
Layer_1
 62
7
100
AcDbSpline
 70
8
 71
3
 72
8
 73
4
 74
0
 40
0
 40
0
 40
0
 40
0
 40
1
 40
1
 40
1
 40
1
 10
186.305763
 20
388.932809
 30
0.0
 10
185.667912
 20
388.932809
 30
0.0
 10
185.138379
 20
389.394330
 30
0.0
 10
185.026958
 20
389.999962
 30
0.0
  0
LWPOLYLINE
  5
3a8
100
AcDbEntity
  8
Layer_1
 62
7
100
AcDbPolyline
 90
3
 70
1
 10
194.763624
 20
377.811490
 30
0.0
 10
194.763624
 20
389.999962
 30
0.0
 10
187.575763
 20
389.999962
 30
0.0
  0
SPLINE
  5
3a9
100
AcDbEntity
  8
Layer_1
 62
7
100
AcDbSpline
 70
8
 71
3
 72
8
 73
4
 74
0
 40
0
 40
0
 40
0
 40
0
 40
1
 40
1
 40
1
 40
1
 10
169.972166
 20
389.999962
 30
0.0
 10
169.860719
 20
389.394330
 30
0.0
 10
169.340028
 20
388.932809
 30
0.0
 10
168.702166
 20
388.932809
 30
0.0
  0
SPLINE
  5
3aa
100
AcDbEntity
  8
Layer_1
 62
7
100
AcDbSpline
 70
8
 71
3
 72
8
 73
4
 74
0
 40
0
 40
0
 40
0
 40
0
 40
1
 40
1
 40
1
 40
1
 10
168.702166
 20
388.932809
 30
0.0
 10
168.064304
 20
388.932809
 30
0.0
 10
167.534793
 20
389.394330
 30
0.0
 10
167.423346
 20
389.999962
 30
0.0
  0
LWPOLYLINE
  5
3ab
100
AcDbEntity
  8
Layer_1
 62
7
100
AcDbPolyline
 90
8
 70
1
 10
185.026958
 20
389.999962
 30
0.0
 10
185.000485
 20
389.999962
 30
0.0
 10
185.000485
 20
390.238087
 30
0.0
 10
185.000485
 20
393.236698
 30
0.0
 10
169.998610
 20
393.236698
 30
0.0
 10
169.998610
 20
390.238087
 30
0.0
 10
169.998610
 20
389.999962
 30
0.0
 10
169.972166
 20
389.999962
 30
0.0
  0
SPLINE
  5
3ac
100
AcDbEntity
  8
Layer_1
 62
7
100
AcDbSpline
 70
8
 71
3
 72
8
 73
4
 74
0
 40
0
 40
0
 40
0
 40
0
 40
1
 40
1
 40
1
 40
1
 10
157.580846
 20
389.999962
 30
0.0
 10
157.469400
 20
389.394330
 30
0.0
 10
156.939889
 20
388.932809
 30
0.0
 10
156.302027
 20
388.932809
 30
0.0
  0
SPLINE
  5
3ad
100
AcDbEntity
  8
Layer_1
 62
7
100
AcDbSpline
 70
8
 71
3
 72
8
 73
4
 74
0
 40
0
 40
0
 40
0
 40
0
 40
1
 40
1
 40
1
 40
1
 10
156.302027
 20
388.932809
 30
0.0
 10
155.664165
 20
388.932809
 30
0.0
 10
155.143474
 20
389.394330
 30
0.0
 10
155.032027
 20
389.999962
 30
0.0
  0
LWPOLYLINE
  5
3ae
100
AcDbEntity
  8
Layer_1
 62
7
100
AcDbPolyline
 90
2
 70
1
 10
167.423346
 20
389.999962
 30
0.0
 10
157.580846
 20
389.999962
 30
0.0
  0
SPLINE
  5
3af
100
AcDbEntity
  8
Layer_1
 62
7
100
AcDbSpline
 70
8
 71
3
 72
8
 73
4
 74
0
 40
0
 40
0
 40
0
 40
0
 40
1
 40
1
 40
1
 40
1
 10
139.977264
 20
389.999962
 30
0.0
 10
139.865817
 20
389.394330
 30
0.0
 10
139.336306
 20
388.932809
 30
0.0
 10
138.698444
 20
388.932809
 30
0.0
  0
SPLINE
  5
3b0
100
AcDbEntity
  8
Layer_1
 62
7
100
AcDbSpline
 70
8
 71
3
 72
8
 73
4
 74
0
 40
0
 40
0
 40
0
 40
0
 40
1
 40
1
 40
1
 40
1
 10
138.698444
 20
388.932809
 30
0.0
 10
138.060582
 20
388.932809
 30
0.0
 10
137.539891
 20
389.394330
 30
0.0
 10
137.428444
 20
389.999962
 30
0.0
  0
LWPOLYLINE
  5
3b1
100
AcDbEntity
  8
Layer_1
 62
7
100
AcDbPolyline
 90
8
 70
1
 10
155.032027
 20
389.999962
 30
0.0
 10
155.005583
 20
389.999962
 30
0.0
 10
155.005583
 20
390.238087
 30
0.0
 10
155.005583
 20
393.236698
 30
0.0
 10
140.003708
 20
393.236698
 30
0.0
 10
140.003708
 20
390.238087
 30
0.0
 10
140.003708
 20
389.999962
 30
0.0
 10
139.977264
 20
389.999962
 30
0.0
  0
SPLINE
  5
3b2
100
AcDbEntity
  8
Layer_1
 62
7
100
AcDbSpline
 70
8
 71
3
 72
8
 73
4
 74
0
 40
0
 40
0
 40
0
 40
0
 40
1
 40
1
 40
1
 40
1
 10
127.577125
 20
389.999962
 30
0.0
 10
127.465678
 20
389.394330
 30
0.0
 10
126.944986
 20
388.932809
 30
0.0
 10
126.307125
 20
388.932809
 30
0.0
  0
SPLINE
  5
3b3
100
AcDbEntity
  8
Layer_1
 62
7
100
AcDbSpline
 70
8
 71
3
 72
8
 73
4
 74
0
 40
0
 40
0
 40
0
 40
0
 40
1
 40
1
 40
1
 40
1
 10
126.307125
 20
388.932809
 30
0.0
 10
125.669263
 20
388.932809
 30
0.0
 10
125.139752
 20
389.394330
 30
0.0
 10
125.028305
 20
389.999962
 30
0.0
  0
LWPOLYLINE
  5
3b4
100
AcDbEntity
  8
Layer_1
 62
7
100
AcDbPolyline
 90
2
 70
1
 10
137.428444
 20
389.999962
 30
0.0
 10
127.577125
 20
389.999962
 30
0.0
  0
SPLINE
  5
3b5
100
AcDbEntity
  8
Layer_1
 62
7
100
AcDbSpline
 70
8
 71
3
 72
8
 73
4
 74
0
 40
0
 40
0
 40
0
 40
0
 40
1
 40
1
 40
1
 40
1
 10
109.973542
 20
389.999962
 30
0.0
 10
109.862095
 20
389.394330
 30
0.0
 10
109.341404
 20
388.932809
 30
0.0
 10
108.703542
 20
388.932809
 30
0.0
  0
SPLINE
  5
3b6
100
AcDbEntity
  8
Layer_1
 62
7
100
AcDbSpline
 70
8
 71
3
 72
8
 73
4
 74
0
 40
0
 40
0
 40
0
 40
0
 40
1
 40
1
 40
1
 40
1
 10
108.703542
 20
388.932809
 30
0.0
 10
108.065680
 20
388.932809
 30
0.0
 10
107.536169
 20
389.394330
 30
0.0
 10
107.424722
 20
389.999962
 30
0.0
  0
LWPOLYLINE
  5
3b7
100
AcDbEntity
  8
Layer_1
 62
7
100
AcDbPolyline
 90
8
 70
1
 10
125.028305
 20
389.999962
 30
0.0
 10
125.001861
 20
389.999962
 30
0.0
 10
125.001861
 20
390.238087
 30
0.0
 10
125.001861
 20
393.236698
 30
0.0
 10
109.999986
 20
393.236698
 30
0.0
 10
109.999986
 20
390.238087
 30
0.0
 10
109.999986
 20
389.999962
 30
0.0
 10
109.973542
 20
389.999962
 30
0.0
  0
SPLINE
  5
3b8
100
AcDbEntity
  8
Layer_1
 62
7
100
AcDbSpline
 70
8
 71
3
 72
8
 73
4
 74
0
 40
0
 40
0
 40
0
 40
0
 40
1
 40
1
 40
1
 40
1
 10
102.582847
 20
389.999962
 30
0.0
 10
102.471401
 20
389.394330
 30
0.0
 10
101.941890
 20
388.932809
 30
0.0
 10
101.304028
 20
388.932809
 30
0.0
  0
SPLINE
  5
3b9
100
AcDbEntity
  8
Layer_1
 62
7
100
AcDbSpline
 70
8
 71
3
 72
8
 73
4
 74
0
 40
0
 40
0
 40
0
 40
0
 40
1
 40
1
 40
1
 40
1
 10
101.304028
 20
388.932809
 30
0.0
 10
100.666166
 20
388.932809
 30
0.0
 10
100.136655
 20
389.394330
 30
0.0
 10
100.025208
 20
389.999962
 30
0.0
  0
LWPOLYLINE
  5
3ba
100
AcDbEntity
  8
Layer_1
 62
7
100
AcDbPolyline
 90
2
 70
1
 10
107.424722
 20
389.999962
 30
0.0
 10
102.582847
 20
389.999962
 30
0.0
  0
SPLINE
  5
3bb
100
AcDbEntity
  8
Layer_1
 62
7
100
AcDbSpline
 70
8
 71
3
 72
8
 73
4
 74
0
 40
0
 40
0
 40
0
 40
0
 40
1
 40
1
 40
1
 40
1
 10
84.979264
 20
389.999962
 30
0.0
 10
84.867818
 20
389.394330
 30
0.0
 10
84.338307
 20
388.932809
 30
0.0
 10
83.700445
 20
388.932809
 30
0.0
  0
SPLINE
  5
3bc
100
AcDbEntity
  8
Layer_1
 62
7
100
AcDbSpline
 70
8
 71
3
 72
8
 73
4
 74
0
 40
0
 40
0
 40
0
 40
0
 40
1
 40
1
 40
1
 40
1
 10
83.700445
 20
388.932809
 30
0.0
 10
83.062583
 20
388.932809
 30
0.0
 10
82.533072
 20
389.394330
 30
0.0
 10
82.421626
 20
389.999962
 30
0.0
  0
LWPOLYLINE
  5
3bd
100
AcDbEntity
  8
Layer_1
 62
7
100
AcDbPolyline
 90
8
 70
1
 10
100.025208
 20
389.999962
 30
0.0
 10
99.998764
 20
389.999962
 30
0.0
 10
99.998764
 20
390.238087
 30
0.0
 10
99.998764
 20
393.236698
 30
0.0
 10
85.005709
 20
393.236698
 30
0.0
 10
85.005709
 20
390.238087
 30
0.0
 10
85.005709
 20
389.999962
 30
0.0
 10
84.979264
 20
389.999962
 30
0.0
  0
SPLINE
  5
3be
100
AcDbEntity
  8
Layer_1
 62
7
100
AcDbSpline
 70
8
 71
3
 72
8
 73
4
 74
0
 40
0
 40
0
 40
0
 40
0
 40
1
 40
1
 40
1
 40
1
 10
72.579126
 20
389.999962
 30
0.0
 10
72.467679
 20
389.394330
 30
0.0
 10
71.938168
 20
388.932809
 30
0.0
 10
71.300306
 20
388.932809
 30
0.0
  0
SPLINE
  5
3bf
100
AcDbEntity
  8
Layer_1
 62
7
100
AcDbSpline
 70
8
 71
3
 72
8
 73
4
 74
0
 40
0
 40
0
 40
0
 40
0
 40
1
 40
1
 40
1
 40
1
 10
71.300306
 20
388.932809
 30
0.0
 10
70.662444
 20
388.932809
 30
0.0
 10
70.141753
 20
389.394330
 30
0.0
 10
70.030306
 20
389.999962
 30
0.0
  0
LWPOLYLINE
  5
3c0
100
AcDbEntity
  8
Layer_1
 62
7
100
AcDbPolyline
 90
2
 70
1
 10
82.421626
 20
389.999962
 30
0.0
 10
72.579126
 20
389.999962
 30
0.0
  0
SPLINE
  5
3c1
100
AcDbEntity
  8
Layer_1
 62
7
100
AcDbSpline
 70
8
 71
3
 72
8
 73
4
 74
0
 40
0
 40
0
 40
0
 40
0
 40
1
 40
1
 40
1
 40
1
 10
54.975543
 20
389.999962
 30
0.0
 10
54.864096
 20
389.394330
 30
0.0
 10
54.334585
 20
388.932809
 30
0.0
 10
53.696723
 20
388.932809
 30
0.0
  0
SPLINE
  5
3c2
100
AcDbEntity
  8
Layer_1
 62
7
100
AcDbSpline
 70
8
 71
3
 72
8
 73
4
 74
0
 40
0
 40
0
 40
0
 40
0
 40
1
 40
1
 40
1
 40
1
 10
53.696723
 20
388.932809
 30
0.0
 10
53.058862
 20
388.932809
 30
0.0
 10
52.538170
 20
389.394330
 30
0.0
 10
52.426723
 20
389.999962
 30
0.0
  0
LWPOLYLINE
  5
3c3
100
AcDbEntity
  8
Layer_1
 62
7
100
AcDbPolyline
 90
8
 70
1
 10
70.030306
 20
389.999962
 30
0.0
 10
70.003862
 20
389.999962
 30
0.0
 10
70.003862
 20
390.238087
 30
0.0
 10
70.003862
 20
393.236698
 30
0.0
 10
55.001987
 20
393.236698
 30
0.0
 10
55.001987
 20
390.238087
 30
0.0
 10
55.001987
 20
389.999962
 30
0.0
 10
54.975543
 20
389.999962
 30
0.0
  0
SPLINE
  5
3c4
100
AcDbEntity
  8
Layer_1
 62
7
100
AcDbSpline
 70
8
 71
3
 72
8
 73
4
 74
0
 40
0
 40
0
 40
0
 40
0
 40
1
 40
1
 40
1
 40
1
 10
42.575404
 20
389.999962
 30
0.0
 10
42.463957
 20
389.394330
 30
0.0
 10
41.943266
 20
388.932809
 30
0.0
 10
41.305404
 20
388.932809
 30
0.0
  0
SPLINE
  5
3c5
100
AcDbEntity
  8
Layer_1
 62
7
100
AcDbSpline
 70
8
 71
3
 72
8
 73
4
 74
0
 40
0
 40
0
 40
0
 40
0
 40
1
 40
1
 40
1
 40
1
 10
41.305404
 20
388.932809
 30
0.0
 10
40.667542
 20
388.932809
 30
0.0
 10
40.138031
 20
389.394330
 30
0.0
 10
40.026584
 20
389.999962
 30
0.0
  0
LWPOLYLINE
  5
3c6
100
AcDbEntity
  8
Layer_1
 62
7
100
AcDbPolyline
 90
2
 70
1
 10
52.426723
 20
389.999962
 30
0.0
 10
42.575404
 20
389.999962
 30
0.0
  0
LWPOLYLINE
  5
3c7
100
AcDbEntity
  8
Layer_1
 62
7
100
AcDbPolyline
 90
6
 70
1
 10
40.026584
 20
389.999962
 30
0.0
 10
40.000140
 20
389.999962
 30
0.0
 10
40.000140
 20
390.238087
 30
0.0
 10
40.000140
 20
393.236698
 30
0.0
 10
24.998266
 20
393.236698
 30
0.0
 10
24.998125
 20
393.236727
 30
0.0
  0
LWPOLYLINE
  5
3c8
100
AcDbEntity
  8
Layer_1
 62
7
100
AcDbPolyline
 90
6
 70
1
 10
140.003680
 20
380.236865
 30
0.0
 10
169.998610
 20
380.236865
 30
0.0
 10
169.998610
 20
370.235615
 30
0.0
 10
140.003680
 20
370.235615
 30
0.0
 10
140.003680
 20
380.236865
 30
0.0
 10
140.003680
 20
380.236865
 30
0.0
  0
ENDSEC
  0
SECTION
  2
OBJECTS
  0
DICTIONARY
  5
C
330
0
100
AcDbDictionary
  3
ACAD_GROUP
350
D
  3
ACAD_MLINESTYLE
350
17
  0
DICTIONARY
  5
D
330
C
100
AcDbDictionary
  0
DICTIONARY
  5
1A
330
C
100
AcDbDictionary
  0
DICTIONARY
  5
17
330
C
100
AcDbDictionary
  3
STANDARD
350
18
  0
DICTIONARY
  5
19
330
C
100
AcDbDictionary
  0
ENDSEC
  0
EOF
