  0
SECTION
  2
HEADER
  9
$ACADVER
  1
AC1014
  9
$HANDSEED
  5
FFFF
  9
$MEASUREMENT
 70
     1
  0
ENDSEC
  0
SECTION
  2
TABLES
  0
TABLE
  2
VPORT
  5
8
330
0
100
AcDbSymbolTable
 70
     4
  0
VPORT
  5
2E
330
8
100
AcDbSymbolTableRecord
100
AcDbViewportTableRecord
  2
*ACTIVE
 70
     0
 10
0.0
 20
0.0
 11
1.0
 21
1.0
 12
210.0
 22
148.5
 13
0.0
 23
0.0
 14
10.0
 24
10.0
 15
10.0
 25
10.0
 16
0.0
 26
0.0
 36
1.0
 17
0.0
 27
0.0
 37
0.0
 40
341.0
 41
1.24
 42
50.0
 43
0.0
 44
0.0
 50
0.0
 51
0.0
 71
     0
 72
   100
 73
     1
 74
     3
 75
     0
 76
     0
 77
     0
 78
     0
  0
ENDTAB
  0
TABLE
  2
LTYPE
  5
5
330
0
100
AcDbSymbolTable
 70
     1
  0
LTYPE
  5
14
330
5
100
AcDbSymbolTableRecord
100
AcDbLinetypeTableRecord
  2
BYBLOCK
 70
     0
  3

 72
    65
 73
     0
 40
0.0
  0
LTYPE
  5
15
330
5
100
AcDbSymbolTableRecord
100
AcDbLinetypeTableRecord
  2
BYLAYER
 70
     0
  3

 72
    65
 73
     0
 40
0.0
  0
LTYPE
  5
16
330
5
100
AcDbSymbolTableRecord
100
AcDbLinetypeTableRecord
  2
CONTINUOUS
 70
     0
  3
Solid line
 72
    65
 73
     0
 40
0.0
  0
ENDTAB
  0
TABLE
  2
LAYER
  5
2
100
AcDbSymbolTable
 70
2
  0
LAYER
  5
50
100
AcDbSymbolTableRecord
100
AcDbLayerTableRecord
  2
0
 70
0
  6
CONTINUOUS
  0
LAYER
  5
51
100
AcDbSymbolTableRecord
100
AcDbLayerTableRecord
  2
Layer_1
 70
0
  6
CONTINUOUS
  0
ENDTAB
  0
TABLE
  2
STYLE
  5
3
330
0
100
AcDbSymbolTable
 70
     1
  0
STYLE
  5
11
330
3
100
AcDbSymbolTableRecord
100
AcDbTextStyleTableRecord
  2
STANDARD
 70
     0
 40
0.0
 41
1.0
 50
0.0
 71
     0
 42
2.5
  3
txt
  4

  0
ENDTAB
  0
TABLE
  2
VIEW
  5
6
330
0
100
AcDbSymbolTable
 70
     0
  0
ENDTAB
  0
TABLE
  2
UCS
  5
7
330
0
100
AcDbSymbolTable
 70
     0
  0
ENDTAB
  0
TABLE
  2
APPID
  5
9
330
0
100
AcDbSymbolTable
 70
     2
  0
APPID
  5
12
330
9
100
AcDbSymbolTableRecord
100
AcDbRegAppTableRecord
  2
ACAD
 70
     0
  0
ENDTAB
  0
TABLE
  2
DIMSTYLE
  5
A
330
0
100
AcDbSymbolTable
 70
     1
  0
DIMSTYLE
105
27
330
A
100
AcDbSymbolTableRecord
100
AcDbDimStyleTableRecord
  2
ISO-25
 70
     0
  3

  4

  5

  6

  7

 40
1.0
 41
2.5
 42
0.625
 43
3.75
 44
1.25
 45
0.0
 46
0.0
 47
0.0
 48
0.0
140
2.5
141
2.5
142
0.0
143
0.03937007874016
144
1.0
145
0.0
146
1.0
147
0.625
 71
     0
 72
     0
 73
     0
 74
     0
 75
     0
 76
     0
 77
     1
 78
     8
170
     0
171
     3
172
     1
173
     0
174
     0
175
     0
176
     0
177
     0
178
     0
270
     2
271
     2
272
     2
273
     2
274
     3
340
11
275
     0
280
     0
281
     0
282
     0
283
     0
284
     8
285
     0
286
     0
287
     3
288
     0
  0
ENDTAB
  0
TABLE
  2
BLOCK_RECORD
  5
1
330
0
100
AcDbSymbolTable
 70
     1
  0
BLOCK_RECORD
  5
1F
330
1
100
AcDbSymbolTableRecord
100
AcDbBlockTableRecord
  2
*MODEL_SPACE
  0
BLOCK_RECORD
  5
1B
330
1
100
AcDbSymbolTableRecord
100
AcDbBlockTableRecord
  2
*PAPER_SPACE
  0
ENDTAB
  0
ENDSEC
  0
SECTION
  2
BLOCKS
  0
BLOCK
  5
20
330
1F
100
AcDbEntity
  8
0
100
AcDbBlockBegin
  2
*MODEL_SPACE
 70
     0
 10
0.0
 20
0.0
 30
0.0
  3
*MODEL_SPACE
  1

  0
ENDBLK
  5
21
330
1F
100
AcDbEntity
  8
0
100
AcDbBlockEnd
  0
BLOCK
  5
1C
330
1B
100
AcDbEntity
 67
     1
  8
0
100
AcDbBlockBegin
  2
*PAPER_SPACE
  1

  0
ENDBLK
  5
1D
330
1B
100
AcDbEntity
 67
     1
  8
0
100
AcDbBlockEnd
  0
ENDSEC
  0
SECTION
  2
ENTITIES
  0
LWPOLYLINE
  5
100
100
AcDbEntity
  8
Layer_1
 62
7
100
AcDbPolyline
 90
5
 70
1
 10
113.412044
 20
525.239993
 30
0.0
 10
292.999998
 20
525.239993
 30
0.0
 10
292.999998
 20
405.652046
 30
0.0
 10
113.412044
 20
405.652046
 30
0.0
 10
113.412044
 20
525.239993
 30
0.0
  0
LWPOLYLINE
  5
101
100
AcDbEntity
  8
Layer_1
 62
7
100
AcDbPolyline
 90
5
 70
1
 10
102.999992
 20
535.239987
 30
0.0
 10
302.999981
 20
535.239987
 30
0.0
 10
302.999981
 20
524.999985
 30
0.0
 10
102.999992
 20
524.999985
 30
0.0
 10
102.999992
 20
535.239987
 30
0.0
  0
LWPOLYLINE
  5
102
100
AcDbEntity
  8
Layer_1
 62
7
100
AcDbPolyline
 90
5
 70
1
 10
290.000013
 20
525.239993
 30
0.0
 10
302.999975
 20
525.239993
 30
0.0
 10
302.999975
 20
405.239988
 30
0.0
 10
290.000013
 20
405.239988
 30
0.0
 10
290.000013
 20
525.239993
 30
0.0
  0
LWPOLYLINE
  5
103
100
AcDbEntity
  8
Layer_1
 62
7
100
AcDbPolyline
 90
5
 70
1
 10
102.999992
 20
525.239993
 30
0.0
 10
114.999998
 20
525.239993
 30
0.0
 10
114.999998
 20
405.239996
 30
0.0
 10
102.999992
 20
405.239996
 30
0.0
 10
102.999992
 20
525.239993
 30
0.0
  0
LWPOLYLINE
  5
104
100
AcDbEntity
  8
Layer_1
 62
7
100
AcDbPolyline
 90
5
 70
1
 10
102.999992
 20
409.999990
 30
0.0
 10
302.999998
 20
409.999990
 30
0.0
 10
302.999998
 20
395.239988
 30
0.0
 10
102.999992
 20
395.239988
 30
0.0
 10
102.999992
 20
409.999990
 30
0.0
  0
LWPOLYLINE
  5
105
100
AcDbEntity
  8
Layer_1
 62
7
100
AcDbPolyline
 90
5
 70
1
 10
122.999994
 20
528.239984
 30
0.0
 10
137.999994
 20
528.239984
 30
0.0
 10
137.999994
 20
525.239984
 30
0.0
 10
122.999994
 20
525.239984
 30
0.0
 10
122.999994
 20
528.239984
 30
0.0
  0
LWPOLYLINE
  5
106
100
AcDbEntity
  8
Layer_1
 62
7
100
AcDbPolyline
 90
5
 70
1
 10
267.999989
 20
528.239984
 30
0.0
 10
282.999989
 20
528.239984
 30
0.0
 10
282.999989
 20
525.239984
 30
0.0
 10
267.999989
 20
525.239984
 30
0.0
 10
267.999989
 20
528.239984
 30
0.0
  0
LWPOLYLINE
  5
107
100
AcDbEntity
  8
Layer_1
 62
7
100
AcDbPolyline
 90
5
 70
1
 10
152.999999
 20
528.240001
 30
0.0
 10
167.999998
 20
528.240001
 30
0.0
 10
167.999998
 20
525.240001
 30
0.0
 10
152.999999
 20
525.240001
 30
0.0
 10
152.999999
 20
528.240001
 30
0.0
  0
LWPOLYLINE
  5
108
100
AcDbEntity
  8
Layer_1
 62
7
100
AcDbPolyline
 90
5
 70
1
 10
237.999995
 20
528.240001
 30
0.0
 10
252.999995
 20
528.240001
 30
0.0
 10
252.999995
 20
525.240001
 30
0.0
 10
237.999995
 20
525.240001
 30
0.0
 10
237.999995
 20
528.240001
 30
0.0
  0
LWPOLYLINE
  5
109
100
AcDbEntity
  8
Layer_1
 62
7
100
AcDbPolyline
 90
5
 70
1
 10
182.999992
 20
528.240001
 30
0.0
 10
197.999992
 20
528.240001
 30
0.0
 10
197.999992
 20
525.240001
 30
0.0
 10
182.999992
 20
525.240001
 30
0.0
 10
182.999992
 20
528.240001
 30
0.0
  0
LWPOLYLINE
  5
10a
100
AcDbEntity
  8
Layer_1
 62
7
100
AcDbPolyline
 90
5
 70
1
 10
207.999999
 20
528.240001
 30
0.0
 10
222.999998
 20
528.240001
 30
0.0
 10
222.999998
 20
525.240001
 30
0.0
 10
207.999999
 20
525.240001
 30
0.0
 10
207.999999
 20
528.240001
 30
0.0
  0
LWPOLYLINE
  5
10b
100
AcDbEntity
  8
Layer_1
 62
7
100
AcDbPolyline
 90
5
 70
1
 10
109.999994
 20
515.239985
 30
0.0
 10
112.999994
 20
515.239985
 30
0.0
 10
112.999994
 20
500.239985
 30
0.0
 10
109.999994
 20
500.239985
 30
0.0
 10
109.999994
 20
515.239985
 30
0.0
  0
LWPOLYLINE
  5
10c
100
AcDbEntity
  8
Layer_1
 62
7
100
AcDbPolyline
 90
5
 70
1
 10
293.000007
 20
515.239985
 30
0.0
 10
296.000007
 20
515.239985
 30
0.0
 10
296.000007
 20
500.239985
 30
0.0
 10
293.000007
 20
500.239985
 30
0.0
 10
293.000007
 20
515.239985
 30
0.0
  0
LWPOLYLINE
  5
10d
100
AcDbEntity
  8
Layer_1
 62
7
100
AcDbPolyline
 90
5
 70
1
 10
109.999994
 20
485.239989
 30
0.0
 10
112.999994
 20
485.239989
 30
0.0
 10
112.999994
 20
470.239989
 30
0.0
 10
109.999994
 20
470.239989
 30
0.0
 10
109.999994
 20
485.239989
 30
0.0
  0
LWPOLYLINE
  5
10e
100
AcDbEntity
  8
Layer_1
 62
7
100
AcDbPolyline
 90
5
 70
1
 10
293.000007
 20
485.239989
 30
0.0
 10
296.000007
 20
485.239989
 30
0.0
 10
296.000007
 20
470.239989
 30
0.0
 10
293.000007
 20
470.239989
 30
0.0
 10
293.000007
 20
485.239989
 30
0.0
  0
LWPOLYLINE
  5
10f
100
AcDbEntity
  8
Layer_1
 62
7
100
AcDbPolyline
 90
5
 70
1
 10
109.999994
 20
430.239988
 30
0.0
 10
112.999994
 20
430.239988
 30
0.0
 10
112.999994
 20
415.239989
 30
0.0
 10
109.999994
 20
415.239989
 30
0.0
 10
109.999994
 20
430.239988
 30
0.0
  0
LWPOLYLINE
  5
110
100
AcDbEntity
  8
Layer_1
 62
7
100
AcDbPolyline
 90
5
 70
1
 10
109.999994
 20
460.239999
 30
0.0
 10
112.999994
 20
460.239999
 30
0.0
 10
112.999994
 20
445.239999
 30
0.0
 10
109.999994
 20
445.239999
 30
0.0
 10
109.999994
 20
460.239999
 30
0.0
  0
LWPOLYLINE
  5
111
100
AcDbEntity
  8
Layer_1
 62
7
100
AcDbPolyline
 90
5
 70
1
 10
293.000007
 20
430.239988
 30
0.0
 10
296.000007
 20
430.239988
 30
0.0
 10
296.000007
 20
415.239989
 30
0.0
 10
293.000007
 20
415.239989
 30
0.0
 10
293.000007
 20
430.239988
 30
0.0
  0
LWPOLYLINE
  5
112
100
AcDbEntity
  8
Layer_1
 62
7
100
AcDbPolyline
 90
5
 70
1
 10
293.000007
 20
460.239982
 30
0.0
 10
296.000007
 20
460.239982
 30
0.0
 10
296.000007
 20
445.239982
 30
0.0
 10
293.000007
 20
445.239982
 30
0.0
 10
293.000007
 20
460.239982
 30
0.0
  0
LWPOLYLINE
  5
113
100
AcDbEntity
  8
Layer_1
 62
7
100
AcDbPolyline
 90
5
 70
1
 10
122.999994
 20
405.239988
 30
0.0
 10
137.999994
 20
405.239988
 30
0.0
 10
137.999994
 20
402.239988
 30
0.0
 10
122.999994
 20
402.239988
 30
0.0
 10
122.999994
 20
405.239988
 30
0.0
  0
LWPOLYLINE
  5
114
100
AcDbEntity
  8
Layer_1
 62
7
100
AcDbPolyline
 90
5
 70
1
 10
152.999999
 20
405.239988
 30
0.0
 10
167.999998
 20
405.239988
 30
0.0
 10
167.999998
 20
402.239988
 30
0.0
 10
152.999999
 20
402.239988
 30
0.0
 10
152.999999
 20
405.239988
 30
0.0
  0
LWPOLYLINE
  5
115
100
AcDbEntity
  8
Layer_1
 62
7
100
AcDbPolyline
 90
5
 70
1
 10
182.999992
 20
405.239988
 30
0.0
 10
197.999992
 20
405.239988
 30
0.0
 10
197.999992
 20
402.239988
 30
0.0
 10
182.999992
 20
402.239988
 30
0.0
 10
182.999992
 20
405.239988
 30
0.0
  0
LWPOLYLINE
  5
116
100
AcDbEntity
  8
Layer_1
 62
7
100
AcDbPolyline
 90
5
 70
1
 10
267.999989
 20
405.239988
 30
0.0
 10
282.999989
 20
405.239988
 30
0.0
 10
282.999989
 20
402.239988
 30
0.0
 10
267.999989
 20
402.239988
 30
0.0
 10
267.999989
 20
405.239988
 30
0.0
  0
LWPOLYLINE
  5
117
100
AcDbEntity
  8
Layer_1
 62
7
100
AcDbPolyline
 90
5
 70
1
 10
237.999995
 20
405.239988
 30
0.0
 10
252.999995
 20
405.239988
 30
0.0
 10
252.999995
 20
402.239988
 30
0.0
 10
237.999995
 20
402.239988
 30
0.0
 10
237.999995
 20
405.239988
 30
0.0
  0
SPLINE
  5
118
100
AcDbEntity
  8
Layer_1
 62
7
100
AcDbSpline
 70
8
 71
3
 72
8
 73
4
 74
0
 40
0
 40
0
 40
0
 40
0
 40
1
 40
1
 40
1
 40
1
 10
120.535418
 20
501.473874
 30
0.0
 10
120.535418
 20
500.755055
 30
0.0
 10
119.952701
 20
500.172338
 30
0.0
 10
119.233882
 20
500.172338
 30
0.0
  0
SPLINE
  5
119
100
AcDbEntity
  8
Layer_1
 62
7
100
AcDbSpline
 70
8
 71
3
 72
8
 73
4
 74
0
 40
0
 40
0
 40
0
 40
0
 40
1
 40
1
 40
1
 40
1
 10
119.233882
 20
500.172338
 30
0.0
 10
118.515063
 20
500.172338
 30
0.0
 10
117.932346
 20
500.755055
 30
0.0
 10
117.932346
 20
501.473874
 30
0.0
  0
SPLINE
  5
11a
100
AcDbEntity
  8
Layer_1
 62
7
100
AcDbSpline
 70
8
 71
3
 72
8
 73
4
 74
0
 40
0
 40
0
 40
0
 40
0
 40
1
 40
1
 40
1
 40
1
 10
117.932346
 20
501.473874
 30
0.0
 10
117.932346
 20
502.192692
 30
0.0
 10
118.515063
 20
502.775410
 30
0.0
 10
119.233882
 20
502.775410
 30
0.0
  0
SPLINE
  5
11b
100
AcDbEntity
  8
Layer_1
 62
7
100
AcDbSpline
 70
8
 71
3
 72
8
 73
4
 74
0
 40
0
 40
0
 40
0
 40
0
 40
1
 40
1
 40
1
 40
1
 10
119.233882
 20
502.775410
 30
0.0
 10
119.952701
 20
502.775410
 30
0.0
 10
120.535418
 20
502.192692
 30
0.0
 10
120.535418
 20
501.473874
 30
0.0
  0
LWPOLYLINE
  5
11c
100
AcDbEntity
  8
Layer_1
 62
7
100
AcDbPolyline
 90
5
 70
1
 10
207.999999
 20
405.239988
 30
0.0
 10
222.999998
 20
405.239988
 30
0.0
 10
222.999998
 20
402.239988
 30
0.0
 10
207.999999
 20
402.239988
 30
0.0
 10
207.999999
 20
405.239988
 30
0.0
  0
SPLINE
  5
11d
100
AcDbEntity
  8
Layer_1
 62
7
100
AcDbSpline
 70
8
 71
3
 72
8
 73
4
 74
0
 40
0
 40
0
 40
0
 40
0
 40
1
 40
1
 40
1
 40
1
 10
120.535418
 20
455.914989
 30
0.0
 10
120.535418
 20
455.196170
 30
0.0
 10
119.952701
 20
454.613453
 30
0.0
 10
119.233882
 20
454.613453
 30
0.0
  0
SPLINE
  5
11e
100
AcDbEntity
  8
Layer_1
 62
7
100
AcDbSpline
 70
8
 71
3
 72
8
 73
4
 74
0
 40
0
 40
0
 40
0
 40
0
 40
1
 40
1
 40
1
 40
1
 10
119.233882
 20
454.613453
 30
0.0
 10
118.515063
 20
454.613453
 30
0.0
 10
117.932346
 20
455.196170
 30
0.0
 10
117.932346
 20
455.914989
 30
0.0
  0
SPLINE
  5
11f
100
AcDbEntity
  8
Layer_1
 62
7
100
AcDbSpline
 70
8
 71
3
 72
8
 73
4
 74
0
 40
0
 40
0
 40
0
 40
0
 40
1
 40
1
 40
1
 40
1
 10
117.932346
 20
455.914989
 30
0.0
 10
117.932346
 20
456.633808
 30
0.0
 10
118.515063
 20
457.216525
 30
0.0
 10
119.233882
 20
457.216525
 30
0.0
  0
SPLINE
  5
120
100
AcDbEntity
  8
Layer_1
 62
7
100
AcDbSpline
 70
8
 71
3
 72
8
 73
4
 74
0
 40
0
 40
0
 40
0
 40
0
 40
1
 40
1
 40
1
 40
1
 10
119.233882
 20
457.216525
 30
0.0
 10
119.952701
 20
457.216525
 30
0.0
 10
120.535418
 20
456.633808
 30
0.0
 10
120.535418
 20
455.914989
 30
0.0
  0
LWPOLYLINE
  5
121
100
AcDbEntity
  8
Layer_1
 62
7
100
AcDbPolyline
 90
2
 70
1
 10
120.535418
 20
501.473874
 30
0.0
 10
120.535418
 20
501.473874
 30
0.0
  0
LWPOLYLINE
  5
122
100
AcDbEntity
  8
Layer_1
 62
7
100
AcDbPolyline
 90
2
 70
1
 10
120.535418
 20
455.914989
 30
0.0
 10
120.535418
 20
455.914989
 30
0.0
  0
SPLINE
  5
123
100
AcDbEntity
  8
Layer_1
 62
7
100
AcDbSpline
 70
8
 71
3
 72
8
 73
4
 74
0
 40
0
 40
0
 40
0
 40
0
 40
1
 40
1
 40
1
 40
1
 10
167.107934
 20
488.414986
 30
0.0
 10
167.107934
 20
487.734050
 30
0.0
 10
166.555923
 20
487.182042
 30
0.0
 10
165.874988
 20
487.182042
 30
0.0
  0
SPLINE
  5
124
100
AcDbEntity
  8
Layer_1
 62
7
100
AcDbSpline
 70
8
 71
3
 72
8
 73
4
 74
0
 40
0
 40
0
 40
0
 40
0
 40
1
 40
1
 40
1
 40
1
 10
165.874988
 20
487.182042
 30
0.0
 10
165.194054
 20
487.182042
 30
0.0
 10
164.642043
 20
487.734050
 30
0.0
 10
164.642043
 20
488.414986
 30
0.0
  0
SPLINE
  5
125
100
AcDbEntity
  8
Layer_1
 62
7
100
AcDbSpline
 70
8
 71
3
 72
8
 73
4
 74
0
 40
0
 40
0
 40
0
 40
0
 40
1
 40
1
 40
1
 40
1
 10
164.642043
 20
488.414986
 30
0.0
 10
164.642043
 20
489.095922
 30
0.0
 10
165.194054
 20
489.647930
 30
0.0
 10
165.874988
 20
489.647930
 30
0.0
  0
SPLINE
  5
126
100
AcDbEntity
  8
Layer_1
 62
7
100
AcDbSpline
 70
8
 71
3
 72
8
 73
4
 74
0
 40
0
 40
0
 40
0
 40
0
 40
1
 40
1
 40
1
 40
1
 10
165.874988
 20
489.647930
 30
0.0
 10
166.555923
 20
489.647930
 30
0.0
 10
167.107934
 20
489.095922
 30
0.0
 10
167.107934
 20
488.414986
 30
0.0
  0
LWPOLYLINE
  5
127
100
AcDbEntity
  8
Layer_1
 62
7
100
AcDbPolyline
 90
5
 70
1
 10
162.999990
 20
491.368865
 30
0.0
 10
218.999991
 20
491.368865
 30
0.0
 10
218.999991
 20
406.368868
 30
0.0
 10
162.999990
 20
406.368868
 30
0.0
 10
162.999990
 20
491.368865
 30
0.0
  0
SPLINE
  5
128
100
AcDbEntity
  8
Layer_1
 62
7
100
AcDbSpline
 70
8
 71
3
 72
8
 73
4
 74
0
 40
0
 40
0
 40
0
 40
0
 40
1
 40
1
 40
1
 40
1
 10
216.107932
 20
488.414986
 30
0.0
 10
216.107932
 20
487.734050
 30
0.0
 10
215.555922
 20
487.182042
 30
0.0
 10
214.874987
 20
487.182042
 30
0.0
  0
SPLINE
  5
129
100
AcDbEntity
  8
Layer_1
 62
7
100
AcDbSpline
 70
8
 71
3
 72
8
 73
4
 74
0
 40
0
 40
0
 40
0
 40
0
 40
1
 40
1
 40
1
 40
1
 10
214.874987
 20
487.182042
 30
0.0
 10
214.194052
 20
487.182042
 30
0.0
 10
213.642042
 20
487.734050
 30
0.0
 10
213.642042
 20
488.414986
 30
0.0
  0
SPLINE
  5
12a
100
AcDbEntity
  8
Layer_1
 62
7
100
AcDbSpline
 70
8
 71
3
 72
8
 73
4
 74
0
 40
0
 40
0
 40
0
 40
0
 40
1
 40
1
 40
1
 40
1
 10
213.642042
 20
488.414986
 30
0.0
 10
213.642042
 20
489.095922
 30
0.0
 10
214.194052
 20
489.647930
 30
0.0
 10
214.874987
 20
489.647930
 30
0.0
  0
SPLINE
  5
12b
100
AcDbEntity
  8
Layer_1
 62
7
100
AcDbSpline
 70
8
 71
3
 72
8
 73
4
 74
0
 40
0
 40
0
 40
0
 40
0
 40
1
 40
1
 40
1
 40
1
 10
214.874987
 20
489.647930
 30
0.0
 10
215.555922
 20
489.647930
 30
0.0
 10
216.107932
 20
489.095922
 30
0.0
 10
216.107932
 20
488.414986
 30
0.0
  0
LWPOLYLINE
  5
12c
100
AcDbEntity
  8
Layer_1
 62
7
100
AcDbPolyline
 90
2
 70
1
 10
167.107934
 20
488.414986
 30
0.0
 10
167.107934
 20
488.414986
 30
0.0
  0
SPLINE
  5
12d
100
AcDbEntity
  8
Layer_1
 62
7
100
AcDbSpline
 70
8
 71
3
 72
8
 73
4
 74
0
 40
0
 40
0
 40
0
 40
0
 40
1
 40
1
 40
1
 40
1
 10
167.107934
 20
430.414986
 30
0.0
 10
167.107934
 20
429.734051
 30
0.0
 10
166.555923
 20
429.182042
 30
0.0
 10
165.874988
 20
429.182042
 30
0.0
  0
SPLINE
  5
12e
100
AcDbEntity
  8
Layer_1
 62
7
100
AcDbSpline
 70
8
 71
3
 72
8
 73
4
 74
0
 40
0
 40
0
 40
0
 40
0
 40
1
 40
1
 40
1
 40
1
 10
165.874988
 20
429.182042
 30
0.0
 10
165.194054
 20
429.182042
 30
0.0
 10
164.642043
 20
429.734051
 30
0.0
 10
164.642043
 20
430.414986
 30
0.0
  0
SPLINE
  5
12f
100
AcDbEntity
  8
Layer_1
 62
7
100
AcDbSpline
 70
8
 71
3
 72
8
 73
4
 74
0
 40
0
 40
0
 40
0
 40
0
 40
1
 40
1
 40
1
 40
1
 10
164.642043
 20
430.414986
 30
0.0
 10
164.642043
 20
431.095922
 30
0.0
 10
165.194054
 20
431.647931
 30
0.0
 10
165.874988
 20
431.647931
 30
0.0
  0
SPLINE
  5
130
100
AcDbEntity
  8
Layer_1
 62
7
100
AcDbSpline
 70
8
 71
3
 72
8
 73
4
 74
0
 40
0
 40
0
 40
0
 40
0
 40
1
 40
1
 40
1
 40
1
 10
165.874988
 20
431.647931
 30
0.0
 10
166.555923
 20
431.647931
 30
0.0
 10
167.107934
 20
431.095922
 30
0.0
 10
167.107934
 20
430.414986
 30
0.0
  0
LWPOLYLINE
  5
131
100
AcDbEntity
  8
Layer_1
 62
7
100
AcDbPolyline
 90
2
 70
1
 10
216.107932
 20
488.414986
 30
0.0
 10
216.107932
 20
488.414986
 30
0.0
  0
SPLINE
  5
132
100
AcDbEntity
  8
Layer_1
 62
7
100
AcDbSpline
 70
8
 71
3
 72
8
 73
4
 74
0
 40
0
 40
0
 40
0
 40
0
 40
1
 40
1
 40
1
 40
1
 10
216.107932
 20
430.414986
 30
0.0
 10
216.107932
 20
429.734051
 30
0.0
 10
215.555922
 20
429.182042
 30
0.0
 10
214.874987
 20
429.182042
 30
0.0
  0
SPLINE
  5
133
100
AcDbEntity
  8
Layer_1
 62
7
100
AcDbSpline
 70
8
 71
3
 72
8
 73
4
 74
0
 40
0
 40
0
 40
0
 40
0
 40
1
 40
1
 40
1
 40
1
 10
214.874987
 20
429.182042
 30
0.0
 10
214.194052
 20
429.182042
 30
0.0
 10
213.642042
 20
429.734051
 30
0.0
 10
213.642042
 20
430.414986
 30
0.0
  0
SPLINE
  5
134
100
AcDbEntity
  8
Layer_1
 62
7
100
AcDbSpline
 70
8
 71
3
 72
8
 73
4
 74
0
 40
0
 40
0
 40
0
 40
0
 40
1
 40
1
 40
1
 40
1
 10
213.642042
 20
430.414986
 30
0.0
 10
213.642042
 20
431.095922
 30
0.0
 10
214.194052
 20
431.647931
 30
0.0
 10
214.874987
 20
431.647931
 30
0.0
  0
SPLINE
  5
135
100
AcDbEntity
  8
Layer_1
 62
7
100
AcDbSpline
 70
8
 71
3
 72
8
 73
4
 74
0
 40
0
 40
0
 40
0
 40
0
 40
1
 40
1
 40
1
 40
1
 10
214.874987
 20
431.647931
 30
0.0
 10
215.555922
 20
431.647931
 30
0.0
 10
216.107932
 20
431.095922
 30
0.0
 10
216.107932
 20
430.414986
 30
0.0
  0
LWPOLYLINE
  5
136
100
AcDbEntity
  8
Layer_1
 62
7
100
AcDbPolyline
 90
2
 70
1
 10
167.107934
 20
430.414986
 30
0.0
 10
167.107934
 20
430.414986
 30
0.0
  0
LWPOLYLINE
  5
137
100
AcDbEntity
  8
Layer_1
 62
7
100
AcDbPolyline
 90
2
 70
1
 10
216.107932
 20
430.414986
 30
0.0
 10
216.107932
 20
430.414986
 30
0.0
  0
SPLINE
  5
138
100
AcDbEntity
  8
Layer_1
 62
7
100
AcDbSpline
 70
8
 71
3
 72
8
 73
4
 74
0
 40
0
 40
0
 40
0
 40
0
 40
1
 40
1
 40
1
 40
1
 10
175.807934
 20
521.674989
 30
0.0
 10
175.807934
 20
520.994053
 30
0.0
 10
175.255925
 20
520.442045
 30
0.0
 10
174.574990
 20
520.442045
 30
0.0
  0
SPLINE
  5
139
100
AcDbEntity
  8
Layer_1
 62
7
100
AcDbSpline
 70
8
 71
3
 72
8
 73
4
 74
0
 40
0
 40
0
 40
0
 40
0
 40
1
 40
1
 40
1
 40
1
 10
174.574990
 20
520.442045
 30
0.0
 10
173.894054
 20
520.442045
 30
0.0
 10
173.342045
 20
520.994053
 30
0.0
 10
173.342045
 20
521.674989
 30
0.0
  0
SPLINE
  5
13a
100
AcDbEntity
  8
Layer_1
 62
7
100
AcDbSpline
 70
8
 71
3
 72
8
 73
4
 74
0
 40
0
 40
0
 40
0
 40
0
 40
1
 40
1
 40
1
 40
1
 10
173.342045
 20
521.674989
 30
0.0
 10
173.342045
 20
522.355925
 30
0.0
 10
173.894054
 20
522.907933
 30
0.0
 10
174.574990
 20
522.907933
 30
0.0
  0
SPLINE
  5
13b
100
AcDbEntity
  8
Layer_1
 62
7
100
AcDbSpline
 70
8
 71
3
 72
8
 73
4
 74
0
 40
0
 40
0
 40
0
 40
0
 40
1
 40
1
 40
1
 40
1
 10
174.574990
 20
522.907933
 30
0.0
 10
175.255925
 20
522.907933
 30
0.0
 10
175.807934
 20
522.355925
 30
0.0
 10
175.807934
 20
521.674989
 30
0.0
  0
LWPOLYLINE
  5
13c
100
AcDbEntity
  8
Layer_1
 62
7
100
AcDbPolyline
 90
5
 70
1
 10
172.355544
 20
524.111104
 30
0.0
 10
237.955545
 20
524.111104
 30
0.0
 10
237.955545
 20
433.611107
 30
0.0
 10
172.355544
 20
433.611107
 30
0.0
 10
172.355544
 20
524.111104
 30
0.0
  0
SPLINE
  5
13d
100
AcDbEntity
  8
Layer_1
 62
7
100
AcDbSpline
 70
8
 71
3
 72
8
 73
4
 74
0
 40
0
 40
0
 40
0
 40
0
 40
1
 40
1
 40
1
 40
1
 10
235.507936
 20
521.239988
 30
0.0
 10
235.507936
 20
520.559052
 30
0.0
 10
234.955927
 20
520.007044
 30
0.0
 10
234.274992
 20
520.007044
 30
0.0
  0
SPLINE
  5
13e
100
AcDbEntity
  8
Layer_1
 62
7
100
AcDbSpline
 70
8
 71
3
 72
8
 73
4
 74
0
 40
0
 40
0
 40
0
 40
0
 40
1
 40
1
 40
1
 40
1
 10
234.274992
 20
520.007044
 30
0.0
 10
233.594056
 20
520.007044
 30
0.0
 10
233.042047
 20
520.559052
 30
0.0
 10
233.042047
 20
521.239988
 30
0.0
  0
SPLINE
  5
13f
100
AcDbEntity
  8
Layer_1
 62
7
100
AcDbSpline
 70
8
 71
3
 72
8
 73
4
 74
0
 40
0
 40
0
 40
0
 40
0
 40
1
 40
1
 40
1
 40
1
 10
233.042047
 20
521.239988
 30
0.0
 10
233.042047
 20
521.920925
 30
0.0
 10
233.594056
 20
522.472932
 30
0.0
 10
234.274992
 20
522.472932
 30
0.0
  0
SPLINE
  5
140
100
AcDbEntity
  8
Layer_1
 62
7
100
AcDbSpline
 70
8
 71
3
 72
8
 73
4
 74
0
 40
0
 40
0
 40
0
 40
0
 40
1
 40
1
 40
1
 40
1
 10
234.274992
 20
522.472932
 30
0.0
 10
234.955927
 20
522.472932
 30
0.0
 10
235.507936
 20
521.920925
 30
0.0
 10
235.507936
 20
521.239988
 30
0.0
  0
LWPOLYLINE
  5
141
100
AcDbEntity
  8
Layer_1
 62
7
100
AcDbPolyline
 90
2
 70
1
 10
175.807934
 20
521.674989
 30
0.0
 10
175.807934
 20
521.674989
 30
0.0
  0
SPLINE
  5
142
100
AcDbEntity
  8
Layer_1
 62
7
100
AcDbSpline
 70
8
 71
3
 72
8
 73
4
 74
0
 40
0
 40
0
 40
0
 40
0
 40
1
 40
1
 40
1
 40
1
 10
175.256407
 20
444.968987
 30
0.0
 10
175.256407
 20
444.266804
 30
0.0
 10
174.687174
 20
443.697571
 30
0.0
 10
173.984989
 20
443.697571
 30
0.0
  0
SPLINE
  5
143
100
AcDbEntity
  8
Layer_1
 62
7
100
AcDbSpline
 70
8
 71
3
 72
8
 73
4
 74
0
 40
0
 40
0
 40
0
 40
0
 40
1
 40
1
 40
1
 40
1
 10
173.984989
 20
443.697571
 30
0.0
 10
173.282807
 20
443.697571
 30
0.0
 10
172.713573
 20
444.266804
 30
0.0
 10
172.713573
 20
444.968987
 30
0.0
  0
SPLINE
  5
144
100
AcDbEntity
  8
Layer_1
 62
7
100
AcDbSpline
 70
8
 71
3
 72
8
 73
4
 74
0
 40
0
 40
0
 40
0
 40
0
 40
1
 40
1
 40
1
 40
1
 10
172.713573
 20
444.968987
 30
0.0
 10
172.713573
 20
445.671171
 30
0.0
 10
173.282807
 20
446.240404
 30
0.0
 10
173.984989
 20
446.240404
 30
0.0
  0
SPLINE
  5
145
100
AcDbEntity
  8
Layer_1
 62
7
100
AcDbSpline
 70
8
 71
3
 72
8
 73
4
 74
0
 40
0
 40
0
 40
0
 40
0
 40
1
 40
1
 40
1
 40
1
 10
173.984989
 20
446.240404
 30
0.0
 10
174.687174
 20
446.240404
 30
0.0
 10
175.256407
 20
445.671171
 30
0.0
 10
175.256407
 20
444.968987
 30
0.0
  0
LWPOLYLINE
  5
146
100
AcDbEntity
  8
Layer_1
 62
7
100
AcDbPolyline
 90
2
 70
1
 10
235.507936
 20
521.239988
 30
0.0
 10
235.507936
 20
521.239988
 30
0.0
  0
SPLINE
  5
147
100
AcDbEntity
  8
Layer_1
 62
7
100
AcDbSpline
 70
8
 71
3
 72
8
 73
4
 74
0
 40
0
 40
0
 40
0
 40
0
 40
1
 40
1
 40
1
 40
1
 10
235.431758
 20
435.714987
 30
0.0
 10
235.431758
 20
435.020892
 30
0.0
 10
234.869085
 20
434.458216
 30
0.0
 10
234.174988
 20
434.458216
 30
0.0
  0
SPLINE
  5
148
100
AcDbEntity
  8
Layer_1
 62
7
100
AcDbSpline
 70
8
 71
3
 72
8
 73
4
 74
0
 40
0
 40
0
 40
0
 40
0
 40
1
 40
1
 40
1
 40
1
 10
234.174988
 20
434.458216
 30
0.0
 10
233.480893
 20
434.458216
 30
0.0
 10
232.918217
 20
435.020892
 30
0.0
 10
232.918217
 20
435.714987
 30
0.0
  0
SPLINE
  5
149
100
AcDbEntity
  8
Layer_1
 62
7
100
AcDbSpline
 70
8
 71
3
 72
8
 73
4
 74
0
 40
0
 40
0
 40
0
 40
0
 40
1
 40
1
 40
1
 40
1
 10
232.918217
 20
435.714987
 30
0.0
 10
232.918217
 20
436.409081
 30
0.0
 10
233.480893
 20
436.971757
 30
0.0
 10
234.174988
 20
436.971757
 30
0.0
  0
SPLINE
  5
14a
100
AcDbEntity
  8
Layer_1
 62
7
100
AcDbSpline
 70
8
 71
3
 72
8
 73
4
 74
0
 40
0
 40
0
 40
0
 40
0
 40
1
 40
1
 40
1
 40
1
 10
234.174988
 20
436.971757
 30
0.0
 10
234.869085
 20
436.971757
 30
0.0
 10
235.431758
 20
436.409081
 30
0.0
 10
235.431758
 20
435.714987
 30
0.0
  0
LWPOLYLINE
  5
14b
100
AcDbEntity
  8
Layer_1
 62
7
100
AcDbPolyline
 90
2
 70
1
 10
175.256407
 20
444.968987
 30
0.0
 10
175.256407
 20
444.968987
 30
0.0
  0
SPLINE
  5
14c
100
AcDbEntity
  8
Layer_1
 62
7
100
AcDbSpline
 70
8
 71
3
 72
8
 73
4
 74
0
 40
0
 40
0
 40
0
 40
0
 40
1
 40
1
 40
1
 40
1
 10
159.050615
 20
509.143223
 30
0.0
 10
158.334642
 20
509.070511
 30
0.0
 10
157.780615
 20
508.467267
 30
0.0
 10
157.780615
 20
507.732112
 30
0.0
  0
SPLINE
  5
14d
100
AcDbEntity
  8
Layer_1
 62
7
100
AcDbSpline
 70
8
 71
3
 72
8
 73
4
 74
0
 40
0
 40
0
 40
0
 40
0
 40
1
 40
1
 40
1
 40
1
 10
157.780615
 20
507.732112
 30
0.0
 10
157.780615
 20
507.604686
 30
0.0
 10
157.802064
 20
507.479190
 30
0.0
 10
157.833531
 20
507.361695
 30
0.0
  0
LWPOLYLINE
  5
14e
100
AcDbEntity
  8
Layer_1
 62
7
100
AcDbPolyline
 90
2
 70
1
 10
235.431758
 20
435.714987
 30
0.0
 10
235.431758
 20
435.714987
 30
0.0
  0
SPLINE
  5
14f
100
AcDbEntity
  8
Layer_1
 62
7
100
AcDbSpline
 70
8
 71
3
 72
8
 73
4
 74
0
 40
0
 40
0
 40
0
 40
0
 40
1
 40
1
 40
1
 40
1
 10
157.833531
 20
505.165654
 30
0.0
 10
156.911791
 20
504.684095
 30
0.0
 10
156.281309
 20
503.728815
 30
0.0
 10
156.281309
 20
502.616834
 30
0.0
  0
SPLINE
  5
150
100
AcDbEntity
  8
Layer_1
 62
7
100
AcDbSpline
 70
8
 71
3
 72
8
 73
4
 74
0
 40
0
 40
0
 40
0
 40
0
 40
1
 40
1
 40
1
 40
1
 10
156.281309
 20
502.616834
 30
0.0
 10
156.281309
 20
501.023571
 30
0.0
 10
157.572004
 20
499.732876
 30
0.0
 10
159.165267
 20
499.732876
 30
0.0
  0
SPLINE
  5
151
100
AcDbEntity
  8
Layer_1
 62
7
100
AcDbSpline
 70
8
 71
3
 72
8
 73
4
 74
0
 40
0
 40
0
 40
0
 40
0
 40
1
 40
1
 40
1
 40
1
 10
159.165267
 20
499.732876
 30
0.0
 10
160.758530
 20
499.732876
 30
0.0
 10
162.049226
 20
501.023571
 30
0.0
 10
162.049226
 20
502.616834
 30
0.0
  0
SPLINE
  5
152
100
AcDbEntity
  8
Layer_1
 62
7
100
AcDbSpline
 70
8
 71
3
 72
8
 73
4
 74
0
 40
0
 40
0
 40
0
 40
0
 40
1
 40
1
 40
1
 40
1
 10
162.049226
 20
502.616834
 30
0.0
 10
162.049226
 20
503.700779
 30
0.0
 10
161.451468
 20
504.637401
 30
0.0
 10
160.567559
 20
505.130376
 30
0.0
  0
LWPOLYLINE
  5
153
100
AcDbEntity
  8
Layer_1
 62
7
100
AcDbPolyline
 90
2
 70
1
 10
157.833531
 20
507.361695
 30
0.0
 10
157.833531
 20
505.165654
 30
0.0
  0
SPLINE
  5
154
100
AcDbEntity
  8
Layer_1
 62
7
100
AcDbSpline
 70
8
 71
3
 72
8
 73
4
 74
0
 40
0
 40
0
 40
0
 40
0
 40
1
 40
1
 40
1
 40
1
 10
160.567559
 20
507.361695
 30
0.0
 10
160.599041
 20
507.479190
 30
0.0
 10
160.620476
 20
507.604686
 30
0.0
 10
160.620476
 20
507.732112
 30
0.0
  0
SPLINE
  5
155
100
AcDbEntity
  8
Layer_1
 62
7
100
AcDbSpline
 70
8
 71
3
 72
8
 73
4
 74
0
 40
0
 40
0
 40
0
 40
0
 40
1
 40
1
 40
1
 40
1
 10
160.620476
 20
507.732112
 30
0.0
 10
160.620476
 20
508.516278
 30
0.0
 10
159.984711
 20
509.143223
 30
0.0
 10
159.200545
 20
509.143223
 30
0.0
  0
SPLINE
  5
156
100
AcDbEntity
  8
Layer_1
 62
7
100
AcDbSpline
 70
8
 71
3
 72
8
 73
4
 74
0
 40
0
 40
0
 40
0
 40
0
 40
1
 40
1
 40
1
 40
1
 10
159.200545
 20
509.143223
 30
0.0
 10
159.151534
 20
509.143223
 30
0.0
 10
159.098347
 20
509.148077
 30
0.0
 10
159.050615
 20
509.143223
 30
0.0
  0
LWPOLYLINE
  5
157
100
AcDbEntity
  8
Layer_1
 62
7
100
AcDbPolyline
 90
2
 70
1
 10
160.567559
 20
505.130376
 30
0.0
 10
160.567559
 20
507.361695
 30
0.0
  0
SPLINE
  5
158
100
AcDbEntity
  8
Layer_1
 62
7
100
AcDbSpline
 70
8
 71
3
 72
8
 73
4
 74
0
 40
0
 40
0
 40
0
 40
0
 40
1
 40
1
 40
1
 40
1
 10
246.544437
 20
509.143223
 30
0.0
 10
245.828464
 20
509.070511
 30
0.0
 10
245.274437
 20
508.467267
 30
0.0
 10
245.274437
 20
507.732112
 30
0.0
  0
SPLINE
  5
159
100
AcDbEntity
  8
Layer_1
 62
7
100
AcDbSpline
 70
8
 71
3
 72
8
 73
4
 74
0
 40
0
 40
0
 40
0
 40
0
 40
1
 40
1
 40
1
 40
1
 10
245.274437
 20
507.732112
 30
0.0
 10
245.274437
 20
507.604686
 30
0.0
 10
245.295886
 20
507.479190
 30
0.0
 10
245.327353
 20
507.361695
 30
0.0
  0
LWPOLYLINE
  5
15a
100
AcDbEntity
  8
Layer_1
 62
7
100
AcDbPolyline
 90
2
 70
1
 10
159.050615
 20
509.143223
 30
0.0
 10
159.050615
 20
509.143223
 30
0.0
  0
SPLINE
  5
15b
100
AcDbEntity
  8
Layer_1
 62
7
100
AcDbSpline
 70
8
 71
3
 72
8
 73
4
 74
0
 40
0
 40
0
 40
0
 40
0
 40
1
 40
1
 40
1
 40
1
 10
245.327353
 20
505.165654
 30
0.0
 10
244.405613
 20
504.684095
 30
0.0
 10
243.775131
 20
503.728815
 30
0.0
 10
243.775131
 20
502.616834
 30
0.0
  0
SPLINE
  5
15c
100
AcDbEntity
  8
Layer_1
 62
7
100
AcDbSpline
 70
8
 71
3
 72
8
 73
4
 74
0
 40
0
 40
0
 40
0
 40
0
 40
1
 40
1
 40
1
 40
1
 10
243.775131
 20
502.616834
 30
0.0
 10
243.775131
 20
501.023571
 30
0.0
 10
245.065827
 20
499.732876
 30
0.0
 10
246.659090
 20
499.732876
 30
0.0
  0
SPLINE
  5
15d
100
AcDbEntity
  8
Layer_1
 62
7
100
AcDbSpline
 70
8
 71
3
 72
8
 73
4
 74
0
 40
0
 40
0
 40
0
 40
0
 40
1
 40
1
 40
1
 40
1
 10
246.659090
 20
499.732876
 30
0.0
 10
248.252353
 20
499.732876
 30
0.0
 10
249.543048
 20
501.023571
 30
0.0
 10
249.543048
 20
502.616834
 30
0.0
  0
SPLINE
  5
15e
100
AcDbEntity
  8
Layer_1
 62
7
100
AcDbSpline
 70
8
 71
3
 72
8
 73
4
 74
0
 40
0
 40
0
 40
0
 40
0
 40
1
 40
1
 40
1
 40
1
 10
249.543048
 20
502.616834
 30
0.0
 10
249.543048
 20
503.700779
 30
0.0
 10
248.945290
 20
504.637401
 30
0.0
 10
248.061381
 20
505.130376
 30
0.0
  0
LWPOLYLINE
  5
15f
100
AcDbEntity
  8
Layer_1
 62
7
100
AcDbPolyline
 90
2
 70
1
 10
245.327353
 20
507.361695
 30
0.0
 10
245.327353
 20
505.165654
 30
0.0
  0
SPLINE
  5
160
100
AcDbEntity
  8
Layer_1
 62
7
100
AcDbSpline
 70
8
 71
3
 72
8
 73
4
 74
0
 40
0
 40
0
 40
0
 40
0
 40
1
 40
1
 40
1
 40
1
 10
248.061381
 20
507.361695
 30
0.0
 10
248.092863
 20
507.479190
 30
0.0
 10
248.114298
 20
507.604686
 30
0.0
 10
248.114298
 20
507.732112
 30
0.0
  0
SPLINE
  5
161
100
AcDbEntity
  8
Layer_1
 62
7
100
AcDbSpline
 70
8
 71
3
 72
8
 73
4
 74
0
 40
0
 40
0
 40
0
 40
0
 40
1
 40
1
 40
1
 40
1
 10
248.114298
 20
507.732112
 30
0.0
 10
248.114298
 20
508.516278
 30
0.0
 10
247.478533
 20
509.143223
 30
0.0
 10
246.694367
 20
509.143223
 30
0.0
  0
SPLINE
  5
162
100
AcDbEntity
  8
Layer_1
 62
7
100
AcDbSpline
 70
8
 71
3
 72
8
 73
4
 74
0
 40
0
 40
0
 40
0
 40
0
 40
1
 40
1
 40
1
 40
1
 10
246.694367
 20
509.143223
 30
0.0
 10
246.645357
 20
509.143223
 30
0.0
 10
246.592169
 20
509.148077
 30
0.0
 10
246.544437
 20
509.143223
 30
0.0
  0
LWPOLYLINE
  5
163
100
AcDbEntity
  8
Layer_1
 62
7
100
AcDbPolyline
 90
2
 70
1
 10
248.061381
 20
505.130376
 30
0.0
 10
248.061381
 20
507.361695
 30
0.0
  0
LWPOLYLINE
  5
164
100
AcDbEntity
  8
Layer_1
 62
7
100
AcDbPolyline
 90
2
 70
1
 10
246.544437
 20
509.143223
 30
0.0
 10
246.544437
 20
509.143223
 30
0.0
  0
LWPOLYLINE
  5
165
100
AcDbEntity
  8
Layer_1
 62
7
100
AcDbPolyline
 90
5
 70
1
 10
113.000003
 20
594.759796
 30
0.0
 10
292.759813
 20
594.759796
 30
0.0
 10
292.759813
 20
544.999977
 30
0.0
 10
113.000003
 20
544.999977
 30
0.0
 10
113.000003
 20
594.759796
 30
0.0
  0
LWPOLYLINE
  5
166
100
AcDbEntity
  8
Layer_1
 62
7
100
AcDbPolyline
 90
5
 70
1
 10
123.000002
 20
559.999992
 30
0.0
 10
138.000002
 20
559.999992
 30
0.0
 10
138.000002
 20
541.999977
 30
0.0
 10
123.000002
 20
541.999977
 30
0.0
 10
123.000002
 20
559.999992
 30
0.0
  0
LWPOLYLINE
  5
167
100
AcDbEntity
  8
Layer_1
 62
7
100
AcDbPolyline
 90
5
 70
1
 10
152.999999
 20
564.999996
 30
0.0
 10
167.999998
 20
564.999996
 30
0.0
 10
167.999998
 20
541.999981
 30
0.0
 10
152.999999
 20
541.999981
 30
0.0
 10
152.999999
 20
564.999996
 30
0.0
  0
LWPOLYLINE
  5
168
100
AcDbEntity
  8
Layer_1
 62
7
100
AcDbPolyline
 90
5
 70
1
 10
183.000009
 20
549.999998
 30
0.0
 10
198.000009
 20
549.999998
 30
0.0
 10
198.000009
 20
541.999983
 30
0.0
 10
183.000009
 20
541.999983
 30
0.0
 10
183.000009
 20
549.999998
 30
0.0
  0
LWPOLYLINE
  5
169
100
AcDbEntity
  8
Layer_1
 62
7
100
AcDbPolyline
 90
5
 70
1
 10
207.999999
 20
559.999992
 30
0.0
 10
222.999998
 20
559.999992
 30
0.0
 10
222.999998
 20
541.999977
 30
0.0
 10
207.999999
 20
541.999977
 30
0.0
 10
207.999999
 20
559.999992
 30
0.0
  0
LWPOLYLINE
  5
16a
100
AcDbEntity
  8
Layer_1
 62
7
100
AcDbPolyline
 90
5
 70
1
 10
123.000002
 20
597.999989
 30
0.0
 10
138.000002
 20
597.999989
 30
0.0
 10
138.000002
 20
589.999972
 30
0.0
 10
123.000002
 20
589.999972
 30
0.0
 10
123.000002
 20
597.999989
 30
0.0
  0
LWPOLYLINE
  5
16b
100
AcDbEntity
  8
Layer_1
 62
7
100
AcDbPolyline
 90
5
 70
1
 10
152.999999
 20
597.999989
 30
0.0
 10
167.999998
 20
597.999989
 30
0.0
 10
167.999998
 20
584.999954
 30
0.0
 10
152.999999
 20
584.999954
 30
0.0
 10
152.999999
 20
597.999989
 30
0.0
  0
LWPOLYLINE
  5
16c
100
AcDbEntity
  8
Layer_1
 62
7
100
AcDbPolyline
 90
5
 70
1
 10
183.000009
 20
597.999989
 30
0.0
 10
198.000009
 20
597.999989
 30
0.0
 10
198.000009
 20
584.999954
 30
0.0
 10
183.000009
 20
584.999954
 30
0.0
 10
183.000009
 20
597.999989
 30
0.0
  0
LWPOLYLINE
  5
16d
100
AcDbEntity
  8
Layer_1
 62
7
100
AcDbPolyline
 90
5
 70
1
 10
207.999999
 20
597.999989
 30
0.0
 10
222.999998
 20
597.999989
 30
0.0
 10
222.999998
 20
584.999954
 30
0.0
 10
207.999999
 20
584.999954
 30
0.0
 10
207.999999
 20
597.999989
 30
0.0
  0
LWPOLYLINE
  5
16e
100
AcDbEntity
  8
Layer_1
 62
7
100
AcDbPolyline
 90
5
 70
1
 10
238.000012
 20
554.999985
 30
0.0
 10
253.000012
 20
554.999985
 30
0.0
 10
253.000012
 20
541.999970
 30
0.0
 10
238.000012
 20
541.999970
 30
0.0
 10
238.000012
 20
554.999985
 30
0.0
  0
LWPOLYLINE
  5
16f
100
AcDbEntity
  8
Layer_1
 62
7
100
AcDbPolyline
 90
5
 70
1
 10
268.000006
 20
549.999998
 30
0.0
 10
283.000005
 20
549.999998
 30
0.0
 10
283.000005
 20
541.999983
 30
0.0
 10
268.000006
 20
541.999983
 30
0.0
 10
268.000006
 20
549.999998
 30
0.0
  0
LWPOLYLINE
  5
170
100
AcDbEntity
  8
Layer_1
 62
7
100
AcDbPolyline
 90
5
 70
1
 10
268.000006
 20
597.999989
 30
0.0
 10
283.000005
 20
597.999989
 30
0.0
 10
283.000005
 20
584.999954
 30
0.0
 10
268.000006
 20
584.999954
 30
0.0
 10
268.000006
 20
597.999989
 30
0.0
  0
LWPOLYLINE
  5
171
100
AcDbEntity
  8
Layer_1
 62
7
100
AcDbPolyline
 90
5
 70
1
 10
237.999995
 20
597.999989
 30
0.0
 10
252.999995
 20
597.999989
 30
0.0
 10
252.999995
 20
584.999954
 30
0.0
 10
237.999995
 20
584.999954
 30
0.0
 10
237.999995
 20
597.999989
 30
0.0
  0
LWPOLYLINE
  5
172
100
AcDbEntity
  8
Layer_1
 62
7
100
AcDbPolyline
 90
5
 70
1
 10
315.177763
 20
524.999974
 30
0.0
 10
365.177764
 20
524.999974
 30
0.0
 10
365.177764
 20
404.999977
 30
0.0
 10
315.177763
 20
404.999977
 30
0.0
 10
315.177763
 20
524.999974
 30
0.0
  0
LWPOLYLINE
  5
173
100
AcDbEntity
  8
Layer_1
 62
7
100
AcDbPolyline
 90
5
 70
1
 10
312.177769
 20
514.999980
 30
0.0
 10
315.177769
 20
514.999980
 30
0.0
 10
315.177769
 20
499.999981
 30
0.0
 10
312.177769
 20
499.999981
 30
0.0
 10
312.177769
 20
514.999980
 30
0.0
  0
LWPOLYLINE
  5
174
100
AcDbEntity
  8
Layer_1
 62
7
100
AcDbPolyline
 90
5
 70
1
 10
312.389040
 20
484.999987
 30
0.0
 10
324.999992
 20
484.999987
 30
0.0
 10
324.999992
 20
469.929033
 30
0.0
 10
312.389040
 20
469.929033
 30
0.0
 10
312.389040
 20
484.999987
 30
0.0
  0
LWPOLYLINE
  5
175
100
AcDbEntity
  8
Layer_1
 62
7
100
AcDbPolyline
 90
5
 70
1
 10
312.389040
 20
459.999980
 30
0.0
 10
315.177772
 20
459.999980
 30
0.0
 10
315.177772
 20
444.929027
 30
0.0
 10
312.389040
 20
444.929027
 30
0.0
 10
312.389040
 20
459.999980
 30
0.0
  0
LWPOLYLINE
  5
176
100
AcDbEntity
  8
Layer_1
 62
7
100
AcDbPolyline
 90
5
 70
1
 10
312.389040
 20
429.999984
 30
0.0
 10
320.000000
 20
429.999984
 30
0.0
 10
320.000000
 20
414.929030
 30
0.0
 10
312.389040
 20
414.929030
 30
0.0
 10
312.389040
 20
429.999984
 30
0.0
  0
LWPOLYLINE
  5
177
100
AcDbEntity
  8
Layer_1
 62
7
100
AcDbPolyline
 90
5
 70
1
 10
315.177763
 20
527.999980
 30
0.0
 10
330.177762
 20
527.999980
 30
0.0
 10
330.177762
 20
520.000008
 30
0.0
 10
315.177763
 20
520.000008
 30
0.0
 10
315.177763
 20
527.999980
 30
0.0
  0
LWPOLYLINE
  5
178
100
AcDbEntity
  8
Layer_1
 62
7
100
AcDbPolyline
 90
5
 70
1
 10
350.177777
 20
527.999980
 30
0.0
 10
365.177777
 20
527.999980
 30
0.0
 10
365.177777
 20
520.000008
 30
0.0
 10
350.177777
 20
520.000008
 30
0.0
 10
350.177777
 20
527.999980
 30
0.0
  0
LWPOLYLINE
  5
179
100
AcDbEntity
  8
Layer_1
 62
7
100
AcDbPolyline
 90
5
 70
1
 10
279.999999
 20
579.999969
 30
0.0
 10
295.999996
 20
579.999969
 30
0.0
 10
295.999996
 20
559.999969
 30
0.0
 10
279.999999
 20
559.999969
 30
0.0
 10
279.999999
 20
579.999969
 30
0.0
  0
LWPOLYLINE
  5
17a
100
AcDbEntity
  8
Layer_1
 62
7
100
AcDbPolyline
 90
5
 70
1
 10
90.257782
 20
524.999974
 30
0.0
 10
40.257781
 20
524.999974
 30
0.0
 10
40.257781
 20
404.999977
 30
0.0
 10
90.257782
 20
404.999977
 30
0.0
 10
90.257782
 20
524.999974
 30
0.0
  0
LWPOLYLINE
  5
17b
100
AcDbEntity
  8
Layer_1
 62
7
100
AcDbPolyline
 90
5
 70
1
 10
93.257771
 20
514.999980
 30
0.0
 10
84.999995
 20
514.999980
 30
0.0
 10
84.999995
 20
499.999981
 30
0.0
 10
93.257771
 20
499.999981
 30
0.0
 10
93.257771
 20
514.999980
 30
0.0
  0
LWPOLYLINE
  5
17c
100
AcDbEntity
  8
Layer_1
 62
7
100
AcDbPolyline
 90
5
 70
1
 10
93.046516
 20
484.999987
 30
0.0
 10
85.000012
 20
484.999987
 30
0.0
 10
85.000012
 20
469.929033
 30
0.0
 10
93.046516
 20
469.929033
 30
0.0
 10
93.046516
 20
484.999987
 30
0.0
  0
LWPOLYLINE
  5
17d
100
AcDbEntity
  8
Layer_1
 62
7
100
AcDbPolyline
 90
5
 70
1
 10
93.046516
 20
459.999980
 30
0.0
 10
80.000019
 20
459.999980
 30
0.0
 10
80.000019
 20
444.929027
 30
0.0
 10
93.046516
 20
444.929027
 30
0.0
 10
93.046516
 20
459.999980
 30
0.0
  0
LWPOLYLINE
  5
17e
100
AcDbEntity
  8
Layer_1
 62
7
100
AcDbPolyline
 90
5
 70
1
 10
93.046516
 20
429.999984
 30
0.0
 10
80.000019
 20
429.999984
 30
0.0
 10
80.000019
 20
414.929030
 30
0.0
 10
93.046516
 20
414.929030
 30
0.0
 10
93.046516
 20
429.999984
 30
0.0
  0
LWPOLYLINE
  5
17f
100
AcDbEntity
  8
Layer_1
 62
7
100
AcDbPolyline
 90
5
 70
1
 10
90.257782
 20
527.999980
 30
0.0
 10
75.257783
 20
527.999980
 30
0.0
 10
75.257783
 20
520.000008
 30
0.0
 10
90.257782
 20
520.000008
 30
0.0
 10
90.257782
 20
527.999980
 30
0.0
  0
LWPOLYLINE
  5
180
100
AcDbEntity
  8
Layer_1
 62
7
100
AcDbPolyline
 90
5
 70
1
 10
55.257776
 20
527.999980
 30
0.0
 10
40.257777
 20
527.999980
 30
0.0
 10
40.257777
 20
520.000008
 30
0.0
 10
55.257776
 20
520.000008
 30
0.0
 10
55.257776
 20
527.999980
 30
0.0
  0
LWPOLYLINE
  5
181
100
AcDbEntity
  8
Layer_1
 62
7
100
AcDbPolyline
 90
5
 70
1
 10
110.000003
 20
579.999997
 30
0.0
 10
130.000014
 20
579.999997
 30
0.0
 10
130.000014
 20
559.999997
 30
0.0
 10
110.000003
 20
559.999997
 30
0.0
 10
110.000003
 20
579.999997
 30
0.0
  0
LWPOLYLINE
  5
182
100
AcDbEntity
  8
Layer_1
 62
7
100
AcDbPolyline
 90
5
 70
1
 10
112.999994
 20
384.759818
 30
0.0
 10
292.759805
 20
384.759818
 30
0.0
 10
292.759805
 20
334.999999
 30
0.0
 10
112.999994
 20
334.999999
 30
0.0
 10
112.999994
 20
384.759818
 30
0.0
  0
LWPOLYLINE
  5
183
100
AcDbEntity
  8
Layer_1
 62
7
100
AcDbPolyline
 90
5
 70
1
 10
122.999994
 20
344.999993
 30
0.0
 10
137.999994
 20
344.999993
 30
0.0
 10
137.999994
 20
331.999989
 30
0.0
 10
122.999994
 20
331.999989
 30
0.0
 10
122.999994
 20
344.999993
 30
0.0
  0
LWPOLYLINE
  5
184
100
AcDbEntity
  8
Layer_1
 62
7
100
AcDbPolyline
 90
5
 70
1
 10
122.999994
 20
388.000000
 30
0.0
 10
137.999994
 20
388.000000
 30
0.0
 10
137.999994
 20
379.999987
 30
0.0
 10
122.999994
 20
379.999987
 30
0.0
 10
122.999994
 20
388.000000
 30
0.0
  0
LWPOLYLINE
  5
185
100
AcDbEntity
  8
Layer_1
 62
7
100
AcDbPolyline
 90
5
 70
1
 10
152.999982
 20
388.000000
 30
0.0
 10
167.999981
 20
388.000000
 30
0.0
 10
167.999981
 20
379.999987
 30
0.0
 10
152.999982
 20
379.999987
 30
0.0
 10
152.999982
 20
388.000000
 30
0.0
  0
LWPOLYLINE
  5
186
100
AcDbEntity
  8
Layer_1
 62
7
100
AcDbPolyline
 90
5
 70
1
 10
182.999992
 20
388.000000
 30
0.0
 10
197.999992
 20
388.000000
 30
0.0
 10
197.999992
 20
379.999987
 30
0.0
 10
182.999992
 20
379.999987
 30
0.0
 10
182.999992
 20
388.000000
 30
0.0
  0
LWPOLYLINE
  5
187
100
AcDbEntity
  8
Layer_1
 62
7
100
AcDbPolyline
 90
5
 70
1
 10
207.999982
 20
387.999980
 30
0.0
 10
222.999982
 20
387.999980
 30
0.0
 10
222.999982
 20
379.999984
 30
0.0
 10
207.999982
 20
379.999984
 30
0.0
 10
207.999982
 20
387.999980
 30
0.0
  0
LWPOLYLINE
  5
188
100
AcDbEntity
  8
Layer_1
 62
7
100
AcDbPolyline
 90
5
 70
1
 10
237.999995
 20
339.999992
 30
0.0
 10
252.999995
 20
339.999992
 30
0.0
 10
252.999995
 20
331.999987
 30
0.0
 10
237.999995
 20
331.999987
 30
0.0
 10
237.999995
 20
339.999992
 30
0.0
  0
LWPOLYLINE
  5
189
100
AcDbEntity
  8
Layer_1
 62
7
100
AcDbPolyline
 90
5
 70
1
 10
267.999989
 20
339.999992
 30
0.0
 10
282.999989
 20
339.999992
 30
0.0
 10
282.999989
 20
331.999987
 30
0.0
 10
267.999989
 20
331.999987
 30
0.0
 10
267.999989
 20
339.999992
 30
0.0
  0
LWPOLYLINE
  5
18a
100
AcDbEntity
  8
Layer_1
 62
7
100
AcDbPolyline
 90
5
 70
1
 10
267.999989
 20
388.000000
 30
0.0
 10
282.999989
 20
388.000000
 30
0.0
 10
282.999989
 20
379.999987
 30
0.0
 10
267.999989
 20
379.999987
 30
0.0
 10
267.999989
 20
388.000000
 30
0.0
  0
LWPOLYLINE
  5
18b
100
AcDbEntity
  8
Layer_1
 62
7
100
AcDbPolyline
 90
5
 70
1
 10
237.999978
 20
388.000000
 30
0.0
 10
252.999978
 20
388.000000
 30
0.0
 10
252.999978
 20
379.999987
 30
0.0
 10
237.999978
 20
379.999987
 30
0.0
 10
237.999978
 20
388.000000
 30
0.0
  0
LWPOLYLINE
  5
18c
100
AcDbEntity
  8
Layer_1
 62
7
100
AcDbPolyline
 90
5
 70
1
 10
284.999994
 20
369.999985
 30
0.0
 10
295.999992
 20
369.999985
 30
0.0
 10
295.999992
 20
349.999985
 30
0.0
 10
284.999994
 20
349.999985
 30
0.0
 10
284.999994
 20
369.999985
 30
0.0
  0
LWPOLYLINE
  5
18d
100
AcDbEntity
  8
Layer_1
 62
7
100
AcDbPolyline
 90
5
 70
1
 10
109.999994
 20
369.999994
 30
0.0
 10
120.000006
 20
369.999994
 30
0.0
 10
120.000006
 20
349.999994
 30
0.0
 10
109.999994
 20
349.999994
 30
0.0
 10
109.999994
 20
369.999994
 30
0.0
  0
LWPOLYLINE
  5
18e
100
AcDbEntity
  8
Layer_1
 62
7
100
AcDbPolyline
 90
5
 70
1
 10
160.822225
 20
359.999986
 30
0.0
 10
223.000006
 20
359.999986
 30
0.0
 10
223.000006
 20
334.999985
 30
0.0
 10
160.822225
 20
334.999985
 30
0.0
 10
160.822225
 20
359.999986
 30
0.0
  0
LWPOLYLINE
  5
18f
100
AcDbEntity
  8
Layer_1
 62
7
100
AcDbPolyline
 90
5
 70
1
 10
237.999995
 20
374.999992
 30
0.0
 10
267.999995
 20
374.999992
 30
0.0
 10
267.999995
 20
364.999992
 30
0.0
 10
237.999995
 20
364.999992
 30
0.0
 10
237.999995
 20
374.999992
 30
0.0
  0
LWPOLYLINE
  5
190
100
AcDbEntity
  8
Layer_1
 62
7
100
AcDbPolyline
 90
5
 70
1
 10
55.257773
 20
409.999990
 30
0.0
 10
40.257774
 20
409.999990
 30
0.0
 10
40.257774
 20
401.999985
 30
0.0
 10
55.257773
 20
401.999985
 30
0.0
 10
55.257773
 20
409.999990
 30
0.0
  0
LWPOLYLINE
  5
191
100
AcDbEntity
  8
Layer_1
 62
7
100
AcDbPolyline
 90
5
 70
1
 10
90.257782
 20
409.999990
 30
0.0
 10
75.257783
 20
409.999990
 30
0.0
 10
75.257783
 20
401.999985
 30
0.0
 10
90.257782
 20
401.999985
 30
0.0
 10
90.257782
 20
409.999990
 30
0.0
  0
LWPOLYLINE
  5
192
100
AcDbEntity
  8
Layer_1
 62
7
100
AcDbPolyline
 90
5
 70
1
 10
315.177763
 20
409.999990
 30
0.0
 10
330.177762
 20
409.999990
 30
0.0
 10
330.177762
 20
401.999985
 30
0.0
 10
315.177763
 20
401.999985
 30
0.0
 10
315.177763
 20
409.999990
 30
0.0
  0
LWPOLYLINE
  5
193
100
AcDbEntity
  8
Layer_1
 62
7
100
AcDbPolyline
 90
5
 70
1
 10
350.177777
 20
409.999990
 30
0.0
 10
365.177777
 20
409.999990
 30
0.0
 10
365.177777
 20
401.999985
 30
0.0
 10
350.177777
 20
401.999985
 30
0.0
 10
350.177777
 20
409.999990
 30
0.0
  0
LWPOLYLINE
  5
194
100
AcDbEntity
  8
Layer_1
 62
7
100
AcDbPolyline
 90
5
 70
1
 10
113.412053
 20
309.999986
 30
0.0
 10
293.000007
 20
309.999986
 30
0.0
 10
293.000007
 20
190.412039
 30
0.0
 10
113.412053
 20
190.412039
 30
0.0
 10
113.412053
 20
309.999986
 30
0.0
  0
LWPOLYLINE
  5
195
100
AcDbEntity
  8
Layer_1
 62
7
100
AcDbPolyline
 90
5
 70
1
 10
93.000000
 20
324.868320
 30
0.0
 10
313.077609
 20
324.868320
 30
0.0
 10
313.077609
 20
309.999984
 30
0.0
 10
93.000000
 20
309.999984
 30
0.0
 10
93.000000
 20
324.868320
 30
0.0
  0
LWPOLYLINE
  5
196
100
AcDbEntity
  8
Layer_1
 62
7
100
AcDbPolyline
 90
5
 70
1
 10
292.999950
 20
309.999986
 30
0.0
 10
313.077570
 20
309.999986
 30
0.0
 10
313.077570
 20
189.999980
 30
0.0
 10
292.999950
 20
189.999980
 30
0.0
 10
292.999950
 20
309.999986
 30
0.0
  0
LWPOLYLINE
  5
197
100
AcDbEntity
  8
Layer_1
 62
7
100
AcDbPolyline
 90
5
 70
1
 10
93.000000
 20
309.999986
 30
0.0
 10
113.000000
 20
309.999986
 30
0.0
 10
113.000000
 20
189.999989
 30
0.0
 10
93.000000
 20
189.999989
 30
0.0
 10
93.000000
 20
309.999986
 30
0.0
  0
LWPOLYLINE
  5
198
100
AcDbEntity
  8
Layer_1
 62
7
100
AcDbPolyline
 90
5
 70
1
 10
93.000000
 20
189.999993
 30
0.0
 10
313.077592
 20
189.999993
 30
0.0
 10
313.077592
 20
169.868312
 30
0.0
 10
93.000000
 20
169.868312
 30
0.0
 10
93.000000
 20
189.999993
 30
0.0
  0
LWPOLYLINE
  5
199
100
AcDbEntity
  8
Layer_1
 62
7
100
AcDbPolyline
 90
5
 70
1
 10
123.000002
 20
312.999975
 30
0.0
 10
138.000002
 20
312.999975
 30
0.0
 10
138.000002
 20
309.999975
 30
0.0
 10
123.000002
 20
309.999975
 30
0.0
 10
123.000002
 20
312.999975
 30
0.0
  0
LWPOLYLINE
  5
19a
100
AcDbEntity
  8
Layer_1
 62
7
100
AcDbPolyline
 90
5
 70
1
 10
267.999989
 20
312.999975
 30
0.0
 10
282.999989
 20
312.999975
 30
0.0
 10
282.999989
 20
309.999975
 30
0.0
 10
267.999989
 20
309.999975
 30
0.0
 10
267.999989
 20
312.999975
 30
0.0
  0
LWPOLYLINE
  5
19b
100
AcDbEntity
  8
Layer_1
 62
7
100
AcDbPolyline
 90
5
 70
1
 10
152.999999
 20
312.999992
 30
0.0
 10
167.999998
 20
312.999992
 30
0.0
 10
167.999998
 20
309.999992
 30
0.0
 10
152.999999
 20
309.999992
 30
0.0
 10
152.999999
 20
312.999992
 30
0.0
  0
LWPOLYLINE
  5
19c
100
AcDbEntity
  8
Layer_1
 62
7
100
AcDbPolyline
 90
5
 70
1
 10
237.999995
 20
312.999992
 30
0.0
 10
252.999995
 20
312.999992
 30
0.0
 10
252.999995
 20
309.999992
 30
0.0
 10
237.999995
 20
309.999992
 30
0.0
 10
237.999995
 20
312.999992
 30
0.0
  0
LWPOLYLINE
  5
19d
100
AcDbEntity
  8
Layer_1
 62
7
100
AcDbPolyline
 90
5
 70
1
 10
182.999992
 20
312.999992
 30
0.0
 10
197.999992
 20
312.999992
 30
0.0
 10
197.999992
 20
309.999992
 30
0.0
 10
182.999992
 20
309.999992
 30
0.0
 10
182.999992
 20
312.999992
 30
0.0
  0
LWPOLYLINE
  5
19e
100
AcDbEntity
  8
Layer_1
 62
7
100
AcDbPolyline
 90
5
 70
1
 10
207.999999
 20
312.999992
 30
0.0
 10
222.999998
 20
312.999992
 30
0.0
 10
222.999998
 20
309.999992
 30
0.0
 10
207.999999
 20
309.999992
 30
0.0
 10
207.999999
 20
312.999992
 30
0.0
  0
LWPOLYLINE
  5
19f
100
AcDbEntity
  8
Layer_1
 62
7
100
AcDbPolyline
 90
5
 70
1
 10
110.000003
 20
299.999976
 30
0.0
 10
113.000003
 20
299.999976
 30
0.0
 10
113.000003
 20
284.999976
 30
0.0
 10
110.000003
 20
284.999976
 30
0.0
 10
110.000003
 20
299.999976
 30
0.0
  0
LWPOLYLINE
  5
1a0
100
AcDbEntity
  8
Layer_1
 62
7
100
AcDbPolyline
 90
5
 70
1
 10
293.000007
 20
299.999976
 30
0.0
 10
296.000007
 20
299.999976
 30
0.0
 10
296.000007
 20
284.999976
 30
0.0
 10
293.000007
 20
284.999976
 30
0.0
 10
293.000007
 20
299.999976
 30
0.0
  0
LWPOLYLINE
  5
1a1
100
AcDbEntity
  8
Layer_1
 62
7
100
AcDbPolyline
 90
5
 70
1
 10
110.000003
 20
269.999981
 30
0.0
 10
113.000003
 20
269.999981
 30
0.0
 10
113.000003
 20
254.999982
 30
0.0
 10
110.000003
 20
254.999982
 30
0.0
 10
110.000003
 20
269.999981
 30
0.0
  0
LWPOLYLINE
  5
1a2
100
AcDbEntity
  8
Layer_1
 62
7
100
AcDbPolyline
 90
5
 70
1
 10
293.000007
 20
269.999981
 30
0.0
 10
296.000007
 20
269.999981
 30
0.0
 10
296.000007
 20
254.999982
 30
0.0
 10
293.000007
 20
254.999982
 30
0.0
 10
293.000007
 20
269.999981
 30
0.0
  0
LWPOLYLINE
  5
1a3
100
AcDbEntity
  8
Layer_1
 62
7
100
AcDbPolyline
 90
5
 70
1
 10
110.000003
 20
214.999999
 30
0.0
 10
113.000003
 20
214.999999
 30
0.0
 10
113.000003
 20
199.999999
 30
0.0
 10
110.000003
 20
199.999999
 30
0.0
 10
110.000003
 20
214.999999
 30
0.0
  0
LWPOLYLINE
  5
1a4
100
AcDbEntity
  8
Layer_1
 62
7
100
AcDbPolyline
 90
5
 70
1
 10
110.000003
 20
244.999993
 30
0.0
 10
113.000003
 20
244.999993
 30
0.0
 10
113.000003
 20
229.999993
 30
0.0
 10
110.000003
 20
229.999993
 30
0.0
 10
110.000003
 20
244.999993
 30
0.0
  0
LWPOLYLINE
  5
1a5
100
AcDbEntity
  8
Layer_1
 62
7
100
AcDbPolyline
 90
5
 70
1
 10
293.000007
 20
214.999999
 30
0.0
 10
296.000007
 20
214.999999
 30
0.0
 10
296.000007
 20
199.999999
 30
0.0
 10
293.000007
 20
199.999999
 30
0.0
 10
293.000007
 20
214.999999
 30
0.0
  0
LWPOLYLINE
  5
1a6
100
AcDbEntity
  8
Layer_1
 62
7
100
AcDbPolyline
 90
5
 70
1
 10
293.000007
 20
244.999993
 30
0.0
 10
296.000007
 20
244.999993
 30
0.0
 10
296.000007
 20
229.999993
 30
0.0
 10
293.000007
 20
229.999993
 30
0.0
 10
293.000007
 20
244.999993
 30
0.0
  0
LWPOLYLINE
  5
1a7
100
AcDbEntity
  8
Layer_1
 62
7
100
AcDbPolyline
 90
5
 70
1
 10
123.000002
 20
189.999993
 30
0.0
 10
138.000002
 20
189.999993
 30
0.0
 10
138.000002
 20
186.999993
 30
0.0
 10
123.000002
 20
186.999993
 30
0.0
 10
123.000002
 20
189.999993
 30
0.0
  0
LWPOLYLINE
  5
1a8
100
AcDbEntity
  8
Layer_1
 62
7
100
AcDbPolyline
 90
5
 70
1
 10
152.999999
 20
189.999993
 30
0.0
 10
167.999998
 20
189.999993
 30
0.0
 10
167.999998
 20
186.999993
 30
0.0
 10
152.999999
 20
186.999993
 30
0.0
 10
152.999999
 20
189.999993
 30
0.0
  0
LWPOLYLINE
  5
1a9
100
AcDbEntity
  8
Layer_1
 62
7
100
AcDbPolyline
 90
5
 70
1
 10
182.999992
 20
189.999993
 30
0.0
 10
197.999992
 20
189.999993
 30
0.0
 10
197.999992
 20
186.999993
 30
0.0
 10
182.999992
 20
186.999993
 30
0.0
 10
182.999992
 20
189.999993
 30
0.0
  0
LWPOLYLINE
  5
1aa
100
AcDbEntity
  8
Layer_1
 62
7
100
AcDbPolyline
 90
5
 70
1
 10
267.999989
 20
189.999993
 30
0.0
 10
282.999989
 20
189.999993
 30
0.0
 10
282.999989
 20
186.999993
 30
0.0
 10
267.999989
 20
186.999993
 30
0.0
 10
267.999989
 20
189.999993
 30
0.0
  0
LWPOLYLINE
  5
1ab
100
AcDbEntity
  8
Layer_1
 62
7
100
AcDbPolyline
 90
5
 70
1
 10
237.999995
 20
189.999993
 30
0.0
 10
252.999995
 20
189.999993
 30
0.0
 10
252.999995
 20
186.999993
 30
0.0
 10
237.999995
 20
186.999993
 30
0.0
 10
237.999995
 20
189.999993
 30
0.0
  0
LWPOLYLINE
  5
1ac
100
AcDbEntity
  8
Layer_1
 62
7
100
AcDbPolyline
 90
5
 70
1
 10
207.999999
 20
189.999993
 30
0.0
 10
222.999998
 20
189.999993
 30
0.0
 10
222.999998
 20
186.999993
 30
0.0
 10
207.999999
 20
186.999993
 30
0.0
 10
207.999999
 20
189.999993
 30
0.0
  0
LWPOLYLINE
  5
1ad
100
AcDbEntity
  8
Layer_1
 62
7
100
AcDbPolyline
 90
5
 70
1
 10
134.458580
 20
294.435535
 30
0.0
 10
269.128886
 20
294.435535
 30
0.0
 10
269.128886
 20
205.765228
 30
0.0
 10
134.458580
 20
205.765228
 30
0.0
 10
134.458580
 20
294.435535
 30
0.0
  0
LWPOLYLINE
  5
1ae
100
AcDbEntity
  8
Layer_1
 62
7
100
AcDbPolyline
 90
5
 70
1
 10
113.412053
 20
309.999986
 30
0.0
 10
293.000007
 20
309.999986
 30
0.0
 10
293.000007
 20
190.412039
 30
0.0
 10
113.412053
 20
190.412039
 30
0.0
 10
113.412053
 20
309.999986
 30
0.0
  0
LWPOLYLINE
  5
1af
100
AcDbEntity
  8
Layer_1
 62
7
100
AcDbPolyline
 90
5
 70
1
 10
93.000000
 20
324.868320
 30
0.0
 10
313.077609
 20
324.868320
 30
0.0
 10
313.077609
 20
304.999992
 30
0.0
 10
93.000000
 20
304.999992
 30
0.0
 10
93.000000
 20
324.868320
 30
0.0
  0
LWPOLYLINE
  5
1b0
100
AcDbEntity
  8
Layer_1
 62
7
100
AcDbPolyline
 90
5
 70
1
 10
290.000013
 20
309.999986
 30
0.0
 10
313.077605
 20
309.999986
 30
0.0
 10
313.077605
 20
189.999980
 30
0.0
 10
290.000013
 20
189.999980
 30
0.0
 10
290.000013
 20
309.999986
 30
0.0
  0
LWPOLYLINE
  5
1b1
100
AcDbEntity
  8
Layer_1
 62
7
100
AcDbPolyline
 90
5
 70
1
 10
93.000000
 20
309.999986
 30
0.0
 10
115.000001
 20
309.999986
 30
0.0
 10
115.000001
 20
189.999989
 30
0.0
 10
93.000000
 20
189.999989
 30
0.0
 10
93.000000
 20
309.999986
 30
0.0
  0
LWPOLYLINE
  5
1b2
100
AcDbEntity
  8
Layer_1
 62
7
100
AcDbPolyline
 90
5
 70
1
 10
93.000000
 20
194.999988
 30
0.0
 10
313.077592
 20
194.999988
 30
0.0
 10
313.077592
 20
169.868307
 30
0.0
 10
93.000000
 20
169.868307
 30
0.0
 10
93.000000
 20
194.999988
 30
0.0
  0
LWPOLYLINE
  5
1b3
100
AcDbEntity
  8
Layer_1
 62
7
100
AcDbPolyline
 90
5
 70
1
 10
123.000002
 20
312.999975
 30
0.0
 10
138.000002
 20
312.999975
 30
0.0
 10
138.000002
 20
309.999975
 30
0.0
 10
123.000002
 20
309.999975
 30
0.0
 10
123.000002
 20
312.999975
 30
0.0
  0
LWPOLYLINE
  5
1b4
100
AcDbEntity
  8
Layer_1
 62
7
100
AcDbPolyline
 90
5
 70
1
 10
267.999989
 20
312.999975
 30
0.0
 10
282.999989
 20
312.999975
 30
0.0
 10
282.999989
 20
309.999975
 30
0.0
 10
267.999989
 20
309.999975
 30
0.0
 10
267.999989
 20
312.999975
 30
0.0
  0
LWPOLYLINE
  5
1b5
100
AcDbEntity
  8
Layer_1
 62
7
100
AcDbPolyline
 90
5
 70
1
 10
152.999999
 20
312.999992
 30
0.0
 10
167.999998
 20
312.999992
 30
0.0
 10
167.999998
 20
309.999992
 30
0.0
 10
152.999999
 20
309.999992
 30
0.0
 10
152.999999
 20
312.999992
 30
0.0
  0
LWPOLYLINE
  5
1b6
100
AcDbEntity
  8
Layer_1
 62
7
100
AcDbPolyline
 90
5
 70
1
 10
237.999995
 20
312.999992
 30
0.0
 10
252.999995
 20
312.999992
 30
0.0
 10
252.999995
 20
309.999992
 30
0.0
 10
237.999995
 20
309.999992
 30
0.0
 10
237.999995
 20
312.999992
 30
0.0
  0
LWPOLYLINE
  5
1b7
100
AcDbEntity
  8
Layer_1
 62
7
100
AcDbPolyline
 90
5
 70
1
 10
182.999992
 20
312.999992
 30
0.0
 10
197.999992
 20
312.999992
 30
0.0
 10
197.999992
 20
309.999992
 30
0.0
 10
182.999992
 20
309.999992
 30
0.0
 10
182.999992
 20
312.999992
 30
0.0
  0
LWPOLYLINE
  5
1b8
100
AcDbEntity
  8
Layer_1
 62
7
100
AcDbPolyline
 90
5
 70
1
 10
207.999999
 20
312.999992
 30
0.0
 10
222.999998
 20
312.999992
 30
0.0
 10
222.999998
 20
309.999992
 30
0.0
 10
207.999999
 20
309.999992
 30
0.0
 10
207.999999
 20
312.999992
 30
0.0
  0
LWPOLYLINE
  5
1b9
100
AcDbEntity
  8
Layer_1
 62
7
100
AcDbPolyline
 90
5
 70
1
 10
110.000003
 20
299.999976
 30
0.0
 10
113.000003
 20
299.999976
 30
0.0
 10
113.000003
 20
284.999976
 30
0.0
 10
110.000003
 20
284.999976
 30
0.0
 10
110.000003
 20
299.999976
 30
0.0
  0
LWPOLYLINE
  5
1ba
100
AcDbEntity
  8
Layer_1
 62
7
100
AcDbPolyline
 90
5
 70
1
 10
293.000007
 20
299.999976
 30
0.0
 10
296.000007
 20
299.999976
 30
0.0
 10
296.000007
 20
284.999976
 30
0.0
 10
293.000007
 20
284.999976
 30
0.0
 10
293.000007
 20
299.999976
 30
0.0
  0
LWPOLYLINE
  5
1bb
100
AcDbEntity
  8
Layer_1
 62
7
100
AcDbPolyline
 90
5
 70
1
 10
110.000003
 20
269.999981
 30
0.0
 10
113.000003
 20
269.999981
 30
0.0
 10
113.000003
 20
254.999982
 30
0.0
 10
110.000003
 20
254.999982
 30
0.0
 10
110.000003
 20
269.999981
 30
0.0
  0
LWPOLYLINE
  5
1bc
100
AcDbEntity
  8
Layer_1
 62
7
100
AcDbPolyline
 90
5
 70
1
 10
293.000007
 20
269.999981
 30
0.0
 10
296.000007
 20
269.999981
 30
0.0
 10
296.000007
 20
254.999982
 30
0.0
 10
293.000007
 20
254.999982
 30
0.0
 10
293.000007
 20
269.999981
 30
0.0
  0
LWPOLYLINE
  5
1bd
100
AcDbEntity
  8
Layer_1
 62
7
100
AcDbPolyline
 90
5
 70
1
 10
110.000003
 20
214.999999
 30
0.0
 10
113.000003
 20
214.999999
 30
0.0
 10
113.000003
 20
199.999999
 30
0.0
 10
110.000003
 20
199.999999
 30
0.0
 10
110.000003
 20
214.999999
 30
0.0
  0
LWPOLYLINE
  5
1be
100
AcDbEntity
  8
Layer_1
 62
7
100
AcDbPolyline
 90
5
 70
1
 10
110.000003
 20
244.999993
 30
0.0
 10
113.000003
 20
244.999993
 30
0.0
 10
113.000003
 20
229.999993
 30
0.0
 10
110.000003
 20
229.999993
 30
0.0
 10
110.000003
 20
244.999993
 30
0.0
  0
LWPOLYLINE
  5
1bf
100
AcDbEntity
  8
Layer_1
 62
7
100
AcDbPolyline
 90
5
 70
1
 10
293.000007
 20
214.999999
 30
0.0
 10
296.000007
 20
214.999999
 30
0.0
 10
296.000007
 20
199.999999
 30
0.0
 10
293.000007
 20
199.999999
 30
0.0
 10
293.000007
 20
214.999999
 30
0.0
  0
LWPOLYLINE
  5
1c0
100
AcDbEntity
  8
Layer_1
 62
7
100
AcDbPolyline
 90
5
 70
1
 10
293.000007
 20
244.999993
 30
0.0
 10
296.000007
 20
244.999993
 30
0.0
 10
296.000007
 20
229.999993
 30
0.0
 10
293.000007
 20
229.999993
 30
0.0
 10
293.000007
 20
244.999993
 30
0.0
  0
LWPOLYLINE
  5
1c1
100
AcDbEntity
  8
Layer_1
 62
7
100
AcDbPolyline
 90
5
 70
1
 10
123.000002
 20
189.999993
 30
0.0
 10
138.000002
 20
189.999993
 30
0.0
 10
138.000002
 20
186.999993
 30
0.0
 10
123.000002
 20
186.999993
 30
0.0
 10
123.000002
 20
189.999993
 30
0.0
  0
LWPOLYLINE
  5
1c2
100
AcDbEntity
  8
Layer_1
 62
7
100
AcDbPolyline
 90
5
 70
1
 10
152.999999
 20
189.999993
 30
0.0
 10
167.999998
 20
189.999993
 30
0.0
 10
167.999998
 20
186.999993
 30
0.0
 10
152.999999
 20
186.999993
 30
0.0
 10
152.999999
 20
189.999993
 30
0.0
  0
LWPOLYLINE
  5
1c3
100
AcDbEntity
  8
Layer_1
 62
7
100
AcDbPolyline
 90
5
 70
1
 10
182.999992
 20
189.999993
 30
0.0
 10
197.999992
 20
189.999993
 30
0.0
 10
197.999992
 20
186.999993
 30
0.0
 10
182.999992
 20
186.999993
 30
0.0
 10
182.999992
 20
189.999993
 30
0.0
  0
LWPOLYLINE
  5
1c4
100
AcDbEntity
  8
Layer_1
 62
7
100
AcDbPolyline
 90
5
 70
1
 10
267.999989
 20
189.999993
 30
0.0
 10
282.999989
 20
189.999993
 30
0.0
 10
282.999989
 20
186.999993
 30
0.0
 10
267.999989
 20
186.999993
 30
0.0
 10
267.999989
 20
189.999993
 30
0.0
  0
LWPOLYLINE
  5
1c5
100
AcDbEntity
  8
Layer_1
 62
7
100
AcDbPolyline
 90
5
 70
1
 10
237.999995
 20
189.999993
 30
0.0
 10
252.999995
 20
189.999993
 30
0.0
 10
252.999995
 20
186.999993
 30
0.0
 10
237.999995
 20
186.999993
 30
0.0
 10
237.999995
 20
189.999993
 30
0.0
  0
LWPOLYLINE
  5
1c6
100
AcDbEntity
  8
Layer_1
 62
7
100
AcDbPolyline
 90
5
 70
1
 10
207.999999
 20
189.999993
 30
0.0
 10
222.999998
 20
189.999993
 30
0.0
 10
222.999998
 20
186.999993
 30
0.0
 10
207.999999
 20
186.999993
 30
0.0
 10
207.999999
 20
189.999993
 30
0.0
  0
SPLINE
  5
1c7
100
AcDbEntity
  8
Layer_1
 62
7
100
AcDbSpline
 70
8
 71
3
 72
8
 73
4
 74
0
 40
0
 40
0
 40
0
 40
0
 40
1
 40
1
 40
1
 40
1
 10
121.613334
 20
302.374992
 30
0.0
 10
121.613334
 20
301.644744
 30
0.0
 10
121.021353
 20
301.052768
 30
0.0
 10
120.291107
 20
301.052768
 30
0.0
  0
SPLINE
  5
1c8
100
AcDbEntity
  8
Layer_1
 62
7
100
AcDbSpline
 70
8
 71
3
 72
8
 73
4
 74
0
 40
0
 40
0
 40
0
 40
0
 40
1
 40
1
 40
1
 40
1
 10
120.291107
 20
301.052768
 30
0.0
 10
119.560862
 20
301.052768
 30
0.0
 10
118.968880
 20
301.644744
 30
0.0
 10
118.968880
 20
302.374992
 30
0.0
  0
SPLINE
  5
1c9
100
AcDbEntity
  8
Layer_1
 62
7
100
AcDbSpline
 70
8
 71
3
 72
8
 73
4
 74
0
 40
0
 40
0
 40
0
 40
0
 40
1
 40
1
 40
1
 40
1
 10
118.968880
 20
302.374992
 30
0.0
 10
118.968880
 20
303.105240
 30
0.0
 10
119.560862
 20
303.697217
 30
0.0
 10
120.291107
 20
303.697217
 30
0.0
  0
SPLINE
  5
1ca
100
AcDbEntity
  8
Layer_1
 62
7
100
AcDbSpline
 70
8
 71
3
 72
8
 73
4
 74
0
 40
0
 40
0
 40
0
 40
0
 40
1
 40
1
 40
1
 40
1
 10
120.291107
 20
303.697217
 30
0.0
 10
121.021353
 20
303.697217
 30
0.0
 10
121.613334
 20
303.105240
 30
0.0
 10
121.613334
 20
302.374992
 30
0.0
  0
LWPOLYLINE
  5
1cb
100
AcDbEntity
  8
Layer_1
 62
7
100
AcDbPolyline
 90
5
 70
1
 10
135.023025
 20
294.435535
 30
0.0
 10
269.693331
 20
294.435535
 30
0.0
 10
269.693331
 20
205.765228
 30
0.0
 10
135.023025
 20
205.765228
 30
0.0
 10
135.023025
 20
294.435535
 30
0.0
  0
SPLINE
  5
1cc
100
AcDbEntity
  8
Layer_1
 62
7
100
AcDbSpline
 70
8
 71
3
 72
8
 73
4
 74
0
 40
0
 40
0
 40
0
 40
0
 40
1
 40
1
 40
1
 40
1
 10
121.613227
 20
197.741992
 30
0.0
 10
121.613227
 20
197.011744
 30
0.0
 10
121.021246
 20
196.419768
 30
0.0
 10
120.291000
 20
196.419768
 30
0.0
  0
SPLINE
  5
1cd
100
AcDbEntity
  8
Layer_1
 62
7
100
AcDbSpline
 70
8
 71
3
 72
8
 73
4
 74
0
 40
0
 40
0
 40
0
 40
0
 40
1
 40
1
 40
1
 40
1
 10
120.291000
 20
196.419768
 30
0.0
 10
119.560755
 20
196.419768
 30
0.0
 10
118.968772
 20
197.011744
 30
0.0
 10
118.968772
 20
197.741992
 30
0.0
  0
SPLINE
  5
1ce
100
AcDbEntity
  8
Layer_1
 62
7
100
AcDbSpline
 70
8
 71
3
 72
8
 73
4
 74
0
 40
0
 40
0
 40
0
 40
0
 40
1
 40
1
 40
1
 40
1
 10
118.968772
 20
197.741992
 30
0.0
 10
118.968772
 20
198.472240
 30
0.0
 10
119.560755
 20
199.064217
 30
0.0
 10
120.291000
 20
199.064217
 30
0.0
  0
SPLINE
  5
1cf
100
AcDbEntity
  8
Layer_1
 62
7
100
AcDbSpline
 70
8
 71
3
 72
8
 73
4
 74
0
 40
0
 40
0
 40
0
 40
0
 40
1
 40
1
 40
1
 40
1
 10
120.291000
 20
199.064217
 30
0.0
 10
121.021246
 20
199.064217
 30
0.0
 10
121.613227
 20
198.472240
 30
0.0
 10
121.613227
 20
197.741992
 30
0.0
  0
LWPOLYLINE
  5
1d0
100
AcDbEntity
  8
Layer_1
 62
7
100
AcDbPolyline
 90
2
 70
1
 10
121.613334
 20
302.374992
 30
0.0
 10
121.613334
 20
302.374992
 30
0.0
  0
SPLINE
  5
1d1
100
AcDbEntity
  8
Layer_1
 62
7
100
AcDbSpline
 70
8
 71
3
 72
8
 73
4
 74
0
 40
0
 40
0
 40
0
 40
0
 40
1
 40
1
 40
1
 40
1
 10
285.395560
 20
197.741992
 30
0.0
 10
285.395560
 20
197.011744
 30
0.0
 10
284.803579
 20
196.419768
 30
0.0
 10
284.073332
 20
196.419768
 30
0.0
  0
SPLINE
  5
1d2
100
AcDbEntity
  8
Layer_1
 62
7
100
AcDbSpline
 70
8
 71
3
 72
8
 73
4
 74
0
 40
0
 40
0
 40
0
 40
0
 40
1
 40
1
 40
1
 40
1
 10
284.073332
 20
196.419768
 30
0.0
 10
283.343087
 20
196.419768
 30
0.0
 10
282.751105
 20
197.011744
 30
0.0
 10
282.751105
 20
197.741992
 30
0.0
  0
SPLINE
  5
1d3
100
AcDbEntity
  8
Layer_1
 62
7
100
AcDbSpline
 70
8
 71
3
 72
8
 73
4
 74
0
 40
0
 40
0
 40
0
 40
0
 40
1
 40
1
 40
1
 40
1
 10
282.751105
 20
197.741992
 30
0.0
 10
282.751105
 20
198.472240
 30
0.0
 10
283.343087
 20
199.064217
 30
0.0
 10
284.073332
 20
199.064217
 30
0.0
  0
SPLINE
  5
1d4
100
AcDbEntity
  8
Layer_1
 62
7
100
AcDbSpline
 70
8
 71
3
 72
8
 73
4
 74
0
 40
0
 40
0
 40
0
 40
0
 40
1
 40
1
 40
1
 40
1
 10
284.073332
 20
199.064217
 30
0.0
 10
284.803579
 20
199.064217
 30
0.0
 10
285.395560
 20
198.472240
 30
0.0
 10
285.395560
 20
197.741992
 30
0.0
  0
LWPOLYLINE
  5
1d5
100
AcDbEntity
  8
Layer_1
 62
7
100
AcDbPolyline
 90
2
 70
1
 10
121.613227
 20
197.741992
 30
0.0
 10
121.613227
 20
197.741992
 30
0.0
  0
SPLINE
  5
1d6
100
AcDbEntity
  8
Layer_1
 62
7
100
AcDbSpline
 70
8
 71
3
 72
8
 73
4
 74
0
 40
0
 40
0
 40
0
 40
0
 40
1
 40
1
 40
1
 40
1
 10
285.395560
 20
302.374992
 30
0.0
 10
285.395560
 20
301.644744
 30
0.0
 10
284.803579
 20
301.052768
 30
0.0
 10
284.073332
 20
301.052768
 30
0.0
  0
SPLINE
  5
1d7
100
AcDbEntity
  8
Layer_1
 62
7
100
AcDbSpline
 70
8
 71
3
 72
8
 73
4
 74
0
 40
0
 40
0
 40
0
 40
0
 40
1
 40
1
 40
1
 40
1
 10
284.073332
 20
301.052768
 30
0.0
 10
283.343087
 20
301.052768
 30
0.0
 10
282.751105
 20
301.644744
 30
0.0
 10
282.751105
 20
302.374992
 30
0.0
  0
SPLINE
  5
1d8
100
AcDbEntity
  8
Layer_1
 62
7
100
AcDbSpline
 70
8
 71
3
 72
8
 73
4
 74
0
 40
0
 40
0
 40
0
 40
0
 40
1
 40
1
 40
1
 40
1
 10
282.751105
 20
302.374992
 30
0.0
 10
282.751105
 20
303.105240
 30
0.0
 10
283.343087
 20
303.697217
 30
0.0
 10
284.073332
 20
303.697217
 30
0.0
  0
SPLINE
  5
1d9
100
AcDbEntity
  8
Layer_1
 62
7
100
AcDbSpline
 70
8
 71
3
 72
8
 73
4
 74
0
 40
0
 40
0
 40
0
 40
0
 40
1
 40
1
 40
1
 40
1
 10
284.073332
 20
303.697217
 30
0.0
 10
284.803579
 20
303.697217
 30
0.0
 10
285.395560
 20
303.105240
 30
0.0
 10
285.395560
 20
302.374992
 30
0.0
  0
LWPOLYLINE
  5
1da
100
AcDbEntity
  8
Layer_1
 62
7
100
AcDbPolyline
 90
2
 70
1
 10
285.395560
 20
197.741992
 30
0.0
 10
285.395560
 20
197.741992
 30
0.0
  0
LWPOLYLINE
  5
1db
100
AcDbEntity
  8
Layer_1
 62
7
100
AcDbPolyline
 90
2
 70
1
 10
285.395560
 20
302.374992
 30
0.0
 10
285.395560
 20
302.374992
 30
0.0
  0
LWPOLYLINE
  5
1dc
100
AcDbEntity
  8
Layer_1
 62
7
100
AcDbPolyline
 90
5
 70
1
 10
113.718718
 20
149.999988
 30
0.0
 10
293.306672
 20
149.999988
 30
0.0
 10
293.306672
 20
30.412041
 30
0.0
 10
113.718718
 20
30.412041
 30
0.0
 10
113.718718
 20
149.999988
 30
0.0
  0
LWPOLYLINE
  5
1dd
100
AcDbEntity
  8
Layer_1
 62
7
100
AcDbPolyline
 90
5
 70
1
 10
93.306666
 20
164.868321
 30
0.0
 10
313.384274
 20
164.868321
 30
0.0
 10
313.384274
 20
149.999984
 30
0.0
 10
93.306666
 20
149.999984
 30
0.0
 10
93.306666
 20
164.868321
 30
0.0
  0
LWPOLYLINE
  5
1de
100
AcDbEntity
  8
Layer_1
 62
7
100
AcDbPolyline
 90
5
 70
1
 10
293.306641
 20
149.999988
 30
0.0
 10
313.384261
 20
149.999988
 30
0.0
 10
313.384261
 20
29.999982
 30
0.0
 10
293.306641
 20
29.999982
 30
0.0
 10
293.306641
 20
149.999988
 30
0.0
  0
LWPOLYLINE
  5
1df
100
AcDbEntity
  8
Layer_1
 62
7
100
AcDbPolyline
 90
5
 70
1
 10
93.306666
 20
149.999988
 30
0.0
 10
113.306666
 20
149.999988
 30
0.0
 10
113.306666
 20
29.999991
 30
0.0
 10
93.306666
 20
29.999991
 30
0.0
 10
93.306666
 20
149.999988
 30
0.0
  0
LWPOLYLINE
  5
1e0
100
AcDbEntity
  8
Layer_1
 62
7
100
AcDbPolyline
 90
5
 70
1
 10
93.306666
 20
29.999991
 30
0.0
 10
313.384257
 20
29.999991
 30
0.0
 10
313.384257
 20
9.868310
 30
0.0
 10
93.306666
 20
9.868310
 30
0.0
 10
93.306666
 20
29.999991
 30
0.0
  0
LWPOLYLINE
  5
1e1
100
AcDbEntity
  8
Layer_1
 62
7
100
AcDbPolyline
 90
5
 70
1
 10
123.306668
 20
152.999976
 30
0.0
 10
138.306667
 20
152.999976
 30
0.0
 10
138.306667
 20
149.999976
 30
0.0
 10
123.306668
 20
149.999976
 30
0.0
 10
123.306668
 20
152.999976
 30
0.0
  0
LWPOLYLINE
  5
1e2
100
AcDbEntity
  8
Layer_1
 62
7
100
AcDbPolyline
 90
5
 70
1
 10
268.306654
 20
152.999976
 30
0.0
 10
283.306654
 20
152.999976
 30
0.0
 10
283.306654
 20
149.999976
 30
0.0
 10
268.306654
 20
149.999976
 30
0.0
 10
268.306654
 20
152.999976
 30
0.0
  0
LWPOLYLINE
  5
1e3
100
AcDbEntity
  8
Layer_1
 62
7
100
AcDbPolyline
 90
5
 70
1
 10
153.306664
 20
152.999993
 30
0.0
 10
168.306664
 20
152.999993
 30
0.0
 10
168.306664
 20
149.999993
 30
0.0
 10
153.306664
 20
149.999993
 30
0.0
 10
153.306664
 20
152.999993
 30
0.0
  0
LWPOLYLINE
  5
1e4
100
AcDbEntity
  8
Layer_1
 62
7
100
AcDbPolyline
 90
5
 70
1
 10
238.306661
 20
152.999993
 30
0.0
 10
253.306660
 20
152.999993
 30
0.0
 10
253.306660
 20
149.999993
 30
0.0
 10
238.306661
 20
149.999993
 30
0.0
 10
238.306661
 20
152.999993
 30
0.0
  0
LWPOLYLINE
  5
1e5
100
AcDbEntity
  8
Layer_1
 62
7
100
AcDbPolyline
 90
5
 70
1
 10
183.306658
 20
152.999993
 30
0.0
 10
198.306658
 20
152.999993
 30
0.0
 10
198.306658
 20
149.999993
 30
0.0
 10
183.306658
 20
149.999993
 30
0.0
 10
183.306658
 20
152.999993
 30
0.0
  0
LWPOLYLINE
  5
1e6
100
AcDbEntity
  8
Layer_1
 62
7
100
AcDbPolyline
 90
5
 70
1
 10
208.306664
 20
152.999993
 30
0.0
 10
223.306664
 20
152.999993
 30
0.0
 10
223.306664
 20
149.999993
 30
0.0
 10
208.306664
 20
149.999993
 30
0.0
 10
208.306664
 20
152.999993
 30
0.0
  0
LWPOLYLINE
  5
1e7
100
AcDbEntity
  8
Layer_1
 62
7
100
AcDbPolyline
 90
5
 70
1
 10
110.306668
 20
139.999977
 30
0.0
 10
113.306668
 20
139.999977
 30
0.0
 10
113.306668
 20
124.999977
 30
0.0
 10
110.306668
 20
124.999977
 30
0.0
 10
110.306668
 20
139.999977
 30
0.0
  0
LWPOLYLINE
  5
1e8
100
AcDbEntity
  8
Layer_1
 62
7
100
AcDbPolyline
 90
5
 70
1
 10
293.306669
 20
139.999977
 30
0.0
 10
296.306669
 20
139.999977
 30
0.0
 10
296.306669
 20
124.999977
 30
0.0
 10
293.306669
 20
124.999977
 30
0.0
 10
293.306669
 20
139.999977
 30
0.0
  0
LWPOLYLINE
  5
1e9
100
AcDbEntity
  8
Layer_1
 62
7
100
AcDbPolyline
 90
5
 70
1
 10
110.306668
 20
109.999983
 30
0.0
 10
113.306668
 20
109.999983
 30
0.0
 10
113.306668
 20
94.999984
 30
0.0
 10
110.306668
 20
94.999984
 30
0.0
 10
110.306668
 20
109.999983
 30
0.0
  0
LWPOLYLINE
  5
1ea
100
AcDbEntity
  8
Layer_1
 62
7
100
AcDbPolyline
 90
5
 70
1
 10
293.306669
 20
109.999983
 30
0.0
 10
296.306669
 20
109.999983
 30
0.0
 10
296.306669
 20
94.999984
 30
0.0
 10
293.306669
 20
94.999984
 30
0.0
 10
293.306669
 20
109.999983
 30
0.0
  0
LWPOLYLINE
  5
1eb
100
AcDbEntity
  8
Layer_1
 62
7
100
AcDbPolyline
 90
5
 70
1
 10
110.306668
 20
54.999997
 30
0.0
 10
113.306668
 20
54.999997
 30
0.0
 10
113.306668
 20
39.999998
 30
0.0
 10
110.306668
 20
39.999998
 30
0.0
 10
110.306668
 20
54.999997
 30
0.0
  0
LWPOLYLINE
  5
1ec
100
AcDbEntity
  8
Layer_1
 62
7
100
AcDbPolyline
 90
5
 70
1
 10
110.306668
 20
84.999991
 30
0.0
 10
113.306668
 20
84.999991
 30
0.0
 10
113.306668
 20
69.999991
 30
0.0
 10
110.306668
 20
69.999991
 30
0.0
 10
110.306668
 20
84.999991
 30
0.0
  0
LWPOLYLINE
  5
1ed
100
AcDbEntity
  8
Layer_1
 62
7
100
AcDbPolyline
 90
5
 70
1
 10
293.306669
 20
54.999997
 30
0.0
 10
296.306669
 20
54.999997
 30
0.0
 10
296.306669
 20
39.999998
 30
0.0
 10
293.306669
 20
39.999998
 30
0.0
 10
293.306669
 20
54.999997
 30
0.0
  0
LWPOLYLINE
  5
1ee
100
AcDbEntity
  8
Layer_1
 62
7
100
AcDbPolyline
 90
5
 70
1
 10
293.306669
 20
84.999991
 30
0.0
 10
296.306669
 20
84.999991
 30
0.0
 10
296.306669
 20
69.999991
 30
0.0
 10
293.306669
 20
69.999991
 30
0.0
 10
293.306669
 20
84.999991
 30
0.0
  0
LWPOLYLINE
  5
1ef
100
AcDbEntity
  8
Layer_1
 62
7
100
AcDbPolyline
 90
5
 70
1
 10
123.306668
 20
29.999991
 30
0.0
 10
138.306667
 20
29.999991
 30
0.0
 10
138.306667
 20
26.999991
 30
0.0
 10
123.306668
 20
26.999991
 30
0.0
 10
123.306668
 20
29.999991
 30
0.0
  0
LWPOLYLINE
  5
1f0
100
AcDbEntity
  8
Layer_1
 62
7
100
AcDbPolyline
 90
5
 70
1
 10
153.306664
 20
29.999991
 30
0.0
 10
168.306664
 20
29.999991
 30
0.0
 10
168.306664
 20
26.999991
 30
0.0
 10
153.306664
 20
26.999991
 30
0.0
 10
153.306664
 20
29.999991
 30
0.0
  0
LWPOLYLINE
  5
1f1
100
AcDbEntity
  8
Layer_1
 62
7
100
AcDbPolyline
 90
5
 70
1
 10
183.306658
 20
29.999991
 30
0.0
 10
198.306658
 20
29.999991
 30
0.0
 10
198.306658
 20
26.999991
 30
0.0
 10
183.306658
 20
26.999991
 30
0.0
 10
183.306658
 20
29.999991
 30
0.0
  0
LWPOLYLINE
  5
1f2
100
AcDbEntity
  8
Layer_1
 62
7
100
AcDbPolyline
 90
5
 70
1
 10
268.306654
 20
29.999991
 30
0.0
 10
283.306654
 20
29.999991
 30
0.0
 10
283.306654
 20
26.999991
 30
0.0
 10
268.306654
 20
26.999991
 30
0.0
 10
268.306654
 20
29.999991
 30
0.0
  0
LWPOLYLINE
  5
1f3
100
AcDbEntity
  8
Layer_1
 62
7
100
AcDbPolyline
 90
5
 70
1
 10
238.306661
 20
29.999991
 30
0.0
 10
253.306660
 20
29.999991
 30
0.0
 10
253.306660
 20
26.999991
 30
0.0
 10
238.306661
 20
26.999991
 30
0.0
 10
238.306661
 20
29.999991
 30
0.0
  0
LWPOLYLINE
  5
1f4
100
AcDbEntity
  8
Layer_1
 62
7
100
AcDbPolyline
 90
5
 70
1
 10
208.306664
 20
29.999991
 30
0.0
 10
223.306664
 20
29.999991
 30
0.0
 10
223.306664
 20
26.999991
 30
0.0
 10
208.306664
 20
26.999991
 30
0.0
 10
208.306664
 20
29.999991
 30
0.0
  0
LWPOLYLINE
  5
1f5
100
AcDbEntity
  8
Layer_1
 62
7
100
AcDbPolyline
 90
5
 70
1
 10
134.765246
 20
134.435528
 30
0.0
 10
269.435552
 20
134.435528
 30
0.0
 10
269.435552
 20
45.765220
 30
0.0
 10
134.765246
 20
45.765220
 30
0.0
 10
134.765246
 20
134.435528
 30
0.0
  0
LWPOLYLINE
  5
1f6
100
AcDbEntity
  8
Layer_1
 62
7
100
AcDbPolyline
 90
5
 70
1
 10
113.718718
 20
149.999988
 30
0.0
 10
293.306672
 20
149.999988
 30
0.0
 10
293.306672
 20
30.412041
 30
0.0
 10
113.718718
 20
30.412041
 30
0.0
 10
113.718718
 20
149.999988
 30
0.0
  0
LWPOLYLINE
  5
1f7
100
AcDbEntity
  8
Layer_1
 62
7
100
AcDbPolyline
 90
5
 70
1
 10
93.306666
 20
164.868321
 30
0.0
 10
313.384274
 20
164.868321
 30
0.0
 10
313.384274
 20
144.999988
 30
0.0
 10
93.306666
 20
144.999988
 30
0.0
 10
93.306666
 20
164.868321
 30
0.0
  0
LWPOLYLINE
  5
1f8
100
AcDbEntity
  8
Layer_1
 62
7
100
AcDbPolyline
 90
5
 70
1
 10
290.000013
 20
149.999988
 30
0.0
 10
313.384279
 20
149.999988
 30
0.0
 10
313.384279
 20
29.999982
 30
0.0
 10
290.000013
 20
29.999982
 30
0.0
 10
290.000013
 20
149.999988
 30
0.0
  0
LWPOLYLINE
  5
1f9
100
AcDbEntity
  8
Layer_1
 62
7
100
AcDbPolyline
 90
5
 70
1
 10
93.306666
 20
149.999988
 30
0.0
 10
114.999999
 20
149.999988
 30
0.0
 10
114.999999
 20
29.999991
 30
0.0
 10
93.306666
 20
29.999991
 30
0.0
 10
93.306666
 20
149.999988
 30
0.0
  0
LWPOLYLINE
  5
1fa
100
AcDbEntity
  8
Layer_1
 62
7
100
AcDbPolyline
 90
5
 70
1
 10
93.306666
 20
34.999995
 30
0.0
 10
313.384257
 20
34.999995
 30
0.0
 10
313.384257
 20
9.868314
 30
0.0
 10
93.306666
 20
9.868314
 30
0.0
 10
93.306666
 20
34.999995
 30
0.0
  0
SPLINE
  5
1fb
100
AcDbEntity
  8
Layer_1
 62
7
100
AcDbSpline
 70
8
 71
3
 72
8
 73
4
 74
0
 40
0
 40
0
 40
0
 40
0
 40
1
 40
1
 40
1
 40
1
 10
121.920000
 20
142.374990
 30
0.0
 10
121.920000
 20
141.644743
 30
0.0
 10
121.328019
 20
141.052766
 30
0.0
 10
120.597772
 20
141.052766
 30
0.0
  0
SPLINE
  5
1fc
100
AcDbEntity
  8
Layer_1
 62
7
100
AcDbSpline
 70
8
 71
3
 72
8
 73
4
 74
0
 40
0
 40
0
 40
0
 40
0
 40
1
 40
1
 40
1
 40
1
 10
120.597772
 20
141.052766
 30
0.0
 10
119.867528
 20
141.052766
 30
0.0
 10
119.275545
 20
141.644743
 30
0.0
 10
119.275545
 20
142.374990
 30
0.0
  0
SPLINE
  5
1fd
100
AcDbEntity
  8
Layer_1
 62
7
100
AcDbSpline
 70
8
 71
3
 72
8
 73
4
 74
0
 40
0
 40
0
 40
0
 40
0
 40
1
 40
1
 40
1
 40
1
 10
119.275545
 20
142.374990
 30
0.0
 10
119.275545
 20
143.105238
 30
0.0
 10
119.867528
 20
143.697215
 30
0.0
 10
120.597772
 20
143.697215
 30
0.0
  0
SPLINE
  5
1fe
100
AcDbEntity
  8
Layer_1
 62
7
100
AcDbSpline
 70
8
 71
3
 72
8
 73
4
 74
0
 40
0
 40
0
 40
0
 40
0
 40
1
 40
1
 40
1
 40
1
 10
120.597772
 20
143.697215
 30
0.0
 10
121.328019
 20
143.697215
 30
0.0
 10
121.920000
 20
143.105238
 30
0.0
 10
121.920000
 20
142.374990
 30
0.0
  0
LWPOLYLINE
  5
1ff
100
AcDbEntity
  8
Layer_1
 62
7
100
AcDbPolyline
 90
5
 70
1
 10
135.329690
 20
134.435528
 30
0.0
 10
269.999996
 20
134.435528
 30
0.0
 10
269.999996
 20
45.765220
 30
0.0
 10
135.329690
 20
45.765220
 30
0.0
 10
135.329690
 20
134.435528
 30
0.0
  0
SPLINE
  5
200
100
AcDbEntity
  8
Layer_1
 62
7
100
AcDbSpline
 70
8
 71
3
 72
8
 73
4
 74
0
 40
0
 40
0
 40
0
 40
0
 40
1
 40
1
 40
1
 40
1
 10
121.919892
 20
37.741991
 30
0.0
 10
121.919892
 20
37.011743
 30
0.0
 10
121.327912
 20
36.419766
 30
0.0
 10
120.597665
 20
36.419766
 30
0.0
  0
SPLINE
  5
201
100
AcDbEntity
  8
Layer_1
 62
7
100
AcDbSpline
 70
8
 71
3
 72
8
 73
4
 74
0
 40
0
 40
0
 40
0
 40
0
 40
1
 40
1
 40
1
 40
1
 10
120.597665
 20
36.419766
 30
0.0
 10
119.867420
 20
36.419766
 30
0.0
 10
119.275438
 20
37.011743
 30
0.0
 10
119.275438
 20
37.741991
 30
0.0
  0
SPLINE
  5
202
100
AcDbEntity
  8
Layer_1
 62
7
100
AcDbSpline
 70
8
 71
3
 72
8
 73
4
 74
0
 40
0
 40
0
 40
0
 40
0
 40
1
 40
1
 40
1
 40
1
 10
119.275438
 20
37.741991
 30
0.0
 10
119.275438
 20
38.472238
 30
0.0
 10
119.867420
 20
39.064215
 30
0.0
 10
120.597665
 20
39.064215
 30
0.0
  0
SPLINE
  5
203
100
AcDbEntity
  8
Layer_1
 62
7
100
AcDbSpline
 70
8
 71
3
 72
8
 73
4
 74
0
 40
0
 40
0
 40
0
 40
0
 40
1
 40
1
 40
1
 40
1
 10
120.597665
 20
39.064215
 30
0.0
 10
121.327912
 20
39.064215
 30
0.0
 10
121.919892
 20
38.472238
 30
0.0
 10
121.919892
 20
37.741991
 30
0.0
  0
LWPOLYLINE
  5
204
100
AcDbEntity
  8
Layer_1
 62
7
100
AcDbPolyline
 90
2
 70
1
 10
121.920000
 20
142.374990
 30
0.0
 10
121.920000
 20
142.374990
 30
0.0
  0
SPLINE
  5
205
100
AcDbEntity
  8
Layer_1
 62
7
100
AcDbSpline
 70
8
 71
3
 72
8
 73
4
 74
0
 40
0
 40
0
 40
0
 40
0
 40
1
 40
1
 40
1
 40
1
 10
285.702225
 20
37.741991
 30
0.0
 10
285.702225
 20
37.011743
 30
0.0
 10
285.110244
 20
36.419766
 30
0.0
 10
284.379998
 20
36.419766
 30
0.0
  0
SPLINE
  5
206
100
AcDbEntity
  8
Layer_1
 62
7
100
AcDbSpline
 70
8
 71
3
 72
8
 73
4
 74
0
 40
0
 40
0
 40
0
 40
0
 40
1
 40
1
 40
1
 40
1
 10
284.379998
 20
36.419766
 30
0.0
 10
283.649753
 20
36.419766
 30
0.0
 10
283.057771
 20
37.011743
 30
0.0
 10
283.057771
 20
37.741991
 30
0.0
  0
SPLINE
  5
207
100
AcDbEntity
  8
Layer_1
 62
7
100
AcDbSpline
 70
8
 71
3
 72
8
 73
4
 74
0
 40
0
 40
0
 40
0
 40
0
 40
1
 40
1
 40
1
 40
1
 10
283.057771
 20
37.741991
 30
0.0
 10
283.057771
 20
38.472238
 30
0.0
 10
283.649753
 20
39.064215
 30
0.0
 10
284.379998
 20
39.064215
 30
0.0
  0
SPLINE
  5
208
100
AcDbEntity
  8
Layer_1
 62
7
100
AcDbSpline
 70
8
 71
3
 72
8
 73
4
 74
0
 40
0
 40
0
 40
0
 40
0
 40
1
 40
1
 40
1
 40
1
 10
284.379998
 20
39.064215
 30
0.0
 10
285.110244
 20
39.064215
 30
0.0
 10
285.702225
 20
38.472238
 30
0.0
 10
285.702225
 20
37.741991
 30
0.0
  0
LWPOLYLINE
  5
209
100
AcDbEntity
  8
Layer_1
 62
7
100
AcDbPolyline
 90
2
 70
1
 10
121.919892
 20
37.741991
 30
0.0
 10
121.919892
 20
37.741991
 30
0.0
  0
SPLINE
  5
20a
100
AcDbEntity
  8
Layer_1
 62
7
100
AcDbSpline
 70
8
 71
3
 72
8
 73
4
 74
0
 40
0
 40
0
 40
0
 40
0
 40
1
 40
1
 40
1
 40
1
 10
285.702225
 20
142.374990
 30
0.0
 10
285.702225
 20
141.644743
 30
0.0
 10
285.110244
 20
141.052766
 30
0.0
 10
284.379998
 20
141.052766
 30
0.0
  0
SPLINE
  5
20b
100
AcDbEntity
  8
Layer_1
 62
7
100
AcDbSpline
 70
8
 71
3
 72
8
 73
4
 74
0
 40
0
 40
0
 40
0
 40
0
 40
1
 40
1
 40
1
 40
1
 10
284.379998
 20
141.052766
 30
0.0
 10
283.649753
 20
141.052766
 30
0.0
 10
283.057771
 20
141.644743
 30
0.0
 10
283.057771
 20
142.374990
 30
0.0
  0
SPLINE
  5
20c
100
AcDbEntity
  8
Layer_1
 62
7
100
AcDbSpline
 70
8
 71
3
 72
8
 73
4
 74
0
 40
0
 40
0
 40
0
 40
0
 40
1
 40
1
 40
1
 40
1
 10
283.057771
 20
142.374990
 30
0.0
 10
283.057771
 20
143.105238
 30
0.0
 10
283.649753
 20
143.697215
 30
0.0
 10
284.379998
 20
143.697215
 30
0.0
  0
SPLINE
  5
20d
100
AcDbEntity
  8
Layer_1
 62
7
100
AcDbSpline
 70
8
 71
3
 72
8
 73
4
 74
0
 40
0
 40
0
 40
0
 40
0
 40
1
 40
1
 40
1
 40
1
 10
284.379998
 20
143.697215
 30
0.0
 10
285.110244
 20
143.697215
 30
0.0
 10
285.702225
 20
143.105238
 30
0.0
 10
285.702225
 20
142.374990
 30
0.0
  0
LWPOLYLINE
  5
20e
100
AcDbEntity
  8
Layer_1
 62
7
100
AcDbPolyline
 90
2
 70
1
 10
285.702225
 20
37.741991
 30
0.0
 10
285.702225
 20
37.741991
 30
0.0
  0
LWPOLYLINE
  5
20f
100
AcDbEntity
  8
Layer_1
 62
7
100
AcDbPolyline
 90
2
 70
1
 10
285.702225
 20
142.374990
 30
0.0
 10
285.702225
 20
142.374990
 30
0.0
  0
LWPOLYLINE
  5
210
100
AcDbEntity
  8
Layer_1
 62
7
100
AcDbPolyline
 90
5
 70
1
 10
312.177769
 20
514.999980
 30
0.0
 10
320.000022
 20
514.999980
 30
0.0
 10
320.000022
 20
499.999981
 30
0.0
 10
312.177769
 20
499.999981
 30
0.0
 10
312.177769
 20
514.999980
 30
0.0
  0
LWPOLYLINE
  5
211
100
AcDbEntity
  8
Layer_1
 62
7
100
AcDbPolyline
 90
5
 70
1
 10
354.999996
 20
515.000000
 30
0.0
 10
368.000007
 20
515.000000
 30
0.0
 10
368.000007
 20
500.000000
 30
0.0
 10
354.999996
 20
500.000000
 30
0.0
 10
354.999996
 20
515.000000
 30
0.0
  0
LWPOLYLINE
  5
212
100
AcDbEntity
  8
Layer_1
 62
7
100
AcDbPolyline
 90
5
 70
1
 10
354.999996
 20
484.999987
 30
0.0
 10
367.788739
 20
484.999987
 30
0.0
 10
367.788739
 20
469.929033
 30
0.0
 10
354.999996
 20
469.929033
 30
0.0
 10
354.999996
 20
484.999987
 30
0.0
  0
LWPOLYLINE
  5
213
100
AcDbEntity
  8
Layer_1
 62
7
100
AcDbPolyline
 90
5
 70
1
 10
360.000014
 20
459.999997
 30
0.0
 10
367.788757
 20
459.999997
 30
0.0
 10
367.788757
 20
444.929044
 30
0.0
 10
360.000014
 20
444.929044
 30
0.0
 10
360.000014
 20
459.999997
 30
0.0
  0
LWPOLYLINE
  5
214
100
AcDbEntity
  8
Layer_1
 62
7
100
AcDbPolyline
 90
5
 70
1
 10
312.389040
 20
459.999980
 30
0.0
 10
320.000000
 20
459.999980
 30
0.0
 10
320.000000
 20
444.929027
 30
0.0
 10
312.389040
 20
444.929027
 30
0.0
 10
312.389040
 20
459.999980
 30
0.0
  0
LWPOLYLINE
  5
215
100
AcDbEntity
  8
Layer_1
 62
7
100
AcDbPolyline
 90
5
 70
1
 10
360.000014
 20
429.999992
 30
0.0
 10
367.788757
 20
429.999992
 30
0.0
 10
367.788757
 20
414.929039
 30
0.0
 10
360.000014
 20
414.929039
 30
0.0
 10
360.000014
 20
429.999992
 30
0.0
  0
LWPOLYLINE
  5
216
100
AcDbEntity
  8
Layer_1
 62
7
100
AcDbPolyline
 90
5
 70
1
 10
50.000002
 20
515.000000
 30
0.0
 10
37.000002
 20
515.000000
 30
0.0
 10
37.000002
 20
500.000000
 30
0.0
 10
50.000002
 20
500.000000
 30
0.0
 10
50.000002
 20
515.000000
 30
0.0
  0
LWPOLYLINE
  5
217
100
AcDbEntity
  8
Layer_1
 62
7
100
AcDbPolyline
 90
5
 70
1
 10
50.000002
 20
484.999987
 30
0.0
 10
37.211270
 20
484.999987
 30
0.0
 10
37.211270
 20
469.929033
 30
0.0
 10
50.000002
 20
469.929033
 30
0.0
 10
50.000002
 20
484.999987
 30
0.0
  0
LWPOLYLINE
  5
218
100
AcDbEntity
  8
Layer_1
 62
7
100
AcDbPolyline
 90
5
 70
1
 10
50.000002
 20
459.999997
 30
0.0
 10
37.211270
 20
459.999997
 30
0.0
 10
37.211270
 20
444.929044
 30
0.0
 10
50.000002
 20
444.929044
 30
0.0
 10
50.000002
 20
459.999997
 30
0.0
  0
LWPOLYLINE
  5
219
100
AcDbEntity
  8
Layer_1
 62
7
100
AcDbPolyline
 90
5
 70
1
 10
50.000002
 20
429.999992
 30
0.0
 10
37.211270
 20
429.999992
 30
0.0
 10
37.211270
 20
414.929039
 30
0.0
 10
50.000002
 20
414.929039
 30
0.0
 10
50.000002
 20
429.999992
 30
0.0
  0
ENDSEC
  0
SECTION
  2
OBJECTS
  0
DICTIONARY
  5
C
330
0
100
AcDbDictionary
  3
ACAD_GROUP
350
D
  3
ACAD_MLINESTYLE
350
17
  0
DICTIONARY
  5
D
330
C
100
AcDbDictionary
  0
DICTIONARY
  5
1A
330
C
100
AcDbDictionary
  0
DICTIONARY
  5
17
330
C
100
AcDbDictionary
  3
STANDARD
350
18
  0
DICTIONARY
  5
19
330
C
100
AcDbDictionary
  0
ENDSEC
  0
EOF
